  0
SECTION
  2
HEADER
  9
$ANGBASE
  50
0.0
  9
$ANGDIR
  70
1
  9
$MEASUREMENT
  70
0
  0
ENDSEC
  0
SECTION
  2
TABLES
  0
TABLE
  2
LTYPE
  70
4
  0
LTYPE
  5
40F
  2
CONTINUOUS
  70
0
  3
Solid line
  72
65
  73
0
  40
0.0
  0
LTYPE
  5
410
  2
DASHDOT
 70
0
  3
Dash Dot ____ _ ____ _
 72
65
 73
4
 40
2.0
 49
1.25
 49
-0.25
 49
0.25
 49
-0.25
  0
LTYPE
  5
411
  2
DASHED
 70
0
  3
Dashed __ __ __ __ __
 72
65
 73
2
 40
0.75
 49
0.5
 49
-0.25
  0
LTYPE
  5
43B
  2
DOTTED
 70
0
  3
Dotted .  .  .  .
 72
65
 73
2
 40
0.2
 49
0.0
 49
-0.2
  0
ENDTAB
  0
TABLE
  2
STYLE
  70
4
  0
STYLE
  2
KICAD
  70
0
  40
0
  41
1
  42
1
  50
0
  71
0
  3
isocp.shx
  0
STYLE
  2
KICADB
  70
0
  40
0
  41
1
  42
1
  50
0
  71
0
  3
isocp.shx
  0
STYLE
  2
KICADI
  70
0
  40
0
  41
1
  42
1
  50
15
  71
0
  3
isocp.shx
  0
STYLE
  2
KICADBI
  70
0
  40
0
  41
1
  42
1
  50
15
  71
0
  3
isocp.shx
  0
ENDTAB
  0
TABLE
  2
LAYER
  70
1
  0
LAYER
  2
BLACK
  70
0
  62
7
  6
CONTINUOUS
  0
ENDTAB
  0
ENDSEC
  0
SECTION
  2
ENTITIES
0
LINE
8
BLACK
6
CONTINUOUS
10
0.4205096456692913
20
0.5163158661417323
11
0.4338744094488189
21
0.5131483858267717
0
LINE
8
BLACK
6
CONTINUOUS
10
0.4338744094488189
20
0.5131483858267717
11
0.446781062992126
21
0.5084507086614173
0
LINE
8
BLACK
6
CONTINUOUS
10
0.446781062992126
20
0.5084507086614173
11
0.4590551181102362
21
0.5022864566929134
0
LINE
8
BLACK
6
CONTINUOUS
10
0.4590551181102362
20
0.5022864566929134
11
0.4705305511811024
21
0.4947389763779527
0
LINE
8
BLACK
6
CONTINUOUS
10
0.4705305511811024
20
0.4947389763779527
11
0.4810521653543307
21
0.4859102755905512
0
LINE
8
BLACK
6
CONTINUOUS
10
0.4810521653543307
20
0.4859102755905512
11
0.4904776771653543
21
0.4759198031496063
0
LINE
8
BLACK
6
CONTINUOUS
10
0.4904776771653543
20
0.4759198031496063
11
0.4986796456692913
21
0.4649026377952756
0
LINE
8
BLACK
6
CONTINUOUS
10
0.4986796456692913
20
0.4649026377952756
11
0.5055471653543308
21
0.4530077952755905
0
LINE
8
BLACK
6
CONTINUOUS
10
0.5055471653543308
20
0.4530077952755905
11
0.5109873228346457
21
0.440396062992126
0
LINE
8
BLACK
6
CONTINUOUS
10
0.5109873228346457
20
0.440396062992126
11
0.5149265748031496
21
0.4272381102362204
0
LINE
8
BLACK
6
CONTINUOUS
10
0.5149265748031496
20
0.4272381102362204
11
0.5173116141732284
21
0.4137117716535433
0
LINE
8
BLACK
6
CONTINUOUS
10
0.5173116141732284
20
0.4137117716535433
11
0.5181102362204725
21
0.4
0
LINE
8
BLACK
6
CONTINUOUS
10
0.5181102362204725
20
0.4
11
0.5173116141732284
21
0.3862882283464567
0
LINE
8
BLACK
6
CONTINUOUS
10
0.5173116141732284
20
0.3862882283464567
11
0.5149265748031496
21
0.3727618897637795
0
LINE
8
BLACK
6
CONTINUOUS
10
0.5149265748031496
20
0.3727618897637795
11
0.5109873228346457
21
0.359603937007874
0
LINE
8
BLACK
6
CONTINUOUS
10
0.5109873228346457
20
0.359603937007874
11
0.5055471653543308
21
0.3469922047244094
0
LINE
8
BLACK
6
CONTINUOUS
10
0.5055471653543308
20
0.3469922047244094
11
0.4986796456692913
21
0.3350973622047244
0
LINE
8
BLACK
6
CONTINUOUS
10
0.4986796456692913
20
0.3350973622047244
11
0.4904776771653543
21
0.3240801968503937
0
LINE
8
BLACK
6
CONTINUOUS
10
0.4904776771653543
20
0.3240801968503937
11
0.4810521653543307
21
0.3140897244094488
0
LINE
8
BLACK
6
CONTINUOUS
10
0.4810521653543307
20
0.3140897244094488
11
0.4705305511811024
21
0.3052610236220472
0
LINE
8
BLACK
6
CONTINUOUS
10
0.4705305511811024
20
0.3052610236220472
11
0.4590551181102362
21
0.2977135433070866
0
LINE
8
BLACK
6
CONTINUOUS
10
0.4590551181102362
20
0.2977135433070866
11
0.446781062992126
21
0.2915492913385827
0
LINE
8
BLACK
6
CONTINUOUS
10
0.446781062992126
20
0.2915492913385827
11
0.4338744094488189
21
0.2868516141732284
0
LINE
8
BLACK
6
CONTINUOUS
10
0.4338744094488189
20
0.2868516141732284
11
0.4205096456692913
21
0.2836841338582677
0
LINE
8
BLACK
6
CONTINUOUS
10
0.4205096456692913
20
0.2836841338582677
11
0.4068674803149606
21
0.2820896062992126
0
LINE
8
BLACK
6
CONTINUOUS
10
0.4068674803149606
20
0.2820896062992126
11
0.3931325196850394
21
0.2820896062992126
0
LINE
8
BLACK
6
CONTINUOUS
10
0.3931325196850394
20
0.2820896062992126
11
0.3794903543307087
21
0.2836841338582677
0
LINE
8
BLACK
6
CONTINUOUS
10
0.3794903543307087
20
0.2836841338582677
11
0.3661255905511811
21
0.2868516141732284
0
LINE
8
BLACK
6
CONTINUOUS
10
0.3661255905511811
20
0.2868516141732284
11
0.353218937007874
21
0.2915492913385827
0
LINE
8
BLACK
6
CONTINUOUS
10
0.353218937007874
20
0.2915492913385827
11
0.3409448818897638
21
0.2977135433070866
0
LINE
8
BLACK
6
CONTINUOUS
10
0.3409448818897638
20
0.2977135433070866
11
0.3294694488188976
21
0.3052610236220472
0
LINE
8
BLACK
6
CONTINUOUS
10
0.3294694488188976
20
0.3052610236220472
11
0.3189478346456693
21
0.3140897244094488
0
LINE
8
BLACK
6
CONTINUOUS
10
0.3189478346456693
20
0.3140897244094488
11
0.3095223228346456
21
0.3240801968503937
0
LINE
8
BLACK
6
CONTINUOUS
10
0.3095223228346456
20
0.3240801968503937
11
0.3013203543307086
21
0.3350973622047244
0
LINE
8
BLACK
6
CONTINUOUS
10
0.3013203543307086
20
0.3350973622047244
11
0.2944528346456693
21
0.3469922047244094
0
LINE
8
BLACK
6
CONTINUOUS
10
0.2944528346456693
20
0.3469922047244094
11
0.2890126771653543
21
0.359603937007874
0
LINE
8
BLACK
6
CONTINUOUS
10
0.2890126771653543
20
0.359603937007874
11
0.2850734251968504
21
0.3727618897637795
0
LINE
8
BLACK
6
CONTINUOUS
10
0.2850734251968504
20
0.3727618897637795
11
0.2826883858267716
21
0.3862882283464567
0
LINE
8
BLACK
6
CONTINUOUS
10
0.2826883858267716
20
0.3862882283464567
11
0.2818897637795276
21
0.4
0
LINE
8
BLACK
6
CONTINUOUS
10
0.2818897637795276
20
0.4
11
0.2826883858267716
21
0.4137117716535433
0
LINE
8
BLACK
6
CONTINUOUS
10
0.2826883858267716
20
0.4137117716535433
11
0.2850734251968504
21
0.4272381102362204
0
LINE
8
BLACK
6
CONTINUOUS
10
0.2850734251968504
20
0.4272381102362204
11
0.2890126771653543
21
0.440396062992126
0
LINE
8
BLACK
6
CONTINUOUS
10
0.2890126771653543
20
0.440396062992126
11
0.2944528346456693
21
0.4530077952755905
0
LINE
8
BLACK
6
CONTINUOUS
10
0.2944528346456693
20
0.4530077952755905
11
0.3013203543307086
21
0.4649026377952756
0
LINE
8
BLACK
6
CONTINUOUS
10
0.3013203543307086
20
0.4649026377952756
11
0.3095223228346456
21
0.4759198031496063
0
LINE
8
BLACK
6
CONTINUOUS
10
0.3095223228346456
20
0.4759198031496063
11
0.3189478346456693
21
0.4859102755905512
0
LINE
8
BLACK
6
CONTINUOUS
10
0.3189478346456693
20
0.4859102755905512
11
0.3294694488188976
21
0.4947389763779527
0
LINE
8
BLACK
6
CONTINUOUS
10
0.3294694488188976
20
0.4947389763779527
11
0.3409448818897638
21
0.5022864566929134
0
LINE
8
BLACK
6
CONTINUOUS
10
0.3409448818897638
20
0.5022864566929134
11
0.353218937007874
21
0.5084507086614173
0
LINE
8
BLACK
6
CONTINUOUS
10
0.353218937007874
20
0.5084507086614173
11
0.3661255905511811
21
0.5131483858267717
0
LINE
8
BLACK
6
CONTINUOUS
10
0.3661255905511811
20
0.5131483858267717
11
0.3794903543307087
21
0.5163158661417323
0
LINE
8
BLACK
6
CONTINUOUS
10
0.3794903543307087
20
0.5163158661417323
11
0.3931325196850394
21
0.5179103937007874
0
LINE
8
BLACK
6
CONTINUOUS
10
0.3931325196850394
20
0.5179103937007874
11
0.4068674803149606
21
0.5179103937007874
0
LINE
8
BLACK
6
CONTINUOUS
10
0.4068674803149606
20
0.5179103937007874
11
0.4205096456692913
21
0.5163158661417323
0
LINE
8
BLACK
6
CONTINUOUS
10
2.0205096456692915
20
0.5163158661417323
11
2.0338744094488188
21
0.5131483858267717
0
LINE
8
BLACK
6
CONTINUOUS
10
2.0338744094488188
20
0.5131483858267717
11
2.0467810629921259
21
0.5084507086614173
0
LINE
8
BLACK
6
CONTINUOUS
10
2.0467810629921259
20
0.5084507086614173
11
2.0590551181102361
21
0.5022864566929134
0
LINE
8
BLACK
6
CONTINUOUS
10
2.0590551181102361
20
0.5022864566929134
11
2.0705305511811023
21
0.4947389763779527
0
LINE
8
BLACK
6
CONTINUOUS
10
2.0705305511811023
20
0.4947389763779527
11
2.0810521653543308
21
0.4859102755905512
0
LINE
8
BLACK
6
CONTINUOUS
10
2.0810521653543308
20
0.4859102755905512
11
2.0904776771653544
21
0.4759198031496063
0
LINE
8
BLACK
6
CONTINUOUS
10
2.0904776771653544
20
0.4759198031496063
11
2.0986796456692911
21
0.4649026377952756
0
LINE
8
BLACK
6
CONTINUOUS
10
2.0986796456692911
20
0.4649026377952756
11
2.1055471653543307
21
0.4530077952755905
0
LINE
8
BLACK
6
CONTINUOUS
10
2.1055471653543307
20
0.4530077952755905
11
2.1109873228346454
21
0.440396062992126
0
LINE
8
BLACK
6
CONTINUOUS
10
2.1109873228346454
20
0.440396062992126
11
2.1149265748031496
21
0.4272381102362204
0
LINE
8
BLACK
6
CONTINUOUS
10
2.1149265748031496
20
0.4272381102362204
11
2.1173116141732282
21
0.4137117716535433
0
LINE
8
BLACK
6
CONTINUOUS
10
2.1173116141732282
20
0.4137117716535433
11
2.1181102362204722
21
0.4
0
LINE
8
BLACK
6
CONTINUOUS
10
2.1181102362204722
20
0.4
11
2.1173116141732282
21
0.3862882283464567
0
LINE
8
BLACK
6
CONTINUOUS
10
2.1173116141732282
20
0.3862882283464567
11
2.1149265748031496
21
0.3727618897637795
0
LINE
8
BLACK
6
CONTINUOUS
10
2.1149265748031496
20
0.3727618897637795
11
2.1109873228346454
21
0.359603937007874
0
LINE
8
BLACK
6
CONTINUOUS
10
2.1109873228346454
20
0.359603937007874
11
2.1055471653543307
21
0.3469922047244094
0
LINE
8
BLACK
6
CONTINUOUS
10
2.1055471653543307
20
0.3469922047244094
11
2.0986796456692911
21
0.3350973622047244
0
LINE
8
BLACK
6
CONTINUOUS
10
2.0986796456692911
20
0.3350973622047244
11
2.0904776771653544
21
0.3240801968503937
0
LINE
8
BLACK
6
CONTINUOUS
10
2.0904776771653544
20
0.3240801968503937
11
2.0810521653543308
21
0.3140897244094488
0
LINE
8
BLACK
6
CONTINUOUS
10
2.0810521653543308
20
0.3140897244094488
11
2.0705305511811023
21
0.3052610236220472
0
LINE
8
BLACK
6
CONTINUOUS
10
2.0705305511811023
20
0.3052610236220472
11
2.0590551181102361
21
0.2977135433070866
0
LINE
8
BLACK
6
CONTINUOUS
10
2.0590551181102361
20
0.2977135433070866
11
2.0467810629921259
21
0.2915492913385827
0
LINE
8
BLACK
6
CONTINUOUS
10
2.0467810629921259
20
0.2915492913385827
11
2.0338744094488188
21
0.2868516141732284
0
LINE
8
BLACK
6
CONTINUOUS
10
2.0338744094488188
20
0.2868516141732284
11
2.0205096456692915
21
0.2836841338582677
0
LINE
8
BLACK
6
CONTINUOUS
10
2.0205096456692915
20
0.2836841338582677
11
2.0068674803149604
21
0.2820896062992126
0
LINE
8
BLACK
6
CONTINUOUS
10
2.0068674803149604
20
0.2820896062992126
11
1.9931325196850393
21
0.2820896062992126
0
LINE
8
BLACK
6
CONTINUOUS
10
1.9931325196850393
20
0.2820896062992126
11
1.9794903543307085
21
0.2836841338582677
0
LINE
8
BLACK
6
CONTINUOUS
10
1.9794903543307085
20
0.2836841338582677
11
1.966125590551181
21
0.2868516141732284
0
LINE
8
BLACK
6
CONTINUOUS
10
1.966125590551181
20
0.2868516141732284
11
1.9532189370078741
21
0.2915492913385827
0
LINE
8
BLACK
6
CONTINUOUS
10
1.9532189370078741
20
0.2915492913385827
11
1.9409448818897637
21
0.2977135433070866
0
LINE
8
BLACK
6
CONTINUOUS
10
1.9409448818897637
20
0.2977135433070866
11
1.9294694488188977
21
0.3052610236220472
0
LINE
8
BLACK
6
CONTINUOUS
10
1.9294694488188977
20
0.3052610236220472
11
1.9189478346456692
21
0.3140897244094488
0
LINE
8
BLACK
6
CONTINUOUS
10
1.9189478346456692
20
0.3140897244094488
11
1.9095223228346456
21
0.3240801968503937
0
LINE
8
BLACK
6
CONTINUOUS
10
1.9095223228346456
20
0.3240801968503937
11
1.9013203543307087
21
0.3350973622047244
0
LINE
8
BLACK
6
CONTINUOUS
10
1.9013203543307087
20
0.3350973622047244
11
1.8944528346456693
21
0.3469922047244094
0
LINE
8
BLACK
6
CONTINUOUS
10
1.8944528346456693
20
0.3469922047244094
11
1.8890126771653544
21
0.359603937007874
0
LINE
8
BLACK
6
CONTINUOUS
10
1.8890126771653544
20
0.359603937007874
11
1.8850734251968504
21
0.3727618897637795
0
LINE
8
BLACK
6
CONTINUOUS
10
1.8850734251968504
20
0.3727618897637795
11
1.8826883858267716
21
0.3862882283464567
0
LINE
8
BLACK
6
CONTINUOUS
10
1.8826883858267716
20
0.3862882283464567
11
1.8818897637795275
21
0.4
0
LINE
8
BLACK
6
CONTINUOUS
10
1.8818897637795275
20
0.4
11
1.8826883858267716
21
0.4137117716535433
0
LINE
8
BLACK
6
CONTINUOUS
10
1.8826883858267716
20
0.4137117716535433
11
1.8850734251968504
21
0.4272381102362204
0
LINE
8
BLACK
6
CONTINUOUS
10
1.8850734251968504
20
0.4272381102362204
11
1.8890126771653544
21
0.440396062992126
0
LINE
8
BLACK
6
CONTINUOUS
10
1.8890126771653544
20
0.440396062992126
11
1.8944528346456693
21
0.4530077952755905
0
LINE
8
BLACK
6
CONTINUOUS
10
1.8944528346456693
20
0.4530077952755905
11
1.9013203543307087
21
0.4649026377952756
0
LINE
8
BLACK
6
CONTINUOUS
10
1.9013203543307087
20
0.4649026377952756
11
1.9095223228346456
21
0.4759198031496063
0
LINE
8
BLACK
6
CONTINUOUS
10
1.9095223228346456
20
0.4759198031496063
11
1.9189478346456692
21
0.4859102755905512
0
LINE
8
BLACK
6
CONTINUOUS
10
1.9189478346456692
20
0.4859102755905512
11
1.9294694488188977
21
0.4947389763779527
0
LINE
8
BLACK
6
CONTINUOUS
10
1.9294694488188977
20
0.4947389763779527
11
1.9409448818897637
21
0.5022864566929134
0
LINE
8
BLACK
6
CONTINUOUS
10
1.9409448818897637
20
0.5022864566929134
11
1.9532189370078741
21
0.5084507086614173
0
LINE
8
BLACK
6
CONTINUOUS
10
1.9532189370078741
20
0.5084507086614173
11
1.966125590551181
21
0.5131483858267717
0
LINE
8
BLACK
6
CONTINUOUS
10
1.966125590551181
20
0.5131483858267717
11
1.9794903543307085
21
0.5163158661417323
0
LINE
8
BLACK
6
CONTINUOUS
10
1.9794903543307085
20
0.5163158661417323
11
1.9931325196850393
21
0.5179103937007874
0
LINE
8
BLACK
6
CONTINUOUS
10
1.9931325196850393
20
0.5179103937007874
11
2.0068674803149604
21
0.5179103937007874
0
LINE
8
BLACK
6
CONTINUOUS
10
2.0068674803149604
20
0.5179103937007874
11
2.0205096456692915
21
0.5163158661417323
0
LINE
8
BLACK
6
CONTINUOUS
10
1.5820000000000001
20
0.336
11
1.522
21
0.336
0
LINE
8
BLACK
6
CONTINUOUS
10
1.522
20
0.336
11
1.522
21
0.396
0
LINE
8
BLACK
6
CONTINUOUS
10
1.522
20
0.396
11
1.5820000000000001
21
0.396
0
LINE
8
BLACK
6
CONTINUOUS
10
1.5820000000000001
20
0.396
11
1.5820000000000001
21
0.336
0
LINE
8
BLACK
6
CONTINUOUS
10
1.6819999999999999
20
0.336
11
1.6219999999999999
21
0.336
0
LINE
8
BLACK
6
CONTINUOUS
10
1.6219999999999999
20
0.336
11
1.6219999999999999
21
0.396
0
LINE
8
BLACK
6
CONTINUOUS
10
1.6219999999999999
20
0.396
11
1.6819999999999999
21
0.396
0
LINE
8
BLACK
6
CONTINUOUS
10
1.6819999999999999
20
0.396
11
1.6819999999999999
21
0.336
0
LINE
8
BLACK
6
CONTINUOUS
10
0.84
20
0.36
11
0.78
21
0.36
0
LINE
8
BLACK
6
CONTINUOUS
10
0.78
20
0.36
11
0.78
21
0.42
0
LINE
8
BLACK
6
CONTINUOUS
10
0.78
20
0.42
11
0.84
21
0.42
0
LINE
8
BLACK
6
CONTINUOUS
10
0.84
20
0.42
11
0.84
21
0.36
0
LINE
8
BLACK
6
CONTINUOUS
10
0.9399999999999999
20
0.36
11
0.88
21
0.36
0
LINE
8
BLACK
6
CONTINUOUS
10
0.88
20
0.36
11
0.88
21
0.42
0
LINE
8
BLACK
6
CONTINUOUS
10
0.88
20
0.42
11
0.9399999999999999
21
0.42
0
LINE
8
BLACK
6
CONTINUOUS
10
0.9399999999999999
20
0.42
11
0.9399999999999999
21
0.36
0
LINE
8
BLACK
6
CONTINUOUS
10
1.5820000000000001
20
0.436
11
1.522
21
0.436
0
LINE
8
BLACK
6
CONTINUOUS
10
1.522
20
0.436
11
1.522
21
0.496
0
LINE
8
BLACK
6
CONTINUOUS
10
1.522
20
0.496
11
1.5820000000000001
21
0.496
0
LINE
8
BLACK
6
CONTINUOUS
10
1.5820000000000001
20
0.496
11
1.5820000000000001
21
0.436
0
LINE
8
BLACK
6
CONTINUOUS
10
1.6819999999999999
20
0.436
11
1.6219999999999999
21
0.436
0
LINE
8
BLACK
6
CONTINUOUS
10
1.6219999999999999
20
0.436
11
1.6219999999999999
21
0.496
0
LINE
8
BLACK
6
CONTINUOUS
10
1.6219999999999999
20
0.496
11
1.6819999999999999
21
0.496
0
LINE
8
BLACK
6
CONTINUOUS
10
1.6819999999999999
20
0.496
11
1.6819999999999999
21
0.436
0
LINE
8
BLACK
6
CONTINUOUS
10
0.84
20
0.46
11
0.78
21
0.46
0
LINE
8
BLACK
6
CONTINUOUS
10
0.78
20
0.46
11
0.78
21
0.52
0
LINE
8
BLACK
6
CONTINUOUS
10
0.78
20
0.52
11
0.84
21
0.52
0
LINE
8
BLACK
6
CONTINUOUS
10
0.84
20
0.52
11
0.84
21
0.46
0
LINE
8
BLACK
6
CONTINUOUS
10
0.9399999999999999
20
0.46
11
0.88
21
0.46
0
LINE
8
BLACK
6
CONTINUOUS
10
0.88
20
0.46
11
0.88
21
0.52
0
LINE
8
BLACK
6
CONTINUOUS
10
0.88
20
0.52
11
0.9399999999999999
21
0.52
0
LINE
8
BLACK
6
CONTINUOUS
10
0.9399999999999999
20
0.52
11
0.9399999999999999
21
0.46
0
LINE
8
BLACK
6
CONTINUOUS
10
1.5820000000000001
20
0.536
11
1.522
21
0.536
0
LINE
8
BLACK
6
CONTINUOUS
10
1.522
20
0.536
11
1.522
21
0.596
0
LINE
8
BLACK
6
CONTINUOUS
10
1.522
20
0.596
11
1.5820000000000001
21
0.596
0
LINE
8
BLACK
6
CONTINUOUS
10
1.5820000000000001
20
0.596
11
1.5820000000000001
21
0.536
0
LINE
8
BLACK
6
CONTINUOUS
10
1.6819999999999999
20
0.536
11
1.6219999999999999
21
0.536
0
LINE
8
BLACK
6
CONTINUOUS
10
1.6219999999999999
20
0.536
11
1.6219999999999999
21
0.596
0
LINE
8
BLACK
6
CONTINUOUS
10
1.6219999999999999
20
0.596
11
1.6819999999999999
21
0.596
0
LINE
8
BLACK
6
CONTINUOUS
10
1.6819999999999999
20
0.596
11
1.6819999999999999
21
0.536
0
LINE
8
BLACK
6
CONTINUOUS
10
0.84
20
0.5599999999999999
11
0.78
21
0.5599999999999999
0
LINE
8
BLACK
6
CONTINUOUS
10
0.78
20
0.5599999999999999
11
0.78
21
0.62
0
LINE
8
BLACK
6
CONTINUOUS
10
0.78
20
0.62
11
0.84
21
0.62
0
LINE
8
BLACK
6
CONTINUOUS
10
0.84
20
0.62
11
0.84
21
0.5599999999999999
0
LINE
8
BLACK
6
CONTINUOUS
10
0.9399999999999999
20
0.5599999999999999
11
0.88
21
0.5599999999999999
0
LINE
8
BLACK
6
CONTINUOUS
10
0.88
20
0.5599999999999999
11
0.88
21
0.62
0
LINE
8
BLACK
6
CONTINUOUS
10
0.88
20
0.62
11
0.9399999999999999
21
0.62
0
LINE
8
BLACK
6
CONTINUOUS
10
0.9399999999999999
20
0.62
11
0.9399999999999999
21
0.5599999999999999
0
LINE
8
BLACK
6
CONTINUOUS
10
0.38
20
0.62
11
0.32
21
0.62
0
LINE
8
BLACK
6
CONTINUOUS
10
0.32
20
0.62
11
0.32
21
0.6799999999999999
0
LINE
8
BLACK
6
CONTINUOUS
10
0.32
20
0.6799999999999999
11
0.38
21
0.6799999999999999
0
LINE
8
BLACK
6
CONTINUOUS
10
0.38
20
0.6799999999999999
11
0.38
21
0.62
0
LINE
8
BLACK
6
CONTINUOUS
10
0.48
20
0.62
11
0.42
21
0.62
0
LINE
8
BLACK
6
CONTINUOUS
10
0.42
20
0.62
11
0.42
21
0.6799999999999999
0
LINE
8
BLACK
6
CONTINUOUS
10
0.42
20
0.6799999999999999
11
0.48
21
0.6799999999999999
0
LINE
8
BLACK
6
CONTINUOUS
10
0.48
20
0.6799999999999999
11
0.48
21
0.62
0
LINE
8
BLACK
6
CONTINUOUS
10
1.9092293307086614
20
0.7413151181102362
11
1.9181782283464566
21
0.7389172834645669
0
LINE
8
BLACK
6
CONTINUOUS
10
1.9181782283464566
20
0.7389172834645669
11
1.9265748031496062
21
0.7350018897637796
0
LINE
8
BLACK
6
CONTINUOUS
10
1.9265748031496062
20
0.7350018897637796
11
1.9341638976377953
21
0.7296879527559055
0
LINE
8
BLACK
6
CONTINUOUS
10
1.9341638976377953
20
0.7296879527559055
11
1.9407149606299212
21
0.7231368897637795
0
LINE
8
BLACK
6
CONTINUOUS
10
1.9407149606299212
20
0.7231368897637795
11
1.9460288976377953
21
0.7155477952755905
0
LINE
8
BLACK
6
CONTINUOUS
10
1.9460288976377953
20
0.7155477952755905
11
1.9499442913385827
21
0.7071512204724409
0
LINE
8
BLACK
6
CONTINUOUS
10
1.9499442913385827
20
0.7071512204724409
11
1.9523421259842519
21
0.6982023228346457
0
LINE
8
BLACK
6
CONTINUOUS
10
1.9523421259842519
20
0.6982023228346457
11
1.9531496062992126
21
0.6889729921259843
0
LINE
8
BLACK
6
CONTINUOUS
10
1.9531496062992126
20
0.6889729921259843
11
1.9523421259842519
21
0.6797436614173228
0
LINE
8
BLACK
6
CONTINUOUS
10
1.9523421259842519
20
0.6797436614173228
11
1.9499442913385827
21
0.6707947637795275
0
LINE
8
BLACK
6
CONTINUOUS
10
1.9499442913385827
20
0.6707947637795275
11
1.9460288976377953
21
0.6623981889763779
0
LINE
8
BLACK
6
CONTINUOUS
10
1.9460288976377953
20
0.6623981889763779
11
1.9407149606299212
21
0.6548090944881889
0
LINE
8
BLACK
6
CONTINUOUS
10
1.9407149606299212
20
0.6548090944881889
11
1.9341638976377953
21
0.648258031496063
0
LINE
8
BLACK
6
CONTINUOUS
10
1.9341638976377953
20
0.648258031496063
11
1.9265748031496062
21
0.642944094488189
0
LINE
8
BLACK
6
CONTINUOUS
10
1.9265748031496062
20
0.642944094488189
11
1.9181782283464566
21
0.6390287007874016
0
LINE
8
BLACK
6
CONTINUOUS
10
1.9181782283464566
20
0.6390287007874016
11
1.9092293307086614
21
0.6366308661417323
0
LINE
8
BLACK
6
CONTINUOUS
10
1.9092293307086614
20
0.6366308661417323
11
1.8999999999999999
21
0.6358233858267717
0
LINE
8
BLACK
6
CONTINUOUS
10
1.8999999999999999
20
0.6358233858267717
11
1.8907706692913386
21
0.6366308661417323
0
LINE
8
BLACK
6
CONTINUOUS
10
1.8907706692913386
20
0.6366308661417323
11
1.8818217716535433
21
0.6390287007874016
0
LINE
8
BLACK
6
CONTINUOUS
10
1.8818217716535433
20
0.6390287007874016
11
1.8734251968503937
21
0.642944094488189
0
LINE
8
BLACK
6
CONTINUOUS
10
1.8734251968503937
20
0.642944094488189
11
1.8658361023622048
21
0.648258031496063
0
LINE
8
BLACK
6
CONTINUOUS
10
1.8658361023622048
20
0.648258031496063
11
1.8592850393700786
21
0.6548090944881889
0
LINE
8
BLACK
6
CONTINUOUS
10
1.8592850393700786
20
0.6548090944881889
11
1.8539711023622047
21
0.6623981889763779
0
LINE
8
BLACK
6
CONTINUOUS
10
1.8539711023622047
20
0.6623981889763779
11
1.8500557086614173
21
0.6707947637795275
0
LINE
8
BLACK
6
CONTINUOUS
10
1.8500557086614173
20
0.6707947637795275
11
1.8476578740157479
21
0.6797436614173228
0
LINE
8
BLACK
6
CONTINUOUS
10
1.8476578740157479
20
0.6797436614173228
11
1.8468503937007874
21
0.6889729921259843
0
LINE
8
BLACK
6
CONTINUOUS
10
1.8468503937007874
20
0.6889729921259843
11
1.8476578740157479
21
0.6982023228346457
0
LINE
8
BLACK
6
CONTINUOUS
10
1.8476578740157479
20
0.6982023228346457
11
1.8500557086614173
21
0.7071512204724409
0
LINE
8
BLACK
6
CONTINUOUS
10
1.8500557086614173
20
0.7071512204724409
11
1.8539711023622047
21
0.7155477952755905
0
LINE
8
BLACK
6
CONTINUOUS
10
1.8539711023622047
20
0.7155477952755905
11
1.8592850393700786
21
0.7231368897637795
0
LINE
8
BLACK
6
CONTINUOUS
10
1.8592850393700786
20
0.7231368897637795
11
1.8658361023622048
21
0.7296879527559055
0
LINE
8
BLACK
6
CONTINUOUS
10
1.8658361023622048
20
0.7296879527559055
11
1.8734251968503937
21
0.7350018897637796
0
LINE
8
BLACK
6
CONTINUOUS
10
1.8734251968503937
20
0.7350018897637796
11
1.8818217716535433
21
0.7389172834645669
0
LINE
8
BLACK
6
CONTINUOUS
10
1.8818217716535433
20
0.7389172834645669
11
1.8907706692913386
21
0.7413151181102362
0
LINE
8
BLACK
6
CONTINUOUS
10
1.8907706692913386
20
0.7413151181102362
11
1.8999999999999999
21
0.7421225984251968
0
LINE
8
BLACK
6
CONTINUOUS
10
1.8999999999999999
20
0.7421225984251968
11
1.9092293307086614
21
0.7413151181102362
0
LINE
8
BLACK
6
CONTINUOUS
10
2.1092293307086614
20
0.7413151181102362
11
2.1181782283464567
21
0.7389172834645669
0
LINE
8
BLACK
6
CONTINUOUS
10
2.1181782283464567
20
0.7389172834645669
11
2.1265748031496061
21
0.7350018897637796
0
LINE
8
BLACK
6
CONTINUOUS
10
2.1265748031496061
20
0.7350018897637796
11
2.1341638976377952
21
0.7296879527559055
0
LINE
8
BLACK
6
CONTINUOUS
10
2.1341638976377952
20
0.7296879527559055
11
2.1407149606299214
21
0.7231368897637795
0
LINE
8
BLACK
6
CONTINUOUS
10
2.1407149606299214
20
0.7231368897637795
11
2.146028897637795
21
0.7155477952755905
0
LINE
8
BLACK
6
CONTINUOUS
10
2.146028897637795
20
0.7155477952755905
11
2.1499442913385827
21
0.7071512204724409
0
LINE
8
BLACK
6
CONTINUOUS
10
2.1499442913385827
20
0.7071512204724409
11
2.1523421259842519
21
0.6982023228346457
0
LINE
8
BLACK
6
CONTINUOUS
10
2.1523421259842519
20
0.6982023228346457
11
2.1531496062992126
21
0.6889729921259843
0
LINE
8
BLACK
6
CONTINUOUS
10
2.1531496062992126
20
0.6889729921259843
11
2.1523421259842519
21
0.6797436614173228
0
LINE
8
BLACK
6
CONTINUOUS
10
2.1523421259842519
20
0.6797436614173228
11
2.1499442913385827
21
0.6707947637795275
0
LINE
8
BLACK
6
CONTINUOUS
10
2.1499442913385827
20
0.6707947637795275
11
2.146028897637795
21
0.6623981889763779
0
LINE
8
BLACK
6
CONTINUOUS
10
2.146028897637795
20
0.6623981889763779
11
2.1407149606299214
21
0.6548090944881889
0
LINE
8
BLACK
6
CONTINUOUS
10
2.1407149606299214
20
0.6548090944881889
11
2.1341638976377952
21
0.648258031496063
0
LINE
8
BLACK
6
CONTINUOUS
10
2.1341638976377952
20
0.648258031496063
11
2.1265748031496061
21
0.642944094488189
0
LINE
8
BLACK
6
CONTINUOUS
10
2.1265748031496061
20
0.642944094488189
11
2.1181782283464567
21
0.6390287007874016
0
LINE
8
BLACK
6
CONTINUOUS
10
2.1181782283464567
20
0.6390287007874016
11
2.1092293307086614
21
0.6366308661417323
0
LINE
8
BLACK
6
CONTINUOUS
10
2.1092293307086614
20
0.6366308661417323
11
2.1000000000000001
21
0.6358233858267717
0
LINE
8
BLACK
6
CONTINUOUS
10
2.1000000000000001
20
0.6358233858267717
11
2.0907706692913384
21
0.6366308661417323
0
LINE
8
BLACK
6
CONTINUOUS
10
2.0907706692913384
20
0.6366308661417323
11
2.0818217716535434
21
0.6390287007874016
0
LINE
8
BLACK
6
CONTINUOUS
10
2.0818217716535434
20
0.6390287007874016
11
2.0734251968503936
21
0.642944094488189
0
LINE
8
BLACK
6
CONTINUOUS
10
2.0734251968503936
20
0.642944094488189
11
2.0658361023622045
21
0.648258031496063
0
LINE
8
BLACK
6
CONTINUOUS
10
2.0658361023622045
20
0.648258031496063
11
2.0592850393700788
21
0.6548090944881889
0
LINE
8
BLACK
6
CONTINUOUS
10
2.0592850393700788
20
0.6548090944881889
11
2.0539711023622047
21
0.6623981889763779
0
LINE
8
BLACK
6
CONTINUOUS
10
2.0539711023622047
20
0.6623981889763779
11
2.0500557086614171
21
0.6707947637795275
0
LINE
8
BLACK
6
CONTINUOUS
10
2.0500557086614171
20
0.6707947637795275
11
2.0476578740157478
21
0.6797436614173228
0
LINE
8
BLACK
6
CONTINUOUS
10
2.0476578740157478
20
0.6797436614173228
11
2.0468503937007871
21
0.6889729921259843
0
LINE
8
BLACK
6
CONTINUOUS
10
2.0468503937007871
20
0.6889729921259843
11
2.0476578740157478
21
0.6982023228346457
0
LINE
8
BLACK
6
CONTINUOUS
10
2.0476578740157478
20
0.6982023228346457
11
2.0500557086614171
21
0.7071512204724409
0
LINE
8
BLACK
6
CONTINUOUS
10
2.0500557086614171
20
0.7071512204724409
11
2.0539711023622047
21
0.7155477952755905
0
LINE
8
BLACK
6
CONTINUOUS
10
2.0539711023622047
20
0.7155477952755905
11
2.0592850393700788
21
0.7231368897637795
0
LINE
8
BLACK
6
CONTINUOUS
10
2.0592850393700788
20
0.7231368897637795
11
2.0658361023622045
21
0.7296879527559055
0
LINE
8
BLACK
6
CONTINUOUS
10
2.0658361023622045
20
0.7296879527559055
11
2.0734251968503936
21
0.7350018897637796
0
LINE
8
BLACK
6
CONTINUOUS
10
2.0734251968503936
20
0.7350018897637796
11
2.0818217716535434
21
0.7389172834645669
0
LINE
8
BLACK
6
CONTINUOUS
10
2.0818217716535434
20
0.7389172834645669
11
2.0907706692913384
21
0.7413151181102362
0
LINE
8
BLACK
6
CONTINUOUS
10
2.0907706692913384
20
0.7413151181102362
11
2.1000000000000001
21
0.7421225984251968
0
LINE
8
BLACK
6
CONTINUOUS
10
2.1000000000000001
20
0.7421225984251968
11
2.1092293307086614
21
0.7413151181102362
0
LINE
8
BLACK
6
CONTINUOUS
10
0.38
20
0.72
11
0.32
21
0.72
0
LINE
8
BLACK
6
CONTINUOUS
10
0.32
20
0.72
11
0.32
21
0.78
0
LINE
8
BLACK
6
CONTINUOUS
10
0.32
20
0.78
11
0.38
21
0.78
0
LINE
8
BLACK
6
CONTINUOUS
10
0.38
20
0.78
11
0.38
21
0.72
0
LINE
8
BLACK
6
CONTINUOUS
10
0.48
20
0.72
11
0.42
21
0.72
0
LINE
8
BLACK
6
CONTINUOUS
10
0.42
20
0.72
11
0.42
21
0.78
0
LINE
8
BLACK
6
CONTINUOUS
10
0.42
20
0.78
11
0.48
21
0.78
0
LINE
8
BLACK
6
CONTINUOUS
10
0.48
20
0.78
11
0.48
21
0.72
0
LINE
8
BLACK
6
CONTINUOUS
10
2.0085456692913386
20
0.8374379527559055
11
2.0168316929133856
21
0.8352177165354331
0
LINE
8
BLACK
6
CONTINUOUS
10
2.0168316929133856
20
0.8352177165354331
11
2.0246062992125982
21
0.8315923622047244
0
LINE
8
BLACK
6
CONTINUOUS
10
2.0246062992125982
20
0.8315923622047244
11
2.0316332677165354
21
0.8266720472440945
0
LINE
8
BLACK
6
CONTINUOUS
10
2.0316332677165354
20
0.8266720472440945
11
2.03769905511811
21
0.8206062598425197
0
LINE
8
BLACK
6
CONTINUOUS
10
2.03769905511811
20
0.8206062598425197
11
2.0426193700787403
21
0.8135792913385826
0
LINE
8
BLACK
6
CONTINUOUS
10
2.0426193700787403
20
0.8135792913385826
11
2.0462447244094486
21
0.8058046850393701
0
LINE
8
BLACK
6
CONTINUOUS
10
2.0462447244094486
20
0.8058046850393701
11
2.048464960629921
21
0.7975186614173229
0
LINE
8
BLACK
6
CONTINUOUS
10
2.048464960629921
20
0.7975186614173229
11
2.0492125984251968
21
0.7889729921259843
0
LINE
8
BLACK
6
CONTINUOUS
10
2.0492125984251968
20
0.7889729921259843
11
2.048464960629921
21
0.7804273228346457
0
LINE
8
BLACK
6
CONTINUOUS
10
2.048464960629921
20
0.7804273228346457
11
2.0462447244094486
21
0.7721412992125984
0
LINE
8
BLACK
6
CONTINUOUS
10
2.0462447244094486
20
0.7721412992125984
11
2.0426193700787403
21
0.7643666929133858
0
LINE
8
BLACK
6
CONTINUOUS
10
2.0426193700787403
20
0.7643666929133858
11
2.03769905511811
21
0.7573397244094489
0
LINE
8
BLACK
6
CONTINUOUS
10
2.03769905511811
20
0.7573397244094489
11
2.0316332677165354
21
0.751273937007874
0
LINE
8
BLACK
6
CONTINUOUS
10
2.0316332677165354
20
0.751273937007874
11
2.0246062992125982
21
0.7463536220472441
0
LINE
8
BLACK
6
CONTINUOUS
10
2.0246062992125982
20
0.7463536220472441
11
2.0168316929133856
21
0.7427282677165354
0
LINE
8
BLACK
6
CONTINUOUS
10
2.0168316929133856
20
0.7427282677165354
11
2.0085456692913386
21
0.7405080314960629
0
LINE
8
BLACK
6
CONTINUOUS
10
2.0085456692913386
20
0.7405080314960629
11
2.
21
0.7397603937007874
0
LINE
8
BLACK
6
CONTINUOUS
10
2.
20
0.7397603937007874
11
1.9914543307086614
21
0.7405080314960629
0
LINE
8
BLACK
6
CONTINUOUS
10
1.9914543307086614
20
0.7405080314960629
11
1.9831683070866142
21
0.7427282677165354
0
LINE
8
BLACK
6
CONTINUOUS
10
1.9831683070866142
20
0.7427282677165354
11
1.9753937007874016
21
0.7463536220472441
0
LINE
8
BLACK
6
CONTINUOUS
10
1.9753937007874016
20
0.7463536220472441
11
1.9683667322834646
21
0.751273937007874
0
LINE
8
BLACK
6
CONTINUOUS
10
1.9683667322834646
20
0.751273937007874
11
1.9623009448818898
21
0.7573397244094489
0
LINE
8
BLACK
6
CONTINUOUS
10
1.9623009448818898
20
0.7573397244094489
11
1.9573806299212597
21
0.7643666929133858
0
LINE
8
BLACK
6
CONTINUOUS
10
1.9573806299212597
20
0.7643666929133858
11
1.9537552755905512
21
0.7721412992125984
0
LINE
8
BLACK
6
CONTINUOUS
10
1.9537552755905512
20
0.7721412992125984
11
1.9515350393700788
21
0.7804273228346457
0
LINE
8
BLACK
6
CONTINUOUS
10
1.9515350393700788
20
0.7804273228346457
11
1.950787401574803
21
0.7889729921259843
0
LINE
8
BLACK
6
CONTINUOUS
10
1.950787401574803
20
0.7889729921259843
11
1.9515350393700788
21
0.7975186614173229
0
LINE
8
BLACK
6
CONTINUOUS
10
1.9515350393700788
20
0.7975186614173229
11
1.9537552755905512
21
0.8058046850393701
0
LINE
8
BLACK
6
CONTINUOUS
10
1.9537552755905512
20
0.8058046850393701
11
1.9573806299212597
21
0.8135792913385826
0
LINE
8
BLACK
6
CONTINUOUS
10
1.9573806299212597
20
0.8135792913385826
11
1.9623009448818898
21
0.8206062598425197
0
LINE
8
BLACK
6
CONTINUOUS
10
1.9623009448818898
20
0.8206062598425197
11
1.9683667322834646
21
0.8266720472440945
0
LINE
8
BLACK
6
CONTINUOUS
10
1.9683667322834646
20
0.8266720472440945
11
1.9753937007874016
21
0.8315923622047244
0
LINE
8
BLACK
6
CONTINUOUS
10
1.9753937007874016
20
0.8315923622047244
11
1.9831683070866142
21
0.8352177165354331
0
LINE
8
BLACK
6
CONTINUOUS
10
1.9831683070866142
20
0.8352177165354331
11
1.9914543307086614
21
0.8374379527559055
0
LINE
8
BLACK
6
CONTINUOUS
10
1.9914543307086614
20
0.8374379527559055
11
2.
21
0.8381855905511811
0
LINE
8
BLACK
6
CONTINUOUS
10
2.
20
0.8381855905511811
11
2.0085456692913386
21
0.8374379527559055
0
LINE
8
BLACK
6
CONTINUOUS
10
0.38
20
0.82
11
0.32
21
0.82
0
LINE
8
BLACK
6
CONTINUOUS
10
0.32
20
0.82
11
0.32
21
0.88
0
LINE
8
BLACK
6
CONTINUOUS
10
0.32
20
0.88
11
0.38
21
0.88
0
LINE
8
BLACK
6
CONTINUOUS
10
0.38
20
0.88
11
0.38
21
0.82
0
LINE
8
BLACK
6
CONTINUOUS
10
0.48
20
0.82
11
0.42
21
0.82
0
LINE
8
BLACK
6
CONTINUOUS
10
0.42
20
0.82
11
0.42
21
0.88
0
LINE
8
BLACK
6
CONTINUOUS
10
0.42
20
0.88
11
0.48
21
0.88
0
LINE
8
BLACK
6
CONTINUOUS
10
0.48
20
0.88
11
0.48
21
0.82
0
LINE
8
BLACK
6
CONTINUOUS
10
1.9092293307086614
20
0.9413151181102362
11
1.9181782283464566
21
0.9389172834645669
0
LINE
8
BLACK
6
CONTINUOUS
10
1.9181782283464566
20
0.9389172834645669
11
1.9265748031496062
21
0.9350018897637795
0
LINE
8
BLACK
6
CONTINUOUS
10
1.9265748031496062
20
0.9350018897637795
11
1.9341638976377953
21
0.9296879527559055
0
LINE
8
BLACK
6
CONTINUOUS
10
1.9341638976377953
20
0.9296879527559055
11
1.9407149606299212
21
0.9231368897637795
0
LINE
8
BLACK
6
CONTINUOUS
10
1.9407149606299212
20
0.9231368897637795
11
1.9460288976377953
21
0.9155477952755905
0
LINE
8
BLACK
6
CONTINUOUS
10
1.9460288976377953
20
0.9155477952755905
11
1.9499442913385827
21
0.9071512204724409
0
LINE
8
BLACK
6
CONTINUOUS
10
1.9499442913385827
20
0.9071512204724409
11
1.9523421259842519
21
0.8982023228346456
0
LINE
8
BLACK
6
CONTINUOUS
10
1.9523421259842519
20
0.8982023228346456
11
1.9531496062992126
21
0.8889729921259842
0
LINE
8
BLACK
6
CONTINUOUS
10
1.9531496062992126
20
0.8889729921259842
11
1.9523421259842519
21
0.8797436614173229
0
LINE
8
BLACK
6
CONTINUOUS
10
1.9523421259842519
20
0.8797436614173229
11
1.9499442913385827
21
0.8707947637795276
0
LINE
8
BLACK
6
CONTINUOUS
10
1.9499442913385827
20
0.8707947637795276
11
1.9460288976377953
21
0.862398188976378
0
LINE
8
BLACK
6
CONTINUOUS
10
1.9460288976377953
20
0.862398188976378
11
1.9407149606299212
21
0.854809094488189
0
LINE
8
BLACK
6
CONTINUOUS
10
1.9407149606299212
20
0.854809094488189
11
1.9341638976377953
21
0.8482580314960629
0
LINE
8
BLACK
6
CONTINUOUS
10
1.9341638976377953
20
0.8482580314960629
11
1.9265748031496062
21
0.842944094488189
0
LINE
8
BLACK
6
CONTINUOUS
10
1.9265748031496062
20
0.842944094488189
11
1.9181782283464566
21
0.8390287007874015
0
LINE
8
BLACK
6
CONTINUOUS
10
1.9181782283464566
20
0.8390287007874015
11
1.9092293307086614
21
0.8366308661417322
0
LINE
8
BLACK
6
CONTINUOUS
10
1.9092293307086614
20
0.8366308661417322
11
1.8999999999999999
21
0.8358233858267716
0
LINE
8
BLACK
6
CONTINUOUS
10
1.8999999999999999
20
0.8358233858267716
11
1.8907706692913386
21
0.8366308661417322
0
LINE
8
BLACK
6
CONTINUOUS
10
1.8907706692913386
20
0.8366308661417322
11
1.8818217716535433
21
0.8390287007874015
0
LINE
8
BLACK
6
CONTINUOUS
10
1.8818217716535433
20
0.8390287007874015
11
1.8734251968503937
21
0.842944094488189
0
LINE
8
BLACK
6
CONTINUOUS
10
1.8734251968503937
20
0.842944094488189
11
1.8658361023622048
21
0.8482580314960629
0
LINE
8
BLACK
6
CONTINUOUS
10
1.8658361023622048
20
0.8482580314960629
11
1.8592850393700786
21
0.854809094488189
0
LINE
8
BLACK
6
CONTINUOUS
10
1.8592850393700786
20
0.854809094488189
11
1.8539711023622047
21
0.862398188976378
0
LINE
8
BLACK
6
CONTINUOUS
10
1.8539711023622047
20
0.862398188976378
11
1.8500557086614173
21
0.8707947637795276
0
LINE
8
BLACK
6
CONTINUOUS
10
1.8500557086614173
20
0.8707947637795276
11
1.8476578740157479
21
0.8797436614173229
0
LINE
8
BLACK
6
CONTINUOUS
10
1.8476578740157479
20
0.8797436614173229
11
1.8468503937007874
21
0.8889729921259842
0
LINE
8
BLACK
6
CONTINUOUS
10
1.8468503937007874
20
0.8889729921259842
11
1.8476578740157479
21
0.8982023228346456
0
LINE
8
BLACK
6
CONTINUOUS
10
1.8476578740157479
20
0.8982023228346456
11
1.8500557086614173
21
0.9071512204724409
0
LINE
8
BLACK
6
CONTINUOUS
10
1.8500557086614173
20
0.9071512204724409
11
1.8539711023622047
21
0.9155477952755905
0
LINE
8
BLACK
6
CONTINUOUS
10
1.8539711023622047
20
0.9155477952755905
11
1.8592850393700786
21
0.9231368897637795
0
LINE
8
BLACK
6
CONTINUOUS
10
1.8592850393700786
20
0.9231368897637795
11
1.8658361023622048
21
0.9296879527559055
0
LINE
8
BLACK
6
CONTINUOUS
10
1.8658361023622048
20
0.9296879527559055
11
1.8734251968503937
21
0.9350018897637795
0
LINE
8
BLACK
6
CONTINUOUS
10
1.8734251968503937
20
0.9350018897637795
11
1.8818217716535433
21
0.9389172834645669
0
LINE
8
BLACK
6
CONTINUOUS
10
1.8818217716535433
20
0.9389172834645669
11
1.8907706692913386
21
0.9413151181102362
0
LINE
8
BLACK
6
CONTINUOUS
10
1.8907706692913386
20
0.9413151181102362
11
1.8999999999999999
21
0.9421225984251969
0
LINE
8
BLACK
6
CONTINUOUS
10
1.8999999999999999
20
0.9421225984251969
11
1.9092293307086614
21
0.9413151181102362
0
LINE
8
BLACK
6
CONTINUOUS
10
2.1092293307086614
20
0.9413151181102362
11
2.1181782283464567
21
0.9389172834645669
0
LINE
8
BLACK
6
CONTINUOUS
10
2.1181782283464567
20
0.9389172834645669
11
2.1265748031496061
21
0.9350018897637795
0
LINE
8
BLACK
6
CONTINUOUS
10
2.1265748031496061
20
0.9350018897637795
11
2.1341638976377952
21
0.9296879527559055
0
LINE
8
BLACK
6
CONTINUOUS
10
2.1341638976377952
20
0.9296879527559055
11
2.1407149606299214
21
0.9231368897637795
0
LINE
8
BLACK
6
CONTINUOUS
10
2.1407149606299214
20
0.9231368897637795
11
2.146028897637795
21
0.9155477952755905
0
LINE
8
BLACK
6
CONTINUOUS
10
2.146028897637795
20
0.9155477952755905
11
2.1499442913385827
21
0.9071512204724409
0
LINE
8
BLACK
6
CONTINUOUS
10
2.1499442913385827
20
0.9071512204724409
11
2.1523421259842519
21
0.8982023228346456
0
LINE
8
BLACK
6
CONTINUOUS
10
2.1523421259842519
20
0.8982023228346456
11
2.1531496062992126
21
0.8889729921259842
0
LINE
8
BLACK
6
CONTINUOUS
10
2.1531496062992126
20
0.8889729921259842
11
2.1523421259842519
21
0.8797436614173229
0
LINE
8
BLACK
6
CONTINUOUS
10
2.1523421259842519
20
0.8797436614173229
11
2.1499442913385827
21
0.8707947637795276
0
LINE
8
BLACK
6
CONTINUOUS
10
2.1499442913385827
20
0.8707947637795276
11
2.146028897637795
21
0.862398188976378
0
LINE
8
BLACK
6
CONTINUOUS
10
2.146028897637795
20
0.862398188976378
11
2.1407149606299214
21
0.854809094488189
0
LINE
8
BLACK
6
CONTINUOUS
10
2.1407149606299214
20
0.854809094488189
11
2.1341638976377952
21
0.8482580314960629
0
LINE
8
BLACK
6
CONTINUOUS
10
2.1341638976377952
20
0.8482580314960629
11
2.1265748031496061
21
0.842944094488189
0
LINE
8
BLACK
6
CONTINUOUS
10
2.1265748031496061
20
0.842944094488189
11
2.1181782283464567
21
0.8390287007874015
0
LINE
8
BLACK
6
CONTINUOUS
10
2.1181782283464567
20
0.8390287007874015
11
2.1092293307086614
21
0.8366308661417322
0
LINE
8
BLACK
6
CONTINUOUS
10
2.1092293307086614
20
0.8366308661417322
11
2.1000000000000001
21
0.8358233858267716
0
LINE
8
BLACK
6
CONTINUOUS
10
2.1000000000000001
20
0.8358233858267716
11
2.0907706692913384
21
0.8366308661417322
0
LINE
8
BLACK
6
CONTINUOUS
10
2.0907706692913384
20
0.8366308661417322
11
2.0818217716535434
21
0.8390287007874015
0
LINE
8
BLACK
6
CONTINUOUS
10
2.0818217716535434
20
0.8390287007874015
11
2.0734251968503936
21
0.842944094488189
0
LINE
8
BLACK
6
CONTINUOUS
10
2.0734251968503936
20
0.842944094488189
11
2.0658361023622045
21
0.8482580314960629
0
LINE
8
BLACK
6
CONTINUOUS
10
2.0658361023622045
20
0.8482580314960629
11
2.0592850393700788
21
0.854809094488189
0
LINE
8
BLACK
6
CONTINUOUS
10
2.0592850393700788
20
0.854809094488189
11
2.0539711023622047
21
0.862398188976378
0
LINE
8
BLACK
6
CONTINUOUS
10
2.0539711023622047
20
0.862398188976378
11
2.0500557086614171
21
0.8707947637795276
0
LINE
8
BLACK
6
CONTINUOUS
10
2.0500557086614171
20
0.8707947637795276
11
2.0476578740157478
21
0.8797436614173229
0
LINE
8
BLACK
6
CONTINUOUS
10
2.0476578740157478
20
0.8797436614173229
11
2.0468503937007871
21
0.8889729921259842
0
LINE
8
BLACK
6
CONTINUOUS
10
2.0468503937007871
20
0.8889729921259842
11
2.0476578740157478
21
0.8982023228346456
0
LINE
8
BLACK
6
CONTINUOUS
10
2.0476578740157478
20
0.8982023228346456
11
2.0500557086614171
21
0.9071512204724409
0
LINE
8
BLACK
6
CONTINUOUS
10
2.0500557086614171
20
0.9071512204724409
11
2.0539711023622047
21
0.9155477952755905
0
LINE
8
BLACK
6
CONTINUOUS
10
2.0539711023622047
20
0.9155477952755905
11
2.0592850393700788
21
0.9231368897637795
0
LINE
8
BLACK
6
CONTINUOUS
10
2.0592850393700788
20
0.9231368897637795
11
2.0658361023622045
21
0.9296879527559055
0
LINE
8
BLACK
6
CONTINUOUS
10
2.0658361023622045
20
0.9296879527559055
11
2.0734251968503936
21
0.9350018897637795
0
LINE
8
BLACK
6
CONTINUOUS
10
2.0734251968503936
20
0.9350018897637795
11
2.0818217716535434
21
0.9389172834645669
0
LINE
8
BLACK
6
CONTINUOUS
10
2.0818217716535434
20
0.9389172834645669
11
2.0907706692913384
21
0.9413151181102362
0
LINE
8
BLACK
6
CONTINUOUS
10
2.0907706692913384
20
0.9413151181102362
11
2.1000000000000001
21
0.9421225984251969
0
LINE
8
BLACK
6
CONTINUOUS
10
2.1000000000000001
20
0.9421225984251969
11
2.1092293307086614
21
0.9413151181102362
0
LINE
8
BLACK
6
CONTINUOUS
10
0.38
20
0.9199999999999999
11
0.32
21
0.9199999999999999
0
LINE
8
BLACK
6
CONTINUOUS
10
0.32
20
0.9199999999999999
11
0.32
21
0.98
0
LINE
8
BLACK
6
CONTINUOUS
10
0.32
20
0.98
11
0.38
21
0.98
0
LINE
8
BLACK
6
CONTINUOUS
10
0.38
20
0.98
11
0.38
21
0.9199999999999999
0
LINE
8
BLACK
6
CONTINUOUS
10
0.48
20
0.9199999999999999
11
0.42
21
0.9199999999999999
0
LINE
8
BLACK
6
CONTINUOUS
10
0.42
20
0.9199999999999999
11
0.42
21
0.98
0
LINE
8
BLACK
6
CONTINUOUS
10
0.42
20
0.98
11
0.48
21
0.98
0
LINE
8
BLACK
6
CONTINUOUS
10
0.48
20
0.98
11
0.48
21
0.9199999999999999
0
LINE
8
BLACK
6
CONTINUOUS
10
0.38
20
1.02
11
0.32
21
1.02
0
LINE
8
BLACK
6
CONTINUOUS
10
0.32
20
1.02
11
0.32
21
1.0800000000000001
0
LINE
8
BLACK
6
CONTINUOUS
10
0.32
20
1.0800000000000001
11
0.38
21
1.0800000000000001
0
LINE
8
BLACK
6
CONTINUOUS
10
0.38
20
1.0800000000000001
11
0.38
21
1.02
0
LINE
8
BLACK
6
CONTINUOUS
10
0.48
20
1.02
11
0.42
21
1.02
0
LINE
8
BLACK
6
CONTINUOUS
10
0.42
20
1.02
11
0.42
21
1.0800000000000001
0
LINE
8
BLACK
6
CONTINUOUS
10
0.42
20
1.0800000000000001
11
0.48
21
1.0800000000000001
0
LINE
8
BLACK
6
CONTINUOUS
10
0.48
20
1.0800000000000001
11
0.48
21
1.02
0
LINE
8
BLACK
6
CONTINUOUS
10
1.9092293307086614
20
1.1633691732283464
11
1.9181782283464566
21
1.1609713385826772
0
LINE
8
BLACK
6
CONTINUOUS
10
1.9181782283464566
20
1.1609713385826772
11
1.9265748031496062
21
1.1570559448818898
0
LINE
8
BLACK
6
CONTINUOUS
10
1.9265748031496062
20
1.1570559448818898
11
1.9341638976377953
21
1.1517420078740157
0
LINE
8
BLACK
6
CONTINUOUS
10
1.9341638976377953
20
1.1517420078740157
11
1.9407149606299212
21
1.1451909448818898
0
LINE
8
BLACK
6
CONTINUOUS
10
1.9407149606299212
20
1.1451909448818898
11
1.9460288976377953
21
1.1376018503937007
0
LINE
8
BLACK
6
CONTINUOUS
10
1.9460288976377953
20
1.1376018503937007
11
1.9499442913385827
21
1.1292052755905511
0
LINE
8
BLACK
6
CONTINUOUS
10
1.9499442913385827
20
1.1292052755905511
11
1.9523421259842519
21
1.1202563779527559
0
LINE
8
BLACK
6
CONTINUOUS
10
1.9523421259842519
20
1.1202563779527559
11
1.9531496062992126
21
1.1110270472440944
0
LINE
8
BLACK
6
CONTINUOUS
10
1.9531496062992126
20
1.1110270472440944
11
1.9523421259842519
21
1.1017977165354331
0
LINE
8
BLACK
6
CONTINUOUS
10
1.9523421259842519
20
1.1017977165354331
11
1.9499442913385827
21
1.0928488188976377
0
LINE
8
BLACK
6
CONTINUOUS
10
1.9499442913385827
20
1.0928488188976377
11
1.9460288976377953
21
1.0844522440944881
0
LINE
8
BLACK
6
CONTINUOUS
10
1.9460288976377953
20
1.0844522440944881
11
1.9407149606299212
21
1.0768631496062993
0
LINE
8
BLACK
6
CONTINUOUS
10
1.9407149606299212
20
1.0768631496062993
11
1.9341638976377953
21
1.0703120866141731
0
LINE
8
BLACK
6
CONTINUOUS
10
1.9341638976377953
20
1.0703120866141731
11
1.9265748031496062
21
1.0649981496062992
0
LINE
8
BLACK
6
CONTINUOUS
10
1.9265748031496062
20
1.0649981496062992
11
1.9181782283464566
21
1.0610827559055118
0
LINE
8
BLACK
6
CONTINUOUS
10
1.9181782283464566
20
1.0610827559055118
11
1.9092293307086614
21
1.0586849212598426
0
LINE
8
BLACK
6
CONTINUOUS
10
1.9092293307086614
20
1.0586849212598426
11
1.8999999999999999
21
1.0578774409448819
0
LINE
8
BLACK
6
CONTINUOUS
10
1.8999999999999999
20
1.0578774409448819
11
1.8907706692913386
21
1.0586849212598426
0
LINE
8
BLACK
6
CONTINUOUS
10
1.8907706692913386
20
1.0586849212598426
11
1.8818217716535433
21
1.0610827559055118
0
LINE
8
BLACK
6
CONTINUOUS
10
1.8818217716535433
20
1.0610827559055118
11
1.8734251968503937
21
1.0649981496062992
0
LINE
8
BLACK
6
CONTINUOUS
10
1.8734251968503937
20
1.0649981496062992
11
1.8658361023622048
21
1.0703120866141731
0
LINE
8
BLACK
6
CONTINUOUS
10
1.8658361023622048
20
1.0703120866141731
11
1.8592850393700786
21
1.0768631496062993
0
LINE
8
BLACK
6
CONTINUOUS
10
1.8592850393700786
20
1.0768631496062993
11
1.8539711023622047
21
1.0844522440944881
0
LINE
8
BLACK
6
CONTINUOUS
10
1.8539711023622047
20
1.0844522440944881
11
1.8500557086614173
21
1.0928488188976377
0
LINE
8
BLACK
6
CONTINUOUS
10
1.8500557086614173
20
1.0928488188976377
11
1.8476578740157479
21
1.1017977165354331
0
LINE
8
BLACK
6
CONTINUOUS
10
1.8476578740157479
20
1.1017977165354331
11
1.8468503937007874
21
1.1110270472440944
0
LINE
8
BLACK
6
CONTINUOUS
10
1.8468503937007874
20
1.1110270472440944
11
1.8476578740157479
21
1.1202563779527559
0
LINE
8
BLACK
6
CONTINUOUS
10
1.8476578740157479
20
1.1202563779527559
11
1.8500557086614173
21
1.1292052755905511
0
LINE
8
BLACK
6
CONTINUOUS
10
1.8500557086614173
20
1.1292052755905511
11
1.8539711023622047
21
1.1376018503937007
0
LINE
8
BLACK
6
CONTINUOUS
10
1.8539711023622047
20
1.1376018503937007
11
1.8592850393700786
21
1.1451909448818898
0
LINE
8
BLACK
6
CONTINUOUS
10
1.8592850393700786
20
1.1451909448818898
11
1.8658361023622048
21
1.1517420078740157
0
LINE
8
BLACK
6
CONTINUOUS
10
1.8658361023622048
20
1.1517420078740157
11
1.8734251968503937
21
1.1570559448818898
0
LINE
8
BLACK
6
CONTINUOUS
10
1.8734251968503937
20
1.1570559448818898
11
1.8818217716535433
21
1.1609713385826772
0
LINE
8
BLACK
6
CONTINUOUS
10
1.8818217716535433
20
1.1609713385826772
11
1.8907706692913386
21
1.1633691732283464
0
LINE
8
BLACK
6
CONTINUOUS
10
1.8907706692913386
20
1.1633691732283464
11
1.8999999999999999
21
1.1641766535433071
0
LINE
8
BLACK
6
CONTINUOUS
10
1.8999999999999999
20
1.1641766535433071
11
1.9092293307086614
21
1.1633691732283464
0
LINE
8
BLACK
6
CONTINUOUS
10
2.1092293307086614
20
1.1633691732283464
11
2.1181782283464567
21
1.1609713385826772
0
LINE
8
BLACK
6
CONTINUOUS
10
2.1181782283464567
20
1.1609713385826772
11
2.1265748031496061
21
1.1570559448818898
0
LINE
8
BLACK
6
CONTINUOUS
10
2.1265748031496061
20
1.1570559448818898
11
2.1341638976377952
21
1.1517420078740157
0
LINE
8
BLACK
6
CONTINUOUS
10
2.1341638976377952
20
1.1517420078740157
11
2.1407149606299214
21
1.1451909448818898
0
LINE
8
BLACK
6
CONTINUOUS
10
2.1407149606299214
20
1.1451909448818898
11
2.146028897637795
21
1.1376018503937007
0
LINE
8
BLACK
6
CONTINUOUS
10
2.146028897637795
20
1.1376018503937007
11
2.1499442913385827
21
1.1292052755905511
0
LINE
8
BLACK
6
CONTINUOUS
10
2.1499442913385827
20
1.1292052755905511
11
2.1523421259842519
21
1.1202563779527559
0
LINE
8
BLACK
6
CONTINUOUS
10
2.1523421259842519
20
1.1202563779527559
11
2.1531496062992126
21
1.1110270472440944
0
LINE
8
BLACK
6
CONTINUOUS
10
2.1531496062992126
20
1.1110270472440944
11
2.1523421259842519
21
1.1017977165354331
0
LINE
8
BLACK
6
CONTINUOUS
10
2.1523421259842519
20
1.1017977165354331
11
2.1499442913385827
21
1.0928488188976377
0
LINE
8
BLACK
6
CONTINUOUS
10
2.1499442913385827
20
1.0928488188976377
11
2.146028897637795
21
1.0844522440944881
0
LINE
8
BLACK
6
CONTINUOUS
10
2.146028897637795
20
1.0844522440944881
11
2.1407149606299214
21
1.0768631496062993
0
LINE
8
BLACK
6
CONTINUOUS
10
2.1407149606299214
20
1.0768631496062993
11
2.1341638976377952
21
1.0703120866141731
0
LINE
8
BLACK
6
CONTINUOUS
10
2.1341638976377952
20
1.0703120866141731
11
2.1265748031496061
21
1.0649981496062992
0
LINE
8
BLACK
6
CONTINUOUS
10
2.1265748031496061
20
1.0649981496062992
11
2.1181782283464567
21
1.0610827559055118
0
LINE
8
BLACK
6
CONTINUOUS
10
2.1181782283464567
20
1.0610827559055118
11
2.1092293307086614
21
1.0586849212598426
0
LINE
8
BLACK
6
CONTINUOUS
10
2.1092293307086614
20
1.0586849212598426
11
2.1000000000000001
21
1.0578774409448819
0
LINE
8
BLACK
6
CONTINUOUS
10
2.1000000000000001
20
1.0578774409448819
11
2.0907706692913384
21
1.0586849212598426
0
LINE
8
BLACK
6
CONTINUOUS
10
2.0907706692913384
20
1.0586849212598426
11
2.0818217716535434
21
1.0610827559055118
0
LINE
8
BLACK
6
CONTINUOUS
10
2.0818217716535434
20
1.0610827559055118
11
2.0734251968503936
21
1.0649981496062992
0
LINE
8
BLACK
6
CONTINUOUS
10
2.0734251968503936
20
1.0649981496062992
11
2.0658361023622045
21
1.0703120866141731
0
LINE
8
BLACK
6
CONTINUOUS
10
2.0658361023622045
20
1.0703120866141731
11
2.0592850393700788
21
1.0768631496062993
0
LINE
8
BLACK
6
CONTINUOUS
10
2.0592850393700788
20
1.0768631496062993
11
2.0539711023622047
21
1.0844522440944881
0
LINE
8
BLACK
6
CONTINUOUS
10
2.0539711023622047
20
1.0844522440944881
11
2.0500557086614171
21
1.0928488188976377
0
LINE
8
BLACK
6
CONTINUOUS
10
2.0500557086614171
20
1.0928488188976377
11
2.0476578740157478
21
1.1017977165354331
0
LINE
8
BLACK
6
CONTINUOUS
10
2.0476578740157478
20
1.1017977165354331
11
2.0468503937007871
21
1.1110270472440944
0
LINE
8
BLACK
6
CONTINUOUS
10
2.0468503937007871
20
1.1110270472440944
11
2.0476578740157478
21
1.1202563779527559
0
LINE
8
BLACK
6
CONTINUOUS
10
2.0476578740157478
20
1.1202563779527559
11
2.0500557086614171
21
1.1292052755905511
0
LINE
8
BLACK
6
CONTINUOUS
10
2.0500557086614171
20
1.1292052755905511
11
2.0539711023622047
21
1.1376018503937007
0
LINE
8
BLACK
6
CONTINUOUS
10
2.0539711023622047
20
1.1376018503937007
11
2.0592850393700788
21
1.1451909448818898
0
LINE
8
BLACK
6
CONTINUOUS
10
2.0592850393700788
20
1.1451909448818898
11
2.0658361023622045
21
1.1517420078740157
0
LINE
8
BLACK
6
CONTINUOUS
10
2.0658361023622045
20
1.1517420078740157
11
2.0734251968503936
21
1.1570559448818898
0
LINE
8
BLACK
6
CONTINUOUS
10
2.0734251968503936
20
1.1570559448818898
11
2.0818217716535434
21
1.1609713385826772
0
LINE
8
BLACK
6
CONTINUOUS
10
2.0818217716535434
20
1.1609713385826772
11
2.0907706692913384
21
1.1633691732283464
0
LINE
8
BLACK
6
CONTINUOUS
10
2.0907706692913384
20
1.1633691732283464
11
2.1000000000000001
21
1.1641766535433071
0
LINE
8
BLACK
6
CONTINUOUS
10
2.1000000000000001
20
1.1641766535433071
11
2.1092293307086614
21
1.1633691732283464
0
LINE
8
BLACK
6
CONTINUOUS
10
0.38
20
1.1199999999999999
11
0.32
21
1.1199999999999999
0
LINE
8
BLACK
6
CONTINUOUS
10
0.32
20
1.1199999999999999
11
0.32
21
1.1799999999999999
0
LINE
8
BLACK
6
CONTINUOUS
10
0.32
20
1.1799999999999999
11
0.38
21
1.1799999999999999
0
LINE
8
BLACK
6
CONTINUOUS
10
0.38
20
1.1799999999999999
11
0.38
21
1.1199999999999999
0
LINE
8
BLACK
6
CONTINUOUS
10
0.48
20
1.1199999999999999
11
0.42
21
1.1199999999999999
0
LINE
8
BLACK
6
CONTINUOUS
10
0.42
20
1.1199999999999999
11
0.42
21
1.1799999999999999
0
LINE
8
BLACK
6
CONTINUOUS
10
0.42
20
1.1799999999999999
11
0.48
21
1.1799999999999999
0
LINE
8
BLACK
6
CONTINUOUS
10
0.48
20
1.1799999999999999
11
0.48
21
1.1199999999999999
0
LINE
8
BLACK
6
CONTINUOUS
10
2.0085456692913386
20
1.2594920078740157
11
2.0168316929133856
21
1.2572717716535433
0
LINE
8
BLACK
6
CONTINUOUS
10
2.0168316929133856
20
1.2572717716535433
11
2.0246062992125982
21
1.2536464173228345
0
LINE
8
BLACK
6
CONTINUOUS
10
2.0246062992125982
20
1.2536464173228345
11
2.0316332677165354
21
1.2487261023622047
0
LINE
8
BLACK
6
CONTINUOUS
10
2.0316332677165354
20
1.2487261023622047
11
2.03769905511811
21
1.2426603149606299
0
LINE
8
BLACK
6
CONTINUOUS
10
2.03769905511811
20
1.2426603149606299
11
2.0426193700787403
21
1.2356333464566929
0
LINE
8
BLACK
6
CONTINUOUS
10
2.0426193700787403
20
1.2356333464566929
11
2.0462447244094486
21
1.2278587401574803
0
LINE
8
BLACK
6
CONTINUOUS
10
2.0462447244094486
20
1.2278587401574803
11
2.048464960629921
21
1.2195727165354331
0
LINE
8
BLACK
6
CONTINUOUS
10
2.048464960629921
20
1.2195727165354331
11
2.0492125984251968
21
1.2110270472440945
0
LINE
8
BLACK
6
CONTINUOUS
10
2.0492125984251968
20
1.2110270472440945
11
2.048464960629921
21
1.2024813779527559
0
LINE
8
BLACK
6
CONTINUOUS
10
2.048464960629921
20
1.2024813779527559
11
2.0462447244094486
21
1.1941953543307087
0
LINE
8
BLACK
6
CONTINUOUS
10
2.0462447244094486
20
1.1941953543307087
11
2.0426193700787403
21
1.1864207480314961
0
LINE
8
BLACK
6
CONTINUOUS
10
2.0426193700787403
20
1.1864207480314961
11
2.03769905511811
21
1.1793937795275591
0
LINE
8
BLACK
6
CONTINUOUS
10
2.03769905511811
20
1.1793937795275591
11
2.0316332677165354
21
1.1733279921259843
0
LINE
8
BLACK
6
CONTINUOUS
10
2.0316332677165354
20
1.1733279921259843
11
2.0246062992125982
21
1.1684076771653542
0
LINE
8
BLACK
6
CONTINUOUS
10
2.0246062992125982
20
1.1684076771653542
11
2.0168316929133856
21
1.1647823228346457
0
LINE
8
BLACK
6
CONTINUOUS
10
2.0168316929133856
20
1.1647823228346457
11
2.0085456692913386
21
1.1625620866141733
0
LINE
8
BLACK
6
CONTINUOUS
10
2.0085456692913386
20
1.1625620866141733
11
2.
21
1.1618144488188975
0
LINE
8
BLACK
6
CONTINUOUS
10
2.
20
1.1618144488188975
11
1.9914543307086614
21
1.1625620866141733
0
LINE
8
BLACK
6
CONTINUOUS
10
1.9914543307086614
20
1.1625620866141733
11
1.9831683070866142
21
1.1647823228346457
0
LINE
8
BLACK
6
CONTINUOUS
10
1.9831683070866142
20
1.1647823228346457
11
1.9753937007874016
21
1.1684076771653542
0
LINE
8
BLACK
6
CONTINUOUS
10
1.9753937007874016
20
1.1684076771653542
11
1.9683667322834646
21
1.1733279921259843
0
LINE
8
BLACK
6
CONTINUOUS
10
1.9683667322834646
20
1.1733279921259843
11
1.9623009448818898
21
1.1793937795275591
0
LINE
8
BLACK
6
CONTINUOUS
10
1.9623009448818898
20
1.1793937795275591
11
1.9573806299212597
21
1.1864207480314961
0
LINE
8
BLACK
6
CONTINUOUS
10
1.9573806299212597
20
1.1864207480314961
11
1.9537552755905512
21
1.1941953543307087
0
LINE
8
BLACK
6
CONTINUOUS
10
1.9537552755905512
20
1.1941953543307087
11
1.9515350393700788
21
1.2024813779527559
0
LINE
8
BLACK
6
CONTINUOUS
10
1.9515350393700788
20
1.2024813779527559
11
1.950787401574803
21
1.2110270472440945
0
LINE
8
BLACK
6
CONTINUOUS
10
1.950787401574803
20
1.2110270472440945
11
1.9515350393700788
21
1.2195727165354331
0
LINE
8
BLACK
6
CONTINUOUS
10
1.9515350393700788
20
1.2195727165354331
11
1.9537552755905512
21
1.2278587401574803
0
LINE
8
BLACK
6
CONTINUOUS
10
1.9537552755905512
20
1.2278587401574803
11
1.9573806299212597
21
1.2356333464566929
0
LINE
8
BLACK
6
CONTINUOUS
10
1.9573806299212597
20
1.2356333464566929
11
1.9623009448818898
21
1.2426603149606299
0
LINE
8
BLACK
6
CONTINUOUS
10
1.9623009448818898
20
1.2426603149606299
11
1.9683667322834646
21
1.2487261023622047
0
LINE
8
BLACK
6
CONTINUOUS
10
1.9683667322834646
20
1.2487261023622047
11
1.9753937007874016
21
1.2536464173228345
0
LINE
8
BLACK
6
CONTINUOUS
10
1.9753937007874016
20
1.2536464173228345
11
1.9831683070866142
21
1.2572717716535433
0
LINE
8
BLACK
6
CONTINUOUS
10
1.9831683070866142
20
1.2572717716535433
11
1.9914543307086614
21
1.2594920078740157
0
LINE
8
BLACK
6
CONTINUOUS
10
1.9914543307086614
20
1.2594920078740157
11
2.
21
1.2602396456692913
0
LINE
8
BLACK
6
CONTINUOUS
10
2.
20
1.2602396456692913
11
2.0085456692913386
21
1.2594920078740157
0
LINE
8
BLACK
6
CONTINUOUS
10
0.38
20
1.22
11
0.32
21
1.22
0
LINE
8
BLACK
6
CONTINUOUS
10
0.32
20
1.22
11
0.32
21
1.28
0
LINE
8
BLACK
6
CONTINUOUS
10
0.32
20
1.28
11
0.38
21
1.28
0
LINE
8
BLACK
6
CONTINUOUS
10
0.38
20
1.28
11
0.38
21
1.22
0
LINE
8
BLACK
6
CONTINUOUS
10
0.48
20
1.22
11
0.42
21
1.22
0
LINE
8
BLACK
6
CONTINUOUS
10
0.42
20
1.22
11
0.42
21
1.28
0
LINE
8
BLACK
6
CONTINUOUS
10
0.42
20
1.28
11
0.48
21
1.28
0
LINE
8
BLACK
6
CONTINUOUS
10
0.48
20
1.28
11
0.48
21
1.22
0
LINE
8
BLACK
6
CONTINUOUS
10
1.9092293307086614
20
1.3633691732283464
11
1.9181782283464566
21
1.3609713385826772
0
LINE
8
BLACK
6
CONTINUOUS
10
1.9181782283464566
20
1.3609713385826772
11
1.9265748031496062
21
1.3570559448818897
0
LINE
8
BLACK
6
CONTINUOUS
10
1.9265748031496062
20
1.3570559448818897
11
1.9341638976377953
21
1.3517420078740157
0
LINE
8
BLACK
6
CONTINUOUS
10
1.9341638976377953
20
1.3517420078740157
11
1.9407149606299212
21
1.3451909448818897
0
LINE
8
BLACK
6
CONTINUOUS
10
1.9407149606299212
20
1.3451909448818897
11
1.9460288976377953
21
1.3376018503937008
0
LINE
8
BLACK
6
CONTINUOUS
10
1.9460288976377953
20
1.3376018503937008
11
1.9499442913385827
21
1.3292052755905512
0
LINE
8
BLACK
6
CONTINUOUS
10
1.9499442913385827
20
1.3292052755905512
11
1.9523421259842519
21
1.3202563779527559
0
LINE
8
BLACK
6
CONTINUOUS
10
1.9523421259842519
20
1.3202563779527559
11
1.9531496062992126
21
1.3110270472440944
0
LINE
8
BLACK
6
CONTINUOUS
10
1.9531496062992126
20
1.3110270472440944
11
1.9523421259842519
21
1.3017977165354331
0
LINE
8
BLACK
6
CONTINUOUS
10
1.9523421259842519
20
1.3017977165354331
11
1.9499442913385827
21
1.2928488188976377
0
LINE
8
BLACK
6
CONTINUOUS
10
1.9499442913385827
20
1.2928488188976377
11
1.9460288976377953
21
1.2844522440944881
0
LINE
8
BLACK
6
CONTINUOUS
10
1.9460288976377953
20
1.2844522440944881
11
1.9407149606299212
21
1.2768631496062992
0
LINE
8
BLACK
6
CONTINUOUS
10
1.9407149606299212
20
1.2768631496062992
11
1.9341638976377953
21
1.2703120866141733
0
LINE
8
BLACK
6
CONTINUOUS
10
1.9341638976377953
20
1.2703120866141733
11
1.9265748031496062
21
1.2649981496062992
0
LINE
8
BLACK
6
CONTINUOUS
10
1.9265748031496062
20
1.2649981496062992
11
1.9181782283464566
21
1.2610827559055118
0
LINE
8
BLACK
6
CONTINUOUS
10
1.9181782283464566
20
1.2610827559055118
11
1.9092293307086614
21
1.2586849212598425
0
LINE
8
BLACK
6
CONTINUOUS
10
1.9092293307086614
20
1.2586849212598425
11
1.8999999999999999
21
1.2578774409448819
0
LINE
8
BLACK
6
CONTINUOUS
10
1.8999999999999999
20
1.2578774409448819
11
1.8907706692913386
21
1.2586849212598425
0
LINE
8
BLACK
6
CONTINUOUS
10
1.8907706692913386
20
1.2586849212598425
11
1.8818217716535433
21
1.2610827559055118
0
LINE
8
BLACK
6
CONTINUOUS
10
1.8818217716535433
20
1.2610827559055118
11
1.8734251968503937
21
1.2649981496062992
0
LINE
8
BLACK
6
CONTINUOUS
10
1.8734251968503937
20
1.2649981496062992
11
1.8658361023622048
21
1.2703120866141733
0
LINE
8
BLACK
6
CONTINUOUS
10
1.8658361023622048
20
1.2703120866141733
11
1.8592850393700786
21
1.2768631496062992
0
LINE
8
BLACK
6
CONTINUOUS
10
1.8592850393700786
20
1.2768631496062992
11
1.8539711023622047
21
1.2844522440944881
0
LINE
8
BLACK
6
CONTINUOUS
10
1.8539711023622047
20
1.2844522440944881
11
1.8500557086614173
21
1.2928488188976377
0
LINE
8
BLACK
6
CONTINUOUS
10
1.8500557086614173
20
1.2928488188976377
11
1.8476578740157479
21
1.3017977165354331
0
LINE
8
BLACK
6
CONTINUOUS
10
1.8476578740157479
20
1.3017977165354331
11
1.8468503937007874
21
1.3110270472440944
0
LINE
8
BLACK
6
CONTINUOUS
10
1.8468503937007874
20
1.3110270472440944
11
1.8476578740157479
21
1.3202563779527559
0
LINE
8
BLACK
6
CONTINUOUS
10
1.8476578740157479
20
1.3202563779527559
11
1.8500557086614173
21
1.3292052755905512
0
LINE
8
BLACK
6
CONTINUOUS
10
1.8500557086614173
20
1.3292052755905512
11
1.8539711023622047
21
1.3376018503937008
0
LINE
8
BLACK
6
CONTINUOUS
10
1.8539711023622047
20
1.3376018503937008
11
1.8592850393700786
21
1.3451909448818897
0
LINE
8
BLACK
6
CONTINUOUS
10
1.8592850393700786
20
1.3451909448818897
11
1.8658361023622048
21
1.3517420078740157
0
LINE
8
BLACK
6
CONTINUOUS
10
1.8658361023622048
20
1.3517420078740157
11
1.8734251968503937
21
1.3570559448818897
0
LINE
8
BLACK
6
CONTINUOUS
10
1.8734251968503937
20
1.3570559448818897
11
1.8818217716535433
21
1.3609713385826772
0
LINE
8
BLACK
6
CONTINUOUS
10
1.8818217716535433
20
1.3609713385826772
11
1.8907706692913386
21
1.3633691732283464
0
LINE
8
BLACK
6
CONTINUOUS
10
1.8907706692913386
20
1.3633691732283464
11
1.8999999999999999
21
1.3641766535433071
0
LINE
8
BLACK
6
CONTINUOUS
10
1.8999999999999999
20
1.3641766535433071
11
1.9092293307086614
21
1.3633691732283464
0
LINE
8
BLACK
6
CONTINUOUS
10
2.1092293307086614
20
1.3633691732283464
11
2.1181782283464567
21
1.3609713385826772
0
LINE
8
BLACK
6
CONTINUOUS
10
2.1181782283464567
20
1.3609713385826772
11
2.1265748031496061
21
1.3570559448818897
0
LINE
8
BLACK
6
CONTINUOUS
10
2.1265748031496061
20
1.3570559448818897
11
2.1341638976377952
21
1.3517420078740157
0
LINE
8
BLACK
6
CONTINUOUS
10
2.1341638976377952
20
1.3517420078740157
11
2.1407149606299214
21
1.3451909448818897
0
LINE
8
BLACK
6
CONTINUOUS
10
2.1407149606299214
20
1.3451909448818897
11
2.146028897637795
21
1.3376018503937008
0
LINE
8
BLACK
6
CONTINUOUS
10
2.146028897637795
20
1.3376018503937008
11
2.1499442913385827
21
1.3292052755905512
0
LINE
8
BLACK
6
CONTINUOUS
10
2.1499442913385827
20
1.3292052755905512
11
2.1523421259842519
21
1.3202563779527559
0
LINE
8
BLACK
6
CONTINUOUS
10
2.1523421259842519
20
1.3202563779527559
11
2.1531496062992126
21
1.3110270472440944
0
LINE
8
BLACK
6
CONTINUOUS
10
2.1531496062992126
20
1.3110270472440944
11
2.1523421259842519
21
1.3017977165354331
0
LINE
8
BLACK
6
CONTINUOUS
10
2.1523421259842519
20
1.3017977165354331
11
2.1499442913385827
21
1.2928488188976377
0
LINE
8
BLACK
6
CONTINUOUS
10
2.1499442913385827
20
1.2928488188976377
11
2.146028897637795
21
1.2844522440944881
0
LINE
8
BLACK
6
CONTINUOUS
10
2.146028897637795
20
1.2844522440944881
11
2.1407149606299214
21
1.2768631496062992
0
LINE
8
BLACK
6
CONTINUOUS
10
2.1407149606299214
20
1.2768631496062992
11
2.1341638976377952
21
1.2703120866141733
0
LINE
8
BLACK
6
CONTINUOUS
10
2.1341638976377952
20
1.2703120866141733
11
2.1265748031496061
21
1.2649981496062992
0
LINE
8
BLACK
6
CONTINUOUS
10
2.1265748031496061
20
1.2649981496062992
11
2.1181782283464567
21
1.2610827559055118
0
LINE
8
BLACK
6
CONTINUOUS
10
2.1181782283464567
20
1.2610827559055118
11
2.1092293307086614
21
1.2586849212598425
0
LINE
8
BLACK
6
CONTINUOUS
10
2.1092293307086614
20
1.2586849212598425
11
2.1000000000000001
21
1.2578774409448819
0
LINE
8
BLACK
6
CONTINUOUS
10
2.1000000000000001
20
1.2578774409448819
11
2.0907706692913384
21
1.2586849212598425
0
LINE
8
BLACK
6
CONTINUOUS
10
2.0907706692913384
20
1.2586849212598425
11
2.0818217716535434
21
1.2610827559055118
0
LINE
8
BLACK
6
CONTINUOUS
10
2.0818217716535434
20
1.2610827559055118
11
2.0734251968503936
21
1.2649981496062992
0
LINE
8
BLACK
6
CONTINUOUS
10
2.0734251968503936
20
1.2649981496062992
11
2.0658361023622045
21
1.2703120866141733
0
LINE
8
BLACK
6
CONTINUOUS
10
2.0658361023622045
20
1.2703120866141733
11
2.0592850393700788
21
1.2768631496062992
0
LINE
8
BLACK
6
CONTINUOUS
10
2.0592850393700788
20
1.2768631496062992
11
2.0539711023622047
21
1.2844522440944881
0
LINE
8
BLACK
6
CONTINUOUS
10
2.0539711023622047
20
1.2844522440944881
11
2.0500557086614171
21
1.2928488188976377
0
LINE
8
BLACK
6
CONTINUOUS
10
2.0500557086614171
20
1.2928488188976377
11
2.0476578740157478
21
1.3017977165354331
0
LINE
8
BLACK
6
CONTINUOUS
10
2.0476578740157478
20
1.3017977165354331
11
2.0468503937007871
21
1.3110270472440944
0
LINE
8
BLACK
6
CONTINUOUS
10
2.0468503937007871
20
1.3110270472440944
11
2.0476578740157478
21
1.3202563779527559
0
LINE
8
BLACK
6
CONTINUOUS
10
2.0476578740157478
20
1.3202563779527559
11
2.0500557086614171
21
1.3292052755905512
0
LINE
8
BLACK
6
CONTINUOUS
10
2.0500557086614171
20
1.3292052755905512
11
2.0539711023622047
21
1.3376018503937008
0
LINE
8
BLACK
6
CONTINUOUS
10
2.0539711023622047
20
1.3376018503937008
11
2.0592850393700788
21
1.3451909448818897
0
LINE
8
BLACK
6
CONTINUOUS
10
2.0592850393700788
20
1.3451909448818897
11
2.0658361023622045
21
1.3517420078740157
0
LINE
8
BLACK
6
CONTINUOUS
10
2.0658361023622045
20
1.3517420078740157
11
2.0734251968503936
21
1.3570559448818897
0
LINE
8
BLACK
6
CONTINUOUS
10
2.0734251968503936
20
1.3570559448818897
11
2.0818217716535434
21
1.3609713385826772
0
LINE
8
BLACK
6
CONTINUOUS
10
2.0818217716535434
20
1.3609713385826772
11
2.0907706692913384
21
1.3633691732283464
0
LINE
8
BLACK
6
CONTINUOUS
10
2.0907706692913384
20
1.3633691732283464
11
2.1000000000000001
21
1.3641766535433071
0
LINE
8
BLACK
6
CONTINUOUS
10
2.1000000000000001
20
1.3641766535433071
11
2.1092293307086614
21
1.3633691732283464
0
LINE
8
BLACK
6
CONTINUOUS
10
0.38
20
1.3200000000000001
11
0.32
21
1.3200000000000001
0
LINE
8
BLACK
6
CONTINUOUS
10
0.32
20
1.3200000000000001
11
0.32
21
1.3799999999999999
0
LINE
8
BLACK
6
CONTINUOUS
10
0.32
20
1.3799999999999999
11
0.38
21
1.3799999999999999
0
LINE
8
BLACK
6
CONTINUOUS
10
0.38
20
1.3799999999999999
11
0.38
21
1.3200000000000001
0
LINE
8
BLACK
6
CONTINUOUS
10
0.48
20
1.3200000000000001
11
0.42
21
1.3200000000000001
0
LINE
8
BLACK
6
CONTINUOUS
10
0.42
20
1.3200000000000001
11
0.42
21
1.3799999999999999
0
LINE
8
BLACK
6
CONTINUOUS
10
0.42
20
1.3799999999999999
11
0.48
21
1.3799999999999999
0
LINE
8
BLACK
6
CONTINUOUS
10
0.48
20
1.3799999999999999
11
0.48
21
1.3200000000000001
0
LINE
8
BLACK
6
CONTINUOUS
10
0.4205096456692913
20
1.7163158661417321
11
0.4338744094488189
21
1.7131483858267715
0
LINE
8
BLACK
6
CONTINUOUS
10
0.4338744094488189
20
1.7131483858267715
11
0.446781062992126
21
1.7084507086614173
0
LINE
8
BLACK
6
CONTINUOUS
10
0.446781062992126
20
1.7084507086614173
11
0.4590551181102362
21
1.7022864566929135
0
LINE
8
BLACK
6
CONTINUOUS
10
0.4590551181102362
20
1.7022864566929135
11
0.4705305511811024
21
1.6947389763779528
0
LINE
8
BLACK
6
CONTINUOUS
10
0.4705305511811024
20
1.6947389763779528
11
0.4810521653543307
21
1.6859102755905511
0
LINE
8
BLACK
6
CONTINUOUS
10
0.4810521653543307
20
1.6859102755905511
11
0.4904776771653543
21
1.6759198031496063
0
LINE
8
BLACK
6
CONTINUOUS
10
0.4904776771653543
20
1.6759198031496063
11
0.4986796456692913
21
1.6649026377952756
0
LINE
8
BLACK
6
CONTINUOUS
10
0.4986796456692913
20
1.6649026377952756
11
0.5055471653543308
21
1.6530077952755906
0
LINE
8
BLACK
6
CONTINUOUS
10
0.5055471653543308
20
1.6530077952755906
11
0.5109873228346457
21
1.6403960629921259
0
LINE
8
BLACK
6
CONTINUOUS
10
0.5109873228346457
20
1.6403960629921259
11
0.5149265748031496
21
1.6272381102362203
0
LINE
8
BLACK
6
CONTINUOUS
10
0.5149265748031496
20
1.6272381102362203
11
0.5173116141732284
21
1.6137117716535432
0
LINE
8
BLACK
6
CONTINUOUS
10
0.5173116141732284
20
1.6137117716535432
11
0.5181102362204725
21
1.5999999999999999
0
LINE
8
BLACK
6
CONTINUOUS
10
0.5181102362204725
20
1.5999999999999999
11
0.5173116141732284
21
1.5862882283464566
0
LINE
8
BLACK
6
CONTINUOUS
10
0.5173116141732284
20
1.5862882283464566
11
0.5149265748031496
21
1.5727618897637794
0
LINE
8
BLACK
6
CONTINUOUS
10
0.5149265748031496
20
1.5727618897637794
11
0.5109873228346457
21
1.559603937007874
0
LINE
8
BLACK
6
CONTINUOUS
10
0.5109873228346457
20
1.559603937007874
11
0.5055471653543308
21
1.5469922047244093
0
LINE
8
BLACK
6
CONTINUOUS
10
0.5055471653543308
20
1.5469922047244093
11
0.4986796456692913
21
1.5350973622047244
0
LINE
8
BLACK
6
CONTINUOUS
10
0.4986796456692913
20
1.5350973622047244
11
0.4904776771653543
21
1.5240801968503936
0
LINE
8
BLACK
6
CONTINUOUS
10
0.4904776771653543
20
1.5240801968503936
11
0.4810521653543307
21
1.5140897244094489
0
LINE
8
BLACK
6
CONTINUOUS
10
0.4810521653543307
20
1.5140897244094489
11
0.4705305511811024
21
1.5052610236220472
0
LINE
8
BLACK
6
CONTINUOUS
10
0.4705305511811024
20
1.5052610236220472
11
0.4590551181102362
21
1.4977135433070865
0
LINE
8
BLACK
6
CONTINUOUS
10
0.4590551181102362
20
1.4977135433070865
11
0.446781062992126
21
1.4915492913385826
0
LINE
8
BLACK
6
CONTINUOUS
10
0.446781062992126
20
1.4915492913385826
11
0.4338744094488189
21
1.4868516141732284
0
LINE
8
BLACK
6
CONTINUOUS
10
0.4338744094488189
20
1.4868516141732284
11
0.4205096456692913
21
1.4836841338582676
0
LINE
8
BLACK
6
CONTINUOUS
10
0.4205096456692913
20
1.4836841338582676
11
0.4068674803149606
21
1.4820896062992126
0
LINE
8
BLACK
6
CONTINUOUS
10
0.4068674803149606
20
1.4820896062992126
11
0.3931325196850394
21
1.4820896062992126
0
LINE
8
BLACK
6
CONTINUOUS
10
0.3931325196850394
20
1.4820896062992126
11
0.3794903543307087
21
1.4836841338582676
0
LINE
8
BLACK
6
CONTINUOUS
10
0.3794903543307087
20
1.4836841338582676
11
0.3661255905511811
21
1.4868516141732284
0
LINE
8
BLACK
6
CONTINUOUS
10
0.3661255905511811
20
1.4868516141732284
11
0.353218937007874
21
1.4915492913385826
0
LINE
8
BLACK
6
CONTINUOUS
10
0.353218937007874
20
1.4915492913385826
11
0.3409448818897638
21
1.4977135433070865
0
LINE
8
BLACK
6
CONTINUOUS
10
0.3409448818897638
20
1.4977135433070865
11
0.3294694488188976
21
1.5052610236220472
0
LINE
8
BLACK
6
CONTINUOUS
10
0.3294694488188976
20
1.5052610236220472
11
0.3189478346456693
21
1.5140897244094489
0
LINE
8
BLACK
6
CONTINUOUS
10
0.3189478346456693
20
1.5140897244094489
11
0.3095223228346456
21
1.5240801968503936
0
LINE
8
BLACK
6
CONTINUOUS
10
0.3095223228346456
20
1.5240801968503936
11
0.3013203543307086
21
1.5350973622047244
0
LINE
8
BLACK
6
CONTINUOUS
10
0.3013203543307086
20
1.5350973622047244
11
0.2944528346456693
21
1.5469922047244093
0
LINE
8
BLACK
6
CONTINUOUS
10
0.2944528346456693
20
1.5469922047244093
11
0.2890126771653543
21
1.559603937007874
0
LINE
8
BLACK
6
CONTINUOUS
10
0.2890126771653543
20
1.559603937007874
11
0.2850734251968504
21
1.5727618897637794
0
LINE
8
BLACK
6
CONTINUOUS
10
0.2850734251968504
20
1.5727618897637794
11
0.2826883858267716
21
1.5862882283464566
0
LINE
8
BLACK
6
CONTINUOUS
10
0.2826883858267716
20
1.5862882283464566
11
0.2818897637795276
21
1.5999999999999999
0
LINE
8
BLACK
6
CONTINUOUS
10
0.2818897637795276
20
1.5999999999999999
11
0.2826883858267716
21
1.6137117716535432
0
LINE
8
BLACK
6
CONTINUOUS
10
0.2826883858267716
20
1.6137117716535432
11
0.2850734251968504
21
1.6272381102362203
0
LINE
8
BLACK
6
CONTINUOUS
10
0.2850734251968504
20
1.6272381102362203
11
0.2890126771653543
21
1.6403960629921259
0
LINE
8
BLACK
6
CONTINUOUS
10
0.2890126771653543
20
1.6403960629921259
11
0.2944528346456693
21
1.6530077952755906
0
LINE
8
BLACK
6
CONTINUOUS
10
0.2944528346456693
20
1.6530077952755906
11
0.3013203543307086
21
1.6649026377952756
0
LINE
8
BLACK
6
CONTINUOUS
10
0.3013203543307086
20
1.6649026377952756
11
0.3095223228346456
21
1.6759198031496063
0
LINE
8
BLACK
6
CONTINUOUS
10
0.3095223228346456
20
1.6759198031496063
11
0.3189478346456693
21
1.6859102755905511
0
LINE
8
BLACK
6
CONTINUOUS
10
0.3189478346456693
20
1.6859102755905511
11
0.3294694488188976
21
1.6947389763779528
0
LINE
8
BLACK
6
CONTINUOUS
10
0.3294694488188976
20
1.6947389763779528
11
0.3409448818897638
21
1.7022864566929135
0
LINE
8
BLACK
6
CONTINUOUS
10
0.3409448818897638
20
1.7022864566929135
11
0.353218937007874
21
1.7084507086614173
0
LINE
8
BLACK
6
CONTINUOUS
10
0.353218937007874
20
1.7084507086614173
11
0.3661255905511811
21
1.7131483858267715
0
LINE
8
BLACK
6
CONTINUOUS
10
0.3661255905511811
20
1.7131483858267715
11
0.3794903543307087
21
1.7163158661417321
0
LINE
8
BLACK
6
CONTINUOUS
10
0.3794903543307087
20
1.7163158661417321
11
0.3931325196850394
21
1.7179103937007874
0
LINE
8
BLACK
6
CONTINUOUS
10
0.3931325196850394
20
1.7179103937007874
11
0.4068674803149606
21
1.7179103937007874
0
LINE
8
BLACK
6
CONTINUOUS
10
0.4068674803149606
20
1.7179103937007874
11
0.4205096456692913
21
1.7163158661417321
0
LINE
8
BLACK
6
CONTINUOUS
10
2.0205096456692915
20
1.7163158661417321
11
2.0338744094488188
21
1.7131483858267715
0
LINE
8
BLACK
6
CONTINUOUS
10
2.0338744094488188
20
1.7131483858267715
11
2.0467810629921259
21
1.7084507086614173
0
LINE
8
BLACK
6
CONTINUOUS
10
2.0467810629921259
20
1.7084507086614173
11
2.0590551181102361
21
1.7022864566929135
0
LINE
8
BLACK
6
CONTINUOUS
10
2.0590551181102361
20
1.7022864566929135
11
2.0705305511811023
21
1.6947389763779528
0
LINE
8
BLACK
6
CONTINUOUS
10
2.0705305511811023
20
1.6947389763779528
11
2.0810521653543308
21
1.6859102755905511
0
LINE
8
BLACK
6
CONTINUOUS
10
2.0810521653543308
20
1.6859102755905511
11
2.0904776771653544
21
1.6759198031496063
0
LINE
8
BLACK
6
CONTINUOUS
10
2.0904776771653544
20
1.6759198031496063
11
2.0986796456692911
21
1.6649026377952756
0
LINE
8
BLACK
6
CONTINUOUS
10
2.0986796456692911
20
1.6649026377952756
11
2.1055471653543307
21
1.6530077952755906
0
LINE
8
BLACK
6
CONTINUOUS
10
2.1055471653543307
20
1.6530077952755906
11
2.1109873228346454
21
1.6403960629921259
0
LINE
8
BLACK
6
CONTINUOUS
10
2.1109873228346454
20
1.6403960629921259
11
2.1149265748031496
21
1.6272381102362203
0
LINE
8
BLACK
6
CONTINUOUS
10
2.1149265748031496
20
1.6272381102362203
11
2.1173116141732282
21
1.6137117716535432
0
LINE
8
BLACK
6
CONTINUOUS
10
2.1173116141732282
20
1.6137117716535432
11
2.1181102362204722
21
1.5999999999999999
0
LINE
8
BLACK
6
CONTINUOUS
10
2.1181102362204722
20
1.5999999999999999
11
2.1173116141732282
21
1.5862882283464566
0
LINE
8
BLACK
6
CONTINUOUS
10
2.1173116141732282
20
1.5862882283464566
11
2.1149265748031496
21
1.5727618897637794
0
LINE
8
BLACK
6
CONTINUOUS
10
2.1149265748031496
20
1.5727618897637794
11
2.1109873228346454
21
1.559603937007874
0
LINE
8
BLACK
6
CONTINUOUS
10
2.1109873228346454
20
1.559603937007874
11
2.1055471653543307
21
1.5469922047244093
0
LINE
8
BLACK
6
CONTINUOUS
10
2.1055471653543307
20
1.5469922047244093
11
2.0986796456692911
21
1.5350973622047244
0
LINE
8
BLACK
6
CONTINUOUS
10
2.0986796456692911
20
1.5350973622047244
11
2.0904776771653544
21
1.5240801968503936
0
LINE
8
BLACK
6
CONTINUOUS
10
2.0904776771653544
20
1.5240801968503936
11
2.0810521653543308
21
1.5140897244094489
0
LINE
8
BLACK
6
CONTINUOUS
10
2.0810521653543308
20
1.5140897244094489
11
2.0705305511811023
21
1.5052610236220472
0
LINE
8
BLACK
6
CONTINUOUS
10
2.0705305511811023
20
1.5052610236220472
11
2.0590551181102361
21
1.4977135433070865
0
LINE
8
BLACK
6
CONTINUOUS
10
2.0590551181102361
20
1.4977135433070865
11
2.0467810629921259
21
1.4915492913385826
0
LINE
8
BLACK
6
CONTINUOUS
10
2.0467810629921259
20
1.4915492913385826
11
2.0338744094488188
21
1.4868516141732284
0
LINE
8
BLACK
6
CONTINUOUS
10
2.0338744094488188
20
1.4868516141732284
11
2.0205096456692915
21
1.4836841338582676
0
LINE
8
BLACK
6
CONTINUOUS
10
2.0205096456692915
20
1.4836841338582676
11
2.0068674803149604
21
1.4820896062992126
0
LINE
8
BLACK
6
CONTINUOUS
10
2.0068674803149604
20
1.4820896062992126
11
1.9931325196850393
21
1.4820896062992126
0
LINE
8
BLACK
6
CONTINUOUS
10
1.9931325196850393
20
1.4820896062992126
11
1.9794903543307085
21
1.4836841338582676
0
LINE
8
BLACK
6
CONTINUOUS
10
1.9794903543307085
20
1.4836841338582676
11
1.966125590551181
21
1.4868516141732284
0
LINE
8
BLACK
6
CONTINUOUS
10
1.966125590551181
20
1.4868516141732284
11
1.9532189370078741
21
1.4915492913385826
0
LINE
8
BLACK
6
CONTINUOUS
10
1.9532189370078741
20
1.4915492913385826
11
1.9409448818897637
21
1.4977135433070865
0
LINE
8
BLACK
6
CONTINUOUS
10
1.9409448818897637
20
1.4977135433070865
11
1.9294694488188977
21
1.5052610236220472
0
LINE
8
BLACK
6
CONTINUOUS
10
1.9294694488188977
20
1.5052610236220472
11
1.9189478346456692
21
1.5140897244094489
0
LINE
8
BLACK
6
CONTINUOUS
10
1.9189478346456692
20
1.5140897244094489
11
1.9095223228346456
21
1.5240801968503936
0
LINE
8
BLACK
6
CONTINUOUS
10
1.9095223228346456
20
1.5240801968503936
11
1.9013203543307087
21
1.5350973622047244
0
LINE
8
BLACK
6
CONTINUOUS
10
1.9013203543307087
20
1.5350973622047244
11
1.8944528346456693
21
1.5469922047244093
0
LINE
8
BLACK
6
CONTINUOUS
10
1.8944528346456693
20
1.5469922047244093
11
1.8890126771653544
21
1.559603937007874
0
LINE
8
BLACK
6
CONTINUOUS
10
1.8890126771653544
20
1.559603937007874
11
1.8850734251968504
21
1.5727618897637794
0
LINE
8
BLACK
6
CONTINUOUS
10
1.8850734251968504
20
1.5727618897637794
11
1.8826883858267716
21
1.5862882283464566
0
LINE
8
BLACK
6
CONTINUOUS
10
1.8826883858267716
20
1.5862882283464566
11
1.8818897637795275
21
1.5999999999999999
0
LINE
8
BLACK
6
CONTINUOUS
10
1.8818897637795275
20
1.5999999999999999
11
1.8826883858267716
21
1.6137117716535432
0
LINE
8
BLACK
6
CONTINUOUS
10
1.8826883858267716
20
1.6137117716535432
11
1.8850734251968504
21
1.6272381102362203
0
LINE
8
BLACK
6
CONTINUOUS
10
1.8850734251968504
20
1.6272381102362203
11
1.8890126771653544
21
1.6403960629921259
0
LINE
8
BLACK
6
CONTINUOUS
10
1.8890126771653544
20
1.6403960629921259
11
1.8944528346456693
21
1.6530077952755906
0
LINE
8
BLACK
6
CONTINUOUS
10
1.8944528346456693
20
1.6530077952755906
11
1.9013203543307087
21
1.6649026377952756
0
LINE
8
BLACK
6
CONTINUOUS
10
1.9013203543307087
20
1.6649026377952756
11
1.9095223228346456
21
1.6759198031496063
0
LINE
8
BLACK
6
CONTINUOUS
10
1.9095223228346456
20
1.6759198031496063
11
1.9189478346456692
21
1.6859102755905511
0
LINE
8
BLACK
6
CONTINUOUS
10
1.9189478346456692
20
1.6859102755905511
11
1.9294694488188977
21
1.6947389763779528
0
LINE
8
BLACK
6
CONTINUOUS
10
1.9294694488188977
20
1.6947389763779528
11
1.9409448818897637
21
1.7022864566929135
0
LINE
8
BLACK
6
CONTINUOUS
10
1.9409448818897637
20
1.7022864566929135
11
1.9532189370078741
21
1.7084507086614173
0
LINE
8
BLACK
6
CONTINUOUS
10
1.9532189370078741
20
1.7084507086614173
11
1.966125590551181
21
1.7131483858267715
0
LINE
8
BLACK
6
CONTINUOUS
10
1.966125590551181
20
1.7131483858267715
11
1.9794903543307085
21
1.7163158661417321
0
LINE
8
BLACK
6
CONTINUOUS
10
1.9794903543307085
20
1.7163158661417321
11
1.9931325196850393
21
1.7179103937007874
0
LINE
8
BLACK
6
CONTINUOUS
10
1.9931325196850393
20
1.7179103937007874
11
2.0068674803149604
21
1.7179103937007874
0
LINE
8
BLACK
6
CONTINUOUS
10
2.0068674803149604
20
1.7179103937007874
11
2.0205096456692915
21
1.7163158661417321
0
LINE
8
BLACK
6
CONTINUOUS
10
1.7162293307086613
20
1.599342125984252
11
1.7251782283464567
21
1.5969442913385827
0
LINE
8
BLACK
6
CONTINUOUS
10
1.7251782283464567
20
1.5969442913385827
11
1.7335748031496063
21
1.5930288976377953
0
LINE
8
BLACK
6
CONTINUOUS
10
1.7335748031496063
20
1.5930288976377953
11
1.7411638976377952
21
1.5877149606299212
0
LINE
8
BLACK
6
CONTINUOUS
10
1.7411638976377952
20
1.5877149606299212
11
1.7477149606299212
21
1.5811638976377953
0
LINE
8
BLACK
6
CONTINUOUS
10
1.7477149606299212
20
1.5811638976377953
11
1.7530288976377952
21
1.5735748031496062
0
LINE
8
BLACK
6
CONTINUOUS
10
1.7530288976377952
20
1.5735748031496062
11
1.7569442913385827
21
1.5651782283464566
0
LINE
8
BLACK
6
CONTINUOUS
10
1.7569442913385827
20
1.5651782283464566
11
1.7593421259842519
21
1.5562293307086614
0
LINE
8
BLACK
6
CONTINUOUS
10
1.7593421259842519
20
1.5562293307086614
11
1.7601496062992126
21
1.5469999999999999
0
LINE
8
BLACK
6
CONTINUOUS
10
1.7601496062992126
20
1.5469999999999999
11
1.7593421259842519
21
1.5377706692913387
0
LINE
8
BLACK
6
CONTINUOUS
10
1.7593421259842519
20
1.5377706692913387
11
1.7569442913385827
21
1.5288217716535433
0
LINE
8
BLACK
6
CONTINUOUS
10
1.7569442913385827
20
1.5288217716535433
11
1.7530288976377952
21
1.5204251968503937
0
LINE
8
BLACK
6
CONTINUOUS
10
1.7530288976377952
20
1.5204251968503937
11
1.7477149606299212
21
1.5128361023622048
0
LINE
8
BLACK
6
CONTINUOUS
10
1.7477149606299212
20
1.5128361023622048
11
1.7411638976377952
21
1.5062850393700786
0
LINE
8
BLACK
6
CONTINUOUS
10
1.7411638976377952
20
1.5062850393700786
11
1.7335748031496063
21
1.5009711023622048
0
LINE
8
BLACK
6
CONTINUOUS
10
1.7335748031496063
20
1.5009711023622048
11
1.7251782283464567
21
1.4970557086614174
0
LINE
8
BLACK
6
CONTINUOUS
10
1.7251782283464567
20
1.4970557086614174
11
1.7162293307086613
21
1.4946578740157479
0
LINE
8
BLACK
6
CONTINUOUS
10
1.7162293307086613
20
1.4946578740157479
11
1.7069999999999999
21
1.4938503937007874
0
LINE
8
BLACK
6
CONTINUOUS
10
1.7069999999999999
20
1.4938503937007874
11
1.6977706692913386
21
1.4946578740157479
0
LINE
8
BLACK
6
CONTINUOUS
10
1.6977706692913386
20
1.4946578740157479
11
1.6888217716535432
21
1.4970557086614174
0
LINE
8
BLACK
6
CONTINUOUS
10
1.6888217716535432
20
1.4970557086614174
11
1.6804251968503936
21
1.5009711023622048
0
LINE
8
BLACK
6
CONTINUOUS
10
1.6804251968503936
20
1.5009711023622048
11
1.6728361023622047
21
1.5062850393700786
0
LINE
8
BLACK
6
CONTINUOUS
10
1.6728361023622047
20
1.5062850393700786
11
1.6662850393700788
21
1.5128361023622048
0
LINE
8
BLACK
6
CONTINUOUS
10
1.6662850393700788
20
1.5128361023622048
11
1.6609711023622047
21
1.5204251968503937
0
LINE
8
BLACK
6
CONTINUOUS
10
1.6609711023622047
20
1.5204251968503937
11
1.6570557086614173
21
1.5288217716535433
0
LINE
8
BLACK
6
CONTINUOUS
10
1.6570557086614173
20
1.5288217716535433
11
1.654657874015748
21
1.5377706692913387
0
LINE
8
BLACK
6
CONTINUOUS
10
1.654657874015748
20
1.5377706692913387
11
1.6538503937007873
21
1.5469999999999999
0
LINE
8
BLACK
6
CONTINUOUS
10
1.6538503937007873
20
1.5469999999999999
11
1.654657874015748
21
1.5562293307086614
0
LINE
8
BLACK
6
CONTINUOUS
10
1.654657874015748
20
1.5562293307086614
11
1.6570557086614173
21
1.5651782283464566
0
LINE
8
BLACK
6
CONTINUOUS
10
1.6570557086614173
20
1.5651782283464566
11
1.6609711023622047
21
1.5735748031496062
0
LINE
8
BLACK
6
CONTINUOUS
10
1.6609711023622047
20
1.5735748031496062
11
1.6662850393700788
21
1.5811638976377953
0
LINE
8
BLACK
6
CONTINUOUS
10
1.6662850393700788
20
1.5811638976377953
11
1.6728361023622047
21
1.5877149606299212
0
LINE
8
BLACK
6
CONTINUOUS
10
1.6728361023622047
20
1.5877149606299212
11
1.6804251968503936
21
1.5930288976377953
0
LINE
8
BLACK
6
CONTINUOUS
10
1.6804251968503936
20
1.5930288976377953
11
1.6888217716535432
21
1.5969442913385827
0
LINE
8
BLACK
6
CONTINUOUS
10
1.6888217716535432
20
1.5969442913385827
11
1.6977706692913386
21
1.599342125984252
0
LINE
8
BLACK
6
CONTINUOUS
10
1.6977706692913386
20
1.599342125984252
11
1.7069999999999999
21
1.6001496062992127
0
LINE
8
BLACK
6
CONTINUOUS
10
1.7069999999999999
20
1.6001496062992127
11
1.7162293307086613
21
1.599342125984252
0
LINE
8
BLACK
6
CONTINUOUS
10
0.6799999999999999
20
1.5249999999999999
11
0.62
21
1.5249999999999999
0
LINE
8
BLACK
6
CONTINUOUS
10
0.62
20
1.5249999999999999
11
0.62
21
1.585
0
LINE
8
BLACK
6
CONTINUOUS
10
0.62
20
1.585
11
0.6799999999999999
21
1.585
0
LINE
8
BLACK
6
CONTINUOUS
10
0.6799999999999999
20
1.585
11
0.6799999999999999
21
1.5249999999999999
0
LINE
8
BLACK
6
CONTINUOUS
10
0.78
20
1.5249999999999999
11
0.72
21
1.5249999999999999
0
LINE
8
BLACK
6
CONTINUOUS
10
0.72
20
1.5249999999999999
11
0.72
21
1.585
0
LINE
8
BLACK
6
CONTINUOUS
10
0.72
20
1.585
11
0.78
21
1.585
0
LINE
8
BLACK
6
CONTINUOUS
10
0.78
20
1.585
11
0.78
21
1.5249999999999999
0
LINE
8
BLACK
6
CONTINUOUS
10
0.88
20
1.5249999999999999
11
0.82
21
1.5249999999999999
0
LINE
8
BLACK
6
CONTINUOUS
10
0.82
20
1.5249999999999999
11
0.82
21
1.585
0
LINE
8
BLACK
6
CONTINUOUS
10
0.82
20
1.585
11
0.88
21
1.585
0
LINE
8
BLACK
6
CONTINUOUS
10
0.88
20
1.585
11
0.88
21
1.5249999999999999
0
LINE
8
BLACK
6
CONTINUOUS
10
0.98
20
1.5249999999999999
11
0.9199999999999999
21
1.5249999999999999
0
LINE
8
BLACK
6
CONTINUOUS
10
0.9199999999999999
20
1.5249999999999999
11
0.9199999999999999
21
1.585
0
LINE
8
BLACK
6
CONTINUOUS
10
0.9199999999999999
20
1.585
11
0.98
21
1.585
0
LINE
8
BLACK
6
CONTINUOUS
10
0.98
20
1.585
11
0.98
21
1.5249999999999999
0
LINE
8
BLACK
6
CONTINUOUS
10
1.0800000000000001
20
1.5250271259842518
11
1.02
21
1.5250271259842518
0
LINE
8
BLACK
6
CONTINUOUS
10
1.02
20
1.5250271259842518
11
1.02
21
1.5850271259842519
0
LINE
8
BLACK
6
CONTINUOUS
10
1.02
20
1.5850271259842519
11
1.0800000000000001
21
1.5850271259842519
0
LINE
8
BLACK
6
CONTINUOUS
10
1.0800000000000001
20
1.5850271259842519
11
1.0800000000000001
21
1.5250271259842518
0
LINE
8
BLACK
6
CONTINUOUS
10
0.6799999999999999
20
1.625
11
0.62
21
1.625
0
LINE
8
BLACK
6
CONTINUOUS
10
0.62
20
1.625
11
0.62
21
1.6850000000000001
0
LINE
8
BLACK
6
CONTINUOUS
10
0.62
20
1.6850000000000001
11
0.6799999999999999
21
1.6850000000000001
0
LINE
8
BLACK
6
CONTINUOUS
10
0.6799999999999999
20
1.6850000000000001
11
0.6799999999999999
21
1.625
0
LINE
8
BLACK
6
CONTINUOUS
10
0.78
20
1.625
11
0.72
21
1.625
0
LINE
8
BLACK
6
CONTINUOUS
10
0.72
20
1.625
11
0.72
21
1.6850000000000001
0
LINE
8
BLACK
6
CONTINUOUS
10
0.72
20
1.6850000000000001
11
0.78
21
1.6850000000000001
0
LINE
8
BLACK
6
CONTINUOUS
10
0.78
20
1.6850000000000001
11
0.78
21
1.625
0
LINE
8
BLACK
6
CONTINUOUS
10
0.88
20
1.625
11
0.82
21
1.625
0
LINE
8
BLACK
6
CONTINUOUS
10
0.82
20
1.625
11
0.82
21
1.6850000000000001
0
LINE
8
BLACK
6
CONTINUOUS
10
0.82
20
1.6850000000000001
11
0.88
21
1.6850000000000001
0
LINE
8
BLACK
6
CONTINUOUS
10
0.88
20
1.6850000000000001
11
0.88
21
1.625
0
LINE
8
BLACK
6
CONTINUOUS
10
0.98
20
1.625
11
0.9199999999999999
21
1.625
0
LINE
8
BLACK
6
CONTINUOUS
10
0.9199999999999999
20
1.625
11
0.9199999999999999
21
1.6850000000000001
0
LINE
8
BLACK
6
CONTINUOUS
10
0.9199999999999999
20
1.6850000000000001
11
0.98
21
1.6850000000000001
0
LINE
8
BLACK
6
CONTINUOUS
10
0.98
20
1.6850000000000001
11
0.98
21
1.625
0
LINE
8
BLACK
6
CONTINUOUS
10
1.0800000000000001
20
1.6250271259842519
11
1.02
21
1.6250271259842519
0
LINE
8
BLACK
6
CONTINUOUS
10
1.02
20
1.6250271259842519
11
1.02
21
1.685027125984252
0
LINE
8
BLACK
6
CONTINUOUS
10
1.02
20
1.685027125984252
11
1.0800000000000001
21
1.685027125984252
0
LINE
8
BLACK
6
CONTINUOUS
10
1.0800000000000001
20
1.685027125984252
11
1.0800000000000001
21
1.6250271259842519
0
LINE
8
BLACK
6
CONTINUOUS
10
1.7152726377952756
20
1.7603736220472441
11
1.7242215354330708
21
1.7579757874015747
0
LINE
8
BLACK
6
CONTINUOUS
10
1.7242215354330708
20
1.7579757874015747
11
1.7326181102362204
21
1.7540603937007873
0
LINE
8
BLACK
6
CONTINUOUS
10
1.7326181102362204
20
1.7540603937007873
11
1.7402072047244095
21
1.7487464566929134
0
LINE
8
BLACK
6
CONTINUOUS
10
1.7402072047244095
20
1.7487464566929134
11
1.7467582677165354
21
1.7421953937007875
0
LINE
8
BLACK
6
CONTINUOUS
10
1.7467582677165354
20
1.7421953937007875
11
1.7520722047244095
21
1.7346062992125983
0
LINE
8
BLACK
6
CONTINUOUS
10
1.7520722047244095
20
1.7346062992125983
11
1.7559875984251969
21
1.7262097244094488
0
LINE
8
BLACK
6
CONTINUOUS
10
1.7559875984251969
20
1.7262097244094488
11
1.7583854330708661
21
1.7172608267716536
0
LINE
8
BLACK
6
CONTINUOUS
10
1.7583854330708661
20
1.7172608267716536
11
1.7591929133858268
21
1.7080314960629921
0
LINE
8
BLACK
6
CONTINUOUS
10
1.7591929133858268
20
1.7080314960629921
11
1.7583854330708661
21
1.6988021653543306
0
LINE
8
BLACK
6
CONTINUOUS
10
1.7583854330708661
20
1.6988021653543306
11
1.7559875984251969
21
1.6898532677165354
0
LINE
8
BLACK
6
CONTINUOUS
10
1.7559875984251969
20
1.6898532677165354
11
1.7520722047244095
21
1.6814566929133858
0
LINE
8
BLACK
6
CONTINUOUS
10
1.7520722047244095
20
1.6814566929133858
11
1.7467582677165354
21
1.6738675984251967
0
LINE
8
BLACK
6
CONTINUOUS
10
1.7467582677165354
20
1.6738675984251967
11
1.7402072047244095
21
1.6673165354330708
0
LINE
8
BLACK
6
CONTINUOUS
10
1.7402072047244095
20
1.6673165354330708
11
1.7326181102362204
21
1.6620025984251967
0
LINE
8
BLACK
6
CONTINUOUS
10
1.7326181102362204
20
1.6620025984251967
11
1.7242215354330708
21
1.6580872047244095
0
LINE
8
BLACK
6
CONTINUOUS
10
1.7242215354330708
20
1.6580872047244095
11
1.7152726377952756
21
1.6556893700787401
0
LINE
8
BLACK
6
CONTINUOUS
10
1.7152726377952756
20
1.6556893700787401
11
1.7060433070866141
21
1.6548818897637796
0
LINE
8
BLACK
6
CONTINUOUS
10
1.7060433070866141
20
1.6548818897637796
11
1.6968139763779526
21
1.6556893700787401
0
LINE
8
BLACK
6
CONTINUOUS
10
1.6968139763779526
20
1.6556893700787401
11
1.6878650787401575
21
1.6580872047244095
0
LINE
8
BLACK
6
CONTINUOUS
10
1.6878650787401575
20
1.6580872047244095
11
1.6794685039370079
21
1.6620025984251967
0
LINE
8
BLACK
6
CONTINUOUS
10
1.6794685039370079
20
1.6620025984251967
11
1.671879409448819
21
1.6673165354330708
0
LINE
8
BLACK
6
CONTINUOUS
10
1.671879409448819
20
1.6673165354330708
11
1.6653283464566928
21
1.6738675984251967
0
LINE
8
BLACK
6
CONTINUOUS
10
1.6653283464566928
20
1.6738675984251967
11
1.660014409448819
21
1.6814566929133858
0
LINE
8
BLACK
6
CONTINUOUS
10
1.660014409448819
20
1.6814566929133858
11
1.6560990157480315
21
1.6898532677165354
0
LINE
8
BLACK
6
CONTINUOUS
10
1.6560990157480315
20
1.6898532677165354
11
1.6537011811023621
21
1.6988021653543306
0
LINE
8
BLACK
6
CONTINUOUS
10
1.6537011811023621
20
1.6988021653543306
11
1.6528937007874016
21
1.7080314960629921
0
LINE
8
BLACK
6
CONTINUOUS
10
1.6528937007874016
20
1.7080314960629921
11
1.6537011811023621
21
1.7172608267716536
0
LINE
8
BLACK
6
CONTINUOUS
10
1.6537011811023621
20
1.7172608267716536
11
1.6560990157480315
21
1.7262097244094488
0
LINE
8
BLACK
6
CONTINUOUS
10
1.6560990157480315
20
1.7262097244094488
11
1.660014409448819
21
1.7346062992125983
0
LINE
8
BLACK
6
CONTINUOUS
10
1.660014409448819
20
1.7346062992125983
11
1.6653283464566928
21
1.7421953937007875
0
LINE
8
BLACK
6
CONTINUOUS
10
1.6653283464566928
20
1.7421953937007875
11
1.671879409448819
21
1.7487464566929134
0
LINE
8
BLACK
6
CONTINUOUS
10
1.671879409448819
20
1.7487464566929134
11
1.6794685039370079
21
1.7540603937007873
0
LINE
8
BLACK
6
CONTINUOUS
10
1.6794685039370079
20
1.7540603937007873
11
1.6878650787401575
21
1.7579757874015747
0
LINE
8
BLACK
6
CONTINUOUS
10
1.6878650787401575
20
1.7579757874015747
11
1.6968139763779526
21
1.7603736220472441
0
LINE
8
BLACK
6
CONTINUOUS
10
1.6968139763779526
20
1.7603736220472441
11
1.7060433070866141
21
1.7611811023622046
0
LINE
8
BLACK
6
CONTINUOUS
10
1.7060433070866141
20
1.7611811023622046
11
1.7152726377952756
21
1.7603736220472441
  0
ENDSEC
  0
EOF
