  0
SECTION
  2
HEADER
  9
$ANGBASE
  50
0.0
  9
$ANGDIR
  70
1
  9
$MEASUREMENT
  70
0
  0
ENDSEC
  0
SECTION
  2
TABLES
  0
TABLE
  2
LTYPE
  70
4
  0
LTYPE
  5
40F
  2
CONTINUOUS
  70
0
  3
Solid line
  72
65
  73
0
  40
0.0
  0
LTYPE
  5
410
  2
DASHDOT
 70
0
  3
Dash Dot ____ _ ____ _
 72
65
 73
4
 40
2.0
 49
1.25
 49
-0.25
 49
0.25
 49
-0.25
  0
LTYPE
  5
411
  2
DASHED
 70
0
  3
Dashed __ __ __ __ __
 72
65
 73
2
 40
0.75
 49
0.5
 49
-0.25
  0
LTYPE
  5
43B
  2
DOTTED
 70
0
  3
Dotted .  .  .  .
 72
65
 73
2
 40
0.2
 49
0.0
 49
-0.2
  0
ENDTAB
  0
TABLE
  2
STYLE
  70
4
  0
STYLE
  2
KICAD
  70
0
  40
0
  41
1
  42
1
  50
0
  71
0
  3
isocp.shx
  0
STYLE
  2
KICADB
  70
0
  40
0
  41
1
  42
1
  50
0
  71
0
  3
isocp.shx
  0
STYLE
  2
KICADI
  70
0
  40
0
  41
1
  42
1
  50
15
  71
0
  3
isocp.shx
  0
STYLE
  2
KICADBI
  70
0
  40
0
  41
1
  42
1
  50
15
  71
0
  3
isocp.shx
  0
ENDTAB
  0
TABLE
  2
LAYER
  70
1
  0
LAYER
  2
BLACK
  70
0
  62
7
  6
CONTINUOUS
  0
ENDTAB
  0
ENDSEC
  0
SECTION
  2
ENTITIES
0
LINE
8
BLACK
6
CONTINUOUS
10
0.4134434251968504
20
0.5193135433070866
11
0.4267177559055118
21
0.5170581496062993
0
LINE
8
BLACK
6
CONTINUOUS
10
0.4267177559055118
20
0.5170581496062993
11
0.4396561023622047
21
0.5133306692913385
0
LINE
8
BLACK
6
CONTINUOUS
10
0.4396561023622047
20
0.5133306692913385
11
0.4520957874015748
21
0.5081779921259842
0
LINE
8
BLACK
6
CONTINUOUS
10
0.4520957874015748
20
0.5081779921259842
11
0.4638803149606299
21
0.5016649212598425
0
LINE
8
BLACK
6
CONTINUOUS
10
0.4638803149606299
20
0.5016649212598425
11
0.4748614960629921
21
0.4938733464566929
0
LINE
8
BLACK
6
CONTINUOUS
10
0.4748614960629921
20
0.4938733464566929
11
0.4849012598425197
21
0.4849012598425197
0
LINE
8
BLACK
6
CONTINUOUS
10
0.4849012598425197
20
0.4849012598425197
11
0.4938733464566929
21
0.4748614960629921
0
LINE
8
BLACK
6
CONTINUOUS
10
0.4938733464566929
20
0.4748614960629921
11
0.5016649212598425
21
0.4638803149606299
0
LINE
8
BLACK
6
CONTINUOUS
10
0.5016649212598425
20
0.4638803149606299
11
0.5081779921259842
21
0.4520957874015748
0
LINE
8
BLACK
6
CONTINUOUS
10
0.5081779921259842
20
0.4520957874015748
11
0.5133306692913385
21
0.4396561023622047
0
LINE
8
BLACK
6
CONTINUOUS
10
0.5133306692913385
20
0.4396561023622047
11
0.5170581496062993
21
0.4267177559055118
0
LINE
8
BLACK
6
CONTINUOUS
10
0.5170581496062993
20
0.4267177559055118
11
0.5193135433070866
21
0.4134434251968504
0
LINE
8
BLACK
6
CONTINUOUS
10
0.5193135433070866
20
0.4134434251968504
11
0.5200685039370079
21
0.4
0
LINE
8
BLACK
6
CONTINUOUS
10
0.5200685039370079
20
0.4
11
0.5193135433070866
21
0.3865565748031496
0
LINE
8
BLACK
6
CONTINUOUS
10
0.5193135433070866
20
0.3865565748031496
11
0.5170581496062993
21
0.3732822440944882
0
LINE
8
BLACK
6
CONTINUOUS
10
0.5170581496062993
20
0.3732822440944882
11
0.5133306692913385
21
0.3603438976377953
0
LINE
8
BLACK
6
CONTINUOUS
10
0.5133306692913385
20
0.3603438976377953
11
0.5081779921259842
21
0.3479042125984252
0
LINE
8
BLACK
6
CONTINUOUS
10
0.5081779921259842
20
0.3479042125984252
11
0.5016649212598425
21
0.3361196850393701
0
LINE
8
BLACK
6
CONTINUOUS
10
0.5016649212598425
20
0.3361196850393701
11
0.4938733464566929
21
0.3251385039370079
0
LINE
8
BLACK
6
CONTINUOUS
10
0.4938733464566929
20
0.3251385039370079
11
0.4849012598425197
21
0.3150987401574803
0
LINE
8
BLACK
6
CONTINUOUS
10
0.4849012598425197
20
0.3150987401574803
11
0.4748614960629921
21
0.3061266535433071
0
LINE
8
BLACK
6
CONTINUOUS
10
0.4748614960629921
20
0.3061266535433071
11
0.4638803149606299
21
0.2983350787401575
0
LINE
8
BLACK
6
CONTINUOUS
10
0.4638803149606299
20
0.2983350787401575
11
0.4520957874015748
21
0.2918220078740157
0
LINE
8
BLACK
6
CONTINUOUS
10
0.4520957874015748
20
0.2918220078740157
11
0.4396561023622047
21
0.2866693307086614
0
LINE
8
BLACK
6
CONTINUOUS
10
0.4396561023622047
20
0.2866693307086614
11
0.4267177559055118
21
0.2829418503937008
0
LINE
8
BLACK
6
CONTINUOUS
10
0.4267177559055118
20
0.2829418503937008
11
0.4134434251968504
21
0.2806864566929134
0
LINE
8
BLACK
6
CONTINUOUS
10
0.4134434251968504
20
0.2806864566929134
11
0.4
21
0.2799314960629921
0
LINE
8
BLACK
6
CONTINUOUS
10
0.4
20
0.2799314960629921
11
0.3865565748031496
21
0.2806864566929134
0
LINE
8
BLACK
6
CONTINUOUS
10
0.3865565748031496
20
0.2806864566929134
11
0.3732822440944882
21
0.2829418503937008
0
LINE
8
BLACK
6
CONTINUOUS
10
0.3732822440944882
20
0.2829418503937008
11
0.3603438976377953
21
0.2866693307086614
0
LINE
8
BLACK
6
CONTINUOUS
10
0.3603438976377953
20
0.2866693307086614
11
0.3479042125984252
21
0.2918220078740157
0
LINE
8
BLACK
6
CONTINUOUS
10
0.3479042125984252
20
0.2918220078740157
11
0.3361196850393701
21
0.2983350787401575
0
LINE
8
BLACK
6
CONTINUOUS
10
0.3361196850393701
20
0.2983350787401575
11
0.3251385039370079
21
0.3061266535433071
0
LINE
8
BLACK
6
CONTINUOUS
10
0.3251385039370079
20
0.3061266535433071
11
0.3150987401574803
21
0.3150987401574803
0
LINE
8
BLACK
6
CONTINUOUS
10
0.3150987401574803
20
0.3150987401574803
11
0.3061266535433071
21
0.3251385039370079
0
LINE
8
BLACK
6
CONTINUOUS
10
0.3061266535433071
20
0.3251385039370079
11
0.2983350787401575
21
0.3361196850393701
0
LINE
8
BLACK
6
CONTINUOUS
10
0.2983350787401575
20
0.3361196850393701
11
0.2918220078740157
21
0.3479042125984252
0
LINE
8
BLACK
6
CONTINUOUS
10
0.2918220078740157
20
0.3479042125984252
11
0.2866693307086614
21
0.3603438976377953
0
LINE
8
BLACK
6
CONTINUOUS
10
0.2866693307086614
20
0.3603438976377953
11
0.2829418503937008
21
0.3732822440944882
0
LINE
8
BLACK
6
CONTINUOUS
10
0.2829418503937008
20
0.3732822440944882
11
0.2806864566929134
21
0.3865565748031496
0
LINE
8
BLACK
6
CONTINUOUS
10
0.2806864566929134
20
0.3865565748031496
11
0.2799314960629921
21
0.4
0
LINE
8
BLACK
6
CONTINUOUS
10
0.2799314960629921
20
0.4
11
0.2806864566929134
21
0.4134434251968504
0
LINE
8
BLACK
6
CONTINUOUS
10
0.2806864566929134
20
0.4134434251968504
11
0.2829418503937008
21
0.4267177559055118
0
LINE
8
BLACK
6
CONTINUOUS
10
0.2829418503937008
20
0.4267177559055118
11
0.2866693307086614
21
0.4396561023622047
0
LINE
8
BLACK
6
CONTINUOUS
10
0.2866693307086614
20
0.4396561023622047
11
0.2918220078740157
21
0.4520957874015748
0
LINE
8
BLACK
6
CONTINUOUS
10
0.2918220078740157
20
0.4520957874015748
11
0.2983350787401575
21
0.4638803149606299
0
LINE
8
BLACK
6
CONTINUOUS
10
0.2983350787401575
20
0.4638803149606299
11
0.3061266535433071
21
0.4748614960629921
0
LINE
8
BLACK
6
CONTINUOUS
10
0.3061266535433071
20
0.4748614960629921
11
0.3150987401574803
21
0.4849012598425197
0
LINE
8
BLACK
6
CONTINUOUS
10
0.3150987401574803
20
0.4849012598425197
11
0.3251385039370079
21
0.4938733464566929
0
LINE
8
BLACK
6
CONTINUOUS
10
0.3251385039370079
20
0.4938733464566929
11
0.3361196850393701
21
0.5016649212598425
0
LINE
8
BLACK
6
CONTINUOUS
10
0.3361196850393701
20
0.5016649212598425
11
0.3479042125984252
21
0.5081779921259842
0
LINE
8
BLACK
6
CONTINUOUS
10
0.3479042125984252
20
0.5081779921259842
11
0.3603438976377953
21
0.5133306692913385
0
LINE
8
BLACK
6
CONTINUOUS
10
0.3603438976377953
20
0.5133306692913385
11
0.3732822440944882
21
0.5170581496062993
0
LINE
8
BLACK
6
CONTINUOUS
10
0.3732822440944882
20
0.5170581496062993
11
0.3865565748031496
21
0.5193135433070866
0
LINE
8
BLACK
6
CONTINUOUS
10
0.3865565748031496
20
0.5193135433070866
11
0.4
21
0.5200685039370079
0
LINE
8
BLACK
6
CONTINUOUS
10
0.4
20
0.5200685039370079
11
0.4134434251968504
21
0.5193135433070866
0
LINE
8
BLACK
6
CONTINUOUS
10
0.2844582677165354
20
0.3864951181102362
11
0.2868073228346457
21
0.3731728346456693
0
LINE
8
BLACK
6
CONTINUOUS
10
0.2868073228346457
20
0.3731728346456693
11
0.2906871653543307
21
0.3602133858267716
0
LINE
8
BLACK
6
CONTINUOUS
10
0.2906871653543307
20
0.3602133858267716
11
0.2960452362204724
21
0.347791968503937
0
LINE
8
BLACK
6
CONTINUOUS
10
0.2960452362204724
20
0.347791968503937
11
0.3028091338582677
21
0.3360765354330709
0
LINE
8
BLACK
6
CONTINUOUS
10
0.3028091338582677
20
0.3360765354330709
11
0.3108873622047244
21
0.3252255905511811
0
LINE
8
BLACK
6
CONTINUOUS
10
0.3108873622047244
20
0.3252255905511811
11
0.3201706692913386
21
0.3153858661417323
0
LINE
8
BLACK
6
CONTINUOUS
10
0.3201706692913386
20
0.3153858661417323
11
0.3305335433070866
21
0.3066903543307087
0
LINE
8
BLACK
6
CONTINUOUS
10
0.3305335433070866
20
0.3066903543307087
11
0.3418358267716535
21
0.2992567322834646
0
LINE
8
BLACK
6
CONTINUOUS
10
0.3418358267716535
20
0.2992567322834646
11
0.3539247244094488
21
0.2931854724409449
0
LINE
8
BLACK
6
CONTINUOUS
10
0.3539247244094488
20
0.2931854724409449
11
0.3666366535433071
21
0.2885587007874016
0
LINE
8
BLACK
6
CONTINUOUS
10
0.3666366535433071
20
0.2885587007874016
11
0.3797998031496063
21
0.2854389763779527
0
LINE
8
BLACK
6
CONTINUOUS
10
0.3797998031496063
20
0.2854389763779527
11
0.3932361023622047
21
0.2838685039370079
0
LINE
8
BLACK
6
CONTINUOUS
10
0.3932361023622047
20
0.2838685039370079
11
0.4067638976377952
21
0.2838685039370079
0
LINE
8
BLACK
6
CONTINUOUS
10
0.4067638976377952
20
0.2838685039370079
11
0.4202001968503937
21
0.2854389763779527
0
LINE
8
BLACK
6
CONTINUOUS
10
0.4202001968503937
20
0.2854389763779527
11
0.4333633464566929
21
0.2885587007874016
0
LINE
8
BLACK
6
CONTINUOUS
10
0.4333633464566929
20
0.2885587007874016
11
0.4460752755905512
21
0.2931854724409449
0
LINE
8
BLACK
6
CONTINUOUS
10
0.4460752755905512
20
0.2931854724409449
11
0.4581641732283465
21
0.2992567322834646
0
LINE
8
BLACK
6
CONTINUOUS
10
0.4581641732283465
20
0.2992567322834646
11
0.4694664566929134
21
0.3066903543307087
0
LINE
8
BLACK
6
CONTINUOUS
10
0.4694664566929134
20
0.3066903543307087
11
0.4798293307086614
21
0.3153858661417323
0
LINE
8
BLACK
6
CONTINUOUS
10
0.4798293307086614
20
0.3153858661417323
11
0.4891126377952756
21
0.3252255905511811
0
LINE
8
BLACK
6
CONTINUOUS
10
0.4891126377952756
20
0.3252255905511811
11
0.4971908661417322
21
0.3360765354330709
0
LINE
8
BLACK
6
CONTINUOUS
10
0.4971908661417322
20
0.3360765354330709
11
0.5039547637795275
21
0.347791968503937
0
LINE
8
BLACK
6
CONTINUOUS
10
0.5039547637795275
20
0.347791968503937
11
0.5093128346456692
21
0.3602133858267716
0
LINE
8
BLACK
6
CONTINUOUS
10
0.5093128346456692
20
0.3602133858267716
11
0.5131926771653543
21
0.3731728346456693
0
LINE
8
BLACK
6
CONTINUOUS
10
0.5131926771653543
20
0.3731728346456693
11
0.5155417322834646
21
0.3864951181102362
0
LINE
8
BLACK
6
CONTINUOUS
10
0.5155417322834646
20
0.3864951181102362
11
0.5163283070866141
21
0.4
0
LINE
8
BLACK
6
CONTINUOUS
10
0.5163283070866141
20
0.4
11
0.5155417322834646
21
0.4135048818897638
0
LINE
8
BLACK
6
CONTINUOUS
10
0.5155417322834646
20
0.4135048818897638
11
0.5131926771653543
21
0.4268271653543307
0
LINE
8
BLACK
6
CONTINUOUS
10
0.5131926771653543
20
0.4268271653543307
11
0.5093128346456692
21
0.4397866141732283
0
LINE
8
BLACK
6
CONTINUOUS
10
0.5093128346456692
20
0.4397866141732283
11
0.5039547637795275
21
0.452208031496063
0
LINE
8
BLACK
6
CONTINUOUS
10
0.5039547637795275
20
0.452208031496063
11
0.4971908661417322
21
0.4639234645669291
0
LINE
8
BLACK
6
CONTINUOUS
10
0.4971908661417322
20
0.4639234645669291
11
0.4891126377952756
21
0.4747744094488189
0
LINE
8
BLACK
6
CONTINUOUS
10
0.4891126377952756
20
0.4747744094488189
11
0.4798293307086614
21
0.4846141338582677
0
LINE
8
BLACK
6
CONTINUOUS
10
0.4798293307086614
20
0.4846141338582677
11
0.4694664566929134
21
0.4933096456692913
0
LINE
8
BLACK
6
CONTINUOUS
10
0.4694664566929134
20
0.4933096456692913
11
0.4581641732283465
21
0.5007432677165354
0
LINE
8
BLACK
6
CONTINUOUS
10
0.4581641732283465
20
0.5007432677165354
11
0.4460752755905512
21
0.5068145275590551
0
LINE
8
BLACK
6
CONTINUOUS
10
0.4460752755905512
20
0.5068145275590551
11
0.4333633464566929
21
0.5114412992125984
0
LINE
8
BLACK
6
CONTINUOUS
10
0.4333633464566929
20
0.5114412992125984
11
0.4202001968503937
21
0.5145610236220473
0
LINE
8
BLACK
6
CONTINUOUS
10
0.4202001968503937
20
0.5145610236220473
11
0.4067638976377952
21
0.5161314960629921
0
LINE
8
BLACK
6
CONTINUOUS
10
0.4067638976377952
20
0.5161314960629921
11
0.3932361023622047
21
0.5161314960629921
0
LINE
8
BLACK
6
CONTINUOUS
10
0.3932361023622047
20
0.5161314960629921
11
0.3797998031496063
21
0.5145610236220473
0
LINE
8
BLACK
6
CONTINUOUS
10
0.3797998031496063
20
0.5145610236220473
11
0.3666366535433071
21
0.5114412992125984
0
LINE
8
BLACK
6
CONTINUOUS
10
0.3666366535433071
20
0.5114412992125984
11
0.3539247244094488
21
0.5068145275590551
0
LINE
8
BLACK
6
CONTINUOUS
10
0.3539247244094488
20
0.5068145275590551
11
0.3418358267716535
21
0.5007432677165354
0
LINE
8
BLACK
6
CONTINUOUS
10
0.3418358267716535
20
0.5007432677165354
11
0.3305335433070866
21
0.4933096456692913
0
LINE
8
BLACK
6
CONTINUOUS
10
0.3305335433070866
20
0.4933096456692913
11
0.3201706692913386
21
0.4846141338582677
0
LINE
8
BLACK
6
CONTINUOUS
10
0.3201706692913386
20
0.4846141338582677
11
0.3108873622047244
21
0.4747744094488189
0
LINE
8
BLACK
6
CONTINUOUS
10
0.3108873622047244
20
0.4747744094488189
11
0.3028091338582677
21
0.4639234645669291
0
LINE
8
BLACK
6
CONTINUOUS
10
0.3028091338582677
20
0.4639234645669291
11
0.2960452362204724
21
0.452208031496063
0
LINE
8
BLACK
6
CONTINUOUS
10
0.2960452362204724
20
0.452208031496063
11
0.2906871653543307
21
0.4397866141732283
0
LINE
8
BLACK
6
CONTINUOUS
10
0.2906871653543307
20
0.4397866141732283
11
0.2868073228346457
21
0.4268271653543307
0
LINE
8
BLACK
6
CONTINUOUS
10
0.2868073228346457
20
0.4268271653543307
11
0.2844582677165354
21
0.4135048818897638
0
LINE
8
BLACK
6
CONTINUOUS
10
0.2844582677165354
20
0.4135048818897638
11
0.2836716929133858
21
0.4
0
LINE
8
BLACK
6
CONTINUOUS
10
0.2836716929133858
20
0.4
11
0.2844582677165354
21
0.3864951181102362
0
LINE
8
BLACK
6
CONTINUOUS
10
2.0134434251968503
20
0.5193135433070866
11
2.0267177559055116
21
0.5170581496062993
0
LINE
8
BLACK
6
CONTINUOUS
10
2.0267177559055116
20
0.5170581496062993
11
2.0396561023622048
21
0.5133306692913385
0
LINE
8
BLACK
6
CONTINUOUS
10
2.0396561023622048
20
0.5133306692913385
11
2.0520957874015746
21
0.5081779921259842
0
LINE
8
BLACK
6
CONTINUOUS
10
2.0520957874015746
20
0.5081779921259842
11
2.0638803149606297
21
0.5016649212598425
0
LINE
8
BLACK
6
CONTINUOUS
10
2.0638803149606297
20
0.5016649212598425
11
2.0748614960629919
21
0.4938733464566929
0
LINE
8
BLACK
6
CONTINUOUS
10
2.0748614960629919
20
0.4938733464566929
11
2.0849012598425198
21
0.4849012598425197
0
LINE
8
BLACK
6
CONTINUOUS
10
2.0849012598425198
20
0.4849012598425197
11
2.093873346456693
21
0.4748614960629921
0
LINE
8
BLACK
6
CONTINUOUS
10
2.093873346456693
20
0.4748614960629921
11
2.1016649212598426
21
0.4638803149606299
0
LINE
8
BLACK
6
CONTINUOUS
10
2.1016649212598426
20
0.4638803149606299
11
2.108177992125984
21
0.4520957874015748
0
LINE
8
BLACK
6
CONTINUOUS
10
2.108177992125984
20
0.4520957874015748
11
2.1133306692913387
21
0.4396561023622047
0
LINE
8
BLACK
6
CONTINUOUS
10
2.1133306692913387
20
0.4396561023622047
11
2.117058149606299
21
0.4267177559055118
0
LINE
8
BLACK
6
CONTINUOUS
10
2.117058149606299
20
0.4267177559055118
11
2.1193135433070864
21
0.4134434251968504
0
LINE
8
BLACK
6
CONTINUOUS
10
2.1193135433070864
20
0.4134434251968504
11
2.120068503937008
21
0.4
0
LINE
8
BLACK
6
CONTINUOUS
10
2.120068503937008
20
0.4
11
2.1193135433070864
21
0.3865565748031496
0
LINE
8
BLACK
6
CONTINUOUS
10
2.1193135433070864
20
0.3865565748031496
11
2.117058149606299
21
0.3732822440944882
0
LINE
8
BLACK
6
CONTINUOUS
10
2.117058149606299
20
0.3732822440944882
11
2.1133306692913387
21
0.3603438976377953
0
LINE
8
BLACK
6
CONTINUOUS
10
2.1133306692913387
20
0.3603438976377953
11
2.108177992125984
21
0.3479042125984252
0
LINE
8
BLACK
6
CONTINUOUS
10
2.108177992125984
20
0.3479042125984252
11
2.1016649212598426
21
0.3361196850393701
0
LINE
8
BLACK
6
CONTINUOUS
10
2.1016649212598426
20
0.3361196850393701
11
2.093873346456693
21
0.3251385039370079
0
LINE
8
BLACK
6
CONTINUOUS
10
2.093873346456693
20
0.3251385039370079
11
2.0849012598425198
21
0.3150987401574803
0
LINE
8
BLACK
6
CONTINUOUS
10
2.0849012598425198
20
0.3150987401574803
11
2.0748614960629919
21
0.3061266535433071
0
LINE
8
BLACK
6
CONTINUOUS
10
2.0748614960629919
20
0.3061266535433071
11
2.0638803149606297
21
0.2983350787401575
0
LINE
8
BLACK
6
CONTINUOUS
10
2.0638803149606297
20
0.2983350787401575
11
2.0520957874015746
21
0.2918220078740157
0
LINE
8
BLACK
6
CONTINUOUS
10
2.0520957874015746
20
0.2918220078740157
11
2.0396561023622048
21
0.2866693307086614
0
LINE
8
BLACK
6
CONTINUOUS
10
2.0396561023622048
20
0.2866693307086614
11
2.0267177559055116
21
0.2829418503937008
0
LINE
8
BLACK
6
CONTINUOUS
10
2.0267177559055116
20
0.2829418503937008
11
2.0134434251968503
21
0.2806864566929134
0
LINE
8
BLACK
6
CONTINUOUS
10
2.0134434251968503
20
0.2806864566929134
11
2.
21
0.2799314960629921
0
LINE
8
BLACK
6
CONTINUOUS
10
2.
20
0.2799314960629921
11
1.9865565748031495
21
0.2806864566929134
0
LINE
8
BLACK
6
CONTINUOUS
10
1.9865565748031495
20
0.2806864566929134
11
1.9732822440944882
21
0.2829418503937008
0
LINE
8
BLACK
6
CONTINUOUS
10
1.9732822440944882
20
0.2829418503937008
11
1.9603438976377952
21
0.2866693307086614
0
LINE
8
BLACK
6
CONTINUOUS
10
1.9603438976377952
20
0.2866693307086614
11
1.9479042125984252
21
0.2918220078740157
0
LINE
8
BLACK
6
CONTINUOUS
10
1.9479042125984252
20
0.2918220078740157
11
1.93611968503937
21
0.2983350787401575
0
LINE
8
BLACK
6
CONTINUOUS
10
1.93611968503937
20
0.2983350787401575
11
1.9251385039370079
21
0.3061266535433071
0
LINE
8
BLACK
6
CONTINUOUS
10
1.9251385039370079
20
0.3061266535433071
11
1.9150987401574802
21
0.3150987401574803
0
LINE
8
BLACK
6
CONTINUOUS
10
1.9150987401574802
20
0.3150987401574803
11
1.906126653543307
21
0.3251385039370079
0
LINE
8
BLACK
6
CONTINUOUS
10
1.906126653543307
20
0.3251385039370079
11
1.8983350787401574
21
0.3361196850393701
0
LINE
8
BLACK
6
CONTINUOUS
10
1.8983350787401574
20
0.3361196850393701
11
1.8918220078740158
21
0.3479042125984252
0
LINE
8
BLACK
6
CONTINUOUS
10
1.8918220078740158
20
0.3479042125984252
11
1.8866693307086613
21
0.3603438976377953
0
LINE
8
BLACK
6
CONTINUOUS
10
1.8866693307086613
20
0.3603438976377953
11
1.8829418503937008
21
0.3732822440944882
0
LINE
8
BLACK
6
CONTINUOUS
10
1.8829418503937008
20
0.3732822440944882
11
1.8806864566929133
21
0.3865565748031496
0
LINE
8
BLACK
6
CONTINUOUS
10
1.8806864566929133
20
0.3865565748031496
11
1.879931496062992
21
0.4
0
LINE
8
BLACK
6
CONTINUOUS
10
1.879931496062992
20
0.4
11
1.8806864566929133
21
0.4134434251968504
0
LINE
8
BLACK
6
CONTINUOUS
10
1.8806864566929133
20
0.4134434251968504
11
1.8829418503937008
21
0.4267177559055118
0
LINE
8
BLACK
6
CONTINUOUS
10
1.8829418503937008
20
0.4267177559055118
11
1.8866693307086613
21
0.4396561023622047
0
LINE
8
BLACK
6
CONTINUOUS
10
1.8866693307086613
20
0.4396561023622047
11
1.8918220078740158
21
0.4520957874015748
0
LINE
8
BLACK
6
CONTINUOUS
10
1.8918220078740158
20
0.4520957874015748
11
1.8983350787401574
21
0.4638803149606299
0
LINE
8
BLACK
6
CONTINUOUS
10
1.8983350787401574
20
0.4638803149606299
11
1.906126653543307
21
0.4748614960629921
0
LINE
8
BLACK
6
CONTINUOUS
10
1.906126653543307
20
0.4748614960629921
11
1.9150987401574802
21
0.4849012598425197
0
LINE
8
BLACK
6
CONTINUOUS
10
1.9150987401574802
20
0.4849012598425197
11
1.9251385039370079
21
0.4938733464566929
0
LINE
8
BLACK
6
CONTINUOUS
10
1.9251385039370079
20
0.4938733464566929
11
1.93611968503937
21
0.5016649212598425
0
LINE
8
BLACK
6
CONTINUOUS
10
1.93611968503937
20
0.5016649212598425
11
1.9479042125984252
21
0.5081779921259842
0
LINE
8
BLACK
6
CONTINUOUS
10
1.9479042125984252
20
0.5081779921259842
11
1.9603438976377952
21
0.5133306692913385
0
LINE
8
BLACK
6
CONTINUOUS
10
1.9603438976377952
20
0.5133306692913385
11
1.9732822440944882
21
0.5170581496062993
0
LINE
8
BLACK
6
CONTINUOUS
10
1.9732822440944882
20
0.5170581496062993
11
1.9865565748031495
21
0.5193135433070866
0
LINE
8
BLACK
6
CONTINUOUS
10
1.9865565748031495
20
0.5193135433070866
11
2.
21
0.5200685039370079
0
LINE
8
BLACK
6
CONTINUOUS
10
2.
20
0.5200685039370079
11
2.0134434251968503
21
0.5193135433070866
0
LINE
8
BLACK
6
CONTINUOUS
10
1.8844582677165354
20
0.3864951181102362
11
1.8868073228346456
21
0.3731728346456693
0
LINE
8
BLACK
6
CONTINUOUS
10
1.8868073228346456
20
0.3731728346456693
11
1.8906871653543307
21
0.3602133858267716
0
LINE
8
BLACK
6
CONTINUOUS
10
1.8906871653543307
20
0.3602133858267716
11
1.8960452362204725
21
0.347791968503937
0
LINE
8
BLACK
6
CONTINUOUS
10
1.8960452362204725
20
0.347791968503937
11
1.9028091338582678
21
0.3360765354330709
0
LINE
8
BLACK
6
CONTINUOUS
10
1.9028091338582678
20
0.3360765354330709
11
1.9108873622047244
21
0.3252255905511811
0
LINE
8
BLACK
6
CONTINUOUS
10
1.9108873622047244
20
0.3252255905511811
11
1.9201706692913385
21
0.3153858661417323
0
LINE
8
BLACK
6
CONTINUOUS
10
1.9201706692913385
20
0.3153858661417323
11
1.9305335433070865
21
0.3066903543307087
0
LINE
8
BLACK
6
CONTINUOUS
10
1.9305335433070865
20
0.3066903543307087
11
1.9418358267716536
21
0.2992567322834646
0
LINE
8
BLACK
6
CONTINUOUS
10
1.9418358267716536
20
0.2992567322834646
11
1.9539247244094489
21
0.2931854724409449
0
LINE
8
BLACK
6
CONTINUOUS
10
1.9539247244094489
20
0.2931854724409449
11
1.9666366535433071
21
0.2885587007874016
0
LINE
8
BLACK
6
CONTINUOUS
10
1.9666366535433071
20
0.2885587007874016
11
1.9797998031496062
21
0.2854389763779527
0
LINE
8
BLACK
6
CONTINUOUS
10
1.9797998031496062
20
0.2854389763779527
11
1.9932361023622047
21
0.2838685039370079
0
LINE
8
BLACK
6
CONTINUOUS
10
1.9932361023622047
20
0.2838685039370079
11
2.0067638976377951
21
0.2838685039370079
0
LINE
8
BLACK
6
CONTINUOUS
10
2.0067638976377951
20
0.2838685039370079
11
2.0202001968503938
21
0.2854389763779527
0
LINE
8
BLACK
6
CONTINUOUS
10
2.0202001968503938
20
0.2854389763779527
11
2.0333633464566927
21
0.2885587007874016
0
LINE
8
BLACK
6
CONTINUOUS
10
2.0333633464566927
20
0.2885587007874016
11
2.0460752755905509
21
0.2931854724409449
0
LINE
8
BLACK
6
CONTINUOUS
10
2.0460752755905509
20
0.2931854724409449
11
2.0581641732283464
21
0.2992567322834646
0
LINE
8
BLACK
6
CONTINUOUS
10
2.0581641732283464
20
0.2992567322834646
11
2.0694664566929135
21
0.3066903543307087
0
LINE
8
BLACK
6
CONTINUOUS
10
2.0694664566929135
20
0.3066903543307087
11
2.0798293307086615
21
0.3153858661417323
0
LINE
8
BLACK
6
CONTINUOUS
10
2.0798293307086615
20
0.3153858661417323
11
2.0891126377952753
21
0.3252255905511811
0
LINE
8
BLACK
6
CONTINUOUS
10
2.0891126377952753
20
0.3252255905511811
11
2.0971908661417324
21
0.3360765354330709
0
LINE
8
BLACK
6
CONTINUOUS
10
2.0971908661417324
20
0.3360765354330709
11
2.1039547637795275
21
0.347791968503937
0
LINE
8
BLACK
6
CONTINUOUS
10
2.1039547637795275
20
0.347791968503937
11
2.1093128346456691
21
0.3602133858267716
0
LINE
8
BLACK
6
CONTINUOUS
10
2.1093128346456691
20
0.3602133858267716
11
2.1131926771653542
21
0.3731728346456693
0
LINE
8
BLACK
6
CONTINUOUS
10
2.1131926771653542
20
0.3731728346456693
11
2.1155417322834644
21
0.3864951181102362
0
LINE
8
BLACK
6
CONTINUOUS
10
2.1155417322834644
20
0.3864951181102362
11
2.1163283070866141
21
0.4
0
LINE
8
BLACK
6
CONTINUOUS
10
2.1163283070866141
20
0.4
11
2.1155417322834644
21
0.4135048818897638
0
LINE
8
BLACK
6
CONTINUOUS
10
2.1155417322834644
20
0.4135048818897638
11
2.1131926771653542
21
0.4268271653543307
0
LINE
8
BLACK
6
CONTINUOUS
10
2.1131926771653542
20
0.4268271653543307
11
2.1093128346456691
21
0.4397866141732283
0
LINE
8
BLACK
6
CONTINUOUS
10
2.1093128346456691
20
0.4397866141732283
11
2.1039547637795275
21
0.452208031496063
0
LINE
8
BLACK
6
CONTINUOUS
10
2.1039547637795275
20
0.452208031496063
11
2.0971908661417324
21
0.4639234645669291
0
LINE
8
BLACK
6
CONTINUOUS
10
2.0971908661417324
20
0.4639234645669291
11
2.0891126377952753
21
0.4747744094488189
0
LINE
8
BLACK
6
CONTINUOUS
10
2.0891126377952753
20
0.4747744094488189
11
2.0798293307086615
21
0.4846141338582677
0
LINE
8
BLACK
6
CONTINUOUS
10
2.0798293307086615
20
0.4846141338582677
11
2.0694664566929135
21
0.4933096456692913
0
LINE
8
BLACK
6
CONTINUOUS
10
2.0694664566929135
20
0.4933096456692913
11
2.0581641732283464
21
0.5007432677165354
0
LINE
8
BLACK
6
CONTINUOUS
10
2.0581641732283464
20
0.5007432677165354
11
2.0460752755905509
21
0.5068145275590551
0
LINE
8
BLACK
6
CONTINUOUS
10
2.0460752755905509
20
0.5068145275590551
11
2.0333633464566927
21
0.5114412992125984
0
LINE
8
BLACK
6
CONTINUOUS
10
2.0333633464566927
20
0.5114412992125984
11
2.0202001968503938
21
0.5145610236220473
0
LINE
8
BLACK
6
CONTINUOUS
10
2.0202001968503938
20
0.5145610236220473
11
2.0067638976377951
21
0.5161314960629921
0
LINE
8
BLACK
6
CONTINUOUS
10
2.0067638976377951
20
0.5161314960629921
11
1.9932361023622047
21
0.5161314960629921
0
LINE
8
BLACK
6
CONTINUOUS
10
1.9932361023622047
20
0.5161314960629921
11
1.9797998031496062
21
0.5145610236220473
0
LINE
8
BLACK
6
CONTINUOUS
10
1.9797998031496062
20
0.5145610236220473
11
1.9666366535433071
21
0.5114412992125984
0
LINE
8
BLACK
6
CONTINUOUS
10
1.9666366535433071
20
0.5114412992125984
11
1.9539247244094489
21
0.5068145275590551
0
LINE
8
BLACK
6
CONTINUOUS
10
1.9539247244094489
20
0.5068145275590551
11
1.9418358267716536
21
0.5007432677165354
0
LINE
8
BLACK
6
CONTINUOUS
10
1.9418358267716536
20
0.5007432677165354
11
1.9305335433070865
21
0.4933096456692913
0
LINE
8
BLACK
6
CONTINUOUS
10
1.9305335433070865
20
0.4933096456692913
11
1.9201706692913385
21
0.4846141338582677
0
LINE
8
BLACK
6
CONTINUOUS
10
1.9201706692913385
20
0.4846141338582677
11
1.9108873622047244
21
0.4747744094488189
0
LINE
8
BLACK
6
CONTINUOUS
10
1.9108873622047244
20
0.4747744094488189
11
1.9028091338582678
21
0.4639234645669291
0
LINE
8
BLACK
6
CONTINUOUS
10
1.9028091338582678
20
0.4639234645669291
11
1.8960452362204725
21
0.452208031496063
0
LINE
8
BLACK
6
CONTINUOUS
10
1.8960452362204725
20
0.452208031496063
11
1.8906871653543307
21
0.4397866141732283
0
LINE
8
BLACK
6
CONTINUOUS
10
1.8906871653543307
20
0.4397866141732283
11
1.8868073228346456
21
0.4268271653543307
0
LINE
8
BLACK
6
CONTINUOUS
10
1.8868073228346456
20
0.4268271653543307
11
1.8844582677165354
21
0.4135048818897638
0
LINE
8
BLACK
6
CONTINUOUS
10
1.8844582677165354
20
0.4135048818897638
11
1.8836716929133859
21
0.4
0
LINE
8
BLACK
6
CONTINUOUS
10
1.8836716929133859
20
0.4
11
1.8844582677165354
21
0.3864951181102362
0
LINE
8
BLACK
6
CONTINUOUS
10
1.702576062992126
20
0.6188960236220472
11
1.7036404724409449
21
0.6184551181102362
0
LINE
8
BLACK
6
CONTINUOUS
10
1.7036404724409449
20
0.6184551181102362
11
1.7044551181102361
21
0.6176404724409449
0
LINE
8
BLACK
6
CONTINUOUS
10
1.7044551181102361
20
0.6176404724409449
11
1.7048960236220472
21
0.616576062992126
0
LINE
8
BLACK
6
CONTINUOUS
10
1.7048960236220472
20
0.616576062992126
11
1.7049527559055118
21
0.316
0
LINE
8
BLACK
6
CONTINUOUS
10
1.7049527559055118
20
0.316
11
1.7048960236220472
21
0.315423937007874
0
LINE
8
BLACK
6
CONTINUOUS
10
1.7048960236220472
20
0.315423937007874
11
1.7044551181102361
21
0.3143595275590551
0
LINE
8
BLACK
6
CONTINUOUS
10
1.7044551181102361
20
0.3143595275590551
11
1.7036404724409449
21
0.3135448818897638
0
LINE
8
BLACK
6
CONTINUOUS
10
1.7036404724409449
20
0.3135448818897638
11
1.702576062992126
21
0.3131039763779527
0
LINE
8
BLACK
6
CONTINUOUS
10
1.702576062992126
20
0.3131039763779527
11
1.502
21
0.3130472440944882
0
LINE
8
BLACK
6
CONTINUOUS
10
1.502
20
0.3130472440944882
11
1.5014239370078739
21
0.3131039763779527
0
LINE
8
BLACK
6
CONTINUOUS
10
1.5014239370078739
20
0.3131039763779527
11
1.5003595275590551
21
0.3135448818897638
0
LINE
8
BLACK
6
CONTINUOUS
10
1.5003595275590551
20
0.3135448818897638
11
1.4995448818897636
21
0.3143595275590551
0
LINE
8
BLACK
6
CONTINUOUS
10
1.4995448818897636
20
0.3143595275590551
11
1.4991039763779528
21
0.315423937007874
0
LINE
8
BLACK
6
CONTINUOUS
10
1.4991039763779528
20
0.315423937007874
11
1.4990472440944882
21
0.616
0
LINE
8
BLACK
6
CONTINUOUS
10
1.4990472440944882
20
0.616
11
1.4991039763779528
21
0.616576062992126
0
LINE
8
BLACK
6
CONTINUOUS
10
1.4991039763779528
20
0.616576062992126
11
1.4995448818897636
21
0.6176404724409449
0
LINE
8
BLACK
6
CONTINUOUS
10
1.4995448818897636
20
0.6176404724409449
11
1.5003595275590551
21
0.6184551181102362
0
LINE
8
BLACK
6
CONTINUOUS
10
1.5003595275590551
20
0.6184551181102362
11
1.5014239370078739
21
0.6188960236220472
0
LINE
8
BLACK
6
CONTINUOUS
10
1.5014239370078739
20
0.6188960236220472
11
1.702
21
0.6189527559055118
0
LINE
8
BLACK
6
CONTINUOUS
10
1.702
20
0.6189527559055118
11
1.702576062992126
21
0.6188960236220472
0
LINE
8
BLACK
6
CONTINUOUS
10
1.504896653543307
20
0.6130480708661418
11
1.5049522047244095
21
0.3188970472440945
0
LINE
8
BLACK
6
CONTINUOUS
10
1.5049522047244095
20
0.3188970472440945
11
1.6991033070866142
21
0.318951968503937
0
LINE
8
BLACK
6
CONTINUOUS
10
1.6991033070866142
20
0.318951968503937
11
1.6990477559055117
21
0.6131029921259843
0
LINE
8
BLACK
6
CONTINUOUS
10
1.6990477559055117
20
0.6131029921259843
11
1.504896653543307
21
0.6130480708661418
0
LINE
8
BLACK
6
CONTINUOUS
10
0.9605760629921259
20
0.6428960236220472
11
0.9616404724409449
21
0.6424551181102363
0
LINE
8
BLACK
6
CONTINUOUS
10
0.9616404724409449
20
0.6424551181102363
11
0.9624551181102362
21
0.6416404724409449
0
LINE
8
BLACK
6
CONTINUOUS
10
0.9624551181102362
20
0.6416404724409449
11
0.9628960236220472
21
0.640576062992126
0
LINE
8
BLACK
6
CONTINUOUS
10
0.9628960236220472
20
0.640576062992126
11
0.9629527559055118
21
0.34
0
LINE
8
BLACK
6
CONTINUOUS
10
0.9629527559055118
20
0.34
11
0.9628960236220472
21
0.339423937007874
0
LINE
8
BLACK
6
CONTINUOUS
10
0.9628960236220472
20
0.339423937007874
11
0.9624551181102362
21
0.3383595275590551
0
LINE
8
BLACK
6
CONTINUOUS
10
0.9624551181102362
20
0.3383595275590551
11
0.9616404724409449
21
0.3375448818897638
0
LINE
8
BLACK
6
CONTINUOUS
10
0.9616404724409449
20
0.3375448818897638
11
0.9605760629921259
21
0.3371039763779528
0
LINE
8
BLACK
6
CONTINUOUS
10
0.9605760629921259
20
0.3371039763779528
11
0.76
21
0.3370472440944882
0
LINE
8
BLACK
6
CONTINUOUS
10
0.76
20
0.3370472440944882
11
0.759423937007874
21
0.3371039763779528
0
LINE
8
BLACK
6
CONTINUOUS
10
0.759423937007874
20
0.3371039763779528
11
0.7583595275590551
21
0.3375448818897638
0
LINE
8
BLACK
6
CONTINUOUS
10
0.7583595275590551
20
0.3375448818897638
11
0.7575448818897638
21
0.3383595275590551
0
LINE
8
BLACK
6
CONTINUOUS
10
0.7575448818897638
20
0.3383595275590551
11
0.7571039763779528
21
0.339423937007874
0
LINE
8
BLACK
6
CONTINUOUS
10
0.7571039763779528
20
0.339423937007874
11
0.7570472440944882
21
0.64
0
LINE
8
BLACK
6
CONTINUOUS
10
0.7570472440944882
20
0.64
11
0.7571039763779528
21
0.640576062992126
0
LINE
8
BLACK
6
CONTINUOUS
10
0.7571039763779528
20
0.640576062992126
11
0.7575448818897638
21
0.6416404724409449
0
LINE
8
BLACK
6
CONTINUOUS
10
0.7575448818897638
20
0.6416404724409449
11
0.7583595275590551
21
0.6424551181102363
0
LINE
8
BLACK
6
CONTINUOUS
10
0.7583595275590551
20
0.6424551181102363
11
0.759423937007874
21
0.6428960236220472
0
LINE
8
BLACK
6
CONTINUOUS
10
0.759423937007874
20
0.6428960236220472
11
0.96
21
0.6429527559055118
0
LINE
8
BLACK
6
CONTINUOUS
10
0.96
20
0.6429527559055118
11
0.9605760629921259
21
0.6428960236220472
0
LINE
8
BLACK
6
CONTINUOUS
10
0.762896653543307
20
0.6370480708661417
11
0.7629522047244094
21
0.3428970472440945
0
LINE
8
BLACK
6
CONTINUOUS
10
0.7629522047244094
20
0.3428970472440945
11
0.9571033070866142
21
0.342951968503937
0
LINE
8
BLACK
6
CONTINUOUS
10
0.9571033070866142
20
0.342951968503937
11
0.9570477559055118
21
0.6371029921259842
0
LINE
8
BLACK
6
CONTINUOUS
10
0.9570477559055118
20
0.6371029921259842
11
0.762896653543307
21
0.6370480708661417
0
LINE
8
BLACK
6
CONTINUOUS
10
0.500576062992126
20
1.4028960236220471
11
0.5016404724409449
21
1.4024551181102363
0
LINE
8
BLACK
6
CONTINUOUS
10
0.5016404724409449
20
1.4024551181102363
11
0.5024551181102362
21
1.4016404724409448
0
LINE
8
BLACK
6
CONTINUOUS
10
0.5024551181102362
20
1.4016404724409448
11
0.5028960236220472
21
1.400576062992126
0
LINE
8
BLACK
6
CONTINUOUS
10
0.5028960236220472
20
1.400576062992126
11
0.5029527559055118
21
1.3
0
LINE
8
BLACK
6
CONTINUOUS
10
0.5029527559055118
20
1.3
11
0.502896653543307
21
1.2994305118110236
0
LINE
8
BLACK
6
CONTINUOUS
10
0.502896653543307
20
1.2994305118110236
11
0.5029527559055118
21
1.2
0
LINE
8
BLACK
6
CONTINUOUS
10
0.5029527559055118
20
1.2
11
0.502896653543307
21
1.1994305118110236
0
LINE
8
BLACK
6
CONTINUOUS
10
0.502896653543307
20
1.1994305118110236
11
0.5029527559055118
21
1.0999999999999999
0
LINE
8
BLACK
6
CONTINUOUS
10
0.5029527559055118
20
1.0999999999999999
11
0.502896653543307
21
1.0994305118110237
0
LINE
8
BLACK
6
CONTINUOUS
10
0.502896653543307
20
1.0994305118110237
11
0.5029527559055118
21
1.
0
LINE
8
BLACK
6
CONTINUOUS
10
0.5029527559055118
20
1.
11
0.502896653543307
21
0.9994305118110236
0
LINE
8
BLACK
6
CONTINUOUS
10
0.502896653543307
20
0.9994305118110236
11
0.5029527559055118
21
0.9
0
LINE
8
BLACK
6
CONTINUOUS
10
0.5029527559055118
20
0.9
11
0.502896653543307
21
0.8994305118110236
0
LINE
8
BLACK
6
CONTINUOUS
10
0.502896653543307
20
0.8994305118110236
11
0.5029527559055118
21
0.7999999999999999
0
LINE
8
BLACK
6
CONTINUOUS
10
0.5029527559055118
20
0.7999999999999999
11
0.502896653543307
21
0.7994305118110236
0
LINE
8
BLACK
6
CONTINUOUS
10
0.502896653543307
20
0.7994305118110236
11
0.5029527559055118
21
0.7
0
LINE
8
BLACK
6
CONTINUOUS
10
0.5029527559055118
20
0.7
11
0.502896653543307
21
0.6994305118110236
0
LINE
8
BLACK
6
CONTINUOUS
10
0.502896653543307
20
0.6994305118110236
11
0.5029527559055118
21
0.6
0
LINE
8
BLACK
6
CONTINUOUS
10
0.5029527559055118
20
0.6
11
0.5028960236220472
21
0.599423937007874
0
LINE
8
BLACK
6
CONTINUOUS
10
0.5028960236220472
20
0.599423937007874
11
0.5024551181102362
21
0.5983595275590551
0
LINE
8
BLACK
6
CONTINUOUS
10
0.5024551181102362
20
0.5983595275590551
11
0.5016404724409449
21
0.5975448818897637
0
LINE
8
BLACK
6
CONTINUOUS
10
0.5016404724409449
20
0.5975448818897637
11
0.500576062992126
21
0.5971039763779528
0
LINE
8
BLACK
6
CONTINUOUS
10
0.500576062992126
20
0.5971039763779528
11
0.3
21
0.5970472440944882
0
LINE
8
BLACK
6
CONTINUOUS
10
0.3
20
0.5970472440944882
11
0.299423937007874
21
0.5971039763779528
0
LINE
8
BLACK
6
CONTINUOUS
10
0.299423937007874
20
0.5971039763779528
11
0.2983595275590551
21
0.5975448818897637
0
LINE
8
BLACK
6
CONTINUOUS
10
0.2983595275590551
20
0.5975448818897637
11
0.2975448818897637
21
0.5983595275590551
0
LINE
8
BLACK
6
CONTINUOUS
10
0.2975448818897637
20
0.5983595275590551
11
0.2971039763779528
21
0.599423937007874
0
LINE
8
BLACK
6
CONTINUOUS
10
0.2971039763779528
20
0.599423937007874
11
0.2970472440944882
21
0.7
0
LINE
8
BLACK
6
CONTINUOUS
10
0.2970472440944882
20
0.7
11
0.2971033070866141
21
0.7005695275590551
0
LINE
8
BLACK
6
CONTINUOUS
10
0.2971033070866141
20
0.7005695275590551
11
0.2970472440944882
21
0.7999999999999999
0
LINE
8
BLACK
6
CONTINUOUS
10
0.2970472440944882
20
0.7999999999999999
11
0.2971033070866141
21
0.8005695275590551
0
LINE
8
BLACK
6
CONTINUOUS
10
0.2971033070866141
20
0.8005695275590551
11
0.2970472440944882
21
0.9
0
LINE
8
BLACK
6
CONTINUOUS
10
0.2970472440944882
20
0.9
11
0.2971033070866141
21
0.9005695275590551
0
LINE
8
BLACK
6
CONTINUOUS
10
0.2971033070866141
20
0.9005695275590551
11
0.2970472440944882
21
1.
0
LINE
8
BLACK
6
CONTINUOUS
10
0.2970472440944882
20
1.
11
0.2971033070866141
21
1.0005695275590551
0
LINE
8
BLACK
6
CONTINUOUS
10
0.2971033070866141
20
1.0005695275590551
11
0.2970472440944882
21
1.0999999999999999
0
LINE
8
BLACK
6
CONTINUOUS
10
0.2970472440944882
20
1.0999999999999999
11
0.2971033070866141
21
1.100569527559055
0
LINE
8
BLACK
6
CONTINUOUS
10
0.2971033070866141
20
1.100569527559055
11
0.2970472440944882
21
1.2
0
LINE
8
BLACK
6
CONTINUOUS
10
0.2970472440944882
20
1.2
11
0.2971033070866141
21
1.2005695275590551
0
LINE
8
BLACK
6
CONTINUOUS
10
0.2971033070866141
20
1.2005695275590551
11
0.2970472440944882
21
1.3
0
LINE
8
BLACK
6
CONTINUOUS
10
0.2970472440944882
20
1.3
11
0.2971033070866141
21
1.3005695275590552
0
LINE
8
BLACK
6
CONTINUOUS
10
0.2971033070866141
20
1.3005695275590552
11
0.2970472440944882
21
1.3999999999999999
0
LINE
8
BLACK
6
CONTINUOUS
10
0.2970472440944882
20
1.3999999999999999
11
0.2971039763779528
21
1.400576062992126
0
LINE
8
BLACK
6
CONTINUOUS
10
0.2971039763779528
20
1.400576062992126
11
0.2975448818897637
21
1.4016404724409448
0
LINE
8
BLACK
6
CONTINUOUS
10
0.2975448818897637
20
1.4016404724409448
11
0.2983595275590551
21
1.4024551181102363
0
LINE
8
BLACK
6
CONTINUOUS
10
0.2983595275590551
20
1.4024551181102363
11
0.299423937007874
21
1.4028960236220471
0
LINE
8
BLACK
6
CONTINUOUS
10
0.299423937007874
20
1.4028960236220471
11
0.5
21
1.4029527559055117
0
LINE
8
BLACK
6
CONTINUOUS
10
0.5
20
1.4029527559055117
11
0.500576062992126
21
1.4028960236220471
0
LINE
8
BLACK
6
CONTINUOUS
10
0.3028979921259842
20
0.6970480708661417
11
0.3029511023622047
21
0.6028970472440944
0
LINE
8
BLACK
6
CONTINUOUS
10
0.3029511023622047
20
0.6028970472440944
11
0.497101968503937
21
0.602951968503937
0
LINE
8
BLACK
6
CONTINUOUS
10
0.497101968503937
20
0.602951968503937
11
0.4970488582677165
21
0.6971029921259843
0
LINE
8
BLACK
6
CONTINUOUS
10
0.4970488582677165
20
0.6971029921259843
11
0.3028979921259842
21
0.6970480708661417
0
LINE
8
BLACK
6
CONTINUOUS
10
0.3028979921259842
20
0.7970480708661417
11
0.3029511023622047
21
0.7028970472440945
0
LINE
8
BLACK
6
CONTINUOUS
10
0.3029511023622047
20
0.7028970472440945
11
0.497101968503937
21
0.702951968503937
0
LINE
8
BLACK
6
CONTINUOUS
10
0.497101968503937
20
0.702951968503937
11
0.4970488582677165
21
0.7971029921259842
0
LINE
8
BLACK
6
CONTINUOUS
10
0.4970488582677165
20
0.7971029921259842
11
0.3028979921259842
21
0.7970480708661417
0
LINE
8
BLACK
6
CONTINUOUS
10
0.3028979921259842
20
0.8970480708661417
11
0.3029511023622047
21
0.8028970472440945
0
LINE
8
BLACK
6
CONTINUOUS
10
0.3029511023622047
20
0.8028970472440945
11
0.497101968503937
21
0.802951968503937
0
LINE
8
BLACK
6
CONTINUOUS
10
0.497101968503937
20
0.802951968503937
11
0.4970488582677165
21
0.8971029921259842
0
LINE
8
BLACK
6
CONTINUOUS
10
0.4970488582677165
20
0.8971029921259842
11
0.3028979921259842
21
0.8970480708661417
0
LINE
8
BLACK
6
CONTINUOUS
10
0.3028979921259842
20
0.9970480708661417
11
0.3029511023622047
21
0.9028970472440945
0
LINE
8
BLACK
6
CONTINUOUS
10
0.3029511023622047
20
0.9028970472440945
11
0.497101968503937
21
0.902951968503937
0
LINE
8
BLACK
6
CONTINUOUS
10
0.497101968503937
20
0.902951968503937
11
0.4970488582677165
21
0.9971029921259842
0
LINE
8
BLACK
6
CONTINUOUS
10
0.4970488582677165
20
0.9971029921259842
11
0.3028979921259842
21
0.9970480708661417
0
LINE
8
BLACK
6
CONTINUOUS
10
0.3028979921259842
20
1.0970480708661416
11
0.3029511023622047
21
1.0028970472440946
0
LINE
8
BLACK
6
CONTINUOUS
10
0.3029511023622047
20
1.0028970472440946
11
0.497101968503937
21
1.002951968503937
0
LINE
8
BLACK
6
CONTINUOUS
10
0.497101968503937
20
1.002951968503937
11
0.4970488582677165
21
1.0971029921259843
0
LINE
8
BLACK
6
CONTINUOUS
10
0.4970488582677165
20
1.0971029921259843
11
0.3028979921259842
21
1.0970480708661416
0
LINE
8
BLACK
6
CONTINUOUS
10
0.3028979921259842
20
1.1970480708661417
11
0.3029511023622047
21
1.1028970472440944
0
LINE
8
BLACK
6
CONTINUOUS
10
0.3029511023622047
20
1.1028970472440944
11
0.497101968503937
21
1.1029519685039371
0
LINE
8
BLACK
6
CONTINUOUS
10
0.497101968503937
20
1.1029519685039371
11
0.4970488582677165
21
1.1971029921259841
0
LINE
8
BLACK
6
CONTINUOUS
10
0.4970488582677165
20
1.1971029921259841
11
0.3028979921259842
21
1.1970480708661417
0
LINE
8
BLACK
6
CONTINUOUS
10
0.3028979921259842
20
1.2970480708661416
11
0.3029511023622047
21
1.2028970472440945
0
LINE
8
BLACK
6
CONTINUOUS
10
0.3029511023622047
20
1.2028970472440945
11
0.497101968503937
21
1.2029519685039369
0
LINE
8
BLACK
6
CONTINUOUS
10
0.497101968503937
20
1.2029519685039369
11
0.4970488582677165
21
1.2971029921259842
0
LINE
8
BLACK
6
CONTINUOUS
10
0.4970488582677165
20
1.2971029921259842
11
0.3028979921259842
21
1.2970480708661416
0
LINE
8
BLACK
6
CONTINUOUS
10
0.3028979921259842
20
1.3970480708661417
11
0.3029511023622047
21
1.3028970472440944
0
LINE
8
BLACK
6
CONTINUOUS
10
0.3029511023622047
20
1.3028970472440944
11
0.497101968503937
21
1.302951968503937
0
LINE
8
BLACK
6
CONTINUOUS
10
0.497101968503937
20
1.302951968503937
11
0.4970488582677165
21
1.3971029921259843
0
LINE
8
BLACK
6
CONTINUOUS
10
0.4970488582677165
20
1.3971029921259843
11
0.3028979921259842
21
1.3970480708661417
0
LINE
8
BLACK
6
CONTINUOUS
10
1.984581968503937
20
0.8546041338582677
11
1.9853966141732282
21
0.8537894881889764
0
LINE
8
BLACK
6
CONTINUOUS
10
1.9853966141732282
20
0.8537894881889764
11
1.9858375196850393
21
0.8527250787401575
0
LINE
8
BLACK
6
CONTINUOUS
10
1.9858375196850393
20
0.8527250787401575
11
1.9858942519685039
21
0.8164347244094488
0
LINE
8
BLACK
6
CONTINUOUS
10
1.9858942519685039
20
0.8164347244094488
11
1.9858655118110236
21
0.8161431496062992
0
LINE
8
BLACK
6
CONTINUOUS
10
1.9858655118110236
20
0.8161431496062992
11
1.9858710629921259
21
0.8160653937007873
0
LINE
8
BLACK
6
CONTINUOUS
10
1.9858710629921259
20
0.8160653937007873
11
1.9858521259842519
21
0.8160073622047244
0
LINE
8
BLACK
6
CONTINUOUS
10
1.9858521259842519
20
0.8160073622047244
11
1.9858375196850393
21
0.8158586614173228
0
LINE
8
BLACK
6
CONTINUOUS
10
1.9858375196850393
20
0.8158586614173228
11
1.9856797244094488
21
0.8154777952755905
0
LINE
8
BLACK
6
CONTINUOUS
10
1.9856797244094488
20
0.8154777952755905
11
1.9833617322834645
21
0.8083581496062991
0
LINE
8
BLACK
6
CONTINUOUS
10
1.9833617322834645
20
0.8083581496062991
11
1.9831257480314961
21
0.8078295669291339
0
LINE
8
BLACK
6
CONTINUOUS
10
1.9831257480314961
20
0.8078295669291339
11
1.9830562204724409
21
0.8077494488188977
0
LINE
8
BLACK
6
CONTINUOUS
10
1.9830562204724409
20
0.8077494488188977
11
1.9830156692913385
21
0.8076514566929134
0
LINE
8
BLACK
6
CONTINUOUS
10
1.9830156692913385
20
0.8076514566929134
11
1.9826428346456693
21
0.8072728346456692
0
LINE
8
BLACK
6
CONTINUOUS
10
1.9826428346456693
20
0.8072728346456692
11
1.9823708661417323
21
0.8069592125984252
0
LINE
8
BLACK
6
CONTINUOUS
10
1.9823708661417323
20
0.8069592125984252
11
1.9822984251968503
21
0.8069230314960629
0
LINE
8
BLACK
6
CONTINUOUS
10
1.9822984251968503
20
0.8069230314960629
11
1.9778865354330708
21
0.8024420472440945
0
LINE
8
BLACK
6
CONTINUOUS
10
1.9778865354330708
20
0.8024420472440945
11
1.977439094488189
21
0.802074842519685
0
LINE
8
BLACK
6
CONTINUOUS
10
1.977439094488189
20
0.802074842519685
11
1.9773411023622047
21
0.8020342913385826
0
LINE
8
BLACK
6
CONTINUOUS
10
1.9773411023622047
20
0.8020342913385826
11
1.9772609448818896
21
0.8019647244094488
0
LINE
8
BLACK
6
CONTINUOUS
10
1.9772609448818896
20
0.8019647244094488
11
1.9767640157480315
21
0.8017952362204724
0
LINE
8
BLACK
6
CONTINUOUS
10
1.9767640157480315
20
0.8017952362204724
11
1.97637468503937
21
0.801633937007874
0
LINE
8
BLACK
6
CONTINUOUS
10
1.97637468503937
20
0.801633937007874
11
1.9762912598425197
21
0.801633937007874
0
LINE
8
BLACK
6
CONTINUOUS
10
1.9762912598425197
20
0.801633937007874
11
1.9695894881889764
21
0.7993477952755905
0
LINE
8
BLACK
6
CONTINUOUS
10
1.9695894881889764
20
0.7993477952755905
11
1.9693038976377952
21
0.799282874015748
0
LINE
8
BLACK
6
CONTINUOUS
10
1.9693038976377952
20
0.799282874015748
11
1.969231811023622
21
0.7992529921259842
0
LINE
8
BLACK
6
CONTINUOUS
10
1.969231811023622
20
0.7992529921259842
11
1.9691696456692913
21
0.7992523622047244
0
LINE
8
BLACK
6
CONTINUOUS
10
1.9691696456692913
20
0.7992523622047244
11
1.9690250393700788
21
0.7992194488188976
0
LINE
8
BLACK
6
CONTINUOUS
10
1.9690250393700788
20
0.7992194488188976
11
1.9686414173228346
21
0.7992467322834645
0
LINE
8
BLACK
6
CONTINUOUS
10
1.9686414173228346
20
0.7992467322834645
11
1.9638938582677166
21
0.7991962598425196
0
LINE
8
BLACK
6
CONTINUOUS
10
1.9638938582677166
20
0.7991962598425196
11
1.9633177952755905
21
0.7992529921259842
0
LINE
8
BLACK
6
CONTINUOUS
10
1.9633177952755905
20
0.7992529921259842
11
1.9622533858267717
21
0.7996938976377953
0
LINE
8
BLACK
6
CONTINUOUS
10
1.9622533858267717
20
0.7996938976377953
11
1.9614387401574802
21
0.8005085433070867
0
LINE
8
BLACK
6
CONTINUOUS
10
1.9614387401574802
20
0.8005085433070867
11
1.9609978346456693
21
0.8015729527559055
0
LINE
8
BLACK
6
CONTINUOUS
10
1.9609978346456693
20
0.8015729527559055
11
1.9609978346456693
21
0.8027250787401574
0
LINE
8
BLACK
6
CONTINUOUS
10
1.9609978346456693
20
0.8027250787401574
11
1.9614387401574802
21
0.8037894881889763
0
LINE
8
BLACK
6
CONTINUOUS
10
1.9614387401574802
20
0.8037894881889763
11
1.9622533858267717
21
0.8046041338582677
0
LINE
8
BLACK
6
CONTINUOUS
10
1.9622533858267717
20
0.8046041338582677
11
1.9633177952755905
21
0.8050450393700788
0
LINE
8
BLACK
6
CONTINUOUS
10
1.9633177952755905
20
0.8050450393700788
11
1.968318937007874
21
0.8050982283464567
0
LINE
8
BLACK
6
CONTINUOUS
10
1.968318937007874
20
0.8050982283464567
11
1.9742949212598424
21
0.8071367716535433
0
LINE
8
BLACK
6
CONTINUOUS
10
1.9742949212598424
20
0.8071367716535433
11
1.9780511023622047
21
0.8109517322834645
0
LINE
8
BLACK
6
CONTINUOUS
10
1.9780511023622047
20
0.8109517322834645
11
1.9800435433070867
21
0.8170714960629921
0
LINE
8
BLACK
6
CONTINUOUS
10
1.9800435433070867
20
0.8170714960629921
11
1.9799887401574803
21
0.8521490157480315
0
LINE
8
BLACK
6
CONTINUOUS
10
1.9799887401574803
20
0.8521490157480315
11
1.9800454724409449
21
0.8527250787401575
0
LINE
8
BLACK
6
CONTINUOUS
10
1.9800454724409449
20
0.8527250787401575
11
1.9804863779527559
21
0.8537894881889764
0
LINE
8
BLACK
6
CONTINUOUS
10
1.9804863779527559
20
0.8537894881889764
11
1.9813010236220472
21
0.8546041338582677
0
LINE
8
BLACK
6
CONTINUOUS
10
1.9813010236220472
20
0.8546041338582677
11
1.982365433070866
21
0.8550450393700787
0
LINE
8
BLACK
6
CONTINUOUS
10
1.982365433070866
20
0.8550450393700787
11
1.9835175590551182
21
0.8550450393700787
0
LINE
8
BLACK
6
CONTINUOUS
10
1.9835175590551182
20
0.8550450393700787
11
1.984581968503937
21
0.8546041338582677
0
LINE
8
BLACK
6
CONTINUOUS
10
2.0239937401574801
20
0.8550450393700787
11
2.0240917322834644
21
0.8550044488188976
0
LINE
8
BLACK
6
CONTINUOUS
10
2.0240917322834644
20
0.8550044488188976
11
2.0241975590551182
21
0.8549969291338583
0
LINE
8
BLACK
6
CONTINUOUS
10
2.0241975590551182
20
0.8549969291338583
11
2.0246895669291338
21
0.854756811023622
0
LINE
8
BLACK
6
CONTINUOUS
10
2.0246895669291338
20
0.854756811023622
11
2.0250581496062994
21
0.8546041338582677
0
LINE
8
BLACK
6
CONTINUOUS
10
2.0250581496062994
20
0.8546041338582677
11
2.0251112598425198
21
0.8545510236220473
0
LINE
8
BLACK
6
CONTINUOUS
10
2.0251112598425198
20
0.8545510236220473
11
2.0295000787401576
21
0.8524090944881889
0
LINE
8
BLACK
6
CONTINUOUS
10
2.0295000787401576
20
0.8524090944881889
11
2.029747992125984
21
0.852253031496063
0
LINE
8
BLACK
6
CONTINUOUS
10
2.029747992125984
20
0.852253031496063
11
2.0298200393700787
21
0.8522231889763779
0
LINE
8
BLACK
6
CONTINUOUS
10
2.0298200393700787
20
0.8522231889763779
11
2.0298653149606301
21
0.8521791732283465
0
LINE
8
BLACK
6
CONTINUOUS
10
2.0298653149606301
20
0.8521791732283465
11
2.0299899212598427
21
0.852100748031496
0
LINE
8
BLACK
6
CONTINUOUS
10
2.0299899212598427
20
0.852100748031496
11
2.0302248818897639
21
0.851829842519685
0
LINE
8
BLACK
6
CONTINUOUS
10
2.0302248818897639
20
0.851829842519685
11
2.0326484251968502
21
0.8494750393700787
0
LINE
8
BLACK
6
CONTINUOUS
10
2.0326484251968502
20
0.8494750393700787
11
2.0328342519685041
21
0.8492485826771653
0
LINE
8
BLACK
6
CONTINUOUS
10
2.0328342519685041
20
0.8492485826771653
11
2.032893149606299
21
0.8491975196850393
0
LINE
8
BLACK
6
CONTINUOUS
10
2.032893149606299
20
0.8491975196850393
11
2.0329212992125982
21
0.849142559055118
0
LINE
8
BLACK
6
CONTINUOUS
10
2.0329212992125982
20
0.849142559055118
11
2.0330156299212598
21
0.8490275984251968
0
LINE
8
BLACK
6
CONTINUOUS
10
2.0330156299212598
20
0.8490275984251968
11
2.0331657086614174
21
0.8486652755905512
0
LINE
8
BLACK
6
CONTINUOUS
10
2.0331657086614174
20
0.8486652755905512
11
2.0355825196850392
21
0.843945748031496
0
LINE
8
BLACK
6
CONTINUOUS
10
2.0355825196850392
20
0.843945748031496
11
2.0357894094488187
21
0.843405157480315
0
LINE
8
BLACK
6
CONTINUOUS
10
2.0357894094488187
20
0.843405157480315
11
2.0357969291338582
21
0.8432992913385826
0
LINE
8
BLACK
6
CONTINUOUS
10
2.0357969291338582
20
0.8432992913385826
11
2.0358375196850393
21
0.8432012992125985
0
LINE
8
BLACK
6
CONTINUOUS
10
2.0358375196850393
20
0.8432012992125985
11
2.0358434251968505
21
0.8426448031496063
0
LINE
8
BLACK
6
CONTINUOUS
10
2.0358434251968505
20
0.8426448031496063
11
2.0358710629921259
21
0.8422559448818897
0
LINE
8
BLACK
6
CONTINUOUS
10
2.0358710629921259
20
0.8422559448818897
11
2.0358482677165353
21
0.8421876377952756
0
LINE
8
BLACK
6
CONTINUOUS
10
2.0358482677165353
20
0.8421876377952756
11
2.0358942519685037
21
0.8378633070866142
0
LINE
8
BLACK
6
CONTINUOUS
10
2.0358942519685037
20
0.8378633070866142
11
2.0358655118110236
21
0.8375717322834646
0
LINE
8
BLACK
6
CONTINUOUS
10
2.0358655118110236
20
0.8375717322834646
11
2.0358710629921259
21
0.8374939763779528
0
LINE
8
BLACK
6
CONTINUOUS
10
2.0358710629921259
20
0.8374939763779528
11
2.0358521259842521
21
0.8374359448818898
0
LINE
8
BLACK
6
CONTINUOUS
10
2.0358521259842521
20
0.8374359448818898
11
2.0358375196850393
21
0.8372872440944882
0
LINE
8
BLACK
6
CONTINUOUS
10
2.0358375196850393
20
0.8372872440944882
11
2.0356797244094489
21
0.8369063779527559
0
LINE
8
BLACK
6
CONTINUOUS
10
2.0356797244094489
20
0.8369063779527559
11
2.0333617322834647
21
0.8297867322834646
0
LINE
8
BLACK
6
CONTINUOUS
10
2.0333617322834647
20
0.8297867322834646
11
2.0331257480314959
21
0.8292581496062992
0
LINE
8
BLACK
6
CONTINUOUS
10
2.0331257480314959
20
0.8292581496062992
11
2.0330561811023622
21
0.8291779921259842
0
LINE
8
BLACK
6
CONTINUOUS
10
2.0330561811023622
20
0.8291779921259842
11
2.0330156299212598
21
0.8290799999999999
0
LINE
8
BLACK
6
CONTINUOUS
10
2.0330156299212598
20
0.8290799999999999
11
2.0326748031496065
21
0.8287382677165354
0
LINE
8
BLACK
6
CONTINUOUS
10
2.0326748031496065
20
0.8287382677165354
11
2.0323708661417323
21
0.8283877952755905
0
LINE
8
BLACK
6
CONTINUOUS
10
2.0323708661417323
20
0.8283877952755905
11
2.0322800393700788
21
0.8283424015748031
0
LINE
8
BLACK
6
CONTINUOUS
10
2.0322800393700788
20
0.8283424015748031
11
2.0090608661417324
21
0.8050588188976378
0
LINE
8
BLACK
6
CONTINUOUS
10
2.0090608661417324
20
0.8050588188976378
11
2.0329414960629921
21
0.8051017716535432
0
LINE
8
BLACK
6
CONTINUOUS
10
2.0329414960629921
20
0.8051017716535432
11
2.033517559055118
21
0.8050450393700788
0
LINE
8
BLACK
6
CONTINUOUS
10
2.033517559055118
20
0.8050450393700788
11
2.0345819685039368
21
0.8046041338582677
0
LINE
8
BLACK
6
CONTINUOUS
10
2.0345819685039368
20
0.8046041338582677
11
2.0353966141732283
21
0.8037894881889763
0
LINE
8
BLACK
6
CONTINUOUS
10
2.0353966141732283
20
0.8037894881889763
11
2.0358375196850393
21
0.8027250787401574
0
LINE
8
BLACK
6
CONTINUOUS
10
2.0358375196850393
20
0.8027250787401574
11
2.0358375196850393
21
0.8015729527559055
0
LINE
8
BLACK
6
CONTINUOUS
10
2.0358375196850393
20
0.8015729527559055
11
2.0353966141732283
21
0.8005085433070867
0
LINE
8
BLACK
6
CONTINUOUS
10
2.0353966141732283
20
0.8005085433070867
11
2.0345819685039368
21
0.7996938976377953
0
LINE
8
BLACK
6
CONTINUOUS
10
2.0345819685039368
20
0.7996938976377953
11
2.033517559055118
21
0.7992529921259842
0
LINE
8
BLACK
6
CONTINUOUS
10
2.033517559055118
20
0.7992529921259842
11
2.0019890944881888
21
0.7991962598425196
0
LINE
8
BLACK
6
CONTINUOUS
10
2.0019890944881888
20
0.7991962598425196
11
2.001413031496063
21
0.7992529921259842
0
LINE
8
BLACK
6
CONTINUOUS
10
2.001413031496063
20
0.7992529921259842
11
2.0003486220472442
21
0.7996938976377953
0
LINE
8
BLACK
6
CONTINUOUS
10
2.0003486220472442
20
0.7996938976377953
11
1.9995339763779527
21
0.8005085433070867
0
LINE
8
BLACK
6
CONTINUOUS
10
1.9995339763779527
20
0.8005085433070867
11
1.9990930708661416
21
0.8015729527559055
0
LINE
8
BLACK
6
CONTINUOUS
10
1.9990930708661416
20
0.8015729527559055
11
1.9990930708661416
21
0.8027250787401574
0
LINE
8
BLACK
6
CONTINUOUS
10
1.9990930708661416
20
0.8027250787401574
11
1.9995339763779527
21
0.8037894881889763
0
LINE
8
BLACK
6
CONTINUOUS
10
1.9995339763779527
20
0.8037894881889763
11
2.0280537007874013
21
0.8323883858267717
0
LINE
8
BLACK
6
CONTINUOUS
10
2.0280537007874013
20
0.8323883858267717
11
2.0300329133858268
21
0.8384673622047244
0
LINE
8
BLACK
6
CONTINUOUS
10
2.0300329133858268
20
0.8384673622047244
11
2.0299952362204725
21
0.8420131102362205
0
LINE
8
BLACK
6
CONTINUOUS
10
2.0299952362204725
20
0.8420131102362205
11
2.0280850393700787
21
0.8457433464566929
0
LINE
8
BLACK
6
CONTINUOUS
10
2.0280850393700787
20
0.8457433464566929
11
2.0263431889763779
21
0.8474357874015748
0
LINE
8
BLACK
6
CONTINUOUS
10
2.0263431889763779
20
0.8474357874015748
11
2.0226323228346454
21
0.849246811023622
0
LINE
8
BLACK
6
CONTINUOUS
10
2.0226323228346454
20
0.849246811023622
11
2.0121177165354331
21
0.8491990157480315
0
LINE
8
BLACK
6
CONTINUOUS
10
2.0121177165354331
20
0.8491990157480315
11
2.0083947637795276
21
0.8472925984251969
0
LINE
8
BLACK
6
CONTINUOUS
10
2.0083947637795276
20
0.8472925984251969
11
2.0064579527559054
21
0.8452992125984252
0
LINE
8
BLACK
6
CONTINUOUS
10
2.0064579527559054
20
0.8452992125984252
11
2.0060105118110236
21
0.8449320078740157
0
LINE
8
BLACK
6
CONTINUOUS
10
2.0060105118110236
20
0.8449320078740157
11
2.0049460629921261
21
0.8444911023622047
0
LINE
8
BLACK
6
CONTINUOUS
10
2.0049460629921261
20
0.8444911023622047
11
2.0037940157480314
21
0.8444911023622047
0
LINE
8
BLACK
6
CONTINUOUS
10
2.0037940157480314
20
0.8444911023622047
11
2.0027295669291338
21
0.8449320078740157
0
LINE
8
BLACK
6
CONTINUOUS
10
2.0027295669291338
20
0.8449320078740157
11
2.0019149212598424
21
0.845746653543307
0
LINE
8
BLACK
6
CONTINUOUS
10
2.0019149212598424
20
0.845746653543307
11
2.0014740157480313
21
0.8468111023622047
0
LINE
8
BLACK
6
CONTINUOUS
10
2.0014740157480313
20
0.8468111023622047
11
2.0014740157480313
21
0.8479631496062991
0
LINE
8
BLACK
6
CONTINUOUS
10
2.0014740157480313
20
0.8479631496062991
11
2.0019149212598424
21
0.8490275984251968
0
LINE
8
BLACK
6
CONTINUOUS
10
2.0019149212598424
20
0.8490275984251968
11
2.0046630708661417
21
0.8518559842519685
0
LINE
8
BLACK
6
CONTINUOUS
10
2.0046630708661417
20
0.8518559842519685
11
2.0048894094488188
21
0.8520417716535433
0
LINE
8
BLACK
6
CONTINUOUS
10
2.0048894094488188
20
0.8520417716535433
11
2.0049405905511812
21
0.852100748031496
0
LINE
8
BLACK
6
CONTINUOUS
10
2.0049405905511812
20
0.852100748031496
11
2.0049956692913384
21
0.8521289763779527
0
LINE
8
BLACK
6
CONTINUOUS
10
2.0049956692913384
20
0.8521289763779527
11
2.0051105118110235
21
0.8522231889763779
0
LINE
8
BLACK
6
CONTINUOUS
10
2.0051105118110235
20
0.8522231889763779
11
2.0054725196850391
21
0.8523731889763779
0
LINE
8
BLACK
6
CONTINUOUS
10
2.0054725196850391
20
0.8523731889763779
11
2.0101924015748032
21
0.8547900393700787
0
LINE
8
BLACK
6
CONTINUOUS
10
2.0101924015748032
20
0.8547900393700787
11
2.0107330314960628
21
0.8549969291338583
0
LINE
8
BLACK
6
CONTINUOUS
10
2.0107330314960628
20
0.8549969291338583
11
2.0108388188976378
21
0.8550044488188976
0
LINE
8
BLACK
6
CONTINUOUS
10
2.0108388188976378
20
0.8550044488188976
11
2.0109368503937008
21
0.8550450393700787
0
LINE
8
BLACK
6
CONTINUOUS
10
2.0109368503937008
20
0.8550450393700787
11
2.0114424803149604
21
0.8550473622047244
0
LINE
8
BLACK
6
CONTINUOUS
10
2.0114424803149604
20
0.8550473622047244
11
2.0118822440944881
21
0.8550785826771653
0
LINE
8
BLACK
6
CONTINUOUS
10
2.0118822440944881
20
0.8550785826771653
11
2.0119687795275589
21
0.8550497637795276
0
LINE
8
BLACK
6
CONTINUOUS
10
2.0119687795275589
20
0.8550497637795276
11
2.0234176771653543
21
0.8551017716535433
0
LINE
8
BLACK
6
CONTINUOUS
10
2.0234176771653543
20
0.8551017716535433
11
2.0239937401574801
21
0.8550450393700787
0
LINE
8
BLACK
6
CONTINUOUS
10
2.0111077952755907
20
0.9123214566929133
11
2.0224107086614174
21
0.9100731889763779
0
LINE
8
BLACK
6
CONTINUOUS
10
2.0224107086614174
20
0.9100731889763779
11
2.0333234645669291
21
0.9063688188976378
0
LINE
8
BLACK
6
CONTINUOUS
10
2.0333234645669291
20
0.9063688188976378
11
2.0436593307086612
21
0.9012717322834646
0
LINE
8
BLACK
6
CONTINUOUS
10
2.0436593307086612
20
0.9012717322834646
11
2.0532414566929131
21
0.8948691338582677
0
LINE
8
BLACK
6
CONTINUOUS
10
2.0532414566929131
20
0.8948691338582677
11
2.0619059055118112
21
0.8872706299212598
0
LINE
8
BLACK
6
CONTINUOUS
10
2.0619059055118112
20
0.8872706299212598
11
2.0695044094488186
21
0.8786061811023622
0
LINE
8
BLACK
6
CONTINUOUS
10
2.0695044094488186
20
0.8786061811023622
11
2.0759070078740156
21
0.8690240157480315
0
LINE
8
BLACK
6
CONTINUOUS
10
2.0759070078740156
20
0.8690240157480315
11
2.0810040944881889
21
0.8586881889763779
0
LINE
8
BLACK
6
CONTINUOUS
10
2.0810040944881889
20
0.8586881889763779
11
2.0847084645669289
21
0.8477754330708661
0
LINE
8
BLACK
6
CONTINUOUS
10
2.0847084645669289
20
0.8477754330708661
11
2.0869567322834643
21
0.8364725196850393
0
LINE
8
BLACK
6
CONTINUOUS
10
2.0869567322834643
20
0.8364725196850393
11
2.087710472440945
21
0.824972874015748
0
LINE
8
BLACK
6
CONTINUOUS
10
2.087710472440945
20
0.824972874015748
11
2.0869567322834643
21
0.8134732283464566
0
LINE
8
BLACK
6
CONTINUOUS
10
2.0869567322834643
20
0.8134732283464566
11
2.0847084645669289
21
0.8021703149606298
0
LINE
8
BLACK
6
CONTINUOUS
10
2.0847084645669289
20
0.8021703149606298
11
2.0810040944881889
21
0.7912575590551181
0
LINE
8
BLACK
6
CONTINUOUS
10
2.0810040944881889
20
0.7912575590551181
11
2.0759070078740156
21
0.7809216929133858
0
LINE
8
BLACK
6
CONTINUOUS
10
2.0759070078740156
20
0.7809216929133858
11
2.0695044094488186
21
0.7713395669291339
0
LINE
8
BLACK
6
CONTINUOUS
10
2.0695044094488186
20
0.7713395669291339
11
2.0619059055118112
21
0.7626751181102362
0
LINE
8
BLACK
6
CONTINUOUS
10
2.0619059055118112
20
0.7626751181102362
11
2.0532414566929131
21
0.7550766141732284
0
LINE
8
BLACK
6
CONTINUOUS
10
2.0532414566929131
20
0.7550766141732284
11
2.0436593307086612
21
0.7486740157480315
0
LINE
8
BLACK
6
CONTINUOUS
10
2.0436593307086612
20
0.7486740157480315
11
2.0333234645669291
21
0.7435769291338582
0
LINE
8
BLACK
6
CONTINUOUS
10
2.0333234645669291
20
0.7435769291338582
11
2.0224107086614174
21
0.7398725590551181
0
LINE
8
BLACK
6
CONTINUOUS
10
2.0224107086614174
20
0.7398725590551181
11
2.0111077952755907
21
0.7376242913385826
0
LINE
8
BLACK
6
CONTINUOUS
10
2.0111077952755907
20
0.7376242913385826
11
1.9996081496062992
21
0.7368705511811023
0
LINE
8
BLACK
6
CONTINUOUS
10
1.9996081496062992
20
0.7368705511811023
11
1.9881085039370079
21
0.7376242913385826
0
LINE
8
BLACK
6
CONTINUOUS
10
1.9881085039370079
20
0.7376242913385826
11
1.976805590551181
21
0.7398725590551181
0
LINE
8
BLACK
6
CONTINUOUS
10
1.976805590551181
20
0.7398725590551181
11
1.9658928346456692
21
0.7435769291338582
0
LINE
8
BLACK
6
CONTINUOUS
10
1.9658928346456692
20
0.7435769291338582
11
1.9555569685039369
21
0.7486740157480315
0
LINE
8
BLACK
6
CONTINUOUS
10
1.9555569685039369
20
0.7486740157480315
11
1.945974842519685
21
0.7550766141732284
0
LINE
8
BLACK
6
CONTINUOUS
10
1.945974842519685
20
0.7550766141732284
11
1.9373103937007874
21
0.7626751181102362
0
LINE
8
BLACK
6
CONTINUOUS
10
1.9373103937007874
20
0.7626751181102362
11
1.9297118897637795
21
0.7713395669291339
0
LINE
8
BLACK
6
CONTINUOUS
10
1.9297118897637795
20
0.7713395669291339
11
1.9233092913385825
21
0.7809216929133858
0
LINE
8
BLACK
6
CONTINUOUS
10
1.9233092913385825
20
0.7809216929133858
11
1.9182122047244095
21
0.7912575590551181
0
LINE
8
BLACK
6
CONTINUOUS
10
1.9182122047244095
20
0.7912575590551181
11
1.9145078346456692
21
0.8021703149606298
0
LINE
8
BLACK
6
CONTINUOUS
10
1.9145078346456692
20
0.8021703149606298
11
1.9122595669291338
21
0.8134732283464566
0
LINE
8
BLACK
6
CONTINUOUS
10
1.9122595669291338
20
0.8134732283464566
11
1.9115058267716536
21
0.824972874015748
0
LINE
8
BLACK
6
CONTINUOUS
10
1.9115058267716536
20
0.824972874015748
11
1.9122595669291338
21
0.8364725196850393
0
LINE
8
BLACK
6
CONTINUOUS
10
1.9122595669291338
20
0.8364725196850393
11
1.9145078346456692
21
0.8477754330708661
0
LINE
8
BLACK
6
CONTINUOUS
10
1.9145078346456692
20
0.8477754330708661
11
1.9182122047244095
21
0.8586881889763779
0
LINE
8
BLACK
6
CONTINUOUS
10
1.9182122047244095
20
0.8586881889763779
11
1.9233092913385825
21
0.8690240157480315
0
LINE
8
BLACK
6
CONTINUOUS
10
1.9233092913385825
20
0.8690240157480315
11
1.9297118897637795
21
0.8786061811023622
0
LINE
8
BLACK
6
CONTINUOUS
10
1.9297118897637795
20
0.8786061811023622
11
1.9373103937007874
21
0.8872706299212598
0
LINE
8
BLACK
6
CONTINUOUS
10
1.9373103937007874
20
0.8872706299212598
11
1.945974842519685
21
0.8948691338582677
0
LINE
8
BLACK
6
CONTINUOUS
10
1.945974842519685
20
0.8948691338582677
11
1.9555570078740157
21
0.9012717322834646
0
LINE
8
BLACK
6
CONTINUOUS
10
1.9555570078740157
20
0.9012717322834646
11
1.9658928346456692
21
0.9063688188976378
0
LINE
8
BLACK
6
CONTINUOUS
10
1.9658928346456692
20
0.9063688188976378
11
1.976805590551181
21
0.9100731889763779
0
LINE
8
BLACK
6
CONTINUOUS
10
1.976805590551181
20
0.9100731889763779
11
1.9881085039370079
21
0.9123214566929133
0
LINE
8
BLACK
6
CONTINUOUS
10
1.9881085039370079
20
0.9123214566929133
11
1.9996081496062992
21
0.9130751968503937
0
LINE
8
BLACK
6
CONTINUOUS
10
1.9996081496062992
20
0.9130751968503937
11
2.0111077952755907
21
0.9123214566929133
0
LINE
8
BLACK
6
CONTINUOUS
10
1.9179866141732282
20
0.8137542519685039
11
1.9202744488188976
21
0.8027446062992126
0
LINE
8
BLACK
6
CONTINUOUS
10
1.9202744488188976
20
0.8027446062992126
11
1.9240401181102362
21
0.7921490551181102
0
LINE
8
BLACK
6
CONTINUOUS
10
1.9240401181102362
20
0.7921490551181102
11
1.929213464566929
21
0.7821649212598425
0
LINE
8
BLACK
6
CONTINUOUS
10
1.929213464566929
20
0.7821649212598425
11
1.9356981496062993
21
0.7729782283464567
0
LINE
8
BLACK
6
CONTINUOUS
10
1.9356981496062993
20
0.7729782283464567
11
1.9433733464566929
21
0.7647601181102363
0
LINE
8
BLACK
6
CONTINUOUS
10
1.9433733464566929
20
0.7647601181102363
11
1.9520961023622048
21
0.757663622047244
0
LINE
8
BLACK
6
CONTINUOUS
10
1.9520961023622048
20
0.757663622047244
11
1.9617038976377952
21
0.7518209842519685
0
LINE
8
BLACK
6
CONTINUOUS
10
1.9617038976377952
20
0.7518209842519685
11
1.9720177952755904
21
0.7473410236220472
0
LINE
8
BLACK
6
CONTINUOUS
10
1.9720177952755904
20
0.7473410236220472
11
1.9828456299212598
21
0.7443072047244095
0
LINE
8
BLACK
6
CONTINUOUS
10
1.9828456299212598
20
0.7443072047244095
11
1.993985748031496
21
0.742776062992126
0
LINE
8
BLACK
6
CONTINUOUS
10
1.993985748031496
20
0.742776062992126
11
2.0052305511811022
21
0.742776062992126
0
LINE
8
BLACK
6
CONTINUOUS
10
2.0052305511811022
20
0.742776062992126
11
2.0163706692913386
21
0.7443072047244095
0
LINE
8
BLACK
6
CONTINUOUS
10
2.0163706692913386
20
0.7443072047244095
11
2.027198503937008
21
0.7473410236220472
0
LINE
8
BLACK
6
CONTINUOUS
10
2.027198503937008
20
0.7473410236220472
11
2.0375124015748032
21
0.7518209842519685
0
LINE
8
BLACK
6
CONTINUOUS
10
2.0375124015748032
20
0.7518209842519685
11
2.0471201968503938
21
0.757663622047244
0
LINE
8
BLACK
6
CONTINUOUS
10
2.0471201968503938
20
0.757663622047244
11
2.0558429527559055
21
0.7647601181102363
0
LINE
8
BLACK
6
CONTINUOUS
10
2.0558429527559055
20
0.7647601181102363
11
2.0635181496062991
21
0.7729782283464567
0
LINE
8
BLACK
6
CONTINUOUS
10
2.0635181496062991
20
0.7729782283464567
11
2.0700028346456691
21
0.7821649212598425
0
LINE
8
BLACK
6
CONTINUOUS
10
2.0700028346456691
20
0.7821649212598425
11
2.0751761811023623
21
0.7921490551181102
0
LINE
8
BLACK
6
CONTINUOUS
10
2.0751761811023623
20
0.7921490551181102
11
2.0789418503937007
21
0.8027446062992126
0
LINE
8
BLACK
6
CONTINUOUS
10
2.0789418503937007
20
0.8027446062992126
11
2.0812296850393701
21
0.8137542519685039
0
LINE
8
BLACK
6
CONTINUOUS
10
2.0812296850393701
20
0.8137542519685039
11
2.0819970472440943
21
0.824972874015748
0
LINE
8
BLACK
6
CONTINUOUS
10
2.0819970472440943
20
0.824972874015748
11
2.0812296850393701
21
0.8361914960629921
0
LINE
8
BLACK
6
CONTINUOUS
10
2.0812296850393701
20
0.8361914960629921
11
2.0789418503937007
21
0.8472011417322834
0
LINE
8
BLACK
6
CONTINUOUS
10
2.0789418503937007
20
0.8472011417322834
11
2.0751761811023623
21
0.8577966929133858
0
LINE
8
BLACK
6
CONTINUOUS
10
2.0751761811023623
20
0.8577966929133858
11
2.0700028346456691
21
0.8677808267716535
0
LINE
8
BLACK
6
CONTINUOUS
10
2.0700028346456691
20
0.8677808267716535
11
2.0635181496062991
21
0.8769675196850394
0
LINE
8
BLACK
6
CONTINUOUS
10
2.0635181496062991
20
0.8769675196850394
11
2.0558429527559055
21
0.8851856299212598
0
LINE
8
BLACK
6
CONTINUOUS
10
2.0558429527559055
20
0.8851856299212598
11
2.0471201968503938
21
0.8922821259842519
0
LINE
8
BLACK
6
CONTINUOUS
10
2.0471201968503938
20
0.8922821259842519
11
2.0375124015748032
21
0.8981247637795275
0
LINE
8
BLACK
6
CONTINUOUS
10
2.0375124015748032
20
0.8981247637795275
11
2.027198503937008
21
0.9026047244094488
0
LINE
8
BLACK
6
CONTINUOUS
10
2.027198503937008
20
0.9026047244094488
11
2.0163706692913386
21
0.9056385433070866
0
LINE
8
BLACK
6
CONTINUOUS
10
2.0163706692913386
20
0.9056385433070866
11
2.0052305511811022
21
0.90716968503937
0
LINE
8
BLACK
6
CONTINUOUS
10
2.0052305511811022
20
0.90716968503937
11
1.993985748031496
21
0.90716968503937
0
LINE
8
BLACK
6
CONTINUOUS
10
1.993985748031496
20
0.90716968503937
11
1.9828456299212598
21
0.9056385433070866
0
LINE
8
BLACK
6
CONTINUOUS
10
1.9828456299212598
20
0.9056385433070866
11
1.9720177952755904
21
0.9026047244094488
0
LINE
8
BLACK
6
CONTINUOUS
10
1.9720177952755904
20
0.9026047244094488
11
1.9617038976377952
21
0.8981247637795275
0
LINE
8
BLACK
6
CONTINUOUS
10
1.9617038976377952
20
0.8981247637795275
11
1.9520961023622048
21
0.8922821259842519
0
LINE
8
BLACK
6
CONTINUOUS
10
1.9520961023622048
20
0.8922821259842519
11
1.9433733464566929
21
0.8851856299212598
0
LINE
8
BLACK
6
CONTINUOUS
10
1.9433733464566929
20
0.8851856299212598
11
1.9356981496062993
21
0.8769675196850394
0
LINE
8
BLACK
6
CONTINUOUS
10
1.9356981496062993
20
0.8769675196850394
11
1.929213464566929
21
0.8677808267716535
0
LINE
8
BLACK
6
CONTINUOUS
10
1.929213464566929
20
0.8677808267716535
11
1.9240401181102362
21
0.8577966929133858
0
LINE
8
BLACK
6
CONTINUOUS
10
1.9240401181102362
20
0.8577966929133858
11
1.9202744488188976
21
0.8472011417322834
0
LINE
8
BLACK
6
CONTINUOUS
10
1.9202744488188976
20
0.8472011417322834
11
1.9179866141732282
21
0.8361914960629921
0
LINE
8
BLACK
6
CONTINUOUS
10
1.9179866141732282
20
0.8361914960629921
11
1.9172192519685038
21
0.824972874015748
0
LINE
8
BLACK
6
CONTINUOUS
10
1.9172192519685038
20
0.824972874015748
11
1.9179866141732282
21
0.8137542519685039
0
LINE
8
BLACK
6
CONTINUOUS
10
2.1379794881889764
20
0.9656641732283464
11
2.1390438976377952
21
0.9652232677165354
0
LINE
8
BLACK
6
CONTINUOUS
10
2.1390438976377952
20
0.9652232677165354
11
2.1398585433070867
21
0.9644086220472441
0
LINE
8
BLACK
6
CONTINUOUS
10
2.1398585433070867
20
0.9644086220472441
11
2.1402994488188978
21
0.9633442125984252
0
LINE
8
BLACK
6
CONTINUOUS
10
2.1402994488188978
20
0.9633442125984252
11
2.1403561811023621
21
0.6871775984251969
0
LINE
8
BLACK
6
CONTINUOUS
10
2.1403561811023621
20
0.6871775984251969
11
2.1402994488188978
21
0.6866015354330709
0
LINE
8
BLACK
6
CONTINUOUS
10
2.1402994488188978
20
0.6866015354330709
11
2.1398585433070867
21
0.685537125984252
0
LINE
8
BLACK
6
CONTINUOUS
10
2.1398585433070867
20
0.685537125984252
11
2.1390438976377952
21
0.6847224803149606
0
LINE
8
BLACK
6
CONTINUOUS
10
2.1390438976377952
20
0.6847224803149606
11
2.1379794881889764
21
0.6842815748031496
0
LINE
8
BLACK
6
CONTINUOUS
10
2.1379794881889764
20
0.6842815748031496
11
1.861812874015748
21
0.6842248425196851
0
LINE
8
BLACK
6
CONTINUOUS
10
1.861812874015748
20
0.6842248425196851
11
1.8612368110236219
21
0.6842815748031496
0
LINE
8
BLACK
6
CONTINUOUS
10
1.8612368110236219
20
0.6842815748031496
11
1.8601724015748031
21
0.6847224803149606
0
LINE
8
BLACK
6
CONTINUOUS
10
1.8601724015748031
20
0.6847224803149606
11
1.8593577559055117
21
0.685537125984252
0
LINE
8
BLACK
6
CONTINUOUS
10
1.8593577559055117
20
0.685537125984252
11
1.8589168503937008
21
0.6866015354330709
0
LINE
8
BLACK
6
CONTINUOUS
10
1.8589168503937008
20
0.6866015354330709
11
1.8588601181102362
21
0.9627681496062992
0
LINE
8
BLACK
6
CONTINUOUS
10
1.8588601181102362
20
0.9627681496062992
11
1.8589168503937008
21
0.9633442125984252
0
LINE
8
BLACK
6
CONTINUOUS
10
1.8589168503937008
20
0.9633442125984252
11
1.8593577559055117
21
0.9644086220472441
0
LINE
8
BLACK
6
CONTINUOUS
10
1.8593577559055117
20
0.9644086220472441
11
1.8601724015748031
21
0.9652232677165354
0
LINE
8
BLACK
6
CONTINUOUS
10
1.8601724015748031
20
0.9652232677165354
11
1.8612368110236219
21
0.9656641732283464
0
LINE
8
BLACK
6
CONTINUOUS
10
1.8612368110236219
20
0.9656641732283464
11
2.1374034251968506
21
0.965720905511811
0
LINE
8
BLACK
6
CONTINUOUS
10
2.1374034251968506
20
0.965720905511811
11
2.1379794881889764
21
0.9656641732283464
0
LINE
8
BLACK
6
CONTINUOUS
10
1.8647543307086614
20
0.7421017322834645
11
1.864765
21
0.6900743700787402
0
LINE
8
BLACK
6
CONTINUOUS
10
1.864765
20
0.6900743700787402
11
1.9167874803149605
21
0.6900850393700787
0
LINE
8
BLACK
6
CONTINUOUS
10
1.9167874803149605
20
0.6900850393700787
11
1.916775905511811
21
0.7019932677165354
0
LINE
8
BLACK
6
CONTINUOUS
10
1.916775905511811
20
0.7019932677165354
11
1.8795294094488189
21
0.7019413779527559
0
LINE
8
BLACK
6
CONTINUOUS
10
1.8795294094488189
20
0.7019413779527559
11
1.8789533464566928
21
0.7019981102362205
0
LINE
8
BLACK
6
CONTINUOUS
10
1.8789533464566928
20
0.7019981102362205
11
1.877888937007874
21
0.7024390157480315
0
LINE
8
BLACK
6
CONTINUOUS
10
1.877888937007874
20
0.7024390157480315
11
1.8770742913385827
21
0.7032536614173228
0
LINE
8
BLACK
6
CONTINUOUS
10
1.8770742913385827
20
0.7032536614173228
11
1.8766333858267716
21
0.7043180708661417
0
LINE
8
BLACK
6
CONTINUOUS
10
1.8766333858267716
20
0.7043180708661417
11
1.8765807086614172
21
0.7421132283464567
0
LINE
8
BLACK
6
CONTINUOUS
10
1.8765807086614172
20
0.7421132283464567
11
1.8647543307086614
21
0.7421017322834645
0
LINE
8
BLACK
6
CONTINUOUS
10
1.9225862992125984
20
0.9598279133858267
11
1.9226396456692914
21
0.9048941338582677
0
LINE
8
BLACK
6
CONTINUOUS
10
1.9226396456692914
20
0.9048941338582677
11
1.9225829133858268
21
0.9043180708661417
0
LINE
8
BLACK
6
CONTINUOUS
10
1.9225829133858268
20
0.9043180708661417
11
1.9221420078740157
21
0.9032536614173228
0
LINE
8
BLACK
6
CONTINUOUS
10
1.9221420078740157
20
0.9032536614173228
11
1.9213273622047244
21
0.9024390157480314
0
LINE
8
BLACK
6
CONTINUOUS
10
1.9213273622047244
20
0.9024390157480314
11
1.9202629527559054
21
0.9019981102362205
0
LINE
8
BLACK
6
CONTINUOUS
10
1.9202629527559054
20
0.9019981102362205
11
1.8647214960629921
21
0.9019442125984252
0
LINE
8
BLACK
6
CONTINUOUS
10
1.8647214960629921
20
0.9019442125984252
11
1.8647531102362205
21
0.747951062992126
0
LINE
8
BLACK
6
CONTINUOUS
10
1.8647531102362205
20
0.747951062992126
11
1.9196868897637795
21
0.7480043700787401
0
LINE
8
BLACK
6
CONTINUOUS
10
1.9196868897637795
20
0.7480043700787401
11
1.9202629527559054
21
0.7479476377952756
0
LINE
8
BLACK
6
CONTINUOUS
10
1.9202629527559054
20
0.7479476377952756
11
1.9213273622047244
21
0.7475067322834645
0
LINE
8
BLACK
6
CONTINUOUS
10
1.9213273622047244
20
0.7475067322834645
11
1.9221420078740157
21
0.7466920866141732
0
LINE
8
BLACK
6
CONTINUOUS
10
1.9221420078740157
20
0.7466920866141732
11
1.9225829133858268
21
0.7456276771653543
0
LINE
8
BLACK
6
CONTINUOUS
10
1.9225829133858268
20
0.7456276771653543
11
1.922636811023622
21
0.6900862598425197
0
LINE
8
BLACK
6
CONTINUOUS
10
1.922636811023622
20
0.6900862598425197
11
2.076629960629921
21
0.690117874015748
0
LINE
8
BLACK
6
CONTINUOUS
10
2.076629960629921
20
0.690117874015748
11
2.0765766535433072
21
0.7450516141732283
0
LINE
8
BLACK
6
CONTINUOUS
10
2.0765766535433072
20
0.7450516141732283
11
2.0766333858267716
21
0.7456276771653543
0
LINE
8
BLACK
6
CONTINUOUS
10
2.0766333858267716
20
0.7456276771653543
11
2.0770742913385827
21
0.7466920866141732
0
LINE
8
BLACK
6
CONTINUOUS
10
2.0770742913385827
20
0.7466920866141732
11
2.0778889370078741
21
0.7475067322834645
0
LINE
8
BLACK
6
CONTINUOUS
10
2.0778889370078741
20
0.7475067322834645
11
2.0789533464566929
21
0.7479476377952756
0
LINE
8
BLACK
6
CONTINUOUS
10
2.0789533464566929
20
0.7479476377952756
11
2.1344947637795273
21
0.7480015748031495
0
LINE
8
BLACK
6
CONTINUOUS
10
2.1344947637795273
20
0.7480015748031495
11
2.1344631496062991
21
0.9019947244094488
0
LINE
8
BLACK
6
CONTINUOUS
10
2.1344631496062991
20
0.9019947244094488
11
2.0795294094488188
21
0.9019413779527559
0
LINE
8
BLACK
6
CONTINUOUS
10
2.0795294094488188
20
0.9019413779527559
11
2.0789533464566929
21
0.9019981102362205
0
LINE
8
BLACK
6
CONTINUOUS
10
2.0789533464566929
20
0.9019981102362205
11
2.0778889370078741
21
0.9024390157480314
0
LINE
8
BLACK
6
CONTINUOUS
10
2.0778889370078741
20
0.9024390157480314
11
2.0770742913385827
21
0.9032536614173228
0
LINE
8
BLACK
6
CONTINUOUS
10
2.0770742913385827
20
0.9032536614173228
11
2.0766333858267716
21
0.9043180708661417
0
LINE
8
BLACK
6
CONTINUOUS
10
2.0766333858267716
20
0.9043180708661417
11
2.0765794488188978
21
0.9598595275590551
0
LINE
8
BLACK
6
CONTINUOUS
10
2.0765794488188978
20
0.9598595275590551
11
1.9225862992125984
21
0.9598279133858267
0
LINE
8
BLACK
6
CONTINUOUS
10
2.1225877559055117
20
0.7421406692913386
11
2.1226396456692913
21
0.7048941338582677
0
LINE
8
BLACK
6
CONTINUOUS
10
2.1226396456692913
20
0.7048941338582677
11
2.1225829133858269
21
0.7043180708661417
0
LINE
8
BLACK
6
CONTINUOUS
10
2.1225829133858269
20
0.7043180708661417
11
2.1221420078740159
21
0.7032536614173228
0
LINE
8
BLACK
6
CONTINUOUS
10
2.1221420078740159
20
0.7032536614173228
11
2.1213273622047244
21
0.7024390157480315
0
LINE
8
BLACK
6
CONTINUOUS
10
2.1213273622047244
20
0.7024390157480315
11
2.1202629527559056
21
0.7019981102362205
0
LINE
8
BLACK
6
CONTINUOUS
10
2.1202629527559056
20
0.7019981102362205
11
2.0824677952755906
21
0.7019454724409449
0
LINE
8
BLACK
6
CONTINUOUS
10
2.0824677952755906
20
0.7019454724409449
11
2.0824792913385828
21
0.690119094488189
0
LINE
8
BLACK
6
CONTINUOUS
10
2.0824792913385828
20
0.690119094488189
11
2.134506653543307
21
0.6901297637795275
0
LINE
8
BLACK
6
CONTINUOUS
10
2.134506653543307
20
0.6901297637795275
11
2.1344959842519686
21
0.7421522440944882
0
LINE
8
BLACK
6
CONTINUOUS
10
2.1344959842519686
20
0.7421522440944882
11
2.1225877559055117
21
0.7421406692913386
0
LINE
8
BLACK
6
CONTINUOUS
10
1.8824303149606298
20
0.7421188976377953
11
1.8824781102362205
21
0.7077950787401575
0
LINE
8
BLACK
6
CONTINUOUS
10
1.8824781102362205
20
0.7077950787401575
11
1.9167702362204724
21
0.7078428346456693
0
LINE
8
BLACK
6
CONTINUOUS
10
1.9167702362204724
20
0.7078428346456693
11
1.9167369291338583
21
0.7421522047244095
0
LINE
8
BLACK
6
CONTINUOUS
10
1.9167369291338583
20
0.7421522047244095
11
1.8824303149606298
21
0.7421188976377953
0
LINE
8
BLACK
6
CONTINUOUS
10
2.0824288188976379
20
0.7421016929133858
11
2.082462125984252
21
0.7077950787401575
0
LINE
8
BLACK
6
CONTINUOUS
10
2.082462125984252
20
0.7077950787401575
11
2.1167859448818898
21
0.707842874015748
0
LINE
8
BLACK
6
CONTINUOUS
10
2.1167859448818898
20
0.707842874015748
11
2.1167381889763779
21
0.742135
0
LINE
8
BLACK
6
CONTINUOUS
10
2.1167381889763779
20
0.742135
11
2.0824288188976379
21
0.7421016929133858
0
LINE
8
BLACK
6
CONTINUOUS
10
1.8647096062992126
20
0.9598160236220472
11
1.8647202755905512
21
0.9077935433070866
0
LINE
8
BLACK
6
CONTINUOUS
10
1.8647202755905512
20
0.9077935433070866
11
1.8766285039370079
21
0.9078051181102362
0
LINE
8
BLACK
6
CONTINUOUS
10
1.8766285039370079
20
0.9078051181102362
11
1.876576653543307
21
0.9450516141732284
0
LINE
8
BLACK
6
CONTINUOUS
10
1.876576653543307
20
0.9450516141732284
11
1.8766333858267716
21
0.9456276771653543
0
LINE
8
BLACK
6
CONTINUOUS
10
1.8766333858267716
20
0.9456276771653543
11
1.8770742913385827
21
0.9466920866141733
0
LINE
8
BLACK
6
CONTINUOUS
10
1.8770742913385827
20
0.9466920866141733
11
1.877888937007874
21
0.9475067322834645
0
LINE
8
BLACK
6
CONTINUOUS
10
1.877888937007874
20
0.9475067322834645
11
1.8789533464566928
21
0.9479476377952756
0
LINE
8
BLACK
6
CONTINUOUS
10
1.8789533464566928
20
0.9479476377952756
11
1.916748464566929
21
0.9480003149606299
0
LINE
8
BLACK
6
CONTINUOUS
10
1.916748464566929
20
0.9480003149606299
11
1.916736968503937
21
0.9598266929133858
0
LINE
8
BLACK
6
CONTINUOUS
10
1.916736968503937
20
0.9598266929133858
11
1.8647096062992126
21
0.9598160236220472
0
LINE
8
BLACK
6
CONTINUOUS
10
2.082446023622047
20
0.9421029527559055
11
2.0824793307086615
21
0.9077935826771654
0
LINE
8
BLACK
6
CONTINUOUS
10
2.0824793307086615
20
0.9077935826771654
11
2.1167859448818898
21
0.9078268897637795
0
LINE
8
BLACK
6
CONTINUOUS
10
2.1167859448818898
20
0.9078268897637795
11
2.1167381496062991
21
0.9421507086614173
0
LINE
8
BLACK
6
CONTINUOUS
10
2.1167381496062991
20
0.9421507086614173
11
2.082446023622047
21
0.9421029527559055
0
LINE
8
BLACK
6
CONTINUOUS
10
1.8824303149606298
20
0.9421029133858267
11
1.8824780708661417
21
0.9078107874015748
0
LINE
8
BLACK
6
CONTINUOUS
10
1.8824780708661417
20
0.9078107874015748
11
1.9167874409448817
21
0.9078440944881889
0
LINE
8
BLACK
6
CONTINUOUS
10
1.9167874409448817
20
0.9078440944881889
11
1.9167541338582677
21
0.9421507086614173
0
LINE
8
BLACK
6
CONTINUOUS
10
1.9167541338582677
20
0.9421507086614173
11
1.8824303149606298
21
0.9421029133858267
0
LINE
8
BLACK
6
CONTINUOUS
10
2.0824287795275591
20
0.959860748031496
11
2.0824403543307084
21
0.9479525196850394
0
LINE
8
BLACK
6
CONTINUOUS
10
2.0824403543307084
20
0.9479525196850394
11
2.1196868897637793
21
0.9480043700787402
0
LINE
8
BLACK
6
CONTINUOUS
10
2.1196868897637793
20
0.9480043700787402
11
2.1202629527559056
21
0.9479476377952756
0
LINE
8
BLACK
6
CONTINUOUS
10
2.1202629527559056
20
0.9479476377952756
11
2.1213273622047244
21
0.9475067322834645
0
LINE
8
BLACK
6
CONTINUOUS
10
2.1213273622047244
20
0.9475067322834645
11
2.1221420078740159
21
0.9466920866141733
0
LINE
8
BLACK
6
CONTINUOUS
10
2.1221420078740159
20
0.9466920866141733
11
2.1225829133858269
21
0.9456276771653543
0
LINE
8
BLACK
6
CONTINUOUS
10
2.1225829133858269
20
0.9456276771653543
11
2.1226355511811024
21
0.9078325590551181
0
LINE
8
BLACK
6
CONTINUOUS
10
2.1226355511811024
20
0.9078325590551181
11
2.1344619291338582
21
0.9078440551181102
0
LINE
8
BLACK
6
CONTINUOUS
10
2.1344619291338582
20
0.9078440551181102
11
2.1344512598425198
21
0.9598714173228347
0
LINE
8
BLACK
6
CONTINUOUS
10
2.1344512598425198
20
0.9598714173228347
11
2.0824287795275591
21
0.959860748031496
0
LINE
8
BLACK
6
CONTINUOUS
10
1.984581968503937
20
1.2796041338582678
11
1.9853966141732282
21
1.2787894881889763
0
LINE
8
BLACK
6
CONTINUOUS
10
1.9853966141732282
20
1.2787894881889763
11
1.9858375196850393
21
1.2777250787401575
0
LINE
8
BLACK
6
CONTINUOUS
10
1.9858375196850393
20
1.2777250787401575
11
1.9858942519685039
21
1.2414347244094488
0
LINE
8
BLACK
6
CONTINUOUS
10
1.9858942519685039
20
1.2414347244094488
11
1.9858655118110236
21
1.2411431496062992
0
LINE
8
BLACK
6
CONTINUOUS
10
1.9858655118110236
20
1.2411431496062992
11
1.9858710629921259
21
1.2410653937007874
0
LINE
8
BLACK
6
CONTINUOUS
10
1.9858710629921259
20
1.2410653937007874
11
1.9858521259842519
21
1.2410073622047244
0
LINE
8
BLACK
6
CONTINUOUS
10
1.9858521259842519
20
1.2410073622047244
11
1.9858375196850393
21
1.2408586614173227
0
LINE
8
BLACK
6
CONTINUOUS
10
1.9858375196850393
20
1.2408586614173227
11
1.9856797244094488
21
1.2404777952755905
0
LINE
8
BLACK
6
CONTINUOUS
10
1.9856797244094488
20
1.2404777952755905
11
1.9833617322834645
21
1.2333581496062991
0
LINE
8
BLACK
6
CONTINUOUS
10
1.9833617322834645
20
1.2333581496062991
11
1.9831257480314961
21
1.2328295669291338
0
LINE
8
BLACK
6
CONTINUOUS
10
1.9831257480314961
20
1.2328295669291338
11
1.9830562204724409
21
1.2327494488188977
0
LINE
8
BLACK
6
CONTINUOUS
10
1.9830562204724409
20
1.2327494488188977
11
1.9830156692913385
21
1.2326514566929134
0
LINE
8
BLACK
6
CONTINUOUS
10
1.9830156692913385
20
1.2326514566929134
11
1.9826428346456693
21
1.2322728346456693
0
LINE
8
BLACK
6
CONTINUOUS
10
1.9826428346456693
20
1.2322728346456693
11
1.9823708661417323
21
1.2319592125984251
0
LINE
8
BLACK
6
CONTINUOUS
10
1.9823708661417323
20
1.2319592125984251
11
1.9822984251968503
21
1.231923031496063
0
LINE
8
BLACK
6
CONTINUOUS
10
1.9822984251968503
20
1.231923031496063
11
1.9778865354330708
21
1.2274420472440946
0
LINE
8
BLACK
6
CONTINUOUS
10
1.9778865354330708
20
1.2274420472440946
11
1.977439094488189
21
1.2270748425196849
0
LINE
8
BLACK
6
CONTINUOUS
10
1.977439094488189
20
1.2270748425196849
11
1.9773411023622047
21
1.2270342913385826
0
LINE
8
BLACK
6
CONTINUOUS
10
1.9773411023622047
20
1.2270342913385826
11
1.9772609448818896
21
1.2269647244094488
0
LINE
8
BLACK
6
CONTINUOUS
10
1.9772609448818896
20
1.2269647244094488
11
1.9767640157480315
21
1.2267952362204724
0
LINE
8
BLACK
6
CONTINUOUS
10
1.9767640157480315
20
1.2267952362204724
11
1.97637468503937
21
1.226633937007874
0
LINE
8
BLACK
6
CONTINUOUS
10
1.97637468503937
20
1.226633937007874
11
1.9762912598425197
21
1.226633937007874
0
LINE
8
BLACK
6
CONTINUOUS
10
1.9762912598425197
20
1.226633937007874
11
1.9695894881889764
21
1.2243477952755906
0
LINE
8
BLACK
6
CONTINUOUS
10
1.9695894881889764
20
1.2243477952755906
11
1.9693038976377952
21
1.2242828740157481
0
LINE
8
BLACK
6
CONTINUOUS
10
1.9693038976377952
20
1.2242828740157481
11
1.969231811023622
21
1.2242529921259842
0
LINE
8
BLACK
6
CONTINUOUS
10
1.969231811023622
20
1.2242529921259842
11
1.9691696456692913
21
1.2242523622047243
0
LINE
8
BLACK
6
CONTINUOUS
10
1.9691696456692913
20
1.2242523622047243
11
1.9690250393700788
21
1.2242194488188975
0
LINE
8
BLACK
6
CONTINUOUS
10
1.9690250393700788
20
1.2242194488188975
11
1.9686414173228346
21
1.2242467322834645
0
LINE
8
BLACK
6
CONTINUOUS
10
1.9686414173228346
20
1.2242467322834645
11
1.9638938582677166
21
1.2241962598425196
0
LINE
8
BLACK
6
CONTINUOUS
10
1.9638938582677166
20
1.2241962598425196
11
1.9633177952755905
21
1.2242529921259842
0
LINE
8
BLACK
6
CONTINUOUS
10
1.9633177952755905
20
1.2242529921259842
11
1.9622533858267717
21
1.2246938976377952
0
LINE
8
BLACK
6
CONTINUOUS
10
1.9622533858267717
20
1.2246938976377952
11
1.9614387401574802
21
1.2255085433070867
0
LINE
8
BLACK
6
CONTINUOUS
10
1.9614387401574802
20
1.2255085433070867
11
1.9609978346456693
21
1.2265729527559055
0
LINE
8
BLACK
6
CONTINUOUS
10
1.9609978346456693
20
1.2265729527559055
11
1.9609978346456693
21
1.2277250787401575
0
LINE
8
BLACK
6
CONTINUOUS
10
1.9609978346456693
20
1.2277250787401575
11
1.9614387401574802
21
1.2287894881889763
0
LINE
8
BLACK
6
CONTINUOUS
10
1.9614387401574802
20
1.2287894881889763
11
1.9622533858267717
21
1.2296041338582677
0
LINE
8
BLACK
6
CONTINUOUS
10
1.9622533858267717
20
1.2296041338582677
11
1.9633177952755905
21
1.2300450393700788
0
LINE
8
BLACK
6
CONTINUOUS
10
1.9633177952755905
20
1.2300450393700788
11
1.968318937007874
21
1.2300982283464568
0
LINE
8
BLACK
6
CONTINUOUS
10
1.968318937007874
20
1.2300982283464568
11
1.9742949212598424
21
1.2321367716535432
0
LINE
8
BLACK
6
CONTINUOUS
10
1.9742949212598424
20
1.2321367716535432
11
1.9780511023622047
21
1.2359517322834646
0
LINE
8
BLACK
6
CONTINUOUS
10
1.9780511023622047
20
1.2359517322834646
11
1.9800435433070867
21
1.2420714960629922
0
LINE
8
BLACK
6
CONTINUOUS
10
1.9800435433070867
20
1.2420714960629922
11
1.9799887401574803
21
1.2771490157480314
0
LINE
8
BLACK
6
CONTINUOUS
10
1.9799887401574803
20
1.2771490157480314
11
1.9800454724409449
21
1.2777250787401575
0
LINE
8
BLACK
6
CONTINUOUS
10
1.9800454724409449
20
1.2777250787401575
11
1.9804863779527559
21
1.2787894881889763
0
LINE
8
BLACK
6
CONTINUOUS
10
1.9804863779527559
20
1.2787894881889763
11
1.9813010236220472
21
1.2796041338582678
0
LINE
8
BLACK
6
CONTINUOUS
10
1.9813010236220472
20
1.2796041338582678
11
1.982365433070866
21
1.2800450393700786
0
LINE
8
BLACK
6
CONTINUOUS
10
1.982365433070866
20
1.2800450393700786
11
1.9835175590551182
21
1.2800450393700786
0
LINE
8
BLACK
6
CONTINUOUS
10
1.9835175590551182
20
1.2800450393700786
11
1.984581968503937
21
1.2796041338582678
0
LINE
8
BLACK
6
CONTINUOUS
10
2.0332461417322834
20
1.2800717716535432
11
2.0333236220472442
21
1.2800769291338583
0
LINE
8
BLACK
6
CONTINUOUS
10
2.0333236220472442
20
1.2800769291338583
11
2.0333769685039371
21
1.2800588976377953
0
LINE
8
BLACK
6
CONTINUOUS
10
2.0333769685039371
20
1.2800588976377953
11
2.033517559055118
21
1.2800450393700786
0
LINE
8
BLACK
6
CONTINUOUS
10
2.033517559055118
20
1.2800450393700786
11
2.0339607480314958
21
1.2798614566929134
0
LINE
8
BLACK
6
CONTINUOUS
10
2.0339607480314958
20
1.2798614566929134
11
2.0344150000000001
21
1.2797078346456692
0
LINE
8
BLACK
6
CONTINUOUS
10
2.0344150000000001
20
1.2797078346456692
11
2.0344899606299212
21
1.2796422834645669
0
LINE
8
BLACK
6
CONTINUOUS
10
2.0344899606299212
20
1.2796422834645669
11
2.0345819685039368
21
1.2796041338582678
0
LINE
8
BLACK
6
CONTINUOUS
10
2.0345819685039368
20
1.2796041338582678
11
2.0349209448818897
21
1.2792651574803149
0
LINE
8
BLACK
6
CONTINUOUS
10
2.0349209448818897
20
1.2792651574803149
11
2.0352820866141732
21
1.2789491732283464
0
LINE
8
BLACK
6
CONTINUOUS
10
2.0352820866141732
20
1.2789491732283464
11
2.0353262598425195
21
1.2788598425196851
0
LINE
8
BLACK
6
CONTINUOUS
10
2.0353262598425195
20
1.2788598425196851
11
2.0353966141732283
21
1.2787894881889763
0
LINE
8
BLACK
6
CONTINUOUS
10
2.0353966141732283
20
1.2787894881889763
11
2.0355800787401575
21
1.2783465748031495
0
LINE
8
BLACK
6
CONTINUOUS
10
2.0355800787401575
20
1.2783465748031495
11
2.0357927952755905
21
1.2779164173228346
0
LINE
8
BLACK
6
CONTINUOUS
10
2.0357927952755905
20
1.2779164173228346
11
2.0357994094488188
21
1.2778170866141731
0
LINE
8
BLACK
6
CONTINUOUS
10
2.0357994094488188
20
1.2778170866141731
11
2.0358375196850393
21
1.2777250787401575
0
LINE
8
BLACK
6
CONTINUOUS
10
2.0358375196850393
20
1.2777250787401575
11
2.0358375196850393
21
1.2772453937007873
0
LINE
8
BLACK
6
CONTINUOUS
10
2.0358375196850393
20
1.2772453937007873
11
2.0358694094488188
21
1.2767668897637794
0
LINE
8
BLACK
6
CONTINUOUS
10
2.0358694094488188
20
1.2767668897637794
11
2.0358375196850393
21
1.2766725984251968
0
LINE
8
BLACK
6
CONTINUOUS
10
2.0358375196850393
20
1.2766725984251968
11
2.0358375196850393
21
1.2765729527559055
0
LINE
8
BLACK
6
CONTINUOUS
10
2.0358375196850393
20
1.2765729527559055
11
2.0356538976377951
21
1.2761297637795275
0
LINE
8
BLACK
6
CONTINUOUS
10
2.0356538976377951
20
1.2761297637795275
11
2.0355003149606299
21
1.2756755118110237
0
LINE
8
BLACK
6
CONTINUOUS
10
2.0355003149606299
20
1.2756755118110237
11
2.0354344488188976
21
1.2755999606299213
0
LINE
8
BLACK
6
CONTINUOUS
10
2.0354344488188976
20
1.2755999606299213
11
2.0353966141732283
21
1.2755085433070865
0
LINE
8
BLACK
6
CONTINUOUS
10
2.0353966141732283
20
1.2755085433070865
11
2.0350725984251969
21
1.2751845669291337
0
LINE
8
BLACK
6
CONTINUOUS
10
2.0350725984251969
20
1.2751845669291337
11
2.0227588582677165
21
1.2610493700787402
0
LINE
8
BLACK
6
CONTINUOUS
10
2.0227588582677165
20
1.2610493700787402
11
2.0234176771653543
21
1.2610541732283465
0
LINE
8
BLACK
6
CONTINUOUS
10
2.0234176771653543
20
1.2610541732283465
11
2.0239937401574801
21
1.2609974409448819
0
LINE
8
BLACK
6
CONTINUOUS
10
2.0239937401574801
20
1.2609974409448819
11
2.0240917322834644
21
1.2609568503937008
0
LINE
8
BLACK
6
CONTINUOUS
10
2.0240917322834644
20
1.2609568503937008
11
2.0241975590551182
21
1.2609493307086614
0
LINE
8
BLACK
6
CONTINUOUS
10
2.0241975590551182
20
1.2609493307086614
11
2.0246895669291338
21
1.2607092125984252
0
LINE
8
BLACK
6
CONTINUOUS
10
2.0246895669291338
20
1.2607092125984252
11
2.0250581496062994
21
1.2605565354330708
0
LINE
8
BLACK
6
CONTINUOUS
10
2.0250581496062994
20
1.2605565354330708
11
2.0251112598425198
21
1.2605034251968503
0
LINE
8
BLACK
6
CONTINUOUS
10
2.0251112598425198
20
1.2605034251968503
11
2.0295000787401576
21
1.2583614960629921
0
LINE
8
BLACK
6
CONTINUOUS
10
2.0295000787401576
20
1.2583614960629921
11
2.029747992125984
21
1.2582054330708661
0
LINE
8
BLACK
6
CONTINUOUS
10
2.029747992125984
20
1.2582054330708661
11
2.0298200393700787
21
1.2581755905511811
0
LINE
8
BLACK
6
CONTINUOUS
10
2.0298200393700787
20
1.2581755905511811
11
2.0298653149606301
21
1.2581315748031496
0
LINE
8
BLACK
6
CONTINUOUS
10
2.0298653149606301
20
1.2581315748031496
11
2.0299899212598427
21
1.2580531496062992
0
LINE
8
BLACK
6
CONTINUOUS
10
2.0299899212598427
20
1.2580531496062992
11
2.0302249212598427
21
1.2577822047244094
0
LINE
8
BLACK
6
CONTINUOUS
10
2.0302249212598427
20
1.2577822047244094
11
2.0326484645669289
21
1.2554273622047243
0
LINE
8
BLACK
6
CONTINUOUS
10
2.0326484645669289
20
1.2554273622047243
11
2.0328342913385828
21
1.2552009448818897
0
LINE
8
BLACK
6
CONTINUOUS
10
2.0328342913385828
20
1.2552009448818897
11
2.032893149606299
21
1.2551498818897637
0
LINE
8
BLACK
6
CONTINUOUS
10
2.032893149606299
20
1.2551498818897637
11
2.0329212598425195
21
1.2550949212598426
0
LINE
8
BLACK
6
CONTINUOUS
10
2.0329212598425195
20
1.2550949212598426
11
2.0330156692913386
21
1.2549799212598425
0
LINE
8
BLACK
6
CONTINUOUS
10
2.0330156692913386
20
1.2549799212598425
11
2.0331657874015749
21
1.2546174803149606
0
LINE
8
BLACK
6
CONTINUOUS
10
2.0331657874015749
20
1.2546174803149606
11
2.0355825196850392
21
1.2498981102362205
0
LINE
8
BLACK
6
CONTINUOUS
10
2.0355825196850392
20
1.2498981102362205
11
2.0357894094488187
21
1.2493575196850393
0
LINE
8
BLACK
6
CONTINUOUS
10
2.0357894094488187
20
1.2493575196850393
11
2.0357969291338582
21
1.2492516535433071
0
LINE
8
BLACK
6
CONTINUOUS
10
2.0357969291338582
20
1.2492516535433071
11
2.0358375196850393
21
1.2491536614173229
0
LINE
8
BLACK
6
CONTINUOUS
10
2.0358375196850393
20
1.2491536614173229
11
2.0358398031496061
21
1.2486480708661416
0
LINE
8
BLACK
6
CONTINUOUS
10
2.0358398031496061
20
1.2486480708661416
11
2.0358710629921259
21
1.2482083070866141
0
LINE
8
BLACK
6
CONTINUOUS
10
2.0358710629921259
20
1.2482083070866141
11
2.0358422047244096
21
1.2481217716535433
0
LINE
8
BLACK
6
CONTINUOUS
10
2.0358422047244096
20
1.2481217716535433
11
2.0358942519685037
21
1.2366728346456692
0
LINE
8
BLACK
6
CONTINUOUS
10
2.0358942519685037
20
1.2366728346456692
11
2.0358375196850393
21
1.2360967716535434
0
LINE
8
BLACK
6
CONTINUOUS
10
2.0358375196850393
20
1.2360967716535434
11
2.0357969291338582
21
1.2359988188976379
0
LINE
8
BLACK
6
CONTINUOUS
10
2.0357969291338582
20
1.2359988188976379
11
2.0357894094488187
21
1.2358929133858267
0
LINE
8
BLACK
6
CONTINUOUS
10
2.0357894094488187
20
1.2358929133858267
11
2.0355492125984251
21
1.2354007874015749
0
LINE
8
BLACK
6
CONTINUOUS
10
2.0355492125984251
20
1.2354007874015749
11
2.0353966141732283
21
1.2350323622047243
0
LINE
8
BLACK
6
CONTINUOUS
10
2.0353966141732283
20
1.2350323622047243
11
2.0353434645669291
21
1.2349792519685039
0
LINE
8
BLACK
6
CONTINUOUS
10
2.0353434645669291
20
1.2349792519685039
11
2.0332015354330708
21
1.2305904330708661
0
LINE
8
BLACK
6
CONTINUOUS
10
2.0332015354330708
20
1.2305904330708661
11
2.0330455118110238
21
1.2303426377952755
0
LINE
8
BLACK
6
CONTINUOUS
10
2.0330455118110238
20
1.2303426377952755
11
2.0330156692913386
21
1.2302705118110235
0
LINE
8
BLACK
6
CONTINUOUS
10
2.0330156692913386
20
1.2302705118110235
11
2.0329715354330706
21
1.2302251574803149
0
LINE
8
BLACK
6
CONTINUOUS
10
2.0329715354330706
20
1.2302251574803149
11
2.032893149606299
21
1.2301005511811023
0
LINE
8
BLACK
6
CONTINUOUS
10
2.032893149606299
20
1.2301005511811023
11
2.0326222440944881
21
1.2298656299212598
0
LINE
8
BLACK
6
CONTINUOUS
10
2.0326222440944881
20
1.2298656299212598
11
2.0302674803149605
21
1.2274420472440946
0
LINE
8
BLACK
6
CONTINUOUS
10
2.0302674803149605
20
1.2274420472440946
11
2.0300409842519684
21
1.2272562204724409
0
LINE
8
BLACK
6
CONTINUOUS
10
2.0300409842519684
20
1.2272562204724409
11
2.0299899212598427
21
1.2271972834645668
0
LINE
8
BLACK
6
CONTINUOUS
10
2.0299899212598427
20
1.2271972834645668
11
2.0299348818897638
21
1.2271691338582678
0
LINE
8
BLACK
6
CONTINUOUS
10
2.0299348818897638
20
1.2271691338582678
11
2.0298200393700787
21
1.2270748425196849
0
LINE
8
BLACK
6
CONTINUOUS
10
2.0298200393700787
20
1.2270748425196849
11
2.0294577559055118
21
1.2269248031496063
0
LINE
8
BLACK
6
CONTINUOUS
10
2.0294577559055118
20
1.2269248031496063
11
2.0247381889763778
21
1.2245079921259843
0
LINE
8
BLACK
6
CONTINUOUS
10
2.0247381889763778
20
1.2245079921259843
11
2.0241975590551182
21
1.2243011023622048
0
LINE
8
BLACK
6
CONTINUOUS
10
2.0241975590551182
20
1.2243011023622048
11
2.0240917322834644
21
1.224293622047244
0
LINE
8
BLACK
6
CONTINUOUS
10
2.0240917322834644
20
1.224293622047244
11
2.0239937401574801
21
1.2242529921259842
0
LINE
8
BLACK
6
CONTINUOUS
10
2.0239937401574801
20
1.2242529921259842
11
2.0234935433070866
21
1.2242511023622047
0
LINE
8
BLACK
6
CONTINUOUS
10
2.0234935433070866
20
1.2242511023622047
11
2.0230483464566928
21
1.2242194488188975
0
LINE
8
BLACK
6
CONTINUOUS
10
2.0230483464566928
20
1.2242194488188975
11
2.0229595275590553
21
1.2242490551181102
0
LINE
8
BLACK
6
CONTINUOUS
10
2.0229595275590553
20
1.2242490551181102
11
2.009131968503937
21
1.2241962598425196
0
LINE
8
BLACK
6
CONTINUOUS
10
2.009131968503937
20
1.2241962598425196
11
2.0085559055118112
21
1.2242529921259842
0
LINE
8
BLACK
6
CONTINUOUS
10
2.0085559055118112
20
1.2242529921259842
11
2.0084578740157482
21
1.224293622047244
0
LINE
8
BLACK
6
CONTINUOUS
10
2.0084578740157482
20
1.224293622047244
11
2.0083520866141731
21
1.2243011023622048
0
LINE
8
BLACK
6
CONTINUOUS
10
2.0083520866141731
20
1.2243011023622048
11
2.0078600393700787
21
1.2245412598425196
0
LINE
8
BLACK
6
CONTINUOUS
10
2.0078600393700787
20
1.2245412598425196
11
2.0074914960629919
21
1.2246938976377952
0
LINE
8
BLACK
6
CONTINUOUS
10
2.0074914960629919
20
1.2246938976377952
11
2.0074383464566927
21
1.2247470472440944
0
LINE
8
BLACK
6
CONTINUOUS
10
2.0074383464566927
20
1.2247470472440944
11
2.003049527559055
21
1.2268889370078739
0
LINE
8
BLACK
6
CONTINUOUS
10
2.003049527559055
20
1.2268889370078739
11
2.0028014960629923
21
1.2270450393700787
0
LINE
8
BLACK
6
CONTINUOUS
10
2.0028014960629923
20
1.2270450393700787
11
2.0027295669291338
21
1.2270748425196849
0
LINE
8
BLACK
6
CONTINUOUS
10
2.0027295669291338
20
1.2270748425196849
11
2.0026842913385825
21
1.2271188188976379
0
LINE
8
BLACK
6
CONTINUOUS
10
2.0026842913385825
20
1.2271188188976379
11
2.0025596456692911
21
1.2271972834645668
0
LINE
8
BLACK
6
CONTINUOUS
10
2.0025596456692911
20
1.2271972834645668
11
2.0023244881889761
21
1.2274684251968504
0
LINE
8
BLACK
6
CONTINUOUS
10
2.0023244881889761
20
1.2274684251968504
11
1.9999011811023621
21
1.229823031496063
0
LINE
8
BLACK
6
CONTINUOUS
10
1.9999011811023621
20
1.229823031496063
11
1.999533937007874
21
1.2302705118110235
0
LINE
8
BLACK
6
CONTINUOUS
10
1.999533937007874
20
1.2302705118110235
11
1.9990930708661416
21
1.2313349212598426
0
LINE
8
BLACK
6
CONTINUOUS
10
1.9990930708661416
20
1.2313349212598426
11
1.9990930708661416
21
1.2324870078740158
0
LINE
8
BLACK
6
CONTINUOUS
10
1.9990930708661416
20
1.2324870078740158
11
1.9995339763779527
21
1.2335514173228346
0
LINE
8
BLACK
6
CONTINUOUS
10
1.9995339763779527
20
1.2335514173228346
11
2.0003486614173229
21
1.2343661023622048
0
LINE
8
BLACK
6
CONTINUOUS
10
2.0003486614173229
20
1.2343661023622048
11
2.0014130708661417
21
1.2348069685039369
0
LINE
8
BLACK
6
CONTINUOUS
10
2.0014130708661417
20
1.2348069685039369
11
2.0025651574803147
21
1.2348069685039369
0
LINE
8
BLACK
6
CONTINUOUS
10
2.0025651574803147
20
1.2348069685039369
11
2.003629566929134
21
1.234366062992126
0
LINE
8
BLACK
6
CONTINUOUS
10
2.003629566929134
20
1.234366062992126
11
2.0062064173228347
21
1.2318622834645669
0
LINE
8
BLACK
6
CONTINUOUS
10
2.0062064173228347
20
1.2318622834645669
11
2.0099192519685039
21
1.2300502755905511
0
LINE
8
BLACK
6
CONTINUOUS
10
2.0099192519685039
20
1.2300502755905511
11
2.0228136614173229
21
1.2300994881889764
0
LINE
8
BLACK
6
CONTINUOUS
10
2.0228136614173229
20
1.2300994881889764
11
2.0265357086614171
21
1.2320054330708661
0
LINE
8
BLACK
6
CONTINUOUS
10
2.0265357086614171
20
1.2320054330708661
11
2.028228188976378
21
1.2337473228346456
0
LINE
8
BLACK
6
CONTINUOUS
10
2.028228188976378
20
1.2337473228346456
11
2.0300392519685038
21
1.2374582283464566
0
LINE
8
BLACK
6
CONTINUOUS
10
2.0300392519685038
20
1.2374582283464566
11
2.0299914566929131
21
1.2479728346456693
0
LINE
8
BLACK
6
CONTINUOUS
10
2.0299914566929131
20
1.2479728346456693
11
2.0280849999999999
21
1.2516957086614173
0
LINE
8
BLACK
6
CONTINUOUS
10
2.0280849999999999
20
1.2516957086614173
11
2.0263431889763779
21
1.2533881889763778
0
LINE
8
BLACK
6
CONTINUOUS
10
2.0263431889763779
20
1.2533881889763778
11
2.0226400393700787
21
1.2551954724409449
0
LINE
8
BLACK
6
CONTINUOUS
10
2.0226400393700787
20
1.2551954724409449
11
2.0162748031496061
21
1.2551486614173228
0
LINE
8
BLACK
6
CONTINUOUS
10
2.0162748031496061
20
1.2551486614173228
11
2.0159701181102361
21
1.2551787007874016
0
LINE
8
BLACK
6
CONTINUOUS
10
2.0159701181102361
20
1.2551787007874016
11
2.0158926771653545
21
1.2551735039370078
0
LINE
8
BLACK
6
CONTINUOUS
10
2.0158926771653545
20
1.2551735039370078
11
2.0158392913385828
21
1.2551915748031495
0
LINE
8
BLACK
6
CONTINUOUS
10
2.0158392913385828
20
1.2551915748031495
11
2.0156987401574802
21
1.2552053937007874
0
LINE
8
BLACK
6
CONTINUOUS
10
2.0156987401574802
20
1.2552053937007874
11
2.0152555118110236
21
1.2553890157480314
0
LINE
8
BLACK
6
CONTINUOUS
10
2.0152555118110236
20
1.2553890157480314
11
2.0148012992125985
21
1.2555425984251969
0
LINE
8
BLACK
6
CONTINUOUS
10
2.0148012992125985
20
1.2555425984251969
11
2.014726338582677
21
1.2556081889763779
0
LINE
8
BLACK
6
CONTINUOUS
10
2.014726338582677
20
1.2556081889763779
11
2.0146343307086614
21
1.2556462992125983
0
LINE
8
BLACK
6
CONTINUOUS
10
2.0146343307086614
20
1.2556462992125983
11
2.0142951574803147
21
1.2559854724409449
0
LINE
8
BLACK
6
CONTINUOUS
10
2.0142951574803147
20
1.2559854724409449
11
2.013934212598425
21
1.2563012992125984
0
LINE
8
BLACK
6
CONTINUOUS
10
2.013934212598425
20
1.2563012992125984
11
2.0138900393700787
21
1.256390590551181
0
LINE
8
BLACK
6
CONTINUOUS
10
2.0138900393700787
20
1.256390590551181
11
2.0138196850393699
21
1.2564609448818898
0
LINE
8
BLACK
6
CONTINUOUS
10
2.0138196850393699
20
1.2564609448818898
11
2.0136361417322832
21
1.2569040157480316
0
LINE
8
BLACK
6
CONTINUOUS
10
2.0136361417322832
20
1.2569040157480316
11
2.0134235039370076
21
1.2573340157480315
0
LINE
8
BLACK
6
CONTINUOUS
10
2.0134235039370076
20
1.2573340157480315
11
2.0134168503937007
21
1.2574333858267717
0
LINE
8
BLACK
6
CONTINUOUS
10
2.0134168503937007
20
1.2574333858267717
11
2.0133787795275588
21
1.2575253543307086
0
LINE
8
BLACK
6
CONTINUOUS
10
2.0133787795275588
20
1.2575253543307086
11
2.0133787795275588
21
1.2580050787401575
0
LINE
8
BLACK
6
CONTINUOUS
10
2.0133787795275588
20
1.2580050787401575
11
2.0133468897637794
21
1.2584835433070867
0
LINE
8
BLACK
6
CONTINUOUS
10
2.0133468897637794
20
1.2584835433070867
11
2.0133787795275588
21
1.2585778740157481
0
LINE
8
BLACK
6
CONTINUOUS
10
2.0133787795275588
20
1.2585778740157481
11
2.0133787795275588
21
1.2586774803149605
0
LINE
8
BLACK
6
CONTINUOUS
10
2.0133787795275588
20
1.2586774803149605
11
2.0135623622047243
21
1.2591207086614173
0
LINE
8
BLACK
6
CONTINUOUS
10
2.0135623622047243
20
1.2591207086614173
11
2.0137159842519683
21
1.2595749212598424
0
LINE
8
BLACK
6
CONTINUOUS
10
2.0137159842519683
20
1.2595749212598424
11
2.0137818110236219
21
1.2596505118110235
0
LINE
8
BLACK
6
CONTINUOUS
10
2.0137818110236219
20
1.2596505118110235
11
2.0138196850393699
21
1.2597418897637795
0
LINE
8
BLACK
6
CONTINUOUS
10
2.0138196850393699
20
1.2597418897637795
11
2.0141436614173229
21
1.2600659055118111
0
LINE
8
BLACK
6
CONTINUOUS
10
2.0141436614173229
20
1.2600659055118111
11
2.0264916141732283
21
1.2742403543307086
0
LINE
8
BLACK
6
CONTINUOUS
10
2.0264916141732283
20
1.2742403543307086
11
2.0019890944881888
21
1.2741962598425196
0
LINE
8
BLACK
6
CONTINUOUS
10
2.0019890944881888
20
1.2741962598425196
11
2.001413031496063
21
1.2742529921259842
0
LINE
8
BLACK
6
CONTINUOUS
10
2.001413031496063
20
1.2742529921259842
11
2.0003486220472442
21
1.2746938976377953
0
LINE
8
BLACK
6
CONTINUOUS
10
2.0003486220472442
20
1.2746938976377953
11
1.9995339763779527
21
1.2755085433070865
0
LINE
8
BLACK
6
CONTINUOUS
10
1.9995339763779527
20
1.2755085433070865
11
1.9990930708661416
21
1.2765729527559055
0
LINE
8
BLACK
6
CONTINUOUS
10
1.9990930708661416
20
1.2765729527559055
11
1.9990930708661416
21
1.2777250787401575
0
LINE
8
BLACK
6
CONTINUOUS
10
1.9990930708661416
20
1.2777250787401575
11
1.9995339763779527
21
1.2787894881889763
0
LINE
8
BLACK
6
CONTINUOUS
10
1.9995339763779527
20
1.2787894881889763
11
2.0003486220472442
21
1.2796041338582678
0
LINE
8
BLACK
6
CONTINUOUS
10
2.0003486220472442
20
1.2796041338582678
11
2.001413031496063
21
1.2800450393700786
0
LINE
8
BLACK
6
CONTINUOUS
10
2.001413031496063
20
1.2800450393700786
11
2.0329414960629921
21
1.2801017716535432
0
LINE
8
BLACK
6
CONTINUOUS
10
2.0329414960629921
20
1.2801017716535432
11
2.0332461417322834
21
1.2800717716535432
0
LINE
8
BLACK
6
CONTINUOUS
10
2.0111077952755907
20
1.3373214566929132
11
2.0224107086614174
21
1.3350731889763778
0
LINE
8
BLACK
6
CONTINUOUS
10
2.0224107086614174
20
1.3350731889763778
11
2.0333234645669291
21
1.3313688188976378
0
LINE
8
BLACK
6
CONTINUOUS
10
2.0333234645669291
20
1.3313688188976378
11
2.0436593307086612
21
1.3262717322834645
0
LINE
8
BLACK
6
CONTINUOUS
10
2.0436593307086612
20
1.3262717322834645
11
2.0532414566929131
21
1.3198691338582678
0
LINE
8
BLACK
6
CONTINUOUS
10
2.0532414566929131
20
1.3198691338582678
11
2.0619059055118112
21
1.3122706299212599
0
LINE
8
BLACK
6
CONTINUOUS
10
2.0619059055118112
20
1.3122706299212599
11
2.0695044094488186
21
1.3036061811023623
0
LINE
8
BLACK
6
CONTINUOUS
10
2.0695044094488186
20
1.3036061811023623
11
2.0759070078740156
21
1.2940240157480314
0
LINE
8
BLACK
6
CONTINUOUS
10
2.0759070078740156
20
1.2940240157480314
11
2.0810040944881889
21
1.2836881889763778
0
LINE
8
BLACK
6
CONTINUOUS
10
2.0810040944881889
20
1.2836881889763778
11
2.0847084645669289
21
1.272775433070866
0
LINE
8
BLACK
6
CONTINUOUS
10
2.0847084645669289
20
1.272775433070866
11
2.0869567322834643
21
1.2614725196850394
0
LINE
8
BLACK
6
CONTINUOUS
10
2.0869567322834643
20
1.2614725196850394
11
2.087710472440945
21
1.2499728740157481
0
LINE
8
BLACK
6
CONTINUOUS
10
2.087710472440945
20
1.2499728740157481
11
2.0869567322834643
21
1.2384732283464566
0
LINE
8
BLACK
6
CONTINUOUS
10
2.0869567322834643
20
1.2384732283464566
11
2.0847084645669289
21
1.2271703149606299
0
LINE
8
BLACK
6
CONTINUOUS
10
2.0847084645669289
20
1.2271703149606299
11
2.0810040944881889
21
1.2162575590551181
0
LINE
8
BLACK
6
CONTINUOUS
10
2.0810040944881889
20
1.2162575590551181
11
2.0759070078740156
21
1.2059216929133858
0
LINE
8
BLACK
6
CONTINUOUS
10
2.0759070078740156
20
1.2059216929133858
11
2.0695044094488186
21
1.1963395669291339
0
LINE
8
BLACK
6
CONTINUOUS
10
2.0695044094488186
20
1.1963395669291339
11
2.0619059055118112
21
1.1876751181102363
0
LINE
8
BLACK
6
CONTINUOUS
10
2.0619059055118112
20
1.1876751181102363
11
2.0532414566929131
21
1.1800766141732284
0
LINE
8
BLACK
6
CONTINUOUS
10
2.0532414566929131
20
1.1800766141732284
11
2.0436593307086612
21
1.1736740157480314
0
LINE
8
BLACK
6
CONTINUOUS
10
2.0436593307086612
20
1.1736740157480314
11
2.0333234645669291
21
1.1685769291338581
0
LINE
8
BLACK
6
CONTINUOUS
10
2.0333234645669291
20
1.1685769291338581
11
2.0224107086614174
21
1.1648725590551181
0
LINE
8
BLACK
6
CONTINUOUS
10
2.0224107086614174
20
1.1648725590551181
11
2.0111077952755907
21
1.1626242913385827
0
LINE
8
BLACK
6
CONTINUOUS
10
2.0111077952755907
20
1.1626242913385827
11
1.9996081496062992
21
1.1618705511811023
0
LINE
8
BLACK
6
CONTINUOUS
10
1.9996081496062992
20
1.1618705511811023
11
1.9881085039370079
21
1.1626242913385827
0
LINE
8
BLACK
6
CONTINUOUS
10
1.9881085039370079
20
1.1626242913385827
11
1.976805590551181
21
1.1648725590551181
0
LINE
8
BLACK
6
CONTINUOUS
10
1.976805590551181
20
1.1648725590551181
11
1.9658928346456692
21
1.1685769291338581
0
LINE
8
BLACK
6
CONTINUOUS
10
1.9658928346456692
20
1.1685769291338581
11
1.9555569685039369
21
1.1736740157480314
0
LINE
8
BLACK
6
CONTINUOUS
10
1.9555569685039369
20
1.1736740157480314
11
1.945974842519685
21
1.1800766141732284
0
LINE
8
BLACK
6
CONTINUOUS
10
1.945974842519685
20
1.1800766141732284
11
1.9373103937007874
21
1.1876751181102363
0
LINE
8
BLACK
6
CONTINUOUS
10
1.9373103937007874
20
1.1876751181102363
11
1.9297118897637795
21
1.1963395669291339
0
LINE
8
BLACK
6
CONTINUOUS
10
1.9297118897637795
20
1.1963395669291339
11
1.9233092913385825
21
1.2059216929133858
0
LINE
8
BLACK
6
CONTINUOUS
10
1.9233092913385825
20
1.2059216929133858
11
1.9182122047244095
21
1.2162575590551181
0
LINE
8
BLACK
6
CONTINUOUS
10
1.9182122047244095
20
1.2162575590551181
11
1.9145078346456692
21
1.2271703149606299
0
LINE
8
BLACK
6
CONTINUOUS
10
1.9145078346456692
20
1.2271703149606299
11
1.9122595669291338
21
1.2384732283464566
0
LINE
8
BLACK
6
CONTINUOUS
10
1.9122595669291338
20
1.2384732283464566
11
1.9115058267716536
21
1.2499728740157481
0
LINE
8
BLACK
6
CONTINUOUS
10
1.9115058267716536
20
1.2499728740157481
11
1.9122595669291338
21
1.2614725196850394
0
LINE
8
BLACK
6
CONTINUOUS
10
1.9122595669291338
20
1.2614725196850394
11
1.9145078346456692
21
1.272775433070866
0
LINE
8
BLACK
6
CONTINUOUS
10
1.9145078346456692
20
1.272775433070866
11
1.9182122047244095
21
1.2836881889763778
0
LINE
8
BLACK
6
CONTINUOUS
10
1.9182122047244095
20
1.2836881889763778
11
1.9233092913385825
21
1.2940240157480314
0
LINE
8
BLACK
6
CONTINUOUS
10
1.9233092913385825
20
1.2940240157480314
11
1.9297118897637795
21
1.3036061811023623
0
LINE
8
BLACK
6
CONTINUOUS
10
1.9297118897637795
20
1.3036061811023623
11
1.9373103937007874
21
1.3122706299212599
0
LINE
8
BLACK
6
CONTINUOUS
10
1.9373103937007874
20
1.3122706299212599
11
1.945974842519685
21
1.3198691338582678
0
LINE
8
BLACK
6
CONTINUOUS
10
1.945974842519685
20
1.3198691338582678
11
1.9555570078740157
21
1.3262717322834645
0
LINE
8
BLACK
6
CONTINUOUS
10
1.9555570078740157
20
1.3262717322834645
11
1.9658928346456692
21
1.3313688188976378
0
LINE
8
BLACK
6
CONTINUOUS
10
1.9658928346456692
20
1.3313688188976378
11
1.976805590551181
21
1.3350731889763778
0
LINE
8
BLACK
6
CONTINUOUS
10
1.976805590551181
20
1.3350731889763778
11
1.9881085039370079
21
1.3373214566929132
0
LINE
8
BLACK
6
CONTINUOUS
10
1.9881085039370079
20
1.3373214566929132
11
1.9996081496062992
21
1.3380751968503937
0
LINE
8
BLACK
6
CONTINUOUS
10
1.9996081496062992
20
1.3380751968503937
11
2.0111077952755907
21
1.3373214566929132
0
LINE
8
BLACK
6
CONTINUOUS
10
1.9179866141732282
20
1.238754251968504
11
1.9202744488188976
21
1.2277446062992126
0
LINE
8
BLACK
6
CONTINUOUS
10
1.9202744488188976
20
1.2277446062992126
11
1.9240401181102362
21
1.2171490551181101
0
LINE
8
BLACK
6
CONTINUOUS
10
1.9240401181102362
20
1.2171490551181101
11
1.929213464566929
21
1.2071649212598425
0
LINE
8
BLACK
6
CONTINUOUS
10
1.929213464566929
20
1.2071649212598425
11
1.9356981496062993
21
1.1979782283464566
0
LINE
8
BLACK
6
CONTINUOUS
10
1.9356981496062993
20
1.1979782283464566
11
1.9433733464566929
21
1.1897601181102362
0
LINE
8
BLACK
6
CONTINUOUS
10
1.9433733464566929
20
1.1897601181102362
11
1.9520961023622048
21
1.1826636220472442
0
LINE
8
BLACK
6
CONTINUOUS
10
1.9520961023622048
20
1.1826636220472442
11
1.9617038976377952
21
1.1768209842519686
0
LINE
8
BLACK
6
CONTINUOUS
10
1.9617038976377952
20
1.1768209842519686
11
1.9720177952755904
21
1.1723410236220473
0
LINE
8
BLACK
6
CONTINUOUS
10
1.9720177952755904
20
1.1723410236220473
11
1.9828456299212598
21
1.1693072047244095
0
LINE
8
BLACK
6
CONTINUOUS
10
1.9828456299212598
20
1.1693072047244095
11
1.993985748031496
21
1.1677760629921259
0
LINE
8
BLACK
6
CONTINUOUS
10
1.993985748031496
20
1.1677760629921259
11
2.0052305511811022
21
1.1677760629921259
0
LINE
8
BLACK
6
CONTINUOUS
10
2.0052305511811022
20
1.1677760629921259
11
2.0163706692913386
21
1.1693072047244095
0
LINE
8
BLACK
6
CONTINUOUS
10
2.0163706692913386
20
1.1693072047244095
11
2.027198503937008
21
1.1723410236220473
0
LINE
8
BLACK
6
CONTINUOUS
10
2.027198503937008
20
1.1723410236220473
11
2.0375124015748032
21
1.1768209842519686
0
LINE
8
BLACK
6
CONTINUOUS
10
2.0375124015748032
20
1.1768209842519686
11
2.0471201968503938
21
1.1826636220472442
0
LINE
8
BLACK
6
CONTINUOUS
10
2.0471201968503938
20
1.1826636220472442
11
2.0558429527559055
21
1.1897601181102362
0
LINE
8
BLACK
6
CONTINUOUS
10
2.0558429527559055
20
1.1897601181102362
11
2.0635181496062991
21
1.1979782283464566
0
LINE
8
BLACK
6
CONTINUOUS
10
2.0635181496062991
20
1.1979782283464566
11
2.0700028346456691
21
1.2071649212598425
0
LINE
8
BLACK
6
CONTINUOUS
10
2.0700028346456691
20
1.2071649212598425
11
2.0751761811023623
21
1.2171490551181101
0
LINE
8
BLACK
6
CONTINUOUS
10
2.0751761811023623
20
1.2171490551181101
11
2.0789418503937007
21
1.2277446062992126
0
LINE
8
BLACK
6
CONTINUOUS
10
2.0789418503937007
20
1.2277446062992126
11
2.0812296850393701
21
1.238754251968504
0
LINE
8
BLACK
6
CONTINUOUS
10
2.0812296850393701
20
1.238754251968504
11
2.0819970472440943
21
1.2499728740157481
0
LINE
8
BLACK
6
CONTINUOUS
10
2.0819970472440943
20
1.2499728740157481
11
2.0812296850393701
21
1.2611914960629922
0
LINE
8
BLACK
6
CONTINUOUS
10
2.0812296850393701
20
1.2611914960629922
11
2.0789418503937007
21
1.2722011417322834
0
LINE
8
BLACK
6
CONTINUOUS
10
2.0789418503937007
20
1.2722011417322834
11
2.0751761811023623
21
1.2827966929133858
0
LINE
8
BLACK
6
CONTINUOUS
10
2.0751761811023623
20
1.2827966929133858
11
2.0700028346456691
21
1.2927808267716536
0
LINE
8
BLACK
6
CONTINUOUS
10
2.0700028346456691
20
1.2927808267716536
11
2.0635181496062991
21
1.3019675196850393
0
LINE
8
BLACK
6
CONTINUOUS
10
2.0635181496062991
20
1.3019675196850393
11
2.0558429527559055
21
1.3101856299212598
0
LINE
8
BLACK
6
CONTINUOUS
10
2.0558429527559055
20
1.3101856299212598
11
2.0471201968503938
21
1.317282125984252
0
LINE
8
BLACK
6
CONTINUOUS
10
2.0471201968503938
20
1.317282125984252
11
2.0375124015748032
21
1.3231247637795276
0
LINE
8
BLACK
6
CONTINUOUS
10
2.0375124015748032
20
1.3231247637795276
11
2.027198503937008
21
1.3276047244094489
0
LINE
8
BLACK
6
CONTINUOUS
10
2.027198503937008
20
1.3276047244094489
11
2.0163706692913386
21
1.3306385433070866
0
LINE
8
BLACK
6
CONTINUOUS
10
2.0163706692913386
20
1.3306385433070866
11
2.0052305511811022
21
1.3321696850393701
0
LINE
8
BLACK
6
CONTINUOUS
10
2.0052305511811022
20
1.3321696850393701
11
1.993985748031496
21
1.3321696850393701
0
LINE
8
BLACK
6
CONTINUOUS
10
1.993985748031496
20
1.3321696850393701
11
1.9828456299212598
21
1.3306385433070866
0
LINE
8
BLACK
6
CONTINUOUS
10
1.9828456299212598
20
1.3306385433070866
11
1.9720177952755904
21
1.3276047244094489
0
LINE
8
BLACK
6
CONTINUOUS
10
1.9720177952755904
20
1.3276047244094489
11
1.9617038976377952
21
1.3231247637795276
0
LINE
8
BLACK
6
CONTINUOUS
10
1.9617038976377952
20
1.3231247637795276
11
1.9520961023622048
21
1.317282125984252
0
LINE
8
BLACK
6
CONTINUOUS
10
1.9520961023622048
20
1.317282125984252
11
1.9433733464566929
21
1.3101856299212598
0
LINE
8
BLACK
6
CONTINUOUS
10
1.9433733464566929
20
1.3101856299212598
11
1.9356981496062993
21
1.3019675196850393
0
LINE
8
BLACK
6
CONTINUOUS
10
1.9356981496062993
20
1.3019675196850393
11
1.929213464566929
21
1.2927808267716536
0
LINE
8
BLACK
6
CONTINUOUS
10
1.929213464566929
20
1.2927808267716536
11
1.9240401181102362
21
1.2827966929133858
0
LINE
8
BLACK
6
CONTINUOUS
10
1.9240401181102362
20
1.2827966929133858
11
1.9202744488188976
21
1.2722011417322834
0
LINE
8
BLACK
6
CONTINUOUS
10
1.9202744488188976
20
1.2722011417322834
11
1.9179866141732282
21
1.2611914960629922
0
LINE
8
BLACK
6
CONTINUOUS
10
1.9179866141732282
20
1.2611914960629922
11
1.9172192519685038
21
1.2499728740157481
0
LINE
8
BLACK
6
CONTINUOUS
10
1.9172192519685038
20
1.2499728740157481
11
1.9179866141732282
21
1.238754251968504
0
LINE
8
BLACK
6
CONTINUOUS
10
2.1379794881889764
20
1.3906641732283465
11
2.1390438976377952
21
1.3902232677165354
0
LINE
8
BLACK
6
CONTINUOUS
10
2.1390438976377952
20
1.3902232677165354
11
2.1398585433070867
21
1.3894086220472441
0
LINE
8
BLACK
6
CONTINUOUS
10
2.1398585433070867
20
1.3894086220472441
11
2.1402994488188978
21
1.3883442125984251
0
LINE
8
BLACK
6
CONTINUOUS
10
2.1402994488188978
20
1.3883442125984251
11
2.1403561811023621
21
1.1121775984251969
0
LINE
8
BLACK
6
CONTINUOUS
10
2.1403561811023621
20
1.1121775984251969
11
2.1402994488188978
21
1.1116015354330708
0
LINE
8
BLACK
6
CONTINUOUS
10
2.1402994488188978
20
1.1116015354330708
11
2.1398585433070867
21
1.110537125984252
0
LINE
8
BLACK
6
CONTINUOUS
10
2.1398585433070867
20
1.110537125984252
11
2.1390438976377952
21
1.1097224803149606
0
LINE
8
BLACK
6
CONTINUOUS
10
2.1390438976377952
20
1.1097224803149606
11
2.1379794881889764
21
1.1092815748031495
0
LINE
8
BLACK
6
CONTINUOUS
10
2.1379794881889764
20
1.1092815748031495
11
1.861812874015748
21
1.1092248425196851
0
LINE
8
BLACK
6
CONTINUOUS
10
1.861812874015748
20
1.1092248425196851
11
1.8612368110236219
21
1.1092815748031495
0
LINE
8
BLACK
6
CONTINUOUS
10
1.8612368110236219
20
1.1092815748031495
11
1.8601724015748031
21
1.1097224803149606
0
LINE
8
BLACK
6
CONTINUOUS
10
1.8601724015748031
20
1.1097224803149606
11
1.8593577559055117
21
1.110537125984252
0
LINE
8
BLACK
6
CONTINUOUS
10
1.8593577559055117
20
1.110537125984252
11
1.8589168503937008
21
1.1116015354330708
0
LINE
8
BLACK
6
CONTINUOUS
10
1.8589168503937008
20
1.1116015354330708
11
1.8588601181102362
21
1.3877681496062992
0
LINE
8
BLACK
6
CONTINUOUS
10
1.8588601181102362
20
1.3877681496062992
11
1.8589168503937008
21
1.3883442125984251
0
LINE
8
BLACK
6
CONTINUOUS
10
1.8589168503937008
20
1.3883442125984251
11
1.8593577559055117
21
1.3894086220472441
0
LINE
8
BLACK
6
CONTINUOUS
10
1.8593577559055117
20
1.3894086220472441
11
1.8601724015748031
21
1.3902232677165354
0
LINE
8
BLACK
6
CONTINUOUS
10
1.8601724015748031
20
1.3902232677165354
11
1.8612368110236219
21
1.3906641732283465
0
LINE
8
BLACK
6
CONTINUOUS
10
1.8612368110236219
20
1.3906641732283465
11
2.1374034251968506
21
1.390720905511811
0
LINE
8
BLACK
6
CONTINUOUS
10
2.1374034251968506
20
1.390720905511811
11
2.1379794881889764
21
1.3906641732283465
0
LINE
8
BLACK
6
CONTINUOUS
10
1.8647543307086614
20
1.1671017322834645
11
1.864765
21
1.1150743700787402
0
LINE
8
BLACK
6
CONTINUOUS
10
1.864765
20
1.1150743700787402
11
1.9167874803149605
21
1.1150850393700786
0
LINE
8
BLACK
6
CONTINUOUS
10
1.9167874803149605
20
1.1150850393700786
11
1.916775905511811
21
1.1269932677165355
0
LINE
8
BLACK
6
CONTINUOUS
10
1.916775905511811
20
1.1269932677165355
11
1.8795294094488189
21
1.126941377952756
0
LINE
8
BLACK
6
CONTINUOUS
10
1.8795294094488189
20
1.126941377952756
11
1.8789533464566928
21
1.1269981102362205
0
LINE
8
BLACK
6
CONTINUOUS
10
1.8789533464566928
20
1.1269981102362205
11
1.877888937007874
21
1.1274390157480314
0
LINE
8
BLACK
6
CONTINUOUS
10
1.877888937007874
20
1.1274390157480314
11
1.8770742913385827
21
1.1282536614173229
0
LINE
8
BLACK
6
CONTINUOUS
10
1.8770742913385827
20
1.1282536614173229
11
1.8766333858267716
21
1.1293180708661417
0
LINE
8
BLACK
6
CONTINUOUS
10
1.8766333858267716
20
1.1293180708661417
11
1.8765807086614172
21
1.1671132283464567
0
LINE
8
BLACK
6
CONTINUOUS
10
1.8765807086614172
20
1.1671132283464567
11
1.8647543307086614
21
1.1671017322834645
0
LINE
8
BLACK
6
CONTINUOUS
10
1.9225862992125984
20
1.3848279133858268
11
1.9226396456692914
21
1.3298941338582677
0
LINE
8
BLACK
6
CONTINUOUS
10
1.9226396456692914
20
1.3298941338582677
11
1.9225829133858268
21
1.3293180708661416
0
LINE
8
BLACK
6
CONTINUOUS
10
1.9225829133858268
20
1.3293180708661416
11
1.9221420078740157
21
1.3282536614173228
0
LINE
8
BLACK
6
CONTINUOUS
10
1.9221420078740157
20
1.3282536614173228
11
1.9213273622047244
21
1.3274390157480314
0
LINE
8
BLACK
6
CONTINUOUS
10
1.9213273622047244
20
1.3274390157480314
11
1.9202629527559054
21
1.3269981102362205
0
LINE
8
BLACK
6
CONTINUOUS
10
1.9202629527559054
20
1.3269981102362205
11
1.8647214960629921
21
1.3269442125984252
0
LINE
8
BLACK
6
CONTINUOUS
10
1.8647214960629921
20
1.3269442125984252
11
1.8647531102362205
21
1.172951062992126
0
LINE
8
BLACK
6
CONTINUOUS
10
1.8647531102362205
20
1.172951062992126
11
1.9196868897637795
21
1.17300437007874
0
LINE
8
BLACK
6
CONTINUOUS
10
1.9196868897637795
20
1.17300437007874
11
1.9202629527559054
21
1.1729476377952757
0
LINE
8
BLACK
6
CONTINUOUS
10
1.9202629527559054
20
1.1729476377952757
11
1.9213273622047244
21
1.1725067322834646
0
LINE
8
BLACK
6
CONTINUOUS
10
1.9213273622047244
20
1.1725067322834646
11
1.9221420078740157
21
1.1716920866141731
0
LINE
8
BLACK
6
CONTINUOUS
10
1.9221420078740157
20
1.1716920866141731
11
1.9225829133858268
21
1.1706276771653543
0
LINE
8
BLACK
6
CONTINUOUS
10
1.9225829133858268
20
1.1706276771653543
11
1.922636811023622
21
1.1150862598425197
0
LINE
8
BLACK
6
CONTINUOUS
10
1.922636811023622
20
1.1150862598425197
11
2.076629960629921
21
1.1151178740157479
0
LINE
8
BLACK
6
CONTINUOUS
10
2.076629960629921
20
1.1151178740157479
11
2.0765766535433072
21
1.1700516141732282
0
LINE
8
BLACK
6
CONTINUOUS
10
2.0765766535433072
20
1.1700516141732282
11
2.0766333858267716
21
1.1706276771653543
0
LINE
8
BLACK
6
CONTINUOUS
10
2.0766333858267716
20
1.1706276771653543
11
2.0770742913385827
21
1.1716920866141731
0
LINE
8
BLACK
6
CONTINUOUS
10
2.0770742913385827
20
1.1716920866141731
11
2.0778889370078741
21
1.1725067322834646
0
LINE
8
BLACK
6
CONTINUOUS
10
2.0778889370078741
20
1.1725067322834646
11
2.0789533464566929
21
1.1729476377952757
0
LINE
8
BLACK
6
CONTINUOUS
10
2.0789533464566929
20
1.1729476377952757
11
2.1344947637795273
21
1.1730015748031495
0
LINE
8
BLACK
6
CONTINUOUS
10
2.1344947637795273
20
1.1730015748031495
11
2.1344631496062991
21
1.3269947244094489
0
LINE
8
BLACK
6
CONTINUOUS
10
2.1344631496062991
20
1.3269947244094489
11
2.0795294094488188
21
1.3269413779527559
0
LINE
8
BLACK
6
CONTINUOUS
10
2.0795294094488188
20
1.3269413779527559
11
2.0789533464566929
21
1.3269981102362205
0
LINE
8
BLACK
6
CONTINUOUS
10
2.0789533464566929
20
1.3269981102362205
11
2.0778889370078741
21
1.3274390157480314
0
LINE
8
BLACK
6
CONTINUOUS
10
2.0778889370078741
20
1.3274390157480314
11
2.0770742913385827
21
1.3282536614173228
0
LINE
8
BLACK
6
CONTINUOUS
10
2.0770742913385827
20
1.3282536614173228
11
2.0766333858267716
21
1.3293180708661416
0
LINE
8
BLACK
6
CONTINUOUS
10
2.0766333858267716
20
1.3293180708661416
11
2.0765794488188978
21
1.3848595275590552
0
LINE
8
BLACK
6
CONTINUOUS
10
2.0765794488188978
20
1.3848595275590552
11
1.9225862992125984
21
1.3848279133858268
0
LINE
8
BLACK
6
CONTINUOUS
10
2.1225877559055117
20
1.1671406692913386
11
2.1226396456692913
21
1.1298941338582678
0
LINE
8
BLACK
6
CONTINUOUS
10
2.1226396456692913
20
1.1298941338582678
11
2.1225829133858269
21
1.1293180708661417
0
LINE
8
BLACK
6
CONTINUOUS
10
2.1225829133858269
20
1.1293180708661417
11
2.1221420078740159
21
1.1282536614173229
0
LINE
8
BLACK
6
CONTINUOUS
10
2.1221420078740159
20
1.1282536614173229
11
2.1213273622047244
21
1.1274390157480314
0
LINE
8
BLACK
6
CONTINUOUS
10
2.1213273622047244
20
1.1274390157480314
11
2.1202629527559056
21
1.1269981102362205
0
LINE
8
BLACK
6
CONTINUOUS
10
2.1202629527559056
20
1.1269981102362205
11
2.0824677952755906
21
1.1269454724409449
0
LINE
8
BLACK
6
CONTINUOUS
10
2.0824677952755906
20
1.1269454724409449
11
2.0824792913385828
21
1.115119094488189
0
LINE
8
BLACK
6
CONTINUOUS
10
2.0824792913385828
20
1.115119094488189
11
2.134506653543307
21
1.1151297637795274
0
LINE
8
BLACK
6
CONTINUOUS
10
2.134506653543307
20
1.1151297637795274
11
2.1344959842519686
21
1.1671522440944881
0
LINE
8
BLACK
6
CONTINUOUS
10
2.1344959842519686
20
1.1671522440944881
11
2.1225877559055117
21
1.1671406692913386
0
LINE
8
BLACK
6
CONTINUOUS
10
1.8824303149606298
20
1.1671188976377953
11
1.8824781102362205
21
1.1327950787401575
0
LINE
8
BLACK
6
CONTINUOUS
10
1.8824781102362205
20
1.1327950787401575
11
1.9167702362204724
21
1.1328428346456694
0
LINE
8
BLACK
6
CONTINUOUS
10
1.9167702362204724
20
1.1328428346456694
11
1.9167369291338583
21
1.1671522047244094
0
LINE
8
BLACK
6
CONTINUOUS
10
1.9167369291338583
20
1.1671522047244094
11
1.8824303149606298
21
1.1671188976377953
0
LINE
8
BLACK
6
CONTINUOUS
10
2.0824288188976379
20
1.1671016929133857
11
2.082462125984252
21
1.1327950787401575
0
LINE
8
BLACK
6
CONTINUOUS
10
2.082462125984252
20
1.1327950787401575
11
2.1167859448818898
21
1.1328428740157479
0
LINE
8
BLACK
6
CONTINUOUS
10
2.1167859448818898
20
1.1328428740157479
11
2.1167381889763779
21
1.167135
0
LINE
8
BLACK
6
CONTINUOUS
10
2.1167381889763779
20
1.167135
11
2.0824288188976379
21
1.1671016929133857
0
LINE
8
BLACK
6
CONTINUOUS
10
1.8647096062992126
20
1.3848160236220473
11
1.8647202755905512
21
1.3327935433070865
0
LINE
8
BLACK
6
CONTINUOUS
10
1.8647202755905512
20
1.3327935433070865
11
1.8766285039370079
21
1.3328051181102363
0
LINE
8
BLACK
6
CONTINUOUS
10
1.8766285039370079
20
1.3328051181102363
11
1.876576653543307
21
1.3700516141732284
0
LINE
8
BLACK
6
CONTINUOUS
10
1.876576653543307
20
1.3700516141732284
11
1.8766333858267716
21
1.3706276771653543
0
LINE
8
BLACK
6
CONTINUOUS
10
1.8766333858267716
20
1.3706276771653543
11
1.8770742913385827
21
1.3716920866141733
0
LINE
8
BLACK
6
CONTINUOUS
10
1.8770742913385827
20
1.3716920866141733
11
1.877888937007874
21
1.3725067322834645
0
LINE
8
BLACK
6
CONTINUOUS
10
1.877888937007874
20
1.3725067322834645
11
1.8789533464566928
21
1.3729476377952756
0
LINE
8
BLACK
6
CONTINUOUS
10
1.8789533464566928
20
1.3729476377952756
11
1.916748464566929
21
1.3730003149606298
0
LINE
8
BLACK
6
CONTINUOUS
10
1.916748464566929
20
1.3730003149606298
11
1.916736968503937
21
1.3848266929133859
0
LINE
8
BLACK
6
CONTINUOUS
10
1.916736968503937
20
1.3848266929133859
11
1.8647096062992126
21
1.3848160236220473
0
LINE
8
BLACK
6
CONTINUOUS
10
2.082446023622047
20
1.3671029527559055
11
2.0824793307086615
21
1.3327935826771653
0
LINE
8
BLACK
6
CONTINUOUS
10
2.0824793307086615
20
1.3327935826771653
11
2.1167859448818898
21
1.3328268897637794
0
LINE
8
BLACK
6
CONTINUOUS
10
2.1167859448818898
20
1.3328268897637794
11
2.1167381496062991
21
1.3671507086614172
0
LINE
8
BLACK
6
CONTINUOUS
10
2.1167381496062991
20
1.3671507086614172
11
2.082446023622047
21
1.3671029527559055
0
LINE
8
BLACK
6
CONTINUOUS
10
1.8824303149606298
20
1.3671029133858268
11
1.8824780708661417
21
1.3328107874015749
0
LINE
8
BLACK
6
CONTINUOUS
10
1.8824780708661417
20
1.3328107874015749
11
1.9167874409448817
21
1.332844094488189
0
LINE
8
BLACK
6
CONTINUOUS
10
1.9167874409448817
20
1.332844094488189
11
1.9167541338582677
21
1.3671507086614172
0
LINE
8
BLACK
6
CONTINUOUS
10
1.9167541338582677
20
1.3671507086614172
11
1.8824303149606298
21
1.3671029133858268
0
LINE
8
BLACK
6
CONTINUOUS
10
2.0824287795275591
20
1.3848607480314961
11
2.0824403543307084
21
1.3729525196850394
0
LINE
8
BLACK
6
CONTINUOUS
10
2.0824403543307084
20
1.3729525196850394
11
2.1196868897637793
21
1.3730043700787402
0
LINE
8
BLACK
6
CONTINUOUS
10
2.1196868897637793
20
1.3730043700787402
11
2.1202629527559056
21
1.3729476377952756
0
LINE
8
BLACK
6
CONTINUOUS
10
2.1202629527559056
20
1.3729476377952756
11
2.1213273622047244
21
1.3725067322834645
0
LINE
8
BLACK
6
CONTINUOUS
10
2.1213273622047244
20
1.3725067322834645
11
2.1221420078740159
21
1.3716920866141733
0
LINE
8
BLACK
6
CONTINUOUS
10
2.1221420078740159
20
1.3716920866141733
11
2.1225829133858269
21
1.3706276771653543
0
LINE
8
BLACK
6
CONTINUOUS
10
2.1225829133858269
20
1.3706276771653543
11
2.1226355511811024
21
1.332832559055118
0
LINE
8
BLACK
6
CONTINUOUS
10
2.1226355511811024
20
1.332832559055118
11
2.1344619291338582
21
1.3328440551181102
0
LINE
8
BLACK
6
CONTINUOUS
10
2.1344619291338582
20
1.3328440551181102
11
2.1344512598425198
21
1.3848714173228347
0
LINE
8
BLACK
6
CONTINUOUS
10
2.1344512598425198
20
1.3848714173228347
11
2.0824287795275591
21
1.3848607480314961
0
LINE
8
BLACK
6
CONTINUOUS
10
0.4134434251968504
20
1.7193135433070865
11
0.4267177559055118
21
1.7170581496062991
0
LINE
8
BLACK
6
CONTINUOUS
10
0.4267177559055118
20
1.7170581496062991
11
0.4396561023622047
21
1.7133306692913386
0
LINE
8
BLACK
6
CONTINUOUS
10
0.4396561023622047
20
1.7133306692913386
11
0.4520957874015748
21
1.7081779921259843
0
LINE
8
BLACK
6
CONTINUOUS
10
0.4520957874015748
20
1.7081779921259843
11
0.4638803149606299
21
1.7016649212598425
0
LINE
8
BLACK
6
CONTINUOUS
10
0.4638803149606299
20
1.7016649212598425
11
0.4748614960629921
21
1.6938733464566929
0
LINE
8
BLACK
6
CONTINUOUS
10
0.4748614960629921
20
1.6938733464566929
11
0.4849012598425197
21
1.6849012598425197
0
LINE
8
BLACK
6
CONTINUOUS
10
0.4849012598425197
20
1.6849012598425197
11
0.4938733464566929
21
1.6748614960629922
0
LINE
8
BLACK
6
CONTINUOUS
10
0.4938733464566929
20
1.6748614960629922
11
0.5016649212598425
21
1.6638803149606298
0
LINE
8
BLACK
6
CONTINUOUS
10
0.5016649212598425
20
1.6638803149606298
11
0.5081779921259842
21
1.6520957874015747
0
LINE
8
BLACK
6
CONTINUOUS
10
0.5081779921259842
20
1.6520957874015747
11
0.5133306692913385
21
1.6396561023622047
0
LINE
8
BLACK
6
CONTINUOUS
10
0.5133306692913385
20
1.6396561023622047
11
0.5170581496062993
21
1.6267177559055117
0
LINE
8
BLACK
6
CONTINUOUS
10
0.5170581496062993
20
1.6267177559055117
11
0.5193135433070866
21
1.6134434251968504
0
LINE
8
BLACK
6
CONTINUOUS
10
0.5193135433070866
20
1.6134434251968504
11
0.5200685039370079
21
1.5999999999999999
0
LINE
8
BLACK
6
CONTINUOUS
10
0.5200685039370079
20
1.5999999999999999
11
0.5193135433070866
21
1.5865565748031496
0
LINE
8
BLACK
6
CONTINUOUS
10
0.5193135433070866
20
1.5865565748031496
11
0.5170581496062993
21
1.5732822440944882
0
LINE
8
BLACK
6
CONTINUOUS
10
0.5170581496062993
20
1.5732822440944882
11
0.5133306692913385
21
1.5603438976377952
0
LINE
8
BLACK
6
CONTINUOUS
10
0.5133306692913385
20
1.5603438976377952
11
0.5081779921259842
21
1.5479042125984253
0
LINE
8
BLACK
6
CONTINUOUS
10
0.5081779921259842
20
1.5479042125984253
11
0.5016649212598425
21
1.5361196850393701
0
LINE
8
BLACK
6
CONTINUOUS
10
0.5016649212598425
20
1.5361196850393701
11
0.4938733464566929
21
1.5251385039370078
0
LINE
8
BLACK
6
CONTINUOUS
10
0.4938733464566929
20
1.5251385039370078
11
0.4849012598425197
21
1.5150987401574803
0
LINE
8
BLACK
6
CONTINUOUS
10
0.4849012598425197
20
1.5150987401574803
11
0.4748614960629921
21
1.5061266535433071
0
LINE
8
BLACK
6
CONTINUOUS
10
0.4748614960629921
20
1.5061266535433071
11
0.4638803149606299
21
1.4983350787401575
0
LINE
8
BLACK
6
CONTINUOUS
10
0.4638803149606299
20
1.4983350787401575
11
0.4520957874015748
21
1.4918220078740156
0
LINE
8
BLACK
6
CONTINUOUS
10
0.4520957874015748
20
1.4918220078740156
11
0.4396561023622047
21
1.4866693307086614
0
LINE
8
BLACK
6
CONTINUOUS
10
0.4396561023622047
20
1.4866693307086614
11
0.4267177559055118
21
1.4829418503937009
0
LINE
8
BLACK
6
CONTINUOUS
10
0.4267177559055118
20
1.4829418503937009
11
0.4134434251968504
21
1.4806864566929134
0
LINE
8
BLACK
6
CONTINUOUS
10
0.4134434251968504
20
1.4806864566929134
11
0.4
21
1.4799314960629921
0
LINE
8
BLACK
6
CONTINUOUS
10
0.4
20
1.4799314960629921
11
0.3865565748031496
21
1.4806864566929134
0
LINE
8
BLACK
6
CONTINUOUS
10
0.3865565748031496
20
1.4806864566929134
11
0.3732822440944882
21
1.4829418503937009
0
LINE
8
BLACK
6
CONTINUOUS
10
0.3732822440944882
20
1.4829418503937009
11
0.3603438976377953
21
1.4866693307086614
0
LINE
8
BLACK
6
CONTINUOUS
10
0.3603438976377953
20
1.4866693307086614
11
0.3479042125984252
21
1.4918220078740156
0
LINE
8
BLACK
6
CONTINUOUS
10
0.3479042125984252
20
1.4918220078740156
11
0.3361196850393701
21
1.4983350787401575
0
LINE
8
BLACK
6
CONTINUOUS
10
0.3361196850393701
20
1.4983350787401575
11
0.3251385039370079
21
1.5061266535433071
0
LINE
8
BLACK
6
CONTINUOUS
10
0.3251385039370079
20
1.5061266535433071
11
0.3150987401574803
21
1.5150987401574803
0
LINE
8
BLACK
6
CONTINUOUS
10
0.3150987401574803
20
1.5150987401574803
11
0.3061266535433071
21
1.5251385039370078
0
LINE
8
BLACK
6
CONTINUOUS
10
0.3061266535433071
20
1.5251385039370078
11
0.2983350787401575
21
1.5361196850393701
0
LINE
8
BLACK
6
CONTINUOUS
10
0.2983350787401575
20
1.5361196850393701
11
0.2918220078740157
21
1.5479042125984253
0
LINE
8
BLACK
6
CONTINUOUS
10
0.2918220078740157
20
1.5479042125984253
11
0.2866693307086614
21
1.5603438976377952
0
LINE
8
BLACK
6
CONTINUOUS
10
0.2866693307086614
20
1.5603438976377952
11
0.2829418503937008
21
1.5732822440944882
0
LINE
8
BLACK
6
CONTINUOUS
10
0.2829418503937008
20
1.5732822440944882
11
0.2806864566929134
21
1.5865565748031496
0
LINE
8
BLACK
6
CONTINUOUS
10
0.2806864566929134
20
1.5865565748031496
11
0.2799314960629921
21
1.5999999999999999
0
LINE
8
BLACK
6
CONTINUOUS
10
0.2799314960629921
20
1.5999999999999999
11
0.2806864566929134
21
1.6134434251968504
0
LINE
8
BLACK
6
CONTINUOUS
10
0.2806864566929134
20
1.6134434251968504
11
0.2829418503937008
21
1.6267177559055117
0
LINE
8
BLACK
6
CONTINUOUS
10
0.2829418503937008
20
1.6267177559055117
11
0.2866693307086614
21
1.6396561023622047
0
LINE
8
BLACK
6
CONTINUOUS
10
0.2866693307086614
20
1.6396561023622047
11
0.2918220078740157
21
1.6520957874015747
0
LINE
8
BLACK
6
CONTINUOUS
10
0.2918220078740157
20
1.6520957874015747
11
0.2983350787401575
21
1.6638803149606298
0
LINE
8
BLACK
6
CONTINUOUS
10
0.2983350787401575
20
1.6638803149606298
11
0.3061266535433071
21
1.6748614960629922
0
LINE
8
BLACK
6
CONTINUOUS
10
0.3061266535433071
20
1.6748614960629922
11
0.3150987401574803
21
1.6849012598425197
0
LINE
8
BLACK
6
CONTINUOUS
10
0.3150987401574803
20
1.6849012598425197
11
0.3251385039370079
21
1.6938733464566929
0
LINE
8
BLACK
6
CONTINUOUS
10
0.3251385039370079
20
1.6938733464566929
11
0.3361196850393701
21
1.7016649212598425
0
LINE
8
BLACK
6
CONTINUOUS
10
0.3361196850393701
20
1.7016649212598425
11
0.3479042125984252
21
1.7081779921259843
0
LINE
8
BLACK
6
CONTINUOUS
10
0.3479042125984252
20
1.7081779921259843
11
0.3603438976377953
21
1.7133306692913386
0
LINE
8
BLACK
6
CONTINUOUS
10
0.3603438976377953
20
1.7133306692913386
11
0.3732822440944882
21
1.7170581496062991
0
LINE
8
BLACK
6
CONTINUOUS
10
0.3732822440944882
20
1.7170581496062991
11
0.3865565748031496
21
1.7193135433070865
0
LINE
8
BLACK
6
CONTINUOUS
10
0.3865565748031496
20
1.7193135433070865
11
0.4
21
1.7200685039370078
0
LINE
8
BLACK
6
CONTINUOUS
10
0.4
20
1.7200685039370078
11
0.4134434251968504
21
1.7193135433070865
0
LINE
8
BLACK
6
CONTINUOUS
10
0.2844582677165354
20
1.5864951181102362
11
0.2868073228346457
21
1.5731728346456693
0
LINE
8
BLACK
6
CONTINUOUS
10
0.2868073228346457
20
1.5731728346456693
11
0.2906871653543307
21
1.5602133858267717
0
LINE
8
BLACK
6
CONTINUOUS
10
0.2906871653543307
20
1.5602133858267717
11
0.2960452362204724
21
1.547791968503937
0
LINE
8
BLACK
6
CONTINUOUS
10
0.2960452362204724
20
1.547791968503937
11
0.3028091338582677
21
1.5360765354330708
0
LINE
8
BLACK
6
CONTINUOUS
10
0.3028091338582677
20
1.5360765354330708
11
0.3108873622047244
21
1.5252255905511811
0
LINE
8
BLACK
6
CONTINUOUS
10
0.3108873622047244
20
1.5252255905511811
11
0.3201706692913386
21
1.5153858661417323
0
LINE
8
BLACK
6
CONTINUOUS
10
0.3201706692913386
20
1.5153858661417323
11
0.3305335433070866
21
1.5066903543307086
0
LINE
8
BLACK
6
CONTINUOUS
10
0.3305335433070866
20
1.5066903543307086
11
0.3418358267716535
21
1.4992567322834645
0
LINE
8
BLACK
6
CONTINUOUS
10
0.3418358267716535
20
1.4992567322834645
11
0.3539247244094488
21
1.4931854724409448
0
LINE
8
BLACK
6
CONTINUOUS
10
0.3539247244094488
20
1.4931854724409448
11
0.3666366535433071
21
1.4885587007874015
0
LINE
8
BLACK
6
CONTINUOUS
10
0.3666366535433071
20
1.4885587007874015
11
0.3797998031496063
21
1.4854389763779527
0
LINE
8
BLACK
6
CONTINUOUS
10
0.3797998031496063
20
1.4854389763779527
11
0.3932361023622047
21
1.4838685039370079
0
LINE
8
BLACK
6
CONTINUOUS
10
0.3932361023622047
20
1.4838685039370079
11
0.4067638976377952
21
1.4838685039370079
0
LINE
8
BLACK
6
CONTINUOUS
10
0.4067638976377952
20
1.4838685039370079
11
0.4202001968503937
21
1.4854389763779527
0
LINE
8
BLACK
6
CONTINUOUS
10
0.4202001968503937
20
1.4854389763779527
11
0.4333633464566929
21
1.4885587007874015
0
LINE
8
BLACK
6
CONTINUOUS
10
0.4333633464566929
20
1.4885587007874015
11
0.4460752755905512
21
1.4931854724409448
0
LINE
8
BLACK
6
CONTINUOUS
10
0.4460752755905512
20
1.4931854724409448
11
0.4581641732283465
21
1.4992567322834645
0
LINE
8
BLACK
6
CONTINUOUS
10
0.4581641732283465
20
1.4992567322834645
11
0.4694664566929134
21
1.5066903543307086
0
LINE
8
BLACK
6
CONTINUOUS
10
0.4694664566929134
20
1.5066903543307086
11
0.4798293307086614
21
1.5153858661417323
0
LINE
8
BLACK
6
CONTINUOUS
10
0.4798293307086614
20
1.5153858661417323
11
0.4891126377952756
21
1.5252255905511811
0
LINE
8
BLACK
6
CONTINUOUS
10
0.4891126377952756
20
1.5252255905511811
11
0.4971908661417322
21
1.5360765354330708
0
LINE
8
BLACK
6
CONTINUOUS
10
0.4971908661417322
20
1.5360765354330708
11
0.5039547637795275
21
1.547791968503937
0
LINE
8
BLACK
6
CONTINUOUS
10
0.5039547637795275
20
1.547791968503937
11
0.5093128346456692
21
1.5602133858267717
0
LINE
8
BLACK
6
CONTINUOUS
10
0.5093128346456692
20
1.5602133858267717
11
0.5131926771653543
21
1.5731728346456693
0
LINE
8
BLACK
6
CONTINUOUS
10
0.5131926771653543
20
1.5731728346456693
11
0.5155417322834646
21
1.5864951181102362
0
LINE
8
BLACK
6
CONTINUOUS
10
0.5155417322834646
20
1.5864951181102362
11
0.5163283070866141
21
1.5999999999999999
0
LINE
8
BLACK
6
CONTINUOUS
10
0.5163283070866141
20
1.5999999999999999
11
0.5155417322834646
21
1.6135048818897637
0
LINE
8
BLACK
6
CONTINUOUS
10
0.5155417322834646
20
1.6135048818897637
11
0.5131926771653543
21
1.6268271653543307
0
LINE
8
BLACK
6
CONTINUOUS
10
0.5131926771653543
20
1.6268271653543307
11
0.5093128346456692
21
1.6397866141732282
0
LINE
8
BLACK
6
CONTINUOUS
10
0.5093128346456692
20
1.6397866141732282
11
0.5039547637795275
21
1.652208031496063
0
LINE
8
BLACK
6
CONTINUOUS
10
0.5039547637795275
20
1.652208031496063
11
0.4971908661417322
21
1.6639234645669292
0
LINE
8
BLACK
6
CONTINUOUS
10
0.4971908661417322
20
1.6639234645669292
11
0.4891126377952756
21
1.6747744094488188
0
LINE
8
BLACK
6
CONTINUOUS
10
0.4891126377952756
20
1.6747744094488188
11
0.4798293307086614
21
1.6846141338582676
0
LINE
8
BLACK
6
CONTINUOUS
10
0.4798293307086614
20
1.6846141338582676
11
0.4694664566929134
21
1.6933096456692913
0
LINE
8
BLACK
6
CONTINUOUS
10
0.4694664566929134
20
1.6933096456692913
11
0.4581641732283465
21
1.7007432677165355
0
LINE
8
BLACK
6
CONTINUOUS
10
0.4581641732283465
20
1.7007432677165355
11
0.4460752755905512
21
1.7068145275590552
0
LINE
8
BLACK
6
CONTINUOUS
10
0.4460752755905512
20
1.7068145275590552
11
0.4333633464566929
21
1.7114412992125985
0
LINE
8
BLACK
6
CONTINUOUS
10
0.4333633464566929
20
1.7114412992125985
11
0.4202001968503937
21
1.7145610236220472
0
LINE
8
BLACK
6
CONTINUOUS
10
0.4202001968503937
20
1.7145610236220472
11
0.4067638976377952
21
1.7161314960629921
0
LINE
8
BLACK
6
CONTINUOUS
10
0.4067638976377952
20
1.7161314960629921
11
0.3932361023622047
21
1.7161314960629921
0
LINE
8
BLACK
6
CONTINUOUS
10
0.3932361023622047
20
1.7161314960629921
11
0.3797998031496063
21
1.7145610236220472
0
LINE
8
BLACK
6
CONTINUOUS
10
0.3797998031496063
20
1.7145610236220472
11
0.3666366535433071
21
1.7114412992125985
0
LINE
8
BLACK
6
CONTINUOUS
10
0.3666366535433071
20
1.7114412992125985
11
0.3539247244094488
21
1.7068145275590552
0
LINE
8
BLACK
6
CONTINUOUS
10
0.3539247244094488
20
1.7068145275590552
11
0.3418358267716535
21
1.7007432677165355
0
LINE
8
BLACK
6
CONTINUOUS
10
0.3418358267716535
20
1.7007432677165355
11
0.3305335433070866
21
1.6933096456692913
0
LINE
8
BLACK
6
CONTINUOUS
10
0.3305335433070866
20
1.6933096456692913
11
0.3201706692913386
21
1.6846141338582676
0
LINE
8
BLACK
6
CONTINUOUS
10
0.3201706692913386
20
1.6846141338582676
11
0.3108873622047244
21
1.6747744094488188
0
LINE
8
BLACK
6
CONTINUOUS
10
0.3108873622047244
20
1.6747744094488188
11
0.3028091338582677
21
1.6639234645669292
0
LINE
8
BLACK
6
CONTINUOUS
10
0.3028091338582677
20
1.6639234645669292
11
0.2960452362204724
21
1.652208031496063
0
LINE
8
BLACK
6
CONTINUOUS
10
0.2960452362204724
20
1.652208031496063
11
0.2906871653543307
21
1.6397866141732282
0
LINE
8
BLACK
6
CONTINUOUS
10
0.2906871653543307
20
1.6397866141732282
11
0.2868073228346457
21
1.6268271653543307
0
LINE
8
BLACK
6
CONTINUOUS
10
0.2868073228346457
20
1.6268271653543307
11
0.2844582677165354
21
1.6135048818897637
0
LINE
8
BLACK
6
CONTINUOUS
10
0.2844582677165354
20
1.6135048818897637
11
0.2836716929133858
21
1.5999999999999999
0
LINE
8
BLACK
6
CONTINUOUS
10
0.2836716929133858
20
1.5999999999999999
11
0.2844582677165354
21
1.5864951181102362
0
LINE
8
BLACK
6
CONTINUOUS
10
2.0134434251968503
20
1.7193135433070865
11
2.0267177559055116
21
1.7170581496062991
0
LINE
8
BLACK
6
CONTINUOUS
10
2.0267177559055116
20
1.7170581496062991
11
2.0396561023622048
21
1.7133306692913386
0
LINE
8
BLACK
6
CONTINUOUS
10
2.0396561023622048
20
1.7133306692913386
11
2.0520957874015746
21
1.7081779921259843
0
LINE
8
BLACK
6
CONTINUOUS
10
2.0520957874015746
20
1.7081779921259843
11
2.0638803149606297
21
1.7016649212598425
0
LINE
8
BLACK
6
CONTINUOUS
10
2.0638803149606297
20
1.7016649212598425
11
2.0748614960629919
21
1.6938733464566929
0
LINE
8
BLACK
6
CONTINUOUS
10
2.0748614960629919
20
1.6938733464566929
11
2.0849012598425198
21
1.6849012598425197
0
LINE
8
BLACK
6
CONTINUOUS
10
2.0849012598425198
20
1.6849012598425197
11
2.093873346456693
21
1.6748614960629922
0
LINE
8
BLACK
6
CONTINUOUS
10
2.093873346456693
20
1.6748614960629922
11
2.1016649212598426
21
1.6638803149606298
0
LINE
8
BLACK
6
CONTINUOUS
10
2.1016649212598426
20
1.6638803149606298
11
2.108177992125984
21
1.6520957874015747
0
LINE
8
BLACK
6
CONTINUOUS
10
2.108177992125984
20
1.6520957874015747
11
2.1133306692913387
21
1.6396561023622047
0
LINE
8
BLACK
6
CONTINUOUS
10
2.1133306692913387
20
1.6396561023622047
11
2.117058149606299
21
1.6267177559055117
0
LINE
8
BLACK
6
CONTINUOUS
10
2.117058149606299
20
1.6267177559055117
11
2.1193135433070864
21
1.6134434251968504
0
LINE
8
BLACK
6
CONTINUOUS
10
2.1193135433070864
20
1.6134434251968504
11
2.120068503937008
21
1.5999999999999999
0
LINE
8
BLACK
6
CONTINUOUS
10
2.120068503937008
20
1.5999999999999999
11
2.1193135433070864
21
1.5865565748031496
0
LINE
8
BLACK
6
CONTINUOUS
10
2.1193135433070864
20
1.5865565748031496
11
2.117058149606299
21
1.5732822440944882
0
LINE
8
BLACK
6
CONTINUOUS
10
2.117058149606299
20
1.5732822440944882
11
2.1133306692913387
21
1.5603438976377952
0
LINE
8
BLACK
6
CONTINUOUS
10
2.1133306692913387
20
1.5603438976377952
11
2.108177992125984
21
1.5479042125984253
0
LINE
8
BLACK
6
CONTINUOUS
10
2.108177992125984
20
1.5479042125984253
11
2.1016649212598426
21
1.5361196850393701
0
LINE
8
BLACK
6
CONTINUOUS
10
2.1016649212598426
20
1.5361196850393701
11
2.093873346456693
21
1.5251385039370078
0
LINE
8
BLACK
6
CONTINUOUS
10
2.093873346456693
20
1.5251385039370078
11
2.0849012598425198
21
1.5150987401574803
0
LINE
8
BLACK
6
CONTINUOUS
10
2.0849012598425198
20
1.5150987401574803
11
2.0748614960629919
21
1.5061266535433071
0
LINE
8
BLACK
6
CONTINUOUS
10
2.0748614960629919
20
1.5061266535433071
11
2.0638803149606297
21
1.4983350787401575
0
LINE
8
BLACK
6
CONTINUOUS
10
2.0638803149606297
20
1.4983350787401575
11
2.0520957874015746
21
1.4918220078740156
0
LINE
8
BLACK
6
CONTINUOUS
10
2.0520957874015746
20
1.4918220078740156
11
2.0396561023622048
21
1.4866693307086614
0
LINE
8
BLACK
6
CONTINUOUS
10
2.0396561023622048
20
1.4866693307086614
11
2.0267177559055116
21
1.4829418503937009
0
LINE
8
BLACK
6
CONTINUOUS
10
2.0267177559055116
20
1.4829418503937009
11
2.0134434251968503
21
1.4806864566929134
0
LINE
8
BLACK
6
CONTINUOUS
10
2.0134434251968503
20
1.4806864566929134
11
2.
21
1.4799314960629921
0
LINE
8
BLACK
6
CONTINUOUS
10
2.
20
1.4799314960629921
11
1.9865565748031495
21
1.4806864566929134
0
LINE
8
BLACK
6
CONTINUOUS
10
1.9865565748031495
20
1.4806864566929134
11
1.9732822440944882
21
1.4829418503937009
0
LINE
8
BLACK
6
CONTINUOUS
10
1.9732822440944882
20
1.4829418503937009
11
1.9603438976377952
21
1.4866693307086614
0
LINE
8
BLACK
6
CONTINUOUS
10
1.9603438976377952
20
1.4866693307086614
11
1.9479042125984252
21
1.4918220078740156
0
LINE
8
BLACK
6
CONTINUOUS
10
1.9479042125984252
20
1.4918220078740156
11
1.93611968503937
21
1.4983350787401575
0
LINE
8
BLACK
6
CONTINUOUS
10
1.93611968503937
20
1.4983350787401575
11
1.9251385039370079
21
1.5061266535433071
0
LINE
8
BLACK
6
CONTINUOUS
10
1.9251385039370079
20
1.5061266535433071
11
1.9150987401574802
21
1.5150987401574803
0
LINE
8
BLACK
6
CONTINUOUS
10
1.9150987401574802
20
1.5150987401574803
11
1.906126653543307
21
1.5251385039370078
0
LINE
8
BLACK
6
CONTINUOUS
10
1.906126653543307
20
1.5251385039370078
11
1.8983350787401574
21
1.5361196850393701
0
LINE
8
BLACK
6
CONTINUOUS
10
1.8983350787401574
20
1.5361196850393701
11
1.8918220078740158
21
1.5479042125984253
0
LINE
8
BLACK
6
CONTINUOUS
10
1.8918220078740158
20
1.5479042125984253
11
1.8866693307086613
21
1.5603438976377952
0
LINE
8
BLACK
6
CONTINUOUS
10
1.8866693307086613
20
1.5603438976377952
11
1.8829418503937008
21
1.5732822440944882
0
LINE
8
BLACK
6
CONTINUOUS
10
1.8829418503937008
20
1.5732822440944882
11
1.8806864566929133
21
1.5865565748031496
0
LINE
8
BLACK
6
CONTINUOUS
10
1.8806864566929133
20
1.5865565748031496
11
1.879931496062992
21
1.5999999999999999
0
LINE
8
BLACK
6
CONTINUOUS
10
1.879931496062992
20
1.5999999999999999
11
1.8806864566929133
21
1.6134434251968504
0
LINE
8
BLACK
6
CONTINUOUS
10
1.8806864566929133
20
1.6134434251968504
11
1.8829418503937008
21
1.6267177559055117
0
LINE
8
BLACK
6
CONTINUOUS
10
1.8829418503937008
20
1.6267177559055117
11
1.8866693307086613
21
1.6396561023622047
0
LINE
8
BLACK
6
CONTINUOUS
10
1.8866693307086613
20
1.6396561023622047
11
1.8918220078740158
21
1.6520957874015747
0
LINE
8
BLACK
6
CONTINUOUS
10
1.8918220078740158
20
1.6520957874015747
11
1.8983350787401574
21
1.6638803149606298
0
LINE
8
BLACK
6
CONTINUOUS
10
1.8983350787401574
20
1.6638803149606298
11
1.906126653543307
21
1.6748614960629922
0
LINE
8
BLACK
6
CONTINUOUS
10
1.906126653543307
20
1.6748614960629922
11
1.9150987401574802
21
1.6849012598425197
0
LINE
8
BLACK
6
CONTINUOUS
10
1.9150987401574802
20
1.6849012598425197
11
1.9251385039370079
21
1.6938733464566929
0
LINE
8
BLACK
6
CONTINUOUS
10
1.9251385039370079
20
1.6938733464566929
11
1.93611968503937
21
1.7016649212598425
0
LINE
8
BLACK
6
CONTINUOUS
10
1.93611968503937
20
1.7016649212598425
11
1.9479042125984252
21
1.7081779921259843
0
LINE
8
BLACK
6
CONTINUOUS
10
1.9479042125984252
20
1.7081779921259843
11
1.9603438976377952
21
1.7133306692913386
0
LINE
8
BLACK
6
CONTINUOUS
10
1.9603438976377952
20
1.7133306692913386
11
1.9732822440944882
21
1.7170581496062991
0
LINE
8
BLACK
6
CONTINUOUS
10
1.9732822440944882
20
1.7170581496062991
11
1.9865565748031495
21
1.7193135433070865
0
LINE
8
BLACK
6
CONTINUOUS
10
1.9865565748031495
20
1.7193135433070865
11
2.
21
1.7200685039370078
0
LINE
8
BLACK
6
CONTINUOUS
10
2.
20
1.7200685039370078
11
2.0134434251968503
21
1.7193135433070865
0
LINE
8
BLACK
6
CONTINUOUS
10
1.8844582677165354
20
1.5864951181102362
11
1.8868073228346456
21
1.5731728346456693
0
LINE
8
BLACK
6
CONTINUOUS
10
1.8868073228346456
20
1.5731728346456693
11
1.8906871653543307
21
1.5602133858267717
0
LINE
8
BLACK
6
CONTINUOUS
10
1.8906871653543307
20
1.5602133858267717
11
1.8960452362204725
21
1.547791968503937
0
LINE
8
BLACK
6
CONTINUOUS
10
1.8960452362204725
20
1.547791968503937
11
1.9028091338582678
21
1.5360765354330708
0
LINE
8
BLACK
6
CONTINUOUS
10
1.9028091338582678
20
1.5360765354330708
11
1.9108873622047244
21
1.5252255905511811
0
LINE
8
BLACK
6
CONTINUOUS
10
1.9108873622047244
20
1.5252255905511811
11
1.9201706692913385
21
1.5153858661417323
0
LINE
8
BLACK
6
CONTINUOUS
10
1.9201706692913385
20
1.5153858661417323
11
1.9305335433070865
21
1.5066903543307086
0
LINE
8
BLACK
6
CONTINUOUS
10
1.9305335433070865
20
1.5066903543307086
11
1.9418358267716536
21
1.4992567322834645
0
LINE
8
BLACK
6
CONTINUOUS
10
1.9418358267716536
20
1.4992567322834645
11
1.9539247244094489
21
1.4931854724409448
0
LINE
8
BLACK
6
CONTINUOUS
10
1.9539247244094489
20
1.4931854724409448
11
1.9666366535433071
21
1.4885587007874015
0
LINE
8
BLACK
6
CONTINUOUS
10
1.9666366535433071
20
1.4885587007874015
11
1.9797998031496062
21
1.4854389763779527
0
LINE
8
BLACK
6
CONTINUOUS
10
1.9797998031496062
20
1.4854389763779527
11
1.9932361023622047
21
1.4838685039370079
0
LINE
8
BLACK
6
CONTINUOUS
10
1.9932361023622047
20
1.4838685039370079
11
2.0067638976377951
21
1.4838685039370079
0
LINE
8
BLACK
6
CONTINUOUS
10
2.0067638976377951
20
1.4838685039370079
11
2.0202001968503938
21
1.4854389763779527
0
LINE
8
BLACK
6
CONTINUOUS
10
2.0202001968503938
20
1.4854389763779527
11
2.0333633464566927
21
1.4885587007874015
0
LINE
8
BLACK
6
CONTINUOUS
10
2.0333633464566927
20
1.4885587007874015
11
2.0460752755905509
21
1.4931854724409448
0
LINE
8
BLACK
6
CONTINUOUS
10
2.0460752755905509
20
1.4931854724409448
11
2.0581641732283464
21
1.4992567322834645
0
LINE
8
BLACK
6
CONTINUOUS
10
2.0581641732283464
20
1.4992567322834645
11
2.0694664566929135
21
1.5066903543307086
0
LINE
8
BLACK
6
CONTINUOUS
10
2.0694664566929135
20
1.5066903543307086
11
2.0798293307086615
21
1.5153858661417323
0
LINE
8
BLACK
6
CONTINUOUS
10
2.0798293307086615
20
1.5153858661417323
11
2.0891126377952753
21
1.5252255905511811
0
LINE
8
BLACK
6
CONTINUOUS
10
2.0891126377952753
20
1.5252255905511811
11
2.0971908661417324
21
1.5360765354330708
0
LINE
8
BLACK
6
CONTINUOUS
10
2.0971908661417324
20
1.5360765354330708
11
2.1039547637795275
21
1.547791968503937
0
LINE
8
BLACK
6
CONTINUOUS
10
2.1039547637795275
20
1.547791968503937
11
2.1093128346456691
21
1.5602133858267717
0
LINE
8
BLACK
6
CONTINUOUS
10
2.1093128346456691
20
1.5602133858267717
11
2.1131926771653542
21
1.5731728346456693
0
LINE
8
BLACK
6
CONTINUOUS
10
2.1131926771653542
20
1.5731728346456693
11
2.1155417322834644
21
1.5864951181102362
0
LINE
8
BLACK
6
CONTINUOUS
10
2.1155417322834644
20
1.5864951181102362
11
2.1163283070866141
21
1.5999999999999999
0
LINE
8
BLACK
6
CONTINUOUS
10
2.1163283070866141
20
1.5999999999999999
11
2.1155417322834644
21
1.6135048818897637
0
LINE
8
BLACK
6
CONTINUOUS
10
2.1155417322834644
20
1.6135048818897637
11
2.1131926771653542
21
1.6268271653543307
0
LINE
8
BLACK
6
CONTINUOUS
10
2.1131926771653542
20
1.6268271653543307
11
2.1093128346456691
21
1.6397866141732282
0
LINE
8
BLACK
6
CONTINUOUS
10
2.1093128346456691
20
1.6397866141732282
11
2.1039547637795275
21
1.652208031496063
0
LINE
8
BLACK
6
CONTINUOUS
10
2.1039547637795275
20
1.652208031496063
11
2.0971908661417324
21
1.6639234645669292
0
LINE
8
BLACK
6
CONTINUOUS
10
2.0971908661417324
20
1.6639234645669292
11
2.0891126377952753
21
1.6747744094488188
0
LINE
8
BLACK
6
CONTINUOUS
10
2.0891126377952753
20
1.6747744094488188
11
2.0798293307086615
21
1.6846141338582676
0
LINE
8
BLACK
6
CONTINUOUS
10
2.0798293307086615
20
1.6846141338582676
11
2.0694664566929135
21
1.6933096456692913
0
LINE
8
BLACK
6
CONTINUOUS
10
2.0694664566929135
20
1.6933096456692913
11
2.0581641732283464
21
1.7007432677165355
0
LINE
8
BLACK
6
CONTINUOUS
10
2.0581641732283464
20
1.7007432677165355
11
2.0460752755905509
21
1.7068145275590552
0
LINE
8
BLACK
6
CONTINUOUS
10
2.0460752755905509
20
1.7068145275590552
11
2.0333633464566927
21
1.7114412992125985
0
LINE
8
BLACK
6
CONTINUOUS
10
2.0333633464566927
20
1.7114412992125985
11
2.0202001968503938
21
1.7145610236220472
0
LINE
8
BLACK
6
CONTINUOUS
10
2.0202001968503938
20
1.7145610236220472
11
2.0067638976377951
21
1.7161314960629921
0
LINE
8
BLACK
6
CONTINUOUS
10
2.0067638976377951
20
1.7161314960629921
11
1.9932361023622047
21
1.7161314960629921
0
LINE
8
BLACK
6
CONTINUOUS
10
1.9932361023622047
20
1.7161314960629921
11
1.9797998031496062
21
1.7145610236220472
0
LINE
8
BLACK
6
CONTINUOUS
10
1.9797998031496062
20
1.7145610236220472
11
1.9666366535433071
21
1.7114412992125985
0
LINE
8
BLACK
6
CONTINUOUS
10
1.9666366535433071
20
1.7114412992125985
11
1.9539247244094489
21
1.7068145275590552
0
LINE
8
BLACK
6
CONTINUOUS
10
1.9539247244094489
20
1.7068145275590552
11
1.9418358267716536
21
1.7007432677165355
0
LINE
8
BLACK
6
CONTINUOUS
10
1.9418358267716536
20
1.7007432677165355
11
1.9305335433070865
21
1.6933096456692913
0
LINE
8
BLACK
6
CONTINUOUS
10
1.9305335433070865
20
1.6933096456692913
11
1.9201706692913385
21
1.6846141338582676
0
LINE
8
BLACK
6
CONTINUOUS
10
1.9201706692913385
20
1.6846141338582676
11
1.9108873622047244
21
1.6747744094488188
0
LINE
8
BLACK
6
CONTINUOUS
10
1.9108873622047244
20
1.6747744094488188
11
1.9028091338582678
21
1.6639234645669292
0
LINE
8
BLACK
6
CONTINUOUS
10
1.9028091338582678
20
1.6639234645669292
11
1.8960452362204725
21
1.652208031496063
0
LINE
8
BLACK
6
CONTINUOUS
10
1.8960452362204725
20
1.652208031496063
11
1.8906871653543307
21
1.6397866141732282
0
LINE
8
BLACK
6
CONTINUOUS
10
1.8906871653543307
20
1.6397866141732282
11
1.8868073228346456
21
1.6268271653543307
0
LINE
8
BLACK
6
CONTINUOUS
10
1.8868073228346456
20
1.6268271653543307
11
1.8844582677165354
21
1.6135048818897637
0
LINE
8
BLACK
6
CONTINUOUS
10
1.8844582677165354
20
1.6135048818897637
11
1.8836716929133859
21
1.5999999999999999
0
LINE
8
BLACK
6
CONTINUOUS
10
1.8836716929133859
20
1.5999999999999999
11
1.8844582677165354
21
1.5864951181102362
0
LINE
8
BLACK
6
CONTINUOUS
10
1.100576062992126
20
1.7079231496062992
11
1.1016404724409448
21
1.7074822440944881
0
LINE
8
BLACK
6
CONTINUOUS
10
1.1016404724409448
20
1.7074822440944881
11
1.1024551181102362
21
1.7066675984251969
0
LINE
8
BLACK
6
CONTINUOUS
10
1.1024551181102362
20
1.7066675984251969
11
1.1028960236220473
21
1.7056031889763779
0
LINE
8
BLACK
6
CONTINUOUS
10
1.1028960236220473
20
1.7056031889763779
11
1.1029527559055119
21
1.505027125984252
0
LINE
8
BLACK
6
CONTINUOUS
10
1.1029527559055119
20
1.505027125984252
11
1.1028960236220473
21
1.5044510629921259
0
LINE
8
BLACK
6
CONTINUOUS
10
1.1028960236220473
20
1.5044510629921259
11
1.1024551181102362
21
1.5033866535433071
0
LINE
8
BLACK
6
CONTINUOUS
10
1.1024551181102362
20
1.5033866535433071
11
1.1016404724409448
21
1.5025720078740157
0
LINE
8
BLACK
6
CONTINUOUS
10
1.1016404724409448
20
1.5025720078740157
11
1.100576062992126
21
1.5021311023622046
0
LINE
8
BLACK
6
CONTINUOUS
10
1.100576062992126
20
1.5021311023622046
11
1.
21
1.5020743700787402
0
LINE
8
BLACK
6
CONTINUOUS
10
1.
20
1.5020743700787402
11
0.9997043307086614
21
1.5021035039370079
0
LINE
8
BLACK
6
CONTINUOUS
10
0.9997043307086614
20
1.5021035039370079
11
0.9
21
1.5020472440944881
0
LINE
8
BLACK
6
CONTINUOUS
10
0.9
20
1.5020472440944881
11
0.8994304724409449
21
1.5021033464566929
0
LINE
8
BLACK
6
CONTINUOUS
10
0.8994304724409449
20
1.5021033464566929
11
0.7999999999999999
21
1.5020472440944881
0
LINE
8
BLACK
6
CONTINUOUS
10
0.7999999999999999
20
1.5020472440944881
11
0.7994304724409449
21
1.5021033464566929
0
LINE
8
BLACK
6
CONTINUOUS
10
0.7994304724409449
20
1.5021033464566929
11
0.7
21
1.5020472440944881
0
LINE
8
BLACK
6
CONTINUOUS
10
0.7
20
1.5020472440944881
11
0.6994304724409449
21
1.5021033464566929
0
LINE
8
BLACK
6
CONTINUOUS
10
0.6994304724409449
20
1.5021033464566929
11
0.6
21
1.5020472440944881
0
LINE
8
BLACK
6
CONTINUOUS
10
0.6
20
1.5020472440944881
11
0.599423937007874
21
1.5021039763779527
0
LINE
8
BLACK
6
CONTINUOUS
10
0.599423937007874
20
1.5021039763779527
11
0.5983595275590551
21
1.5025448818897638
0
LINE
8
BLACK
6
CONTINUOUS
10
0.5983595275590551
20
1.5025448818897638
11
0.5975448818897637
21
1.503359527559055
0
LINE
8
BLACK
6
CONTINUOUS
10
0.5975448818897637
20
1.503359527559055
11
0.5971039763779528
21
1.504423937007874
0
LINE
8
BLACK
6
CONTINUOUS
10
0.5971039763779528
20
1.504423937007874
11
0.5971039763779528
21
1.5044510629921259
0
LINE
8
BLACK
6
CONTINUOUS
10
0.5971039763779528
20
1.5044510629921259
11
0.5970472440944882
21
1.7050000000000001
0
LINE
8
BLACK
6
CONTINUOUS
10
0.5970472440944882
20
1.7050000000000001
11
0.5971039763779528
21
1.7055760629921259
0
LINE
8
BLACK
6
CONTINUOUS
10
0.5971039763779528
20
1.7055760629921259
11
0.5975448818897637
21
1.7066404724409447
0
LINE
8
BLACK
6
CONTINUOUS
10
0.5975448818897637
20
1.7066404724409447
11
0.5983595275590551
21
1.7074551181102362
0
LINE
8
BLACK
6
CONTINUOUS
10
0.5983595275590551
20
1.7074551181102362
11
0.599423937007874
21
1.7078960236220473
0
LINE
8
BLACK
6
CONTINUOUS
10
0.599423937007874
20
1.7078960236220473
11
0.7
21
1.7079527559055119
0
LINE
8
BLACK
6
CONTINUOUS
10
0.7
20
1.7079527559055119
11
0.7005694881889764
21
1.7078966929133859
0
LINE
8
BLACK
6
CONTINUOUS
10
0.7005694881889764
20
1.7078966929133859
11
0.7999999999999999
21
1.7079527559055119
0
LINE
8
BLACK
6
CONTINUOUS
10
0.7999999999999999
20
1.7079527559055119
11
0.8005694881889763
21
1.7078966929133859
0
LINE
8
BLACK
6
CONTINUOUS
10
0.8005694881889763
20
1.7078966929133859
11
0.9
21
1.7079527559055119
0
LINE
8
BLACK
6
CONTINUOUS
10
0.9
20
1.7079527559055119
11
0.9005694881889763
21
1.7078966929133859
0
LINE
8
BLACK
6
CONTINUOUS
10
0.9005694881889763
20
1.7078966929133859
11
1.
21
1.7079527559055119
0
LINE
8
BLACK
6
CONTINUOUS
10
1.
20
1.7079527559055119
11
1.0002956299212598
21
1.7079236614173228
0
LINE
8
BLACK
6
CONTINUOUS
10
1.0002956299212598
20
1.7079236614173228
11
1.0999999999999999
21
1.7079798818897638
0
LINE
8
BLACK
6
CONTINUOUS
10
1.0999999999999999
20
1.7079798818897638
11
1.100576062992126
21
1.7079231496062992
0
LINE
8
BLACK
6
CONTINUOUS
10
0.6028970078740158
20
1.7020488976377952
11
0.6029519291338582
21
1.5078980314960631
0
LINE
8
BLACK
6
CONTINUOUS
10
0.6029519291338582
20
1.5078980314960631
11
0.6971029527559055
21
1.5079511417322835
0
LINE
8
BLACK
6
CONTINUOUS
10
0.6971029527559055
20
1.5079511417322835
11
0.697048031496063
21
1.7021020078740157
0
LINE
8
BLACK
6
CONTINUOUS
10
0.697048031496063
20
1.7021020078740157
11
0.6028970078740158
21
1.7020488976377952
0
LINE
8
BLACK
6
CONTINUOUS
10
0.7028970078740158
20
1.7020488976377952
11
0.7029519291338583
21
1.5078980314960631
0
LINE
8
BLACK
6
CONTINUOUS
10
0.7029519291338583
20
1.5078980314960631
11
0.7971029527559055
21
1.5079511417322835
0
LINE
8
BLACK
6
CONTINUOUS
10
0.7971029527559055
20
1.5079511417322835
11
0.797048031496063
21
1.7021020078740157
0
LINE
8
BLACK
6
CONTINUOUS
10
0.797048031496063
20
1.7021020078740157
11
0.7028970078740158
21
1.7020488976377952
0
LINE
8
BLACK
6
CONTINUOUS
10
0.8028970078740157
20
1.7020488976377952
11
0.8029519291338583
21
1.5078980314960631
0
LINE
8
BLACK
6
CONTINUOUS
10
0.8029519291338583
20
1.5078980314960631
11
0.8971029527559055
21
1.5079511417322835
0
LINE
8
BLACK
6
CONTINUOUS
10
0.8971029527559055
20
1.5079511417322835
11
0.8970480314960629
21
1.7021020078740157
0
LINE
8
BLACK
6
CONTINUOUS
10
0.8970480314960629
20
1.7021020078740157
11
0.8028970078740157
21
1.7020488976377952
0
LINE
8
BLACK
6
CONTINUOUS
10
0.9028970078740157
20
1.7020488976377952
11
0.9029519291338582
21
1.5078980314960631
0
LINE
8
BLACK
6
CONTINUOUS
10
0.9029519291338582
20
1.5078980314960631
11
0.9971029527559054
21
1.5079511417322835
0
LINE
8
BLACK
6
CONTINUOUS
10
0.9971029527559054
20
1.5079511417322835
11
0.9970480314960629
21
1.7021020078740157
0
LINE
8
BLACK
6
CONTINUOUS
10
0.9970480314960629
20
1.7021020078740157
11
0.9028970078740157
21
1.7020488976377952
0
LINE
8
BLACK
6
CONTINUOUS
10
1.0028970078740158
20
1.7020760236220471
11
1.0029519291338582
21
1.507925157480315
0
LINE
8
BLACK
6
CONTINUOUS
10
1.0029519291338582
20
1.507925157480315
11
1.0971029527559055
21
1.5079782677165354
0
LINE
8
BLACK
6
CONTINUOUS
10
1.0971029527559055
20
1.5079782677165354
11
1.0970480314960629
21
1.7021291338582676
0
LINE
8
BLACK
6
CONTINUOUS
10
1.0970480314960629
20
1.7021291338582676
11
1.0028970078740158
21
1.7020760236220471
0
LINE
8
BLACK
6
CONTINUOUS
10
1.6164544881889764
20
1.568918937007874
11
1.6338321653543306
21
1.5516020078740158
0
LINE
8
BLACK
6
CONTINUOUS
10
1.6338321653543306
20
1.5516020078740158
11
1.6338853543307086
21
1.551562125984252
0
LINE
8
BLACK
6
CONTINUOUS
10
1.6338853543307086
20
1.551562125984252
11
1.6339042519685039
21
1.5515301968503936
0
LINE
8
BLACK
6
CONTINUOUS
10
1.6339042519685039
20
1.5515301968503936
11
1.6343802755905512
21
1.5510558267716534
0
LINE
8
BLACK
6
CONTINUOUS
10
1.6343802755905512
20
1.5510558267716534
11
1.6343584251968504
21
1.5664638188976379
0
LINE
8
BLACK
6
CONTINUOUS
10
1.6343584251968504
20
1.5664638188976379
11
1.634415157480315
21
1.5670398818897637
0
LINE
8
BLACK
6
CONTINUOUS
10
1.634415157480315
20
1.5670398818897637
11
1.634856062992126
21
1.5681042913385825
0
LINE
8
BLACK
6
CONTINUOUS
10
1.634856062992126
20
1.5681042913385825
11
1.6356707086614173
21
1.568918937007874
0
LINE
8
BLACK
6
CONTINUOUS
10
1.6356707086614173
20
1.568918937007874
11
1.6367351181102361
21
1.5693598425196851
0
LINE
8
BLACK
6
CONTINUOUS
10
1.6367351181102361
20
1.5693598425196851
11
1.637887244094488
21
1.5693598425196851
0
LINE
8
BLACK
6
CONTINUOUS
10
1.637887244094488
20
1.5693598425196851
11
1.6389516535433071
21
1.568918937007874
0
LINE
8
BLACK
6
CONTINUOUS
10
1.6389516535433071
20
1.568918937007874
11
1.6397662992125983
21
1.5681042913385825
0
LINE
8
BLACK
6
CONTINUOUS
10
1.6397662992125983
20
1.5681042913385825
11
1.6402072047244094
21
1.5670398818897637
0
LINE
8
BLACK
6
CONTINUOUS
10
1.6402072047244094
20
1.5670398818897637
11
1.640263937007874
21
1.5270937401574802
0
LINE
8
BLACK
6
CONTINUOUS
10
1.640263937007874
20
1.5270937401574802
11
1.6402072047244094
21
1.5265176771653544
0
LINE
8
BLACK
6
CONTINUOUS
10
1.6402072047244094
20
1.5265176771653544
11
1.6397662992125983
21
1.5254532677165353
0
LINE
8
BLACK
6
CONTINUOUS
10
1.6397662992125983
20
1.5254532677165353
11
1.6389516535433071
21
1.5246386220472441
0
LINE
8
BLACK
6
CONTINUOUS
10
1.6389516535433071
20
1.5246386220472441
11
1.637887244094488
21
1.524197716535433
0
LINE
8
BLACK
6
CONTINUOUS
10
1.637887244094488
20
1.524197716535433
11
1.6367351181102361
21
1.524197716535433
0
LINE
8
BLACK
6
CONTINUOUS
10
1.6367351181102361
20
1.524197716535433
11
1.6356707086614173
21
1.5246386220472441
0
LINE
8
BLACK
6
CONTINUOUS
10
1.6356707086614173
20
1.5246386220472441
11
1.634856062992126
21
1.5254532677165353
0
LINE
8
BLACK
6
CONTINUOUS
10
1.634856062992126
20
1.5254532677165353
11
1.634415157480315
21
1.5265176771653544
0
LINE
8
BLACK
6
CONTINUOUS
10
1.634415157480315
20
1.5265176771653544
11
1.6343920472440945
21
1.5427857480314959
0
LINE
8
BLACK
6
CONTINUOUS
10
1.6343920472440945
20
1.5427857480314959
11
1.6320002755905512
21
1.5451691338582676
0
LINE
8
BLACK
6
CONTINUOUS
10
1.6320002755905512
20
1.5451691338582676
11
1.6171762204724409
21
1.5253220866141732
0
LINE
8
BLACK
6
CONTINUOUS
10
1.6171762204724409
20
1.5253220866141732
11
1.6167851968503937
21
1.5248952755905512
0
LINE
8
BLACK
6
CONTINUOUS
10
1.6167851968503937
20
1.5248952755905512
11
1.6157938188976377
21
1.5243083070866141
0
LINE
8
BLACK
6
CONTINUOUS
10
1.6157938188976377
20
1.5243083070866141
11
1.614653307086614
21
1.5241453543307086
0
LINE
8
BLACK
6
CONTINUOUS
10
1.614653307086614
20
1.5241453543307086
11
1.6135372440944882
21
1.5244312992125983
0
LINE
8
BLACK
6
CONTINUOUS
10
1.6135372440944882
20
1.5244312992125983
11
1.6126155511811022
21
1.5251225590551181
0
LINE
8
BLACK
6
CONTINUOUS
10
1.6126155511811022
20
1.5251225590551181
11
1.6120285826771654
21
1.526113937007874
0
LINE
8
BLACK
6
CONTINUOUS
10
1.6120285826771654
20
1.526113937007874
11
1.6118656299212597
21
1.5272544488188975
0
LINE
8
BLACK
6
CONTINUOUS
10
1.6118656299212597
20
1.5272544488188975
11
1.6121515748031496
21
1.5283705118110236
0
LINE
8
BLACK
6
CONTINUOUS
10
1.6121515748031496
20
1.5283705118110236
11
1.6278142913385827
21
1.5493404724409447
0
LINE
8
BLACK
6
CONTINUOUS
10
1.6278142913385827
20
1.5493404724409447
11
1.6127261023622046
21
1.5643759055118109
0
LINE
8
BLACK
6
CONTINUOUS
10
1.6127261023622046
20
1.5643759055118109
11
1.6123588976377952
21
1.564823346456693
0
LINE
8
BLACK
6
CONTINUOUS
10
1.6123588976377952
20
1.564823346456693
11
1.6119179921259843
21
1.5658877952755905
0
LINE
8
BLACK
6
CONTINUOUS
10
1.6119179921259843
20
1.5658877952755905
11
1.6119179921259843
21
1.567039842519685
0
LINE
8
BLACK
6
CONTINUOUS
10
1.6119179921259843
20
1.567039842519685
11
1.6123588976377952
21
1.5681042913385825
0
LINE
8
BLACK
6
CONTINUOUS
10
1.6123588976377952
20
1.5681042913385825
11
1.6131735433070866
21
1.568918937007874
0
LINE
8
BLACK
6
CONTINUOUS
10
1.6131735433070866
20
1.568918937007874
11
1.6142379921259842
21
1.5693598425196851
0
LINE
8
BLACK
6
CONTINUOUS
10
1.6142379921259842
20
1.5693598425196851
11
1.6153900393700786
21
1.5693598425196851
0
LINE
8
BLACK
6
CONTINUOUS
10
1.6153900393700786
20
1.5693598425196851
11
1.6164544881889764
21
1.568918937007874
0
LINE
8
BLACK
6
CONTINUOUS
10
1.6154977952755905
20
1.7299504330708662
11
1.6328754724409449
21
1.7126335039370078
0
LINE
8
BLACK
6
CONTINUOUS
10
1.6328754724409449
20
1.7126335039370078
11
1.6329286614173228
21
1.712593622047244
0
LINE
8
BLACK
6
CONTINUOUS
10
1.6329286614173228
20
1.712593622047244
11
1.6329475590551181
21
1.7125616929133858
0
LINE
8
BLACK
6
CONTINUOUS
10
1.6329475590551181
20
1.7125616929133858
11
1.6334235826771653
21
1.7120873228346456
0
LINE
8
BLACK
6
CONTINUOUS
10
1.6334235826771653
20
1.7120873228346456
11
1.6334017322834646
21
1.7274953149606298
0
LINE
8
BLACK
6
CONTINUOUS
10
1.6334017322834646
20
1.7274953149606298
11
1.633458464566929
21
1.7280713779527559
0
LINE
8
BLACK
6
CONTINUOUS
10
1.633458464566929
20
1.7280713779527559
11
1.6338993700787401
21
1.7291357874015747
0
LINE
8
BLACK
6
CONTINUOUS
10
1.6338993700787401
20
1.7291357874015747
11
1.6347140157480315
21
1.7299504330708662
0
LINE
8
BLACK
6
CONTINUOUS
10
1.6347140157480315
20
1.7299504330708662
11
1.6357784251968503
21
1.730391338582677
0
LINE
8
BLACK
6
CONTINUOUS
10
1.6357784251968503
20
1.730391338582677
11
1.6369305511811023
21
1.730391338582677
0
LINE
8
BLACK
6
CONTINUOUS
10
1.6369305511811023
20
1.730391338582677
11
1.6379949606299211
21
1.7299504330708662
0
LINE
8
BLACK
6
CONTINUOUS
10
1.6379949606299211
20
1.7299504330708662
11
1.6388096062992126
21
1.7291357874015747
0
LINE
8
BLACK
6
CONTINUOUS
10
1.6388096062992126
20
1.7291357874015747
11
1.6392505118110237
21
1.7280713779527559
0
LINE
8
BLACK
6
CONTINUOUS
10
1.6392505118110237
20
1.7280713779527559
11
1.6393072440944882
21
1.6881252362204724
0
LINE
8
BLACK
6
CONTINUOUS
10
1.6393072440944882
20
1.6881252362204724
11
1.6392505118110237
21
1.6875491732283465
0
LINE
8
BLACK
6
CONTINUOUS
10
1.6392505118110237
20
1.6875491732283465
11
1.6388096062992126
21
1.6864847637795275
0
LINE
8
BLACK
6
CONTINUOUS
10
1.6388096062992126
20
1.6864847637795275
11
1.6379949606299211
21
1.6856701181102363
0
LINE
8
BLACK
6
CONTINUOUS
10
1.6379949606299211
20
1.6856701181102363
11
1.6369305511811023
21
1.6852292125984252
0
LINE
8
BLACK
6
CONTINUOUS
10
1.6369305511811023
20
1.6852292125984252
11
1.6357784251968503
21
1.6852292125984252
0
LINE
8
BLACK
6
CONTINUOUS
10
1.6357784251968503
20
1.6852292125984252
11
1.6347140157480315
21
1.6856701181102363
0
LINE
8
BLACK
6
CONTINUOUS
10
1.6347140157480315
20
1.6856701181102363
11
1.6338993700787401
21
1.6864847637795275
0
LINE
8
BLACK
6
CONTINUOUS
10
1.6338993700787401
20
1.6864847637795275
11
1.633458464566929
21
1.6875491732283465
0
LINE
8
BLACK
6
CONTINUOUS
10
1.633458464566929
20
1.6875491732283465
11
1.6334353543307085
21
1.7038172440944881
0
LINE
8
BLACK
6
CONTINUOUS
10
1.6334353543307085
20
1.7038172440944881
11
1.6310435826771654
21
1.7062006299212598
0
LINE
8
BLACK
6
CONTINUOUS
10
1.6310435826771654
20
1.7062006299212598
11
1.6162195275590552
21
1.6863535826771654
0
LINE
8
BLACK
6
CONTINUOUS
10
1.6162195275590552
20
1.6863535826771654
11
1.6158285039370079
21
1.6859267716535433
0
LINE
8
BLACK
6
CONTINUOUS
10
1.6158285039370079
20
1.6859267716535433
11
1.614837125984252
21
1.6853398031496063
0
LINE
8
BLACK
6
CONTINUOUS
10
1.614837125984252
20
1.6853398031496063
11
1.6136966141732283
21
1.6851768503937008
0
LINE
8
BLACK
6
CONTINUOUS
10
1.6136966141732283
20
1.6851768503937008
11
1.6125805511811022
21
1.6854627952755905
0
LINE
8
BLACK
6
CONTINUOUS
10
1.6125805511811022
20
1.6854627952755905
11
1.6116588582677165
21
1.6861540551181102
0
LINE
8
BLACK
6
CONTINUOUS
10
1.6116588582677165
20
1.6861540551181102
11
1.6110718897637795
21
1.6871454330708662
0
LINE
8
BLACK
6
CONTINUOUS
10
1.6110718897637795
20
1.6871454330708662
11
1.610908937007874
21
1.6882859448818897
0
LINE
8
BLACK
6
CONTINUOUS
10
1.610908937007874
20
1.6882859448818897
11
1.6111948818897637
21
1.6894020078740157
0
LINE
8
BLACK
6
CONTINUOUS
10
1.6111948818897637
20
1.6894020078740157
11
1.6268575984251967
21
1.7103719685039369
0
LINE
8
BLACK
6
CONTINUOUS
10
1.6268575984251967
20
1.7103719685039369
11
1.6117694094488189
21
1.7254074015748031
0
LINE
8
BLACK
6
CONTINUOUS
10
1.6117694094488189
20
1.7254074015748031
11
1.6114022047244094
21
1.7258548425196849
0
LINE
8
BLACK
6
CONTINUOUS
10
1.6114022047244094
20
1.7258548425196849
11
1.6109612992125983
21
1.7269192913385827
0
LINE
8
BLACK
6
CONTINUOUS
10
1.6109612992125983
20
1.7269192913385827
11
1.6109612992125983
21
1.7280713385826771
0
LINE
8
BLACK
6
CONTINUOUS
10
1.6109612992125983
20
1.7280713385826771
11
1.6114022047244094
21
1.7291357874015747
0
LINE
8
BLACK
6
CONTINUOUS
10
1.6114022047244094
20
1.7291357874015747
11
1.6122168503937007
21
1.7299504330708662
0
LINE
8
BLACK
6
CONTINUOUS
10
1.6122168503937007
20
1.7299504330708662
11
1.6132812992125984
21
1.730391338582677
0
LINE
8
BLACK
6
CONTINUOUS
10
1.6132812992125984
20
1.730391338582677
11
1.6144333464566929
21
1.730391338582677
0
LINE
8
BLACK
6
CONTINUOUS
10
1.6144333464566929
20
1.730391338582677
11
1.6154977952755905
21
1.7299504330708662
  0
ENDSEC
  0
EOF
