  0
SECTION
  2
HEADER
  9
$ANGBASE
  50
0.0
  9
$ANGDIR
  70
1
  9
$MEASUREMENT
  70
0
  0
ENDSEC
  0
SECTION
  2
TABLES
  0
TABLE
  2
LTYPE
  70
4
  0
LTYPE
  5
40F
  2
CONTINUOUS
  70
0
  3
Solid line
  72
65
  73
0
  40
0.0
  0
LTYPE
  5
410
  2
DASHDOT
 70
0
  3
Dash Dot ____ _ ____ _
 72
65
 73
4
 40
2.0
 49
1.25
 49
-0.25
 49
0.25
 49
-0.25
  0
LTYPE
  5
411
  2
DASHED
 70
0
  3
Dashed __ __ __ __ __
 72
65
 73
2
 40
0.75
 49
0.5
 49
-0.25
  0
LTYPE
  5
43B
  2
DOTTED
 70
0
  3
Dotted .  .  .  .
 72
65
 73
2
 40
0.2
 49
0.0
 49
-0.2
  0
ENDTAB
  0
TABLE
  2
STYLE
  70
4
  0
STYLE
  2
KICAD
  70
0
  40
0
  41
1
  42
1
  50
0
  71
0
  3
isocp.shx
  0
STYLE
  2
KICADB
  70
0
  40
0
  41
1
  42
1
  50
0
  71
0
  3
isocp.shx
  0
STYLE
  2
KICADI
  70
0
  40
0
  41
1
  42
1
  50
15
  71
0
  3
isocp.shx
  0
STYLE
  2
KICADBI
  70
0
  40
0
  41
1
  42
1
  50
15
  71
0
  3
isocp.shx
  0
ENDTAB
  0
TABLE
  2
LAYER
  70
1
  0
LAYER
  2
BLACK
  70
0
  62
7
  6
CONTINUOUS
  0
ENDTAB
  0
ENDSEC
  0
SECTION
  2
ENTITIES
0
LINE
8
BLACK
6
CONTINUOUS
10
7.2164483464566924
20
-3.235173464566929
11
7.2165775984251965
21
-3.2351507086614171
0
LINE
8
BLACK
6
CONTINUOUS
10
7.2165775984251965
20
-3.2351507086614171
11
7.2166911811023624
21
-3.2352162992125986
0
LINE
8
BLACK
6
CONTINUOUS
10
7.2166911811023624
20
-3.2352162992125986
11
7.2170747637795278
21
-3.2352839370078739
0
LINE
8
BLACK
6
CONTINUOUS
10
7.2170747637795278
20
-3.2352839370078739
11
7.2176624409448813
21
-3.2357770472440945
0
LINE
8
BLACK
6
CONTINUOUS
10
7.2176624409448813
20
-3.2357770472440945
11
7.2183267716535431
21
-3.23616062992126
0
LINE
8
BLACK
6
CONTINUOUS
10
7.2183267716535431
20
-3.23616062992126
11
7.2184178740157483
21
-3.2364109448818899
0
LINE
8
BLACK
6
CONTINUOUS
10
7.2184178740157483
20
-3.2364109448818899
11
7.218622007874016
21
-3.236582244094488
0
LINE
8
BLACK
6
CONTINUOUS
10
7.218622007874016
20
-3.236582244094488
11
7.2187552362204723
21
-3.2373377952755904
0
LINE
8
BLACK
6
CONTINUOUS
10
7.2187552362204723
20
-3.2373377952755904
11
7.2190175984251965
21
-3.238058622047244
0
LINE
8
BLACK
6
CONTINUOUS
10
7.2190175984251965
20
-3.238058622047244
11
7.2190175984251965
21
-4.8180586220472437
0
LINE
8
BLACK
6
CONTINUOUS
10
7.2190175984251965
20
-4.8180586220472437
11
7.2189499606299208
21
-4.8184421259842516
0
LINE
8
BLACK
6
CONTINUOUS
10
7.2189499606299208
20
-4.8184421259842516
11
7.2189727559055115
21
-4.8185713779527557
0
LINE
8
BLACK
6
CONTINUOUS
10
7.2189727559055115
20
-4.8185713779527557
11
7.2189071259842521
21
-4.8186849606299216
0
LINE
8
BLACK
6
CONTINUOUS
10
7.2189071259842521
20
-4.8186849606299216
11
7.2188395275590551
21
-4.8190685433070861
0
LINE
8
BLACK
6
CONTINUOUS
10
7.2188395275590551
20
-4.8190685433070861
11
7.2183463779527557
21
-4.8196562204724405
0
LINE
8
BLACK
6
CONTINUOUS
10
7.2183463779527557
20
-4.8196562204724405
11
7.217962834645669
21
-4.8203205511811023
0
LINE
8
BLACK
6
CONTINUOUS
10
7.217962834645669
20
-4.8203205511811023
11
7.2177124803149608
21
-4.8204116535433066
0
LINE
8
BLACK
6
CONTINUOUS
10
7.2177124803149608
20
-4.8204116535433066
11
7.217541220472441
21
-4.8206157874015743
0
LINE
8
BLACK
6
CONTINUOUS
10
7.217541220472441
20
-4.8206157874015743
11
7.2167856299212598
21
-4.8207490157480315
0
LINE
8
BLACK
6
CONTINUOUS
10
7.2167856299212598
20
-4.8207490157480315
11
7.2160648425196845
21
-4.8210113779527557
0
LINE
8
BLACK
6
CONTINUOUS
10
7.2160648425196845
20
-4.8210113779527557
11
4.8360648425196846
21
-4.8210113779527557
0
LINE
8
BLACK
6
CONTINUOUS
10
4.8360648425196846
20
-4.8210113779527557
11
4.8356812992125979
21
-4.82094374015748
0
LINE
8
BLACK
6
CONTINUOUS
10
4.8356812992125979
20
-4.82094374015748
11
4.8355520866141735
21
-4.8209665354330706
0
LINE
8
BLACK
6
CONTINUOUS
10
4.8355520866141735
20
-4.8209665354330706
11
4.8354384645669288
21
-4.8209009055118113
0
LINE
8
BLACK
6
CONTINUOUS
10
4.8354384645669288
20
-4.8209009055118113
11
4.8350549212598422
21
-4.8208333070866143
0
LINE
8
BLACK
6
CONTINUOUS
10
4.8350549212598422
20
-4.8208333070866143
11
4.8344672047244091
21
-4.8203401574803149
0
LINE
8
BLACK
6
CONTINUOUS
10
4.8344672047244091
20
-4.8203401574803149
11
4.8338029133858269
21
-4.8199566141732282
0
LINE
8
BLACK
6
CONTINUOUS
10
4.8338029133858269
20
-4.8199566141732282
11
4.8337117716535429
21
-4.81970625984252
0
LINE
8
BLACK
6
CONTINUOUS
10
4.8337117716535429
20
-4.81970625984252
11
4.833507677165354
21
-4.8195350000000001
0
LINE
8
BLACK
6
CONTINUOUS
10
4.833507677165354
20
-4.8195350000000001
11
4.8333744094488189
21
-4.818779409448819
0
LINE
8
BLACK
6
CONTINUOUS
10
4.8333744094488189
20
-4.818779409448819
11
4.8331120866141735
21
-4.8180586220472437
0
LINE
8
BLACK
6
CONTINUOUS
10
4.8331120866141735
20
-4.8180586220472437
11
4.8331120866141735
21
-3.238058622047244
0
LINE
8
BLACK
6
CONTINUOUS
10
4.8331120866141735
20
-3.238058622047244
11
4.8331796850393696
21
-3.2376750787401574
0
LINE
8
BLACK
6
CONTINUOUS
10
4.8331796850393696
20
-3.2376750787401574
11
4.8331569291338585
21
-3.237545866141732
0
LINE
8
BLACK
6
CONTINUOUS
10
4.8331569291338585
20
-3.237545866141732
11
4.8332225196850391
21
-3.2374322440944883
0
LINE
8
BLACK
6
CONTINUOUS
10
4.8332225196850391
20
-3.2374322440944883
11
4.8332901574803149
21
-3.2370487007874016
0
LINE
8
BLACK
6
CONTINUOUS
10
4.8332901574803149
20
-3.2370487007874016
11
4.8337832677165355
21
-3.2364609842519685
0
LINE
8
BLACK
6
CONTINUOUS
10
4.8337832677165355
20
-3.2364609842519685
11
4.834166850393701
21
-3.2357966929133859
0
LINE
8
BLACK
6
CONTINUOUS
10
4.834166850393701
20
-3.2357966929133859
11
4.8344171653543304
21
-3.2357055511811024
0
LINE
8
BLACK
6
CONTINUOUS
10
4.8344171653543304
20
-3.2357055511811024
11
4.834588464566929
21
-3.2355014566929134
0
LINE
8
BLACK
6
CONTINUOUS
10
4.834588464566929
20
-3.2355014566929134
11
4.8353440157480314
21
-3.2353681889763779
0
LINE
8
BLACK
6
CONTINUOUS
10
4.8353440157480314
20
-3.2353681889763779
11
4.8360648425196846
21
-3.235105866141732
0
LINE
8
BLACK
6
CONTINUOUS
10
4.8360648425196846
20
-3.235105866141732
11
7.2160648425196845
21
-3.235105866141732
0
LINE
8
BLACK
6
CONTINUOUS
10
7.2160648425196845
20
-3.235105866141732
11
7.2164483464566924
21
-3.235173464566929
0
LINE
8
BLACK
6
CONTINUOUS
10
4.8390175984251966
20
-3.2410113779527556
11
4.8390175984251966
21
-4.8151058661417325
0
LINE
8
BLACK
6
CONTINUOUS
10
4.8390175984251966
20
-4.8151058661417325
11
7.2131120866141734
21
-4.8151058661417325
0
LINE
8
BLACK
6
CONTINUOUS
10
7.2131120866141734
20
-4.8151058661417325
11
7.2131120866141734
21
-3.2410113779527556
0
LINE
8
BLACK
6
CONTINUOUS
10
7.2131120866141734
20
-3.2410113779527556
11
4.8390175984251966
21
-3.2410113779527556
  0
ENDSEC
  0
EOF
