  0
SECTION
  2
HEADER
  9
$ANGBASE
  50
0.0
  9
$ANGDIR
  70
1
  9
$MEASUREMENT
  70
0
  0
ENDSEC
  0
SECTION
  2
TABLES
  0
TABLE
  2
LTYPE
  70
4
  0
LTYPE
  5
40F
  2
CONTINUOUS
  70
0
  3
Solid line
  72
65
  73
0
  40
0.0
  0
LTYPE
  5
410
  2
DASHDOT
 70
0
  3
Dash Dot ____ _ ____ _
 72
65
 73
4
 40
2.0
 49
1.25
 49
-0.25
 49
0.25
 49
-0.25
  0
LTYPE
  5
411
  2
DASHED
 70
0
  3
Dashed __ __ __ __ __
 72
65
 73
2
 40
0.75
 49
0.5
 49
-0.25
  0
LTYPE
  5
43B
  2
DOTTED
 70
0
  3
Dotted .  .  .  .
 72
65
 73
2
 40
0.2
 49
0.0
 49
-0.2
  0
ENDTAB
  0
TABLE
  2
STYLE
  70
4
  0
STYLE
  2
KICAD
  70
0
  40
0
  41
1
  42
1
  50
0
  71
0
  3
isocp.shx
  0
STYLE
  2
KICADB
  70
0
  40
0
  41
1
  42
1
  50
0
  71
0
  3
isocp.shx
  0
STYLE
  2
KICADI
  70
0
  40
0
  41
1
  42
1
  50
15
  71
0
  3
isocp.shx
  0
STYLE
  2
KICADBI
  70
0
  40
0
  41
1
  42
1
  50
15
  71
0
  3
isocp.shx
  0
ENDTAB
  0
TABLE
  2
LAYER
  70
1
  0
LAYER
  2
BLACK
  70
0
  62
7
  6
CONTINUOUS
  0
ENDTAB
  0
ENDSEC
  0
SECTION
  2
ENTITIES
0
LINE
8
BLACK
6
CONTINUOUS
10
0.4134434251968504
20
0.5193135433070866
11
0.4267177559055118
21
0.5170581496062993
0
LINE
8
BLACK
6
CONTINUOUS
10
0.4267177559055118
20
0.5170581496062993
11
0.4396561023622047
21
0.5133306692913385
0
LINE
8
BLACK
6
CONTINUOUS
10
0.4396561023622047
20
0.5133306692913385
11
0.4520957874015748
21
0.5081779921259842
0
LINE
8
BLACK
6
CONTINUOUS
10
0.4520957874015748
20
0.5081779921259842
11
0.4638803149606299
21
0.5016649212598425
0
LINE
8
BLACK
6
CONTINUOUS
10
0.4638803149606299
20
0.5016649212598425
11
0.4748614960629921
21
0.4938733464566929
0
LINE
8
BLACK
6
CONTINUOUS
10
0.4748614960629921
20
0.4938733464566929
11
0.4849012598425197
21
0.4849012598425197
0
LINE
8
BLACK
6
CONTINUOUS
10
0.4849012598425197
20
0.4849012598425197
11
0.4938733464566929
21
0.4748614960629921
0
LINE
8
BLACK
6
CONTINUOUS
10
0.4938733464566929
20
0.4748614960629921
11
0.5016649212598425
21
0.4638803149606299
0
LINE
8
BLACK
6
CONTINUOUS
10
0.5016649212598425
20
0.4638803149606299
11
0.5081779921259842
21
0.4520957874015748
0
LINE
8
BLACK
6
CONTINUOUS
10
0.5081779921259842
20
0.4520957874015748
11
0.5133306692913385
21
0.4396561023622047
0
LINE
8
BLACK
6
CONTINUOUS
10
0.5133306692913385
20
0.4396561023622047
11
0.5170581496062993
21
0.4267177559055118
0
LINE
8
BLACK
6
CONTINUOUS
10
0.5170581496062993
20
0.4267177559055118
11
0.5193135433070866
21
0.4134434251968504
0
LINE
8
BLACK
6
CONTINUOUS
10
0.5193135433070866
20
0.4134434251968504
11
0.5200685039370079
21
0.4
0
LINE
8
BLACK
6
CONTINUOUS
10
0.5200685039370079
20
0.4
11
0.5193135433070866
21
0.3865565748031496
0
LINE
8
BLACK
6
CONTINUOUS
10
0.5193135433070866
20
0.3865565748031496
11
0.5170581496062993
21
0.3732822440944882
0
LINE
8
BLACK
6
CONTINUOUS
10
0.5170581496062993
20
0.3732822440944882
11
0.5133306692913385
21
0.3603438976377953
0
LINE
8
BLACK
6
CONTINUOUS
10
0.5133306692913385
20
0.3603438976377953
11
0.5081779921259842
21
0.3479042125984252
0
LINE
8
BLACK
6
CONTINUOUS
10
0.5081779921259842
20
0.3479042125984252
11
0.5016649212598425
21
0.3361196850393701
0
LINE
8
BLACK
6
CONTINUOUS
10
0.5016649212598425
20
0.3361196850393701
11
0.4938733464566929
21
0.3251385039370079
0
LINE
8
BLACK
6
CONTINUOUS
10
0.4938733464566929
20
0.3251385039370079
11
0.4849012598425197
21
0.3150987401574803
0
LINE
8
BLACK
6
CONTINUOUS
10
0.4849012598425197
20
0.3150987401574803
11
0.4748614960629921
21
0.3061266535433071
0
LINE
8
BLACK
6
CONTINUOUS
10
0.4748614960629921
20
0.3061266535433071
11
0.4638803149606299
21
0.2983350787401575
0
LINE
8
BLACK
6
CONTINUOUS
10
0.4638803149606299
20
0.2983350787401575
11
0.4520957874015748
21
0.2918220078740157
0
LINE
8
BLACK
6
CONTINUOUS
10
0.4520957874015748
20
0.2918220078740157
11
0.4396561023622047
21
0.2866693307086614
0
LINE
8
BLACK
6
CONTINUOUS
10
0.4396561023622047
20
0.2866693307086614
11
0.4267177559055118
21
0.2829418503937008
0
LINE
8
BLACK
6
CONTINUOUS
10
0.4267177559055118
20
0.2829418503937008
11
0.4134434251968504
21
0.2806864566929134
0
LINE
8
BLACK
6
CONTINUOUS
10
0.4134434251968504
20
0.2806864566929134
11
0.4
21
0.2799314960629921
0
LINE
8
BLACK
6
CONTINUOUS
10
0.4
20
0.2799314960629921
11
0.3865565748031496
21
0.2806864566929134
0
LINE
8
BLACK
6
CONTINUOUS
10
0.3865565748031496
20
0.2806864566929134
11
0.3732822440944882
21
0.2829418503937008
0
LINE
8
BLACK
6
CONTINUOUS
10
0.3732822440944882
20
0.2829418503937008
11
0.3603438976377953
21
0.2866693307086614
0
LINE
8
BLACK
6
CONTINUOUS
10
0.3603438976377953
20
0.2866693307086614
11
0.3479042125984252
21
0.2918220078740157
0
LINE
8
BLACK
6
CONTINUOUS
10
0.3479042125984252
20
0.2918220078740157
11
0.3361196850393701
21
0.2983350787401575
0
LINE
8
BLACK
6
CONTINUOUS
10
0.3361196850393701
20
0.2983350787401575
11
0.3251385039370079
21
0.3061266535433071
0
LINE
8
BLACK
6
CONTINUOUS
10
0.3251385039370079
20
0.3061266535433071
11
0.3150987401574803
21
0.3150987401574803
0
LINE
8
BLACK
6
CONTINUOUS
10
0.3150987401574803
20
0.3150987401574803
11
0.3061266535433071
21
0.3251385039370079
0
LINE
8
BLACK
6
CONTINUOUS
10
0.3061266535433071
20
0.3251385039370079
11
0.2983350787401575
21
0.3361196850393701
0
LINE
8
BLACK
6
CONTINUOUS
10
0.2983350787401575
20
0.3361196850393701
11
0.2918220078740157
21
0.3479042125984252
0
LINE
8
BLACK
6
CONTINUOUS
10
0.2918220078740157
20
0.3479042125984252
11
0.2866693307086614
21
0.3603438976377953
0
LINE
8
BLACK
6
CONTINUOUS
10
0.2866693307086614
20
0.3603438976377953
11
0.2829418503937008
21
0.3732822440944882
0
LINE
8
BLACK
6
CONTINUOUS
10
0.2829418503937008
20
0.3732822440944882
11
0.2806864566929134
21
0.3865565748031496
0
LINE
8
BLACK
6
CONTINUOUS
10
0.2806864566929134
20
0.3865565748031496
11
0.2799314960629921
21
0.4
0
LINE
8
BLACK
6
CONTINUOUS
10
0.2799314960629921
20
0.4
11
0.2806864566929134
21
0.4134434251968504
0
LINE
8
BLACK
6
CONTINUOUS
10
0.2806864566929134
20
0.4134434251968504
11
0.2829418503937008
21
0.4267177559055118
0
LINE
8
BLACK
6
CONTINUOUS
10
0.2829418503937008
20
0.4267177559055118
11
0.2866693307086614
21
0.4396561023622047
0
LINE
8
BLACK
6
CONTINUOUS
10
0.2866693307086614
20
0.4396561023622047
11
0.2918220078740157
21
0.4520957874015748
0
LINE
8
BLACK
6
CONTINUOUS
10
0.2918220078740157
20
0.4520957874015748
11
0.2983350787401575
21
0.4638803149606299
0
LINE
8
BLACK
6
CONTINUOUS
10
0.2983350787401575
20
0.4638803149606299
11
0.3061266535433071
21
0.4748614960629921
0
LINE
8
BLACK
6
CONTINUOUS
10
0.3061266535433071
20
0.4748614960629921
11
0.3150987401574803
21
0.4849012598425197
0
LINE
8
BLACK
6
CONTINUOUS
10
0.3150987401574803
20
0.4849012598425197
11
0.3251385039370079
21
0.4938733464566929
0
LINE
8
BLACK
6
CONTINUOUS
10
0.3251385039370079
20
0.4938733464566929
11
0.3361196850393701
21
0.5016649212598425
0
LINE
8
BLACK
6
CONTINUOUS
10
0.3361196850393701
20
0.5016649212598425
11
0.3479042125984252
21
0.5081779921259842
0
LINE
8
BLACK
6
CONTINUOUS
10
0.3479042125984252
20
0.5081779921259842
11
0.3603438976377953
21
0.5133306692913385
0
LINE
8
BLACK
6
CONTINUOUS
10
0.3603438976377953
20
0.5133306692913385
11
0.3732822440944882
21
0.5170581496062993
0
LINE
8
BLACK
6
CONTINUOUS
10
0.3732822440944882
20
0.5170581496062993
11
0.3865565748031496
21
0.5193135433070866
0
LINE
8
BLACK
6
CONTINUOUS
10
0.3865565748031496
20
0.5193135433070866
11
0.4
21
0.5200685039370079
0
LINE
8
BLACK
6
CONTINUOUS
10
0.4
20
0.5200685039370079
11
0.4134434251968504
21
0.5193135433070866
0
LINE
8
BLACK
6
CONTINUOUS
10
0.2844582677165354
20
0.3864951181102362
11
0.2868073228346457
21
0.3731728346456693
0
LINE
8
BLACK
6
CONTINUOUS
10
0.2868073228346457
20
0.3731728346456693
11
0.2906871653543307
21
0.3602133858267716
0
LINE
8
BLACK
6
CONTINUOUS
10
0.2906871653543307
20
0.3602133858267716
11
0.2960452362204724
21
0.347791968503937
0
LINE
8
BLACK
6
CONTINUOUS
10
0.2960452362204724
20
0.347791968503937
11
0.3028091338582677
21
0.3360765354330709
0
LINE
8
BLACK
6
CONTINUOUS
10
0.3028091338582677
20
0.3360765354330709
11
0.3108873622047244
21
0.3252255905511811
0
LINE
8
BLACK
6
CONTINUOUS
10
0.3108873622047244
20
0.3252255905511811
11
0.3201706692913386
21
0.3153858661417323
0
LINE
8
BLACK
6
CONTINUOUS
10
0.3201706692913386
20
0.3153858661417323
11
0.3305335433070866
21
0.3066903543307087
0
LINE
8
BLACK
6
CONTINUOUS
10
0.3305335433070866
20
0.3066903543307087
11
0.3418358267716535
21
0.2992567322834646
0
LINE
8
BLACK
6
CONTINUOUS
10
0.3418358267716535
20
0.2992567322834646
11
0.3539247244094488
21
0.2931854724409449
0
LINE
8
BLACK
6
CONTINUOUS
10
0.3539247244094488
20
0.2931854724409449
11
0.3666366535433071
21
0.2885587007874016
0
LINE
8
BLACK
6
CONTINUOUS
10
0.3666366535433071
20
0.2885587007874016
11
0.3797998031496063
21
0.2854389763779527
0
LINE
8
BLACK
6
CONTINUOUS
10
0.3797998031496063
20
0.2854389763779527
11
0.3932361023622047
21
0.2838685039370079
0
LINE
8
BLACK
6
CONTINUOUS
10
0.3932361023622047
20
0.2838685039370079
11
0.4067638976377952
21
0.2838685039370079
0
LINE
8
BLACK
6
CONTINUOUS
10
0.4067638976377952
20
0.2838685039370079
11
0.4202001968503937
21
0.2854389763779527
0
LINE
8
BLACK
6
CONTINUOUS
10
0.4202001968503937
20
0.2854389763779527
11
0.4333633464566929
21
0.2885587007874016
0
LINE
8
BLACK
6
CONTINUOUS
10
0.4333633464566929
20
0.2885587007874016
11
0.4460752755905512
21
0.2931854724409449
0
LINE
8
BLACK
6
CONTINUOUS
10
0.4460752755905512
20
0.2931854724409449
11
0.4581641732283465
21
0.2992567322834646
0
LINE
8
BLACK
6
CONTINUOUS
10
0.4581641732283465
20
0.2992567322834646
11
0.4694664566929134
21
0.3066903543307087
0
LINE
8
BLACK
6
CONTINUOUS
10
0.4694664566929134
20
0.3066903543307087
11
0.4798293307086614
21
0.3153858661417323
0
LINE
8
BLACK
6
CONTINUOUS
10
0.4798293307086614
20
0.3153858661417323
11
0.4891126377952756
21
0.3252255905511811
0
LINE
8
BLACK
6
CONTINUOUS
10
0.4891126377952756
20
0.3252255905511811
11
0.4971908661417322
21
0.3360765354330709
0
LINE
8
BLACK
6
CONTINUOUS
10
0.4971908661417322
20
0.3360765354330709
11
0.5039547637795275
21
0.347791968503937
0
LINE
8
BLACK
6
CONTINUOUS
10
0.5039547637795275
20
0.347791968503937
11
0.5093128346456692
21
0.3602133858267716
0
LINE
8
BLACK
6
CONTINUOUS
10
0.5093128346456692
20
0.3602133858267716
11
0.5131926771653543
21
0.3731728346456693
0
LINE
8
BLACK
6
CONTINUOUS
10
0.5131926771653543
20
0.3731728346456693
11
0.5155417322834646
21
0.3864951181102362
0
LINE
8
BLACK
6
CONTINUOUS
10
0.5155417322834646
20
0.3864951181102362
11
0.5163283070866141
21
0.4
0
LINE
8
BLACK
6
CONTINUOUS
10
0.5163283070866141
20
0.4
11
0.5155417322834646
21
0.4135048818897638
0
LINE
8
BLACK
6
CONTINUOUS
10
0.5155417322834646
20
0.4135048818897638
11
0.5131926771653543
21
0.4268271653543307
0
LINE
8
BLACK
6
CONTINUOUS
10
0.5131926771653543
20
0.4268271653543307
11
0.5093128346456692
21
0.4397866141732283
0
LINE
8
BLACK
6
CONTINUOUS
10
0.5093128346456692
20
0.4397866141732283
11
0.5039547637795275
21
0.452208031496063
0
LINE
8
BLACK
6
CONTINUOUS
10
0.5039547637795275
20
0.452208031496063
11
0.4971908661417322
21
0.4639234645669291
0
LINE
8
BLACK
6
CONTINUOUS
10
0.4971908661417322
20
0.4639234645669291
11
0.4891126377952756
21
0.4747744094488189
0
LINE
8
BLACK
6
CONTINUOUS
10
0.4891126377952756
20
0.4747744094488189
11
0.4798293307086614
21
0.4846141338582677
0
LINE
8
BLACK
6
CONTINUOUS
10
0.4798293307086614
20
0.4846141338582677
11
0.4694664566929134
21
0.4933096456692913
0
LINE
8
BLACK
6
CONTINUOUS
10
0.4694664566929134
20
0.4933096456692913
11
0.4581641732283465
21
0.5007432677165354
0
LINE
8
BLACK
6
CONTINUOUS
10
0.4581641732283465
20
0.5007432677165354
11
0.4460752755905512
21
0.5068145275590551
0
LINE
8
BLACK
6
CONTINUOUS
10
0.4460752755905512
20
0.5068145275590551
11
0.4333633464566929
21
0.5114412992125984
0
LINE
8
BLACK
6
CONTINUOUS
10
0.4333633464566929
20
0.5114412992125984
11
0.4202001968503937
21
0.5145610236220473
0
LINE
8
BLACK
6
CONTINUOUS
10
0.4202001968503937
20
0.5145610236220473
11
0.4067638976377952
21
0.5161314960629921
0
LINE
8
BLACK
6
CONTINUOUS
10
0.4067638976377952
20
0.5161314960629921
11
0.3932361023622047
21
0.5161314960629921
0
LINE
8
BLACK
6
CONTINUOUS
10
0.3932361023622047
20
0.5161314960629921
11
0.3797998031496063
21
0.5145610236220473
0
LINE
8
BLACK
6
CONTINUOUS
10
0.3797998031496063
20
0.5145610236220473
11
0.3666366535433071
21
0.5114412992125984
0
LINE
8
BLACK
6
CONTINUOUS
10
0.3666366535433071
20
0.5114412992125984
11
0.3539247244094488
21
0.5068145275590551
0
LINE
8
BLACK
6
CONTINUOUS
10
0.3539247244094488
20
0.5068145275590551
11
0.3418358267716535
21
0.5007432677165354
0
LINE
8
BLACK
6
CONTINUOUS
10
0.3418358267716535
20
0.5007432677165354
11
0.3305335433070866
21
0.4933096456692913
0
LINE
8
BLACK
6
CONTINUOUS
10
0.3305335433070866
20
0.4933096456692913
11
0.3201706692913386
21
0.4846141338582677
0
LINE
8
BLACK
6
CONTINUOUS
10
0.3201706692913386
20
0.4846141338582677
11
0.3108873622047244
21
0.4747744094488189
0
LINE
8
BLACK
6
CONTINUOUS
10
0.3108873622047244
20
0.4747744094488189
11
0.3028091338582677
21
0.4639234645669291
0
LINE
8
BLACK
6
CONTINUOUS
10
0.3028091338582677
20
0.4639234645669291
11
0.2960452362204724
21
0.452208031496063
0
LINE
8
BLACK
6
CONTINUOUS
10
0.2960452362204724
20
0.452208031496063
11
0.2906871653543307
21
0.4397866141732283
0
LINE
8
BLACK
6
CONTINUOUS
10
0.2906871653543307
20
0.4397866141732283
11
0.2868073228346457
21
0.4268271653543307
0
LINE
8
BLACK
6
CONTINUOUS
10
0.2868073228346457
20
0.4268271653543307
11
0.2844582677165354
21
0.4135048818897638
0
LINE
8
BLACK
6
CONTINUOUS
10
0.2844582677165354
20
0.4135048818897638
11
0.2836716929133858
21
0.4
0
LINE
8
BLACK
6
CONTINUOUS
10
0.2836716929133858
20
0.4
11
0.2844582677165354
21
0.3864951181102362
0
LINE
8
BLACK
6
CONTINUOUS
10
2.0134434251968503
20
0.5193135433070866
11
2.0267177559055116
21
0.5170581496062993
0
LINE
8
BLACK
6
CONTINUOUS
10
2.0267177559055116
20
0.5170581496062993
11
2.0396561023622048
21
0.5133306692913385
0
LINE
8
BLACK
6
CONTINUOUS
10
2.0396561023622048
20
0.5133306692913385
11
2.0520957874015746
21
0.5081779921259842
0
LINE
8
BLACK
6
CONTINUOUS
10
2.0520957874015746
20
0.5081779921259842
11
2.0638803149606297
21
0.5016649212598425
0
LINE
8
BLACK
6
CONTINUOUS
10
2.0638803149606297
20
0.5016649212598425
11
2.0748614960629919
21
0.4938733464566929
0
LINE
8
BLACK
6
CONTINUOUS
10
2.0748614960629919
20
0.4938733464566929
11
2.0849012598425198
21
0.4849012598425197
0
LINE
8
BLACK
6
CONTINUOUS
10
2.0849012598425198
20
0.4849012598425197
11
2.093873346456693
21
0.4748614960629921
0
LINE
8
BLACK
6
CONTINUOUS
10
2.093873346456693
20
0.4748614960629921
11
2.1016649212598426
21
0.4638803149606299
0
LINE
8
BLACK
6
CONTINUOUS
10
2.1016649212598426
20
0.4638803149606299
11
2.108177992125984
21
0.4520957874015748
0
LINE
8
BLACK
6
CONTINUOUS
10
2.108177992125984
20
0.4520957874015748
11
2.1133306692913387
21
0.4396561023622047
0
LINE
8
BLACK
6
CONTINUOUS
10
2.1133306692913387
20
0.4396561023622047
11
2.117058149606299
21
0.4267177559055118
0
LINE
8
BLACK
6
CONTINUOUS
10
2.117058149606299
20
0.4267177559055118
11
2.1193135433070864
21
0.4134434251968504
0
LINE
8
BLACK
6
CONTINUOUS
10
2.1193135433070864
20
0.4134434251968504
11
2.120068503937008
21
0.4
0
LINE
8
BLACK
6
CONTINUOUS
10
2.120068503937008
20
0.4
11
2.1193135433070864
21
0.3865565748031496
0
LINE
8
BLACK
6
CONTINUOUS
10
2.1193135433070864
20
0.3865565748031496
11
2.117058149606299
21
0.3732822440944882
0
LINE
8
BLACK
6
CONTINUOUS
10
2.117058149606299
20
0.3732822440944882
11
2.1133306692913387
21
0.3603438976377953
0
LINE
8
BLACK
6
CONTINUOUS
10
2.1133306692913387
20
0.3603438976377953
11
2.108177992125984
21
0.3479042125984252
0
LINE
8
BLACK
6
CONTINUOUS
10
2.108177992125984
20
0.3479042125984252
11
2.1016649212598426
21
0.3361196850393701
0
LINE
8
BLACK
6
CONTINUOUS
10
2.1016649212598426
20
0.3361196850393701
11
2.093873346456693
21
0.3251385039370079
0
LINE
8
BLACK
6
CONTINUOUS
10
2.093873346456693
20
0.3251385039370079
11
2.0849012598425198
21
0.3150987401574803
0
LINE
8
BLACK
6
CONTINUOUS
10
2.0849012598425198
20
0.3150987401574803
11
2.0748614960629919
21
0.3061266535433071
0
LINE
8
BLACK
6
CONTINUOUS
10
2.0748614960629919
20
0.3061266535433071
11
2.0638803149606297
21
0.2983350787401575
0
LINE
8
BLACK
6
CONTINUOUS
10
2.0638803149606297
20
0.2983350787401575
11
2.0520957874015746
21
0.2918220078740157
0
LINE
8
BLACK
6
CONTINUOUS
10
2.0520957874015746
20
0.2918220078740157
11
2.0396561023622048
21
0.2866693307086614
0
LINE
8
BLACK
6
CONTINUOUS
10
2.0396561023622048
20
0.2866693307086614
11
2.0267177559055116
21
0.2829418503937008
0
LINE
8
BLACK
6
CONTINUOUS
10
2.0267177559055116
20
0.2829418503937008
11
2.0134434251968503
21
0.2806864566929134
0
LINE
8
BLACK
6
CONTINUOUS
10
2.0134434251968503
20
0.2806864566929134
11
2.
21
0.2799314960629921
0
LINE
8
BLACK
6
CONTINUOUS
10
2.
20
0.2799314960629921
11
1.9865565748031495
21
0.2806864566929134
0
LINE
8
BLACK
6
CONTINUOUS
10
1.9865565748031495
20
0.2806864566929134
11
1.9732822440944882
21
0.2829418503937008
0
LINE
8
BLACK
6
CONTINUOUS
10
1.9732822440944882
20
0.2829418503937008
11
1.9603438976377952
21
0.2866693307086614
0
LINE
8
BLACK
6
CONTINUOUS
10
1.9603438976377952
20
0.2866693307086614
11
1.9479042125984252
21
0.2918220078740157
0
LINE
8
BLACK
6
CONTINUOUS
10
1.9479042125984252
20
0.2918220078740157
11
1.93611968503937
21
0.2983350787401575
0
LINE
8
BLACK
6
CONTINUOUS
10
1.93611968503937
20
0.2983350787401575
11
1.9251385039370079
21
0.3061266535433071
0
LINE
8
BLACK
6
CONTINUOUS
10
1.9251385039370079
20
0.3061266535433071
11
1.9150987401574802
21
0.3150987401574803
0
LINE
8
BLACK
6
CONTINUOUS
10
1.9150987401574802
20
0.3150987401574803
11
1.906126653543307
21
0.3251385039370079
0
LINE
8
BLACK
6
CONTINUOUS
10
1.906126653543307
20
0.3251385039370079
11
1.8983350787401574
21
0.3361196850393701
0
LINE
8
BLACK
6
CONTINUOUS
10
1.8983350787401574
20
0.3361196850393701
11
1.8918220078740158
21
0.3479042125984252
0
LINE
8
BLACK
6
CONTINUOUS
10
1.8918220078740158
20
0.3479042125984252
11
1.8866693307086613
21
0.3603438976377953
0
LINE
8
BLACK
6
CONTINUOUS
10
1.8866693307086613
20
0.3603438976377953
11
1.8829418503937008
21
0.3732822440944882
0
LINE
8
BLACK
6
CONTINUOUS
10
1.8829418503937008
20
0.3732822440944882
11
1.8806864566929133
21
0.3865565748031496
0
LINE
8
BLACK
6
CONTINUOUS
10
1.8806864566929133
20
0.3865565748031496
11
1.879931496062992
21
0.4
0
LINE
8
BLACK
6
CONTINUOUS
10
1.879931496062992
20
0.4
11
1.8806864566929133
21
0.4134434251968504
0
LINE
8
BLACK
6
CONTINUOUS
10
1.8806864566929133
20
0.4134434251968504
11
1.8829418503937008
21
0.4267177559055118
0
LINE
8
BLACK
6
CONTINUOUS
10
1.8829418503937008
20
0.4267177559055118
11
1.8866693307086613
21
0.4396561023622047
0
LINE
8
BLACK
6
CONTINUOUS
10
1.8866693307086613
20
0.4396561023622047
11
1.8918220078740158
21
0.4520957874015748
0
LINE
8
BLACK
6
CONTINUOUS
10
1.8918220078740158
20
0.4520957874015748
11
1.8983350787401574
21
0.4638803149606299
0
LINE
8
BLACK
6
CONTINUOUS
10
1.8983350787401574
20
0.4638803149606299
11
1.906126653543307
21
0.4748614960629921
0
LINE
8
BLACK
6
CONTINUOUS
10
1.906126653543307
20
0.4748614960629921
11
1.9150987401574802
21
0.4849012598425197
0
LINE
8
BLACK
6
CONTINUOUS
10
1.9150987401574802
20
0.4849012598425197
11
1.9251385039370079
21
0.4938733464566929
0
LINE
8
BLACK
6
CONTINUOUS
10
1.9251385039370079
20
0.4938733464566929
11
1.93611968503937
21
0.5016649212598425
0
LINE
8
BLACK
6
CONTINUOUS
10
1.93611968503937
20
0.5016649212598425
11
1.9479042125984252
21
0.5081779921259842
0
LINE
8
BLACK
6
CONTINUOUS
10
1.9479042125984252
20
0.5081779921259842
11
1.9603438976377952
21
0.5133306692913385
0
LINE
8
BLACK
6
CONTINUOUS
10
1.9603438976377952
20
0.5133306692913385
11
1.9732822440944882
21
0.5170581496062993
0
LINE
8
BLACK
6
CONTINUOUS
10
1.9732822440944882
20
0.5170581496062993
11
1.9865565748031495
21
0.5193135433070866
0
LINE
8
BLACK
6
CONTINUOUS
10
1.9865565748031495
20
0.5193135433070866
11
2.
21
0.5200685039370079
0
LINE
8
BLACK
6
CONTINUOUS
10
2.
20
0.5200685039370079
11
2.0134434251968503
21
0.5193135433070866
0
LINE
8
BLACK
6
CONTINUOUS
10
1.8844582677165354
20
0.3864951181102362
11
1.8868073228346456
21
0.3731728346456693
0
LINE
8
BLACK
6
CONTINUOUS
10
1.8868073228346456
20
0.3731728346456693
11
1.8906871653543307
21
0.3602133858267716
0
LINE
8
BLACK
6
CONTINUOUS
10
1.8906871653543307
20
0.3602133858267716
11
1.8960452362204725
21
0.347791968503937
0
LINE
8
BLACK
6
CONTINUOUS
10
1.8960452362204725
20
0.347791968503937
11
1.9028091338582678
21
0.3360765354330709
0
LINE
8
BLACK
6
CONTINUOUS
10
1.9028091338582678
20
0.3360765354330709
11
1.9108873622047244
21
0.3252255905511811
0
LINE
8
BLACK
6
CONTINUOUS
10
1.9108873622047244
20
0.3252255905511811
11
1.9201706692913385
21
0.3153858661417323
0
LINE
8
BLACK
6
CONTINUOUS
10
1.9201706692913385
20
0.3153858661417323
11
1.9305335433070865
21
0.3066903543307087
0
LINE
8
BLACK
6
CONTINUOUS
10
1.9305335433070865
20
0.3066903543307087
11
1.9418358267716536
21
0.2992567322834646
0
LINE
8
BLACK
6
CONTINUOUS
10
1.9418358267716536
20
0.2992567322834646
11
1.9539247244094489
21
0.2931854724409449
0
LINE
8
BLACK
6
CONTINUOUS
10
1.9539247244094489
20
0.2931854724409449
11
1.9666366535433071
21
0.2885587007874016
0
LINE
8
BLACK
6
CONTINUOUS
10
1.9666366535433071
20
0.2885587007874016
11
1.9797998031496062
21
0.2854389763779527
0
LINE
8
BLACK
6
CONTINUOUS
10
1.9797998031496062
20
0.2854389763779527
11
1.9932361023622047
21
0.2838685039370079
0
LINE
8
BLACK
6
CONTINUOUS
10
1.9932361023622047
20
0.2838685039370079
11
2.0067638976377951
21
0.2838685039370079
0
LINE
8
BLACK
6
CONTINUOUS
10
2.0067638976377951
20
0.2838685039370079
11
2.0202001968503938
21
0.2854389763779527
0
LINE
8
BLACK
6
CONTINUOUS
10
2.0202001968503938
20
0.2854389763779527
11
2.0333633464566927
21
0.2885587007874016
0
LINE
8
BLACK
6
CONTINUOUS
10
2.0333633464566927
20
0.2885587007874016
11
2.0460752755905509
21
0.2931854724409449
0
LINE
8
BLACK
6
CONTINUOUS
10
2.0460752755905509
20
0.2931854724409449
11
2.0581641732283464
21
0.2992567322834646
0
LINE
8
BLACK
6
CONTINUOUS
10
2.0581641732283464
20
0.2992567322834646
11
2.0694664566929135
21
0.3066903543307087
0
LINE
8
BLACK
6
CONTINUOUS
10
2.0694664566929135
20
0.3066903543307087
11
2.0798293307086615
21
0.3153858661417323
0
LINE
8
BLACK
6
CONTINUOUS
10
2.0798293307086615
20
0.3153858661417323
11
2.0891126377952753
21
0.3252255905511811
0
LINE
8
BLACK
6
CONTINUOUS
10
2.0891126377952753
20
0.3252255905511811
11
2.0971908661417324
21
0.3360765354330709
0
LINE
8
BLACK
6
CONTINUOUS
10
2.0971908661417324
20
0.3360765354330709
11
2.1039547637795275
21
0.347791968503937
0
LINE
8
BLACK
6
CONTINUOUS
10
2.1039547637795275
20
0.347791968503937
11
2.1093128346456691
21
0.3602133858267716
0
LINE
8
BLACK
6
CONTINUOUS
10
2.1093128346456691
20
0.3602133858267716
11
2.1131926771653542
21
0.3731728346456693
0
LINE
8
BLACK
6
CONTINUOUS
10
2.1131926771653542
20
0.3731728346456693
11
2.1155417322834644
21
0.3864951181102362
0
LINE
8
BLACK
6
CONTINUOUS
10
2.1155417322834644
20
0.3864951181102362
11
2.1163283070866141
21
0.4
0
LINE
8
BLACK
6
CONTINUOUS
10
2.1163283070866141
20
0.4
11
2.1155417322834644
21
0.4135048818897638
0
LINE
8
BLACK
6
CONTINUOUS
10
2.1155417322834644
20
0.4135048818897638
11
2.1131926771653542
21
0.4268271653543307
0
LINE
8
BLACK
6
CONTINUOUS
10
2.1131926771653542
20
0.4268271653543307
11
2.1093128346456691
21
0.4397866141732283
0
LINE
8
BLACK
6
CONTINUOUS
10
2.1093128346456691
20
0.4397866141732283
11
2.1039547637795275
21
0.452208031496063
0
LINE
8
BLACK
6
CONTINUOUS
10
2.1039547637795275
20
0.452208031496063
11
2.0971908661417324
21
0.4639234645669291
0
LINE
8
BLACK
6
CONTINUOUS
10
2.0971908661417324
20
0.4639234645669291
11
2.0891126377952753
21
0.4747744094488189
0
LINE
8
BLACK
6
CONTINUOUS
10
2.0891126377952753
20
0.4747744094488189
11
2.0798293307086615
21
0.4846141338582677
0
LINE
8
BLACK
6
CONTINUOUS
10
2.0798293307086615
20
0.4846141338582677
11
2.0694664566929135
21
0.4933096456692913
0
LINE
8
BLACK
6
CONTINUOUS
10
2.0694664566929135
20
0.4933096456692913
11
2.0581641732283464
21
0.5007432677165354
0
LINE
8
BLACK
6
CONTINUOUS
10
2.0581641732283464
20
0.5007432677165354
11
2.0460752755905509
21
0.5068145275590551
0
LINE
8
BLACK
6
CONTINUOUS
10
2.0460752755905509
20
0.5068145275590551
11
2.0333633464566927
21
0.5114412992125984
0
LINE
8
BLACK
6
CONTINUOUS
10
2.0333633464566927
20
0.5114412992125984
11
2.0202001968503938
21
0.5145610236220473
0
LINE
8
BLACK
6
CONTINUOUS
10
2.0202001968503938
20
0.5145610236220473
11
2.0067638976377951
21
0.5161314960629921
0
LINE
8
BLACK
6
CONTINUOUS
10
2.0067638976377951
20
0.5161314960629921
11
1.9932361023622047
21
0.5161314960629921
0
LINE
8
BLACK
6
CONTINUOUS
10
1.9932361023622047
20
0.5161314960629921
11
1.9797998031496062
21
0.5145610236220473
0
LINE
8
BLACK
6
CONTINUOUS
10
1.9797998031496062
20
0.5145610236220473
11
1.9666366535433071
21
0.5114412992125984
0
LINE
8
BLACK
6
CONTINUOUS
10
1.9666366535433071
20
0.5114412992125984
11
1.9539247244094489
21
0.5068145275590551
0
LINE
8
BLACK
6
CONTINUOUS
10
1.9539247244094489
20
0.5068145275590551
11
1.9418358267716536
21
0.5007432677165354
0
LINE
8
BLACK
6
CONTINUOUS
10
1.9418358267716536
20
0.5007432677165354
11
1.9305335433070865
21
0.4933096456692913
0
LINE
8
BLACK
6
CONTINUOUS
10
1.9305335433070865
20
0.4933096456692913
11
1.9201706692913385
21
0.4846141338582677
0
LINE
8
BLACK
6
CONTINUOUS
10
1.9201706692913385
20
0.4846141338582677
11
1.9108873622047244
21
0.4747744094488189
0
LINE
8
BLACK
6
CONTINUOUS
10
1.9108873622047244
20
0.4747744094488189
11
1.9028091338582678
21
0.4639234645669291
0
LINE
8
BLACK
6
CONTINUOUS
10
1.9028091338582678
20
0.4639234645669291
11
1.8960452362204725
21
0.452208031496063
0
LINE
8
BLACK
6
CONTINUOUS
10
1.8960452362204725
20
0.452208031496063
11
1.8906871653543307
21
0.4397866141732283
0
LINE
8
BLACK
6
CONTINUOUS
10
1.8906871653543307
20
0.4397866141732283
11
1.8868073228346456
21
0.4268271653543307
0
LINE
8
BLACK
6
CONTINUOUS
10
1.8868073228346456
20
0.4268271653543307
11
1.8844582677165354
21
0.4135048818897638
0
LINE
8
BLACK
6
CONTINUOUS
10
1.8844582677165354
20
0.4135048818897638
11
1.8836716929133859
21
0.4
0
LINE
8
BLACK
6
CONTINUOUS
10
1.8836716929133859
20
0.4
11
1.8844582677165354
21
0.3864951181102362
0
LINE
8
BLACK
6
CONTINUOUS
10
1.702576062992126
20
0.6188960236220472
11
1.7036404724409449
21
0.6184551181102362
0
LINE
8
BLACK
6
CONTINUOUS
10
1.7036404724409449
20
0.6184551181102362
11
1.7044551181102361
21
0.6176404724409449
0
LINE
8
BLACK
6
CONTINUOUS
10
1.7044551181102361
20
0.6176404724409449
11
1.7048960236220472
21
0.616576062992126
0
LINE
8
BLACK
6
CONTINUOUS
10
1.7048960236220472
20
0.616576062992126
11
1.7049527559055118
21
0.316
0
LINE
8
BLACK
6
CONTINUOUS
10
1.7049527559055118
20
0.316
11
1.7048960236220472
21
0.315423937007874
0
LINE
8
BLACK
6
CONTINUOUS
10
1.7048960236220472
20
0.315423937007874
11
1.7044551181102361
21
0.3143595275590551
0
LINE
8
BLACK
6
CONTINUOUS
10
1.7044551181102361
20
0.3143595275590551
11
1.7036404724409449
21
0.3135448818897638
0
LINE
8
BLACK
6
CONTINUOUS
10
1.7036404724409449
20
0.3135448818897638
11
1.702576062992126
21
0.3131039763779527
0
LINE
8
BLACK
6
CONTINUOUS
10
1.702576062992126
20
0.3131039763779527
11
1.502
21
0.3130472440944882
0
LINE
8
BLACK
6
CONTINUOUS
10
1.502
20
0.3130472440944882
11
1.5014239370078739
21
0.3131039763779527
0
LINE
8
BLACK
6
CONTINUOUS
10
1.5014239370078739
20
0.3131039763779527
11
1.5003595275590551
21
0.3135448818897638
0
LINE
8
BLACK
6
CONTINUOUS
10
1.5003595275590551
20
0.3135448818897638
11
1.4995448818897636
21
0.3143595275590551
0
LINE
8
BLACK
6
CONTINUOUS
10
1.4995448818897636
20
0.3143595275590551
11
1.4991039763779528
21
0.315423937007874
0
LINE
8
BLACK
6
CONTINUOUS
10
1.4991039763779528
20
0.315423937007874
11
1.4990472440944882
21
0.616
0
LINE
8
BLACK
6
CONTINUOUS
10
1.4990472440944882
20
0.616
11
1.4991039763779528
21
0.616576062992126
0
LINE
8
BLACK
6
CONTINUOUS
10
1.4991039763779528
20
0.616576062992126
11
1.4995448818897636
21
0.6176404724409449
0
LINE
8
BLACK
6
CONTINUOUS
10
1.4995448818897636
20
0.6176404724409449
11
1.5003595275590551
21
0.6184551181102362
0
LINE
8
BLACK
6
CONTINUOUS
10
1.5003595275590551
20
0.6184551181102362
11
1.5014239370078739
21
0.6188960236220472
0
LINE
8
BLACK
6
CONTINUOUS
10
1.5014239370078739
20
0.6188960236220472
11
1.702
21
0.6189527559055118
0
LINE
8
BLACK
6
CONTINUOUS
10
1.702
20
0.6189527559055118
11
1.702576062992126
21
0.6188960236220472
0
LINE
8
BLACK
6
CONTINUOUS
10
1.504896653543307
20
0.6130480708661418
11
1.5049522047244095
21
0.3188970472440945
0
LINE
8
BLACK
6
CONTINUOUS
10
1.5049522047244095
20
0.3188970472440945
11
1.6991033070866142
21
0.318951968503937
0
LINE
8
BLACK
6
CONTINUOUS
10
1.6991033070866142
20
0.318951968503937
11
1.6990477559055117
21
0.6131029921259843
0
LINE
8
BLACK
6
CONTINUOUS
10
1.6990477559055117
20
0.6131029921259843
11
1.504896653543307
21
0.6130480708661418
0
LINE
8
BLACK
6
CONTINUOUS
10
0.9605760629921259
20
0.6428960236220472
11
0.9616404724409449
21
0.6424551181102363
0
LINE
8
BLACK
6
CONTINUOUS
10
0.9616404724409449
20
0.6424551181102363
11
0.9624551181102362
21
0.6416404724409449
0
LINE
8
BLACK
6
CONTINUOUS
10
0.9624551181102362
20
0.6416404724409449
11
0.9628960236220472
21
0.640576062992126
0
LINE
8
BLACK
6
CONTINUOUS
10
0.9628960236220472
20
0.640576062992126
11
0.9629527559055118
21
0.34
0
LINE
8
BLACK
6
CONTINUOUS
10
0.9629527559055118
20
0.34
11
0.9628960236220472
21
0.339423937007874
0
LINE
8
BLACK
6
CONTINUOUS
10
0.9628960236220472
20
0.339423937007874
11
0.9624551181102362
21
0.3383595275590551
0
LINE
8
BLACK
6
CONTINUOUS
10
0.9624551181102362
20
0.3383595275590551
11
0.9616404724409449
21
0.3375448818897638
0
LINE
8
BLACK
6
CONTINUOUS
10
0.9616404724409449
20
0.3375448818897638
11
0.9605760629921259
21
0.3371039763779528
0
LINE
8
BLACK
6
CONTINUOUS
10
0.9605760629921259
20
0.3371039763779528
11
0.76
21
0.3370472440944882
0
LINE
8
BLACK
6
CONTINUOUS
10
0.76
20
0.3370472440944882
11
0.759423937007874
21
0.3371039763779528
0
LINE
8
BLACK
6
CONTINUOUS
10
0.759423937007874
20
0.3371039763779528
11
0.7583595275590551
21
0.3375448818897638
0
LINE
8
BLACK
6
CONTINUOUS
10
0.7583595275590551
20
0.3375448818897638
11
0.7575448818897638
21
0.3383595275590551
0
LINE
8
BLACK
6
CONTINUOUS
10
0.7575448818897638
20
0.3383595275590551
11
0.7571039763779528
21
0.339423937007874
0
LINE
8
BLACK
6
CONTINUOUS
10
0.7571039763779528
20
0.339423937007874
11
0.7570472440944882
21
0.64
0
LINE
8
BLACK
6
CONTINUOUS
10
0.7570472440944882
20
0.64
11
0.7571039763779528
21
0.640576062992126
0
LINE
8
BLACK
6
CONTINUOUS
10
0.7571039763779528
20
0.640576062992126
11
0.7575448818897638
21
0.6416404724409449
0
LINE
8
BLACK
6
CONTINUOUS
10
0.7575448818897638
20
0.6416404724409449
11
0.7583595275590551
21
0.6424551181102363
0
LINE
8
BLACK
6
CONTINUOUS
10
0.7583595275590551
20
0.6424551181102363
11
0.759423937007874
21
0.6428960236220472
0
LINE
8
BLACK
6
CONTINUOUS
10
0.759423937007874
20
0.6428960236220472
11
0.96
21
0.6429527559055118
0
LINE
8
BLACK
6
CONTINUOUS
10
0.96
20
0.6429527559055118
11
0.9605760629921259
21
0.6428960236220472
0
LINE
8
BLACK
6
CONTINUOUS
10
0.762896653543307
20
0.6370480708661417
11
0.7629522047244094
21
0.3428970472440945
0
LINE
8
BLACK
6
CONTINUOUS
10
0.7629522047244094
20
0.3428970472440945
11
0.9571033070866142
21
0.342951968503937
0
LINE
8
BLACK
6
CONTINUOUS
10
0.9571033070866142
20
0.342951968503937
11
0.9570477559055118
21
0.6371029921259842
0
LINE
8
BLACK
6
CONTINUOUS
10
0.9570477559055118
20
0.6371029921259842
11
0.762896653543307
21
0.6370480708661417
0
LINE
8
BLACK
6
CONTINUOUS
10
0.500576062992126
20
1.4028960236220471
11
0.5016404724409449
21
1.4024551181102363
0
LINE
8
BLACK
6
CONTINUOUS
10
0.5016404724409449
20
1.4024551181102363
11
0.5024551181102362
21
1.4016404724409448
0
LINE
8
BLACK
6
CONTINUOUS
10
0.5024551181102362
20
1.4016404724409448
11
0.5028960236220472
21
1.400576062992126
0
LINE
8
BLACK
6
CONTINUOUS
10
0.5028960236220472
20
1.400576062992126
11
0.5029527559055118
21
1.3
0
LINE
8
BLACK
6
CONTINUOUS
10
0.5029527559055118
20
1.3
11
0.502896653543307
21
1.2994305118110236
0
LINE
8
BLACK
6
CONTINUOUS
10
0.502896653543307
20
1.2994305118110236
11
0.5029527559055118
21
1.2
0
LINE
8
BLACK
6
CONTINUOUS
10
0.5029527559055118
20
1.2
11
0.502896653543307
21
1.1994305118110236
0
LINE
8
BLACK
6
CONTINUOUS
10
0.502896653543307
20
1.1994305118110236
11
0.5029527559055118
21
1.0999999999999999
0
LINE
8
BLACK
6
CONTINUOUS
10
0.5029527559055118
20
1.0999999999999999
11
0.502896653543307
21
1.0994305118110237
0
LINE
8
BLACK
6
CONTINUOUS
10
0.502896653543307
20
1.0994305118110237
11
0.5029527559055118
21
1.
0
LINE
8
BLACK
6
CONTINUOUS
10
0.5029527559055118
20
1.
11
0.502896653543307
21
0.9994305118110236
0
LINE
8
BLACK
6
CONTINUOUS
10
0.502896653543307
20
0.9994305118110236
11
0.5029527559055118
21
0.9
0
LINE
8
BLACK
6
CONTINUOUS
10
0.5029527559055118
20
0.9
11
0.502896653543307
21
0.8994305118110236
0
LINE
8
BLACK
6
CONTINUOUS
10
0.502896653543307
20
0.8994305118110236
11
0.5029527559055118
21
0.7999999999999999
0
LINE
8
BLACK
6
CONTINUOUS
10
0.5029527559055118
20
0.7999999999999999
11
0.502896653543307
21
0.7994305118110236
0
LINE
8
BLACK
6
CONTINUOUS
10
0.502896653543307
20
0.7994305118110236
11
0.5029527559055118
21
0.7
0
LINE
8
BLACK
6
CONTINUOUS
10
0.5029527559055118
20
0.7
11
0.502896653543307
21
0.6994305118110236
0
LINE
8
BLACK
6
CONTINUOUS
10
0.502896653543307
20
0.6994305118110236
11
0.5029527559055118
21
0.6
0
LINE
8
BLACK
6
CONTINUOUS
10
0.5029527559055118
20
0.6
11
0.5028960236220472
21
0.599423937007874
0
LINE
8
BLACK
6
CONTINUOUS
10
0.5028960236220472
20
0.599423937007874
11
0.5024551181102362
21
0.5983595275590551
0
LINE
8
BLACK
6
CONTINUOUS
10
0.5024551181102362
20
0.5983595275590551
11
0.5016404724409449
21
0.5975448818897637
0
LINE
8
BLACK
6
CONTINUOUS
10
0.5016404724409449
20
0.5975448818897637
11
0.500576062992126
21
0.5971039763779528
0
LINE
8
BLACK
6
CONTINUOUS
10
0.500576062992126
20
0.5971039763779528
11
0.3
21
0.5970472440944882
0
LINE
8
BLACK
6
CONTINUOUS
10
0.3
20
0.5970472440944882
11
0.299423937007874
21
0.5971039763779528
0
LINE
8
BLACK
6
CONTINUOUS
10
0.299423937007874
20
0.5971039763779528
11
0.2983595275590551
21
0.5975448818897637
0
LINE
8
BLACK
6
CONTINUOUS
10
0.2983595275590551
20
0.5975448818897637
11
0.2975448818897637
21
0.5983595275590551
0
LINE
8
BLACK
6
CONTINUOUS
10
0.2975448818897637
20
0.5983595275590551
11
0.2971039763779528
21
0.599423937007874
0
LINE
8
BLACK
6
CONTINUOUS
10
0.2971039763779528
20
0.599423937007874
11
0.2970472440944882
21
0.7
0
LINE
8
BLACK
6
CONTINUOUS
10
0.2970472440944882
20
0.7
11
0.2971033070866141
21
0.7005695275590551
0
LINE
8
BLACK
6
CONTINUOUS
10
0.2971033070866141
20
0.7005695275590551
11
0.2970472440944882
21
0.7999999999999999
0
LINE
8
BLACK
6
CONTINUOUS
10
0.2970472440944882
20
0.7999999999999999
11
0.2971033070866141
21
0.8005695275590551
0
LINE
8
BLACK
6
CONTINUOUS
10
0.2971033070866141
20
0.8005695275590551
11
0.2970472440944882
21
0.9
0
LINE
8
BLACK
6
CONTINUOUS
10
0.2970472440944882
20
0.9
11
0.2971033070866141
21
0.9005695275590551
0
LINE
8
BLACK
6
CONTINUOUS
10
0.2971033070866141
20
0.9005695275590551
11
0.2970472440944882
21
1.
0
LINE
8
BLACK
6
CONTINUOUS
10
0.2970472440944882
20
1.
11
0.2971033070866141
21
1.0005695275590551
0
LINE
8
BLACK
6
CONTINUOUS
10
0.2971033070866141
20
1.0005695275590551
11
0.2970472440944882
21
1.0999999999999999
0
LINE
8
BLACK
6
CONTINUOUS
10
0.2970472440944882
20
1.0999999999999999
11
0.2971033070866141
21
1.100569527559055
0
LINE
8
BLACK
6
CONTINUOUS
10
0.2971033070866141
20
1.100569527559055
11
0.2970472440944882
21
1.2
0
LINE
8
BLACK
6
CONTINUOUS
10
0.2970472440944882
20
1.2
11
0.2971033070866141
21
1.2005695275590551
0
LINE
8
BLACK
6
CONTINUOUS
10
0.2971033070866141
20
1.2005695275590551
11
0.2970472440944882
21
1.3
0
LINE
8
BLACK
6
CONTINUOUS
10
0.2970472440944882
20
1.3
11
0.2971033070866141
21
1.3005695275590552
0
LINE
8
BLACK
6
CONTINUOUS
10
0.2971033070866141
20
1.3005695275590552
11
0.2970472440944882
21
1.3999999999999999
0
LINE
8
BLACK
6
CONTINUOUS
10
0.2970472440944882
20
1.3999999999999999
11
0.2971039763779528
21
1.400576062992126
0
LINE
8
BLACK
6
CONTINUOUS
10
0.2971039763779528
20
1.400576062992126
11
0.2975448818897637
21
1.4016404724409448
0
LINE
8
BLACK
6
CONTINUOUS
10
0.2975448818897637
20
1.4016404724409448
11
0.2983595275590551
21
1.4024551181102363
0
LINE
8
BLACK
6
CONTINUOUS
10
0.2983595275590551
20
1.4024551181102363
11
0.299423937007874
21
1.4028960236220471
0
LINE
8
BLACK
6
CONTINUOUS
10
0.299423937007874
20
1.4028960236220471
11
0.5
21
1.4029527559055117
0
LINE
8
BLACK
6
CONTINUOUS
10
0.5
20
1.4029527559055117
11
0.500576062992126
21
1.4028960236220471
0
LINE
8
BLACK
6
CONTINUOUS
10
0.3028979921259842
20
0.6970480708661417
11
0.3029511023622047
21
0.6028970472440944
0
LINE
8
BLACK
6
CONTINUOUS
10
0.3029511023622047
20
0.6028970472440944
11
0.497101968503937
21
0.602951968503937
0
LINE
8
BLACK
6
CONTINUOUS
10
0.497101968503937
20
0.602951968503937
11
0.4970488582677165
21
0.6971029921259843
0
LINE
8
BLACK
6
CONTINUOUS
10
0.4970488582677165
20
0.6971029921259843
11
0.3028979921259842
21
0.6970480708661417
0
LINE
8
BLACK
6
CONTINUOUS
10
0.3028979921259842
20
0.7970480708661417
11
0.3029511023622047
21
0.7028970472440945
0
LINE
8
BLACK
6
CONTINUOUS
10
0.3029511023622047
20
0.7028970472440945
11
0.497101968503937
21
0.702951968503937
0
LINE
8
BLACK
6
CONTINUOUS
10
0.497101968503937
20
0.702951968503937
11
0.4970488582677165
21
0.7971029921259842
0
LINE
8
BLACK
6
CONTINUOUS
10
0.4970488582677165
20
0.7971029921259842
11
0.3028979921259842
21
0.7970480708661417
0
LINE
8
BLACK
6
CONTINUOUS
10
0.3028979921259842
20
0.8970480708661417
11
0.3029511023622047
21
0.8028970472440945
0
LINE
8
BLACK
6
CONTINUOUS
10
0.3029511023622047
20
0.8028970472440945
11
0.497101968503937
21
0.802951968503937
0
LINE
8
BLACK
6
CONTINUOUS
10
0.497101968503937
20
0.802951968503937
11
0.4970488582677165
21
0.8971029921259842
0
LINE
8
BLACK
6
CONTINUOUS
10
0.4970488582677165
20
0.8971029921259842
11
0.3028979921259842
21
0.8970480708661417
0
LINE
8
BLACK
6
CONTINUOUS
10
0.3028979921259842
20
0.9970480708661417
11
0.3029511023622047
21
0.9028970472440945
0
LINE
8
BLACK
6
CONTINUOUS
10
0.3029511023622047
20
0.9028970472440945
11
0.497101968503937
21
0.902951968503937
0
LINE
8
BLACK
6
CONTINUOUS
10
0.497101968503937
20
0.902951968503937
11
0.4970488582677165
21
0.9971029921259842
0
LINE
8
BLACK
6
CONTINUOUS
10
0.4970488582677165
20
0.9971029921259842
11
0.3028979921259842
21
0.9970480708661417
0
LINE
8
BLACK
6
CONTINUOUS
10
0.3028979921259842
20
1.0970480708661416
11
0.3029511023622047
21
1.0028970472440946
0
LINE
8
BLACK
6
CONTINUOUS
10
0.3029511023622047
20
1.0028970472440946
11
0.497101968503937
21
1.002951968503937
0
LINE
8
BLACK
6
CONTINUOUS
10
0.497101968503937
20
1.002951968503937
11
0.4970488582677165
21
1.0971029921259843
0
LINE
8
BLACK
6
CONTINUOUS
10
0.4970488582677165
20
1.0971029921259843
11
0.3028979921259842
21
1.0970480708661416
0
LINE
8
BLACK
6
CONTINUOUS
10
0.3028979921259842
20
1.1970480708661417
11
0.3029511023622047
21
1.1028970472440944
0
LINE
8
BLACK
6
CONTINUOUS
10
0.3029511023622047
20
1.1028970472440944
11
0.497101968503937
21
1.1029519685039371
0
LINE
8
BLACK
6
CONTINUOUS
10
0.497101968503937
20
1.1029519685039371
11
0.4970488582677165
21
1.1971029921259841
0
LINE
8
BLACK
6
CONTINUOUS
10
0.4970488582677165
20
1.1971029921259841
11
0.3028979921259842
21
1.1970480708661417
0
LINE
8
BLACK
6
CONTINUOUS
10
0.3028979921259842
20
1.2970480708661416
11
0.3029511023622047
21
1.2028970472440945
0
LINE
8
BLACK
6
CONTINUOUS
10
0.3029511023622047
20
1.2028970472440945
11
0.497101968503937
21
1.2029519685039369
0
LINE
8
BLACK
6
CONTINUOUS
10
0.497101968503937
20
1.2029519685039369
11
0.4970488582677165
21
1.2971029921259842
0
LINE
8
BLACK
6
CONTINUOUS
10
0.4970488582677165
20
1.2971029921259842
11
0.3028979921259842
21
1.2970480708661416
0
LINE
8
BLACK
6
CONTINUOUS
10
0.3028979921259842
20
1.3970480708661417
11
0.3029511023622047
21
1.3028970472440944
0
LINE
8
BLACK
6
CONTINUOUS
10
0.3029511023622047
20
1.3028970472440944
11
0.497101968503937
21
1.302951968503937
0
LINE
8
BLACK
6
CONTINUOUS
10
0.497101968503937
20
1.302951968503937
11
0.4970488582677165
21
1.3971029921259843
0
LINE
8
BLACK
6
CONTINUOUS
10
0.4970488582677165
20
1.3971029921259843
11
0.3028979921259842
21
1.3970480708661417
0
LINE
8
BLACK
6
CONTINUOUS
10
1.9849738188976378
20
0.8186042519685039
11
1.985788464566929
21
0.8177896062992126
0
LINE
8
BLACK
6
CONTINUOUS
10
1.985788464566929
20
0.8177896062992126
11
1.9862293700787401
21
0.8167251968503937
0
LINE
8
BLACK
6
CONTINUOUS
10
1.9862293700787401
20
0.8167251968503937
11
1.9862861023622047
21
0.780434842519685
0
LINE
8
BLACK
6
CONTINUOUS
10
1.9862861023622047
20
0.780434842519685
11
1.9862573622047244
21
0.7801432677165354
0
LINE
8
BLACK
6
CONTINUOUS
10
1.9862573622047244
20
0.7801432677165354
11
1.9862629133858267
21
0.7800655118110236
0
LINE
8
BLACK
6
CONTINUOUS
10
1.9862629133858267
20
0.7800655118110236
11
1.9862439763779527
21
0.7800074803149606
0
LINE
8
BLACK
6
CONTINUOUS
10
1.9862439763779527
20
0.7800074803149606
11
1.9862293700787401
21
0.779858779527559
0
LINE
8
BLACK
6
CONTINUOUS
10
1.9862293700787401
20
0.779858779527559
11
1.9860715748031497
21
0.7794779133858267
0
LINE
8
BLACK
6
CONTINUOUS
10
1.9860715748031497
20
0.7794779133858267
11
1.9837535826771653
21
0.7723582677165354
0
LINE
8
BLACK
6
CONTINUOUS
10
1.9837535826771653
20
0.7723582677165354
11
1.9835175984251967
21
0.7718296850393701
0
LINE
8
BLACK
6
CONTINUOUS
10
1.9835175984251967
20
0.7718296850393701
11
1.9834480708661417
21
0.7717495669291339
0
LINE
8
BLACK
6
CONTINUOUS
10
1.9834480708661417
20
0.7717495669291339
11
1.9834075196850394
21
0.7716515748031496
0
LINE
8
BLACK
6
CONTINUOUS
10
1.9834075196850394
20
0.7716515748031496
11
1.9830346850393701
21
0.7712729527559055
0
LINE
8
BLACK
6
CONTINUOUS
10
1.9830346850393701
20
0.7712729527559055
11
1.9827627165354331
21
0.7709593307086614
0
LINE
8
BLACK
6
CONTINUOUS
10
1.9827627165354331
20
0.7709593307086614
11
1.9826902755905511
21
0.7709231496062992
0
LINE
8
BLACK
6
CONTINUOUS
10
1.9826902755905511
20
0.7709231496062992
11
1.9782783858267716
21
0.7664421653543307
0
LINE
8
BLACK
6
CONTINUOUS
10
1.9782783858267716
20
0.7664421653543307
11
1.9778309448818898
21
0.7660749606299212
0
LINE
8
BLACK
6
CONTINUOUS
10
1.9778309448818898
20
0.7660749606299212
11
1.9777329527559055
21
0.7660344094488188
0
LINE
8
BLACK
6
CONTINUOUS
10
1.9777329527559055
20
0.7660344094488188
11
1.9776527952755905
21
0.765964842519685
0
LINE
8
BLACK
6
CONTINUOUS
10
1.9776527952755905
20
0.765964842519685
11
1.9771558661417323
21
0.7657953543307087
0
LINE
8
BLACK
6
CONTINUOUS
10
1.9771558661417323
20
0.7657953543307087
11
1.9767665354330708
21
0.7656340551181102
0
LINE
8
BLACK
6
CONTINUOUS
10
1.9767665354330708
20
0.7656340551181102
11
1.9766831102362203
21
0.7656340551181102
0
LINE
8
BLACK
6
CONTINUOUS
10
1.9766831102362203
20
0.7656340551181102
11
1.9699813385826772
21
0.7633479133858267
0
LINE
8
BLACK
6
CONTINUOUS
10
1.9699813385826772
20
0.7633479133858267
11
1.9696957480314961
21
0.7632829921259843
0
LINE
8
BLACK
6
CONTINUOUS
10
1.9696957480314961
20
0.7632829921259843
11
1.9696236614173228
21
0.7632531102362204
0
LINE
8
BLACK
6
CONTINUOUS
10
1.9696236614173228
20
0.7632531102362204
11
1.9695614960629921
21
0.7632524803149606
0
LINE
8
BLACK
6
CONTINUOUS
10
1.9695614960629921
20
0.7632524803149606
11
1.9694168897637794
21
0.7632195669291338
0
LINE
8
BLACK
6
CONTINUOUS
10
1.9694168897637794
20
0.7632195669291338
11
1.9690332677165354
21
0.7632468503937008
0
LINE
8
BLACK
6
CONTINUOUS
10
1.9690332677165354
20
0.7632468503937008
11
1.9642857086614174
21
0.7631963779527559
0
LINE
8
BLACK
6
CONTINUOUS
10
1.9642857086614174
20
0.7631963779527559
11
1.9637096456692913
21
0.7632531102362204
0
LINE
8
BLACK
6
CONTINUOUS
10
1.9637096456692913
20
0.7632531102362204
11
1.9626452362204725
21
0.7636940157480315
0
LINE
8
BLACK
6
CONTINUOUS
10
1.9626452362204725
20
0.7636940157480315
11
1.961830590551181
21
0.7645086614173228
0
LINE
8
BLACK
6
CONTINUOUS
10
1.961830590551181
20
0.7645086614173228
11
1.9613896850393699
21
0.7655730708661417
0
LINE
8
BLACK
6
CONTINUOUS
10
1.9613896850393699
20
0.7655730708661417
11
1.9613896850393699
21
0.7667251968503936
0
LINE
8
BLACK
6
CONTINUOUS
10
1.9613896850393699
20
0.7667251968503936
11
1.961830590551181
21
0.7677896062992126
0
LINE
8
BLACK
6
CONTINUOUS
10
1.961830590551181
20
0.7677896062992126
11
1.9626452362204725
21
0.7686042519685039
0
LINE
8
BLACK
6
CONTINUOUS
10
1.9626452362204725
20
0.7686042519685039
11
1.9637096456692913
21
0.769045157480315
0
LINE
8
BLACK
6
CONTINUOUS
10
1.9637096456692913
20
0.769045157480315
11
1.9687107874015748
21
0.7690983464566929
0
LINE
8
BLACK
6
CONTINUOUS
10
1.9687107874015748
20
0.7690983464566929
11
1.9746867716535432
21
0.7711368897637795
0
LINE
8
BLACK
6
CONTINUOUS
10
1.9746867716535432
20
0.7711368897637795
11
1.9784429527559055
21
0.7749518503937007
0
LINE
8
BLACK
6
CONTINUOUS
10
1.9784429527559055
20
0.7749518503937007
11
1.9804353937007872
21
0.7810716141732283
0
LINE
8
BLACK
6
CONTINUOUS
10
1.9804353937007872
20
0.7810716141732283
11
1.9803805905511811
21
0.8161491338582677
0
LINE
8
BLACK
6
CONTINUOUS
10
1.9803805905511811
20
0.8161491338582677
11
1.9804373228346457
21
0.8167251968503937
0
LINE
8
BLACK
6
CONTINUOUS
10
1.9804373228346457
20
0.8167251968503937
11
1.9808782283464565
21
0.8177896062992126
0
LINE
8
BLACK
6
CONTINUOUS
10
1.9808782283464565
20
0.8177896062992126
11
1.981692874015748
21
0.8186042519685039
0
LINE
8
BLACK
6
CONTINUOUS
10
1.981692874015748
20
0.8186042519685039
11
1.9827572834645668
21
0.8190451574803149
0
LINE
8
BLACK
6
CONTINUOUS
10
1.9827572834645668
20
0.8190451574803149
11
1.9839094094488188
21
0.8190451574803149
0
LINE
8
BLACK
6
CONTINUOUS
10
1.9839094094488188
20
0.8190451574803149
11
1.9849738188976378
21
0.8186042519685039
0
LINE
8
BLACK
6
CONTINUOUS
10
2.0243855905511809
20
0.8190451574803149
11
2.0244835826771652
21
0.8190045669291338
0
LINE
8
BLACK
6
CONTINUOUS
10
2.0244835826771652
20
0.8190045669291338
11
2.024589409448819
21
0.8189970472440945
0
LINE
8
BLACK
6
CONTINUOUS
10
2.024589409448819
20
0.8189970472440945
11
2.0250814173228346
21
0.8187569291338582
0
LINE
8
BLACK
6
CONTINUOUS
10
2.0250814173228346
20
0.8187569291338582
11
2.0254499999999998
21
0.8186042519685039
0
LINE
8
BLACK
6
CONTINUOUS
10
2.0254499999999998
20
0.8186042519685039
11
2.0255031102362202
21
0.8185511417322835
0
LINE
8
BLACK
6
CONTINUOUS
10
2.0255031102362202
20
0.8185511417322835
11
2.0298919291338584
21
0.8164092125984251
0
LINE
8
BLACK
6
CONTINUOUS
10
2.0298919291338584
20
0.8164092125984251
11
2.0301398425196848
21
0.8162531496062992
0
LINE
8
BLACK
6
CONTINUOUS
10
2.0301398425196848
20
0.8162531496062992
11
2.0302118897637795
21
0.8162233070866142
0
LINE
8
BLACK
6
CONTINUOUS
10
2.0302118897637795
20
0.8162233070866142
11
2.0302571653543309
21
0.8161792913385827
0
LINE
8
BLACK
6
CONTINUOUS
10
2.0302571653543309
20
0.8161792913385827
11
2.0303817716535431
21
0.8161008661417323
0
LINE
8
BLACK
6
CONTINUOUS
10
2.0303817716535431
20
0.8161008661417323
11
2.0306167322834647
21
0.8158299606299212
0
LINE
8
BLACK
6
CONTINUOUS
10
2.0306167322834647
20
0.8158299606299212
11
2.033040275590551
21
0.813475157480315
0
LINE
8
BLACK
6
CONTINUOUS
10
2.033040275590551
20
0.813475157480315
11
2.0332261023622045
21
0.8132487007874015
0
LINE
8
BLACK
6
CONTINUOUS
10
2.0332261023622045
20
0.8132487007874015
11
2.0332849999999998
21
0.8131976377952755
0
LINE
8
BLACK
6
CONTINUOUS
10
2.0332849999999998
20
0.8131976377952755
11
2.0333131496062991
21
0.8131426771653543
0
LINE
8
BLACK
6
CONTINUOUS
10
2.0333131496062991
20
0.8131426771653543
11
2.0334074803149607
21
0.813027716535433
0
LINE
8
BLACK
6
CONTINUOUS
10
2.0334074803149607
20
0.813027716535433
11
2.0335575590551183
21
0.8126653937007874
0
LINE
8
BLACK
6
CONTINUOUS
10
2.0335575590551183
20
0.8126653937007874
11
2.03597437007874
21
0.8079458661417322
0
LINE
8
BLACK
6
CONTINUOUS
10
2.03597437007874
20
0.8079458661417322
11
2.0361812598425195
21
0.8074052755905512
0
LINE
8
BLACK
6
CONTINUOUS
10
2.0361812598425195
20
0.8074052755905512
11
2.0361887795275591
21
0.8072994094488188
0
LINE
8
BLACK
6
CONTINUOUS
10
2.0361887795275591
20
0.8072994094488188
11
2.0362293700787402
21
0.8072014173228347
0
LINE
8
BLACK
6
CONTINUOUS
10
2.0362293700787402
20
0.8072014173228347
11
2.0362352755905513
21
0.8066449212598426
0
LINE
8
BLACK
6
CONTINUOUS
10
2.0362352755905513
20
0.8066449212598426
11
2.0362629133858268
21
0.8062560629921259
0
LINE
8
BLACK
6
CONTINUOUS
10
2.0362629133858268
20
0.8062560629921259
11
2.0362401181102361
21
0.8061877559055118
0
LINE
8
BLACK
6
CONTINUOUS
10
2.0362401181102361
20
0.8061877559055118
11
2.0362861023622045
21
0.8018634251968504
0
LINE
8
BLACK
6
CONTINUOUS
10
2.0362861023622045
20
0.8018634251968504
11
2.0362573622047244
21
0.8015718503937008
0
LINE
8
BLACK
6
CONTINUOUS
10
2.0362573622047244
20
0.8015718503937008
11
2.0362629133858268
21
0.801494094488189
0
LINE
8
BLACK
6
CONTINUOUS
10
2.0362629133858268
20
0.801494094488189
11
2.0362439763779525
21
0.801436062992126
0
LINE
8
BLACK
6
CONTINUOUS
10
2.0362439763779525
20
0.801436062992126
11
2.0362293700787402
21
0.8012873622047244
0
LINE
8
BLACK
6
CONTINUOUS
10
2.0362293700787402
20
0.8012873622047244
11
2.0360715748031497
21
0.8009064960629921
0
LINE
8
BLACK
6
CONTINUOUS
10
2.0360715748031497
20
0.8009064960629921
11
2.0337535826771651
21
0.7937868503937008
0
LINE
8
BLACK
6
CONTINUOUS
10
2.0337535826771651
20
0.7937868503937008
11
2.0335175984251967
21
0.7932582677165354
0
LINE
8
BLACK
6
CONTINUOUS
10
2.0335175984251967
20
0.7932582677165354
11
2.033448031496063
21
0.7931781102362204
0
LINE
8
BLACK
6
CONTINUOUS
10
2.033448031496063
20
0.7931781102362204
11
2.0334074803149607
21
0.7930801181102362
0
LINE
8
BLACK
6
CONTINUOUS
10
2.0334074803149607
20
0.7930801181102362
11
2.0330666535433068
21
0.7927383858267716
0
LINE
8
BLACK
6
CONTINUOUS
10
2.0330666535433068
20
0.7927383858267716
11
2.0327627165354332
21
0.7923879133858267
0
LINE
8
BLACK
6
CONTINUOUS
10
2.0327627165354332
20
0.7923879133858267
11
2.0326718897637797
21
0.7923425196850393
0
LINE
8
BLACK
6
CONTINUOUS
10
2.0326718897637797
20
0.7923425196850393
11
2.0094527165354332
21
0.769058937007874
0
LINE
8
BLACK
6
CONTINUOUS
10
2.0094527165354332
20
0.769058937007874
11
2.0333333464566929
21
0.7691018897637795
0
LINE
8
BLACK
6
CONTINUOUS
10
2.0333333464566929
20
0.7691018897637795
11
2.0339094094488188
21
0.769045157480315
0
LINE
8
BLACK
6
CONTINUOUS
10
2.0339094094488188
20
0.769045157480315
11
2.0349738188976376
21
0.7686042519685039
0
LINE
8
BLACK
6
CONTINUOUS
10
2.0349738188976376
20
0.7686042519685039
11
2.0357884645669291
21
0.7677896062992126
0
LINE
8
BLACK
6
CONTINUOUS
10
2.0357884645669291
20
0.7677896062992126
11
2.0362293700787402
21
0.7667251968503936
0
LINE
8
BLACK
6
CONTINUOUS
10
2.0362293700787402
20
0.7667251968503936
11
2.0362293700787402
21
0.7655730708661417
0
LINE
8
BLACK
6
CONTINUOUS
10
2.0362293700787402
20
0.7655730708661417
11
2.0357884645669291
21
0.7645086614173228
0
LINE
8
BLACK
6
CONTINUOUS
10
2.0357884645669291
20
0.7645086614173228
11
2.0349738188976376
21
0.7636940157480315
0
LINE
8
BLACK
6
CONTINUOUS
10
2.0349738188976376
20
0.7636940157480315
11
2.0339094094488188
21
0.7632531102362204
0
LINE
8
BLACK
6
CONTINUOUS
10
2.0339094094488188
20
0.7632531102362204
11
2.0023809448818897
21
0.7631963779527559
0
LINE
8
BLACK
6
CONTINUOUS
10
2.0023809448818897
20
0.7631963779527559
11
2.0018048818897638
21
0.7632531102362204
0
LINE
8
BLACK
6
CONTINUOUS
10
2.0018048818897638
20
0.7632531102362204
11
2.000740472440945
21
0.7636940157480315
0
LINE
8
BLACK
6
CONTINUOUS
10
2.000740472440945
20
0.7636940157480315
11
1.9999258267716535
21
0.7645086614173228
0
LINE
8
BLACK
6
CONTINUOUS
10
1.9999258267716535
20
0.7645086614173228
11
1.9994849212598425
21
0.7655730708661417
0
LINE
8
BLACK
6
CONTINUOUS
10
1.9994849212598425
20
0.7655730708661417
11
1.9994849212598425
21
0.7667251968503936
0
LINE
8
BLACK
6
CONTINUOUS
10
1.9994849212598425
20
0.7667251968503936
11
1.9999258267716535
21
0.7677896062992126
0
LINE
8
BLACK
6
CONTINUOUS
10
1.9999258267716535
20
0.7677896062992126
11
2.0284455511811021
21
0.7963885039370079
0
LINE
8
BLACK
6
CONTINUOUS
10
2.0284455511811021
20
0.7963885039370079
11
2.0304247637795276
21
0.8024674803149606
0
LINE
8
BLACK
6
CONTINUOUS
10
2.0304247637795276
20
0.8024674803149606
11
2.0303870866141733
21
0.8060132283464567
0
LINE
8
BLACK
6
CONTINUOUS
10
2.0303870866141733
20
0.8060132283464567
11
2.0284768897637795
21
0.8097434645669291
0
LINE
8
BLACK
6
CONTINUOUS
10
2.0284768897637795
20
0.8097434645669291
11
2.0267350393700787
21
0.811435905511811
0
LINE
8
BLACK
6
CONTINUOUS
10
2.0267350393700787
20
0.811435905511811
11
2.0230241732283463
21
0.8132469291338582
0
LINE
8
BLACK
6
CONTINUOUS
10
2.0230241732283463
20
0.8132469291338582
11
2.012509566929134
21
0.8131991338582677
0
LINE
8
BLACK
6
CONTINUOUS
10
2.012509566929134
20
0.8131991338582677
11
2.0087866141732285
21
0.811292716535433
0
LINE
8
BLACK
6
CONTINUOUS
10
2.0087866141732285
20
0.811292716535433
11
2.0068498031496063
21
0.8092993307086614
0
LINE
8
BLACK
6
CONTINUOUS
10
2.0068498031496063
20
0.8092993307086614
11
2.0064023622047245
21
0.8089321259842519
0
LINE
8
BLACK
6
CONTINUOUS
10
2.0064023622047245
20
0.8089321259842519
11
2.0053379133858269
21
0.8084912204724409
0
LINE
8
BLACK
6
CONTINUOUS
10
2.0053379133858269
20
0.8084912204724409
11
2.0041858661417322
21
0.8084912204724409
0
LINE
8
BLACK
6
CONTINUOUS
10
2.0041858661417322
20
0.8084912204724409
11
2.0031214173228347
21
0.8089321259842519
0
LINE
8
BLACK
6
CONTINUOUS
10
2.0031214173228347
20
0.8089321259842519
11
2.0023067716535432
21
0.8097467716535433
0
LINE
8
BLACK
6
CONTINUOUS
10
2.0023067716535432
20
0.8097467716535433
11
2.0018658661417321
21
0.8108112204724409
0
LINE
8
BLACK
6
CONTINUOUS
10
2.0018658661417321
20
0.8108112204724409
11
2.0018658661417321
21
0.8119632677165354
0
LINE
8
BLACK
6
CONTINUOUS
10
2.0018658661417321
20
0.8119632677165354
11
2.0023067716535432
21
0.813027716535433
0
LINE
8
BLACK
6
CONTINUOUS
10
2.0023067716535432
20
0.813027716535433
11
2.0050549212598425
21
0.8158561023622047
0
LINE
8
BLACK
6
CONTINUOUS
10
2.0050549212598425
20
0.8158561023622047
11
2.0052812598425196
21
0.8160418897637796
0
LINE
8
BLACK
6
CONTINUOUS
10
2.0052812598425196
20
0.8160418897637796
11
2.0053324409448821
21
0.8161008661417323
0
LINE
8
BLACK
6
CONTINUOUS
10
2.0053324409448821
20
0.8161008661417323
11
2.0053875196850393
21
0.8161290944881889
0
LINE
8
BLACK
6
CONTINUOUS
10
2.0053875196850393
20
0.8161290944881889
11
2.0055023622047243
21
0.8162233070866142
0
LINE
8
BLACK
6
CONTINUOUS
10
2.0055023622047243
20
0.8162233070866142
11
2.00586437007874
21
0.8163733070866142
0
LINE
8
BLACK
6
CONTINUOUS
10
2.00586437007874
20
0.8163733070866142
11
2.010584251968504
21
0.8187901574803149
0
LINE
8
BLACK
6
CONTINUOUS
10
2.010584251968504
20
0.8187901574803149
11
2.0111248818897636
21
0.8189970472440945
0
LINE
8
BLACK
6
CONTINUOUS
10
2.0111248818897636
20
0.8189970472440945
11
2.0112306692913386
21
0.8190045669291338
0
LINE
8
BLACK
6
CONTINUOUS
10
2.0112306692913386
20
0.8190045669291338
11
2.0113287007874017
21
0.8190451574803149
0
LINE
8
BLACK
6
CONTINUOUS
10
2.0113287007874017
20
0.8190451574803149
11
2.0118343307086612
21
0.8190474803149607
0
LINE
8
BLACK
6
CONTINUOUS
10
2.0118343307086612
20
0.8190474803149607
11
2.0122740944881889
21
0.8190787007874015
0
LINE
8
BLACK
6
CONTINUOUS
10
2.0122740944881889
20
0.8190787007874015
11
2.0123606299212597
21
0.8190498818897638
0
LINE
8
BLACK
6
CONTINUOUS
10
2.0123606299212597
20
0.8190498818897638
11
2.0238095275590551
21
0.8191018897637795
0
LINE
8
BLACK
6
CONTINUOUS
10
2.0238095275590551
20
0.8191018897637795
11
2.0243855905511809
21
0.8190451574803149
0
LINE
8
BLACK
6
CONTINUOUS
10
2.0114996456692915
20
0.8763215748031495
11
2.0228025590551182
21
0.8740733070866141
0
LINE
8
BLACK
6
CONTINUOUS
10
2.0228025590551182
20
0.8740733070866141
11
2.03371531496063
21
0.870368937007874
0
LINE
8
BLACK
6
CONTINUOUS
10
2.03371531496063
20
0.870368937007874
11
2.0440511811023621
21
0.8652718503937008
0
LINE
8
BLACK
6
CONTINUOUS
10
2.0440511811023621
20
0.8652718503937008
11
2.053633307086614
21
0.8588692519685039
0
LINE
8
BLACK
6
CONTINUOUS
10
2.053633307086614
20
0.8588692519685039
11
2.0622977559055116
21
0.851270748031496
0
LINE
8
BLACK
6
CONTINUOUS
10
2.0622977559055116
20
0.851270748031496
11
2.0698962598425195
21
0.8426062992125984
0
LINE
8
BLACK
6
CONTINUOUS
10
2.0698962598425195
20
0.8426062992125984
11
2.0762988582677164
21
0.8330241338582677
0
LINE
8
BLACK
6
CONTINUOUS
10
2.0762988582677164
20
0.8330241338582677
11
2.0813959448818897
21
0.8226883070866141
0
LINE
8
BLACK
6
CONTINUOUS
10
2.0813959448818897
20
0.8226883070866141
11
2.0851003149606298
21
0.8117755511811023
0
LINE
8
BLACK
6
CONTINUOUS
10
2.0851003149606298
20
0.8117755511811023
11
2.0873485826771652
21
0.8004726377952756
0
LINE
8
BLACK
6
CONTINUOUS
10
2.0873485826771652
20
0.8004726377952756
11
2.0881023228346458
21
0.7889729921259843
0
LINE
8
BLACK
6
CONTINUOUS
10
2.0881023228346458
20
0.7889729921259843
11
2.0873485826771652
21
0.7774733464566929
0
LINE
8
BLACK
6
CONTINUOUS
10
2.0873485826771652
20
0.7774733464566929
11
2.0851003149606298
21
0.7661704330708661
0
LINE
8
BLACK
6
CONTINUOUS
10
2.0851003149606298
20
0.7661704330708661
11
2.0813959448818897
21
0.7552576771653543
0
LINE
8
BLACK
6
CONTINUOUS
10
2.0813959448818897
20
0.7552576771653543
11
2.0762988582677164
21
0.744921811023622
0
LINE
8
BLACK
6
CONTINUOUS
10
2.0762988582677164
20
0.744921811023622
11
2.0698962598425195
21
0.7353396850393701
0
LINE
8
BLACK
6
CONTINUOUS
10
2.0698962598425195
20
0.7353396850393701
11
2.0622977559055116
21
0.7266752362204725
0
LINE
8
BLACK
6
CONTINUOUS
10
2.0622977559055116
20
0.7266752362204725
11
2.053633307086614
21
0.7190767322834646
0
LINE
8
BLACK
6
CONTINUOUS
10
2.053633307086614
20
0.7190767322834646
11
2.0440511811023621
21
0.7126741338582677
0
LINE
8
BLACK
6
CONTINUOUS
10
2.0440511811023621
20
0.7126741338582677
11
2.03371531496063
21
0.7075770472440944
0
LINE
8
BLACK
6
CONTINUOUS
10
2.03371531496063
20
0.7075770472440944
11
2.0228025590551182
21
0.7038726771653543
0
LINE
8
BLACK
6
CONTINUOUS
10
2.0228025590551182
20
0.7038726771653543
11
2.0114996456692915
21
0.7016244094488189
0
LINE
8
BLACK
6
CONTINUOUS
10
2.0114996456692915
20
0.7016244094488189
11
2.
21
0.7008706692913386
0
LINE
8
BLACK
6
CONTINUOUS
10
2.
20
0.7008706692913386
11
1.9885003543307087
21
0.7016244094488189
0
LINE
8
BLACK
6
CONTINUOUS
10
1.9885003543307087
20
0.7016244094488189
11
1.9771974409448818
21
0.7038726771653543
0
LINE
8
BLACK
6
CONTINUOUS
10
1.9771974409448818
20
0.7038726771653543
11
1.96628468503937
21
0.7075770472440944
0
LINE
8
BLACK
6
CONTINUOUS
10
1.96628468503937
20
0.7075770472440944
11
1.9559488188976377
21
0.7126741338582677
0
LINE
8
BLACK
6
CONTINUOUS
10
1.9559488188976377
20
0.7126741338582677
11
1.9463666929133858
21
0.7190767322834646
0
LINE
8
BLACK
6
CONTINUOUS
10
1.9463666929133858
20
0.7190767322834646
11
1.9377022440944882
21
0.7266752362204725
0
LINE
8
BLACK
6
CONTINUOUS
10
1.9377022440944882
20
0.7266752362204725
11
1.9301037401574803
21
0.7353396850393701
0
LINE
8
BLACK
6
CONTINUOUS
10
1.9301037401574803
20
0.7353396850393701
11
1.9237011417322833
21
0.744921811023622
0
LINE
8
BLACK
6
CONTINUOUS
10
1.9237011417322833
20
0.744921811023622
11
1.9186040551181103
21
0.7552576771653543
0
LINE
8
BLACK
6
CONTINUOUS
10
1.9186040551181103
20
0.7552576771653543
11
1.91489968503937
21
0.7661704330708661
0
LINE
8
BLACK
6
CONTINUOUS
10
1.91489968503937
20
0.7661704330708661
11
1.9126514173228346
21
0.7774733464566929
0
LINE
8
BLACK
6
CONTINUOUS
10
1.9126514173228346
20
0.7774733464566929
11
1.9118976771653542
21
0.7889729921259843
0
LINE
8
BLACK
6
CONTINUOUS
10
1.9118976771653542
20
0.7889729921259843
11
1.9126514173228346
21
0.8004726377952756
0
LINE
8
BLACK
6
CONTINUOUS
10
1.9126514173228346
20
0.8004726377952756
11
1.91489968503937
21
0.8117755511811023
0
LINE
8
BLACK
6
CONTINUOUS
10
1.91489968503937
20
0.8117755511811023
11
1.9186040551181103
21
0.8226883070866141
0
LINE
8
BLACK
6
CONTINUOUS
10
1.9186040551181103
20
0.8226883070866141
11
1.9237011417322833
21
0.8330241338582677
0
LINE
8
BLACK
6
CONTINUOUS
10
1.9237011417322833
20
0.8330241338582677
11
1.9301037401574803
21
0.8426062992125984
0
LINE
8
BLACK
6
CONTINUOUS
10
1.9301037401574803
20
0.8426062992125984
11
1.9377022440944882
21
0.851270748031496
0
LINE
8
BLACK
6
CONTINUOUS
10
1.9377022440944882
20
0.851270748031496
11
1.9463666929133858
21
0.8588692519685039
0
LINE
8
BLACK
6
CONTINUOUS
10
1.9463666929133858
20
0.8588692519685039
11
1.9559488582677165
21
0.8652718503937008
0
LINE
8
BLACK
6
CONTINUOUS
10
1.9559488582677165
20
0.8652718503937008
11
1.96628468503937
21
0.870368937007874
0
LINE
8
BLACK
6
CONTINUOUS
10
1.96628468503937
20
0.870368937007874
11
1.9771974409448818
21
0.8740733070866141
0
LINE
8
BLACK
6
CONTINUOUS
10
1.9771974409448818
20
0.8740733070866141
11
1.9885003543307087
21
0.8763215748031495
0
LINE
8
BLACK
6
CONTINUOUS
10
1.9885003543307087
20
0.8763215748031495
11
2.
21
0.8770753149606298
0
LINE
8
BLACK
6
CONTINUOUS
10
2.
20
0.8770753149606298
11
2.0114996456692915
21
0.8763215748031495
0
LINE
8
BLACK
6
CONTINUOUS
10
1.9183784645669291
20
0.7777543700787402
11
1.9206662992125985
21
0.7667447244094489
0
LINE
8
BLACK
6
CONTINUOUS
10
1.9206662992125985
20
0.7667447244094489
11
1.9244319685039371
21
0.7561491732283464
0
LINE
8
BLACK
6
CONTINUOUS
10
1.9244319685039371
20
0.7561491732283464
11
1.9296053149606298
21
0.7461650393700787
0
LINE
8
BLACK
6
CONTINUOUS
10
1.9296053149606298
20
0.7461650393700787
11
1.9360899999999999
21
0.7369783464566929
0
LINE
8
BLACK
6
CONTINUOUS
10
1.9360899999999999
20
0.7369783464566929
11
1.9437651968503937
21
0.7287602362204725
0
LINE
8
BLACK
6
CONTINUOUS
10
1.9437651968503937
20
0.7287602362204725
11
1.9524879527559054
21
0.7216637401574802
0
LINE
8
BLACK
6
CONTINUOUS
10
1.9524879527559054
20
0.7216637401574802
11
1.962095748031496
21
0.7158211023622048
0
LINE
8
BLACK
6
CONTINUOUS
10
1.962095748031496
20
0.7158211023622048
11
1.9724096456692912
21
0.7113411417322835
0
LINE
8
BLACK
6
CONTINUOUS
10
1.9724096456692912
20
0.7113411417322835
11
1.9832374803149606
21
0.7083073228346457
0
LINE
8
BLACK
6
CONTINUOUS
10
1.9832374803149606
20
0.7083073228346457
11
1.9943775984251968
21
0.7067761811023622
0
LINE
8
BLACK
6
CONTINUOUS
10
1.9943775984251968
20
0.7067761811023622
11
2.005622401574803
21
0.7067761811023622
0
LINE
8
BLACK
6
CONTINUOUS
10
2.005622401574803
20
0.7067761811023622
11
2.0167625196850394
21
0.7083073228346457
0
LINE
8
BLACK
6
CONTINUOUS
10
2.0167625196850394
20
0.7083073228346457
11
2.0275903543307088
21
0.7113411417322835
0
LINE
8
BLACK
6
CONTINUOUS
10
2.0275903543307088
20
0.7113411417322835
11
2.037904251968504
21
0.7158211023622048
0
LINE
8
BLACK
6
CONTINUOUS
10
2.037904251968504
20
0.7158211023622048
11
2.0475120472440946
21
0.7216637401574802
0
LINE
8
BLACK
6
CONTINUOUS
10
2.0475120472440946
20
0.7216637401574802
11
2.0562348031496063
21
0.7287602362204725
0
LINE
8
BLACK
6
CONTINUOUS
10
2.0562348031496063
20
0.7287602362204725
11
2.0639099999999999
21
0.7369783464566929
0
LINE
8
BLACK
6
CONTINUOUS
10
2.0639099999999999
20
0.7369783464566929
11
2.07039468503937
21
0.7461650393700787
0
LINE
8
BLACK
6
CONTINUOUS
10
2.07039468503937
20
0.7461650393700787
11
2.0755680314960627
21
0.7561491732283464
0
LINE
8
BLACK
6
CONTINUOUS
10
2.0755680314960627
20
0.7561491732283464
11
2.0793337007874015
21
0.7667447244094489
0
LINE
8
BLACK
6
CONTINUOUS
10
2.0793337007874015
20
0.7667447244094489
11
2.0816215354330709
21
0.7777543700787402
0
LINE
8
BLACK
6
CONTINUOUS
10
2.0816215354330709
20
0.7777543700787402
11
2.0823888976377951
21
0.7889729921259843
0
LINE
8
BLACK
6
CONTINUOUS
10
2.0823888976377951
20
0.7889729921259843
11
2.0816215354330709
21
0.8001916141732284
0
LINE
8
BLACK
6
CONTINUOUS
10
2.0816215354330709
20
0.8001916141732284
11
2.0793337007874015
21
0.8112012598425197
0
LINE
8
BLACK
6
CONTINUOUS
10
2.0793337007874015
20
0.8112012598425197
11
2.0755680314960627
21
0.821796811023622
0
LINE
8
BLACK
6
CONTINUOUS
10
2.0755680314960627
20
0.821796811023622
11
2.07039468503937
21
0.8317809448818897
0
LINE
8
BLACK
6
CONTINUOUS
10
2.07039468503937
20
0.8317809448818897
11
2.0639099999999999
21
0.8409676377952756
0
LINE
8
BLACK
6
CONTINUOUS
10
2.0639099999999999
20
0.8409676377952756
11
2.0562348031496063
21
0.849185748031496
0
LINE
8
BLACK
6
CONTINUOUS
10
2.0562348031496063
20
0.849185748031496
11
2.0475120472440946
21
0.8562822440944882
0
LINE
8
BLACK
6
CONTINUOUS
10
2.0475120472440946
20
0.8562822440944882
11
2.037904251968504
21
0.8621248818897638
0
LINE
8
BLACK
6
CONTINUOUS
10
2.037904251968504
20
0.8621248818897638
11
2.0275903543307088
21
0.8666048425196851
0
LINE
8
BLACK
6
CONTINUOUS
10
2.0275903543307088
20
0.8666048425196851
11
2.0167625196850394
21
0.8696386614173228
0
LINE
8
BLACK
6
CONTINUOUS
10
2.0167625196850394
20
0.8696386614173228
11
2.005622401574803
21
0.8711698031496062
0
LINE
8
BLACK
6
CONTINUOUS
10
2.005622401574803
20
0.8711698031496062
11
1.9943775984251968
21
0.8711698031496062
0
LINE
8
BLACK
6
CONTINUOUS
10
1.9943775984251968
20
0.8711698031496062
11
1.9832374803149606
21
0.8696386614173228
0
LINE
8
BLACK
6
CONTINUOUS
10
1.9832374803149606
20
0.8696386614173228
11
1.9724096456692912
21
0.8666048425196851
0
LINE
8
BLACK
6
CONTINUOUS
10
1.9724096456692912
20
0.8666048425196851
11
1.962095748031496
21
0.8621248818897638
0
LINE
8
BLACK
6
CONTINUOUS
10
1.962095748031496
20
0.8621248818897638
11
1.9524879527559054
21
0.8562822440944882
0
LINE
8
BLACK
6
CONTINUOUS
10
1.9524879527559054
20
0.8562822440944882
11
1.9437651968503937
21
0.849185748031496
0
LINE
8
BLACK
6
CONTINUOUS
10
1.9437651968503937
20
0.849185748031496
11
1.9360899999999999
21
0.8409676377952756
0
LINE
8
BLACK
6
CONTINUOUS
10
1.9360899999999999
20
0.8409676377952756
11
1.9296053149606298
21
0.8317809448818897
0
LINE
8
BLACK
6
CONTINUOUS
10
1.9296053149606298
20
0.8317809448818897
11
1.9244319685039371
21
0.821796811023622
0
LINE
8
BLACK
6
CONTINUOUS
10
1.9244319685039371
20
0.821796811023622
11
1.9206662992125985
21
0.8112012598425197
0
LINE
8
BLACK
6
CONTINUOUS
10
1.9206662992125985
20
0.8112012598425197
11
1.9183784645669291
21
0.8001916141732284
0
LINE
8
BLACK
6
CONTINUOUS
10
1.9183784645669291
20
0.8001916141732284
11
1.9176111023622047
21
0.7889729921259843
0
LINE
8
BLACK
6
CONTINUOUS
10
1.9176111023622047
20
0.7889729921259843
11
1.9183784645669291
21
0.7777543700787402
0
LINE
8
BLACK
6
CONTINUOUS
10
2.1383713385826773
20
0.9296642913385826
11
2.1394357480314961
21
0.9292233858267717
0
LINE
8
BLACK
6
CONTINUOUS
10
2.1394357480314961
20
0.9292233858267717
11
2.1402503937007875
21
0.9284087401574803
0
LINE
8
BLACK
6
CONTINUOUS
10
2.1402503937007875
20
0.9284087401574803
11
2.1406912992125986
21
0.9273443307086614
0
LINE
8
BLACK
6
CONTINUOUS
10
2.1406912992125986
20
0.9273443307086614
11
2.140748031496063
21
0.6511777165354331
0
LINE
8
BLACK
6
CONTINUOUS
10
2.140748031496063
20
0.6511777165354331
11
2.1406912992125986
21
0.6506016535433071
0
LINE
8
BLACK
6
CONTINUOUS
10
2.1406912992125986
20
0.6506016535433071
11
2.1402503937007875
21
0.6495372440944882
0
LINE
8
BLACK
6
CONTINUOUS
10
2.1402503937007875
20
0.6495372440944882
11
2.1394357480314961
21
0.6487225984251969
0
LINE
8
BLACK
6
CONTINUOUS
10
2.1394357480314961
20
0.6487225984251969
11
2.1383713385826773
21
0.6482816929133858
0
LINE
8
BLACK
6
CONTINUOUS
10
2.1383713385826773
20
0.6482816929133858
11
1.8622047244094488
21
0.6482249606299213
0
LINE
8
BLACK
6
CONTINUOUS
10
1.8622047244094488
20
0.6482249606299213
11
1.8616286614173227
21
0.6482816929133858
0
LINE
8
BLACK
6
CONTINUOUS
10
1.8616286614173227
20
0.6482816929133858
11
1.8605642519685039
21
0.6487225984251969
0
LINE
8
BLACK
6
CONTINUOUS
10
1.8605642519685039
20
0.6487225984251969
11
1.8597496062992125
21
0.6495372440944882
0
LINE
8
BLACK
6
CONTINUOUS
10
1.8597496062992125
20
0.6495372440944882
11
1.8593087007874016
21
0.6506016535433071
0
LINE
8
BLACK
6
CONTINUOUS
10
1.8593087007874016
20
0.6506016535433071
11
1.859251968503937
21
0.9267682677165354
0
LINE
8
BLACK
6
CONTINUOUS
10
1.859251968503937
20
0.9267682677165354
11
1.8593087007874016
21
0.9273443307086614
0
LINE
8
BLACK
6
CONTINUOUS
10
1.8593087007874016
20
0.9273443307086614
11
1.8597496062992125
21
0.9284087401574803
0
LINE
8
BLACK
6
CONTINUOUS
10
1.8597496062992125
20
0.9284087401574803
11
1.8605642519685039
21
0.9292233858267717
0
LINE
8
BLACK
6
CONTINUOUS
10
1.8605642519685039
20
0.9292233858267717
11
1.8616286614173227
21
0.9296642913385826
0
LINE
8
BLACK
6
CONTINUOUS
10
1.8616286614173227
20
0.9296642913385826
11
2.1377952755905509
21
0.9297210236220472
0
LINE
8
BLACK
6
CONTINUOUS
10
2.1377952755905509
20
0.9297210236220472
11
2.1383713385826773
21
0.9296642913385826
0
LINE
8
BLACK
6
CONTINUOUS
10
1.8651461811023622
20
0.7061018503937008
11
1.8651568503937008
21
0.6540744881889764
0
LINE
8
BLACK
6
CONTINUOUS
10
1.8651568503937008
20
0.6540744881889764
11
1.9171793307086613
21
0.6540851574803149
0
LINE
8
BLACK
6
CONTINUOUS
10
1.9171793307086613
20
0.6540851574803149
11
1.9171677559055118
21
0.6659933858267716
0
LINE
8
BLACK
6
CONTINUOUS
10
1.9171677559055118
20
0.6659933858267716
11
1.8799212598425197
21
0.6659414960629921
0
LINE
8
BLACK
6
CONTINUOUS
10
1.8799212598425197
20
0.6659414960629921
11
1.8793451968503936
21
0.6659982283464567
0
LINE
8
BLACK
6
CONTINUOUS
10
1.8793451968503936
20
0.6659982283464567
11
1.8782807874015748
21
0.6664391338582677
0
LINE
8
BLACK
6
CONTINUOUS
10
1.8782807874015748
20
0.6664391338582677
11
1.8774661417322833
21
0.667253779527559
0
LINE
8
BLACK
6
CONTINUOUS
10
1.8774661417322833
20
0.667253779527559
11
1.8770252362204725
21
0.668318188976378
0
LINE
8
BLACK
6
CONTINUOUS
10
1.8770252362204725
20
0.668318188976378
11
1.8769725590551181
21
0.7061133464566929
0
LINE
8
BLACK
6
CONTINUOUS
10
1.8769725590551181
20
0.7061133464566929
11
1.8651461811023622
21
0.7061018503937008
0
LINE
8
BLACK
6
CONTINUOUS
10
1.9229781496062992
20
0.923828031496063
11
1.9230314960629922
21
0.8688942519685039
0
LINE
8
BLACK
6
CONTINUOUS
10
1.9230314960629922
20
0.8688942519685039
11
1.9229747637795276
21
0.8683181889763779
0
LINE
8
BLACK
6
CONTINUOUS
10
1.9229747637795276
20
0.8683181889763779
11
1.9225338582677165
21
0.867253779527559
0
LINE
8
BLACK
6
CONTINUOUS
10
1.9225338582677165
20
0.867253779527559
11
1.9217192125984253
21
0.8664391338582677
0
LINE
8
BLACK
6
CONTINUOUS
10
1.9217192125984253
20
0.8664391338582677
11
1.9206548031496062
21
0.8659982283464567
0
LINE
8
BLACK
6
CONTINUOUS
10
1.9206548031496062
20
0.8659982283464567
11
1.8651133464566929
21
0.8659443307086614
0
LINE
8
BLACK
6
CONTINUOUS
10
1.8651133464566929
20
0.8659443307086614
11
1.8651449606299213
21
0.7119511811023622
0
LINE
8
BLACK
6
CONTINUOUS
10
1.8651449606299213
20
0.7119511811023622
11
1.9200787401574804
21
0.7120044881889763
0
LINE
8
BLACK
6
CONTINUOUS
10
1.9200787401574804
20
0.7120044881889763
11
1.9206548031496062
21
0.7119477559055118
0
LINE
8
BLACK
6
CONTINUOUS
10
1.9206548031496062
20
0.7119477559055118
11
1.9217192125984253
21
0.7115068503937008
0
LINE
8
BLACK
6
CONTINUOUS
10
1.9217192125984253
20
0.7115068503937008
11
1.9225338582677165
21
0.7106922047244094
0
LINE
8
BLACK
6
CONTINUOUS
10
1.9225338582677165
20
0.7106922047244094
11
1.9229747637795276
21
0.7096277952755905
0
LINE
8
BLACK
6
CONTINUOUS
10
1.9229747637795276
20
0.7096277952755905
11
1.9230286614173229
21
0.6540863779527559
0
LINE
8
BLACK
6
CONTINUOUS
10
1.9230286614173229
20
0.6540863779527559
11
2.0770218110236218
21
0.6541179921259842
0
LINE
8
BLACK
6
CONTINUOUS
10
2.0770218110236218
20
0.6541179921259842
11
2.076968503937008
21
0.7090517322834645
0
LINE
8
BLACK
6
CONTINUOUS
10
2.076968503937008
20
0.7090517322834645
11
2.0770252362204724
21
0.7096277952755905
0
LINE
8
BLACK
6
CONTINUOUS
10
2.0770252362204724
20
0.7096277952755905
11
2.0774661417322835
21
0.7106922047244094
0
LINE
8
BLACK
6
CONTINUOUS
10
2.0774661417322835
20
0.7106922047244094
11
2.078280787401575
21
0.7115068503937008
0
LINE
8
BLACK
6
CONTINUOUS
10
2.078280787401575
20
0.7115068503937008
11
2.0793451968503938
21
0.7119477559055118
0
LINE
8
BLACK
6
CONTINUOUS
10
2.0793451968503938
20
0.7119477559055118
11
2.1348866141732281
21
0.7120016929133858
0
LINE
8
BLACK
6
CONTINUOUS
10
2.1348866141732281
20
0.7120016929133858
11
2.1348549999999999
21
0.8659948425196851
0
LINE
8
BLACK
6
CONTINUOUS
10
2.1348549999999999
20
0.8659948425196851
11
2.0799212598425196
21
0.8659414960629921
0
LINE
8
BLACK
6
CONTINUOUS
10
2.0799212598425196
20
0.8659414960629921
11
2.0793451968503938
21
0.8659982283464567
0
LINE
8
BLACK
6
CONTINUOUS
10
2.0793451968503938
20
0.8659982283464567
11
2.078280787401575
21
0.8664391338582677
0
LINE
8
BLACK
6
CONTINUOUS
10
2.078280787401575
20
0.8664391338582677
11
2.0774661417322835
21
0.867253779527559
0
LINE
8
BLACK
6
CONTINUOUS
10
2.0774661417322835
20
0.867253779527559
11
2.0770252362204724
21
0.8683181889763779
0
LINE
8
BLACK
6
CONTINUOUS
10
2.0770252362204724
20
0.8683181889763779
11
2.0769712992125986
21
0.9238596456692914
0
LINE
8
BLACK
6
CONTINUOUS
10
2.0769712992125986
20
0.9238596456692914
11
1.9229781496062992
21
0.923828031496063
0
LINE
8
BLACK
6
CONTINUOUS
10
2.1229796062992126
20
0.7061407874015748
11
2.1230314960629921
21
0.6688942519685039
0
LINE
8
BLACK
6
CONTINUOUS
10
2.1230314960629921
20
0.6688942519685039
11
2.1229747637795273
21
0.668318188976378
0
LINE
8
BLACK
6
CONTINUOUS
10
2.1229747637795273
20
0.668318188976378
11
2.1225338582677167
21
0.667253779527559
0
LINE
8
BLACK
6
CONTINUOUS
10
2.1225338582677167
20
0.667253779527559
11
2.1217192125984252
21
0.6664391338582677
0
LINE
8
BLACK
6
CONTINUOUS
10
2.1217192125984252
20
0.6664391338582677
11
2.1206548031496064
21
0.6659982283464567
0
LINE
8
BLACK
6
CONTINUOUS
10
2.1206548031496064
20
0.6659982283464567
11
2.0828596456692914
21
0.6659455905511811
0
LINE
8
BLACK
6
CONTINUOUS
10
2.0828596456692914
20
0.6659455905511811
11
2.0828711417322836
21
0.6541192125984252
0
LINE
8
BLACK
6
CONTINUOUS
10
2.0828711417322836
20
0.6541192125984252
11
2.1348985039370079
21
0.6541298818897637
0
LINE
8
BLACK
6
CONTINUOUS
10
2.1348985039370079
20
0.6541298818897637
11
2.1348878346456694
21
0.7061523622047244
0
LINE
8
BLACK
6
CONTINUOUS
10
2.1348878346456694
20
0.7061523622047244
11
2.1229796062992126
21
0.7061407874015748
0
LINE
8
BLACK
6
CONTINUOUS
10
1.8828221653543307
20
0.7061190157480315
11
1.8828699606299213
21
0.6717951968503937
0
LINE
8
BLACK
6
CONTINUOUS
10
1.8828699606299213
20
0.6717951968503937
11
1.9171620866141732
21
0.6718429527559054
0
LINE
8
BLACK
6
CONTINUOUS
10
1.9171620866141732
20
0.6718429527559054
11
1.9171287795275591
21
0.7061523228346457
0
LINE
8
BLACK
6
CONTINUOUS
10
1.9171287795275591
20
0.7061523228346457
11
1.8828221653543307
21
0.7061190157480315
0
LINE
8
BLACK
6
CONTINUOUS
10
2.0828206692913387
20
0.706101811023622
11
2.0828539763779528
21
0.6717951968503937
0
LINE
8
BLACK
6
CONTINUOUS
10
2.0828539763779528
20
0.6717951968503937
11
2.1171777952755906
21
0.6718429921259842
0
LINE
8
BLACK
6
CONTINUOUS
10
2.1171777952755906
20
0.6718429921259842
11
2.1171300393700787
21
0.7061351181102362
0
LINE
8
BLACK
6
CONTINUOUS
10
2.1171300393700787
20
0.7061351181102362
11
2.0828206692913387
21
0.706101811023622
0
LINE
8
BLACK
6
CONTINUOUS
10
1.8651014566929134
20
0.9238161417322834
11
1.865112125984252
21
0.8717936614173228
0
LINE
8
BLACK
6
CONTINUOUS
10
1.865112125984252
20
0.8717936614173228
11
1.8770203543307087
21
0.8718052362204725
0
LINE
8
BLACK
6
CONTINUOUS
10
1.8770203543307087
20
0.8718052362204725
11
1.8769685039370079
21
0.9090517322834646
0
LINE
8
BLACK
6
CONTINUOUS
10
1.8769685039370079
20
0.9090517322834646
11
1.8770252362204725
21
0.9096277952755906
0
LINE
8
BLACK
6
CONTINUOUS
10
1.8770252362204725
20
0.9096277952755906
11
1.8774661417322833
21
0.9106922047244095
0
LINE
8
BLACK
6
CONTINUOUS
10
1.8774661417322833
20
0.9106922047244095
11
1.8782807874015748
21
0.9115068503937007
0
LINE
8
BLACK
6
CONTINUOUS
10
1.8782807874015748
20
0.9115068503937007
11
1.8793451968503936
21
0.9119477559055118
0
LINE
8
BLACK
6
CONTINUOUS
10
1.8793451968503936
20
0.9119477559055118
11
1.9171403149606299
21
0.9120004330708661
0
LINE
8
BLACK
6
CONTINUOUS
10
1.9171403149606299
20
0.9120004330708661
11
1.9171288188976376
21
0.9238268110236221
0
LINE
8
BLACK
6
CONTINUOUS
10
1.9171288188976376
20
0.9238268110236221
11
1.8651014566929134
21
0.9238161417322834
0
LINE
8
BLACK
6
CONTINUOUS
10
2.0828378740157478
20
0.9061030708661417
11
2.0828711811023624
21
0.8717937007874016
0
LINE
8
BLACK
6
CONTINUOUS
10
2.0828711811023624
20
0.8717937007874016
11
2.1171777952755906
21
0.8718270078740157
0
LINE
8
BLACK
6
CONTINUOUS
10
2.1171777952755906
20
0.8718270078740157
11
2.11713
21
0.9061508267716535
0
LINE
8
BLACK
6
CONTINUOUS
10
2.11713
20
0.9061508267716535
11
2.0828378740157478
21
0.9061030708661417
0
LINE
8
BLACK
6
CONTINUOUS
10
1.8828221653543307
20
0.906103031496063
11
1.8828699212598425
21
0.871810905511811
0
LINE
8
BLACK
6
CONTINUOUS
10
1.8828699212598425
20
0.871810905511811
11
1.9171792913385826
21
0.8718442125984252
0
LINE
8
BLACK
6
CONTINUOUS
10
1.9171792913385826
20
0.8718442125984252
11
1.9171459842519685
21
0.9061508267716535
0
LINE
8
BLACK
6
CONTINUOUS
10
1.9171459842519685
20
0.9061508267716535
11
1.8828221653543307
21
0.906103031496063
0
LINE
8
BLACK
6
CONTINUOUS
10
2.0828206299212599
20
0.9238608661417322
11
2.0828322047244092
21
0.9119526377952756
0
LINE
8
BLACK
6
CONTINUOUS
10
2.0828322047244092
20
0.9119526377952756
11
2.1200787401574801
21
0.9120044881889764
0
LINE
8
BLACK
6
CONTINUOUS
10
2.1200787401574801
20
0.9120044881889764
11
2.1206548031496064
21
0.9119477559055118
0
LINE
8
BLACK
6
CONTINUOUS
10
2.1206548031496064
20
0.9119477559055118
11
2.1217192125984252
21
0.9115068503937007
0
LINE
8
BLACK
6
CONTINUOUS
10
2.1217192125984252
20
0.9115068503937007
11
2.1225338582677167
21
0.9106922047244095
0
LINE
8
BLACK
6
CONTINUOUS
10
2.1225338582677167
20
0.9106922047244095
11
2.1229747637795273
21
0.9096277952755906
0
LINE
8
BLACK
6
CONTINUOUS
10
2.1229747637795273
20
0.9096277952755906
11
2.1230274015748032
21
0.8718326771653543
0
LINE
8
BLACK
6
CONTINUOUS
10
2.1230274015748032
20
0.8718326771653543
11
2.1348537795275591
21
0.8718441732283464
0
LINE
8
BLACK
6
CONTINUOUS
10
2.1348537795275591
20
0.8718441732283464
11
2.1348431102362206
21
0.9238715354330709
0
LINE
8
BLACK
6
CONTINUOUS
10
2.1348431102362206
20
0.9238715354330709
11
2.0828206299212599
21
0.9238608661417322
0
LINE
8
BLACK
6
CONTINUOUS
10
1.9849738188976378
20
1.2406583070866142
11
1.985788464566929
21
1.2398436614173227
0
LINE
8
BLACK
6
CONTINUOUS
10
1.985788464566929
20
1.2398436614173227
11
1.9862293700787401
21
1.2387792519685039
0
LINE
8
BLACK
6
CONTINUOUS
10
1.9862293700787401
20
1.2387792519685039
11
1.9862861023622047
21
1.2024888976377952
0
LINE
8
BLACK
6
CONTINUOUS
10
1.9862861023622047
20
1.2024888976377952
11
1.9862573622047244
21
1.2021973228346456
0
LINE
8
BLACK
6
CONTINUOUS
10
1.9862573622047244
20
1.2021973228346456
11
1.9862629133858267
21
1.2021195669291338
0
LINE
8
BLACK
6
CONTINUOUS
10
1.9862629133858267
20
1.2021195669291338
11
1.9862439763779527
21
1.2020615354330708
0
LINE
8
BLACK
6
CONTINUOUS
10
1.9862439763779527
20
1.2020615354330708
11
1.9862293700787401
21
1.2019128346456693
0
LINE
8
BLACK
6
CONTINUOUS
10
1.9862293700787401
20
1.2019128346456693
11
1.9860715748031497
21
1.201531968503937
0
LINE
8
BLACK
6
CONTINUOUS
10
1.9860715748031497
20
1.201531968503937
11
1.9837535826771653
21
1.1944123228346457
0
LINE
8
BLACK
6
CONTINUOUS
10
1.9837535826771653
20
1.1944123228346457
11
1.9835175984251967
21
1.1938837401574802
0
LINE
8
BLACK
6
CONTINUOUS
10
1.9835175984251967
20
1.1938837401574802
11
1.9834480708661417
21
1.1938036220472441
0
LINE
8
BLACK
6
CONTINUOUS
10
1.9834480708661417
20
1.1938036220472441
11
1.9834075196850394
21
1.1937056299212598
0
LINE
8
BLACK
6
CONTINUOUS
10
1.9834075196850394
20
1.1937056299212598
11
1.9830346850393701
21
1.1933270078740157
0
LINE
8
BLACK
6
CONTINUOUS
10
1.9830346850393701
20
1.1933270078740157
11
1.9827627165354331
21
1.1930133858267715
0
LINE
8
BLACK
6
CONTINUOUS
10
1.9827627165354331
20
1.1930133858267715
11
1.9826902755905511
21
1.1929772047244094
0
LINE
8
BLACK
6
CONTINUOUS
10
1.9826902755905511
20
1.1929772047244094
11
1.9782783858267716
21
1.188496220472441
0
LINE
8
BLACK
6
CONTINUOUS
10
1.9782783858267716
20
1.188496220472441
11
1.9778309448818898
21
1.1881290157480315
0
LINE
8
BLACK
6
CONTINUOUS
10
1.9778309448818898
20
1.1881290157480315
11
1.9777329527559055
21
1.1880884645669292
0
LINE
8
BLACK
6
CONTINUOUS
10
1.9777329527559055
20
1.1880884645669292
11
1.9776527952755905
21
1.1880188976377952
0
LINE
8
BLACK
6
CONTINUOUS
10
1.9776527952755905
20
1.1880188976377952
11
1.9771558661417323
21
1.1878494094488188
0
LINE
8
BLACK
6
CONTINUOUS
10
1.9771558661417323
20
1.1878494094488188
11
1.9767665354330708
21
1.1876881102362205
0
LINE
8
BLACK
6
CONTINUOUS
10
1.9767665354330708
20
1.1876881102362205
11
1.9766831102362203
21
1.1876881102362205
0
LINE
8
BLACK
6
CONTINUOUS
10
1.9766831102362203
20
1.1876881102362205
11
1.9699813385826772
21
1.185401968503937
0
LINE
8
BLACK
6
CONTINUOUS
10
1.9699813385826772
20
1.185401968503937
11
1.9696957480314961
21
1.1853370472440945
0
LINE
8
BLACK
6
CONTINUOUS
10
1.9696957480314961
20
1.1853370472440945
11
1.9696236614173228
21
1.1853071653543308
0
LINE
8
BLACK
6
CONTINUOUS
10
1.9696236614173228
20
1.1853071653543308
11
1.9695614960629921
21
1.1853065354330707
0
LINE
8
BLACK
6
CONTINUOUS
10
1.9695614960629921
20
1.1853065354330707
11
1.9694168897637794
21
1.185273622047244
0
LINE
8
BLACK
6
CONTINUOUS
10
1.9694168897637794
20
1.185273622047244
11
1.9690332677165354
21
1.1853009055118109
0
LINE
8
BLACK
6
CONTINUOUS
10
1.9690332677165354
20
1.1853009055118109
11
1.9642857086614174
21
1.1852504330708662
0
LINE
8
BLACK
6
CONTINUOUS
10
1.9642857086614174
20
1.1852504330708662
11
1.9637096456692913
21
1.1853071653543308
0
LINE
8
BLACK
6
CONTINUOUS
10
1.9637096456692913
20
1.1853071653543308
11
1.9626452362204725
21
1.1857480708661416
0
LINE
8
BLACK
6
CONTINUOUS
10
1.9626452362204725
20
1.1857480708661416
11
1.961830590551181
21
1.1865627165354331
0
LINE
8
BLACK
6
CONTINUOUS
10
1.961830590551181
20
1.1865627165354331
11
1.9613896850393699
21
1.1876271259842519
0
LINE
8
BLACK
6
CONTINUOUS
10
1.9613896850393699
20
1.1876271259842519
11
1.9613896850393699
21
1.1887792519685039
0
LINE
8
BLACK
6
CONTINUOUS
10
1.9613896850393699
20
1.1887792519685039
11
1.961830590551181
21
1.1898436614173229
0
LINE
8
BLACK
6
CONTINUOUS
10
1.961830590551181
20
1.1898436614173229
11
1.9626452362204725
21
1.1906583070866141
0
LINE
8
BLACK
6
CONTINUOUS
10
1.9626452362204725
20
1.1906583070866141
11
1.9637096456692913
21
1.1910992125984252
0
LINE
8
BLACK
6
CONTINUOUS
10
1.9637096456692913
20
1.1910992125984252
11
1.9687107874015748
21
1.1911524015748032
0
LINE
8
BLACK
6
CONTINUOUS
10
1.9687107874015748
20
1.1911524015748032
11
1.9746867716535432
21
1.1931909448818898
0
LINE
8
BLACK
6
CONTINUOUS
10
1.9746867716535432
20
1.1931909448818898
11
1.9784429527559055
21
1.197005905511811
0
LINE
8
BLACK
6
CONTINUOUS
10
1.9784429527559055
20
1.197005905511811
11
1.9804353937007872
21
1.2031256692913386
0
LINE
8
BLACK
6
CONTINUOUS
10
1.9804353937007872
20
1.2031256692913386
11
1.9803805905511811
21
1.2382031889763778
0
LINE
8
BLACK
6
CONTINUOUS
10
1.9803805905511811
20
1.2382031889763778
11
1.9804373228346457
21
1.2387792519685039
0
LINE
8
BLACK
6
CONTINUOUS
10
1.9804373228346457
20
1.2387792519685039
11
1.9808782283464565
21
1.2398436614173227
0
LINE
8
BLACK
6
CONTINUOUS
10
1.9808782283464565
20
1.2398436614173227
11
1.981692874015748
21
1.2406583070866142
0
LINE
8
BLACK
6
CONTINUOUS
10
1.981692874015748
20
1.2406583070866142
11
1.9827572834645668
21
1.2410992125984253
0
LINE
8
BLACK
6
CONTINUOUS
10
1.9827572834645668
20
1.2410992125984253
11
1.9839094094488188
21
1.2410992125984253
0
LINE
8
BLACK
6
CONTINUOUS
10
1.9839094094488188
20
1.2410992125984253
11
1.9849738188976378
21
1.2406583070866142
0
LINE
8
BLACK
6
CONTINUOUS
10
2.0336379921259842
20
1.2411259448818897
11
2.033715472440945
21
1.2411311023622047
0
LINE
8
BLACK
6
CONTINUOUS
10
2.033715472440945
20
1.2411311023622047
11
2.0337688188976379
21
1.2411130708661418
0
LINE
8
BLACK
6
CONTINUOUS
10
2.0337688188976379
20
1.2411130708661418
11
2.0339094094488188
21
1.2410992125984253
0
LINE
8
BLACK
6
CONTINUOUS
10
2.0339094094488188
20
1.2410992125984253
11
2.0343525984251967
21
1.2409156299212598
0
LINE
8
BLACK
6
CONTINUOUS
10
2.0343525984251967
20
1.2409156299212598
11
2.0348068503937009
21
1.2407620078740158
0
LINE
8
BLACK
6
CONTINUOUS
10
2.0348068503937009
20
1.2407620078740158
11
2.034881811023622
21
1.2406964566929133
0
LINE
8
BLACK
6
CONTINUOUS
10
2.034881811023622
20
1.2406964566929133
11
2.0349738188976376
21
1.2406583070866142
0
LINE
8
BLACK
6
CONTINUOUS
10
2.0349738188976376
20
1.2406583070866142
11
2.0353127952755905
21
1.2403193307086613
0
LINE
8
BLACK
6
CONTINUOUS
10
2.0353127952755905
20
1.2403193307086613
11
2.035673937007874
21
1.2400033464566929
0
LINE
8
BLACK
6
CONTINUOUS
10
2.035673937007874
20
1.2400033464566929
11
2.0357181102362203
21
1.2399140157480315
0
LINE
8
BLACK
6
CONTINUOUS
10
2.0357181102362203
20
1.2399140157480315
11
2.0357884645669291
21
1.2398436614173227
0
LINE
8
BLACK
6
CONTINUOUS
10
2.0357884645669291
20
1.2398436614173227
11
2.0359719291338583
21
1.2394007480314961
0
LINE
8
BLACK
6
CONTINUOUS
10
2.0359719291338583
20
1.2394007480314961
11
2.0361846456692914
21
1.238970590551181
0
LINE
8
BLACK
6
CONTINUOUS
10
2.0361846456692914
20
1.238970590551181
11
2.0361912598425196
21
1.2388712598425196
0
LINE
8
BLACK
6
CONTINUOUS
10
2.0361912598425196
20
1.2388712598425196
11
2.0362293700787402
21
1.2387792519685039
0
LINE
8
BLACK
6
CONTINUOUS
10
2.0362293700787402
20
1.2387792519685039
11
2.0362293700787402
21
1.2382995669291339
0
LINE
8
BLACK
6
CONTINUOUS
10
2.0362293700787402
20
1.2382995669291339
11
2.0362612598425196
21
1.237821062992126
0
LINE
8
BLACK
6
CONTINUOUS
10
2.0362612598425196
20
1.237821062992126
11
2.0362293700787402
21
1.2377267716535434
0
LINE
8
BLACK
6
CONTINUOUS
10
2.0362293700787402
20
1.2377267716535434
11
2.0362293700787402
21
1.237627125984252
0
LINE
8
BLACK
6
CONTINUOUS
10
2.0362293700787402
20
1.237627125984252
11
2.036045748031496
21
1.2371839370078739
0
LINE
8
BLACK
6
CONTINUOUS
10
2.036045748031496
20
1.2371839370078739
11
2.0358921653543307
21
1.2367296850393701
0
LINE
8
BLACK
6
CONTINUOUS
10
2.0358921653543307
20
1.2367296850393701
11
2.0358262992125984
21
1.2366541338582677
0
LINE
8
BLACK
6
CONTINUOUS
10
2.0358262992125984
20
1.2366541338582677
11
2.0357884645669291
21
1.2365627165354331
0
LINE
8
BLACK
6
CONTINUOUS
10
2.0357884645669291
20
1.2365627165354331
11
2.0354644488188978
21
1.2362387401574804
0
LINE
8
BLACK
6
CONTINUOUS
10
2.0354644488188978
20
1.2362387401574804
11
2.0231507086614173
21
1.2221035433070866
0
LINE
8
BLACK
6
CONTINUOUS
10
2.0231507086614173
20
1.2221035433070866
11
2.0238095275590551
21
1.2221083464566929
0
LINE
8
BLACK
6
CONTINUOUS
10
2.0238095275590551
20
1.2221083464566929
11
2.0243855905511809
21
1.2220516141732283
0
LINE
8
BLACK
6
CONTINUOUS
10
2.0243855905511809
20
1.2220516141732283
11
2.0244835826771652
21
1.2220110236220472
0
LINE
8
BLACK
6
CONTINUOUS
10
2.0244835826771652
20
1.2220110236220472
11
2.024589409448819
21
1.2220035039370079
0
LINE
8
BLACK
6
CONTINUOUS
10
2.024589409448819
20
1.2220035039370079
11
2.0250814173228346
21
1.2217633858267716
0
LINE
8
BLACK
6
CONTINUOUS
10
2.0250814173228346
20
1.2217633858267716
11
2.0254499999999998
21
1.2216107086614172
0
LINE
8
BLACK
6
CONTINUOUS
10
2.0254499999999998
20
1.2216107086614172
11
2.0255031102362202
21
1.2215575984251967
0
LINE
8
BLACK
6
CONTINUOUS
10
2.0255031102362202
20
1.2215575984251967
11
2.0298919291338584
21
1.2194156692913385
0
LINE
8
BLACK
6
CONTINUOUS
10
2.0298919291338584
20
1.2194156692913385
11
2.0301398425196848
21
1.2192596062992125
0
LINE
8
BLACK
6
CONTINUOUS
10
2.0301398425196848
20
1.2192596062992125
11
2.0302118897637795
21
1.2192297637795275
0
LINE
8
BLACK
6
CONTINUOUS
10
2.0302118897637795
20
1.2192297637795275
11
2.0302571653543309
21
1.219185748031496
0
LINE
8
BLACK
6
CONTINUOUS
10
2.0302571653543309
20
1.219185748031496
11
2.0303817716535431
21
1.2191073228346456
0
LINE
8
BLACK
6
CONTINUOUS
10
2.0303817716535431
20
1.2191073228346456
11
2.030616771653543
21
1.2188363779527558
0
LINE
8
BLACK
6
CONTINUOUS
10
2.030616771653543
20
1.2188363779527558
11
2.0330403149606298
21
1.2164815354330709
0
LINE
8
BLACK
6
CONTINUOUS
10
2.0330403149606298
20
1.2164815354330709
11
2.0332261417322832
21
1.2162551181102361
0
LINE
8
BLACK
6
CONTINUOUS
10
2.0332261417322832
20
1.2162551181102361
11
2.0332849999999998
21
1.2162040551181101
0
LINE
8
BLACK
6
CONTINUOUS
10
2.0332849999999998
20
1.2162040551181101
11
2.0333131102362203
21
1.216149094488189
0
LINE
8
BLACK
6
CONTINUOUS
10
2.0333131102362203
20
1.216149094488189
11
2.0334075196850394
21
1.2160340944881889
0
LINE
8
BLACK
6
CONTINUOUS
10
2.0334075196850394
20
1.2160340944881889
11
2.0335576377952758
21
1.215671653543307
0
LINE
8
BLACK
6
CONTINUOUS
10
2.0335576377952758
20
1.215671653543307
11
2.03597437007874
21
1.210952283464567
0
LINE
8
BLACK
6
CONTINUOUS
10
2.03597437007874
20
1.210952283464567
11
2.0361812598425195
21
1.2104116929133859
0
LINE
8
BLACK
6
CONTINUOUS
10
2.0361812598425195
20
1.2104116929133859
11
2.0361887795275591
21
1.2103058267716535
0
LINE
8
BLACK
6
CONTINUOUS
10
2.0361887795275591
20
1.2103058267716535
11
2.0362293700787402
21
1.2102078346456693
0
LINE
8
BLACK
6
CONTINUOUS
10
2.0362293700787402
20
1.2102078346456693
11
2.0362316535433069
21
1.2097022440944882
0
LINE
8
BLACK
6
CONTINUOUS
10
2.0362316535433069
20
1.2097022440944882
11
2.0362629133858268
21
1.2092624803149605
0
LINE
8
BLACK
6
CONTINUOUS
10
2.0362629133858268
20
1.2092624803149605
11
2.0362340551181104
21
1.2091759448818897
0
LINE
8
BLACK
6
CONTINUOUS
10
2.0362340551181104
20
1.2091759448818897
11
2.0362861023622045
21
1.1977270078740156
0
LINE
8
BLACK
6
CONTINUOUS
10
2.0362861023622045
20
1.1977270078740156
11
2.0362293700787402
21
1.1971509448818898
0
LINE
8
BLACK
6
CONTINUOUS
10
2.0362293700787402
20
1.1971509448818898
11
2.0361887795275591
21
1.1970529921259843
0
LINE
8
BLACK
6
CONTINUOUS
10
2.0361887795275591
20
1.1970529921259843
11
2.0361812598425195
21
1.1969470866141732
0
LINE
8
BLACK
6
CONTINUOUS
10
2.0361812598425195
20
1.1969470866141732
11
2.035941062992126
21
1.1964549606299213
0
LINE
8
BLACK
6
CONTINUOUS
10
2.035941062992126
20
1.1964549606299213
11
2.0357884645669291
21
1.1960865354330708
0
LINE
8
BLACK
6
CONTINUOUS
10
2.0357884645669291
20
1.1960865354330708
11
2.0357353149606299
21
1.1960334251968503
0
LINE
8
BLACK
6
CONTINUOUS
10
2.0357353149606299
20
1.1960334251968503
11
2.0335933858267716
21
1.1916446062992125
0
LINE
8
BLACK
6
CONTINUOUS
10
2.0335933858267716
20
1.1916446062992125
11
2.0334373622047242
21
1.1913968110236219
0
LINE
8
BLACK
6
CONTINUOUS
10
2.0334373622047242
20
1.1913968110236219
11
2.0334075196850394
21
1.1913246850393699
0
LINE
8
BLACK
6
CONTINUOUS
10
2.0334075196850394
20
1.1913246850393699
11
2.0333633858267715
21
1.1912793307086613
0
LINE
8
BLACK
6
CONTINUOUS
10
2.0333633858267715
20
1.1912793307086613
11
2.0332849999999998
21
1.1911547244094487
0
LINE
8
BLACK
6
CONTINUOUS
10
2.0332849999999998
20
1.1911547244094487
11
2.0330140944881889
21
1.1909198031496062
0
LINE
8
BLACK
6
CONTINUOUS
10
2.0330140944881889
20
1.1909198031496062
11
2.0306593307086613
21
1.188496220472441
0
LINE
8
BLACK
6
CONTINUOUS
10
2.0306593307086613
20
1.188496220472441
11
2.0304328346456693
21
1.1883103937007873
0
LINE
8
BLACK
6
CONTINUOUS
10
2.0304328346456693
20
1.1883103937007873
11
2.0303817716535431
21
1.1882514566929134
0
LINE
8
BLACK
6
CONTINUOUS
10
2.0303817716535431
20
1.1882514566929134
11
2.0303267322834646
21
1.1882233070866142
0
LINE
8
BLACK
6
CONTINUOUS
10
2.0303267322834646
20
1.1882233070866142
11
2.0302118897637795
21
1.1881290157480315
0
LINE
8
BLACK
6
CONTINUOUS
10
2.0302118897637795
20
1.1881290157480315
11
2.0298496062992126
21
1.1879789763779527
0
LINE
8
BLACK
6
CONTINUOUS
10
2.0298496062992126
20
1.1879789763779527
11
2.0251300393700786
21
1.1855621653543307
0
LINE
8
BLACK
6
CONTINUOUS
10
2.0251300393700786
20
1.1855621653543307
11
2.024589409448819
21
1.1853552755905512
0
LINE
8
BLACK
6
CONTINUOUS
10
2.024589409448819
20
1.1853552755905512
11
2.0244835826771652
21
1.1853477952755904
0
LINE
8
BLACK
6
CONTINUOUS
10
2.0244835826771652
20
1.1853477952755904
11
2.0243855905511809
21
1.1853071653543308
0
LINE
8
BLACK
6
CONTINUOUS
10
2.0243855905511809
20
1.1853071653543308
11
2.0238853937007875
21
1.1853052755905511
0
LINE
8
BLACK
6
CONTINUOUS
10
2.0238853937007875
20
1.1853052755905511
11
2.0234401968503937
21
1.185273622047244
0
LINE
8
BLACK
6
CONTINUOUS
10
2.0234401968503937
20
1.185273622047244
11
2.0233513779527557
21
1.1853032283464566
0
LINE
8
BLACK
6
CONTINUOUS
10
2.0233513779527557
20
1.1853032283464566
11
2.0095238188976379
21
1.1852504330708662
0
LINE
8
BLACK
6
CONTINUOUS
10
2.0095238188976379
20
1.1852504330708662
11
2.0089477559055116
21
1.1853071653543308
0
LINE
8
BLACK
6
CONTINUOUS
10
2.0089477559055116
20
1.1853071653543308
11
2.008849724409449
21
1.1853477952755904
0
LINE
8
BLACK
6
CONTINUOUS
10
2.008849724409449
20
1.1853477952755904
11
2.0087439370078739
21
1.1853552755905512
0
LINE
8
BLACK
6
CONTINUOUS
10
2.0087439370078739
20
1.1853552755905512
11
2.0082518897637796
21
1.185595433070866
0
LINE
8
BLACK
6
CONTINUOUS
10
2.0082518897637796
20
1.185595433070866
11
2.0078833464566928
21
1.1857480708661416
0
LINE
8
BLACK
6
CONTINUOUS
10
2.0078833464566928
20
1.1857480708661416
11
2.0078301968503935
21
1.1858012204724409
0
LINE
8
BLACK
6
CONTINUOUS
10
2.0078301968503935
20
1.1858012204724409
11
2.0034413779527558
21
1.1879431102362203
0
LINE
8
BLACK
6
CONTINUOUS
10
2.0034413779527558
20
1.1879431102362203
11
2.0031933464566927
21
1.1880992125984251
0
LINE
8
BLACK
6
CONTINUOUS
10
2.0031933464566927
20
1.1880992125984251
11
2.0031214173228347
21
1.1881290157480315
0
LINE
8
BLACK
6
CONTINUOUS
10
2.0031214173228347
20
1.1881290157480315
11
2.0030761417322833
21
1.1881729921259843
0
LINE
8
BLACK
6
CONTINUOUS
10
2.0030761417322833
20
1.1881729921259843
11
2.0029514960629919
21
1.1882514566929134
0
LINE
8
BLACK
6
CONTINUOUS
10
2.0029514960629919
20
1.1882514566929134
11
2.0027163385826769
21
1.1885225984251968
0
LINE
8
BLACK
6
CONTINUOUS
10
2.0027163385826769
20
1.1885225984251968
11
2.0002930314960627
21
1.1908772047244094
0
LINE
8
BLACK
6
CONTINUOUS
10
2.0002930314960627
20
1.1908772047244094
11
1.9999257874015748
21
1.1913246850393699
0
LINE
8
BLACK
6
CONTINUOUS
10
1.9999257874015748
20
1.1913246850393699
11
1.9994849212598425
21
1.192389094488189
0
LINE
8
BLACK
6
CONTINUOUS
10
1.9994849212598425
20
1.192389094488189
11
1.9994849212598425
21
1.1935411811023622
0
LINE
8
BLACK
6
CONTINUOUS
10
1.9994849212598425
20
1.1935411811023622
11
1.9999258267716535
21
1.194605590551181
0
LINE
8
BLACK
6
CONTINUOUS
10
1.9999258267716535
20
1.194605590551181
11
2.0007405118110237
21
1.1954202755905512
0
LINE
8
BLACK
6
CONTINUOUS
10
2.0007405118110237
20
1.1954202755905512
11
2.0018049212598426
21
1.1958611417322835
0
LINE
8
BLACK
6
CONTINUOUS
10
2.0018049212598426
20
1.1958611417322835
11
2.0029570078740155
21
1.1958611417322835
0
LINE
8
BLACK
6
CONTINUOUS
10
2.0029570078740155
20
1.1958611417322835
11
2.0040214173228348
21
1.1954202362204724
0
LINE
8
BLACK
6
CONTINUOUS
10
2.0040214173228348
20
1.1954202362204724
11
2.0065982677165355
21
1.1929164566929134
0
LINE
8
BLACK
6
CONTINUOUS
10
2.0065982677165355
20
1.1929164566929134
11
2.0103111023622047
21
1.1911044488188975
0
LINE
8
BLACK
6
CONTINUOUS
10
2.0103111023622047
20
1.1911044488188975
11
2.0232055118110237
21
1.1911536614173228
0
LINE
8
BLACK
6
CONTINUOUS
10
2.0232055118110237
20
1.1911536614173228
11
2.0269275590551179
21
1.1930596062992125
0
LINE
8
BLACK
6
CONTINUOUS
10
2.0269275590551179
20
1.1930596062992125
11
2.0286200393700788
21
1.194801496062992
0
LINE
8
BLACK
6
CONTINUOUS
10
2.0286200393700788
20
1.194801496062992
11
2.0304311023622046
21
1.1985124015748032
0
LINE
8
BLACK
6
CONTINUOUS
10
2.0304311023622046
20
1.1985124015748032
11
2.030383307086614
21
1.2090270078740157
0
LINE
8
BLACK
6
CONTINUOUS
10
2.030383307086614
20
1.2090270078740157
11
2.0284768503937007
21
1.2127498818897637
0
LINE
8
BLACK
6
CONTINUOUS
10
2.0284768503937007
20
1.2127498818897637
11
2.0267350393700787
21
1.2144423622047245
0
LINE
8
BLACK
6
CONTINUOUS
10
2.0267350393700787
20
1.2144423622047245
11
2.0230318897637796
21
1.2162496456692913
0
LINE
8
BLACK
6
CONTINUOUS
10
2.0230318897637796
20
1.2162496456692913
11
2.0166666535433069
21
1.2162028346456693
0
LINE
8
BLACK
6
CONTINUOUS
10
2.0166666535433069
20
1.2162028346456693
11
2.0163619685039369
21
1.216232874015748
0
LINE
8
BLACK
6
CONTINUOUS
10
2.0163619685039369
20
1.216232874015748
11
2.0162845275590549
21
1.2162276771653544
0
LINE
8
BLACK
6
CONTINUOUS
10
2.0162845275590549
20
1.2162276771653544
11
2.0162311417322836
21
1.2162457480314961
0
LINE
8
BLACK
6
CONTINUOUS
10
2.0162311417322836
20
1.2162457480314961
11
2.016090590551181
21
1.2162595669291338
0
LINE
8
BLACK
6
CONTINUOUS
10
2.016090590551181
20
1.2162595669291338
11
2.0156473622047244
21
1.2164431889763778
0
LINE
8
BLACK
6
CONTINUOUS
10
2.0156473622047244
20
1.2164431889763778
11
2.0151931496062994
21
1.2165967716535433
0
LINE
8
BLACK
6
CONTINUOUS
10
2.0151931496062994
20
1.2165967716535433
11
2.0151181889763778
21
1.2166623622047243
0
LINE
8
BLACK
6
CONTINUOUS
10
2.0151181889763778
20
1.2166623622047243
11
2.0150261811023622
21
1.2167004724409449
0
LINE
8
BLACK
6
CONTINUOUS
10
2.0150261811023622
20
1.2167004724409449
11
2.0146870078740156
21
1.2170396456692913
0
LINE
8
BLACK
6
CONTINUOUS
10
2.0146870078740156
20
1.2170396456692913
11
2.0143260629921258
21
1.2173554724409448
0
LINE
8
BLACK
6
CONTINUOUS
10
2.0143260629921258
20
1.2173554724409448
11
2.0142818897637795
21
1.2174447637795276
0
LINE
8
BLACK
6
CONTINUOUS
10
2.0142818897637795
20
1.2174447637795276
11
2.0142115354330707
21
1.2175151181102362
0
LINE
8
BLACK
6
CONTINUOUS
10
2.0142115354330707
20
1.2175151181102362
11
2.014027992125984
21
1.217958188976378
0
LINE
8
BLACK
6
CONTINUOUS
10
2.014027992125984
20
1.217958188976378
11
2.0138153543307085
21
1.2183881889763779
0
LINE
8
BLACK
6
CONTINUOUS
10
2.0138153543307085
20
1.2183881889763779
11
2.0138087007874015
21
1.2184875590551181
0
LINE
8
BLACK
6
CONTINUOUS
10
2.0138087007874015
20
1.2184875590551181
11
2.0137706299212597
21
1.2185795275590552
0
LINE
8
BLACK
6
CONTINUOUS
10
2.0137706299212597
20
1.2185795275590552
11
2.0137706299212597
21
1.219059251968504
0
LINE
8
BLACK
6
CONTINUOUS
10
2.0137706299212597
20
1.219059251968504
11
2.0137387401574802
21
1.2195377165354331
0
LINE
8
BLACK
6
CONTINUOUS
10
2.0137387401574802
20
1.2195377165354331
11
2.0137706299212597
21
1.2196320472440945
0
LINE
8
BLACK
6
CONTINUOUS
10
2.0137706299212597
20
1.2196320472440945
11
2.0137706299212597
21
1.2197316535433071
0
LINE
8
BLACK
6
CONTINUOUS
10
2.0137706299212597
20
1.2197316535433071
11
2.0139542125984251
21
1.2201748818897638
0
LINE
8
BLACK
6
CONTINUOUS
10
2.0139542125984251
20
1.2201748818897638
11
2.0141078346456691
21
1.220629094488189
0
LINE
8
BLACK
6
CONTINUOUS
10
2.0141078346456691
20
1.220629094488189
11
2.0141736614173227
21
1.2207046850393701
0
LINE
8
BLACK
6
CONTINUOUS
10
2.0141736614173227
20
1.2207046850393701
11
2.0142115354330707
21
1.220796062992126
0
LINE
8
BLACK
6
CONTINUOUS
10
2.0142115354330707
20
1.220796062992126
11
2.0145355118110237
21
1.2211200787401575
0
LINE
8
BLACK
6
CONTINUOUS
10
2.0145355118110237
20
1.2211200787401575
11
2.0268834645669291
21
1.235294527559055
0
LINE
8
BLACK
6
CONTINUOUS
10
2.0268834645669291
20
1.235294527559055
11
2.0023809448818897
21
1.235250433070866
0
LINE
8
BLACK
6
CONTINUOUS
10
2.0023809448818897
20
1.235250433070866
11
2.0018048818897638
21
1.2353071653543306
0
LINE
8
BLACK
6
CONTINUOUS
10
2.0018048818897638
20
1.2353071653543306
11
2.000740472440945
21
1.2357480708661417
0
LINE
8
BLACK
6
CONTINUOUS
10
2.000740472440945
20
1.2357480708661417
11
1.9999258267716535
21
1.2365627165354331
0
LINE
8
BLACK
6
CONTINUOUS
10
1.9999258267716535
20
1.2365627165354331
11
1.9994849212598425
21
1.237627125984252
0
LINE
8
BLACK
6
CONTINUOUS
10
1.9994849212598425
20
1.237627125984252
11
1.9994849212598425
21
1.2387792519685039
0
LINE
8
BLACK
6
CONTINUOUS
10
1.9994849212598425
20
1.2387792519685039
11
1.9999258267716535
21
1.2398436614173227
0
LINE
8
BLACK
6
CONTINUOUS
10
1.9999258267716535
20
1.2398436614173227
11
2.000740472440945
21
1.2406583070866142
0
LINE
8
BLACK
6
CONTINUOUS
10
2.000740472440945
20
1.2406583070866142
11
2.0018048818897638
21
1.2410992125984253
0
LINE
8
BLACK
6
CONTINUOUS
10
2.0018048818897638
20
1.2410992125984253
11
2.0333333464566929
21
1.2411559448818896
0
LINE
8
BLACK
6
CONTINUOUS
10
2.0333333464566929
20
1.2411559448818896
11
2.0336379921259842
21
1.2411259448818897
0
LINE
8
BLACK
6
CONTINUOUS
10
2.0114996456692915
20
1.2983756299212599
11
2.0228025590551182
21
1.2961273622047245
0
LINE
8
BLACK
6
CONTINUOUS
10
2.0228025590551182
20
1.2961273622047245
11
2.03371531496063
21
1.2924229921259842
0
LINE
8
BLACK
6
CONTINUOUS
10
2.03371531496063
20
1.2924229921259842
11
2.0440511811023621
21
1.2873259055118109
0
LINE
8
BLACK
6
CONTINUOUS
10
2.0440511811023621
20
1.2873259055118109
11
2.053633307086614
21
1.2809233070866142
0
LINE
8
BLACK
6
CONTINUOUS
10
2.053633307086614
20
1.2809233070866142
11
2.0622977559055116
21
1.2733248031496063
0
LINE
8
BLACK
6
CONTINUOUS
10
2.0622977559055116
20
1.2733248031496063
11
2.0698962598425195
21
1.2646603543307087
0
LINE
8
BLACK
6
CONTINUOUS
10
2.0698962598425195
20
1.2646603543307087
11
2.0762988582677164
21
1.255078188976378
0
LINE
8
BLACK
6
CONTINUOUS
10
2.0762988582677164
20
1.255078188976378
11
2.0813959448818897
21
1.2447423622047245
0
LINE
8
BLACK
6
CONTINUOUS
10
2.0813959448818897
20
1.2447423622047245
11
2.0851003149606298
21
1.2338296062992127
0
LINE
8
BLACK
6
CONTINUOUS
10
2.0851003149606298
20
1.2338296062992127
11
2.0873485826771652
21
1.2225266929133858
0
LINE
8
BLACK
6
CONTINUOUS
10
2.0873485826771652
20
1.2225266929133858
11
2.0881023228346458
21
1.2110270472440945
0
LINE
8
BLACK
6
CONTINUOUS
10
2.0881023228346458
20
1.2110270472440945
11
2.0873485826771652
21
1.1995274015748032
0
LINE
8
BLACK
6
CONTINUOUS
10
2.0873485826771652
20
1.1995274015748032
11
2.0851003149606298
21
1.1882244881889763
0
LINE
8
BLACK
6
CONTINUOUS
10
2.0851003149606298
20
1.1882244881889763
11
2.0813959448818897
21
1.1773117322834645
0
LINE
8
BLACK
6
CONTINUOUS
10
2.0813959448818897
20
1.1773117322834645
11
2.0762988582677164
21
1.1669758661417322
0
LINE
8
BLACK
6
CONTINUOUS
10
2.0762988582677164
20
1.1669758661417322
11
2.0698962598425195
21
1.1573937401574803
0
LINE
8
BLACK
6
CONTINUOUS
10
2.0698962598425195
20
1.1573937401574803
11
2.0622977559055116
21
1.1487292913385827
0
LINE
8
BLACK
6
CONTINUOUS
10
2.0622977559055116
20
1.1487292913385827
11
2.053633307086614
21
1.1411307874015748
0
LINE
8
BLACK
6
CONTINUOUS
10
2.053633307086614
20
1.1411307874015748
11
2.0440511811023621
21
1.1347281889763778
0
LINE
8
BLACK
6
CONTINUOUS
10
2.0440511811023621
20
1.1347281889763778
11
2.03371531496063
21
1.1296311023622048
0
LINE
8
BLACK
6
CONTINUOUS
10
2.03371531496063
20
1.1296311023622048
11
2.0228025590551182
21
1.1259267322834645
0
LINE
8
BLACK
6
CONTINUOUS
10
2.0228025590551182
20
1.1259267322834645
11
2.0114996456692915
21
1.1236784645669291
0
LINE
8
BLACK
6
CONTINUOUS
10
2.0114996456692915
20
1.1236784645669291
11
2.
21
1.1229247244094487
0
LINE
8
BLACK
6
CONTINUOUS
10
2.
20
1.1229247244094487
11
1.9885003543307087
21
1.1236784645669291
0
LINE
8
BLACK
6
CONTINUOUS
10
1.9885003543307087
20
1.1236784645669291
11
1.9771974409448818
21
1.1259267322834645
0
LINE
8
BLACK
6
CONTINUOUS
10
1.9771974409448818
20
1.1259267322834645
11
1.96628468503937
21
1.1296311023622048
0
LINE
8
BLACK
6
CONTINUOUS
10
1.96628468503937
20
1.1296311023622048
11
1.9559488188976377
21
1.1347281889763778
0
LINE
8
BLACK
6
CONTINUOUS
10
1.9559488188976377
20
1.1347281889763778
11
1.9463666929133858
21
1.1411307874015748
0
LINE
8
BLACK
6
CONTINUOUS
10
1.9463666929133858
20
1.1411307874015748
11
1.9377022440944882
21
1.1487292913385827
0
LINE
8
BLACK
6
CONTINUOUS
10
1.9377022440944882
20
1.1487292913385827
11
1.9301037401574803
21
1.1573937401574803
0
LINE
8
BLACK
6
CONTINUOUS
10
1.9301037401574803
20
1.1573937401574803
11
1.9237011417322833
21
1.1669758661417322
0
LINE
8
BLACK
6
CONTINUOUS
10
1.9237011417322833
20
1.1669758661417322
11
1.9186040551181103
21
1.1773117322834645
0
LINE
8
BLACK
6
CONTINUOUS
10
1.9186040551181103
20
1.1773117322834645
11
1.91489968503937
21
1.1882244881889763
0
LINE
8
BLACK
6
CONTINUOUS
10
1.91489968503937
20
1.1882244881889763
11
1.9126514173228346
21
1.1995274015748032
0
LINE
8
BLACK
6
CONTINUOUS
10
1.9126514173228346
20
1.1995274015748032
11
1.9118976771653542
21
1.2110270472440945
0
LINE
8
BLACK
6
CONTINUOUS
10
1.9118976771653542
20
1.2110270472440945
11
1.9126514173228346
21
1.2225266929133858
0
LINE
8
BLACK
6
CONTINUOUS
10
1.9126514173228346
20
1.2225266929133858
11
1.91489968503937
21
1.2338296062992127
0
LINE
8
BLACK
6
CONTINUOUS
10
1.91489968503937
20
1.2338296062992127
11
1.9186040551181103
21
1.2447423622047245
0
LINE
8
BLACK
6
CONTINUOUS
10
1.9186040551181103
20
1.2447423622047245
11
1.9237011417322833
21
1.255078188976378
0
LINE
8
BLACK
6
CONTINUOUS
10
1.9237011417322833
20
1.255078188976378
11
1.9301037401574803
21
1.2646603543307087
0
LINE
8
BLACK
6
CONTINUOUS
10
1.9301037401574803
20
1.2646603543307087
11
1.9377022440944882
21
1.2733248031496063
0
LINE
8
BLACK
6
CONTINUOUS
10
1.9377022440944882
20
1.2733248031496063
11
1.9463666929133858
21
1.2809233070866142
0
LINE
8
BLACK
6
CONTINUOUS
10
1.9463666929133858
20
1.2809233070866142
11
1.9559488582677165
21
1.2873259055118109
0
LINE
8
BLACK
6
CONTINUOUS
10
1.9559488582677165
20
1.2873259055118109
11
1.96628468503937
21
1.2924229921259842
0
LINE
8
BLACK
6
CONTINUOUS
10
1.96628468503937
20
1.2924229921259842
11
1.9771974409448818
21
1.2961273622047245
0
LINE
8
BLACK
6
CONTINUOUS
10
1.9771974409448818
20
1.2961273622047245
11
1.9885003543307087
21
1.2983756299212599
0
LINE
8
BLACK
6
CONTINUOUS
10
1.9885003543307087
20
1.2983756299212599
11
2.
21
1.2991293700787401
0
LINE
8
BLACK
6
CONTINUOUS
10
2.
20
1.2991293700787401
11
2.0114996456692915
21
1.2983756299212599
0
LINE
8
BLACK
6
CONTINUOUS
10
1.9183784645669291
20
1.1998084251968504
11
1.9206662992125985
21
1.188798779527559
0
LINE
8
BLACK
6
CONTINUOUS
10
1.9206662992125985
20
1.188798779527559
11
1.9244319685039371
21
1.1782032283464567
0
LINE
8
BLACK
6
CONTINUOUS
10
1.9244319685039371
20
1.1782032283464567
11
1.9296053149606298
21
1.1682190944881889
0
LINE
8
BLACK
6
CONTINUOUS
10
1.9296053149606298
20
1.1682190944881889
11
1.9360899999999999
21
1.159032401574803
0
LINE
8
BLACK
6
CONTINUOUS
10
1.9360899999999999
20
1.159032401574803
11
1.9437651968503937
21
1.1508142913385826
0
LINE
8
BLACK
6
CONTINUOUS
10
1.9437651968503937
20
1.1508142913385826
11
1.9524879527559054
21
1.1437177952755906
0
LINE
8
BLACK
6
CONTINUOUS
10
1.9524879527559054
20
1.1437177952755906
11
1.962095748031496
21
1.137875157480315
0
LINE
8
BLACK
6
CONTINUOUS
10
1.962095748031496
20
1.137875157480315
11
1.9724096456692912
21
1.1333951968503937
0
LINE
8
BLACK
6
CONTINUOUS
10
1.9724096456692912
20
1.1333951968503937
11
1.9832374803149606
21
1.1303613779527559
0
LINE
8
BLACK
6
CONTINUOUS
10
1.9832374803149606
20
1.1303613779527559
11
1.9943775984251968
21
1.1288302362204725
0
LINE
8
BLACK
6
CONTINUOUS
10
1.9943775984251968
20
1.1288302362204725
11
2.005622401574803
21
1.1288302362204725
0
LINE
8
BLACK
6
CONTINUOUS
10
2.005622401574803
20
1.1288302362204725
11
2.0167625196850394
21
1.1303613779527559
0
LINE
8
BLACK
6
CONTINUOUS
10
2.0167625196850394
20
1.1303613779527559
11
2.0275903543307088
21
1.1333951968503937
0
LINE
8
BLACK
6
CONTINUOUS
10
2.0275903543307088
20
1.1333951968503937
11
2.037904251968504
21
1.137875157480315
0
LINE
8
BLACK
6
CONTINUOUS
10
2.037904251968504
20
1.137875157480315
11
2.0475120472440946
21
1.1437177952755906
0
LINE
8
BLACK
6
CONTINUOUS
10
2.0475120472440946
20
1.1437177952755906
11
2.0562348031496063
21
1.1508142913385826
0
LINE
8
BLACK
6
CONTINUOUS
10
2.0562348031496063
20
1.1508142913385826
11
2.0639099999999999
21
1.159032401574803
0
LINE
8
BLACK
6
CONTINUOUS
10
2.0639099999999999
20
1.159032401574803
11
2.07039468503937
21
1.1682190944881889
0
LINE
8
BLACK
6
CONTINUOUS
10
2.07039468503937
20
1.1682190944881889
11
2.0755680314960627
21
1.1782032283464567
0
LINE
8
BLACK
6
CONTINUOUS
10
2.0755680314960627
20
1.1782032283464567
11
2.0793337007874015
21
1.188798779527559
0
LINE
8
BLACK
6
CONTINUOUS
10
2.0793337007874015
20
1.188798779527559
11
2.0816215354330709
21
1.1998084251968504
0
LINE
8
BLACK
6
CONTINUOUS
10
2.0816215354330709
20
1.1998084251968504
11
2.0823888976377951
21
1.2110270472440945
0
LINE
8
BLACK
6
CONTINUOUS
10
2.0823888976377951
20
1.2110270472440945
11
2.0816215354330709
21
1.2222456692913386
0
LINE
8
BLACK
6
CONTINUOUS
10
2.0816215354330709
20
1.2222456692913386
11
2.0793337007874015
21
1.2332553149606298
0
LINE
8
BLACK
6
CONTINUOUS
10
2.0793337007874015
20
1.2332553149606298
11
2.0755680314960627
21
1.2438508661417322
0
LINE
8
BLACK
6
CONTINUOUS
10
2.0755680314960627
20
1.2438508661417322
11
2.07039468503937
21
1.253835
0
LINE
8
BLACK
6
CONTINUOUS
10
2.07039468503937
20
1.253835
11
2.0639099999999999
21
1.2630216929133857
0
LINE
8
BLACK
6
CONTINUOUS
10
2.0639099999999999
20
1.2630216929133857
11
2.0562348031496063
21
1.2712398031496062
0
LINE
8
BLACK
6
CONTINUOUS
10
2.0562348031496063
20
1.2712398031496062
11
2.0475120472440946
21
1.2783362992125984
0
LINE
8
BLACK
6
CONTINUOUS
10
2.0475120472440946
20
1.2783362992125984
11
2.037904251968504
21
1.284178937007874
0
LINE
8
BLACK
6
CONTINUOUS
10
2.037904251968504
20
1.284178937007874
11
2.0275903543307088
21
1.2886588976377953
0
LINE
8
BLACK
6
CONTINUOUS
10
2.0275903543307088
20
1.2886588976377953
11
2.0167625196850394
21
1.291692716535433
0
LINE
8
BLACK
6
CONTINUOUS
10
2.0167625196850394
20
1.291692716535433
11
2.005622401574803
21
1.2932238582677165
0
LINE
8
BLACK
6
CONTINUOUS
10
2.005622401574803
20
1.2932238582677165
11
1.9943775984251968
21
1.2932238582677165
0
LINE
8
BLACK
6
CONTINUOUS
10
1.9943775984251968
20
1.2932238582677165
11
1.9832374803149606
21
1.291692716535433
0
LINE
8
BLACK
6
CONTINUOUS
10
1.9832374803149606
20
1.291692716535433
11
1.9724096456692912
21
1.2886588976377953
0
LINE
8
BLACK
6
CONTINUOUS
10
1.9724096456692912
20
1.2886588976377953
11
1.962095748031496
21
1.284178937007874
0
LINE
8
BLACK
6
CONTINUOUS
10
1.962095748031496
20
1.284178937007874
11
1.9524879527559054
21
1.2783362992125984
0
LINE
8
BLACK
6
CONTINUOUS
10
1.9524879527559054
20
1.2783362992125984
11
1.9437651968503937
21
1.2712398031496062
0
LINE
8
BLACK
6
CONTINUOUS
10
1.9437651968503937
20
1.2712398031496062
11
1.9360899999999999
21
1.2630216929133857
0
LINE
8
BLACK
6
CONTINUOUS
10
1.9360899999999999
20
1.2630216929133857
11
1.9296053149606298
21
1.253835
0
LINE
8
BLACK
6
CONTINUOUS
10
1.9296053149606298
20
1.253835
11
1.9244319685039371
21
1.2438508661417322
0
LINE
8
BLACK
6
CONTINUOUS
10
1.9244319685039371
20
1.2438508661417322
11
1.9206662992125985
21
1.2332553149606298
0
LINE
8
BLACK
6
CONTINUOUS
10
1.9206662992125985
20
1.2332553149606298
11
1.9183784645669291
21
1.2222456692913386
0
LINE
8
BLACK
6
CONTINUOUS
10
1.9183784645669291
20
1.2222456692913386
11
1.9176111023622047
21
1.2110270472440945
0
LINE
8
BLACK
6
CONTINUOUS
10
1.9176111023622047
20
1.2110270472440945
11
1.9183784645669291
21
1.1998084251968504
0
LINE
8
BLACK
6
CONTINUOUS
10
2.1383713385826773
20
1.3517183464566929
11
2.1394357480314961
21
1.3512774409448818
0
LINE
8
BLACK
6
CONTINUOUS
10
2.1394357480314961
20
1.3512774409448818
11
2.1402503937007875
21
1.3504627952755905
0
LINE
8
BLACK
6
CONTINUOUS
10
2.1402503937007875
20
1.3504627952755905
11
2.1406912992125986
21
1.3493983858267715
0
LINE
8
BLACK
6
CONTINUOUS
10
2.1406912992125986
20
1.3493983858267715
11
2.140748031496063
21
1.0732317716535433
0
LINE
8
BLACK
6
CONTINUOUS
10
2.140748031496063
20
1.0732317716535433
11
2.1406912992125986
21
1.0726557086614172
0
LINE
8
BLACK
6
CONTINUOUS
10
2.1406912992125986
20
1.0726557086614172
11
2.1402503937007875
21
1.0715912992125984
0
LINE
8
BLACK
6
CONTINUOUS
10
2.1402503937007875
20
1.0715912992125984
11
2.1394357480314961
21
1.070776653543307
0
LINE
8
BLACK
6
CONTINUOUS
10
2.1394357480314961
20
1.070776653543307
11
2.1383713385826773
21
1.0703357480314961
0
LINE
8
BLACK
6
CONTINUOUS
10
2.1383713385826773
20
1.0703357480314961
11
1.8622047244094488
21
1.0702790157480315
0
LINE
8
BLACK
6
CONTINUOUS
10
1.8622047244094488
20
1.0702790157480315
11
1.8616286614173227
21
1.0703357480314961
0
LINE
8
BLACK
6
CONTINUOUS
10
1.8616286614173227
20
1.0703357480314961
11
1.8605642519685039
21
1.070776653543307
0
LINE
8
BLACK
6
CONTINUOUS
10
1.8605642519685039
20
1.070776653543307
11
1.8597496062992125
21
1.0715912992125984
0
LINE
8
BLACK
6
CONTINUOUS
10
1.8597496062992125
20
1.0715912992125984
11
1.8593087007874016
21
1.0726557086614172
0
LINE
8
BLACK
6
CONTINUOUS
10
1.8593087007874016
20
1.0726557086614172
11
1.859251968503937
21
1.3488223228346456
0
LINE
8
BLACK
6
CONTINUOUS
10
1.859251968503937
20
1.3488223228346456
11
1.8593087007874016
21
1.3493983858267715
0
LINE
8
BLACK
6
CONTINUOUS
10
1.8593087007874016
20
1.3493983858267715
11
1.8597496062992125
21
1.3504627952755905
0
LINE
8
BLACK
6
CONTINUOUS
10
1.8597496062992125
20
1.3504627952755905
11
1.8605642519685039
21
1.3512774409448818
0
LINE
8
BLACK
6
CONTINUOUS
10
1.8605642519685039
20
1.3512774409448818
11
1.8616286614173227
21
1.3517183464566929
0
LINE
8
BLACK
6
CONTINUOUS
10
1.8616286614173227
20
1.3517183464566929
11
2.1377952755905509
21
1.3517750787401575
0
LINE
8
BLACK
6
CONTINUOUS
10
2.1377952755905509
20
1.3517750787401575
11
2.1383713385826773
21
1.3517183464566929
0
LINE
8
BLACK
6
CONTINUOUS
10
1.8651461811023622
20
1.1281559055118111
11
1.8651568503937008
21
1.0761285433070866
0
LINE
8
BLACK
6
CONTINUOUS
10
1.8651568503937008
20
1.0761285433070866
11
1.9171793307086613
21
1.0761392125984253
0
LINE
8
BLACK
6
CONTINUOUS
10
1.9171793307086613
20
1.0761392125984253
11
1.9171677559055118
21
1.0880474409448819
0
LINE
8
BLACK
6
CONTINUOUS
10
1.9171677559055118
20
1.0880474409448819
11
1.8799212598425197
21
1.0879955511811024
0
LINE
8
BLACK
6
CONTINUOUS
10
1.8799212598425197
20
1.0879955511811024
11
1.8793451968503936
21
1.0880522834645669
0
LINE
8
BLACK
6
CONTINUOUS
10
1.8793451968503936
20
1.0880522834645669
11
1.8782807874015748
21
1.088493188976378
0
LINE
8
BLACK
6
CONTINUOUS
10
1.8782807874015748
20
1.088493188976378
11
1.8774661417322833
21
1.0893078346456693
0
LINE
8
BLACK
6
CONTINUOUS
10
1.8774661417322833
20
1.0893078346456693
11
1.8770252362204725
21
1.0903722440944881
0
LINE
8
BLACK
6
CONTINUOUS
10
1.8770252362204725
20
1.0903722440944881
11
1.8769725590551181
21
1.1281674015748031
0
LINE
8
BLACK
6
CONTINUOUS
10
1.8769725590551181
20
1.1281674015748031
11
1.8651461811023622
21
1.1281559055118111
0
LINE
8
BLACK
6
CONTINUOUS
10
1.9229781496062992
20
1.3458820866141732
11
1.9230314960629922
21
1.2909483070866141
0
LINE
8
BLACK
6
CONTINUOUS
10
1.9230314960629922
20
1.2909483070866141
11
1.9229747637795276
21
1.2903722440944883
0
LINE
8
BLACK
6
CONTINUOUS
10
1.9229747637795276
20
1.2903722440944883
11
1.9225338582677165
21
1.2893078346456692
0
LINE
8
BLACK
6
CONTINUOUS
10
1.9225338582677165
20
1.2893078346456692
11
1.9217192125984253
21
1.288493188976378
0
LINE
8
BLACK
6
CONTINUOUS
10
1.9217192125984253
20
1.288493188976378
11
1.9206548031496062
21
1.2880522834645669
0
LINE
8
BLACK
6
CONTINUOUS
10
1.9206548031496062
20
1.2880522834645669
11
1.8651133464566929
21
1.2879983858267716
0
LINE
8
BLACK
6
CONTINUOUS
10
1.8651133464566929
20
1.2879983858267716
11
1.8651449606299213
21
1.1340052362204724
0
LINE
8
BLACK
6
CONTINUOUS
10
1.8651449606299213
20
1.1340052362204724
11
1.9200787401574804
21
1.1340585433070867
0
LINE
8
BLACK
6
CONTINUOUS
10
1.9200787401574804
20
1.1340585433070867
11
1.9206548031496062
21
1.1340018110236221
0
LINE
8
BLACK
6
CONTINUOUS
10
1.9206548031496062
20
1.1340018110236221
11
1.9217192125984253
21
1.133560905511811
0
LINE
8
BLACK
6
CONTINUOUS
10
1.9217192125984253
20
1.133560905511811
11
1.9225338582677165
21
1.1327462598425198
0
LINE
8
BLACK
6
CONTINUOUS
10
1.9225338582677165
20
1.1327462598425198
11
1.9229747637795276
21
1.1316818503937007
0
LINE
8
BLACK
6
CONTINUOUS
10
1.9229747637795276
20
1.1316818503937007
11
1.9230286614173229
21
1.0761404330708662
0
LINE
8
BLACK
6
CONTINUOUS
10
1.9230286614173229
20
1.0761404330708662
11
2.0770218110236218
21
1.0761720472440945
0
LINE
8
BLACK
6
CONTINUOUS
10
2.0770218110236218
20
1.0761720472440945
11
2.076968503937008
21
1.1311057874015749
0
LINE
8
BLACK
6
CONTINUOUS
10
2.076968503937008
20
1.1311057874015749
11
2.0770252362204724
21
1.1316818503937007
0
LINE
8
BLACK
6
CONTINUOUS
10
2.0770252362204724
20
1.1316818503937007
11
2.0774661417322835
21
1.1327462598425198
0
LINE
8
BLACK
6
CONTINUOUS
10
2.0774661417322835
20
1.1327462598425198
11
2.078280787401575
21
1.133560905511811
0
LINE
8
BLACK
6
CONTINUOUS
10
2.078280787401575
20
1.133560905511811
11
2.0793451968503938
21
1.1340018110236221
0
LINE
8
BLACK
6
CONTINUOUS
10
2.0793451968503938
20
1.1340018110236221
11
2.1348866141732281
21
1.1340557480314961
0
LINE
8
BLACK
6
CONTINUOUS
10
2.1348866141732281
20
1.1340557480314961
11
2.1348549999999999
21
1.2880488976377953
0
LINE
8
BLACK
6
CONTINUOUS
10
2.1348549999999999
20
1.2880488976377953
11
2.0799212598425196
21
1.2879955511811023
0
LINE
8
BLACK
6
CONTINUOUS
10
2.0799212598425196
20
1.2879955511811023
11
2.0793451968503938
21
1.2880522834645669
0
LINE
8
BLACK
6
CONTINUOUS
10
2.0793451968503938
20
1.2880522834645669
11
2.078280787401575
21
1.288493188976378
0
LINE
8
BLACK
6
CONTINUOUS
10
2.078280787401575
20
1.288493188976378
11
2.0774661417322835
21
1.2893078346456692
0
LINE
8
BLACK
6
CONTINUOUS
10
2.0774661417322835
20
1.2893078346456692
11
2.0770252362204724
21
1.2903722440944883
0
LINE
8
BLACK
6
CONTINUOUS
10
2.0770252362204724
20
1.2903722440944883
11
2.0769712992125986
21
1.3459137007874016
0
LINE
8
BLACK
6
CONTINUOUS
10
2.0769712992125986
20
1.3459137007874016
11
1.9229781496062992
21
1.3458820866141732
0
LINE
8
BLACK
6
CONTINUOUS
10
2.1229796062992126
20
1.128194842519685
11
2.1230314960629921
21
1.0909483070866142
0
LINE
8
BLACK
6
CONTINUOUS
10
2.1230314960629921
20
1.0909483070866142
11
2.1229747637795273
21
1.0903722440944881
0
LINE
8
BLACK
6
CONTINUOUS
10
2.1229747637795273
20
1.0903722440944881
11
2.1225338582677167
21
1.0893078346456693
0
LINE
8
BLACK
6
CONTINUOUS
10
2.1225338582677167
20
1.0893078346456693
11
2.1217192125984252
21
1.088493188976378
0
LINE
8
BLACK
6
CONTINUOUS
10
2.1217192125984252
20
1.088493188976378
11
2.1206548031496064
21
1.0880522834645669
0
LINE
8
BLACK
6
CONTINUOUS
10
2.1206548031496064
20
1.0880522834645669
11
2.0828596456692914
21
1.0879996456692913
0
LINE
8
BLACK
6
CONTINUOUS
10
2.0828596456692914
20
1.0879996456692913
11
2.0828711417322836
21
1.0761732677165354
0
LINE
8
BLACK
6
CONTINUOUS
10
2.0828711417322836
20
1.0761732677165354
11
2.1348985039370079
21
1.0761839370078741
0
LINE
8
BLACK
6
CONTINUOUS
10
2.1348985039370079
20
1.0761839370078741
11
2.1348878346456694
21
1.1282064173228346
0
LINE
8
BLACK
6
CONTINUOUS
10
2.1348878346456694
20
1.1282064173228346
11
2.1229796062992126
21
1.128194842519685
0
LINE
8
BLACK
6
CONTINUOUS
10
1.8828221653543307
20
1.1281730708661417
11
1.8828699606299213
21
1.0938492519685039
0
LINE
8
BLACK
6
CONTINUOUS
10
1.8828699606299213
20
1.0938492519685039
11
1.9171620866141732
21
1.0938970078740158
0
LINE
8
BLACK
6
CONTINUOUS
10
1.9171620866141732
20
1.0938970078740158
11
1.9171287795275591
21
1.1282063779527558
0
LINE
8
BLACK
6
CONTINUOUS
10
1.9171287795275591
20
1.1282063779527558
11
1.8828221653543307
21
1.1281730708661417
0
LINE
8
BLACK
6
CONTINUOUS
10
2.0828206692913387
20
1.1281558661417324
11
2.0828539763779528
21
1.0938492519685039
0
LINE
8
BLACK
6
CONTINUOUS
10
2.0828539763779528
20
1.0938492519685039
11
2.1171777952755906
21
1.0938970472440945
0
LINE
8
BLACK
6
CONTINUOUS
10
2.1171777952755906
20
1.0938970472440945
11
2.1171300393700787
21
1.1281891732283464
0
LINE
8
BLACK
6
CONTINUOUS
10
2.1171300393700787
20
1.1281891732283464
11
2.0828206692913387
21
1.1281558661417324
0
LINE
8
BLACK
6
CONTINUOUS
10
1.8651014566929134
20
1.3458701968503937
11
1.865112125984252
21
1.293847716535433
0
LINE
8
BLACK
6
CONTINUOUS
10
1.865112125984252
20
1.293847716535433
11
1.8770203543307087
21
1.2938592913385827
0
LINE
8
BLACK
6
CONTINUOUS
10
1.8770203543307087
20
1.2938592913385827
11
1.8769685039370079
21
1.3311057874015748
0
LINE
8
BLACK
6
CONTINUOUS
10
1.8769685039370079
20
1.3311057874015748
11
1.8770252362204725
21
1.3316818503937007
0
LINE
8
BLACK
6
CONTINUOUS
10
1.8770252362204725
20
1.3316818503937007
11
1.8774661417322833
21
1.3327462598425197
0
LINE
8
BLACK
6
CONTINUOUS
10
1.8774661417322833
20
1.3327462598425197
11
1.8782807874015748
21
1.3335609055118109
0
LINE
8
BLACK
6
CONTINUOUS
10
1.8782807874015748
20
1.3335609055118109
11
1.8793451968503936
21
1.334001811023622
0
LINE
8
BLACK
6
CONTINUOUS
10
1.8793451968503936
20
1.334001811023622
11
1.9171403149606299
21
1.3340544881889764
0
LINE
8
BLACK
6
CONTINUOUS
10
1.9171403149606299
20
1.3340544881889764
11
1.9171288188976376
21
1.3458808661417323
0
LINE
8
BLACK
6
CONTINUOUS
10
1.9171288188976376
20
1.3458808661417323
11
1.8651014566929134
21
1.3458701968503937
0
LINE
8
BLACK
6
CONTINUOUS
10
2.0828378740157478
20
1.328157125984252
11
2.0828711811023624
21
1.2938477559055117
0
LINE
8
BLACK
6
CONTINUOUS
10
2.0828711811023624
20
1.2938477559055117
11
2.1171777952755906
21
1.293881062992126
0
LINE
8
BLACK
6
CONTINUOUS
10
2.1171777952755906
20
1.293881062992126
11
2.11713
21
1.3282048818897638
0
LINE
8
BLACK
6
CONTINUOUS
10
2.11713
20
1.3282048818897638
11
2.0828378740157478
21
1.328157125984252
0
LINE
8
BLACK
6
CONTINUOUS
10
1.8828221653543307
20
1.3281570866141732
11
1.8828699212598425
21
1.2938649606299213
0
LINE
8
BLACK
6
CONTINUOUS
10
1.8828699212598425
20
1.2938649606299213
11
1.9171792913385826
21
1.2938982677165354
0
LINE
8
BLACK
6
CONTINUOUS
10
1.9171792913385826
20
1.2938982677165354
11
1.9171459842519685
21
1.3282048818897638
0
LINE
8
BLACK
6
CONTINUOUS
10
1.9171459842519685
20
1.3282048818897638
11
1.8828221653543307
21
1.3281570866141732
0
LINE
8
BLACK
6
CONTINUOUS
10
2.0828206299212599
20
1.3459149212598425
11
2.0828322047244092
21
1.3340066929133858
0
LINE
8
BLACK
6
CONTINUOUS
10
2.0828322047244092
20
1.3340066929133858
11
2.1200787401574801
21
1.3340585433070866
0
LINE
8
BLACK
6
CONTINUOUS
10
2.1200787401574801
20
1.3340585433070866
11
2.1206548031496064
21
1.334001811023622
0
LINE
8
BLACK
6
CONTINUOUS
10
2.1206548031496064
20
1.334001811023622
11
2.1217192125984252
21
1.3335609055118109
0
LINE
8
BLACK
6
CONTINUOUS
10
2.1217192125984252
20
1.3335609055118109
11
2.1225338582677167
21
1.3327462598425197
0
LINE
8
BLACK
6
CONTINUOUS
10
2.1225338582677167
20
1.3327462598425197
11
2.1229747637795273
21
1.3316818503937007
0
LINE
8
BLACK
6
CONTINUOUS
10
2.1229747637795273
20
1.3316818503937007
11
2.1230274015748032
21
1.2938867322834646
0
LINE
8
BLACK
6
CONTINUOUS
10
2.1230274015748032
20
1.2938867322834646
11
2.1348537795275591
21
1.2938982283464566
0
LINE
8
BLACK
6
CONTINUOUS
10
2.1348537795275591
20
1.2938982283464566
11
2.1348431102362206
21
1.3459255905511811
0
LINE
8
BLACK
6
CONTINUOUS
10
2.1348431102362206
20
1.3459255905511811
11
2.0828206299212599
21
1.3459149212598425
0
LINE
8
BLACK
6
CONTINUOUS
10
0.4134434251968504
20
1.7193135433070865
11
0.4267177559055118
21
1.7170581496062991
0
LINE
8
BLACK
6
CONTINUOUS
10
0.4267177559055118
20
1.7170581496062991
11
0.4396561023622047
21
1.7133306692913386
0
LINE
8
BLACK
6
CONTINUOUS
10
0.4396561023622047
20
1.7133306692913386
11
0.4520957874015748
21
1.7081779921259843
0
LINE
8
BLACK
6
CONTINUOUS
10
0.4520957874015748
20
1.7081779921259843
11
0.4638803149606299
21
1.7016649212598425
0
LINE
8
BLACK
6
CONTINUOUS
10
0.4638803149606299
20
1.7016649212598425
11
0.4748614960629921
21
1.6938733464566929
0
LINE
8
BLACK
6
CONTINUOUS
10
0.4748614960629921
20
1.6938733464566929
11
0.4849012598425197
21
1.6849012598425197
0
LINE
8
BLACK
6
CONTINUOUS
10
0.4849012598425197
20
1.6849012598425197
11
0.4938733464566929
21
1.6748614960629922
0
LINE
8
BLACK
6
CONTINUOUS
10
0.4938733464566929
20
1.6748614960629922
11
0.5016649212598425
21
1.6638803149606298
0
LINE
8
BLACK
6
CONTINUOUS
10
0.5016649212598425
20
1.6638803149606298
11
0.5081779921259842
21
1.6520957874015747
0
LINE
8
BLACK
6
CONTINUOUS
10
0.5081779921259842
20
1.6520957874015747
11
0.5133306692913385
21
1.6396561023622047
0
LINE
8
BLACK
6
CONTINUOUS
10
0.5133306692913385
20
1.6396561023622047
11
0.5170581496062993
21
1.6267177559055117
0
LINE
8
BLACK
6
CONTINUOUS
10
0.5170581496062993
20
1.6267177559055117
11
0.5193135433070866
21
1.6134434251968504
0
LINE
8
BLACK
6
CONTINUOUS
10
0.5193135433070866
20
1.6134434251968504
11
0.5200685039370079
21
1.5999999999999999
0
LINE
8
BLACK
6
CONTINUOUS
10
0.5200685039370079
20
1.5999999999999999
11
0.5193135433070866
21
1.5865565748031496
0
LINE
8
BLACK
6
CONTINUOUS
10
0.5193135433070866
20
1.5865565748031496
11
0.5170581496062993
21
1.5732822440944882
0
LINE
8
BLACK
6
CONTINUOUS
10
0.5170581496062993
20
1.5732822440944882
11
0.5133306692913385
21
1.5603438976377952
0
LINE
8
BLACK
6
CONTINUOUS
10
0.5133306692913385
20
1.5603438976377952
11
0.5081779921259842
21
1.5479042125984253
0
LINE
8
BLACK
6
CONTINUOUS
10
0.5081779921259842
20
1.5479042125984253
11
0.5016649212598425
21
1.5361196850393701
0
LINE
8
BLACK
6
CONTINUOUS
10
0.5016649212598425
20
1.5361196850393701
11
0.4938733464566929
21
1.5251385039370078
0
LINE
8
BLACK
6
CONTINUOUS
10
0.4938733464566929
20
1.5251385039370078
11
0.4849012598425197
21
1.5150987401574803
0
LINE
8
BLACK
6
CONTINUOUS
10
0.4849012598425197
20
1.5150987401574803
11
0.4748614960629921
21
1.5061266535433071
0
LINE
8
BLACK
6
CONTINUOUS
10
0.4748614960629921
20
1.5061266535433071
11
0.4638803149606299
21
1.4983350787401575
0
LINE
8
BLACK
6
CONTINUOUS
10
0.4638803149606299
20
1.4983350787401575
11
0.4520957874015748
21
1.4918220078740156
0
LINE
8
BLACK
6
CONTINUOUS
10
0.4520957874015748
20
1.4918220078740156
11
0.4396561023622047
21
1.4866693307086614
0
LINE
8
BLACK
6
CONTINUOUS
10
0.4396561023622047
20
1.4866693307086614
11
0.4267177559055118
21
1.4829418503937009
0
LINE
8
BLACK
6
CONTINUOUS
10
0.4267177559055118
20
1.4829418503937009
11
0.4134434251968504
21
1.4806864566929134
0
LINE
8
BLACK
6
CONTINUOUS
10
0.4134434251968504
20
1.4806864566929134
11
0.4
21
1.4799314960629921
0
LINE
8
BLACK
6
CONTINUOUS
10
0.4
20
1.4799314960629921
11
0.3865565748031496
21
1.4806864566929134
0
LINE
8
BLACK
6
CONTINUOUS
10
0.3865565748031496
20
1.4806864566929134
11
0.3732822440944882
21
1.4829418503937009
0
LINE
8
BLACK
6
CONTINUOUS
10
0.3732822440944882
20
1.4829418503937009
11
0.3603438976377953
21
1.4866693307086614
0
LINE
8
BLACK
6
CONTINUOUS
10
0.3603438976377953
20
1.4866693307086614
11
0.3479042125984252
21
1.4918220078740156
0
LINE
8
BLACK
6
CONTINUOUS
10
0.3479042125984252
20
1.4918220078740156
11
0.3361196850393701
21
1.4983350787401575
0
LINE
8
BLACK
6
CONTINUOUS
10
0.3361196850393701
20
1.4983350787401575
11
0.3251385039370079
21
1.5061266535433071
0
LINE
8
BLACK
6
CONTINUOUS
10
0.3251385039370079
20
1.5061266535433071
11
0.3150987401574803
21
1.5150987401574803
0
LINE
8
BLACK
6
CONTINUOUS
10
0.3150987401574803
20
1.5150987401574803
11
0.3061266535433071
21
1.5251385039370078
0
LINE
8
BLACK
6
CONTINUOUS
10
0.3061266535433071
20
1.5251385039370078
11
0.2983350787401575
21
1.5361196850393701
0
LINE
8
BLACK
6
CONTINUOUS
10
0.2983350787401575
20
1.5361196850393701
11
0.2918220078740157
21
1.5479042125984253
0
LINE
8
BLACK
6
CONTINUOUS
10
0.2918220078740157
20
1.5479042125984253
11
0.2866693307086614
21
1.5603438976377952
0
LINE
8
BLACK
6
CONTINUOUS
10
0.2866693307086614
20
1.5603438976377952
11
0.2829418503937008
21
1.5732822440944882
0
LINE
8
BLACK
6
CONTINUOUS
10
0.2829418503937008
20
1.5732822440944882
11
0.2806864566929134
21
1.5865565748031496
0
LINE
8
BLACK
6
CONTINUOUS
10
0.2806864566929134
20
1.5865565748031496
11
0.2799314960629921
21
1.5999999999999999
0
LINE
8
BLACK
6
CONTINUOUS
10
0.2799314960629921
20
1.5999999999999999
11
0.2806864566929134
21
1.6134434251968504
0
LINE
8
BLACK
6
CONTINUOUS
10
0.2806864566929134
20
1.6134434251968504
11
0.2829418503937008
21
1.6267177559055117
0
LINE
8
BLACK
6
CONTINUOUS
10
0.2829418503937008
20
1.6267177559055117
11
0.2866693307086614
21
1.6396561023622047
0
LINE
8
BLACK
6
CONTINUOUS
10
0.2866693307086614
20
1.6396561023622047
11
0.2918220078740157
21
1.6520957874015747
0
LINE
8
BLACK
6
CONTINUOUS
10
0.2918220078740157
20
1.6520957874015747
11
0.2983350787401575
21
1.6638803149606298
0
LINE
8
BLACK
6
CONTINUOUS
10
0.2983350787401575
20
1.6638803149606298
11
0.3061266535433071
21
1.6748614960629922
0
LINE
8
BLACK
6
CONTINUOUS
10
0.3061266535433071
20
1.6748614960629922
11
0.3150987401574803
21
1.6849012598425197
0
LINE
8
BLACK
6
CONTINUOUS
10
0.3150987401574803
20
1.6849012598425197
11
0.3251385039370079
21
1.6938733464566929
0
LINE
8
BLACK
6
CONTINUOUS
10
0.3251385039370079
20
1.6938733464566929
11
0.3361196850393701
21
1.7016649212598425
0
LINE
8
BLACK
6
CONTINUOUS
10
0.3361196850393701
20
1.7016649212598425
11
0.3479042125984252
21
1.7081779921259843
0
LINE
8
BLACK
6
CONTINUOUS
10
0.3479042125984252
20
1.7081779921259843
11
0.3603438976377953
21
1.7133306692913386
0
LINE
8
BLACK
6
CONTINUOUS
10
0.3603438976377953
20
1.7133306692913386
11
0.3732822440944882
21
1.7170581496062991
0
LINE
8
BLACK
6
CONTINUOUS
10
0.3732822440944882
20
1.7170581496062991
11
0.3865565748031496
21
1.7193135433070865
0
LINE
8
BLACK
6
CONTINUOUS
10
0.3865565748031496
20
1.7193135433070865
11
0.4
21
1.7200685039370078
0
LINE
8
BLACK
6
CONTINUOUS
10
0.4
20
1.7200685039370078
11
0.4134434251968504
21
1.7193135433070865
0
LINE
8
BLACK
6
CONTINUOUS
10
0.2844582677165354
20
1.5864951181102362
11
0.2868073228346457
21
1.5731728346456693
0
LINE
8
BLACK
6
CONTINUOUS
10
0.2868073228346457
20
1.5731728346456693
11
0.2906871653543307
21
1.5602133858267717
0
LINE
8
BLACK
6
CONTINUOUS
10
0.2906871653543307
20
1.5602133858267717
11
0.2960452362204724
21
1.547791968503937
0
LINE
8
BLACK
6
CONTINUOUS
10
0.2960452362204724
20
1.547791968503937
11
0.3028091338582677
21
1.5360765354330708
0
LINE
8
BLACK
6
CONTINUOUS
10
0.3028091338582677
20
1.5360765354330708
11
0.3108873622047244
21
1.5252255905511811
0
LINE
8
BLACK
6
CONTINUOUS
10
0.3108873622047244
20
1.5252255905511811
11
0.3201706692913386
21
1.5153858661417323
0
LINE
8
BLACK
6
CONTINUOUS
10
0.3201706692913386
20
1.5153858661417323
11
0.3305335433070866
21
1.5066903543307086
0
LINE
8
BLACK
6
CONTINUOUS
10
0.3305335433070866
20
1.5066903543307086
11
0.3418358267716535
21
1.4992567322834645
0
LINE
8
BLACK
6
CONTINUOUS
10
0.3418358267716535
20
1.4992567322834645
11
0.3539247244094488
21
1.4931854724409448
0
LINE
8
BLACK
6
CONTINUOUS
10
0.3539247244094488
20
1.4931854724409448
11
0.3666366535433071
21
1.4885587007874015
0
LINE
8
BLACK
6
CONTINUOUS
10
0.3666366535433071
20
1.4885587007874015
11
0.3797998031496063
21
1.4854389763779527
0
LINE
8
BLACK
6
CONTINUOUS
10
0.3797998031496063
20
1.4854389763779527
11
0.3932361023622047
21
1.4838685039370079
0
LINE
8
BLACK
6
CONTINUOUS
10
0.3932361023622047
20
1.4838685039370079
11
0.4067638976377952
21
1.4838685039370079
0
LINE
8
BLACK
6
CONTINUOUS
10
0.4067638976377952
20
1.4838685039370079
11
0.4202001968503937
21
1.4854389763779527
0
LINE
8
BLACK
6
CONTINUOUS
10
0.4202001968503937
20
1.4854389763779527
11
0.4333633464566929
21
1.4885587007874015
0
LINE
8
BLACK
6
CONTINUOUS
10
0.4333633464566929
20
1.4885587007874015
11
0.4460752755905512
21
1.4931854724409448
0
LINE
8
BLACK
6
CONTINUOUS
10
0.4460752755905512
20
1.4931854724409448
11
0.4581641732283465
21
1.4992567322834645
0
LINE
8
BLACK
6
CONTINUOUS
10
0.4581641732283465
20
1.4992567322834645
11
0.4694664566929134
21
1.5066903543307086
0
LINE
8
BLACK
6
CONTINUOUS
10
0.4694664566929134
20
1.5066903543307086
11
0.4798293307086614
21
1.5153858661417323
0
LINE
8
BLACK
6
CONTINUOUS
10
0.4798293307086614
20
1.5153858661417323
11
0.4891126377952756
21
1.5252255905511811
0
LINE
8
BLACK
6
CONTINUOUS
10
0.4891126377952756
20
1.5252255905511811
11
0.4971908661417322
21
1.5360765354330708
0
LINE
8
BLACK
6
CONTINUOUS
10
0.4971908661417322
20
1.5360765354330708
11
0.5039547637795275
21
1.547791968503937
0
LINE
8
BLACK
6
CONTINUOUS
10
0.5039547637795275
20
1.547791968503937
11
0.5093128346456692
21
1.5602133858267717
0
LINE
8
BLACK
6
CONTINUOUS
10
0.5093128346456692
20
1.5602133858267717
11
0.5131926771653543
21
1.5731728346456693
0
LINE
8
BLACK
6
CONTINUOUS
10
0.5131926771653543
20
1.5731728346456693
11
0.5155417322834646
21
1.5864951181102362
0
LINE
8
BLACK
6
CONTINUOUS
10
0.5155417322834646
20
1.5864951181102362
11
0.5163283070866141
21
1.5999999999999999
0
LINE
8
BLACK
6
CONTINUOUS
10
0.5163283070866141
20
1.5999999999999999
11
0.5155417322834646
21
1.6135048818897637
0
LINE
8
BLACK
6
CONTINUOUS
10
0.5155417322834646
20
1.6135048818897637
11
0.5131926771653543
21
1.6268271653543307
0
LINE
8
BLACK
6
CONTINUOUS
10
0.5131926771653543
20
1.6268271653543307
11
0.5093128346456692
21
1.6397866141732282
0
LINE
8
BLACK
6
CONTINUOUS
10
0.5093128346456692
20
1.6397866141732282
11
0.5039547637795275
21
1.652208031496063
0
LINE
8
BLACK
6
CONTINUOUS
10
0.5039547637795275
20
1.652208031496063
11
0.4971908661417322
21
1.6639234645669292
0
LINE
8
BLACK
6
CONTINUOUS
10
0.4971908661417322
20
1.6639234645669292
11
0.4891126377952756
21
1.6747744094488188
0
LINE
8
BLACK
6
CONTINUOUS
10
0.4891126377952756
20
1.6747744094488188
11
0.4798293307086614
21
1.6846141338582676
0
LINE
8
BLACK
6
CONTINUOUS
10
0.4798293307086614
20
1.6846141338582676
11
0.4694664566929134
21
1.6933096456692913
0
LINE
8
BLACK
6
CONTINUOUS
10
0.4694664566929134
20
1.6933096456692913
11
0.4581641732283465
21
1.7007432677165355
0
LINE
8
BLACK
6
CONTINUOUS
10
0.4581641732283465
20
1.7007432677165355
11
0.4460752755905512
21
1.7068145275590552
0
LINE
8
BLACK
6
CONTINUOUS
10
0.4460752755905512
20
1.7068145275590552
11
0.4333633464566929
21
1.7114412992125985
0
LINE
8
BLACK
6
CONTINUOUS
10
0.4333633464566929
20
1.7114412992125985
11
0.4202001968503937
21
1.7145610236220472
0
LINE
8
BLACK
6
CONTINUOUS
10
0.4202001968503937
20
1.7145610236220472
11
0.4067638976377952
21
1.7161314960629921
0
LINE
8
BLACK
6
CONTINUOUS
10
0.4067638976377952
20
1.7161314960629921
11
0.3932361023622047
21
1.7161314960629921
0
LINE
8
BLACK
6
CONTINUOUS
10
0.3932361023622047
20
1.7161314960629921
11
0.3797998031496063
21
1.7145610236220472
0
LINE
8
BLACK
6
CONTINUOUS
10
0.3797998031496063
20
1.7145610236220472
11
0.3666366535433071
21
1.7114412992125985
0
LINE
8
BLACK
6
CONTINUOUS
10
0.3666366535433071
20
1.7114412992125985
11
0.3539247244094488
21
1.7068145275590552
0
LINE
8
BLACK
6
CONTINUOUS
10
0.3539247244094488
20
1.7068145275590552
11
0.3418358267716535
21
1.7007432677165355
0
LINE
8
BLACK
6
CONTINUOUS
10
0.3418358267716535
20
1.7007432677165355
11
0.3305335433070866
21
1.6933096456692913
0
LINE
8
BLACK
6
CONTINUOUS
10
0.3305335433070866
20
1.6933096456692913
11
0.3201706692913386
21
1.6846141338582676
0
LINE
8
BLACK
6
CONTINUOUS
10
0.3201706692913386
20
1.6846141338582676
11
0.3108873622047244
21
1.6747744094488188
0
LINE
8
BLACK
6
CONTINUOUS
10
0.3108873622047244
20
1.6747744094488188
11
0.3028091338582677
21
1.6639234645669292
0
LINE
8
BLACK
6
CONTINUOUS
10
0.3028091338582677
20
1.6639234645669292
11
0.2960452362204724
21
1.652208031496063
0
LINE
8
BLACK
6
CONTINUOUS
10
0.2960452362204724
20
1.652208031496063
11
0.2906871653543307
21
1.6397866141732282
0
LINE
8
BLACK
6
CONTINUOUS
10
0.2906871653543307
20
1.6397866141732282
11
0.2868073228346457
21
1.6268271653543307
0
LINE
8
BLACK
6
CONTINUOUS
10
0.2868073228346457
20
1.6268271653543307
11
0.2844582677165354
21
1.6135048818897637
0
LINE
8
BLACK
6
CONTINUOUS
10
0.2844582677165354
20
1.6135048818897637
11
0.2836716929133858
21
1.5999999999999999
0
LINE
8
BLACK
6
CONTINUOUS
10
0.2836716929133858
20
1.5999999999999999
11
0.2844582677165354
21
1.5864951181102362
0
LINE
8
BLACK
6
CONTINUOUS
10
2.0134434251968503
20
1.7193135433070865
11
2.0267177559055116
21
1.7170581496062991
0
LINE
8
BLACK
6
CONTINUOUS
10
2.0267177559055116
20
1.7170581496062991
11
2.0396561023622048
21
1.7133306692913386
0
LINE
8
BLACK
6
CONTINUOUS
10
2.0396561023622048
20
1.7133306692913386
11
2.0520957874015746
21
1.7081779921259843
0
LINE
8
BLACK
6
CONTINUOUS
10
2.0520957874015746
20
1.7081779921259843
11
2.0638803149606297
21
1.7016649212598425
0
LINE
8
BLACK
6
CONTINUOUS
10
2.0638803149606297
20
1.7016649212598425
11
2.0748614960629919
21
1.6938733464566929
0
LINE
8
BLACK
6
CONTINUOUS
10
2.0748614960629919
20
1.6938733464566929
11
2.0849012598425198
21
1.6849012598425197
0
LINE
8
BLACK
6
CONTINUOUS
10
2.0849012598425198
20
1.6849012598425197
11
2.093873346456693
21
1.6748614960629922
0
LINE
8
BLACK
6
CONTINUOUS
10
2.093873346456693
20
1.6748614960629922
11
2.1016649212598426
21
1.6638803149606298
0
LINE
8
BLACK
6
CONTINUOUS
10
2.1016649212598426
20
1.6638803149606298
11
2.108177992125984
21
1.6520957874015747
0
LINE
8
BLACK
6
CONTINUOUS
10
2.108177992125984
20
1.6520957874015747
11
2.1133306692913387
21
1.6396561023622047
0
LINE
8
BLACK
6
CONTINUOUS
10
2.1133306692913387
20
1.6396561023622047
11
2.117058149606299
21
1.6267177559055117
0
LINE
8
BLACK
6
CONTINUOUS
10
2.117058149606299
20
1.6267177559055117
11
2.1193135433070864
21
1.6134434251968504
0
LINE
8
BLACK
6
CONTINUOUS
10
2.1193135433070864
20
1.6134434251968504
11
2.120068503937008
21
1.5999999999999999
0
LINE
8
BLACK
6
CONTINUOUS
10
2.120068503937008
20
1.5999999999999999
11
2.1193135433070864
21
1.5865565748031496
0
LINE
8
BLACK
6
CONTINUOUS
10
2.1193135433070864
20
1.5865565748031496
11
2.117058149606299
21
1.5732822440944882
0
LINE
8
BLACK
6
CONTINUOUS
10
2.117058149606299
20
1.5732822440944882
11
2.1133306692913387
21
1.5603438976377952
0
LINE
8
BLACK
6
CONTINUOUS
10
2.1133306692913387
20
1.5603438976377952
11
2.108177992125984
21
1.5479042125984253
0
LINE
8
BLACK
6
CONTINUOUS
10
2.108177992125984
20
1.5479042125984253
11
2.1016649212598426
21
1.5361196850393701
0
LINE
8
BLACK
6
CONTINUOUS
10
2.1016649212598426
20
1.5361196850393701
11
2.093873346456693
21
1.5251385039370078
0
LINE
8
BLACK
6
CONTINUOUS
10
2.093873346456693
20
1.5251385039370078
11
2.0849012598425198
21
1.5150987401574803
0
LINE
8
BLACK
6
CONTINUOUS
10
2.0849012598425198
20
1.5150987401574803
11
2.0748614960629919
21
1.5061266535433071
0
LINE
8
BLACK
6
CONTINUOUS
10
2.0748614960629919
20
1.5061266535433071
11
2.0638803149606297
21
1.4983350787401575
0
LINE
8
BLACK
6
CONTINUOUS
10
2.0638803149606297
20
1.4983350787401575
11
2.0520957874015746
21
1.4918220078740156
0
LINE
8
BLACK
6
CONTINUOUS
10
2.0520957874015746
20
1.4918220078740156
11
2.0396561023622048
21
1.4866693307086614
0
LINE
8
BLACK
6
CONTINUOUS
10
2.0396561023622048
20
1.4866693307086614
11
2.0267177559055116
21
1.4829418503937009
0
LINE
8
BLACK
6
CONTINUOUS
10
2.0267177559055116
20
1.4829418503937009
11
2.0134434251968503
21
1.4806864566929134
0
LINE
8
BLACK
6
CONTINUOUS
10
2.0134434251968503
20
1.4806864566929134
11
2.
21
1.4799314960629921
0
LINE
8
BLACK
6
CONTINUOUS
10
2.
20
1.4799314960629921
11
1.9865565748031495
21
1.4806864566929134
0
LINE
8
BLACK
6
CONTINUOUS
10
1.9865565748031495
20
1.4806864566929134
11
1.9732822440944882
21
1.4829418503937009
0
LINE
8
BLACK
6
CONTINUOUS
10
1.9732822440944882
20
1.4829418503937009
11
1.9603438976377952
21
1.4866693307086614
0
LINE
8
BLACK
6
CONTINUOUS
10
1.9603438976377952
20
1.4866693307086614
11
1.9479042125984252
21
1.4918220078740156
0
LINE
8
BLACK
6
CONTINUOUS
10
1.9479042125984252
20
1.4918220078740156
11
1.93611968503937
21
1.4983350787401575
0
LINE
8
BLACK
6
CONTINUOUS
10
1.93611968503937
20
1.4983350787401575
11
1.9251385039370079
21
1.5061266535433071
0
LINE
8
BLACK
6
CONTINUOUS
10
1.9251385039370079
20
1.5061266535433071
11
1.9150987401574802
21
1.5150987401574803
0
LINE
8
BLACK
6
CONTINUOUS
10
1.9150987401574802
20
1.5150987401574803
11
1.906126653543307
21
1.5251385039370078
0
LINE
8
BLACK
6
CONTINUOUS
10
1.906126653543307
20
1.5251385039370078
11
1.8983350787401574
21
1.5361196850393701
0
LINE
8
BLACK
6
CONTINUOUS
10
1.8983350787401574
20
1.5361196850393701
11
1.8918220078740158
21
1.5479042125984253
0
LINE
8
BLACK
6
CONTINUOUS
10
1.8918220078740158
20
1.5479042125984253
11
1.8866693307086613
21
1.5603438976377952
0
LINE
8
BLACK
6
CONTINUOUS
10
1.8866693307086613
20
1.5603438976377952
11
1.8829418503937008
21
1.5732822440944882
0
LINE
8
BLACK
6
CONTINUOUS
10
1.8829418503937008
20
1.5732822440944882
11
1.8806864566929133
21
1.5865565748031496
0
LINE
8
BLACK
6
CONTINUOUS
10
1.8806864566929133
20
1.5865565748031496
11
1.879931496062992
21
1.5999999999999999
0
LINE
8
BLACK
6
CONTINUOUS
10
1.879931496062992
20
1.5999999999999999
11
1.8806864566929133
21
1.6134434251968504
0
LINE
8
BLACK
6
CONTINUOUS
10
1.8806864566929133
20
1.6134434251968504
11
1.8829418503937008
21
1.6267177559055117
0
LINE
8
BLACK
6
CONTINUOUS
10
1.8829418503937008
20
1.6267177559055117
11
1.8866693307086613
21
1.6396561023622047
0
LINE
8
BLACK
6
CONTINUOUS
10
1.8866693307086613
20
1.6396561023622047
11
1.8918220078740158
21
1.6520957874015747
0
LINE
8
BLACK
6
CONTINUOUS
10
1.8918220078740158
20
1.6520957874015747
11
1.8983350787401574
21
1.6638803149606298
0
LINE
8
BLACK
6
CONTINUOUS
10
1.8983350787401574
20
1.6638803149606298
11
1.906126653543307
21
1.6748614960629922
0
LINE
8
BLACK
6
CONTINUOUS
10
1.906126653543307
20
1.6748614960629922
11
1.9150987401574802
21
1.6849012598425197
0
LINE
8
BLACK
6
CONTINUOUS
10
1.9150987401574802
20
1.6849012598425197
11
1.9251385039370079
21
1.6938733464566929
0
LINE
8
BLACK
6
CONTINUOUS
10
1.9251385039370079
20
1.6938733464566929
11
1.93611968503937
21
1.7016649212598425
0
LINE
8
BLACK
6
CONTINUOUS
10
1.93611968503937
20
1.7016649212598425
11
1.9479042125984252
21
1.7081779921259843
0
LINE
8
BLACK
6
CONTINUOUS
10
1.9479042125984252
20
1.7081779921259843
11
1.9603438976377952
21
1.7133306692913386
0
LINE
8
BLACK
6
CONTINUOUS
10
1.9603438976377952
20
1.7133306692913386
11
1.9732822440944882
21
1.7170581496062991
0
LINE
8
BLACK
6
CONTINUOUS
10
1.9732822440944882
20
1.7170581496062991
11
1.9865565748031495
21
1.7193135433070865
0
LINE
8
BLACK
6
CONTINUOUS
10
1.9865565748031495
20
1.7193135433070865
11
2.
21
1.7200685039370078
0
LINE
8
BLACK
6
CONTINUOUS
10
2.
20
1.7200685039370078
11
2.0134434251968503
21
1.7193135433070865
0
LINE
8
BLACK
6
CONTINUOUS
10
1.8844582677165354
20
1.5864951181102362
11
1.8868073228346456
21
1.5731728346456693
0
LINE
8
BLACK
6
CONTINUOUS
10
1.8868073228346456
20
1.5731728346456693
11
1.8906871653543307
21
1.5602133858267717
0
LINE
8
BLACK
6
CONTINUOUS
10
1.8906871653543307
20
1.5602133858267717
11
1.8960452362204725
21
1.547791968503937
0
LINE
8
BLACK
6
CONTINUOUS
10
1.8960452362204725
20
1.547791968503937
11
1.9028091338582678
21
1.5360765354330708
0
LINE
8
BLACK
6
CONTINUOUS
10
1.9028091338582678
20
1.5360765354330708
11
1.9108873622047244
21
1.5252255905511811
0
LINE
8
BLACK
6
CONTINUOUS
10
1.9108873622047244
20
1.5252255905511811
11
1.9201706692913385
21
1.5153858661417323
0
LINE
8
BLACK
6
CONTINUOUS
10
1.9201706692913385
20
1.5153858661417323
11
1.9305335433070865
21
1.5066903543307086
0
LINE
8
BLACK
6
CONTINUOUS
10
1.9305335433070865
20
1.5066903543307086
11
1.9418358267716536
21
1.4992567322834645
0
LINE
8
BLACK
6
CONTINUOUS
10
1.9418358267716536
20
1.4992567322834645
11
1.9539247244094489
21
1.4931854724409448
0
LINE
8
BLACK
6
CONTINUOUS
10
1.9539247244094489
20
1.4931854724409448
11
1.9666366535433071
21
1.4885587007874015
0
LINE
8
BLACK
6
CONTINUOUS
10
1.9666366535433071
20
1.4885587007874015
11
1.9797998031496062
21
1.4854389763779527
0
LINE
8
BLACK
6
CONTINUOUS
10
1.9797998031496062
20
1.4854389763779527
11
1.9932361023622047
21
1.4838685039370079
0
LINE
8
BLACK
6
CONTINUOUS
10
1.9932361023622047
20
1.4838685039370079
11
2.0067638976377951
21
1.4838685039370079
0
LINE
8
BLACK
6
CONTINUOUS
10
2.0067638976377951
20
1.4838685039370079
11
2.0202001968503938
21
1.4854389763779527
0
LINE
8
BLACK
6
CONTINUOUS
10
2.0202001968503938
20
1.4854389763779527
11
2.0333633464566927
21
1.4885587007874015
0
LINE
8
BLACK
6
CONTINUOUS
10
2.0333633464566927
20
1.4885587007874015
11
2.0460752755905509
21
1.4931854724409448
0
LINE
8
BLACK
6
CONTINUOUS
10
2.0460752755905509
20
1.4931854724409448
11
2.0581641732283464
21
1.4992567322834645
0
LINE
8
BLACK
6
CONTINUOUS
10
2.0581641732283464
20
1.4992567322834645
11
2.0694664566929135
21
1.5066903543307086
0
LINE
8
BLACK
6
CONTINUOUS
10
2.0694664566929135
20
1.5066903543307086
11
2.0798293307086615
21
1.5153858661417323
0
LINE
8
BLACK
6
CONTINUOUS
10
2.0798293307086615
20
1.5153858661417323
11
2.0891126377952753
21
1.5252255905511811
0
LINE
8
BLACK
6
CONTINUOUS
10
2.0891126377952753
20
1.5252255905511811
11
2.0971908661417324
21
1.5360765354330708
0
LINE
8
BLACK
6
CONTINUOUS
10
2.0971908661417324
20
1.5360765354330708
11
2.1039547637795275
21
1.547791968503937
0
LINE
8
BLACK
6
CONTINUOUS
10
2.1039547637795275
20
1.547791968503937
11
2.1093128346456691
21
1.5602133858267717
0
LINE
8
BLACK
6
CONTINUOUS
10
2.1093128346456691
20
1.5602133858267717
11
2.1131926771653542
21
1.5731728346456693
0
LINE
8
BLACK
6
CONTINUOUS
10
2.1131926771653542
20
1.5731728346456693
11
2.1155417322834644
21
1.5864951181102362
0
LINE
8
BLACK
6
CONTINUOUS
10
2.1155417322834644
20
1.5864951181102362
11
2.1163283070866141
21
1.5999999999999999
0
LINE
8
BLACK
6
CONTINUOUS
10
2.1163283070866141
20
1.5999999999999999
11
2.1155417322834644
21
1.6135048818897637
0
LINE
8
BLACK
6
CONTINUOUS
10
2.1155417322834644
20
1.6135048818897637
11
2.1131926771653542
21
1.6268271653543307
0
LINE
8
BLACK
6
CONTINUOUS
10
2.1131926771653542
20
1.6268271653543307
11
2.1093128346456691
21
1.6397866141732282
0
LINE
8
BLACK
6
CONTINUOUS
10
2.1093128346456691
20
1.6397866141732282
11
2.1039547637795275
21
1.652208031496063
0
LINE
8
BLACK
6
CONTINUOUS
10
2.1039547637795275
20
1.652208031496063
11
2.0971908661417324
21
1.6639234645669292
0
LINE
8
BLACK
6
CONTINUOUS
10
2.0971908661417324
20
1.6639234645669292
11
2.0891126377952753
21
1.6747744094488188
0
LINE
8
BLACK
6
CONTINUOUS
10
2.0891126377952753
20
1.6747744094488188
11
2.0798293307086615
21
1.6846141338582676
0
LINE
8
BLACK
6
CONTINUOUS
10
2.0798293307086615
20
1.6846141338582676
11
2.0694664566929135
21
1.6933096456692913
0
LINE
8
BLACK
6
CONTINUOUS
10
2.0694664566929135
20
1.6933096456692913
11
2.0581641732283464
21
1.7007432677165355
0
LINE
8
BLACK
6
CONTINUOUS
10
2.0581641732283464
20
1.7007432677165355
11
2.0460752755905509
21
1.7068145275590552
0
LINE
8
BLACK
6
CONTINUOUS
10
2.0460752755905509
20
1.7068145275590552
11
2.0333633464566927
21
1.7114412992125985
0
LINE
8
BLACK
6
CONTINUOUS
10
2.0333633464566927
20
1.7114412992125985
11
2.0202001968503938
21
1.7145610236220472
0
LINE
8
BLACK
6
CONTINUOUS
10
2.0202001968503938
20
1.7145610236220472
11
2.0067638976377951
21
1.7161314960629921
0
LINE
8
BLACK
6
CONTINUOUS
10
2.0067638976377951
20
1.7161314960629921
11
1.9932361023622047
21
1.7161314960629921
0
LINE
8
BLACK
6
CONTINUOUS
10
1.9932361023622047
20
1.7161314960629921
11
1.9797998031496062
21
1.7145610236220472
0
LINE
8
BLACK
6
CONTINUOUS
10
1.9797998031496062
20
1.7145610236220472
11
1.9666366535433071
21
1.7114412992125985
0
LINE
8
BLACK
6
CONTINUOUS
10
1.9666366535433071
20
1.7114412992125985
11
1.9539247244094489
21
1.7068145275590552
0
LINE
8
BLACK
6
CONTINUOUS
10
1.9539247244094489
20
1.7068145275590552
11
1.9418358267716536
21
1.7007432677165355
0
LINE
8
BLACK
6
CONTINUOUS
10
1.9418358267716536
20
1.7007432677165355
11
1.9305335433070865
21
1.6933096456692913
0
LINE
8
BLACK
6
CONTINUOUS
10
1.9305335433070865
20
1.6933096456692913
11
1.9201706692913385
21
1.6846141338582676
0
LINE
8
BLACK
6
CONTINUOUS
10
1.9201706692913385
20
1.6846141338582676
11
1.9108873622047244
21
1.6747744094488188
0
LINE
8
BLACK
6
CONTINUOUS
10
1.9108873622047244
20
1.6747744094488188
11
1.9028091338582678
21
1.6639234645669292
0
LINE
8
BLACK
6
CONTINUOUS
10
1.9028091338582678
20
1.6639234645669292
11
1.8960452362204725
21
1.652208031496063
0
LINE
8
BLACK
6
CONTINUOUS
10
1.8960452362204725
20
1.652208031496063
11
1.8906871653543307
21
1.6397866141732282
0
LINE
8
BLACK
6
CONTINUOUS
10
1.8906871653543307
20
1.6397866141732282
11
1.8868073228346456
21
1.6268271653543307
0
LINE
8
BLACK
6
CONTINUOUS
10
1.8868073228346456
20
1.6268271653543307
11
1.8844582677165354
21
1.6135048818897637
0
LINE
8
BLACK
6
CONTINUOUS
10
1.8844582677165354
20
1.6135048818897637
11
1.8836716929133859
21
1.5999999999999999
0
LINE
8
BLACK
6
CONTINUOUS
10
1.8836716929133859
20
1.5999999999999999
11
1.8844582677165354
21
1.5864951181102362
0
LINE
8
BLACK
6
CONTINUOUS
10
1.100576062992126
20
1.7079231496062992
11
1.1016404724409448
21
1.7074822440944881
0
LINE
8
BLACK
6
CONTINUOUS
10
1.1016404724409448
20
1.7074822440944881
11
1.1024551181102362
21
1.7066675984251969
0
LINE
8
BLACK
6
CONTINUOUS
10
1.1024551181102362
20
1.7066675984251969
11
1.1028960236220473
21
1.7056031889763779
0
LINE
8
BLACK
6
CONTINUOUS
10
1.1028960236220473
20
1.7056031889763779
11
1.1029527559055119
21
1.505027125984252
0
LINE
8
BLACK
6
CONTINUOUS
10
1.1029527559055119
20
1.505027125984252
11
1.1028960236220473
21
1.5044510629921259
0
LINE
8
BLACK
6
CONTINUOUS
10
1.1028960236220473
20
1.5044510629921259
11
1.1024551181102362
21
1.5033866535433071
0
LINE
8
BLACK
6
CONTINUOUS
10
1.1024551181102362
20
1.5033866535433071
11
1.1016404724409448
21
1.5025720078740157
0
LINE
8
BLACK
6
CONTINUOUS
10
1.1016404724409448
20
1.5025720078740157
11
1.100576062992126
21
1.5021311023622046
0
LINE
8
BLACK
6
CONTINUOUS
10
1.100576062992126
20
1.5021311023622046
11
1.
21
1.5020743700787402
0
LINE
8
BLACK
6
CONTINUOUS
10
1.
20
1.5020743700787402
11
0.9997043307086614
21
1.5021035039370079
0
LINE
8
BLACK
6
CONTINUOUS
10
0.9997043307086614
20
1.5021035039370079
11
0.9
21
1.5020472440944881
0
LINE
8
BLACK
6
CONTINUOUS
10
0.9
20
1.5020472440944881
11
0.8994304724409449
21
1.5021033464566929
0
LINE
8
BLACK
6
CONTINUOUS
10
0.8994304724409449
20
1.5021033464566929
11
0.7999999999999999
21
1.5020472440944881
0
LINE
8
BLACK
6
CONTINUOUS
10
0.7999999999999999
20
1.5020472440944881
11
0.7994304724409449
21
1.5021033464566929
0
LINE
8
BLACK
6
CONTINUOUS
10
0.7994304724409449
20
1.5021033464566929
11
0.7
21
1.5020472440944881
0
LINE
8
BLACK
6
CONTINUOUS
10
0.7
20
1.5020472440944881
11
0.6994304724409449
21
1.5021033464566929
0
LINE
8
BLACK
6
CONTINUOUS
10
0.6994304724409449
20
1.5021033464566929
11
0.6
21
1.5020472440944881
0
LINE
8
BLACK
6
CONTINUOUS
10
0.6
20
1.5020472440944881
11
0.599423937007874
21
1.5021039763779527
0
LINE
8
BLACK
6
CONTINUOUS
10
0.599423937007874
20
1.5021039763779527
11
0.5983595275590551
21
1.5025448818897638
0
LINE
8
BLACK
6
CONTINUOUS
10
0.5983595275590551
20
1.5025448818897638
11
0.5975448818897637
21
1.503359527559055
0
LINE
8
BLACK
6
CONTINUOUS
10
0.5975448818897637
20
1.503359527559055
11
0.5971039763779528
21
1.504423937007874
0
LINE
8
BLACK
6
CONTINUOUS
10
0.5971039763779528
20
1.504423937007874
11
0.5971039763779528
21
1.5044510629921259
0
LINE
8
BLACK
6
CONTINUOUS
10
0.5971039763779528
20
1.5044510629921259
11
0.5970472440944882
21
1.7050000000000001
0
LINE
8
BLACK
6
CONTINUOUS
10
0.5970472440944882
20
1.7050000000000001
11
0.5971039763779528
21
1.7055760629921259
0
LINE
8
BLACK
6
CONTINUOUS
10
0.5971039763779528
20
1.7055760629921259
11
0.5975448818897637
21
1.7066404724409447
0
LINE
8
BLACK
6
CONTINUOUS
10
0.5975448818897637
20
1.7066404724409447
11
0.5983595275590551
21
1.7074551181102362
0
LINE
8
BLACK
6
CONTINUOUS
10
0.5983595275590551
20
1.7074551181102362
11
0.599423937007874
21
1.7078960236220473
0
LINE
8
BLACK
6
CONTINUOUS
10
0.599423937007874
20
1.7078960236220473
11
0.7
21
1.7079527559055119
0
LINE
8
BLACK
6
CONTINUOUS
10
0.7
20
1.7079527559055119
11
0.7005694881889764
21
1.7078966929133859
0
LINE
8
BLACK
6
CONTINUOUS
10
0.7005694881889764
20
1.7078966929133859
11
0.7999999999999999
21
1.7079527559055119
0
LINE
8
BLACK
6
CONTINUOUS
10
0.7999999999999999
20
1.7079527559055119
11
0.8005694881889763
21
1.7078966929133859
0
LINE
8
BLACK
6
CONTINUOUS
10
0.8005694881889763
20
1.7078966929133859
11
0.9
21
1.7079527559055119
0
LINE
8
BLACK
6
CONTINUOUS
10
0.9
20
1.7079527559055119
11
0.9005694881889763
21
1.7078966929133859
0
LINE
8
BLACK
6
CONTINUOUS
10
0.9005694881889763
20
1.7078966929133859
11
1.
21
1.7079527559055119
0
LINE
8
BLACK
6
CONTINUOUS
10
1.
20
1.7079527559055119
11
1.0002956299212598
21
1.7079236614173228
0
LINE
8
BLACK
6
CONTINUOUS
10
1.0002956299212598
20
1.7079236614173228
11
1.0999999999999999
21
1.7079798818897638
0
LINE
8
BLACK
6
CONTINUOUS
10
1.0999999999999999
20
1.7079798818897638
11
1.100576062992126
21
1.7079231496062992
0
LINE
8
BLACK
6
CONTINUOUS
10
0.6028970078740158
20
1.7020488976377952
11
0.6029519291338582
21
1.5078980314960631
0
LINE
8
BLACK
6
CONTINUOUS
10
0.6029519291338582
20
1.5078980314960631
11
0.6971029527559055
21
1.5079511417322835
0
LINE
8
BLACK
6
CONTINUOUS
10
0.6971029527559055
20
1.5079511417322835
11
0.697048031496063
21
1.7021020078740157
0
LINE
8
BLACK
6
CONTINUOUS
10
0.697048031496063
20
1.7021020078740157
11
0.6028970078740158
21
1.7020488976377952
0
LINE
8
BLACK
6
CONTINUOUS
10
0.7028970078740158
20
1.7020488976377952
11
0.7029519291338583
21
1.5078980314960631
0
LINE
8
BLACK
6
CONTINUOUS
10
0.7029519291338583
20
1.5078980314960631
11
0.7971029527559055
21
1.5079511417322835
0
LINE
8
BLACK
6
CONTINUOUS
10
0.7971029527559055
20
1.5079511417322835
11
0.797048031496063
21
1.7021020078740157
0
LINE
8
BLACK
6
CONTINUOUS
10
0.797048031496063
20
1.7021020078740157
11
0.7028970078740158
21
1.7020488976377952
0
LINE
8
BLACK
6
CONTINUOUS
10
0.8028970078740157
20
1.7020488976377952
11
0.8029519291338583
21
1.5078980314960631
0
LINE
8
BLACK
6
CONTINUOUS
10
0.8029519291338583
20
1.5078980314960631
11
0.8971029527559055
21
1.5079511417322835
0
LINE
8
BLACK
6
CONTINUOUS
10
0.8971029527559055
20
1.5079511417322835
11
0.8970480314960629
21
1.7021020078740157
0
LINE
8
BLACK
6
CONTINUOUS
10
0.8970480314960629
20
1.7021020078740157
11
0.8028970078740157
21
1.7020488976377952
0
LINE
8
BLACK
6
CONTINUOUS
10
0.9028970078740157
20
1.7020488976377952
11
0.9029519291338582
21
1.5078980314960631
0
LINE
8
BLACK
6
CONTINUOUS
10
0.9029519291338582
20
1.5078980314960631
11
0.9971029527559054
21
1.5079511417322835
0
LINE
8
BLACK
6
CONTINUOUS
10
0.9971029527559054
20
1.5079511417322835
11
0.9970480314960629
21
1.7021020078740157
0
LINE
8
BLACK
6
CONTINUOUS
10
0.9970480314960629
20
1.7021020078740157
11
0.9028970078740157
21
1.7020488976377952
0
LINE
8
BLACK
6
CONTINUOUS
10
1.0028970078740158
20
1.7020760236220471
11
1.0029519291338582
21
1.507925157480315
0
LINE
8
BLACK
6
CONTINUOUS
10
1.0029519291338582
20
1.507925157480315
11
1.0971029527559055
21
1.5079782677165354
0
LINE
8
BLACK
6
CONTINUOUS
10
1.0971029527559055
20
1.5079782677165354
11
1.0970480314960629
21
1.7021291338582676
0
LINE
8
BLACK
6
CONTINUOUS
10
1.0970480314960629
20
1.7021291338582676
11
1.0028970078740158
21
1.7020760236220471
0
LINE
8
BLACK
6
CONTINUOUS
10
1.6164544881889764
20
1.568918937007874
11
1.6338321653543306
21
1.5516020078740158
0
LINE
8
BLACK
6
CONTINUOUS
10
1.6338321653543306
20
1.5516020078740158
11
1.6338853543307086
21
1.551562125984252
0
LINE
8
BLACK
6
CONTINUOUS
10
1.6338853543307086
20
1.551562125984252
11
1.6339042519685039
21
1.5515301968503936
0
LINE
8
BLACK
6
CONTINUOUS
10
1.6339042519685039
20
1.5515301968503936
11
1.6343802755905512
21
1.5510558267716534
0
LINE
8
BLACK
6
CONTINUOUS
10
1.6343802755905512
20
1.5510558267716534
11
1.6343584251968504
21
1.5664638188976379
0
LINE
8
BLACK
6
CONTINUOUS
10
1.6343584251968504
20
1.5664638188976379
11
1.634415157480315
21
1.5670398818897637
0
LINE
8
BLACK
6
CONTINUOUS
10
1.634415157480315
20
1.5670398818897637
11
1.634856062992126
21
1.5681042913385825
0
LINE
8
BLACK
6
CONTINUOUS
10
1.634856062992126
20
1.5681042913385825
11
1.6356707086614173
21
1.568918937007874
0
LINE
8
BLACK
6
CONTINUOUS
10
1.6356707086614173
20
1.568918937007874
11
1.6367351181102361
21
1.5693598425196851
0
LINE
8
BLACK
6
CONTINUOUS
10
1.6367351181102361
20
1.5693598425196851
11
1.637887244094488
21
1.5693598425196851
0
LINE
8
BLACK
6
CONTINUOUS
10
1.637887244094488
20
1.5693598425196851
11
1.6389516535433071
21
1.568918937007874
0
LINE
8
BLACK
6
CONTINUOUS
10
1.6389516535433071
20
1.568918937007874
11
1.6397662992125983
21
1.5681042913385825
0
LINE
8
BLACK
6
CONTINUOUS
10
1.6397662992125983
20
1.5681042913385825
11
1.6402072047244094
21
1.5670398818897637
0
LINE
8
BLACK
6
CONTINUOUS
10
1.6402072047244094
20
1.5670398818897637
11
1.640263937007874
21
1.5270937401574802
0
LINE
8
BLACK
6
CONTINUOUS
10
1.640263937007874
20
1.5270937401574802
11
1.6402072047244094
21
1.5265176771653544
0
LINE
8
BLACK
6
CONTINUOUS
10
1.6402072047244094
20
1.5265176771653544
11
1.6397662992125983
21
1.5254532677165353
0
LINE
8
BLACK
6
CONTINUOUS
10
1.6397662992125983
20
1.5254532677165353
11
1.6389516535433071
21
1.5246386220472441
0
LINE
8
BLACK
6
CONTINUOUS
10
1.6389516535433071
20
1.5246386220472441
11
1.637887244094488
21
1.524197716535433
0
LINE
8
BLACK
6
CONTINUOUS
10
1.637887244094488
20
1.524197716535433
11
1.6367351181102361
21
1.524197716535433
0
LINE
8
BLACK
6
CONTINUOUS
10
1.6367351181102361
20
1.524197716535433
11
1.6356707086614173
21
1.5246386220472441
0
LINE
8
BLACK
6
CONTINUOUS
10
1.6356707086614173
20
1.5246386220472441
11
1.634856062992126
21
1.5254532677165353
0
LINE
8
BLACK
6
CONTINUOUS
10
1.634856062992126
20
1.5254532677165353
11
1.634415157480315
21
1.5265176771653544
0
LINE
8
BLACK
6
CONTINUOUS
10
1.634415157480315
20
1.5265176771653544
11
1.6343920472440945
21
1.5427857480314959
0
LINE
8
BLACK
6
CONTINUOUS
10
1.6343920472440945
20
1.5427857480314959
11
1.6320002755905512
21
1.5451691338582676
0
LINE
8
BLACK
6
CONTINUOUS
10
1.6320002755905512
20
1.5451691338582676
11
1.6171762204724409
21
1.5253220866141732
0
LINE
8
BLACK
6
CONTINUOUS
10
1.6171762204724409
20
1.5253220866141732
11
1.6167851968503937
21
1.5248952755905512
0
LINE
8
BLACK
6
CONTINUOUS
10
1.6167851968503937
20
1.5248952755905512
11
1.6157938188976377
21
1.5243083070866141
0
LINE
8
BLACK
6
CONTINUOUS
10
1.6157938188976377
20
1.5243083070866141
11
1.614653307086614
21
1.5241453543307086
0
LINE
8
BLACK
6
CONTINUOUS
10
1.614653307086614
20
1.5241453543307086
11
1.6135372440944882
21
1.5244312992125983
0
LINE
8
BLACK
6
CONTINUOUS
10
1.6135372440944882
20
1.5244312992125983
11
1.6126155511811022
21
1.5251225590551181
0
LINE
8
BLACK
6
CONTINUOUS
10
1.6126155511811022
20
1.5251225590551181
11
1.6120285826771654
21
1.526113937007874
0
LINE
8
BLACK
6
CONTINUOUS
10
1.6120285826771654
20
1.526113937007874
11
1.6118656299212597
21
1.5272544488188975
0
LINE
8
BLACK
6
CONTINUOUS
10
1.6118656299212597
20
1.5272544488188975
11
1.6121515748031496
21
1.5283705118110236
0
LINE
8
BLACK
6
CONTINUOUS
10
1.6121515748031496
20
1.5283705118110236
11
1.6278142913385827
21
1.5493404724409447
0
LINE
8
BLACK
6
CONTINUOUS
10
1.6278142913385827
20
1.5493404724409447
11
1.6127261023622046
21
1.5643759055118109
0
LINE
8
BLACK
6
CONTINUOUS
10
1.6127261023622046
20
1.5643759055118109
11
1.6123588976377952
21
1.564823346456693
0
LINE
8
BLACK
6
CONTINUOUS
10
1.6123588976377952
20
1.564823346456693
11
1.6119179921259843
21
1.5658877952755905
0
LINE
8
BLACK
6
CONTINUOUS
10
1.6119179921259843
20
1.5658877952755905
11
1.6119179921259843
21
1.567039842519685
0
LINE
8
BLACK
6
CONTINUOUS
10
1.6119179921259843
20
1.567039842519685
11
1.6123588976377952
21
1.5681042913385825
0
LINE
8
BLACK
6
CONTINUOUS
10
1.6123588976377952
20
1.5681042913385825
11
1.6131735433070866
21
1.568918937007874
0
LINE
8
BLACK
6
CONTINUOUS
10
1.6131735433070866
20
1.568918937007874
11
1.6142379921259842
21
1.5693598425196851
0
LINE
8
BLACK
6
CONTINUOUS
10
1.6142379921259842
20
1.5693598425196851
11
1.6153900393700786
21
1.5693598425196851
0
LINE
8
BLACK
6
CONTINUOUS
10
1.6153900393700786
20
1.5693598425196851
11
1.6164544881889764
21
1.568918937007874
0
LINE
8
BLACK
6
CONTINUOUS
10
1.6154977952755905
20
1.7299504330708662
11
1.6328754724409449
21
1.7126335039370078
0
LINE
8
BLACK
6
CONTINUOUS
10
1.6328754724409449
20
1.7126335039370078
11
1.6329286614173228
21
1.712593622047244
0
LINE
8
BLACK
6
CONTINUOUS
10
1.6329286614173228
20
1.712593622047244
11
1.6329475590551181
21
1.7125616929133858
0
LINE
8
BLACK
6
CONTINUOUS
10
1.6329475590551181
20
1.7125616929133858
11
1.6334235826771653
21
1.7120873228346456
0
LINE
8
BLACK
6
CONTINUOUS
10
1.6334235826771653
20
1.7120873228346456
11
1.6334017322834646
21
1.7274953149606298
0
LINE
8
BLACK
6
CONTINUOUS
10
1.6334017322834646
20
1.7274953149606298
11
1.633458464566929
21
1.7280713779527559
0
LINE
8
BLACK
6
CONTINUOUS
10
1.633458464566929
20
1.7280713779527559
11
1.6338993700787401
21
1.7291357874015747
0
LINE
8
BLACK
6
CONTINUOUS
10
1.6338993700787401
20
1.7291357874015747
11
1.6347140157480315
21
1.7299504330708662
0
LINE
8
BLACK
6
CONTINUOUS
10
1.6347140157480315
20
1.7299504330708662
11
1.6357784251968503
21
1.730391338582677
0
LINE
8
BLACK
6
CONTINUOUS
10
1.6357784251968503
20
1.730391338582677
11
1.6369305511811023
21
1.730391338582677
0
LINE
8
BLACK
6
CONTINUOUS
10
1.6369305511811023
20
1.730391338582677
11
1.6379949606299211
21
1.7299504330708662
0
LINE
8
BLACK
6
CONTINUOUS
10
1.6379949606299211
20
1.7299504330708662
11
1.6388096062992126
21
1.7291357874015747
0
LINE
8
BLACK
6
CONTINUOUS
10
1.6388096062992126
20
1.7291357874015747
11
1.6392505118110237
21
1.7280713779527559
0
LINE
8
BLACK
6
CONTINUOUS
10
1.6392505118110237
20
1.7280713779527559
11
1.6393072440944882
21
1.6881252362204724
0
LINE
8
BLACK
6
CONTINUOUS
10
1.6393072440944882
20
1.6881252362204724
11
1.6392505118110237
21
1.6875491732283465
0
LINE
8
BLACK
6
CONTINUOUS
10
1.6392505118110237
20
1.6875491732283465
11
1.6388096062992126
21
1.6864847637795275
0
LINE
8
BLACK
6
CONTINUOUS
10
1.6388096062992126
20
1.6864847637795275
11
1.6379949606299211
21
1.6856701181102363
0
LINE
8
BLACK
6
CONTINUOUS
10
1.6379949606299211
20
1.6856701181102363
11
1.6369305511811023
21
1.6852292125984252
0
LINE
8
BLACK
6
CONTINUOUS
10
1.6369305511811023
20
1.6852292125984252
11
1.6357784251968503
21
1.6852292125984252
0
LINE
8
BLACK
6
CONTINUOUS
10
1.6357784251968503
20
1.6852292125984252
11
1.6347140157480315
21
1.6856701181102363
0
LINE
8
BLACK
6
CONTINUOUS
10
1.6347140157480315
20
1.6856701181102363
11
1.6338993700787401
21
1.6864847637795275
0
LINE
8
BLACK
6
CONTINUOUS
10
1.6338993700787401
20
1.6864847637795275
11
1.633458464566929
21
1.6875491732283465
0
LINE
8
BLACK
6
CONTINUOUS
10
1.633458464566929
20
1.6875491732283465
11
1.6334353543307085
21
1.7038172440944881
0
LINE
8
BLACK
6
CONTINUOUS
10
1.6334353543307085
20
1.7038172440944881
11
1.6310435826771654
21
1.7062006299212598
0
LINE
8
BLACK
6
CONTINUOUS
10
1.6310435826771654
20
1.7062006299212598
11
1.6162195275590552
21
1.6863535826771654
0
LINE
8
BLACK
6
CONTINUOUS
10
1.6162195275590552
20
1.6863535826771654
11
1.6158285039370079
21
1.6859267716535433
0
LINE
8
BLACK
6
CONTINUOUS
10
1.6158285039370079
20
1.6859267716535433
11
1.614837125984252
21
1.6853398031496063
0
LINE
8
BLACK
6
CONTINUOUS
10
1.614837125984252
20
1.6853398031496063
11
1.6136966141732283
21
1.6851768503937008
0
LINE
8
BLACK
6
CONTINUOUS
10
1.6136966141732283
20
1.6851768503937008
11
1.6125805511811022
21
1.6854627952755905
0
LINE
8
BLACK
6
CONTINUOUS
10
1.6125805511811022
20
1.6854627952755905
11
1.6116588582677165
21
1.6861540551181102
0
LINE
8
BLACK
6
CONTINUOUS
10
1.6116588582677165
20
1.6861540551181102
11
1.6110718897637795
21
1.6871454330708662
0
LINE
8
BLACK
6
CONTINUOUS
10
1.6110718897637795
20
1.6871454330708662
11
1.610908937007874
21
1.6882859448818897
0
LINE
8
BLACK
6
CONTINUOUS
10
1.610908937007874
20
1.6882859448818897
11
1.6111948818897637
21
1.6894020078740157
0
LINE
8
BLACK
6
CONTINUOUS
10
1.6111948818897637
20
1.6894020078740157
11
1.6268575984251967
21
1.7103719685039369
0
LINE
8
BLACK
6
CONTINUOUS
10
1.6268575984251967
20
1.7103719685039369
11
1.6117694094488189
21
1.7254074015748031
0
LINE
8
BLACK
6
CONTINUOUS
10
1.6117694094488189
20
1.7254074015748031
11
1.6114022047244094
21
1.7258548425196849
0
LINE
8
BLACK
6
CONTINUOUS
10
1.6114022047244094
20
1.7258548425196849
11
1.6109612992125983
21
1.7269192913385827
0
LINE
8
BLACK
6
CONTINUOUS
10
1.6109612992125983
20
1.7269192913385827
11
1.6109612992125983
21
1.7280713385826771
0
LINE
8
BLACK
6
CONTINUOUS
10
1.6109612992125983
20
1.7280713385826771
11
1.6114022047244094
21
1.7291357874015747
0
LINE
8
BLACK
6
CONTINUOUS
10
1.6114022047244094
20
1.7291357874015747
11
1.6122168503937007
21
1.7299504330708662
0
LINE
8
BLACK
6
CONTINUOUS
10
1.6122168503937007
20
1.7299504330708662
11
1.6132812992125984
21
1.730391338582677
0
LINE
8
BLACK
6
CONTINUOUS
10
1.6132812992125984
20
1.730391338582677
11
1.6144333464566929
21
1.730391338582677
0
LINE
8
BLACK
6
CONTINUOUS
10
1.6144333464566929
20
1.730391338582677
11
1.6154977952755905
21
1.7299504330708662
  0
ENDSEC
  0
EOF
