  0
SECTION
  2
HEADER
  9
$ANGBASE
  50
0.0
  9
$ANGDIR
  70
1
  9
$MEASUREMENT
  70
0
  0
ENDSEC
  0
SECTION
  2
TABLES
  0
TABLE
  2
LTYPE
  70
4
  0
LTYPE
  5
40F
  2
CONTINUOUS
  70
0
  3
Solid line
  72
65
  73
0
  40
0.0
  0
LTYPE
  5
410
  2
DASHDOT
 70
0
  3
Dash Dot ____ _ ____ _
 72
65
 73
4
 40
2.0
 49
1.25
 49
-0.25
 49
0.25
 49
-0.25
  0
LTYPE
  5
411
  2
DASHED
 70
0
  3
Dashed __ __ __ __ __
 72
65
 73
2
 40
0.75
 49
0.5
 49
-0.25
  0
LTYPE
  5
43B
  2
DOTTED
 70
0
  3
Dotted .  .  .  .
 72
65
 73
2
 40
0.2
 49
0.0
 49
-0.2
  0
ENDTAB
  0
TABLE
  2
STYLE
  70
4
  0
STYLE
  2
KICAD
  70
0
  40
0
  41
1
  42
1
  50
0
  71
0
  3
isocp.shx
  0
STYLE
  2
KICADB
  70
0
  40
0
  41
1
  42
1
  50
0
  71
0
  3
isocp.shx
  0
STYLE
  2
KICADI
  70
0
  40
0
  41
1
  42
1
  50
15
  71
0
  3
isocp.shx
  0
STYLE
  2
KICADBI
  70
0
  40
0
  41
1
  42
1
  50
15
  71
0
  3
isocp.shx
  0
ENDTAB
  0
TABLE
  2
LAYER
  70
1
  0
LAYER
  2
BLACK
  70
0
  62
7
  6
CONTINUOUS
  0
ENDTAB
  0
ENDSEC
  0
SECTION
  2
ENTITIES
0
LINE
8
BLACK
6
CONTINUOUS
10
0.4205096456692913
20
0.5163158661417323
11
0.4338744094488189
21
0.5131483858267717
0
LINE
8
BLACK
6
CONTINUOUS
10
0.4338744094488189
20
0.5131483858267717
11
0.446781062992126
21
0.5084507086614173
0
LINE
8
BLACK
6
CONTINUOUS
10
0.446781062992126
20
0.5084507086614173
11
0.4590551181102362
21
0.5022864566929134
0
LINE
8
BLACK
6
CONTINUOUS
10
0.4590551181102362
20
0.5022864566929134
11
0.4705305511811024
21
0.4947389763779527
0
LINE
8
BLACK
6
CONTINUOUS
10
0.4705305511811024
20
0.4947389763779527
11
0.4810521653543307
21
0.4859102755905512
0
LINE
8
BLACK
6
CONTINUOUS
10
0.4810521653543307
20
0.4859102755905512
11
0.4904776771653543
21
0.4759198031496063
0
LINE
8
BLACK
6
CONTINUOUS
10
0.4904776771653543
20
0.4759198031496063
11
0.4986796456692913
21
0.4649026377952756
0
LINE
8
BLACK
6
CONTINUOUS
10
0.4986796456692913
20
0.4649026377952756
11
0.5055471653543308
21
0.4530077952755905
0
LINE
8
BLACK
6
CONTINUOUS
10
0.5055471653543308
20
0.4530077952755905
11
0.5109873228346457
21
0.440396062992126
0
LINE
8
BLACK
6
CONTINUOUS
10
0.5109873228346457
20
0.440396062992126
11
0.5149265748031496
21
0.4272381102362204
0
LINE
8
BLACK
6
CONTINUOUS
10
0.5149265748031496
20
0.4272381102362204
11
0.5173116141732284
21
0.4137117716535433
0
LINE
8
BLACK
6
CONTINUOUS
10
0.5173116141732284
20
0.4137117716535433
11
0.5181102362204725
21
0.4
0
LINE
8
BLACK
6
CONTINUOUS
10
0.5181102362204725
20
0.4
11
0.5173116141732284
21
0.3862882283464567
0
LINE
8
BLACK
6
CONTINUOUS
10
0.5173116141732284
20
0.3862882283464567
11
0.5149265748031496
21
0.3727618897637795
0
LINE
8
BLACK
6
CONTINUOUS
10
0.5149265748031496
20
0.3727618897637795
11
0.5109873228346457
21
0.359603937007874
0
LINE
8
BLACK
6
CONTINUOUS
10
0.5109873228346457
20
0.359603937007874
11
0.5055471653543308
21
0.3469922047244094
0
LINE
8
BLACK
6
CONTINUOUS
10
0.5055471653543308
20
0.3469922047244094
11
0.4986796456692913
21
0.3350973622047244
0
LINE
8
BLACK
6
CONTINUOUS
10
0.4986796456692913
20
0.3350973622047244
11
0.4904776771653543
21
0.3240801968503937
0
LINE
8
BLACK
6
CONTINUOUS
10
0.4904776771653543
20
0.3240801968503937
11
0.4810521653543307
21
0.3140897244094488
0
LINE
8
BLACK
6
CONTINUOUS
10
0.4810521653543307
20
0.3140897244094488
11
0.4705305511811024
21
0.3052610236220472
0
LINE
8
BLACK
6
CONTINUOUS
10
0.4705305511811024
20
0.3052610236220472
11
0.4590551181102362
21
0.2977135433070866
0
LINE
8
BLACK
6
CONTINUOUS
10
0.4590551181102362
20
0.2977135433070866
11
0.446781062992126
21
0.2915492913385827
0
LINE
8
BLACK
6
CONTINUOUS
10
0.446781062992126
20
0.2915492913385827
11
0.4338744094488189
21
0.2868516141732284
0
LINE
8
BLACK
6
CONTINUOUS
10
0.4338744094488189
20
0.2868516141732284
11
0.4205096456692913
21
0.2836841338582677
0
LINE
8
BLACK
6
CONTINUOUS
10
0.4205096456692913
20
0.2836841338582677
11
0.4068674803149606
21
0.2820896062992126
0
LINE
8
BLACK
6
CONTINUOUS
10
0.4068674803149606
20
0.2820896062992126
11
0.3931325196850394
21
0.2820896062992126
0
LINE
8
BLACK
6
CONTINUOUS
10
0.3931325196850394
20
0.2820896062992126
11
0.3794903543307087
21
0.2836841338582677
0
LINE
8
BLACK
6
CONTINUOUS
10
0.3794903543307087
20
0.2836841338582677
11
0.3661255905511811
21
0.2868516141732284
0
LINE
8
BLACK
6
CONTINUOUS
10
0.3661255905511811
20
0.2868516141732284
11
0.353218937007874
21
0.2915492913385827
0
LINE
8
BLACK
6
CONTINUOUS
10
0.353218937007874
20
0.2915492913385827
11
0.3409448818897638
21
0.2977135433070866
0
LINE
8
BLACK
6
CONTINUOUS
10
0.3409448818897638
20
0.2977135433070866
11
0.3294694488188976
21
0.3052610236220472
0
LINE
8
BLACK
6
CONTINUOUS
10
0.3294694488188976
20
0.3052610236220472
11
0.3189478346456693
21
0.3140897244094488
0
LINE
8
BLACK
6
CONTINUOUS
10
0.3189478346456693
20
0.3140897244094488
11
0.3095223228346456
21
0.3240801968503937
0
LINE
8
BLACK
6
CONTINUOUS
10
0.3095223228346456
20
0.3240801968503937
11
0.3013203543307086
21
0.3350973622047244
0
LINE
8
BLACK
6
CONTINUOUS
10
0.3013203543307086
20
0.3350973622047244
11
0.2944528346456693
21
0.3469922047244094
0
LINE
8
BLACK
6
CONTINUOUS
10
0.2944528346456693
20
0.3469922047244094
11
0.2890126771653543
21
0.359603937007874
0
LINE
8
BLACK
6
CONTINUOUS
10
0.2890126771653543
20
0.359603937007874
11
0.2850734251968504
21
0.3727618897637795
0
LINE
8
BLACK
6
CONTINUOUS
10
0.2850734251968504
20
0.3727618897637795
11
0.2826883858267716
21
0.3862882283464567
0
LINE
8
BLACK
6
CONTINUOUS
10
0.2826883858267716
20
0.3862882283464567
11
0.2818897637795276
21
0.4
0
LINE
8
BLACK
6
CONTINUOUS
10
0.2818897637795276
20
0.4
11
0.2826883858267716
21
0.4137117716535433
0
LINE
8
BLACK
6
CONTINUOUS
10
0.2826883858267716
20
0.4137117716535433
11
0.2850734251968504
21
0.4272381102362204
0
LINE
8
BLACK
6
CONTINUOUS
10
0.2850734251968504
20
0.4272381102362204
11
0.2890126771653543
21
0.440396062992126
0
LINE
8
BLACK
6
CONTINUOUS
10
0.2890126771653543
20
0.440396062992126
11
0.2944528346456693
21
0.4530077952755905
0
LINE
8
BLACK
6
CONTINUOUS
10
0.2944528346456693
20
0.4530077952755905
11
0.3013203543307086
21
0.4649026377952756
0
LINE
8
BLACK
6
CONTINUOUS
10
0.3013203543307086
20
0.4649026377952756
11
0.3095223228346456
21
0.4759198031496063
0
LINE
8
BLACK
6
CONTINUOUS
10
0.3095223228346456
20
0.4759198031496063
11
0.3189478346456693
21
0.4859102755905512
0
LINE
8
BLACK
6
CONTINUOUS
10
0.3189478346456693
20
0.4859102755905512
11
0.3294694488188976
21
0.4947389763779527
0
LINE
8
BLACK
6
CONTINUOUS
10
0.3294694488188976
20
0.4947389763779527
11
0.3409448818897638
21
0.5022864566929134
0
LINE
8
BLACK
6
CONTINUOUS
10
0.3409448818897638
20
0.5022864566929134
11
0.353218937007874
21
0.5084507086614173
0
LINE
8
BLACK
6
CONTINUOUS
10
0.353218937007874
20
0.5084507086614173
11
0.3661255905511811
21
0.5131483858267717
0
LINE
8
BLACK
6
CONTINUOUS
10
0.3661255905511811
20
0.5131483858267717
11
0.3794903543307087
21
0.5163158661417323
0
LINE
8
BLACK
6
CONTINUOUS
10
0.3794903543307087
20
0.5163158661417323
11
0.3931325196850394
21
0.5179103937007874
0
LINE
8
BLACK
6
CONTINUOUS
10
0.3931325196850394
20
0.5179103937007874
11
0.4068674803149606
21
0.5179103937007874
0
LINE
8
BLACK
6
CONTINUOUS
10
0.4068674803149606
20
0.5179103937007874
11
0.4205096456692913
21
0.5163158661417323
0
LINE
8
BLACK
6
CONTINUOUS
10
2.0205096456692915
20
0.5163158661417323
11
2.0338744094488188
21
0.5131483858267717
0
LINE
8
BLACK
6
CONTINUOUS
10
2.0338744094488188
20
0.5131483858267717
11
2.0467810629921259
21
0.5084507086614173
0
LINE
8
BLACK
6
CONTINUOUS
10
2.0467810629921259
20
0.5084507086614173
11
2.0590551181102361
21
0.5022864566929134
0
LINE
8
BLACK
6
CONTINUOUS
10
2.0590551181102361
20
0.5022864566929134
11
2.0705305511811023
21
0.4947389763779527
0
LINE
8
BLACK
6
CONTINUOUS
10
2.0705305511811023
20
0.4947389763779527
11
2.0810521653543308
21
0.4859102755905512
0
LINE
8
BLACK
6
CONTINUOUS
10
2.0810521653543308
20
0.4859102755905512
11
2.0904776771653544
21
0.4759198031496063
0
LINE
8
BLACK
6
CONTINUOUS
10
2.0904776771653544
20
0.4759198031496063
11
2.0986796456692911
21
0.4649026377952756
0
LINE
8
BLACK
6
CONTINUOUS
10
2.0986796456692911
20
0.4649026377952756
11
2.1055471653543307
21
0.4530077952755905
0
LINE
8
BLACK
6
CONTINUOUS
10
2.1055471653543307
20
0.4530077952755905
11
2.1109873228346454
21
0.440396062992126
0
LINE
8
BLACK
6
CONTINUOUS
10
2.1109873228346454
20
0.440396062992126
11
2.1149265748031496
21
0.4272381102362204
0
LINE
8
BLACK
6
CONTINUOUS
10
2.1149265748031496
20
0.4272381102362204
11
2.1173116141732282
21
0.4137117716535433
0
LINE
8
BLACK
6
CONTINUOUS
10
2.1173116141732282
20
0.4137117716535433
11
2.1181102362204722
21
0.4
0
LINE
8
BLACK
6
CONTINUOUS
10
2.1181102362204722
20
0.4
11
2.1173116141732282
21
0.3862882283464567
0
LINE
8
BLACK
6
CONTINUOUS
10
2.1173116141732282
20
0.3862882283464567
11
2.1149265748031496
21
0.3727618897637795
0
LINE
8
BLACK
6
CONTINUOUS
10
2.1149265748031496
20
0.3727618897637795
11
2.1109873228346454
21
0.359603937007874
0
LINE
8
BLACK
6
CONTINUOUS
10
2.1109873228346454
20
0.359603937007874
11
2.1055471653543307
21
0.3469922047244094
0
LINE
8
BLACK
6
CONTINUOUS
10
2.1055471653543307
20
0.3469922047244094
11
2.0986796456692911
21
0.3350973622047244
0
LINE
8
BLACK
6
CONTINUOUS
10
2.0986796456692911
20
0.3350973622047244
11
2.0904776771653544
21
0.3240801968503937
0
LINE
8
BLACK
6
CONTINUOUS
10
2.0904776771653544
20
0.3240801968503937
11
2.0810521653543308
21
0.3140897244094488
0
LINE
8
BLACK
6
CONTINUOUS
10
2.0810521653543308
20
0.3140897244094488
11
2.0705305511811023
21
0.3052610236220472
0
LINE
8
BLACK
6
CONTINUOUS
10
2.0705305511811023
20
0.3052610236220472
11
2.0590551181102361
21
0.2977135433070866
0
LINE
8
BLACK
6
CONTINUOUS
10
2.0590551181102361
20
0.2977135433070866
11
2.0467810629921259
21
0.2915492913385827
0
LINE
8
BLACK
6
CONTINUOUS
10
2.0467810629921259
20
0.2915492913385827
11
2.0338744094488188
21
0.2868516141732284
0
LINE
8
BLACK
6
CONTINUOUS
10
2.0338744094488188
20
0.2868516141732284
11
2.0205096456692915
21
0.2836841338582677
0
LINE
8
BLACK
6
CONTINUOUS
10
2.0205096456692915
20
0.2836841338582677
11
2.0068674803149604
21
0.2820896062992126
0
LINE
8
BLACK
6
CONTINUOUS
10
2.0068674803149604
20
0.2820896062992126
11
1.9931325196850393
21
0.2820896062992126
0
LINE
8
BLACK
6
CONTINUOUS
10
1.9931325196850393
20
0.2820896062992126
11
1.9794903543307085
21
0.2836841338582677
0
LINE
8
BLACK
6
CONTINUOUS
10
1.9794903543307085
20
0.2836841338582677
11
1.966125590551181
21
0.2868516141732284
0
LINE
8
BLACK
6
CONTINUOUS
10
1.966125590551181
20
0.2868516141732284
11
1.9532189370078741
21
0.2915492913385827
0
LINE
8
BLACK
6
CONTINUOUS
10
1.9532189370078741
20
0.2915492913385827
11
1.9409448818897637
21
0.2977135433070866
0
LINE
8
BLACK
6
CONTINUOUS
10
1.9409448818897637
20
0.2977135433070866
11
1.9294694488188977
21
0.3052610236220472
0
LINE
8
BLACK
6
CONTINUOUS
10
1.9294694488188977
20
0.3052610236220472
11
1.9189478346456692
21
0.3140897244094488
0
LINE
8
BLACK
6
CONTINUOUS
10
1.9189478346456692
20
0.3140897244094488
11
1.9095223228346456
21
0.3240801968503937
0
LINE
8
BLACK
6
CONTINUOUS
10
1.9095223228346456
20
0.3240801968503937
11
1.9013203543307087
21
0.3350973622047244
0
LINE
8
BLACK
6
CONTINUOUS
10
1.9013203543307087
20
0.3350973622047244
11
1.8944528346456693
21
0.3469922047244094
0
LINE
8
BLACK
6
CONTINUOUS
10
1.8944528346456693
20
0.3469922047244094
11
1.8890126771653544
21
0.359603937007874
0
LINE
8
BLACK
6
CONTINUOUS
10
1.8890126771653544
20
0.359603937007874
11
1.8850734251968504
21
0.3727618897637795
0
LINE
8
BLACK
6
CONTINUOUS
10
1.8850734251968504
20
0.3727618897637795
11
1.8826883858267716
21
0.3862882283464567
0
LINE
8
BLACK
6
CONTINUOUS
10
1.8826883858267716
20
0.3862882283464567
11
1.8818897637795275
21
0.4
0
LINE
8
BLACK
6
CONTINUOUS
10
1.8818897637795275
20
0.4
11
1.8826883858267716
21
0.4137117716535433
0
LINE
8
BLACK
6
CONTINUOUS
10
1.8826883858267716
20
0.4137117716535433
11
1.8850734251968504
21
0.4272381102362204
0
LINE
8
BLACK
6
CONTINUOUS
10
1.8850734251968504
20
0.4272381102362204
11
1.8890126771653544
21
0.440396062992126
0
LINE
8
BLACK
6
CONTINUOUS
10
1.8890126771653544
20
0.440396062992126
11
1.8944528346456693
21
0.4530077952755905
0
LINE
8
BLACK
6
CONTINUOUS
10
1.8944528346456693
20
0.4530077952755905
11
1.9013203543307087
21
0.4649026377952756
0
LINE
8
BLACK
6
CONTINUOUS
10
1.9013203543307087
20
0.4649026377952756
11
1.9095223228346456
21
0.4759198031496063
0
LINE
8
BLACK
6
CONTINUOUS
10
1.9095223228346456
20
0.4759198031496063
11
1.9189478346456692
21
0.4859102755905512
0
LINE
8
BLACK
6
CONTINUOUS
10
1.9189478346456692
20
0.4859102755905512
11
1.9294694488188977
21
0.4947389763779527
0
LINE
8
BLACK
6
CONTINUOUS
10
1.9294694488188977
20
0.4947389763779527
11
1.9409448818897637
21
0.5022864566929134
0
LINE
8
BLACK
6
CONTINUOUS
10
1.9409448818897637
20
0.5022864566929134
11
1.9532189370078741
21
0.5084507086614173
0
LINE
8
BLACK
6
CONTINUOUS
10
1.9532189370078741
20
0.5084507086614173
11
1.966125590551181
21
0.5131483858267717
0
LINE
8
BLACK
6
CONTINUOUS
10
1.966125590551181
20
0.5131483858267717
11
1.9794903543307085
21
0.5163158661417323
0
LINE
8
BLACK
6
CONTINUOUS
10
1.9794903543307085
20
0.5163158661417323
11
1.9931325196850393
21
0.5179103937007874
0
LINE
8
BLACK
6
CONTINUOUS
10
1.9931325196850393
20
0.5179103937007874
11
2.0068674803149604
21
0.5179103937007874
0
LINE
8
BLACK
6
CONTINUOUS
10
2.0068674803149604
20
0.5179103937007874
11
2.0205096456692915
21
0.5163158661417323
0
LINE
8
BLACK
6
CONTINUOUS
10
0.7985433070866141
20
0.3705314960629921
11
0.7385433070866142
21
0.3705314960629921
0
LINE
8
BLACK
6
CONTINUOUS
10
0.7385433070866142
20
0.3705314960629921
11
0.7385433070866142
21
0.4305314960629921
0
LINE
8
BLACK
6
CONTINUOUS
10
0.7385433070866142
20
0.4305314960629921
11
0.7985433070866141
21
0.4305314960629921
0
LINE
8
BLACK
6
CONTINUOUS
10
0.7985433070866141
20
0.4305314960629921
11
0.7985433070866141
21
0.3705314960629921
0
LINE
8
BLACK
6
CONTINUOUS
10
0.8985433070866141
20
0.3705314960629921
11
0.8385433070866142
21
0.3705314960629921
0
LINE
8
BLACK
6
CONTINUOUS
10
0.8385433070866142
20
0.3705314960629921
11
0.8385433070866142
21
0.4305314960629921
0
LINE
8
BLACK
6
CONTINUOUS
10
0.8385433070866142
20
0.4305314960629921
11
0.8985433070866141
21
0.4305314960629921
0
LINE
8
BLACK
6
CONTINUOUS
10
0.8985433070866141
20
0.4305314960629921
11
0.8985433070866141
21
0.3705314960629921
0
LINE
8
BLACK
6
CONTINUOUS
10
0.9985433070866141
20
0.3705314960629921
11
0.9385433070866142
21
0.3705314960629921
0
LINE
8
BLACK
6
CONTINUOUS
10
0.9385433070866142
20
0.3705314960629921
11
0.9385433070866142
21
0.4305314960629921
0
LINE
8
BLACK
6
CONTINUOUS
10
0.9385433070866142
20
0.4305314960629921
11
0.9985433070866141
21
0.4305314960629921
0
LINE
8
BLACK
6
CONTINUOUS
10
0.9985433070866141
20
0.4305314960629921
11
0.9985433070866141
21
0.3705314960629921
0
LINE
8
BLACK
6
CONTINUOUS
10
0.7985433070866141
20
0.4705314960629921
11
0.7385433070866142
21
0.4705314960629921
0
LINE
8
BLACK
6
CONTINUOUS
10
0.7385433070866142
20
0.4705314960629921
11
0.7385433070866142
21
0.5305314960629921
0
LINE
8
BLACK
6
CONTINUOUS
10
0.7385433070866142
20
0.5305314960629921
11
0.7985433070866141
21
0.5305314960629921
0
LINE
8
BLACK
6
CONTINUOUS
10
0.7985433070866141
20
0.5305314960629921
11
0.7985433070866141
21
0.4705314960629921
0
LINE
8
BLACK
6
CONTINUOUS
10
0.8985433070866141
20
0.4705314960629921
11
0.8385433070866142
21
0.4705314960629921
0
LINE
8
BLACK
6
CONTINUOUS
10
0.8385433070866142
20
0.4705314960629921
11
0.8385433070866142
21
0.5305314960629921
0
LINE
8
BLACK
6
CONTINUOUS
10
0.8385433070866142
20
0.5305314960629921
11
0.8985433070866141
21
0.5305314960629921
0
LINE
8
BLACK
6
CONTINUOUS
10
0.8985433070866141
20
0.5305314960629921
11
0.8985433070866141
21
0.4705314960629921
0
LINE
8
BLACK
6
CONTINUOUS
10
0.9985433070866141
20
0.4705314960629921
11
0.9385433070866142
21
0.4705314960629921
0
LINE
8
BLACK
6
CONTINUOUS
10
0.9385433070866142
20
0.4705314960629921
11
0.9385433070866142
21
0.5305314960629921
0
LINE
8
BLACK
6
CONTINUOUS
10
0.9385433070866142
20
0.5305314960629921
11
0.9985433070866141
21
0.5305314960629921
0
LINE
8
BLACK
6
CONTINUOUS
10
0.9985433070866141
20
0.5305314960629921
11
0.9985433070866141
21
0.4705314960629921
0
LINE
8
BLACK
6
CONTINUOUS
10
-0.0703918503937008
20
0.6049728740157481
11
-0.1303918503937008
21
0.6049728740157481
0
LINE
8
BLACK
6
CONTINUOUS
10
-0.1303918503937008
20
0.6049728740157481
11
-0.1303918503937008
21
0.664972874015748
0
LINE
8
BLACK
6
CONTINUOUS
10
-0.1303918503937008
20
0.664972874015748
11
-0.0703918503937008
21
0.664972874015748
0
LINE
8
BLACK
6
CONTINUOUS
10
-0.0703918503937008
20
0.664972874015748
11
-0.0703918503937008
21
0.6049728740157481
0
LINE
8
BLACK
6
CONTINUOUS
10
0.0296081496062992
20
0.6049728740157481
11
-0.0303918503937008
21
0.6049728740157481
0
LINE
8
BLACK
6
CONTINUOUS
10
-0.0303918503937008
20
0.6049728740157481
11
-0.0303918503937008
21
0.664972874015748
0
LINE
8
BLACK
6
CONTINUOUS
10
-0.0303918503937008
20
0.664972874015748
11
0.0296081496062992
21
0.664972874015748
0
LINE
8
BLACK
6
CONTINUOUS
10
0.0296081496062992
20
0.664972874015748
11
0.0296081496062992
21
0.6049728740157481
0
LINE
8
BLACK
6
CONTINUOUS
10
1.9088374803149606
20
0.777315
11
1.917786377952756
21
0.7749171653543306
0
LINE
8
BLACK
6
CONTINUOUS
10
1.917786377952756
20
0.7749171653543306
11
1.9261829527559056
21
0.7710017716535433
0
LINE
8
BLACK
6
CONTINUOUS
10
1.9261829527559056
20
0.7710017716535433
11
1.9337720472440945
21
0.7656878346456693
0
LINE
8
BLACK
6
CONTINUOUS
10
1.9337720472440945
20
0.7656878346456693
11
1.9403231102362204
21
0.7591367716535433
0
LINE
8
BLACK
6
CONTINUOUS
10
1.9403231102362204
20
0.7591367716535433
11
1.9456370472440945
21
0.7515476771653543
0
LINE
8
BLACK
6
CONTINUOUS
10
1.9456370472440945
20
0.7515476771653543
11
1.9495524409448819
21
0.7431511023622047
0
LINE
8
BLACK
6
CONTINUOUS
10
1.9495524409448819
20
0.7431511023622047
11
1.9519502755905511
21
0.7342022047244094
0
LINE
8
BLACK
6
CONTINUOUS
10
1.9519502755905511
20
0.7342022047244094
11
1.9527577559055118
21
0.7249728740157481
0
LINE
8
BLACK
6
CONTINUOUS
10
1.9527577559055118
20
0.7249728740157481
11
1.9519502755905511
21
0.7157435433070866
0
LINE
8
BLACK
6
CONTINUOUS
10
1.9519502755905511
20
0.7157435433070866
11
1.9495524409448819
21
0.7067946456692913
0
LINE
8
BLACK
6
CONTINUOUS
10
1.9495524409448819
20
0.7067946456692913
11
1.9456370472440945
21
0.6983980708661417
0
LINE
8
BLACK
6
CONTINUOUS
10
1.9456370472440945
20
0.6983980708661417
11
1.9403231102362204
21
0.6908089763779527
0
LINE
8
BLACK
6
CONTINUOUS
10
1.9403231102362204
20
0.6908089763779527
11
1.9337720472440945
21
0.6842579133858268
0
LINE
8
BLACK
6
CONTINUOUS
10
1.9337720472440945
20
0.6842579133858268
11
1.9261829527559056
21
0.6789439763779528
0
LINE
8
BLACK
6
CONTINUOUS
10
1.9261829527559056
20
0.6789439763779528
11
1.917786377952756
21
0.6750285826771654
0
LINE
8
BLACK
6
CONTINUOUS
10
1.917786377952756
20
0.6750285826771654
11
1.9088374803149606
21
0.672630748031496
0
LINE
8
BLACK
6
CONTINUOUS
10
1.9088374803149606
20
0.672630748031496
11
1.8996081496062991
21
0.6718232677165354
0
LINE
8
BLACK
6
CONTINUOUS
10
1.8996081496062991
20
0.6718232677165354
11
1.8903788188976378
21
0.672630748031496
0
LINE
8
BLACK
6
CONTINUOUS
10
1.8903788188976378
20
0.672630748031496
11
1.8814299212598424
21
0.6750285826771654
0
LINE
8
BLACK
6
CONTINUOUS
10
1.8814299212598424
20
0.6750285826771654
11
1.8730333464566928
21
0.6789439763779528
0
LINE
8
BLACK
6
CONTINUOUS
10
1.8730333464566928
20
0.6789439763779528
11
1.8654442519685039
21
0.6842579133858268
0
LINE
8
BLACK
6
CONTINUOUS
10
1.8654442519685039
20
0.6842579133858268
11
1.858893188976378
21
0.6908089763779527
0
LINE
8
BLACK
6
CONTINUOUS
10
1.858893188976378
20
0.6908089763779527
11
1.8535792519685039
21
0.6983980708661417
0
LINE
8
BLACK
6
CONTINUOUS
10
1.8535792519685039
20
0.6983980708661417
11
1.8496638582677165
21
0.7067946456692913
0
LINE
8
BLACK
6
CONTINUOUS
10
1.8496638582677165
20
0.7067946456692913
11
1.8472660236220473
21
0.7157435433070866
0
LINE
8
BLACK
6
CONTINUOUS
10
1.8472660236220473
20
0.7157435433070866
11
1.8464585433070866
21
0.7249728740157481
0
LINE
8
BLACK
6
CONTINUOUS
10
1.8464585433070866
20
0.7249728740157481
11
1.8472660236220473
21
0.7342022047244094
0
LINE
8
BLACK
6
CONTINUOUS
10
1.8472660236220473
20
0.7342022047244094
11
1.8496638582677165
21
0.7431511023622047
0
LINE
8
BLACK
6
CONTINUOUS
10
1.8496638582677165
20
0.7431511023622047
11
1.8535792519685039
21
0.7515476771653543
0
LINE
8
BLACK
6
CONTINUOUS
10
1.8535792519685039
20
0.7515476771653543
11
1.858893188976378
21
0.7591367716535433
0
LINE
8
BLACK
6
CONTINUOUS
10
1.858893188976378
20
0.7591367716535433
11
1.8654442519685039
21
0.7656878346456693
0
LINE
8
BLACK
6
CONTINUOUS
10
1.8654442519685039
20
0.7656878346456693
11
1.8730333464566928
21
0.7710017716535433
0
LINE
8
BLACK
6
CONTINUOUS
10
1.8730333464566928
20
0.7710017716535433
11
1.8814299212598424
21
0.7749171653543306
0
LINE
8
BLACK
6
CONTINUOUS
10
1.8814299212598424
20
0.7749171653543306
11
1.8903788188976378
21
0.777315
0
LINE
8
BLACK
6
CONTINUOUS
10
1.8903788188976378
20
0.777315
11
1.8996081496062991
21
0.7781224803149606
0
LINE
8
BLACK
6
CONTINUOUS
10
1.8996081496062991
20
0.7781224803149606
11
1.9088374803149606
21
0.777315
0
LINE
8
BLACK
6
CONTINUOUS
10
2.1088374803149605
20
0.777315
11
2.1177863779527559
21
0.7749171653543306
0
LINE
8
BLACK
6
CONTINUOUS
10
2.1177863779527559
20
0.7749171653543306
11
2.1261829527559053
21
0.7710017716535433
0
LINE
8
BLACK
6
CONTINUOUS
10
2.1261829527559053
20
0.7710017716535433
11
2.1337720472440944
21
0.7656878346456693
0
LINE
8
BLACK
6
CONTINUOUS
10
2.1337720472440944
20
0.7656878346456693
11
2.1403231102362206
21
0.7591367716535433
0
LINE
8
BLACK
6
CONTINUOUS
10
2.1403231102362206
20
0.7591367716535433
11
2.1456370472440947
21
0.7515476771653543
0
LINE
8
BLACK
6
CONTINUOUS
10
2.1456370472440947
20
0.7515476771653543
11
2.1495524409448818
21
0.7431511023622047
0
LINE
8
BLACK
6
CONTINUOUS
10
2.1495524409448818
20
0.7431511023622047
11
2.1519502755905511
21
0.7342022047244094
0
LINE
8
BLACK
6
CONTINUOUS
10
2.1519502755905511
20
0.7342022047244094
11
2.1527577559055118
21
0.7249728740157481
0
LINE
8
BLACK
6
CONTINUOUS
10
2.1527577559055118
20
0.7249728740157481
11
2.1519502755905511
21
0.7157435433070866
0
LINE
8
BLACK
6
CONTINUOUS
10
2.1519502755905511
20
0.7157435433070866
11
2.1495524409448818
21
0.7067946456692913
0
LINE
8
BLACK
6
CONTINUOUS
10
2.1495524409448818
20
0.7067946456692913
11
2.1456370472440947
21
0.6983980708661417
0
LINE
8
BLACK
6
CONTINUOUS
10
2.1456370472440947
20
0.6983980708661417
11
2.1403231102362206
21
0.6908089763779527
0
LINE
8
BLACK
6
CONTINUOUS
10
2.1403231102362206
20
0.6908089763779527
11
2.1337720472440944
21
0.6842579133858268
0
LINE
8
BLACK
6
CONTINUOUS
10
2.1337720472440944
20
0.6842579133858268
11
2.1261829527559053
21
0.6789439763779528
0
LINE
8
BLACK
6
CONTINUOUS
10
2.1261829527559053
20
0.6789439763779528
11
2.1177863779527559
21
0.6750285826771654
0
LINE
8
BLACK
6
CONTINUOUS
10
2.1177863779527559
20
0.6750285826771654
11
2.1088374803149605
21
0.672630748031496
0
LINE
8
BLACK
6
CONTINUOUS
10
2.1088374803149605
20
0.672630748031496
11
2.0996081496062993
21
0.6718232677165354
0
LINE
8
BLACK
6
CONTINUOUS
10
2.0996081496062993
20
0.6718232677165354
11
2.0903788188976375
21
0.672630748031496
0
LINE
8
BLACK
6
CONTINUOUS
10
2.0903788188976375
20
0.672630748031496
11
2.0814299212598426
21
0.6750285826771654
0
LINE
8
BLACK
6
CONTINUOUS
10
2.0814299212598426
20
0.6750285826771654
11
2.0730333464566928
21
0.6789439763779528
0
LINE
8
BLACK
6
CONTINUOUS
10
2.0730333464566928
20
0.6789439763779528
11
2.0654442519685037
21
0.6842579133858268
0
LINE
8
BLACK
6
CONTINUOUS
10
2.0654442519685037
20
0.6842579133858268
11
2.058893188976378
21
0.6908089763779527
0
LINE
8
BLACK
6
CONTINUOUS
10
2.058893188976378
20
0.6908089763779527
11
2.0535792519685039
21
0.6983980708661417
0
LINE
8
BLACK
6
CONTINUOUS
10
2.0535792519685039
20
0.6983980708661417
11
2.0496638582677167
21
0.7067946456692913
0
LINE
8
BLACK
6
CONTINUOUS
10
2.0496638582677167
20
0.7067946456692913
11
2.047266023622047
21
0.7157435433070866
0
LINE
8
BLACK
6
CONTINUOUS
10
2.047266023622047
20
0.7157435433070866
11
2.0464585433070868
21
0.7249728740157481
0
LINE
8
BLACK
6
CONTINUOUS
10
2.0464585433070868
20
0.7249728740157481
11
2.047266023622047
21
0.7342022047244094
0
LINE
8
BLACK
6
CONTINUOUS
10
2.047266023622047
20
0.7342022047244094
11
2.0496638582677167
21
0.7431511023622047
0
LINE
8
BLACK
6
CONTINUOUS
10
2.0496638582677167
20
0.7431511023622047
11
2.0535792519685039
21
0.7515476771653543
0
LINE
8
BLACK
6
CONTINUOUS
10
2.0535792519685039
20
0.7515476771653543
11
2.058893188976378
21
0.7591367716535433
0
LINE
8
BLACK
6
CONTINUOUS
10
2.058893188976378
20
0.7591367716535433
11
2.0654442519685037
21
0.7656878346456693
0
LINE
8
BLACK
6
CONTINUOUS
10
2.0654442519685037
20
0.7656878346456693
11
2.0730333464566928
21
0.7710017716535433
0
LINE
8
BLACK
6
CONTINUOUS
10
2.0730333464566928
20
0.7710017716535433
11
2.0814299212598426
21
0.7749171653543306
0
LINE
8
BLACK
6
CONTINUOUS
10
2.0814299212598426
20
0.7749171653543306
11
2.0903788188976375
21
0.777315
0
LINE
8
BLACK
6
CONTINUOUS
10
2.0903788188976375
20
0.777315
11
2.0996081496062993
21
0.7781224803149606
0
LINE
8
BLACK
6
CONTINUOUS
10
2.0996081496062993
20
0.7781224803149606
11
2.1088374803149605
21
0.777315
0
LINE
8
BLACK
6
CONTINUOUS
10
-0.0703918503937008
20
0.704972874015748
11
-0.1303918503937008
21
0.704972874015748
0
LINE
8
BLACK
6
CONTINUOUS
10
-0.1303918503937008
20
0.704972874015748
11
-0.1303918503937008
21
0.764972874015748
0
LINE
8
BLACK
6
CONTINUOUS
10
-0.1303918503937008
20
0.764972874015748
11
-0.0703918503937008
21
0.764972874015748
0
LINE
8
BLACK
6
CONTINUOUS
10
-0.0703918503937008
20
0.764972874015748
11
-0.0703918503937008
21
0.704972874015748
0
LINE
8
BLACK
6
CONTINUOUS
10
0.0296081496062992
20
0.704972874015748
11
-0.0303918503937008
21
0.704972874015748
0
LINE
8
BLACK
6
CONTINUOUS
10
-0.0303918503937008
20
0.704972874015748
11
-0.0303918503937008
21
0.764972874015748
0
LINE
8
BLACK
6
CONTINUOUS
10
-0.0303918503937008
20
0.764972874015748
11
0.0296081496062992
21
0.764972874015748
0
LINE
8
BLACK
6
CONTINUOUS
10
0.0296081496062992
20
0.764972874015748
11
0.0296081496062992
21
0.704972874015748
0
LINE
8
BLACK
6
CONTINUOUS
10
0.455
20
0.77
11
0.395
21
0.77
0
LINE
8
BLACK
6
CONTINUOUS
10
0.395
20
0.77
11
0.395
21
0.83
0
LINE
8
BLACK
6
CONTINUOUS
10
0.395
20
0.83
11
0.455
21
0.83
0
LINE
8
BLACK
6
CONTINUOUS
10
0.455
20
0.83
11
0.455
21
0.77
0
LINE
8
BLACK
6
CONTINUOUS
10
0.5549999999999999
20
0.77
11
0.495
21
0.77
0
LINE
8
BLACK
6
CONTINUOUS
10
0.495
20
0.77
11
0.495
21
0.83
0
LINE
8
BLACK
6
CONTINUOUS
10
0.495
20
0.83
11
0.5549999999999999
21
0.83
0
LINE
8
BLACK
6
CONTINUOUS
10
0.5549999999999999
20
0.83
11
0.5549999999999999
21
0.77
0
LINE
8
BLACK
6
CONTINUOUS
10
2.0081538188976378
20
0.8734378346456693
11
2.0164398425196848
21
0.8712175984251969
0
LINE
8
BLACK
6
CONTINUOUS
10
2.0164398425196848
20
0.8712175984251969
11
2.0242144488188978
21
0.8675922440944882
0
LINE
8
BLACK
6
CONTINUOUS
10
2.0242144488188978
20
0.8675922440944882
11
2.0312414173228346
21
0.8626719291338583
0
LINE
8
BLACK
6
CONTINUOUS
10
2.0312414173228346
20
0.8626719291338583
11
2.0373072047244092
21
0.8566061417322834
0
LINE
8
BLACK
6
CONTINUOUS
10
2.0373072047244092
20
0.8566061417322834
11
2.0422275196850395
21
0.8495791732283464
0
LINE
8
BLACK
6
CONTINUOUS
10
2.0422275196850395
20
0.8495791732283464
11
2.0458528740157478
21
0.8418045669291339
0
LINE
8
BLACK
6
CONTINUOUS
10
2.0458528740157478
20
0.8418045669291339
11
2.0480731102362206
21
0.8335185433070866
0
LINE
8
BLACK
6
CONTINUOUS
10
2.0480731102362206
20
0.8335185433070866
11
2.0488207480314959
21
0.824972874015748
0
LINE
8
BLACK
6
CONTINUOUS
10
2.0488207480314959
20
0.824972874015748
11
2.0480731102362206
21
0.8164272047244094
0
LINE
8
BLACK
6
CONTINUOUS
10
2.0480731102362206
20
0.8164272047244094
11
2.0458528740157478
21
0.8081411811023622
0
LINE
8
BLACK
6
CONTINUOUS
10
2.0458528740157478
20
0.8081411811023622
11
2.0422275196850395
21
0.8003665748031495
0
LINE
8
BLACK
6
CONTINUOUS
10
2.0422275196850395
20
0.8003665748031495
11
2.0373072047244092
21
0.7933396062992126
0
LINE
8
BLACK
6
CONTINUOUS
10
2.0373072047244092
20
0.7933396062992126
11
2.0312414173228346
21
0.7872738188976378
0
LINE
8
BLACK
6
CONTINUOUS
10
2.0312414173228346
20
0.7872738188976378
11
2.0242144488188978
21
0.7823535039370079
0
LINE
8
BLACK
6
CONTINUOUS
10
2.0242144488188978
20
0.7823535039370079
11
2.0164398425196848
21
0.7787281496062992
0
LINE
8
BLACK
6
CONTINUOUS
10
2.0164398425196848
20
0.7787281496062992
11
2.0081538188976378
21
0.7765079133858268
0
LINE
8
BLACK
6
CONTINUOUS
10
2.0081538188976378
20
0.7765079133858268
11
1.9996081496062992
21
0.7757602755905512
0
LINE
8
BLACK
6
CONTINUOUS
10
1.9996081496062992
20
0.7757602755905512
11
1.9910624803149606
21
0.7765079133858268
0
LINE
8
BLACK
6
CONTINUOUS
10
1.9910624803149606
20
0.7765079133858268
11
1.9827764566929134
21
0.7787281496062992
0
LINE
8
BLACK
6
CONTINUOUS
10
1.9827764566929134
20
0.7787281496062992
11
1.9750018503937008
21
0.7823535039370079
0
LINE
8
BLACK
6
CONTINUOUS
10
1.9750018503937008
20
0.7823535039370079
11
1.9679748818897638
21
0.7872738188976378
0
LINE
8
BLACK
6
CONTINUOUS
10
1.9679748818897638
20
0.7872738188976378
11
1.961909094488189
21
0.7933396062992126
0
LINE
8
BLACK
6
CONTINUOUS
10
1.961909094488189
20
0.7933396062992126
11
1.9569887795275591
21
0.8003665748031495
0
LINE
8
BLACK
6
CONTINUOUS
10
1.9569887795275591
20
0.8003665748031495
11
1.9533634251968504
21
0.8081411811023622
0
LINE
8
BLACK
6
CONTINUOUS
10
1.9533634251968504
20
0.8081411811023622
11
1.951143188976378
21
0.8164272047244094
0
LINE
8
BLACK
6
CONTINUOUS
10
1.951143188976378
20
0.8164272047244094
11
1.9503955511811024
21
0.824972874015748
0
LINE
8
BLACK
6
CONTINUOUS
10
1.9503955511811024
20
0.824972874015748
11
1.951143188976378
21
0.8335185433070866
0
LINE
8
BLACK
6
CONTINUOUS
10
1.951143188976378
20
0.8335185433070866
11
1.9533634251968504
21
0.8418045669291339
0
LINE
8
BLACK
6
CONTINUOUS
10
1.9533634251968504
20
0.8418045669291339
11
1.9569887795275591
21
0.8495791732283464
0
LINE
8
BLACK
6
CONTINUOUS
10
1.9569887795275591
20
0.8495791732283464
11
1.961909094488189
21
0.8566061417322834
0
LINE
8
BLACK
6
CONTINUOUS
10
1.961909094488189
20
0.8566061417322834
11
1.9679748818897638
21
0.8626719291338583
0
LINE
8
BLACK
6
CONTINUOUS
10
1.9679748818897638
20
0.8626719291338583
11
1.9750018503937008
21
0.8675922440944882
0
LINE
8
BLACK
6
CONTINUOUS
10
1.9750018503937008
20
0.8675922440944882
11
1.9827764566929134
21
0.8712175984251969
0
LINE
8
BLACK
6
CONTINUOUS
10
1.9827764566929134
20
0.8712175984251969
11
1.9910624803149606
21
0.8734378346456693
0
LINE
8
BLACK
6
CONTINUOUS
10
1.9910624803149606
20
0.8734378346456693
11
1.9996081496062992
21
0.8741854724409449
0
LINE
8
BLACK
6
CONTINUOUS
10
1.9996081496062992
20
0.8741854724409449
11
2.0081538188976378
21
0.8734378346456693
0
LINE
8
BLACK
6
CONTINUOUS
10
-0.0703918503937008
20
0.804972874015748
11
-0.1303918503937008
21
0.804972874015748
0
LINE
8
BLACK
6
CONTINUOUS
10
-0.1303918503937008
20
0.804972874015748
11
-0.1303918503937008
21
0.864972874015748
0
LINE
8
BLACK
6
CONTINUOUS
10
-0.1303918503937008
20
0.864972874015748
11
-0.0703918503937008
21
0.864972874015748
0
LINE
8
BLACK
6
CONTINUOUS
10
-0.0703918503937008
20
0.864972874015748
11
-0.0703918503937008
21
0.804972874015748
0
LINE
8
BLACK
6
CONTINUOUS
10
0.0296081496062992
20
0.804972874015748
11
-0.0303918503937008
21
0.804972874015748
0
LINE
8
BLACK
6
CONTINUOUS
10
-0.0303918503937008
20
0.804972874015748
11
-0.0303918503937008
21
0.864972874015748
0
LINE
8
BLACK
6
CONTINUOUS
10
-0.0303918503937008
20
0.864972874015748
11
0.0296081496062992
21
0.864972874015748
0
LINE
8
BLACK
6
CONTINUOUS
10
0.0296081496062992
20
0.864972874015748
11
0.0296081496062992
21
0.804972874015748
0
LINE
8
BLACK
6
CONTINUOUS
10
0.455
20
0.87
11
0.395
21
0.87
0
LINE
8
BLACK
6
CONTINUOUS
10
0.395
20
0.87
11
0.395
21
0.9299999999999999
0
LINE
8
BLACK
6
CONTINUOUS
10
0.395
20
0.9299999999999999
11
0.455
21
0.9299999999999999
0
LINE
8
BLACK
6
CONTINUOUS
10
0.455
20
0.9299999999999999
11
0.455
21
0.87
0
LINE
8
BLACK
6
CONTINUOUS
10
0.5549999999999999
20
0.87
11
0.495
21
0.87
0
LINE
8
BLACK
6
CONTINUOUS
10
0.495
20
0.87
11
0.495
21
0.9299999999999999
0
LINE
8
BLACK
6
CONTINUOUS
10
0.495
20
0.9299999999999999
11
0.5549999999999999
21
0.9299999999999999
0
LINE
8
BLACK
6
CONTINUOUS
10
0.5549999999999999
20
0.9299999999999999
11
0.5549999999999999
21
0.87
0
LINE
8
BLACK
6
CONTINUOUS
10
1.9088374803149606
20
0.9773149999999999
11
1.917786377952756
21
0.9749171653543307
0
LINE
8
BLACK
6
CONTINUOUS
10
1.917786377952756
20
0.9749171653543307
11
1.9261829527559056
21
0.9710017716535433
0
LINE
8
BLACK
6
CONTINUOUS
10
1.9261829527559056
20
0.9710017716535433
11
1.9337720472440945
21
0.9656878346456693
0
LINE
8
BLACK
6
CONTINUOUS
10
1.9337720472440945
20
0.9656878346456693
11
1.9403231102362204
21
0.9591367716535433
0
LINE
8
BLACK
6
CONTINUOUS
10
1.9403231102362204
20
0.9591367716535433
11
1.9456370472440945
21
0.9515476771653543
0
LINE
8
BLACK
6
CONTINUOUS
10
1.9456370472440945
20
0.9515476771653543
11
1.9495524409448819
21
0.9431511023622047
0
LINE
8
BLACK
6
CONTINUOUS
10
1.9495524409448819
20
0.9431511023622047
11
1.9519502755905511
21
0.9342022047244094
0
LINE
8
BLACK
6
CONTINUOUS
10
1.9519502755905511
20
0.9342022047244094
11
1.9527577559055118
21
0.924972874015748
0
LINE
8
BLACK
6
CONTINUOUS
10
1.9527577559055118
20
0.924972874015748
11
1.9519502755905511
21
0.9157435433070866
0
LINE
8
BLACK
6
CONTINUOUS
10
1.9519502755905511
20
0.9157435433070866
11
1.9495524409448819
21
0.9067946456692914
0
LINE
8
BLACK
6
CONTINUOUS
10
1.9495524409448819
20
0.9067946456692914
11
1.9456370472440945
21
0.8983980708661418
0
LINE
8
BLACK
6
CONTINUOUS
10
1.9456370472440945
20
0.8983980708661418
11
1.9403231102362204
21
0.8908089763779528
0
LINE
8
BLACK
6
CONTINUOUS
10
1.9403231102362204
20
0.8908089763779528
11
1.9337720472440945
21
0.8842579133858267
0
LINE
8
BLACK
6
CONTINUOUS
10
1.9337720472440945
20
0.8842579133858267
11
1.9261829527559056
21
0.8789439763779527
0
LINE
8
BLACK
6
CONTINUOUS
10
1.9261829527559056
20
0.8789439763779527
11
1.917786377952756
21
0.8750285826771653
0
LINE
8
BLACK
6
CONTINUOUS
10
1.917786377952756
20
0.8750285826771653
11
1.9088374803149606
21
0.8726307480314961
0
LINE
8
BLACK
6
CONTINUOUS
10
1.9088374803149606
20
0.8726307480314961
11
1.8996081496062991
21
0.8718232677165354
0
LINE
8
BLACK
6
CONTINUOUS
10
1.8996081496062991
20
0.8718232677165354
11
1.8903788188976378
21
0.8726307480314961
0
LINE
8
BLACK
6
CONTINUOUS
10
1.8903788188976378
20
0.8726307480314961
11
1.8814299212598424
21
0.8750285826771653
0
LINE
8
BLACK
6
CONTINUOUS
10
1.8814299212598424
20
0.8750285826771653
11
1.8730333464566928
21
0.8789439763779527
0
LINE
8
BLACK
6
CONTINUOUS
10
1.8730333464566928
20
0.8789439763779527
11
1.8654442519685039
21
0.8842579133858267
0
LINE
8
BLACK
6
CONTINUOUS
10
1.8654442519685039
20
0.8842579133858267
11
1.858893188976378
21
0.8908089763779528
0
LINE
8
BLACK
6
CONTINUOUS
10
1.858893188976378
20
0.8908089763779528
11
1.8535792519685039
21
0.8983980708661418
0
LINE
8
BLACK
6
CONTINUOUS
10
1.8535792519685039
20
0.8983980708661418
11
1.8496638582677165
21
0.9067946456692914
0
LINE
8
BLACK
6
CONTINUOUS
10
1.8496638582677165
20
0.9067946456692914
11
1.8472660236220473
21
0.9157435433070866
0
LINE
8
BLACK
6
CONTINUOUS
10
1.8472660236220473
20
0.9157435433070866
11
1.8464585433070866
21
0.924972874015748
0
LINE
8
BLACK
6
CONTINUOUS
10
1.8464585433070866
20
0.924972874015748
11
1.8472660236220473
21
0.9342022047244094
0
LINE
8
BLACK
6
CONTINUOUS
10
1.8472660236220473
20
0.9342022047244094
11
1.8496638582677165
21
0.9431511023622047
0
LINE
8
BLACK
6
CONTINUOUS
10
1.8496638582677165
20
0.9431511023622047
11
1.8535792519685039
21
0.9515476771653543
0
LINE
8
BLACK
6
CONTINUOUS
10
1.8535792519685039
20
0.9515476771653543
11
1.858893188976378
21
0.9591367716535433
0
LINE
8
BLACK
6
CONTINUOUS
10
1.858893188976378
20
0.9591367716535433
11
1.8654442519685039
21
0.9656878346456693
0
LINE
8
BLACK
6
CONTINUOUS
10
1.8654442519685039
20
0.9656878346456693
11
1.8730333464566928
21
0.9710017716535433
0
LINE
8
BLACK
6
CONTINUOUS
10
1.8730333464566928
20
0.9710017716535433
11
1.8814299212598424
21
0.9749171653543307
0
LINE
8
BLACK
6
CONTINUOUS
10
1.8814299212598424
20
0.9749171653543307
11
1.8903788188976378
21
0.9773149999999999
0
LINE
8
BLACK
6
CONTINUOUS
10
1.8903788188976378
20
0.9773149999999999
11
1.8996081496062991
21
0.9781224803149606
0
LINE
8
BLACK
6
CONTINUOUS
10
1.8996081496062991
20
0.9781224803149606
11
1.9088374803149606
21
0.9773149999999999
0
LINE
8
BLACK
6
CONTINUOUS
10
2.1088374803149605
20
0.9773149999999999
11
2.1177863779527559
21
0.9749171653543307
0
LINE
8
BLACK
6
CONTINUOUS
10
2.1177863779527559
20
0.9749171653543307
11
2.1261829527559053
21
0.9710017716535433
0
LINE
8
BLACK
6
CONTINUOUS
10
2.1261829527559053
20
0.9710017716535433
11
2.1337720472440944
21
0.9656878346456693
0
LINE
8
BLACK
6
CONTINUOUS
10
2.1337720472440944
20
0.9656878346456693
11
2.1403231102362206
21
0.9591367716535433
0
LINE
8
BLACK
6
CONTINUOUS
10
2.1403231102362206
20
0.9591367716535433
11
2.1456370472440947
21
0.9515476771653543
0
LINE
8
BLACK
6
CONTINUOUS
10
2.1456370472440947
20
0.9515476771653543
11
2.1495524409448818
21
0.9431511023622047
0
LINE
8
BLACK
6
CONTINUOUS
10
2.1495524409448818
20
0.9431511023622047
11
2.1519502755905511
21
0.9342022047244094
0
LINE
8
BLACK
6
CONTINUOUS
10
2.1519502755905511
20
0.9342022047244094
11
2.1527577559055118
21
0.924972874015748
0
LINE
8
BLACK
6
CONTINUOUS
10
2.1527577559055118
20
0.924972874015748
11
2.1519502755905511
21
0.9157435433070866
0
LINE
8
BLACK
6
CONTINUOUS
10
2.1519502755905511
20
0.9157435433070866
11
2.1495524409448818
21
0.9067946456692914
0
LINE
8
BLACK
6
CONTINUOUS
10
2.1495524409448818
20
0.9067946456692914
11
2.1456370472440947
21
0.8983980708661418
0
LINE
8
BLACK
6
CONTINUOUS
10
2.1456370472440947
20
0.8983980708661418
11
2.1403231102362206
21
0.8908089763779528
0
LINE
8
BLACK
6
CONTINUOUS
10
2.1403231102362206
20
0.8908089763779528
11
2.1337720472440944
21
0.8842579133858267
0
LINE
8
BLACK
6
CONTINUOUS
10
2.1337720472440944
20
0.8842579133858267
11
2.1261829527559053
21
0.8789439763779527
0
LINE
8
BLACK
6
CONTINUOUS
10
2.1261829527559053
20
0.8789439763779527
11
2.1177863779527559
21
0.8750285826771653
0
LINE
8
BLACK
6
CONTINUOUS
10
2.1177863779527559
20
0.8750285826771653
11
2.1088374803149605
21
0.8726307480314961
0
LINE
8
BLACK
6
CONTINUOUS
10
2.1088374803149605
20
0.8726307480314961
11
2.0996081496062993
21
0.8718232677165354
0
LINE
8
BLACK
6
CONTINUOUS
10
2.0996081496062993
20
0.8718232677165354
11
2.0903788188976375
21
0.8726307480314961
0
LINE
8
BLACK
6
CONTINUOUS
10
2.0903788188976375
20
0.8726307480314961
11
2.0814299212598426
21
0.8750285826771653
0
LINE
8
BLACK
6
CONTINUOUS
10
2.0814299212598426
20
0.8750285826771653
11
2.0730333464566928
21
0.8789439763779527
0
LINE
8
BLACK
6
CONTINUOUS
10
2.0730333464566928
20
0.8789439763779527
11
2.0654442519685037
21
0.8842579133858267
0
LINE
8
BLACK
6
CONTINUOUS
10
2.0654442519685037
20
0.8842579133858267
11
2.058893188976378
21
0.8908089763779528
0
LINE
8
BLACK
6
CONTINUOUS
10
2.058893188976378
20
0.8908089763779528
11
2.0535792519685039
21
0.8983980708661418
0
LINE
8
BLACK
6
CONTINUOUS
10
2.0535792519685039
20
0.8983980708661418
11
2.0496638582677167
21
0.9067946456692914
0
LINE
8
BLACK
6
CONTINUOUS
10
2.0496638582677167
20
0.9067946456692914
11
2.047266023622047
21
0.9157435433070866
0
LINE
8
BLACK
6
CONTINUOUS
10
2.047266023622047
20
0.9157435433070866
11
2.0464585433070868
21
0.924972874015748
0
LINE
8
BLACK
6
CONTINUOUS
10
2.0464585433070868
20
0.924972874015748
11
2.047266023622047
21
0.9342022047244094
0
LINE
8
BLACK
6
CONTINUOUS
10
2.047266023622047
20
0.9342022047244094
11
2.0496638582677167
21
0.9431511023622047
0
LINE
8
BLACK
6
CONTINUOUS
10
2.0496638582677167
20
0.9431511023622047
11
2.0535792519685039
21
0.9515476771653543
0
LINE
8
BLACK
6
CONTINUOUS
10
2.0535792519685039
20
0.9515476771653543
11
2.058893188976378
21
0.9591367716535433
0
LINE
8
BLACK
6
CONTINUOUS
10
2.058893188976378
20
0.9591367716535433
11
2.0654442519685037
21
0.9656878346456693
0
LINE
8
BLACK
6
CONTINUOUS
10
2.0654442519685037
20
0.9656878346456693
11
2.0730333464566928
21
0.9710017716535433
0
LINE
8
BLACK
6
CONTINUOUS
10
2.0730333464566928
20
0.9710017716535433
11
2.0814299212598426
21
0.9749171653543307
0
LINE
8
BLACK
6
CONTINUOUS
10
2.0814299212598426
20
0.9749171653543307
11
2.0903788188976375
21
0.9773149999999999
0
LINE
8
BLACK
6
CONTINUOUS
10
2.0903788188976375
20
0.9773149999999999
11
2.0996081496062993
21
0.9781224803149606
0
LINE
8
BLACK
6
CONTINUOUS
10
2.0996081496062993
20
0.9781224803149606
11
2.1088374803149605
21
0.9773149999999999
0
LINE
8
BLACK
6
CONTINUOUS
10
0.4216019291338582
20
1.0280314960629922
11
0.3616019291338582
21
1.0280314960629922
0
LINE
8
BLACK
6
CONTINUOUS
10
0.3616019291338582
20
1.0280314960629922
11
0.3616019291338582
21
1.0880314960629922
0
LINE
8
BLACK
6
CONTINUOUS
10
0.3616019291338582
20
1.0880314960629922
11
0.4216019291338582
21
1.0880314960629922
0
LINE
8
BLACK
6
CONTINUOUS
10
0.4216019291338582
20
1.0880314960629922
11
0.4216019291338582
21
1.0280314960629922
0
LINE
8
BLACK
6
CONTINUOUS
10
0.5216019291338583
20
1.0280314960629922
11
0.4616019291338583
21
1.0280314960629922
0
LINE
8
BLACK
6
CONTINUOUS
10
0.4616019291338583
20
1.0280314960629922
11
0.4616019291338583
21
1.0880314960629922
0
LINE
8
BLACK
6
CONTINUOUS
10
0.4616019291338583
20
1.0880314960629922
11
0.5216019291338583
21
1.0880314960629922
0
LINE
8
BLACK
6
CONTINUOUS
10
0.5216019291338583
20
1.0880314960629922
11
0.5216019291338583
21
1.0280314960629922
0
LINE
8
BLACK
6
CONTINUOUS
10
1.9088374803149606
20
1.202315
11
1.917786377952756
21
1.1999171653543306
0
LINE
8
BLACK
6
CONTINUOUS
10
1.917786377952756
20
1.1999171653543306
11
1.9261829527559056
21
1.1960017716535434
0
LINE
8
BLACK
6
CONTINUOUS
10
1.9261829527559056
20
1.1960017716535434
11
1.9337720472440945
21
1.1906878346456693
0
LINE
8
BLACK
6
CONTINUOUS
10
1.9337720472440945
20
1.1906878346456693
11
1.9403231102362204
21
1.1841367716535434
0
LINE
8
BLACK
6
CONTINUOUS
10
1.9403231102362204
20
1.1841367716535434
11
1.9456370472440945
21
1.1765476771653542
0
LINE
8
BLACK
6
CONTINUOUS
10
1.9456370472440945
20
1.1765476771653542
11
1.9495524409448819
21
1.1681511023622047
0
LINE
8
BLACK
6
CONTINUOUS
10
1.9495524409448819
20
1.1681511023622047
11
1.9519502755905511
21
1.1592022047244095
0
LINE
8
BLACK
6
CONTINUOUS
10
1.9519502755905511
20
1.1592022047244095
11
1.9527577559055118
21
1.149972874015748
0
LINE
8
BLACK
6
CONTINUOUS
10
1.9527577559055118
20
1.149972874015748
11
1.9519502755905511
21
1.1407435433070865
0
LINE
8
BLACK
6
CONTINUOUS
10
1.9519502755905511
20
1.1407435433070865
11
1.9495524409448819
21
1.1317946456692913
0
LINE
8
BLACK
6
CONTINUOUS
10
1.9495524409448819
20
1.1317946456692913
11
1.9456370472440945
21
1.1233980708661417
0
LINE
8
BLACK
6
CONTINUOUS
10
1.9456370472440945
20
1.1233980708661417
11
1.9403231102362204
21
1.1158089763779526
0
LINE
8
BLACK
6
CONTINUOUS
10
1.9403231102362204
20
1.1158089763779526
11
1.9337720472440945
21
1.1092579133858267
0
LINE
8
BLACK
6
CONTINUOUS
10
1.9337720472440945
20
1.1092579133858267
11
1.9261829527559056
21
1.1039439763779528
0
LINE
8
BLACK
6
CONTINUOUS
10
1.9261829527559056
20
1.1039439763779528
11
1.917786377952756
21
1.1000285826771654
0
LINE
8
BLACK
6
CONTINUOUS
10
1.917786377952756
20
1.1000285826771654
11
1.9088374803149606
21
1.097630748031496
0
LINE
8
BLACK
6
CONTINUOUS
10
1.9088374803149606
20
1.097630748031496
11
1.8996081496062991
21
1.0968232677165355
0
LINE
8
BLACK
6
CONTINUOUS
10
1.8996081496062991
20
1.0968232677165355
11
1.8903788188976378
21
1.097630748031496
0
LINE
8
BLACK
6
CONTINUOUS
10
1.8903788188976378
20
1.097630748031496
11
1.8814299212598424
21
1.1000285826771654
0
LINE
8
BLACK
6
CONTINUOUS
10
1.8814299212598424
20
1.1000285826771654
11
1.8730333464566928
21
1.1039439763779528
0
LINE
8
BLACK
6
CONTINUOUS
10
1.8730333464566928
20
1.1039439763779528
11
1.8654442519685039
21
1.1092579133858267
0
LINE
8
BLACK
6
CONTINUOUS
10
1.8654442519685039
20
1.1092579133858267
11
1.858893188976378
21
1.1158089763779526
0
LINE
8
BLACK
6
CONTINUOUS
10
1.858893188976378
20
1.1158089763779526
11
1.8535792519685039
21
1.1233980708661417
0
LINE
8
BLACK
6
CONTINUOUS
10
1.8535792519685039
20
1.1233980708661417
11
1.8496638582677165
21
1.1317946456692913
0
LINE
8
BLACK
6
CONTINUOUS
10
1.8496638582677165
20
1.1317946456692913
11
1.8472660236220473
21
1.1407435433070865
0
LINE
8
BLACK
6
CONTINUOUS
10
1.8472660236220473
20
1.1407435433070865
11
1.8464585433070866
21
1.149972874015748
0
LINE
8
BLACK
6
CONTINUOUS
10
1.8464585433070866
20
1.149972874015748
11
1.8472660236220473
21
1.1592022047244095
0
LINE
8
BLACK
6
CONTINUOUS
10
1.8472660236220473
20
1.1592022047244095
11
1.8496638582677165
21
1.1681511023622047
0
LINE
8
BLACK
6
CONTINUOUS
10
1.8496638582677165
20
1.1681511023622047
11
1.8535792519685039
21
1.1765476771653542
0
LINE
8
BLACK
6
CONTINUOUS
10
1.8535792519685039
20
1.1765476771653542
11
1.858893188976378
21
1.1841367716535434
0
LINE
8
BLACK
6
CONTINUOUS
10
1.858893188976378
20
1.1841367716535434
11
1.8654442519685039
21
1.1906878346456693
0
LINE
8
BLACK
6
CONTINUOUS
10
1.8654442519685039
20
1.1906878346456693
11
1.8730333464566928
21
1.1960017716535434
0
LINE
8
BLACK
6
CONTINUOUS
10
1.8730333464566928
20
1.1960017716535434
11
1.8814299212598424
21
1.1999171653543306
0
LINE
8
BLACK
6
CONTINUOUS
10
1.8814299212598424
20
1.1999171653543306
11
1.8903788188976378
21
1.202315
0
LINE
8
BLACK
6
CONTINUOUS
10
1.8903788188976378
20
1.202315
11
1.8996081496062991
21
1.2031224803149605
0
LINE
8
BLACK
6
CONTINUOUS
10
1.8996081496062991
20
1.2031224803149605
11
1.9088374803149606
21
1.202315
0
LINE
8
BLACK
6
CONTINUOUS
10
2.1088374803149605
20
1.202315
11
2.1177863779527559
21
1.1999171653543306
0
LINE
8
BLACK
6
CONTINUOUS
10
2.1177863779527559
20
1.1999171653543306
11
2.1261829527559053
21
1.1960017716535434
0
LINE
8
BLACK
6
CONTINUOUS
10
2.1261829527559053
20
1.1960017716535434
11
2.1337720472440944
21
1.1906878346456693
0
LINE
8
BLACK
6
CONTINUOUS
10
2.1337720472440944
20
1.1906878346456693
11
2.1403231102362206
21
1.1841367716535434
0
LINE
8
BLACK
6
CONTINUOUS
10
2.1403231102362206
20
1.1841367716535434
11
2.1456370472440947
21
1.1765476771653542
0
LINE
8
BLACK
6
CONTINUOUS
10
2.1456370472440947
20
1.1765476771653542
11
2.1495524409448818
21
1.1681511023622047
0
LINE
8
BLACK
6
CONTINUOUS
10
2.1495524409448818
20
1.1681511023622047
11
2.1519502755905511
21
1.1592022047244095
0
LINE
8
BLACK
6
CONTINUOUS
10
2.1519502755905511
20
1.1592022047244095
11
2.1527577559055118
21
1.149972874015748
0
LINE
8
BLACK
6
CONTINUOUS
10
2.1527577559055118
20
1.149972874015748
11
2.1519502755905511
21
1.1407435433070865
0
LINE
8
BLACK
6
CONTINUOUS
10
2.1519502755905511
20
1.1407435433070865
11
2.1495524409448818
21
1.1317946456692913
0
LINE
8
BLACK
6
CONTINUOUS
10
2.1495524409448818
20
1.1317946456692913
11
2.1456370472440947
21
1.1233980708661417
0
LINE
8
BLACK
6
CONTINUOUS
10
2.1456370472440947
20
1.1233980708661417
11
2.1403231102362206
21
1.1158089763779526
0
LINE
8
BLACK
6
CONTINUOUS
10
2.1403231102362206
20
1.1158089763779526
11
2.1337720472440944
21
1.1092579133858267
0
LINE
8
BLACK
6
CONTINUOUS
10
2.1337720472440944
20
1.1092579133858267
11
2.1261829527559053
21
1.1039439763779528
0
LINE
8
BLACK
6
CONTINUOUS
10
2.1261829527559053
20
1.1039439763779528
11
2.1177863779527559
21
1.1000285826771654
0
LINE
8
BLACK
6
CONTINUOUS
10
2.1177863779527559
20
1.1000285826771654
11
2.1088374803149605
21
1.097630748031496
0
LINE
8
BLACK
6
CONTINUOUS
10
2.1088374803149605
20
1.097630748031496
11
2.0996081496062993
21
1.0968232677165355
0
LINE
8
BLACK
6
CONTINUOUS
10
2.0996081496062993
20
1.0968232677165355
11
2.0903788188976375
21
1.097630748031496
0
LINE
8
BLACK
6
CONTINUOUS
10
2.0903788188976375
20
1.097630748031496
11
2.0814299212598426
21
1.1000285826771654
0
LINE
8
BLACK
6
CONTINUOUS
10
2.0814299212598426
20
1.1000285826771654
11
2.0730333464566928
21
1.1039439763779528
0
LINE
8
BLACK
6
CONTINUOUS
10
2.0730333464566928
20
1.1039439763779528
11
2.0654442519685037
21
1.1092579133858267
0
LINE
8
BLACK
6
CONTINUOUS
10
2.0654442519685037
20
1.1092579133858267
11
2.058893188976378
21
1.1158089763779526
0
LINE
8
BLACK
6
CONTINUOUS
10
2.058893188976378
20
1.1158089763779526
11
2.0535792519685039
21
1.1233980708661417
0
LINE
8
BLACK
6
CONTINUOUS
10
2.0535792519685039
20
1.1233980708661417
11
2.0496638582677167
21
1.1317946456692913
0
LINE
8
BLACK
6
CONTINUOUS
10
2.0496638582677167
20
1.1317946456692913
11
2.047266023622047
21
1.1407435433070865
0
LINE
8
BLACK
6
CONTINUOUS
10
2.047266023622047
20
1.1407435433070865
11
2.0464585433070868
21
1.149972874015748
0
LINE
8
BLACK
6
CONTINUOUS
10
2.0464585433070868
20
1.149972874015748
11
2.047266023622047
21
1.1592022047244095
0
LINE
8
BLACK
6
CONTINUOUS
10
2.047266023622047
20
1.1592022047244095
11
2.0496638582677167
21
1.1681511023622047
0
LINE
8
BLACK
6
CONTINUOUS
10
2.0496638582677167
20
1.1681511023622047
11
2.0535792519685039
21
1.1765476771653542
0
LINE
8
BLACK
6
CONTINUOUS
10
2.0535792519685039
20
1.1765476771653542
11
2.058893188976378
21
1.1841367716535434
0
LINE
8
BLACK
6
CONTINUOUS
10
2.058893188976378
20
1.1841367716535434
11
2.0654442519685037
21
1.1906878346456693
0
LINE
8
BLACK
6
CONTINUOUS
10
2.0654442519685037
20
1.1906878346456693
11
2.0730333464566928
21
1.1960017716535434
0
LINE
8
BLACK
6
CONTINUOUS
10
2.0730333464566928
20
1.1960017716535434
11
2.0814299212598426
21
1.1999171653543306
0
LINE
8
BLACK
6
CONTINUOUS
10
2.0814299212598426
20
1.1999171653543306
11
2.0903788188976375
21
1.202315
0
LINE
8
BLACK
6
CONTINUOUS
10
2.0903788188976375
20
1.202315
11
2.0996081496062993
21
1.2031224803149605
0
LINE
8
BLACK
6
CONTINUOUS
10
2.0996081496062993
20
1.2031224803149605
11
2.1088374803149605
21
1.202315
0
LINE
8
BLACK
6
CONTINUOUS
10
-0.0703918503937008
20
1.119972874015748
11
-0.1303918503937008
21
1.119972874015748
0
LINE
8
BLACK
6
CONTINUOUS
10
-0.1303918503937008
20
1.119972874015748
11
-0.1303918503937008
21
1.179972874015748
0
LINE
8
BLACK
6
CONTINUOUS
10
-0.1303918503937008
20
1.179972874015748
11
-0.0703918503937008
21
1.179972874015748
0
LINE
8
BLACK
6
CONTINUOUS
10
-0.0703918503937008
20
1.179972874015748
11
-0.0703918503937008
21
1.119972874015748
0
LINE
8
BLACK
6
CONTINUOUS
10
0.0296081496062992
20
1.119972874015748
11
-0.0303918503937008
21
1.119972874015748
0
LINE
8
BLACK
6
CONTINUOUS
10
-0.0303918503937008
20
1.119972874015748
11
-0.0303918503937008
21
1.179972874015748
0
LINE
8
BLACK
6
CONTINUOUS
10
-0.0303918503937008
20
1.179972874015748
11
0.0296081496062992
21
1.179972874015748
0
LINE
8
BLACK
6
CONTINUOUS
10
0.0296081496062992
20
1.179972874015748
11
0.0296081496062992
21
1.119972874015748
0
LINE
8
BLACK
6
CONTINUOUS
10
0.4435433070866142
20
1.128031496062992
11
0.3835433070866142
21
1.128031496062992
0
LINE
8
BLACK
6
CONTINUOUS
10
0.3835433070866142
20
1.128031496062992
11
0.3835433070866142
21
1.1880314960629921
0
LINE
8
BLACK
6
CONTINUOUS
10
0.3835433070866142
20
1.1880314960629921
11
0.4435433070866142
21
1.1880314960629921
0
LINE
8
BLACK
6
CONTINUOUS
10
0.4435433070866142
20
1.1880314960629921
11
0.4435433070866142
21
1.128031496062992
0
LINE
8
BLACK
6
CONTINUOUS
10
0.5435433070866141
20
1.128031496062992
11
0.4835433070866141
21
1.128031496062992
0
LINE
8
BLACK
6
CONTINUOUS
10
0.4835433070866141
20
1.128031496062992
11
0.4835433070866141
21
1.1880314960629921
0
LINE
8
BLACK
6
CONTINUOUS
10
0.4835433070866141
20
1.1880314960629921
11
0.5435433070866141
21
1.1880314960629921
0
LINE
8
BLACK
6
CONTINUOUS
10
0.5435433070866141
20
1.1880314960629921
11
0.5435433070866141
21
1.128031496062992
0
LINE
8
BLACK
6
CONTINUOUS
10
2.0081538188976378
20
1.2984378346456693
11
2.0164398425196848
21
1.2962175984251969
0
LINE
8
BLACK
6
CONTINUOUS
10
2.0164398425196848
20
1.2962175984251969
11
2.0242144488188978
21
1.2925922440944881
0
LINE
8
BLACK
6
CONTINUOUS
10
2.0242144488188978
20
1.2925922440944881
11
2.0312414173228346
21
1.2876719291338583
0
LINE
8
BLACK
6
CONTINUOUS
10
2.0312414173228346
20
1.2876719291338583
11
2.0373072047244092
21
1.2816061417322835
0
LINE
8
BLACK
6
CONTINUOUS
10
2.0373072047244092
20
1.2816061417322835
11
2.0422275196850395
21
1.2745791732283465
0
LINE
8
BLACK
6
CONTINUOUS
10
2.0422275196850395
20
1.2745791732283465
11
2.0458528740157478
21
1.2668045669291339
0
LINE
8
BLACK
6
CONTINUOUS
10
2.0458528740157478
20
1.2668045669291339
11
2.0480731102362206
21
1.2585185433070867
0
LINE
8
BLACK
6
CONTINUOUS
10
2.0480731102362206
20
1.2585185433070867
11
2.0488207480314959
21
1.2499728740157481
0
LINE
8
BLACK
6
CONTINUOUS
10
2.0488207480314959
20
1.2499728740157481
11
2.0480731102362206
21
1.2414272047244095
0
LINE
8
BLACK
6
CONTINUOUS
10
2.0480731102362206
20
1.2414272047244095
11
2.0458528740157478
21
1.2331411811023623
0
LINE
8
BLACK
6
CONTINUOUS
10
2.0458528740157478
20
1.2331411811023623
11
2.0422275196850395
21
1.2253665748031495
0
LINE
8
BLACK
6
CONTINUOUS
10
2.0422275196850395
20
1.2253665748031495
11
2.0373072047244092
21
1.2183396062992127
0
LINE
8
BLACK
6
CONTINUOUS
10
2.0373072047244092
20
1.2183396062992127
11
2.0312414173228346
21
1.2122738188976379
0
LINE
8
BLACK
6
CONTINUOUS
10
2.0312414173228346
20
1.2122738188976379
11
2.0242144488188978
21
1.2073535039370078
0
LINE
8
BLACK
6
CONTINUOUS
10
2.0242144488188978
20
1.2073535039370078
11
2.0164398425196848
21
1.2037281496062993
0
LINE
8
BLACK
6
CONTINUOUS
10
2.0164398425196848
20
1.2037281496062993
11
2.0081538188976378
21
1.2015079133858269
0
LINE
8
BLACK
6
CONTINUOUS
10
2.0081538188976378
20
1.2015079133858269
11
1.9996081496062992
21
1.2007602755905511
0
LINE
8
BLACK
6
CONTINUOUS
10
1.9996081496062992
20
1.2007602755905511
11
1.9910624803149606
21
1.2015079133858269
0
LINE
8
BLACK
6
CONTINUOUS
10
1.9910624803149606
20
1.2015079133858269
11
1.9827764566929134
21
1.2037281496062993
0
LINE
8
BLACK
6
CONTINUOUS
10
1.9827764566929134
20
1.2037281496062993
11
1.9750018503937008
21
1.2073535039370078
0
LINE
8
BLACK
6
CONTINUOUS
10
1.9750018503937008
20
1.2073535039370078
11
1.9679748818897638
21
1.2122738188976379
0
LINE
8
BLACK
6
CONTINUOUS
10
1.9679748818897638
20
1.2122738188976379
11
1.961909094488189
21
1.2183396062992127
0
LINE
8
BLACK
6
CONTINUOUS
10
1.961909094488189
20
1.2183396062992127
11
1.9569887795275591
21
1.2253665748031495
0
LINE
8
BLACK
6
CONTINUOUS
10
1.9569887795275591
20
1.2253665748031495
11
1.9533634251968504
21
1.2331411811023623
0
LINE
8
BLACK
6
CONTINUOUS
10
1.9533634251968504
20
1.2331411811023623
11
1.951143188976378
21
1.2414272047244095
0
LINE
8
BLACK
6
CONTINUOUS
10
1.951143188976378
20
1.2414272047244095
11
1.9503955511811024
21
1.2499728740157481
0
LINE
8
BLACK
6
CONTINUOUS
10
1.9503955511811024
20
1.2499728740157481
11
1.951143188976378
21
1.2585185433070867
0
LINE
8
BLACK
6
CONTINUOUS
10
1.951143188976378
20
1.2585185433070867
11
1.9533634251968504
21
1.2668045669291339
0
LINE
8
BLACK
6
CONTINUOUS
10
1.9533634251968504
20
1.2668045669291339
11
1.9569887795275591
21
1.2745791732283465
0
LINE
8
BLACK
6
CONTINUOUS
10
1.9569887795275591
20
1.2745791732283465
11
1.961909094488189
21
1.2816061417322835
0
LINE
8
BLACK
6
CONTINUOUS
10
1.961909094488189
20
1.2816061417322835
11
1.9679748818897638
21
1.2876719291338583
0
LINE
8
BLACK
6
CONTINUOUS
10
1.9679748818897638
20
1.2876719291338583
11
1.9750018503937008
21
1.2925922440944881
0
LINE
8
BLACK
6
CONTINUOUS
10
1.9750018503937008
20
1.2925922440944881
11
1.9827764566929134
21
1.2962175984251969
0
LINE
8
BLACK
6
CONTINUOUS
10
1.9827764566929134
20
1.2962175984251969
11
1.9910624803149606
21
1.2984378346456693
0
LINE
8
BLACK
6
CONTINUOUS
10
1.9910624803149606
20
1.2984378346456693
11
1.9996081496062992
21
1.2991854724409448
0
LINE
8
BLACK
6
CONTINUOUS
10
1.9996081496062992
20
1.2991854724409448
11
2.0081538188976378
21
1.2984378346456693
0
LINE
8
BLACK
6
CONTINUOUS
10
-0.0703918503937008
20
1.2199728740157481
11
-0.1303918503937008
21
1.2199728740157481
0
LINE
8
BLACK
6
CONTINUOUS
10
-0.1303918503937008
20
1.2199728740157481
11
-0.1303918503937008
21
1.2799728740157481
0
LINE
8
BLACK
6
CONTINUOUS
10
-0.1303918503937008
20
1.2799728740157481
11
-0.0703918503937008
21
1.2799728740157481
0
LINE
8
BLACK
6
CONTINUOUS
10
-0.0703918503937008
20
1.2799728740157481
11
-0.0703918503937008
21
1.2199728740157481
0
LINE
8
BLACK
6
CONTINUOUS
10
0.0296081496062992
20
1.2199728740157481
11
-0.0303918503937008
21
1.2199728740157481
0
LINE
8
BLACK
6
CONTINUOUS
10
-0.0303918503937008
20
1.2199728740157481
11
-0.0303918503937008
21
1.2799728740157481
0
LINE
8
BLACK
6
CONTINUOUS
10
-0.0303918503937008
20
1.2799728740157481
11
0.0296081496062992
21
1.2799728740157481
0
LINE
8
BLACK
6
CONTINUOUS
10
0.0296081496062992
20
1.2799728740157481
11
0.0296081496062992
21
1.2199728740157481
0
LINE
8
BLACK
6
CONTINUOUS
10
0.38
20
1.22
11
0.32
21
1.22
0
LINE
8
BLACK
6
CONTINUOUS
10
0.32
20
1.22
11
0.32
21
1.28
0
LINE
8
BLACK
6
CONTINUOUS
10
0.32
20
1.28
11
0.38
21
1.28
0
LINE
8
BLACK
6
CONTINUOUS
10
0.38
20
1.28
11
0.38
21
1.22
0
LINE
8
BLACK
6
CONTINUOUS
10
0.48
20
1.22
11
0.42
21
1.22
0
LINE
8
BLACK
6
CONTINUOUS
10
0.42
20
1.22
11
0.42
21
1.28
0
LINE
8
BLACK
6
CONTINUOUS
10
0.42
20
1.28
11
0.48
21
1.28
0
LINE
8
BLACK
6
CONTINUOUS
10
0.48
20
1.28
11
0.48
21
1.22
0
LINE
8
BLACK
6
CONTINUOUS
10
1.9088374803149606
20
1.402315
11
1.917786377952756
21
1.3999171653543308
0
LINE
8
BLACK
6
CONTINUOUS
10
1.917786377952756
20
1.3999171653543308
11
1.9261829527559056
21
1.3960017716535433
0
LINE
8
BLACK
6
CONTINUOUS
10
1.9261829527559056
20
1.3960017716535433
11
1.9337720472440945
21
1.3906878346456693
0
LINE
8
BLACK
6
CONTINUOUS
10
1.9337720472440945
20
1.3906878346456693
11
1.9403231102362204
21
1.3841367716535433
0
LINE
8
BLACK
6
CONTINUOUS
10
1.9403231102362204
20
1.3841367716535433
11
1.9456370472440945
21
1.3765476771653542
0
LINE
8
BLACK
6
CONTINUOUS
10
1.9456370472440945
20
1.3765476771653542
11
1.9495524409448819
21
1.3681511023622046
0
LINE
8
BLACK
6
CONTINUOUS
10
1.9495524409448819
20
1.3681511023622046
11
1.9519502755905511
21
1.3592022047244094
0
LINE
8
BLACK
6
CONTINUOUS
10
1.9519502755905511
20
1.3592022047244094
11
1.9527577559055118
21
1.3499728740157479
0
LINE
8
BLACK
6
CONTINUOUS
10
1.9527577559055118
20
1.3499728740157479
11
1.9519502755905511
21
1.3407435433070867
0
LINE
8
BLACK
6
CONTINUOUS
10
1.9519502755905511
20
1.3407435433070867
11
1.9495524409448819
21
1.3317946456692913
0
LINE
8
BLACK
6
CONTINUOUS
10
1.9495524409448819
20
1.3317946456692913
11
1.9456370472440945
21
1.3233980708661417
0
LINE
8
BLACK
6
CONTINUOUS
10
1.9456370472440945
20
1.3233980708661417
11
1.9403231102362204
21
1.3158089763779528
0
LINE
8
BLACK
6
CONTINUOUS
10
1.9403231102362204
20
1.3158089763779528
11
1.9337720472440945
21
1.3092579133858266
0
LINE
8
BLACK
6
CONTINUOUS
10
1.9337720472440945
20
1.3092579133858266
11
1.9261829527559056
21
1.3039439763779528
0
LINE
8
BLACK
6
CONTINUOUS
10
1.9261829527559056
20
1.3039439763779528
11
1.917786377952756
21
1.3000285826771654
0
LINE
8
BLACK
6
CONTINUOUS
10
1.917786377952756
20
1.3000285826771654
11
1.9088374803149606
21
1.2976307480314961
0
LINE
8
BLACK
6
CONTINUOUS
10
1.9088374803149606
20
1.2976307480314961
11
1.8996081496062991
21
1.2968232677165354
0
LINE
8
BLACK
6
CONTINUOUS
10
1.8996081496062991
20
1.2968232677165354
11
1.8903788188976378
21
1.2976307480314961
0
LINE
8
BLACK
6
CONTINUOUS
10
1.8903788188976378
20
1.2976307480314961
11
1.8814299212598424
21
1.3000285826771654
0
LINE
8
BLACK
6
CONTINUOUS
10
1.8814299212598424
20
1.3000285826771654
11
1.8730333464566928
21
1.3039439763779528
0
LINE
8
BLACK
6
CONTINUOUS
10
1.8730333464566928
20
1.3039439763779528
11
1.8654442519685039
21
1.3092579133858266
0
LINE
8
BLACK
6
CONTINUOUS
10
1.8654442519685039
20
1.3092579133858266
11
1.858893188976378
21
1.3158089763779528
0
LINE
8
BLACK
6
CONTINUOUS
10
1.858893188976378
20
1.3158089763779528
11
1.8535792519685039
21
1.3233980708661417
0
LINE
8
BLACK
6
CONTINUOUS
10
1.8535792519685039
20
1.3233980708661417
11
1.8496638582677165
21
1.3317946456692913
0
LINE
8
BLACK
6
CONTINUOUS
10
1.8496638582677165
20
1.3317946456692913
11
1.8472660236220473
21
1.3407435433070867
0
LINE
8
BLACK
6
CONTINUOUS
10
1.8472660236220473
20
1.3407435433070867
11
1.8464585433070866
21
1.3499728740157479
0
LINE
8
BLACK
6
CONTINUOUS
10
1.8464585433070866
20
1.3499728740157479
11
1.8472660236220473
21
1.3592022047244094
0
LINE
8
BLACK
6
CONTINUOUS
10
1.8472660236220473
20
1.3592022047244094
11
1.8496638582677165
21
1.3681511023622046
0
LINE
8
BLACK
6
CONTINUOUS
10
1.8496638582677165
20
1.3681511023622046
11
1.8535792519685039
21
1.3765476771653542
0
LINE
8
BLACK
6
CONTINUOUS
10
1.8535792519685039
20
1.3765476771653542
11
1.858893188976378
21
1.3841367716535433
0
LINE
8
BLACK
6
CONTINUOUS
10
1.858893188976378
20
1.3841367716535433
11
1.8654442519685039
21
1.3906878346456693
0
LINE
8
BLACK
6
CONTINUOUS
10
1.8654442519685039
20
1.3906878346456693
11
1.8730333464566928
21
1.3960017716535433
0
LINE
8
BLACK
6
CONTINUOUS
10
1.8730333464566928
20
1.3960017716535433
11
1.8814299212598424
21
1.3999171653543308
0
LINE
8
BLACK
6
CONTINUOUS
10
1.8814299212598424
20
1.3999171653543308
11
1.8903788188976378
21
1.402315
0
LINE
8
BLACK
6
CONTINUOUS
10
1.8903788188976378
20
1.402315
11
1.8996081496062991
21
1.4031224803149607
0
LINE
8
BLACK
6
CONTINUOUS
10
1.8996081496062991
20
1.4031224803149607
11
1.9088374803149606
21
1.402315
0
LINE
8
BLACK
6
CONTINUOUS
10
2.1088374803149605
20
1.402315
11
2.1177863779527559
21
1.3999171653543308
0
LINE
8
BLACK
6
CONTINUOUS
10
2.1177863779527559
20
1.3999171653543308
11
2.1261829527559053
21
1.3960017716535433
0
LINE
8
BLACK
6
CONTINUOUS
10
2.1261829527559053
20
1.3960017716535433
11
2.1337720472440944
21
1.3906878346456693
0
LINE
8
BLACK
6
CONTINUOUS
10
2.1337720472440944
20
1.3906878346456693
11
2.1403231102362206
21
1.3841367716535433
0
LINE
8
BLACK
6
CONTINUOUS
10
2.1403231102362206
20
1.3841367716535433
11
2.1456370472440947
21
1.3765476771653542
0
LINE
8
BLACK
6
CONTINUOUS
10
2.1456370472440947
20
1.3765476771653542
11
2.1495524409448818
21
1.3681511023622046
0
LINE
8
BLACK
6
CONTINUOUS
10
2.1495524409448818
20
1.3681511023622046
11
2.1519502755905511
21
1.3592022047244094
0
LINE
8
BLACK
6
CONTINUOUS
10
2.1519502755905511
20
1.3592022047244094
11
2.1527577559055118
21
1.3499728740157479
0
LINE
8
BLACK
6
CONTINUOUS
10
2.1527577559055118
20
1.3499728740157479
11
2.1519502755905511
21
1.3407435433070867
0
LINE
8
BLACK
6
CONTINUOUS
10
2.1519502755905511
20
1.3407435433070867
11
2.1495524409448818
21
1.3317946456692913
0
LINE
8
BLACK
6
CONTINUOUS
10
2.1495524409448818
20
1.3317946456692913
11
2.1456370472440947
21
1.3233980708661417
0
LINE
8
BLACK
6
CONTINUOUS
10
2.1456370472440947
20
1.3233980708661417
11
2.1403231102362206
21
1.3158089763779528
0
LINE
8
BLACK
6
CONTINUOUS
10
2.1403231102362206
20
1.3158089763779528
11
2.1337720472440944
21
1.3092579133858266
0
LINE
8
BLACK
6
CONTINUOUS
10
2.1337720472440944
20
1.3092579133858266
11
2.1261829527559053
21
1.3039439763779528
0
LINE
8
BLACK
6
CONTINUOUS
10
2.1261829527559053
20
1.3039439763779528
11
2.1177863779527559
21
1.3000285826771654
0
LINE
8
BLACK
6
CONTINUOUS
10
2.1177863779527559
20
1.3000285826771654
11
2.1088374803149605
21
1.2976307480314961
0
LINE
8
BLACK
6
CONTINUOUS
10
2.1088374803149605
20
1.2976307480314961
11
2.0996081496062993
21
1.2968232677165354
0
LINE
8
BLACK
6
CONTINUOUS
10
2.0996081496062993
20
1.2968232677165354
11
2.0903788188976375
21
1.2976307480314961
0
LINE
8
BLACK
6
CONTINUOUS
10
2.0903788188976375
20
1.2976307480314961
11
2.0814299212598426
21
1.3000285826771654
0
LINE
8
BLACK
6
CONTINUOUS
10
2.0814299212598426
20
1.3000285826771654
11
2.0730333464566928
21
1.3039439763779528
0
LINE
8
BLACK
6
CONTINUOUS
10
2.0730333464566928
20
1.3039439763779528
11
2.0654442519685037
21
1.3092579133858266
0
LINE
8
BLACK
6
CONTINUOUS
10
2.0654442519685037
20
1.3092579133858266
11
2.058893188976378
21
1.3158089763779528
0
LINE
8
BLACK
6
CONTINUOUS
10
2.058893188976378
20
1.3158089763779528
11
2.0535792519685039
21
1.3233980708661417
0
LINE
8
BLACK
6
CONTINUOUS
10
2.0535792519685039
20
1.3233980708661417
11
2.0496638582677167
21
1.3317946456692913
0
LINE
8
BLACK
6
CONTINUOUS
10
2.0496638582677167
20
1.3317946456692913
11
2.047266023622047
21
1.3407435433070867
0
LINE
8
BLACK
6
CONTINUOUS
10
2.047266023622047
20
1.3407435433070867
11
2.0464585433070868
21
1.3499728740157479
0
LINE
8
BLACK
6
CONTINUOUS
10
2.0464585433070868
20
1.3499728740157479
11
2.047266023622047
21
1.3592022047244094
0
LINE
8
BLACK
6
CONTINUOUS
10
2.047266023622047
20
1.3592022047244094
11
2.0496638582677167
21
1.3681511023622046
0
LINE
8
BLACK
6
CONTINUOUS
10
2.0496638582677167
20
1.3681511023622046
11
2.0535792519685039
21
1.3765476771653542
0
LINE
8
BLACK
6
CONTINUOUS
10
2.0535792519685039
20
1.3765476771653542
11
2.058893188976378
21
1.3841367716535433
0
LINE
8
BLACK
6
CONTINUOUS
10
2.058893188976378
20
1.3841367716535433
11
2.0654442519685037
21
1.3906878346456693
0
LINE
8
BLACK
6
CONTINUOUS
10
2.0654442519685037
20
1.3906878346456693
11
2.0730333464566928
21
1.3960017716535433
0
LINE
8
BLACK
6
CONTINUOUS
10
2.0730333464566928
20
1.3960017716535433
11
2.0814299212598426
21
1.3999171653543308
0
LINE
8
BLACK
6
CONTINUOUS
10
2.0814299212598426
20
1.3999171653543308
11
2.0903788188976375
21
1.402315
0
LINE
8
BLACK
6
CONTINUOUS
10
2.0903788188976375
20
1.402315
11
2.0996081496062993
21
1.4031224803149607
0
LINE
8
BLACK
6
CONTINUOUS
10
2.0996081496062993
20
1.4031224803149607
11
2.1088374803149605
21
1.402315
0
LINE
8
BLACK
6
CONTINUOUS
10
-0.0703918503937008
20
1.3199728740157479
11
-0.1303918503937008
21
1.3199728740157479
0
LINE
8
BLACK
6
CONTINUOUS
10
-0.1303918503937008
20
1.3199728740157479
11
-0.1303918503937008
21
1.379972874015748
0
LINE
8
BLACK
6
CONTINUOUS
10
-0.1303918503937008
20
1.379972874015748
11
-0.0703918503937008
21
1.379972874015748
0
LINE
8
BLACK
6
CONTINUOUS
10
-0.0703918503937008
20
1.379972874015748
11
-0.0703918503937008
21
1.3199728740157479
0
LINE
8
BLACK
6
CONTINUOUS
10
0.0296081496062992
20
1.3199728740157479
11
-0.0303918503937008
21
1.3199728740157479
0
LINE
8
BLACK
6
CONTINUOUS
10
-0.0303918503937008
20
1.3199728740157479
11
-0.0303918503937008
21
1.379972874015748
0
LINE
8
BLACK
6
CONTINUOUS
10
-0.0303918503937008
20
1.379972874015748
11
0.0296081496062992
21
1.379972874015748
0
LINE
8
BLACK
6
CONTINUOUS
10
0.0296081496062992
20
1.379972874015748
11
0.0296081496062992
21
1.3199728740157479
0
LINE
8
BLACK
6
CONTINUOUS
10
0.38
20
1.338031496062992
11
0.32
21
1.338031496062992
0
LINE
8
BLACK
6
CONTINUOUS
10
0.32
20
1.338031496062992
11
0.32
21
1.398031496062992
0
LINE
8
BLACK
6
CONTINUOUS
10
0.32
20
1.398031496062992
11
0.38
21
1.398031496062992
0
LINE
8
BLACK
6
CONTINUOUS
10
0.38
20
1.398031496062992
11
0.38
21
1.338031496062992
0
LINE
8
BLACK
6
CONTINUOUS
10
0.48
20
1.338031496062992
11
0.42
21
1.338031496062992
0
LINE
8
BLACK
6
CONTINUOUS
10
0.42
20
1.338031496062992
11
0.42
21
1.398031496062992
0
LINE
8
BLACK
6
CONTINUOUS
10
0.42
20
1.398031496062992
11
0.48
21
1.398031496062992
0
LINE
8
BLACK
6
CONTINUOUS
10
0.48
20
1.398031496062992
11
0.48
21
1.338031496062992
0
LINE
8
BLACK
6
CONTINUOUS
10
0.4205096456692913
20
1.7163158661417321
11
0.4338744094488189
21
1.7131483858267715
0
LINE
8
BLACK
6
CONTINUOUS
10
0.4338744094488189
20
1.7131483858267715
11
0.446781062992126
21
1.7084507086614173
0
LINE
8
BLACK
6
CONTINUOUS
10
0.446781062992126
20
1.7084507086614173
11
0.4590551181102362
21
1.7022864566929135
0
LINE
8
BLACK
6
CONTINUOUS
10
0.4590551181102362
20
1.7022864566929135
11
0.4705305511811024
21
1.6947389763779528
0
LINE
8
BLACK
6
CONTINUOUS
10
0.4705305511811024
20
1.6947389763779528
11
0.4810521653543307
21
1.6859102755905511
0
LINE
8
BLACK
6
CONTINUOUS
10
0.4810521653543307
20
1.6859102755905511
11
0.4904776771653543
21
1.6759198031496063
0
LINE
8
BLACK
6
CONTINUOUS
10
0.4904776771653543
20
1.6759198031496063
11
0.4986796456692913
21
1.6649026377952756
0
LINE
8
BLACK
6
CONTINUOUS
10
0.4986796456692913
20
1.6649026377952756
11
0.5055471653543308
21
1.6530077952755906
0
LINE
8
BLACK
6
CONTINUOUS
10
0.5055471653543308
20
1.6530077952755906
11
0.5109873228346457
21
1.6403960629921259
0
LINE
8
BLACK
6
CONTINUOUS
10
0.5109873228346457
20
1.6403960629921259
11
0.5149265748031496
21
1.6272381102362203
0
LINE
8
BLACK
6
CONTINUOUS
10
0.5149265748031496
20
1.6272381102362203
11
0.5173116141732284
21
1.6137117716535432
0
LINE
8
BLACK
6
CONTINUOUS
10
0.5173116141732284
20
1.6137117716535432
11
0.5181102362204725
21
1.5999999999999999
0
LINE
8
BLACK
6
CONTINUOUS
10
0.5181102362204725
20
1.5999999999999999
11
0.5173116141732284
21
1.5862882283464566
0
LINE
8
BLACK
6
CONTINUOUS
10
0.5173116141732284
20
1.5862882283464566
11
0.5149265748031496
21
1.5727618897637794
0
LINE
8
BLACK
6
CONTINUOUS
10
0.5149265748031496
20
1.5727618897637794
11
0.5109873228346457
21
1.559603937007874
0
LINE
8
BLACK
6
CONTINUOUS
10
0.5109873228346457
20
1.559603937007874
11
0.5055471653543308
21
1.5469922047244093
0
LINE
8
BLACK
6
CONTINUOUS
10
0.5055471653543308
20
1.5469922047244093
11
0.4986796456692913
21
1.5350973622047244
0
LINE
8
BLACK
6
CONTINUOUS
10
0.4986796456692913
20
1.5350973622047244
11
0.4904776771653543
21
1.5240801968503936
0
LINE
8
BLACK
6
CONTINUOUS
10
0.4904776771653543
20
1.5240801968503936
11
0.4810521653543307
21
1.5140897244094489
0
LINE
8
BLACK
6
CONTINUOUS
10
0.4810521653543307
20
1.5140897244094489
11
0.4705305511811024
21
1.5052610236220472
0
LINE
8
BLACK
6
CONTINUOUS
10
0.4705305511811024
20
1.5052610236220472
11
0.4590551181102362
21
1.4977135433070865
0
LINE
8
BLACK
6
CONTINUOUS
10
0.4590551181102362
20
1.4977135433070865
11
0.446781062992126
21
1.4915492913385826
0
LINE
8
BLACK
6
CONTINUOUS
10
0.446781062992126
20
1.4915492913385826
11
0.4338744094488189
21
1.4868516141732284
0
LINE
8
BLACK
6
CONTINUOUS
10
0.4338744094488189
20
1.4868516141732284
11
0.4205096456692913
21
1.4836841338582676
0
LINE
8
BLACK
6
CONTINUOUS
10
0.4205096456692913
20
1.4836841338582676
11
0.4068674803149606
21
1.4820896062992126
0
LINE
8
BLACK
6
CONTINUOUS
10
0.4068674803149606
20
1.4820896062992126
11
0.3931325196850394
21
1.4820896062992126
0
LINE
8
BLACK
6
CONTINUOUS
10
0.3931325196850394
20
1.4820896062992126
11
0.3794903543307087
21
1.4836841338582676
0
LINE
8
BLACK
6
CONTINUOUS
10
0.3794903543307087
20
1.4836841338582676
11
0.3661255905511811
21
1.4868516141732284
0
LINE
8
BLACK
6
CONTINUOUS
10
0.3661255905511811
20
1.4868516141732284
11
0.353218937007874
21
1.4915492913385826
0
LINE
8
BLACK
6
CONTINUOUS
10
0.353218937007874
20
1.4915492913385826
11
0.3409448818897638
21
1.4977135433070865
0
LINE
8
BLACK
6
CONTINUOUS
10
0.3409448818897638
20
1.4977135433070865
11
0.3294694488188976
21
1.5052610236220472
0
LINE
8
BLACK
6
CONTINUOUS
10
0.3294694488188976
20
1.5052610236220472
11
0.3189478346456693
21
1.5140897244094489
0
LINE
8
BLACK
6
CONTINUOUS
10
0.3189478346456693
20
1.5140897244094489
11
0.3095223228346456
21
1.5240801968503936
0
LINE
8
BLACK
6
CONTINUOUS
10
0.3095223228346456
20
1.5240801968503936
11
0.3013203543307086
21
1.5350973622047244
0
LINE
8
BLACK
6
CONTINUOUS
10
0.3013203543307086
20
1.5350973622047244
11
0.2944528346456693
21
1.5469922047244093
0
LINE
8
BLACK
6
CONTINUOUS
10
0.2944528346456693
20
1.5469922047244093
11
0.2890126771653543
21
1.559603937007874
0
LINE
8
BLACK
6
CONTINUOUS
10
0.2890126771653543
20
1.559603937007874
11
0.2850734251968504
21
1.5727618897637794
0
LINE
8
BLACK
6
CONTINUOUS
10
0.2850734251968504
20
1.5727618897637794
11
0.2826883858267716
21
1.5862882283464566
0
LINE
8
BLACK
6
CONTINUOUS
10
0.2826883858267716
20
1.5862882283464566
11
0.2818897637795276
21
1.5999999999999999
0
LINE
8
BLACK
6
CONTINUOUS
10
0.2818897637795276
20
1.5999999999999999
11
0.2826883858267716
21
1.6137117716535432
0
LINE
8
BLACK
6
CONTINUOUS
10
0.2826883858267716
20
1.6137117716535432
11
0.2850734251968504
21
1.6272381102362203
0
LINE
8
BLACK
6
CONTINUOUS
10
0.2850734251968504
20
1.6272381102362203
11
0.2890126771653543
21
1.6403960629921259
0
LINE
8
BLACK
6
CONTINUOUS
10
0.2890126771653543
20
1.6403960629921259
11
0.2944528346456693
21
1.6530077952755906
0
LINE
8
BLACK
6
CONTINUOUS
10
0.2944528346456693
20
1.6530077952755906
11
0.3013203543307086
21
1.6649026377952756
0
LINE
8
BLACK
6
CONTINUOUS
10
0.3013203543307086
20
1.6649026377952756
11
0.3095223228346456
21
1.6759198031496063
0
LINE
8
BLACK
6
CONTINUOUS
10
0.3095223228346456
20
1.6759198031496063
11
0.3189478346456693
21
1.6859102755905511
0
LINE
8
BLACK
6
CONTINUOUS
10
0.3189478346456693
20
1.6859102755905511
11
0.3294694488188976
21
1.6947389763779528
0
LINE
8
BLACK
6
CONTINUOUS
10
0.3294694488188976
20
1.6947389763779528
11
0.3409448818897638
21
1.7022864566929135
0
LINE
8
BLACK
6
CONTINUOUS
10
0.3409448818897638
20
1.7022864566929135
11
0.353218937007874
21
1.7084507086614173
0
LINE
8
BLACK
6
CONTINUOUS
10
0.353218937007874
20
1.7084507086614173
11
0.3661255905511811
21
1.7131483858267715
0
LINE
8
BLACK
6
CONTINUOUS
10
0.3661255905511811
20
1.7131483858267715
11
0.3794903543307087
21
1.7163158661417321
0
LINE
8
BLACK
6
CONTINUOUS
10
0.3794903543307087
20
1.7163158661417321
11
0.3931325196850394
21
1.7179103937007874
0
LINE
8
BLACK
6
CONTINUOUS
10
0.3931325196850394
20
1.7179103937007874
11
0.4068674803149606
21
1.7179103937007874
0
LINE
8
BLACK
6
CONTINUOUS
10
0.4068674803149606
20
1.7179103937007874
11
0.4205096456692913
21
1.7163158661417321
0
LINE
8
BLACK
6
CONTINUOUS
10
2.0205096456692915
20
1.7163158661417321
11
2.0338744094488188
21
1.7131483858267715
0
LINE
8
BLACK
6
CONTINUOUS
10
2.0338744094488188
20
1.7131483858267715
11
2.0467810629921259
21
1.7084507086614173
0
LINE
8
BLACK
6
CONTINUOUS
10
2.0467810629921259
20
1.7084507086614173
11
2.0590551181102361
21
1.7022864566929135
0
LINE
8
BLACK
6
CONTINUOUS
10
2.0590551181102361
20
1.7022864566929135
11
2.0705305511811023
21
1.6947389763779528
0
LINE
8
BLACK
6
CONTINUOUS
10
2.0705305511811023
20
1.6947389763779528
11
2.0810521653543308
21
1.6859102755905511
0
LINE
8
BLACK
6
CONTINUOUS
10
2.0810521653543308
20
1.6859102755905511
11
2.0904776771653544
21
1.6759198031496063
0
LINE
8
BLACK
6
CONTINUOUS
10
2.0904776771653544
20
1.6759198031496063
11
2.0986796456692911
21
1.6649026377952756
0
LINE
8
BLACK
6
CONTINUOUS
10
2.0986796456692911
20
1.6649026377952756
11
2.1055471653543307
21
1.6530077952755906
0
LINE
8
BLACK
6
CONTINUOUS
10
2.1055471653543307
20
1.6530077952755906
11
2.1109873228346454
21
1.6403960629921259
0
LINE
8
BLACK
6
CONTINUOUS
10
2.1109873228346454
20
1.6403960629921259
11
2.1149265748031496
21
1.6272381102362203
0
LINE
8
BLACK
6
CONTINUOUS
10
2.1149265748031496
20
1.6272381102362203
11
2.1173116141732282
21
1.6137117716535432
0
LINE
8
BLACK
6
CONTINUOUS
10
2.1173116141732282
20
1.6137117716535432
11
2.1181102362204722
21
1.5999999999999999
0
LINE
8
BLACK
6
CONTINUOUS
10
2.1181102362204722
20
1.5999999999999999
11
2.1173116141732282
21
1.5862882283464566
0
LINE
8
BLACK
6
CONTINUOUS
10
2.1173116141732282
20
1.5862882283464566
11
2.1149265748031496
21
1.5727618897637794
0
LINE
8
BLACK
6
CONTINUOUS
10
2.1149265748031496
20
1.5727618897637794
11
2.1109873228346454
21
1.559603937007874
0
LINE
8
BLACK
6
CONTINUOUS
10
2.1109873228346454
20
1.559603937007874
11
2.1055471653543307
21
1.5469922047244093
0
LINE
8
BLACK
6
CONTINUOUS
10
2.1055471653543307
20
1.5469922047244093
11
2.0986796456692911
21
1.5350973622047244
0
LINE
8
BLACK
6
CONTINUOUS
10
2.0986796456692911
20
1.5350973622047244
11
2.0904776771653544
21
1.5240801968503936
0
LINE
8
BLACK
6
CONTINUOUS
10
2.0904776771653544
20
1.5240801968503936
11
2.0810521653543308
21
1.5140897244094489
0
LINE
8
BLACK
6
CONTINUOUS
10
2.0810521653543308
20
1.5140897244094489
11
2.0705305511811023
21
1.5052610236220472
0
LINE
8
BLACK
6
CONTINUOUS
10
2.0705305511811023
20
1.5052610236220472
11
2.0590551181102361
21
1.4977135433070865
0
LINE
8
BLACK
6
CONTINUOUS
10
2.0590551181102361
20
1.4977135433070865
11
2.0467810629921259
21
1.4915492913385826
0
LINE
8
BLACK
6
CONTINUOUS
10
2.0467810629921259
20
1.4915492913385826
11
2.0338744094488188
21
1.4868516141732284
0
LINE
8
BLACK
6
CONTINUOUS
10
2.0338744094488188
20
1.4868516141732284
11
2.0205096456692915
21
1.4836841338582676
0
LINE
8
BLACK
6
CONTINUOUS
10
2.0205096456692915
20
1.4836841338582676
11
2.0068674803149604
21
1.4820896062992126
0
LINE
8
BLACK
6
CONTINUOUS
10
2.0068674803149604
20
1.4820896062992126
11
1.9931325196850393
21
1.4820896062992126
0
LINE
8
BLACK
6
CONTINUOUS
10
1.9931325196850393
20
1.4820896062992126
11
1.9794903543307085
21
1.4836841338582676
0
LINE
8
BLACK
6
CONTINUOUS
10
1.9794903543307085
20
1.4836841338582676
11
1.966125590551181
21
1.4868516141732284
0
LINE
8
BLACK
6
CONTINUOUS
10
1.966125590551181
20
1.4868516141732284
11
1.9532189370078741
21
1.4915492913385826
0
LINE
8
BLACK
6
CONTINUOUS
10
1.9532189370078741
20
1.4915492913385826
11
1.9409448818897637
21
1.4977135433070865
0
LINE
8
BLACK
6
CONTINUOUS
10
1.9409448818897637
20
1.4977135433070865
11
1.9294694488188977
21
1.5052610236220472
0
LINE
8
BLACK
6
CONTINUOUS
10
1.9294694488188977
20
1.5052610236220472
11
1.9189478346456692
21
1.5140897244094489
0
LINE
8
BLACK
6
CONTINUOUS
10
1.9189478346456692
20
1.5140897244094489
11
1.9095223228346456
21
1.5240801968503936
0
LINE
8
BLACK
6
CONTINUOUS
10
1.9095223228346456
20
1.5240801968503936
11
1.9013203543307087
21
1.5350973622047244
0
LINE
8
BLACK
6
CONTINUOUS
10
1.9013203543307087
20
1.5350973622047244
11
1.8944528346456693
21
1.5469922047244093
0
LINE
8
BLACK
6
CONTINUOUS
10
1.8944528346456693
20
1.5469922047244093
11
1.8890126771653544
21
1.559603937007874
0
LINE
8
BLACK
6
CONTINUOUS
10
1.8890126771653544
20
1.559603937007874
11
1.8850734251968504
21
1.5727618897637794
0
LINE
8
BLACK
6
CONTINUOUS
10
1.8850734251968504
20
1.5727618897637794
11
1.8826883858267716
21
1.5862882283464566
0
LINE
8
BLACK
6
CONTINUOUS
10
1.8826883858267716
20
1.5862882283464566
11
1.8818897637795275
21
1.5999999999999999
0
LINE
8
BLACK
6
CONTINUOUS
10
1.8818897637795275
20
1.5999999999999999
11
1.8826883858267716
21
1.6137117716535432
0
LINE
8
BLACK
6
CONTINUOUS
10
1.8826883858267716
20
1.6137117716535432
11
1.8850734251968504
21
1.6272381102362203
0
LINE
8
BLACK
6
CONTINUOUS
10
1.8850734251968504
20
1.6272381102362203
11
1.8890126771653544
21
1.6403960629921259
0
LINE
8
BLACK
6
CONTINUOUS
10
1.8890126771653544
20
1.6403960629921259
11
1.8944528346456693
21
1.6530077952755906
0
LINE
8
BLACK
6
CONTINUOUS
10
1.8944528346456693
20
1.6530077952755906
11
1.9013203543307087
21
1.6649026377952756
0
LINE
8
BLACK
6
CONTINUOUS
10
1.9013203543307087
20
1.6649026377952756
11
1.9095223228346456
21
1.6759198031496063
0
LINE
8
BLACK
6
CONTINUOUS
10
1.9095223228346456
20
1.6759198031496063
11
1.9189478346456692
21
1.6859102755905511
0
LINE
8
BLACK
6
CONTINUOUS
10
1.9189478346456692
20
1.6859102755905511
11
1.9294694488188977
21
1.6947389763779528
0
LINE
8
BLACK
6
CONTINUOUS
10
1.9294694488188977
20
1.6947389763779528
11
1.9409448818897637
21
1.7022864566929135
0
LINE
8
BLACK
6
CONTINUOUS
10
1.9409448818897637
20
1.7022864566929135
11
1.9532189370078741
21
1.7084507086614173
0
LINE
8
BLACK
6
CONTINUOUS
10
1.9532189370078741
20
1.7084507086614173
11
1.966125590551181
21
1.7131483858267715
0
LINE
8
BLACK
6
CONTINUOUS
10
1.966125590551181
20
1.7131483858267715
11
1.9794903543307085
21
1.7163158661417321
0
LINE
8
BLACK
6
CONTINUOUS
10
1.9794903543307085
20
1.7163158661417321
11
1.9931325196850393
21
1.7179103937007874
0
LINE
8
BLACK
6
CONTINUOUS
10
1.9931325196850393
20
1.7179103937007874
11
2.0068674803149604
21
1.7179103937007874
0
LINE
8
BLACK
6
CONTINUOUS
10
2.0068674803149604
20
1.7179103937007874
11
2.0205096456692915
21
1.7163158661417321
0
LINE
8
BLACK
6
CONTINUOUS
10
1.7152726771653544
20
1.620373622047244
11
1.7242215748031495
21
1.6179757874015748
0
LINE
8
BLACK
6
CONTINUOUS
10
1.7242215748031495
20
1.6179757874015748
11
1.7326181496062991
21
1.6140603937007874
0
LINE
8
BLACK
6
CONTINUOUS
10
1.7326181496062991
20
1.6140603937007874
11
1.7402072440944882
21
1.6087464566929133
0
LINE
8
BLACK
6
CONTINUOUS
10
1.7402072440944882
20
1.6087464566929133
11
1.7467583070866142
21
1.6021953937007873
0
LINE
8
BLACK
6
CONTINUOUS
10
1.7467583070866142
20
1.6021953937007873
11
1.7520722440944883
21
1.5946062992125984
0
LINE
8
BLACK
6
CONTINUOUS
10
1.7520722440944883
20
1.5946062992125984
11
1.7559876377952754
21
1.5862097244094489
0
LINE
8
BLACK
6
CONTINUOUS
10
1.7559876377952754
20
1.5862097244094489
11
1.7583854724409449
21
1.5772608267716535
0
LINE
8
BLACK
6
CONTINUOUS
10
1.7583854724409449
20
1.5772608267716535
11
1.7591929527559054
21
1.5680314960629922
0
LINE
8
BLACK
6
CONTINUOUS
10
1.7591929527559054
20
1.5680314960629922
11
1.7583854724409449
21
1.5588021653543307
0
LINE
8
BLACK
6
CONTINUOUS
10
1.7583854724409449
20
1.5588021653543307
11
1.7559876377952754
21
1.5498532677165353
0
LINE
8
BLACK
6
CONTINUOUS
10
1.7559876377952754
20
1.5498532677165353
11
1.7520722440944883
21
1.5414566929133857
0
LINE
8
BLACK
6
CONTINUOUS
10
1.7520722440944883
20
1.5414566929133857
11
1.7467583070866142
21
1.5338675984251968
0
LINE
8
BLACK
6
CONTINUOUS
10
1.7467583070866142
20
1.5338675984251968
11
1.7402072440944882
21
1.5273165354330709
0
LINE
8
BLACK
6
CONTINUOUS
10
1.7402072440944882
20
1.5273165354330709
11
1.7326181496062991
21
1.5220025984251968
0
LINE
8
BLACK
6
CONTINUOUS
10
1.7326181496062991
20
1.5220025984251968
11
1.7242215748031495
21
1.5180872047244094
0
LINE
8
BLACK
6
CONTINUOUS
10
1.7242215748031495
20
1.5180872047244094
11
1.7152726771653544
21
1.5156893700787402
0
LINE
8
BLACK
6
CONTINUOUS
10
1.7152726771653544
20
1.5156893700787402
11
1.7060433464566929
21
1.5148818897637795
0
LINE
8
BLACK
6
CONTINUOUS
10
1.7060433464566929
20
1.5148818897637795
11
1.6968140157480314
21
1.5156893700787402
0
LINE
8
BLACK
6
CONTINUOUS
10
1.6968140157480314
20
1.5156893700787402
11
1.6878651181102362
21
1.5180872047244094
0
LINE
8
BLACK
6
CONTINUOUS
10
1.6878651181102362
20
1.5180872047244094
11
1.6794685433070866
21
1.5220025984251968
0
LINE
8
BLACK
6
CONTINUOUS
10
1.6794685433070866
20
1.5220025984251968
11
1.6718794488188975
21
1.5273165354330709
0
LINE
8
BLACK
6
CONTINUOUS
10
1.6718794488188975
20
1.5273165354330709
11
1.6653283858267716
21
1.5338675984251968
0
LINE
8
BLACK
6
CONTINUOUS
10
1.6653283858267716
20
1.5338675984251968
11
1.6600144488188977
21
1.5414566929133857
0
LINE
8
BLACK
6
CONTINUOUS
10
1.6600144488188977
20
1.5414566929133857
11
1.6560990551181103
21
1.5498532677165353
0
LINE
8
BLACK
6
CONTINUOUS
10
1.6560990551181103
20
1.5498532677165353
11
1.6537012204724408
21
1.5588021653543307
0
LINE
8
BLACK
6
CONTINUOUS
10
1.6537012204724408
20
1.5588021653543307
11
1.6528937401574804
21
1.5680314960629922
0
LINE
8
BLACK
6
CONTINUOUS
10
1.6528937401574804
20
1.5680314960629922
11
1.6537012204724408
21
1.5772608267716535
0
LINE
8
BLACK
6
CONTINUOUS
10
1.6537012204724408
20
1.5772608267716535
11
1.6560990551181103
21
1.5862097244094489
0
LINE
8
BLACK
6
CONTINUOUS
10
1.6560990551181103
20
1.5862097244094489
11
1.6600144488188977
21
1.5946062992125984
0
LINE
8
BLACK
6
CONTINUOUS
10
1.6600144488188977
20
1.5946062992125984
11
1.6653283858267716
21
1.6021953937007873
0
LINE
8
BLACK
6
CONTINUOUS
10
1.6653283858267716
20
1.6021953937007873
11
1.6718794488188975
21
1.6087464566929133
0
LINE
8
BLACK
6
CONTINUOUS
10
1.6718794488188975
20
1.6087464566929133
11
1.6794685433070866
21
1.6140603937007874
0
LINE
8
BLACK
6
CONTINUOUS
10
1.6794685433070866
20
1.6140603937007874
11
1.6878651181102362
21
1.6179757874015748
0
LINE
8
BLACK
6
CONTINUOUS
10
1.6878651181102362
20
1.6179757874015748
11
1.6968140157480314
21
1.620373622047244
0
LINE
8
BLACK
6
CONTINUOUS
10
1.6968140157480314
20
1.620373622047244
11
1.7060433464566929
21
1.6211811023622047
0
LINE
8
BLACK
6
CONTINUOUS
10
1.7060433464566929
20
1.6211811023622047
11
1.7152726771653544
21
1.620373622047244
0
LINE
8
BLACK
6
CONTINUOUS
10
0.9035433070866141
20
1.5480314960629922
11
0.8435433070866142
21
1.5480314960629922
0
LINE
8
BLACK
6
CONTINUOUS
10
0.8435433070866142
20
1.5480314960629922
11
0.8435433070866142
21
1.608031496062992
0
LINE
8
BLACK
6
CONTINUOUS
10
0.8435433070866142
20
1.608031496062992
11
0.9035433070866141
21
1.608031496062992
0
LINE
8
BLACK
6
CONTINUOUS
10
0.9035433070866141
20
1.608031496062992
11
0.9035433070866141
21
1.5480314960629922
0
LINE
8
BLACK
6
CONTINUOUS
10
1.0035433070866142
20
1.5480314960629922
11
0.9435433070866142
21
1.5480314960629922
0
LINE
8
BLACK
6
CONTINUOUS
10
0.9435433070866142
20
1.5480314960629922
11
0.9435433070866142
21
1.608031496062992
0
LINE
8
BLACK
6
CONTINUOUS
10
0.9435433070866142
20
1.608031496062992
11
1.0035433070866142
21
1.608031496062992
0
LINE
8
BLACK
6
CONTINUOUS
10
1.0035433070866142
20
1.608031496062992
11
1.0035433070866142
21
1.5480314960629922
0
LINE
8
BLACK
6
CONTINUOUS
10
0.6035433070866142
20
1.5680314960629922
11
0.5435433070866141
21
1.5680314960629922
0
LINE
8
BLACK
6
CONTINUOUS
10
0.5435433070866141
20
1.5680314960629922
11
0.5435433070866141
21
1.628031496062992
0
LINE
8
BLACK
6
CONTINUOUS
10
0.5435433070866141
20
1.628031496062992
11
0.6035433070866142
21
1.628031496062992
0
LINE
8
BLACK
6
CONTINUOUS
10
0.6035433070866142
20
1.628031496062992
11
0.6035433070866142
21
1.5680314960629922
0
LINE
8
BLACK
6
CONTINUOUS
10
0.7035433070866142
20
1.5699728740157479
11
0.6435433070866141
21
1.5699728740157479
0
LINE
8
BLACK
6
CONTINUOUS
10
0.6435433070866141
20
1.5699728740157479
11
0.6435433070866141
21
1.629972874015748
0
LINE
8
BLACK
6
CONTINUOUS
10
0.6435433070866141
20
1.629972874015748
11
0.7035433070866142
21
1.629972874015748
0
LINE
8
BLACK
6
CONTINUOUS
10
0.7035433070866142
20
1.629972874015748
11
0.7035433070866142
21
1.5699728740157479
0
LINE
8
BLACK
6
CONTINUOUS
10
0.8035433070866141
20
1.5699728740157479
11
0.7435433070866142
21
1.5699728740157479
0
LINE
8
BLACK
6
CONTINUOUS
10
0.7435433070866142
20
1.5699728740157479
11
0.7435433070866142
21
1.629972874015748
0
LINE
8
BLACK
6
CONTINUOUS
10
0.7435433070866142
20
1.629972874015748
11
0.8035433070866141
21
1.629972874015748
0
LINE
8
BLACK
6
CONTINUOUS
10
0.8035433070866141
20
1.629972874015748
11
0.8035433070866141
21
1.5699728740157479
0
LINE
8
BLACK
6
CONTINUOUS
10
0.9035433070866141
20
1.648031496062992
11
0.8435433070866142
21
1.648031496062992
0
LINE
8
BLACK
6
CONTINUOUS
10
0.8435433070866142
20
1.648031496062992
11
0.8435433070866142
21
1.7080314960629921
0
LINE
8
BLACK
6
CONTINUOUS
10
0.8435433070866142
20
1.7080314960629921
11
0.9035433070866141
21
1.7080314960629921
0
LINE
8
BLACK
6
CONTINUOUS
10
0.9035433070866141
20
1.7080314960629921
11
0.9035433070866141
21
1.648031496062992
0
LINE
8
BLACK
6
CONTINUOUS
10
1.0035433070866142
20
1.648031496062992
11
0.9435433070866142
21
1.648031496062992
0
LINE
8
BLACK
6
CONTINUOUS
10
0.9435433070866142
20
1.648031496062992
11
0.9435433070866142
21
1.7080314960629921
0
LINE
8
BLACK
6
CONTINUOUS
10
0.9435433070866142
20
1.7080314960629921
11
1.0035433070866142
21
1.7080314960629921
0
LINE
8
BLACK
6
CONTINUOUS
10
1.0035433070866142
20
1.7080314960629921
11
1.0035433070866142
21
1.648031496062992
0
LINE
8
BLACK
6
CONTINUOUS
10
1.7152726377952756
20
1.7603736220472441
11
1.7242215354330708
21
1.7579757874015747
0
LINE
8
BLACK
6
CONTINUOUS
10
1.7242215354330708
20
1.7579757874015747
11
1.7326181102362204
21
1.7540603937007873
0
LINE
8
BLACK
6
CONTINUOUS
10
1.7326181102362204
20
1.7540603937007873
11
1.7402072047244095
21
1.7487464566929134
0
LINE
8
BLACK
6
CONTINUOUS
10
1.7402072047244095
20
1.7487464566929134
11
1.7467582677165354
21
1.7421953937007875
0
LINE
8
BLACK
6
CONTINUOUS
10
1.7467582677165354
20
1.7421953937007875
11
1.7520722047244095
21
1.7346062992125983
0
LINE
8
BLACK
6
CONTINUOUS
10
1.7520722047244095
20
1.7346062992125983
11
1.7559875984251969
21
1.7262097244094488
0
LINE
8
BLACK
6
CONTINUOUS
10
1.7559875984251969
20
1.7262097244094488
11
1.7583854330708661
21
1.7172608267716536
0
LINE
8
BLACK
6
CONTINUOUS
10
1.7583854330708661
20
1.7172608267716536
11
1.7591929133858268
21
1.7080314960629921
0
LINE
8
BLACK
6
CONTINUOUS
10
1.7591929133858268
20
1.7080314960629921
11
1.7583854330708661
21
1.6988021653543306
0
LINE
8
BLACK
6
CONTINUOUS
10
1.7583854330708661
20
1.6988021653543306
11
1.7559875984251969
21
1.6898532677165354
0
LINE
8
BLACK
6
CONTINUOUS
10
1.7559875984251969
20
1.6898532677165354
11
1.7520722047244095
21
1.6814566929133858
0
LINE
8
BLACK
6
CONTINUOUS
10
1.7520722047244095
20
1.6814566929133858
11
1.7467582677165354
21
1.6738675984251967
0
LINE
8
BLACK
6
CONTINUOUS
10
1.7467582677165354
20
1.6738675984251967
11
1.7402072047244095
21
1.6673165354330708
0
LINE
8
BLACK
6
CONTINUOUS
10
1.7402072047244095
20
1.6673165354330708
11
1.7326181102362204
21
1.6620025984251967
0
LINE
8
BLACK
6
CONTINUOUS
10
1.7326181102362204
20
1.6620025984251967
11
1.7242215354330708
21
1.6580872047244095
0
LINE
8
BLACK
6
CONTINUOUS
10
1.7242215354330708
20
1.6580872047244095
11
1.7152726377952756
21
1.6556893700787401
0
LINE
8
BLACK
6
CONTINUOUS
10
1.7152726377952756
20
1.6556893700787401
11
1.7060433070866141
21
1.6548818897637796
0
LINE
8
BLACK
6
CONTINUOUS
10
1.7060433070866141
20
1.6548818897637796
11
1.6968139763779526
21
1.6556893700787401
0
LINE
8
BLACK
6
CONTINUOUS
10
1.6968139763779526
20
1.6556893700787401
11
1.6878650787401575
21
1.6580872047244095
0
LINE
8
BLACK
6
CONTINUOUS
10
1.6878650787401575
20
1.6580872047244095
11
1.6794685039370079
21
1.6620025984251967
0
LINE
8
BLACK
6
CONTINUOUS
10
1.6794685039370079
20
1.6620025984251967
11
1.671879409448819
21
1.6673165354330708
0
LINE
8
BLACK
6
CONTINUOUS
10
1.671879409448819
20
1.6673165354330708
11
1.6653283464566928
21
1.6738675984251967
0
LINE
8
BLACK
6
CONTINUOUS
10
1.6653283464566928
20
1.6738675984251967
11
1.660014409448819
21
1.6814566929133858
0
LINE
8
BLACK
6
CONTINUOUS
10
1.660014409448819
20
1.6814566929133858
11
1.6560990157480315
21
1.6898532677165354
0
LINE
8
BLACK
6
CONTINUOUS
10
1.6560990157480315
20
1.6898532677165354
11
1.6537011811023621
21
1.6988021653543306
0
LINE
8
BLACK
6
CONTINUOUS
10
1.6537011811023621
20
1.6988021653543306
11
1.6528937007874016
21
1.7080314960629921
0
LINE
8
BLACK
6
CONTINUOUS
10
1.6528937007874016
20
1.7080314960629921
11
1.6537011811023621
21
1.7172608267716536
0
LINE
8
BLACK
6
CONTINUOUS
10
1.6537011811023621
20
1.7172608267716536
11
1.6560990157480315
21
1.7262097244094488
0
LINE
8
BLACK
6
CONTINUOUS
10
1.6560990157480315
20
1.7262097244094488
11
1.660014409448819
21
1.7346062992125983
0
LINE
8
BLACK
6
CONTINUOUS
10
1.660014409448819
20
1.7346062992125983
11
1.6653283464566928
21
1.7421953937007875
0
LINE
8
BLACK
6
CONTINUOUS
10
1.6653283464566928
20
1.7421953937007875
11
1.671879409448819
21
1.7487464566929134
0
LINE
8
BLACK
6
CONTINUOUS
10
1.671879409448819
20
1.7487464566929134
11
1.6794685039370079
21
1.7540603937007873
0
LINE
8
BLACK
6
CONTINUOUS
10
1.6794685039370079
20
1.7540603937007873
11
1.6878650787401575
21
1.7579757874015747
0
LINE
8
BLACK
6
CONTINUOUS
10
1.6878650787401575
20
1.7579757874015747
11
1.6968139763779526
21
1.7603736220472441
0
LINE
8
BLACK
6
CONTINUOUS
10
1.6968139763779526
20
1.7603736220472441
11
1.7060433070866141
21
1.7611811023622046
0
LINE
8
BLACK
6
CONTINUOUS
10
1.7060433070866141
20
1.7611811023622046
11
1.7152726377952756
21
1.7603736220472441
0
LINE
8
BLACK
6
CONTINUOUS
10
0.6035433070866142
20
1.6680314960629921
11
0.5435433070866141
21
1.6680314960629921
0
LINE
8
BLACK
6
CONTINUOUS
10
0.5435433070866141
20
1.6680314960629921
11
0.5435433070866141
21
1.7280314960629921
0
LINE
8
BLACK
6
CONTINUOUS
10
0.5435433070866141
20
1.7280314960629921
11
0.6035433070866142
21
1.7280314960629921
0
LINE
8
BLACK
6
CONTINUOUS
10
0.6035433070866142
20
1.7280314960629921
11
0.6035433070866142
21
1.6680314960629921
0
LINE
8
BLACK
6
CONTINUOUS
10
0.7035433070866142
20
1.669972874015748
11
0.6435433070866141
21
1.669972874015748
0
LINE
8
BLACK
6
CONTINUOUS
10
0.6435433070866141
20
1.669972874015748
11
0.6435433070866141
21
1.7299728740157481
0
LINE
8
BLACK
6
CONTINUOUS
10
0.6435433070866141
20
1.7299728740157481
11
0.7035433070866142
21
1.7299728740157481
0
LINE
8
BLACK
6
CONTINUOUS
10
0.7035433070866142
20
1.7299728740157481
11
0.7035433070866142
21
1.669972874015748
0
LINE
8
BLACK
6
CONTINUOUS
10
0.8035433070866141
20
1.669972874015748
11
0.7435433070866142
21
1.669972874015748
0
LINE
8
BLACK
6
CONTINUOUS
10
0.7435433070866142
20
1.669972874015748
11
0.7435433070866142
21
1.7299728740157481
0
LINE
8
BLACK
6
CONTINUOUS
10
0.7435433070866142
20
1.7299728740157481
11
0.8035433070866141
21
1.7299728740157481
0
LINE
8
BLACK
6
CONTINUOUS
10
0.8035433070866141
20
1.7299728740157481
11
0.8035433070866141
21
1.669972874015748
  0
ENDSEC
  0
EOF
