  0
SECTION
  2
HEADER
  9
$ANGBASE
  50
0.0
  9
$ANGDIR
  70
1
  9
$MEASUREMENT
  70
0
  0
ENDSEC
  0
SECTION
  2
TABLES
  0
TABLE
  2
LTYPE
  70
4
  0
LTYPE
  5
40F
  2
CONTINUOUS
  70
0
  3
Solid line
  72
65
  73
0
  40
0.0
  0
LTYPE
  5
410
  2
DASHDOT
 70
0
  3
Dash Dot ____ _ ____ _
 72
65
 73
4
 40
2.0
 49
1.25
 49
-0.25
 49
0.25
 49
-0.25
  0
LTYPE
  5
411
  2
DASHED
 70
0
  3
Dashed __ __ __ __ __
 72
65
 73
2
 40
0.75
 49
0.5
 49
-0.25
  0
LTYPE
  5
43B
  2
DOTTED
 70
0
  3
Dotted .  .  .  .
 72
65
 73
2
 40
0.2
 49
0.0
 49
-0.2
  0
ENDTAB
  0
TABLE
  2
STYLE
  70
4
  0
STYLE
  2
KICAD
  70
0
  40
0
  41
1
  42
1
  50
0
  71
0
  3
isocp.shx
  0
STYLE
  2
KICADB
  70
0
  40
0
  41
1
  42
1
  50
0
  71
0
  3
isocp.shx
  0
STYLE
  2
KICADI
  70
0
  40
0
  41
1
  42
1
  50
15
  71
0
  3
isocp.shx
  0
STYLE
  2
KICADBI
  70
0
  40
0
  41
1
  42
1
  50
15
  71
0
  3
isocp.shx
  0
ENDTAB
  0
TABLE
  2
LAYER
  70
1
  0
LAYER
  2
BLACK
  70
0
  62
7
  6
CONTINUOUS
  0
ENDTAB
  0
ENDSEC
  0
SECTION
  2
ENTITIES
0
LINE
8
BLACK
6
CONTINUOUS
10
1.4793057874015747
20
0.3104920078740158
11
1.4798384645669291
21
0.3099593307086614
0
LINE
8
BLACK
6
CONTINUOUS
10
1.4798384645669291
20
0.3099593307086614
11
1.4799133858267717
21
0.2324173228346457
0
LINE
8
BLACK
6
CONTINUOUS
10
1.4799133858267717
20
0.2324173228346457
11
1.4798384645669291
21
0.2320406692913386
0
LINE
8
BLACK
6
CONTINUOUS
10
1.4798384645669291
20
0.2320406692913386
11
1.4793057874015747
21
0.2315079921259842
0
LINE
8
BLACK
6
CONTINUOUS
10
1.4793057874015747
20
0.2315079921259842
11
1.3450708661417323
21
0.2314330708661417
0
LINE
8
BLACK
6
CONTINUOUS
10
1.3450708661417323
20
0.2314330708661417
11
1.3446942125984251
21
0.2315079921259842
0
LINE
8
BLACK
6
CONTINUOUS
10
1.3446942125984251
20
0.2315079921259842
11
1.3441615354330709
21
0.2320406692913386
0
LINE
8
BLACK
6
CONTINUOUS
10
1.3441615354330709
20
0.2320406692913386
11
1.3440866141732284
21
0.3095826771653543
0
LINE
8
BLACK
6
CONTINUOUS
10
1.3440866141732284
20
0.3095826771653543
11
1.3441615354330709
21
0.3099593307086614
0
LINE
8
BLACK
6
CONTINUOUS
10
1.3441615354330709
20
0.3099593307086614
11
1.3446942125984251
21
0.3104920078740158
0
LINE
8
BLACK
6
CONTINUOUS
10
1.3446942125984251
20
0.3104920078740158
11
1.4789291338582677
21
0.3105669291338582
0
LINE
8
BLACK
6
CONTINUOUS
10
1.4789291338582677
20
0.3105669291338582
11
1.4793057874015747
21
0.3104920078740158
0
LINE
8
BLACK
6
CONTINUOUS
10
1.3459814960629921
20
0.308598937007874
11
1.3460542125984252
21
0.2333274409448819
0
LINE
8
BLACK
6
CONTINUOUS
10
1.3460542125984252
20
0.2333274409448819
11
1.4780184645669292
21
0.2334011023622047
0
LINE
8
BLACK
6
CONTINUOUS
10
1.4780184645669292
20
0.2334011023622047
11
1.4779457480314959
21
0.3086725984251968
0
LINE
8
BLACK
6
CONTINUOUS
10
1.4779457480314959
20
0.3086725984251968
11
1.3459814960629921
21
0.308598937007874
0
LINE
8
BLACK
6
CONTINUOUS
10
0.7392742913385827
20
0.5487046062992126
11
0.739806968503937
21
0.5481719291338583
0
LINE
8
BLACK
6
CONTINUOUS
10
0.739806968503937
20
0.5481719291338583
11
0.7398818897637796
21
0.2722047244094488
0
LINE
8
BLACK
6
CONTINUOUS
10
0.7398818897637796
20
0.2722047244094488
11
0.739806968503937
21
0.2718280708661417
0
LINE
8
BLACK
6
CONTINUOUS
10
0.739806968503937
20
0.2718280708661417
11
0.7392742913385827
21
0.2712953937007874
0
LINE
8
BLACK
6
CONTINUOUS
10
0.7392742913385827
20
0.2712953937007874
11
0.6011023622047243
21
0.2712204724409449
0
LINE
8
BLACK
6
CONTINUOUS
10
0.6011023622047243
20
0.2712204724409449
11
0.6007257086614173
21
0.2712953937007874
0
LINE
8
BLACK
6
CONTINUOUS
10
0.6007257086614173
20
0.2712953937007874
11
0.600193031496063
21
0.2718280708661417
0
LINE
8
BLACK
6
CONTINUOUS
10
0.600193031496063
20
0.2718280708661417
11
0.6001181102362204
21
0.5477952755905512
0
LINE
8
BLACK
6
CONTINUOUS
10
0.6001181102362204
20
0.5477952755905512
11
0.600193031496063
21
0.5481719291338583
0
LINE
8
BLACK
6
CONTINUOUS
10
0.600193031496063
20
0.5481719291338583
11
0.6007257086614173
21
0.5487046062992126
0
LINE
8
BLACK
6
CONTINUOUS
10
0.6007257086614173
20
0.5487046062992126
11
0.7388976377952756
21
0.5487795275590551
0
LINE
8
BLACK
6
CONTINUOUS
10
0.7388976377952756
20
0.5487795275590551
11
0.7392742913385827
21
0.5487046062992126
0
LINE
8
BLACK
6
CONTINUOUS
10
0.6020120472440945
20
0.5468115354330708
11
0.6020863385826771
21
0.2731148031496063
0
LINE
8
BLACK
6
CONTINUOUS
10
0.6020863385826771
20
0.2731148031496063
11
0.7379879133858268
21
0.2731885039370079
0
LINE
8
BLACK
6
CONTINUOUS
10
0.7379879133858268
20
0.2731885039370079
11
0.7379136220472441
21
0.5468852362204725
0
LINE
8
BLACK
6
CONTINUOUS
10
0.7379136220472441
20
0.5468852362204725
11
0.6020120472440945
21
0.5468115354330708
0
LINE
8
BLACK
6
CONTINUOUS
10
1.0599593307086614
20
0.4378384645669291
11
1.0604920078740157
21
0.4373057874015748
0
LINE
8
BLACK
6
CONTINUOUS
10
1.0604920078740157
20
0.4373057874015748
11
1.0605669291338582
21
0.3030708661417323
0
LINE
8
BLACK
6
CONTINUOUS
10
1.0605669291338582
20
0.3030708661417323
11
1.0604920078740157
21
0.3026942125984252
0
LINE
8
BLACK
6
CONTINUOUS
10
1.0604920078740157
20
0.3026942125984252
11
1.0599593307086614
21
0.3021615354330708
0
LINE
8
BLACK
6
CONTINUOUS
10
1.0599593307086614
20
0.3021615354330708
11
0.9824173228346457
21
0.3020866141732284
0
LINE
8
BLACK
6
CONTINUOUS
10
0.9824173228346457
20
0.3020866141732284
11
0.9820406692913386
21
0.3021615354330708
0
LINE
8
BLACK
6
CONTINUOUS
10
0.9820406692913386
20
0.3021615354330708
11
0.9815079921259843
21
0.3026942125984252
0
LINE
8
BLACK
6
CONTINUOUS
10
0.9815079921259843
20
0.3026942125984252
11
0.9814330708661417
21
0.4369291338582677
0
LINE
8
BLACK
6
CONTINUOUS
10
0.9814330708661417
20
0.4369291338582677
11
0.9815079921259843
21
0.4373057874015748
0
LINE
8
BLACK
6
CONTINUOUS
10
0.9815079921259843
20
0.4373057874015748
11
0.9820406692913386
21
0.4378384645669291
0
LINE
8
BLACK
6
CONTINUOUS
10
0.9820406692913386
20
0.4378384645669291
11
1.0595826771653543
21
0.4379133858267716
0
LINE
8
BLACK
6
CONTINUOUS
10
1.0595826771653543
20
0.4379133858267716
11
1.0599593307086614
21
0.4378384645669291
0
LINE
8
BLACK
6
CONTINUOUS
10
0.9833274015748031
20
0.4359457874015748
11
0.9834010629921259
21
0.3039815354330709
0
LINE
8
BLACK
6
CONTINUOUS
10
0.9834010629921259
20
0.3039815354330709
11
1.058672559055118
21
0.3040542519685039
0
LINE
8
BLACK
6
CONTINUOUS
10
1.058672559055118
20
0.3040542519685039
11
1.0585988976377954
21
0.4360185039370079
0
LINE
8
BLACK
6
CONTINUOUS
10
1.0585988976377954
20
0.4360185039370079
11
0.9833274015748031
21
0.4359457874015748
0
LINE
8
BLACK
6
CONTINUOUS
10
1.423605
20
0.6131651968503937
11
1.4241376771653542
21
0.6126325196850394
0
LINE
8
BLACK
6
CONTINUOUS
10
1.4241376771653542
20
0.6126325196850394
11
1.4242125984251968
21
0.3287912992125984
0
LINE
8
BLACK
6
CONTINUOUS
10
1.4242125984251968
20
0.3287912992125984
11
1.4241376771653542
21
0.3284146456692913
0
LINE
8
BLACK
6
CONTINUOUS
10
1.4241376771653542
20
0.3284146456692913
11
1.423605
21
0.327881968503937
0
LINE
8
BLACK
6
CONTINUOUS
10
1.423605
20
0.327881968503937
11
1.0767716535433072
21
0.3278070472440945
0
LINE
8
BLACK
6
CONTINUOUS
10
1.0767716535433072
20
0.3278070472440945
11
1.076395
21
0.327881968503937
0
LINE
8
BLACK
6
CONTINUOUS
10
1.076395
20
0.327881968503937
11
1.0758623228346456
21
0.3284146456692913
0
LINE
8
BLACK
6
CONTINUOUS
10
1.0758623228346456
20
0.3284146456692913
11
1.075787401574803
21
0.6122558661417322
0
LINE
8
BLACK
6
CONTINUOUS
10
1.075787401574803
20
0.6122558661417322
11
1.0758623228346456
21
0.6126325196850394
0
LINE
8
BLACK
6
CONTINUOUS
10
1.0758623228346456
20
0.6126325196850394
11
1.076395
21
0.6131651968503937
0
LINE
8
BLACK
6
CONTINUOUS
10
1.076395
20
0.6131651968503937
11
1.4232283464566928
21
0.6132401181102362
0
LINE
8
BLACK
6
CONTINUOUS
10
1.4232283464566928
20
0.6132401181102362
11
1.423605
21
0.6131651968503937
0
LINE
8
BLACK
6
CONTINUOUS
10
1.0776813385826771
20
0.611271811023622
11
1.0777556299212598
21
0.3297009448818898
0
LINE
8
BLACK
6
CONTINUOUS
10
1.0777556299212598
20
0.3297009448818898
11
1.4223186220472441
21
0.3297753937007874
0
LINE
8
BLACK
6
CONTINUOUS
10
1.4223186220472441
20
0.3297753937007874
11
1.4222443307086614
21
0.6113462598425197
0
LINE
8
BLACK
6
CONTINUOUS
10
1.4222443307086614
20
0.6113462598425197
11
1.0776813385826771
21
0.611271811023622
0
LINE
8
BLACK
6
CONTINUOUS
10
1.0609593307086613
20
0.6488384645669292
11
1.0614920078740158
21
0.6483057874015747
0
LINE
8
BLACK
6
CONTINUOUS
10
1.0614920078740158
20
0.6483057874015747
11
1.0615669291338583
21
0.5140708661417323
0
LINE
8
BLACK
6
CONTINUOUS
10
1.0615669291338583
20
0.5140708661417323
11
1.0614920078740158
21
0.5136942125984252
0
LINE
8
BLACK
6
CONTINUOUS
10
1.0614920078740158
20
0.5136942125984252
11
1.0609593307086613
21
0.5131615354330709
0
LINE
8
BLACK
6
CONTINUOUS
10
1.0609593307086613
20
0.5131615354330709
11
0.9834173228346457
21
0.5130866141732283
0
LINE
8
BLACK
6
CONTINUOUS
10
0.9834173228346457
20
0.5130866141732283
11
0.9830406692913386
21
0.5131615354330709
0
LINE
8
BLACK
6
CONTINUOUS
10
0.9830406692913386
20
0.5131615354330709
11
0.9825079921259843
21
0.5136942125984252
0
LINE
8
BLACK
6
CONTINUOUS
10
0.9825079921259843
20
0.5136942125984252
11
0.9824330708661417
21
0.6479291338582677
0
LINE
8
BLACK
6
CONTINUOUS
10
0.9824330708661417
20
0.6479291338582677
11
0.9825079921259843
21
0.6483057874015747
0
LINE
8
BLACK
6
CONTINUOUS
10
0.9825079921259843
20
0.6483057874015747
11
0.9830406692913386
21
0.6488384645669292
0
LINE
8
BLACK
6
CONTINUOUS
10
0.9830406692913386
20
0.6488384645669292
11
1.0605826771653544
21
0.6489133858267716
0
LINE
8
BLACK
6
CONTINUOUS
10
1.0605826771653544
20
0.6489133858267716
11
1.0609593307086613
21
0.6488384645669292
0
LINE
8
BLACK
6
CONTINUOUS
10
0.9843274015748031
20
0.6469457874015748
11
0.9844010629921259
21
0.5149815354330709
0
LINE
8
BLACK
6
CONTINUOUS
10
0.9844010629921259
20
0.5149815354330709
11
1.0596725590551181
21
0.515054251968504
0
LINE
8
BLACK
6
CONTINUOUS
10
1.0596725590551181
20
0.515054251968504
11
1.0595988976377952
21
0.6470185039370079
0
LINE
8
BLACK
6
CONTINUOUS
10
1.0595988976377952
20
0.6470185039370079
11
0.9843274015748031
21
0.6469457874015748
0
LINE
8
BLACK
6
CONTINUOUS
10
1.2433057874015747
20
0.7104920078740158
11
1.2438384645669291
21
0.7099593307086614
0
LINE
8
BLACK
6
CONTINUOUS
10
1.2438384645669291
20
0.7099593307086614
11
1.2439133858267717
21
0.6324173228346457
0
LINE
8
BLACK
6
CONTINUOUS
10
1.2439133858267717
20
0.6324173228346457
11
1.2438384645669291
21
0.6320406692913386
0
LINE
8
BLACK
6
CONTINUOUS
10
1.2438384645669291
20
0.6320406692913386
11
1.2433057874015747
21
0.6315079921259842
0
LINE
8
BLACK
6
CONTINUOUS
10
1.2433057874015747
20
0.6315079921259842
11
1.1090708661417323
21
0.6314330708661418
0
LINE
8
BLACK
6
CONTINUOUS
10
1.1090708661417323
20
0.6314330708661418
11
1.1086942125984252
21
0.6315079921259842
0
LINE
8
BLACK
6
CONTINUOUS
10
1.1086942125984252
20
0.6315079921259842
11
1.1081615354330709
21
0.6320406692913386
0
LINE
8
BLACK
6
CONTINUOUS
10
1.1081615354330709
20
0.6320406692913386
11
1.1080866141732284
21
0.7095826771653543
0
LINE
8
BLACK
6
CONTINUOUS
10
1.1080866141732284
20
0.7095826771653543
11
1.1081615354330709
21
0.7099593307086614
0
LINE
8
BLACK
6
CONTINUOUS
10
1.1081615354330709
20
0.7099593307086614
11
1.1086942125984252
21
0.7104920078740158
0
LINE
8
BLACK
6
CONTINUOUS
10
1.1086942125984252
20
0.7104920078740158
11
1.2429291338582678
21
0.7105669291338582
0
LINE
8
BLACK
6
CONTINUOUS
10
1.2429291338582678
20
0.7105669291338582
11
1.2433057874015747
21
0.7104920078740158
0
LINE
8
BLACK
6
CONTINUOUS
10
1.1099814960629921
20
0.708598937007874
11
1.1100542125984252
21
0.6333274409448819
0
LINE
8
BLACK
6
CONTINUOUS
10
1.1100542125984252
20
0.6333274409448819
11
1.2420184645669292
21
0.6334011023622047
0
LINE
8
BLACK
6
CONTINUOUS
10
1.2420184645669292
20
0.6334011023622047
11
1.2419457480314959
21
0.7086725984251968
0
LINE
8
BLACK
6
CONTINUOUS
10
1.2419457480314959
20
0.7086725984251968
11
1.1099814960629921
21
0.708598937007874
0
LINE
8
BLACK
6
CONTINUOUS
10
1.0139593307086614
20
0.7938384645669291
11
1.0144920078740158
21
0.7933057874015748
0
LINE
8
BLACK
6
CONTINUOUS
10
1.0144920078740158
20
0.7933057874015748
11
1.0145669291338582
21
0.6590708661417323
0
LINE
8
BLACK
6
CONTINUOUS
10
1.0145669291338582
20
0.6590708661417323
11
1.0144920078740158
21
0.6586942125984252
0
LINE
8
BLACK
6
CONTINUOUS
10
1.0144920078740158
20
0.6586942125984252
11
1.0139593307086614
21
0.6581615354330709
0
LINE
8
BLACK
6
CONTINUOUS
10
1.0139593307086614
20
0.6581615354330709
11
0.9364173228346456
21
0.6580866141732283
0
LINE
8
BLACK
6
CONTINUOUS
10
0.9364173228346456
20
0.6580866141732283
11
0.9360406692913386
21
0.6581615354330709
0
LINE
8
BLACK
6
CONTINUOUS
10
0.9360406692913386
20
0.6581615354330709
11
0.9355079921259842
21
0.6586942125984252
0
LINE
8
BLACK
6
CONTINUOUS
10
0.9355079921259842
20
0.6586942125984252
11
0.9354330708661417
21
0.7929291338582677
0
LINE
8
BLACK
6
CONTINUOUS
10
0.9354330708661417
20
0.7929291338582677
11
0.9355079921259842
21
0.7933057874015748
0
LINE
8
BLACK
6
CONTINUOUS
10
0.9355079921259842
20
0.7933057874015748
11
0.9360406692913386
21
0.7938384645669291
0
LINE
8
BLACK
6
CONTINUOUS
10
0.9360406692913386
20
0.7938384645669291
11
1.0135826771653542
21
0.7939133858267716
0
LINE
8
BLACK
6
CONTINUOUS
10
1.0135826771653542
20
0.7939133858267716
11
1.0139593307086614
21
0.7938384645669291
0
LINE
8
BLACK
6
CONTINUOUS
10
0.9373274015748031
20
0.7919457874015747
11
0.937401062992126
21
0.6599815354330708
0
LINE
8
BLACK
6
CONTINUOUS
10
0.937401062992126
20
0.6599815354330708
11
1.012672559055118
21
0.6600542519685039
0
LINE
8
BLACK
6
CONTINUOUS
10
1.012672559055118
20
0.6600542519685039
11
1.0125988976377953
21
0.7920185039370079
0
LINE
8
BLACK
6
CONTINUOUS
10
1.0125988976377953
20
0.7920185039370079
11
0.9373274015748031
21
0.7919457874015747
0
LINE
8
BLACK
6
CONTINUOUS
10
1.9195183858267717
20
0.863310905511811
11
1.9200510629921259
21
0.8627782283464567
0
LINE
8
BLACK
6
CONTINUOUS
10
1.9200510629921259
20
0.8627782283464567
11
1.9201259842519685
21
0.7875984251968504
0
LINE
8
BLACK
6
CONTINUOUS
10
1.9201259842519685
20
0.7875984251968504
11
1.9200510629921259
21
0.7872217716535432
0
LINE
8
BLACK
6
CONTINUOUS
10
1.9200510629921259
20
0.7872217716535432
11
1.9195183858267717
21
0.7866890944881889
0
LINE
8
BLACK
6
CONTINUOUS
10
1.9195183858267717
20
0.7866890944881889
11
1.7868582677165354
21
0.7866141732283465
0
LINE
8
BLACK
6
CONTINUOUS
10
1.7868582677165354
20
0.7866141732283465
11
1.7864816141732283
21
0.7866890944881889
0
LINE
8
BLACK
6
CONTINUOUS
10
1.7864816141732283
20
0.7866890944881889
11
1.785948937007874
21
0.7872217716535432
0
LINE
8
BLACK
6
CONTINUOUS
10
1.785948937007874
20
0.7872217716535432
11
1.7859420866141731
21
0.7940801968503937
0
LINE
8
BLACK
6
CONTINUOUS
10
1.7859420866141731
20
0.7940801968503937
11
1.7016520078740156
21
0.7096959055118111
0
LINE
8
BLACK
6
CONTINUOUS
10
1.7016520078740156
20
0.7096959055118111
11
1.7013326771653543
21
0.7094825590551181
0
LINE
8
BLACK
6
CONTINUOUS
10
1.7013326771653543
20
0.7094825590551181
11
1.7005793700787402
21
0.7094825590551181
0
LINE
8
BLACK
6
CONTINUOUS
10
1.7005793700787402
20
0.7094825590551181
11
1.645695905511811
21
0.7642600393700787
0
LINE
8
BLACK
6
CONTINUOUS
10
1.645695905511811
20
0.7642600393700787
11
1.6454825590551181
21
0.7645793700787401
0
LINE
8
BLACK
6
CONTINUOUS
10
1.6454825590551181
20
0.7645793700787401
11
1.6454825590551181
21
0.7653326771653544
0
LINE
8
BLACK
6
CONTINUOUS
10
1.6454825590551181
20
0.7653326771653544
11
1.7403479921259841
21
0.860304094488189
0
LINE
8
BLACK
6
CONTINUOUS
10
1.7403479921259841
20
0.860304094488189
11
1.7406673228346456
21
0.8605174409448819
0
LINE
8
BLACK
6
CONTINUOUS
10
1.7406673228346456
20
0.8605174409448819
11
1.7414206299212598
21
0.8605174409448819
0
LINE
8
BLACK
6
CONTINUOUS
10
1.7414206299212598
20
0.8605174409448819
11
1.7859201181102362
21
0.8161038188976377
0
LINE
8
BLACK
6
CONTINUOUS
10
1.7859201181102362
20
0.8161038188976377
11
1.7858740157480315
21
0.8624015748031496
0
LINE
8
BLACK
6
CONTINUOUS
10
1.7858740157480315
20
0.8624015748031496
11
1.785948937007874
21
0.8627782283464567
0
LINE
8
BLACK
6
CONTINUOUS
10
1.785948937007874
20
0.8627782283464567
11
1.7864816141732283
21
0.863310905511811
0
LINE
8
BLACK
6
CONTINUOUS
10
1.7864816141732283
20
0.863310905511811
11
1.9191417322834645
21
0.8633858267716535
0
LINE
8
BLACK
6
CONTINUOUS
10
1.9191417322834645
20
0.8633858267716535
11
1.9195183858267717
21
0.863310905511811
0
LINE
8
BLACK
6
CONTINUOUS
10
1.6477314173228346
20
0.7649043307086614
11
1.7010078346456692
21
0.7117307874015748
0
LINE
8
BLACK
6
CONTINUOUS
10
1.7010078346456692
20
0.7117307874015748
11
1.7859394094488188
21
0.7967572834645669
0
LINE
8
BLACK
6
CONTINUOUS
10
1.7859394094488188
20
0.7967572834645669
11
1.7859227952755905
21
0.8134253149606299
0
LINE
8
BLACK
6
CONTINUOUS
10
1.7859227952755905
20
0.8134253149606299
11
1.740992125984252
21
0.8582692519685039
0
LINE
8
BLACK
6
CONTINUOUS
10
1.740992125984252
20
0.8582692519685039
11
1.6477314173228346
21
0.7649043307086614
0
LINE
8
BLACK
6
CONTINUOUS
10
1.787768937007874
20
0.861417874015748
11
1.7878159842519685
21
0.814211653543307
0
LINE
8
BLACK
6
CONTINUOUS
10
1.7878159842519685
20
0.814211653543307
11
1.796304094488189
21
0.8057399212598425
0
LINE
8
BLACK
6
CONTINUOUS
10
1.796304094488189
20
0.8057399212598425
11
1.7965174409448819
21
0.8054206299212598
0
LINE
8
BLACK
6
CONTINUOUS
10
1.7965174409448819
20
0.8054206299212598
11
1.7965174409448819
21
0.8046673228346457
0
LINE
8
BLACK
6
CONTINUOUS
10
1.7965174409448819
20
0.8046673228346457
11
1.7878341338582677
21
0.7959743700787402
0
LINE
8
BLACK
6
CONTINUOUS
10
1.7878341338582677
20
0.7959743700787402
11
1.7878415748031495
21
0.7885085433070866
0
LINE
8
BLACK
6
CONTINUOUS
10
1.7878415748031495
20
0.7885085433070866
11
1.9182310236220472
21
0.7885821653543307
0
LINE
8
BLACK
6
CONTINUOUS
10
1.9182310236220472
20
0.7885821653543307
11
1.9181583858267717
21
0.8614914960629921
0
LINE
8
BLACK
6
CONTINUOUS
10
1.9181583858267717
20
0.8614914960629921
11
1.787768937007874
21
0.861417874015748
0
LINE
8
BLACK
6
CONTINUOUS
10
1.7878314960629922
20
0.7986514566929134
11
1.7942685433070866
21
0.8050957086614173
0
LINE
8
BLACK
6
CONTINUOUS
10
1.7942685433070866
20
0.8050957086614173
11
1.7878186614173228
21
0.8115331496062992
0
LINE
8
BLACK
6
CONTINUOUS
10
1.7878186614173228
20
0.8115331496062992
11
1.7878314960629922
21
0.7986514566929134
0
LINE
8
BLACK
6
CONTINUOUS
10
0.6465183858267717
20
0.788310905511811
11
0.647051062992126
21
0.7877782283464567
0
LINE
8
BLACK
6
CONTINUOUS
10
0.647051062992126
20
0.7877782283464567
11
0.6471259842519685
21
0.7125984251968503
0
LINE
8
BLACK
6
CONTINUOUS
10
0.6471259842519685
20
0.7125984251968503
11
0.647051062992126
21
0.7122217716535433
0
LINE
8
BLACK
6
CONTINUOUS
10
0.647051062992126
20
0.7122217716535433
11
0.6465183858267717
21
0.711689094488189
0
LINE
8
BLACK
6
CONTINUOUS
10
0.6465183858267717
20
0.711689094488189
11
0.5138582677165354
21
0.7116141732283464
0
LINE
8
BLACK
6
CONTINUOUS
10
0.5138582677165354
20
0.7116141732283464
11
0.5134816141732284
21
0.711689094488189
0
LINE
8
BLACK
6
CONTINUOUS
10
0.5134816141732284
20
0.711689094488189
11
0.512948937007874
21
0.7122217716535433
0
LINE
8
BLACK
6
CONTINUOUS
10
0.512948937007874
20
0.7122217716535433
11
0.5128740157480315
21
0.7874015748031495
0
LINE
8
BLACK
6
CONTINUOUS
10
0.5128740157480315
20
0.7874015748031495
11
0.512948937007874
21
0.7877782283464567
0
LINE
8
BLACK
6
CONTINUOUS
10
0.512948937007874
20
0.7877782283464567
11
0.5134816141732284
21
0.788310905511811
0
LINE
8
BLACK
6
CONTINUOUS
10
0.5134816141732284
20
0.788310905511811
11
0.6461417322834645
21
0.7883858267716535
0
LINE
8
BLACK
6
CONTINUOUS
10
0.6461417322834645
20
0.7883858267716535
11
0.6465183858267717
21
0.788310905511811
0
LINE
8
BLACK
6
CONTINUOUS
10
0.514768937007874
20
0.786417874015748
11
0.5148415748031496
21
0.7135085433070866
0
LINE
8
BLACK
6
CONTINUOUS
10
0.5148415748031496
20
0.7135085433070866
11
0.6452310236220472
21
0.7135821653543307
0
LINE
8
BLACK
6
CONTINUOUS
10
0.6452310236220472
20
0.7135821653543307
11
0.6451583858267717
21
0.7864914960629921
0
LINE
8
BLACK
6
CONTINUOUS
10
0.6451583858267717
20
0.7864914960629921
11
0.514768937007874
21
0.786417874015748
0
LINE
8
BLACK
6
CONTINUOUS
10
1.1632742913385827
20
0.7943738976377953
11
1.1638069685039369
21
0.7938412204724409
0
LINE
8
BLACK
6
CONTINUOUS
10
1.1638069685039369
20
0.7938412204724409
11
1.1638818897637795
21
0.7265354330708661
0
LINE
8
BLACK
6
CONTINUOUS
10
1.1638818897637795
20
0.7265354330708661
11
1.1638069685039369
21
0.726158779527559
0
LINE
8
BLACK
6
CONTINUOUS
10
1.1638069685039369
20
0.726158779527559
11
1.1632742913385827
21
0.7256261023622047
0
LINE
8
BLACK
6
CONTINUOUS
10
1.1632742913385827
20
0.7256261023622047
11
1.0251023622047244
21
0.7255511811023622
0
LINE
8
BLACK
6
CONTINUOUS
10
1.0251023622047244
20
0.7255511811023622
11
1.0247257086614172
21
0.7256261023622047
0
LINE
8
BLACK
6
CONTINUOUS
10
1.0247257086614172
20
0.7256261023622047
11
1.024193031496063
21
0.726158779527559
0
LINE
8
BLACK
6
CONTINUOUS
10
1.024193031496063
20
0.726158779527559
11
1.0241181102362205
21
0.7934645669291338
0
LINE
8
BLACK
6
CONTINUOUS
10
1.0241181102362205
20
0.7934645669291338
11
1.024193031496063
21
0.7938412204724409
0
LINE
8
BLACK
6
CONTINUOUS
10
1.024193031496063
20
0.7938412204724409
11
1.0247257086614172
21
0.7943738976377953
0
LINE
8
BLACK
6
CONTINUOUS
10
1.0247257086614172
20
0.7943738976377953
11
1.1628976377952756
21
0.7944488188976377
0
LINE
8
BLACK
6
CONTINUOUS
10
1.1628976377952756
20
0.7944488188976377
11
1.1632742913385827
21
0.7943738976377953
0
LINE
8
BLACK
6
CONTINUOUS
10
1.0260131889763779
20
0.7924808267716535
11
1.026085590551181
21
0.7274455118110236
0
LINE
8
BLACK
6
CONTINUOUS
10
1.026085590551181
20
0.7274455118110236
11
1.1619867716535432
21
0.7275192125984252
0
LINE
8
BLACK
6
CONTINUOUS
10
1.1619867716535432
20
0.7275192125984252
11
1.1619143700787402
21
0.7925545275590551
0
LINE
8
BLACK
6
CONTINUOUS
10
1.1619143700787402
20
0.7925545275590551
11
1.0260131889763779
21
0.7924808267716535
0
LINE
8
BLACK
6
CONTINUOUS
10
0.7749593307086614
20
0.8948384645669291
11
0.7754920078740157
21
0.8943057874015747
0
LINE
8
BLACK
6
CONTINUOUS
10
0.7754920078740157
20
0.8943057874015747
11
0.7755669291338583
21
0.7600708661417322
0
LINE
8
BLACK
6
CONTINUOUS
10
0.7755669291338583
20
0.7600708661417322
11
0.7754920078740157
21
0.7596942125984252
0
LINE
8
BLACK
6
CONTINUOUS
10
0.7754920078740157
20
0.7596942125984252
11
0.7749593307086614
21
0.7591615354330709
0
LINE
8
BLACK
6
CONTINUOUS
10
0.7749593307086614
20
0.7591615354330709
11
0.6974173228346456
21
0.7590866141732283
0
LINE
8
BLACK
6
CONTINUOUS
10
0.6974173228346456
20
0.7590866141732283
11
0.6970406692913386
21
0.7591615354330709
0
LINE
8
BLACK
6
CONTINUOUS
10
0.6970406692913386
20
0.7591615354330709
11
0.6965079921259842
21
0.7596942125984252
0
LINE
8
BLACK
6
CONTINUOUS
10
0.6965079921259842
20
0.7596942125984252
11
0.6964330708661417
21
0.8939291338582677
0
LINE
8
BLACK
6
CONTINUOUS
10
0.6964330708661417
20
0.8939291338582677
11
0.6965079921259842
21
0.8943057874015747
0
LINE
8
BLACK
6
CONTINUOUS
10
0.6965079921259842
20
0.8943057874015747
11
0.6970406692913386
21
0.8948384645669291
0
LINE
8
BLACK
6
CONTINUOUS
10
0.6970406692913386
20
0.8948384645669291
11
0.7745826771653543
21
0.8949133858267716
0
LINE
8
BLACK
6
CONTINUOUS
10
0.7745826771653543
20
0.8949133858267716
11
0.7749593307086614
21
0.8948384645669291
0
LINE
8
BLACK
6
CONTINUOUS
10
0.6983274015748031
20
0.8929457874015748
11
0.698401062992126
21
0.7609815354330709
0
LINE
8
BLACK
6
CONTINUOUS
10
0.698401062992126
20
0.7609815354330709
11
0.7736725590551181
21
0.761054251968504
0
LINE
8
BLACK
6
CONTINUOUS
10
0.7736725590551181
20
0.761054251968504
11
0.7735988976377952
21
0.8930185039370079
0
LINE
8
BLACK
6
CONTINUOUS
10
0.7735988976377952
20
0.8930185039370079
11
0.6983274015748031
21
0.8929457874015748
0
LINE
8
BLACK
6
CONTINUOUS
10
0.8549593307086614
20
0.8948384645669291
11
0.8554920078740157
21
0.8943057874015747
0
LINE
8
BLACK
6
CONTINUOUS
10
0.8554920078740157
20
0.8943057874015747
11
0.8555669291338582
21
0.7600708661417322
0
LINE
8
BLACK
6
CONTINUOUS
10
0.8555669291338582
20
0.7600708661417322
11
0.8554920078740157
21
0.7596942125984252
0
LINE
8
BLACK
6
CONTINUOUS
10
0.8554920078740157
20
0.7596942125984252
11
0.8549593307086614
21
0.7591615354330709
0
LINE
8
BLACK
6
CONTINUOUS
10
0.8549593307086614
20
0.7591615354330709
11
0.7774173228346456
21
0.7590866141732283
0
LINE
8
BLACK
6
CONTINUOUS
10
0.7774173228346456
20
0.7590866141732283
11
0.7770406692913385
21
0.7591615354330709
0
LINE
8
BLACK
6
CONTINUOUS
10
0.7770406692913385
20
0.7591615354330709
11
0.7765079921259842
21
0.7596942125984252
0
LINE
8
BLACK
6
CONTINUOUS
10
0.7765079921259842
20
0.7596942125984252
11
0.7764330708661417
21
0.8939291338582677
0
LINE
8
BLACK
6
CONTINUOUS
10
0.7764330708661417
20
0.8939291338582677
11
0.7765079921259842
21
0.8943057874015747
0
LINE
8
BLACK
6
CONTINUOUS
10
0.7765079921259842
20
0.8943057874015747
11
0.7770406692913385
21
0.8948384645669291
0
LINE
8
BLACK
6
CONTINUOUS
10
0.7770406692913385
20
0.8948384645669291
11
0.8545826771653543
21
0.8949133858267716
0
LINE
8
BLACK
6
CONTINUOUS
10
0.8545826771653543
20
0.8949133858267716
11
0.8549593307086614
21
0.8948384645669291
0
LINE
8
BLACK
6
CONTINUOUS
10
0.7783274015748032
20
0.8929457874015748
11
0.778401062992126
21
0.7609815354330709
0
LINE
8
BLACK
6
CONTINUOUS
10
0.778401062992126
20
0.7609815354330709
11
0.8536725590551181
21
0.761054251968504
0
LINE
8
BLACK
6
CONTINUOUS
10
0.8536725590551181
20
0.761054251968504
11
0.8535988976377953
21
0.8930185039370079
0
LINE
8
BLACK
6
CONTINUOUS
10
0.8535988976377953
20
0.8930185039370079
11
0.7783274015748032
21
0.8929457874015748
0
LINE
8
BLACK
6
CONTINUOUS
10
0.9327782283464566
20
0.894051062992126
11
0.933310905511811
21
0.8935183858267717
0
LINE
8
BLACK
6
CONTINUOUS
10
0.933310905511811
20
0.8935183858267717
11
0.9333858267716535
21
0.7608582677165354
0
LINE
8
BLACK
6
CONTINUOUS
10
0.9333858267716535
20
0.7608582677165354
11
0.933310905511811
21
0.7604816141732283
0
LINE
8
BLACK
6
CONTINUOUS
10
0.933310905511811
20
0.7604816141732283
11
0.9327782283464566
21
0.759948937007874
0
LINE
8
BLACK
6
CONTINUOUS
10
0.9327782283464566
20
0.759948937007874
11
0.8575984251968504
21
0.7598740157480315
0
LINE
8
BLACK
6
CONTINUOUS
10
0.8575984251968504
20
0.7598740157480315
11
0.8572217716535433
21
0.759948937007874
0
LINE
8
BLACK
6
CONTINUOUS
10
0.8572217716535433
20
0.759948937007874
11
0.856689094488189
21
0.7604816141732283
0
LINE
8
BLACK
6
CONTINUOUS
10
0.856689094488189
20
0.7604816141732283
11
0.8566141732283464
21
0.8931417322834645
0
LINE
8
BLACK
6
CONTINUOUS
10
0.8566141732283464
20
0.8931417322834645
11
0.856689094488189
21
0.8935183858267717
0
LINE
8
BLACK
6
CONTINUOUS
10
0.856689094488189
20
0.8935183858267717
11
0.8572217716535433
21
0.894051062992126
0
LINE
8
BLACK
6
CONTINUOUS
10
0.8572217716535433
20
0.894051062992126
11
0.9324015748031496
21
0.8941259842519684
0
LINE
8
BLACK
6
CONTINUOUS
10
0.9324015748031496
20
0.8941259842519684
11
0.9327782283464566
21
0.894051062992126
0
LINE
8
BLACK
6
CONTINUOUS
10
0.8585085039370078
20
0.8921584251968504
11
0.858582125984252
21
0.7617689763779527
0
LINE
8
BLACK
6
CONTINUOUS
10
0.858582125984252
20
0.7617689763779527
11
0.9314914566929133
21
0.7618416141732284
0
LINE
8
BLACK
6
CONTINUOUS
10
0.9314914566929133
20
0.7618416141732284
11
0.9314178346456693
21
0.892231062992126
0
LINE
8
BLACK
6
CONTINUOUS
10
0.9314178346456693
20
0.892231062992126
11
0.8585085039370078
21
0.8921584251968504
0
LINE
8
BLACK
6
CONTINUOUS
10
1.1607782283464567
20
0.9340510629921259
11
1.1613109055118109
21
0.9335183858267716
0
LINE
8
BLACK
6
CONTINUOUS
10
1.1613109055118109
20
0.9335183858267716
11
1.1613858267716535
21
0.8008582677165355
0
LINE
8
BLACK
6
CONTINUOUS
10
1.1613858267716535
20
0.8008582677165355
11
1.1613109055118109
21
0.8004816141732283
0
LINE
8
BLACK
6
CONTINUOUS
10
1.1613109055118109
20
0.8004816141732283
11
1.1607782283464567
21
0.799948937007874
0
LINE
8
BLACK
6
CONTINUOUS
10
1.1607782283464567
20
0.799948937007874
11
1.0855984251968505
21
0.7998740157480315
0
LINE
8
BLACK
6
CONTINUOUS
10
1.0855984251968505
20
0.7998740157480315
11
1.0852217716535433
21
0.799948937007874
0
LINE
8
BLACK
6
CONTINUOUS
10
1.0852217716535433
20
0.799948937007874
11
1.0846890944881888
21
0.8004816141732283
0
LINE
8
BLACK
6
CONTINUOUS
10
1.0846890944881888
20
0.8004816141732283
11
1.0846890944881888
21
0.8005079921259842
0
LINE
8
BLACK
6
CONTINUOUS
10
1.0846890944881888
20
0.8005079921259842
11
1.0846141732283465
21
0.9331417322834645
0
LINE
8
BLACK
6
CONTINUOUS
10
1.0846141732283465
20
0.9331417322834645
11
1.0846890944881888
21
0.9335183858267716
0
LINE
8
BLACK
6
CONTINUOUS
10
1.0846890944881888
20
0.9335183858267716
11
1.0852217716535433
21
0.9340510629921259
0
LINE
8
BLACK
6
CONTINUOUS
10
1.0852217716535433
20
0.9340510629921259
11
1.1604015748031495
21
0.9341259842519685
0
LINE
8
BLACK
6
CONTINUOUS
10
1.1604015748031495
20
0.9341259842519685
11
1.1607782283464567
21
0.9340510629921259
0
LINE
8
BLACK
6
CONTINUOUS
10
1.0865085039370079
20
0.9321584251968503
11
1.0865821259842519
21
0.8017689763779527
0
LINE
8
BLACK
6
CONTINUOUS
10
1.0865821259842519
20
0.8017689763779527
11
1.1594914566929133
21
0.8018416141732283
0
LINE
8
BLACK
6
CONTINUOUS
10
1.1594914566929133
20
0.8018416141732283
11
1.1594178346456692
21
0.932231062992126
0
LINE
8
BLACK
6
CONTINUOUS
10
1.1594178346456692
20
0.932231062992126
11
1.0865085039370079
21
0.9321584251968503
0
LINE
8
BLACK
6
CONTINUOUS
10
1.0703057874015747
20
0.8794920078740157
11
1.0708384645669291
21
0.8789593307086614
0
LINE
8
BLACK
6
CONTINUOUS
10
1.0708384645669291
20
0.8789593307086614
11
1.0709133858267716
21
0.8014173228346456
0
LINE
8
BLACK
6
CONTINUOUS
10
1.0709133858267716
20
0.8014173228346456
11
1.0708384645669291
21
0.8010406692913385
0
LINE
8
BLACK
6
CONTINUOUS
10
1.0708384645669291
20
0.8010406692913385
11
1.0703057874015747
21
0.8005079921259842
0
LINE
8
BLACK
6
CONTINUOUS
10
1.0703057874015747
20
0.8005079921259842
11
0.9360708661417323
21
0.8004330708661417
0
LINE
8
BLACK
6
CONTINUOUS
10
0.9360708661417323
20
0.8004330708661417
11
0.9356942125984252
21
0.8005079921259842
0
LINE
8
BLACK
6
CONTINUOUS
10
0.9356942125984252
20
0.8005079921259842
11
0.9351615354330708
21
0.8010406692913385
0
LINE
8
BLACK
6
CONTINUOUS
10
0.9351615354330708
20
0.8010406692913385
11
0.9350866141732284
21
0.8785826771653543
0
LINE
8
BLACK
6
CONTINUOUS
10
0.9350866141732284
20
0.8785826771653543
11
0.9351615354330708
21
0.8789593307086614
0
LINE
8
BLACK
6
CONTINUOUS
10
0.9351615354330708
20
0.8789593307086614
11
0.9356942125984252
21
0.8794920078740157
0
LINE
8
BLACK
6
CONTINUOUS
10
0.9356942125984252
20
0.8794920078740157
11
1.0699291338582677
21
0.8795669291338583
0
LINE
8
BLACK
6
CONTINUOUS
10
1.0699291338582677
20
0.8795669291338583
11
1.0703057874015747
21
0.8794920078740157
0
LINE
8
BLACK
6
CONTINUOUS
10
0.9369814960629921
20
0.8775989370078739
11
0.9370542125984251
21
0.8023274409448818
0
LINE
8
BLACK
6
CONTINUOUS
10
0.9370542125984251
20
0.8023274409448818
11
1.0690184645669292
21
0.8024011023622047
0
LINE
8
BLACK
6
CONTINUOUS
10
1.0690184645669292
20
0.8024011023622047
11
1.0689457480314961
21
0.8776725984251968
0
LINE
8
BLACK
6
CONTINUOUS
10
1.0689457480314961
20
0.8776725984251968
11
0.9369814960629921
21
0.8775989370078739
0
LINE
8
BLACK
6
CONTINUOUS
10
0.6465183858267717
20
0.888310905511811
11
0.647051062992126
21
0.8877782283464567
0
LINE
8
BLACK
6
CONTINUOUS
10
0.647051062992126
20
0.8877782283464567
11
0.6471259842519685
21
0.8125984251968503
0
LINE
8
BLACK
6
CONTINUOUS
10
0.6471259842519685
20
0.8125984251968503
11
0.647051062992126
21
0.8122217716535433
0
LINE
8
BLACK
6
CONTINUOUS
10
0.647051062992126
20
0.8122217716535433
11
0.6465183858267717
21
0.8116890944881889
0
LINE
8
BLACK
6
CONTINUOUS
10
0.6465183858267717
20
0.8116890944881889
11
0.5138582677165354
21
0.8116141732283464
0
LINE
8
BLACK
6
CONTINUOUS
10
0.5138582677165354
20
0.8116141732283464
11
0.5134816141732284
21
0.8116890944881889
0
LINE
8
BLACK
6
CONTINUOUS
10
0.5134816141732284
20
0.8116890944881889
11
0.512948937007874
21
0.8122217716535433
0
LINE
8
BLACK
6
CONTINUOUS
10
0.512948937007874
20
0.8122217716535433
11
0.5128740157480315
21
0.8874015748031496
0
LINE
8
BLACK
6
CONTINUOUS
10
0.5128740157480315
20
0.8874015748031496
11
0.512948937007874
21
0.8877782283464567
0
LINE
8
BLACK
6
CONTINUOUS
10
0.512948937007874
20
0.8877782283464567
11
0.5134816141732284
21
0.888310905511811
0
LINE
8
BLACK
6
CONTINUOUS
10
0.5134816141732284
20
0.888310905511811
11
0.6461417322834645
21
0.8883858267716536
0
LINE
8
BLACK
6
CONTINUOUS
10
0.6461417322834645
20
0.8883858267716536
11
0.6465183858267717
21
0.888310905511811
0
LINE
8
BLACK
6
CONTINUOUS
10
0.514768937007874
20
0.886417874015748
11
0.5148415748031496
21
0.8135085433070866
0
LINE
8
BLACK
6
CONTINUOUS
10
0.5148415748031496
20
0.8135085433070866
11
0.6452310236220472
21
0.8135821653543307
0
LINE
8
BLACK
6
CONTINUOUS
10
0.6452310236220472
20
0.8135821653543307
11
0.6451583858267717
21
0.8864914960629922
0
LINE
8
BLACK
6
CONTINUOUS
10
0.6451583858267717
20
0.8864914960629922
11
0.514768937007874
21
0.886417874015748
0
LINE
8
BLACK
6
CONTINUOUS
10
1.6364206299212598
20
1.0635174409448818
11
1.691304094488189
21
1.0087399212598425
0
LINE
8
BLACK
6
CONTINUOUS
10
1.691304094488189
20
1.0087399212598425
11
1.6915174409448819
21
1.0084206299212599
0
LINE
8
BLACK
6
CONTINUOUS
10
1.6915174409448819
20
1.0084206299212599
11
1.6915174409448819
21
1.0076673228346456
0
LINE
8
BLACK
6
CONTINUOUS
10
1.6915174409448819
20
1.0076673228346456
11
1.6437579921259842
21
0.9598545275590551
0
LINE
8
BLACK
6
CONTINUOUS
10
1.6437579921259842
20
0.9598545275590551
11
1.7410769685039369
21
0.8626410236220472
0
LINE
8
BLACK
6
CONTINUOUS
10
1.7410769685039369
20
0.8626410236220472
11
1.7412903543307086
21
0.8623216929133858
0
LINE
8
BLACK
6
CONTINUOUS
10
1.7412903543307086
20
0.8623216929133858
11
1.7412903543307086
21
0.8615683858267716
0
LINE
8
BLACK
6
CONTINUOUS
10
1.7412903543307086
20
0.8615683858267716
11
1.6937509448818897
21
0.8139229921259842
0
LINE
8
BLACK
6
CONTINUOUS
10
1.6937509448818897
20
0.8139229921259842
11
1.6934316141732284
21
0.8137096456692913
0
LINE
8
BLACK
6
CONTINUOUS
10
1.6934316141732284
20
0.8137096456692913
11
1.692678307086614
21
0.8137096456692913
0
LINE
8
BLACK
6
CONTINUOUS
10
1.692678307086614
20
0.8137096456692913
11
1.5949229921259842
21
0.9113589763779527
0
LINE
8
BLACK
6
CONTINUOUS
10
1.5949229921259842
20
0.9113589763779527
11
1.5947096456692913
21
0.9116783070866141
0
LINE
8
BLACK
6
CONTINUOUS
10
1.5947096456692913
20
0.9116783070866141
11
1.5947096456692913
21
0.9124316141732284
0
LINE
8
BLACK
6
CONTINUOUS
10
1.5947096456692913
20
0.9124316141732284
11
1.5951690551181101
21
0.9128920866141732
0
LINE
8
BLACK
6
CONTINUOUS
10
1.5951690551181101
20
0.9128920866141732
11
1.540695905511811
21
0.9672600393700788
0
LINE
8
BLACK
6
CONTINUOUS
10
1.540695905511811
20
0.9672600393700788
11
1.5404825590551181
21
0.9675793700787402
0
LINE
8
BLACK
6
CONTINUOUS
10
1.5404825590551181
20
0.9675793700787402
11
1.5404825590551181
21
0.9676181102362205
0
LINE
8
BLACK
6
CONTINUOUS
10
1.5404825590551181
20
0.9676181102362205
11
1.4171023622047243
21
0.9675511811023622
0
LINE
8
BLACK
6
CONTINUOUS
10
1.4171023622047243
20
0.9675511811023622
11
1.4167257086614173
21
0.9676261023622047
0
LINE
8
BLACK
6
CONTINUOUS
10
1.4167257086614173
20
0.9676261023622047
11
1.4165274015748031
21
0.9678244094488189
0
LINE
8
BLACK
6
CONTINUOUS
10
1.4165274015748031
20
0.9678244094488189
11
1.4165669291338583
21
0.8970708661417323
0
LINE
8
BLACK
6
CONTINUOUS
10
1.4165669291338583
20
0.8970708661417323
11
1.4164920078740157
21
0.8966942125984252
0
LINE
8
BLACK
6
CONTINUOUS
10
1.4164920078740157
20
0.8966942125984252
11
1.4159593307086613
21
0.8961615354330709
0
LINE
8
BLACK
6
CONTINUOUS
10
1.4159593307086613
20
0.8961615354330709
11
1.3384173228346457
21
0.8960866141732283
0
LINE
8
BLACK
6
CONTINUOUS
10
1.3384173228346457
20
0.8960866141732283
11
1.3380406692913385
21
0.8961615354330709
0
LINE
8
BLACK
6
CONTINUOUS
10
1.3380406692913385
20
0.8961615354330709
11
1.3375079921259843
21
0.8966942125984252
0
LINE
8
BLACK
6
CONTINUOUS
10
1.3375079921259843
20
0.8966942125984252
11
1.3374671653543306
21
0.9698190157480314
0
LINE
8
BLACK
6
CONTINUOUS
10
1.3374671653543306
20
0.9698190157480314
11
1.3372742913385827
21
0.9696261023622047
0
LINE
8
BLACK
6
CONTINUOUS
10
1.3372742913385827
20
0.9696261023622047
11
1.1991023622047243
21
0.9695511811023622
0
LINE
8
BLACK
6
CONTINUOUS
10
1.1991023622047243
20
0.9695511811023622
11
1.1989093307086613
21
0.9695896062992125
0
LINE
8
BLACK
6
CONTINUOUS
10
1.1989093307086613
20
0.9695896062992125
11
1.1989133858267715
21
0.9654173228346457
0
LINE
8
BLACK
6
CONTINUOUS
10
1.1989133858267715
20
0.9654173228346457
11
1.198838464566929
21
0.9650406692913386
0
LINE
8
BLACK
6
CONTINUOUS
10
1.198838464566929
20
0.9650406692913386
11
1.1983057874015748
21
0.9645079921259843
0
LINE
8
BLACK
6
CONTINUOUS
10
1.1983057874015748
20
0.9645079921259843
11
1.0654117322834646
21
0.9644338582677165
0
LINE
8
BLACK
6
CONTINUOUS
10
1.0654117322834646
20
0.9644338582677165
11
1.0654488188976379
21
0.8961023622047244
0
LINE
8
BLACK
6
CONTINUOUS
10
1.0654488188976379
20
0.8961023622047244
11
1.0653738976377953
21
0.8957257086614173
0
LINE
8
BLACK
6
CONTINUOUS
10
1.0653738976377953
20
0.8957257086614173
11
1.0648412204724409
21
0.895193031496063
0
LINE
8
BLACK
6
CONTINUOUS
10
1.0648412204724409
20
0.895193031496063
11
0.9975354330708661
21
0.8951181102362205
0
LINE
8
BLACK
6
CONTINUOUS
10
0.9975354330708661
20
0.8951181102362205
11
0.997158779527559
21
0.895193031496063
0
LINE
8
BLACK
6
CONTINUOUS
10
0.997158779527559
20
0.895193031496063
11
0.9966261023622047
21
0.8957257086614173
0
LINE
8
BLACK
6
CONTINUOUS
10
0.9966261023622047
20
0.8957257086614173
11
0.9965511811023622
21
1.0338976377952755
0
LINE
8
BLACK
6
CONTINUOUS
10
0.9965511811023622
20
1.0338976377952755
11
0.9966261023622047
21
1.0342742913385827
0
LINE
8
BLACK
6
CONTINUOUS
10
0.9966261023622047
20
1.0342742913385827
11
0.997158779527559
21
1.0348069685039369
0
LINE
8
BLACK
6
CONTINUOUS
10
0.997158779527559
20
1.0348069685039369
11
1.0630940551181103
21
1.0348803937007873
0
LINE
8
BLACK
6
CONTINUOUS
10
1.0630940551181103
20
1.0348803937007873
11
1.0630866141732283
21
1.0425826771653544
0
LINE
8
BLACK
6
CONTINUOUS
10
1.0630866141732283
20
1.0425826771653544
11
1.0631615354330708
21
1.0429593307086613
0
LINE
8
BLACK
6
CONTINUOUS
10
1.0631615354330708
20
1.0429593307086613
11
1.0636942125984252
21
1.0434920078740157
0
LINE
8
BLACK
6
CONTINUOUS
10
1.0636942125984252
20
1.0434920078740157
11
1.1979291338582676
21
1.0435669291338583
0
LINE
8
BLACK
6
CONTINUOUS
10
1.1979291338582676
20
1.0435669291338583
11
1.1983057874015748
21
1.0434920078740157
0
LINE
8
BLACK
6
CONTINUOUS
10
1.1983057874015748
20
1.0434920078740157
11
1.198838464566929
21
1.0429593307086613
0
LINE
8
BLACK
6
CONTINUOUS
10
1.198838464566929
20
1.0429593307086613
11
1.198842874015748
21
1.0383739763779527
0
LINE
8
BLACK
6
CONTINUOUS
10
1.198842874015748
20
1.0383739763779527
11
1.3368976377952755
21
1.0384488188976377
0
LINE
8
BLACK
6
CONTINUOUS
10
1.3368976377952755
20
1.0384488188976377
11
1.3372742913385827
21
1.0383738976377952
0
LINE
8
BLACK
6
CONTINUOUS
10
1.3372742913385827
20
1.0383738976377952
11
1.3378069685039369
21
1.037841220472441
0
LINE
8
BLACK
6
CONTINUOUS
10
1.3378069685039369
20
1.037841220472441
11
1.3378138976377953
21
1.0316117322834646
0
LINE
8
BLACK
6
CONTINUOUS
10
1.3378138976377953
20
1.0316117322834646
11
1.3380406692913385
21
1.0318384645669292
0
LINE
8
BLACK
6
CONTINUOUS
10
1.3380406692913385
20
1.0318384645669292
11
1.4155826771653544
21
1.0319133858267717
0
LINE
8
BLACK
6
CONTINUOUS
10
1.4155826771653544
20
1.0319133858267717
11
1.4159593307086613
21
1.0318384645669292
0
LINE
8
BLACK
6
CONTINUOUS
10
1.4159593307086613
20
1.0318384645669292
11
1.4161223228346456
21
1.0316754724409449
0
LINE
8
BLACK
6
CONTINUOUS
10
1.4161223228346456
20
1.0316754724409449
11
1.4161181102362204
21
1.0354645669291338
0
LINE
8
BLACK
6
CONTINUOUS
10
1.4161181102362204
20
1.0354645669291338
11
1.4161930314960629
21
1.035841220472441
0
LINE
8
BLACK
6
CONTINUOUS
10
1.4161930314960629
20
1.035841220472441
11
1.4167257086614173
21
1.0363738976377952
0
LINE
8
BLACK
6
CONTINUOUS
10
1.4167257086614173
20
1.0363738976377952
11
1.5548976377952755
21
1.0364488188976377
0
LINE
8
BLACK
6
CONTINUOUS
10
1.5548976377952755
20
1.0364488188976377
11
1.5552742913385826
21
1.0363738976377952
0
LINE
8
BLACK
6
CONTINUOUS
10
1.5552742913385826
20
1.0363738976377952
11
1.5558069685039371
21
1.035841220472441
0
LINE
8
BLACK
6
CONTINUOUS
10
1.5558069685039371
20
1.035841220472441
11
1.5558649606299213
21
0.9837322834645669
0
LINE
8
BLACK
6
CONTINUOUS
10
1.5558649606299213
20
0.9837322834645669
11
1.6353479921259841
21
1.0633040944881889
0
LINE
8
BLACK
6
CONTINUOUS
10
1.6353479921259841
20
1.0633040944881889
11
1.6356673228346457
21
1.0635174409448818
0
LINE
8
BLACK
6
CONTINUOUS
10
1.6356673228346457
20
1.0635174409448818
11
1.6364206299212598
21
1.0635174409448818
0
LINE
8
BLACK
6
CONTINUOUS
10
1.5969577559055117
20
0.9120032283464566
11
1.693106496062992
21
0.8159586614173228
0
LINE
8
BLACK
6
CONTINUOUS
10
1.693106496062992
20
0.8159586614173228
11
1.7390422440944882
21
0.861996811023622
0
LINE
8
BLACK
6
CONTINUOUS
10
1.7390422440944882
20
0.861996811023622
11
1.6428934645669291
21
0.9580413385826771
0
LINE
8
BLACK
6
CONTINUOUS
10
1.6428934645669291
20
0.9580413385826771
11
1.5969577559055117
21
0.9120032283464566
0
LINE
8
BLACK
6
CONTINUOUS
10
0.9984454724409448
20
1.032914409448819
11
0.9985191732283464
21
0.8970132283464567
0
LINE
8
BLACK
6
CONTINUOUS
10
0.9985191732283464
20
0.8970132283464567
11
1.0635544881889762
21
0.8970856299212598
0
LINE
8
BLACK
6
CONTINUOUS
10
1.0635544881889762
20
0.8970856299212598
11
1.0635178346456693
21
0.9646843700787401
0
LINE
8
BLACK
6
CONTINUOUS
10
1.0635178346456693
20
0.9646843700787401
11
1.0631615354330708
21
0.9650406692913386
0
LINE
8
BLACK
6
CONTINUOUS
10
1.0631615354330708
20
0.9650406692913386
11
1.0630958661417322
21
1.0329863779527559
0
LINE
8
BLACK
6
CONTINUOUS
10
1.0630958661417322
20
1.0329863779527559
11
0.9984454724409448
21
1.032914409448819
0
LINE
8
BLACK
6
CONTINUOUS
10
1.3393274015748031
20
1.0299457874015747
11
1.339401062992126
21
0.8979815354330708
0
LINE
8
BLACK
6
CONTINUOUS
10
1.339401062992126
20
0.8979815354330708
11
1.4146725590551181
21
0.898054251968504
0
LINE
8
BLACK
6
CONTINUOUS
10
1.4146725590551181
20
0.898054251968504
11
1.4145988976377952
21
1.0300185039370078
0
LINE
8
BLACK
6
CONTINUOUS
10
1.4145988976377952
20
1.0300185039370078
11
1.3393274015748031
21
1.0299457874015747
0
LINE
8
BLACK
6
CONTINUOUS
10
1.5558679527559054
20
0.9810555511811023
11
1.5558818897637794
21
0.9685354330708661
0
LINE
8
BLACK
6
CONTINUOUS
10
1.5558818897637794
20
0.9685354330708661
11
1.5558069685039371
21
0.968158779527559
0
LINE
8
BLACK
6
CONTINUOUS
10
1.5558069685039371
20
0.968158779527559
11
1.5552742913385826
21
0.9676261023622047
0
LINE
8
BLACK
6
CONTINUOUS
10
1.5552742913385826
20
0.9676261023622047
11
1.5430168503937007
21
0.9676194881889764
0
LINE
8
BLACK
6
CONTINUOUS
10
1.5430168503937007
20
0.9676194881889764
11
1.5960078346456692
21
0.9147307874015748
0
LINE
8
BLACK
6
CONTINUOUS
10
1.5960078346456692
20
0.9147307874015748
11
1.6892685433070866
21
1.0080957086614173
0
LINE
8
BLACK
6
CONTINUOUS
10
1.6892685433070866
20
1.0080957086614173
11
1.635992125984252
21
1.0612692519685039
0
LINE
8
BLACK
6
CONTINUOUS
10
1.635992125984252
20
1.0612692519685039
11
1.5558679527559054
21
0.9810555511811023
0
LINE
8
BLACK
6
CONTINUOUS
10
1.0649814960629922
20
1.041598937007874
11
1.0649881889763779
21
1.0346599999999999
0
LINE
8
BLACK
6
CONTINUOUS
10
1.0649881889763779
20
1.0346599999999999
11
1.0653738976377953
21
1.0342742913385827
0
LINE
8
BLACK
6
CONTINUOUS
10
1.0653738976377953
20
1.0342742913385827
11
1.0654107086614173
21
0.9663276377952755
0
LINE
8
BLACK
6
CONTINUOUS
10
1.0654107086614173
20
0.9663276377952755
11
1.1970184645669291
21
0.9664011023622047
0
LINE
8
BLACK
6
CONTINUOUS
10
1.1970184645669291
20
0.9664011023622047
11
1.196945748031496
21
1.0416725984251969
0
LINE
8
BLACK
6
CONTINUOUS
10
1.196945748031496
20
1.0416725984251969
11
1.0649814960629922
21
1.041598937007874
0
LINE
8
BLACK
6
CONTINUOUS
10
1.4180131889763778
20
1.0344808267716534
11
1.4180855905511811
21
0.9694455118110236
0
LINE
8
BLACK
6
CONTINUOUS
10
1.4180855905511811
20
0.9694455118110236
11
1.5416610629921259
21
0.9695125196850394
0
LINE
8
BLACK
6
CONTINUOUS
10
1.5416610629921259
20
0.9695125196850394
11
1.5539730708661417
21
0.9818383070866141
0
LINE
8
BLACK
6
CONTINUOUS
10
1.5539730708661417
20
0.9818383070866141
11
1.5539143700787401
21
1.0345545275590551
0
LINE
8
BLACK
6
CONTINUOUS
10
1.5539143700787401
20
1.0345545275590551
11
1.4180131889763778
21
1.0344808267716534
0
LINE
8
BLACK
6
CONTINUOUS
10
1.544339251968504
20
0.9695139763779528
11
1.5539867716535434
21
0.9695192125984252
0
LINE
8
BLACK
6
CONTINUOUS
10
1.5539867716535434
20
0.9695192125984252
11
1.5539760236220472
21
0.9791615354330708
0
LINE
8
BLACK
6
CONTINUOUS
10
1.5539760236220472
20
0.9791615354330708
11
1.544339251968504
21
0.9695139763779528
0
LINE
8
BLACK
6
CONTINUOUS
10
1.2000131889763779
20
1.0364808267716534
11
1.2000855905511811
21
0.9714455118110236
0
LINE
8
BLACK
6
CONTINUOUS
10
1.2000855905511811
20
0.9714455118110236
11
1.3359867716535432
21
0.9715192125984252
0
LINE
8
BLACK
6
CONTINUOUS
10
1.3359867716535432
20
0.9715192125984252
11
1.3359143700787401
21
1.0365545275590551
0
LINE
8
BLACK
6
CONTINUOUS
10
1.3359143700787401
20
1.0365545275590551
11
1.2000131889763779
21
1.0364808267716534
0
LINE
8
BLACK
6
CONTINUOUS
10
0.6465183858267717
20
0.988310905511811
11
0.647051062992126
21
0.9877782283464567
0
LINE
8
BLACK
6
CONTINUOUS
10
0.647051062992126
20
0.9877782283464567
11
0.6471259842519685
21
0.9125984251968504
0
LINE
8
BLACK
6
CONTINUOUS
10
0.6471259842519685
20
0.9125984251968504
11
0.647051062992126
21
0.9122217716535432
0
LINE
8
BLACK
6
CONTINUOUS
10
0.647051062992126
20
0.9122217716535432
11
0.6465183858267717
21
0.9116890944881889
0
LINE
8
BLACK
6
CONTINUOUS
10
0.6465183858267717
20
0.9116890944881889
11
0.5138582677165354
21
0.9116141732283465
0
LINE
8
BLACK
6
CONTINUOUS
10
0.5138582677165354
20
0.9116141732283465
11
0.5134816141732284
21
0.9116890944881889
0
LINE
8
BLACK
6
CONTINUOUS
10
0.5134816141732284
20
0.9116890944881889
11
0.512948937007874
21
0.9122217716535432
0
LINE
8
BLACK
6
CONTINUOUS
10
0.512948937007874
20
0.9122217716535432
11
0.5128740157480315
21
0.9874015748031496
0
LINE
8
BLACK
6
CONTINUOUS
10
0.5128740157480315
20
0.9874015748031496
11
0.512948937007874
21
0.9877782283464567
0
LINE
8
BLACK
6
CONTINUOUS
10
0.512948937007874
20
0.9877782283464567
11
0.5134816141732284
21
0.988310905511811
0
LINE
8
BLACK
6
CONTINUOUS
10
0.5134816141732284
20
0.988310905511811
11
0.6461417322834645
21
0.9883858267716535
0
LINE
8
BLACK
6
CONTINUOUS
10
0.6461417322834645
20
0.9883858267716535
11
0.6465183858267717
21
0.988310905511811
0
LINE
8
BLACK
6
CONTINUOUS
10
0.514768937007874
20
0.986417874015748
11
0.5148415748031496
21
0.9135085433070866
0
LINE
8
BLACK
6
CONTINUOUS
10
0.5148415748031496
20
0.9135085433070866
11
0.6452310236220472
21
0.9135821653543307
0
LINE
8
BLACK
6
CONTINUOUS
10
0.6452310236220472
20
0.9135821653543307
11
0.6451583858267717
21
0.9864914960629921
0
LINE
8
BLACK
6
CONTINUOUS
10
0.6451583858267717
20
0.9864914960629921
11
0.514768937007874
21
0.986417874015748
0
LINE
8
BLACK
6
CONTINUOUS
10
0.9773470078740157
20
1.131303031496063
11
0.9778796850393701
21
1.1307703543307086
0
LINE
8
BLACK
6
CONTINUOUS
10
0.9778796850393701
20
1.1307703543307086
11
0.9779546062992126
21
0.9256692913385827
0
LINE
8
BLACK
6
CONTINUOUS
10
0.9779546062992126
20
0.9256692913385827
11
0.9778796850393701
21
0.9252926377952756
0
LINE
8
BLACK
6
CONTINUOUS
10
0.9778796850393701
20
0.9252926377952756
11
0.9773470078740157
21
0.9247599606299213
0
LINE
8
BLACK
6
CONTINUOUS
10
0.9773470078740157
20
0.9247599606299213
11
0.7722459448818898
21
0.9246850393700787
0
LINE
8
BLACK
6
CONTINUOUS
10
0.7722459448818898
20
0.9246850393700787
11
0.7718692913385826
21
0.9247599606299213
0
LINE
8
BLACK
6
CONTINUOUS
10
0.7718692913385826
20
0.9247599606299213
11
0.7713366141732283
21
0.9252926377952756
0
LINE
8
BLACK
6
CONTINUOUS
10
0.7713366141732283
20
0.9252926377952756
11
0.7712616929133858
21
1.1303937007874016
0
LINE
8
BLACK
6
CONTINUOUS
10
0.7712616929133858
20
1.1303937007874016
11
0.7713366141732283
21
1.1307703543307086
0
LINE
8
BLACK
6
CONTINUOUS
10
0.7713366141732283
20
1.1307703543307086
11
0.7718692913385826
21
1.131303031496063
0
LINE
8
BLACK
6
CONTINUOUS
10
0.7718692913385826
20
1.131303031496063
11
0.9769703543307087
21
1.1313779527559056
0
LINE
8
BLACK
6
CONTINUOUS
10
0.9769703543307087
20
1.1313779527559056
11
0.9773470078740157
21
1.131303031496063
0
LINE
8
BLACK
6
CONTINUOUS
10
0.773155748031496
20
1.1294098031496063
11
0.7732298425196851
21
0.9265791338582677
0
LINE
8
BLACK
6
CONTINUOUS
10
0.7732298425196851
20
0.9265791338582677
11
0.9760605118110236
21
0.9266532283464567
0
LINE
8
BLACK
6
CONTINUOUS
10
0.9760605118110236
20
0.9266532283464567
11
0.9759864173228346
21
1.1294838976377952
0
LINE
8
BLACK
6
CONTINUOUS
10
0.9759864173228346
20
1.1294838976377952
11
0.773155748031496
21
1.1294098031496063
0
LINE
8
BLACK
6
CONTINUOUS
10
0.6465183858267717
20
1.088310905511811
11
0.647051062992126
21
1.0877782283464568
0
LINE
8
BLACK
6
CONTINUOUS
10
0.647051062992126
20
1.0877782283464568
11
0.6471259842519685
21
1.0125984251968503
0
LINE
8
BLACK
6
CONTINUOUS
10
0.6471259842519685
20
1.0125984251968503
11
0.647051062992126
21
1.0122217716535433
0
LINE
8
BLACK
6
CONTINUOUS
10
0.647051062992126
20
1.0122217716535433
11
0.6465183858267717
21
1.0116890944881889
0
LINE
8
BLACK
6
CONTINUOUS
10
0.6465183858267717
20
1.0116890944881889
11
0.5138582677165354
21
1.0116141732283463
0
LINE
8
BLACK
6
CONTINUOUS
10
0.5138582677165354
20
1.0116141732283463
11
0.5134816141732284
21
1.0116890944881889
0
LINE
8
BLACK
6
CONTINUOUS
10
0.5134816141732284
20
1.0116890944881889
11
0.512948937007874
21
1.0122217716535433
0
LINE
8
BLACK
6
CONTINUOUS
10
0.512948937007874
20
1.0122217716535433
11
0.5128740157480315
21
1.0874015748031496
0
LINE
8
BLACK
6
CONTINUOUS
10
0.5128740157480315
20
1.0874015748031496
11
0.512948937007874
21
1.0877782283464568
0
LINE
8
BLACK
6
CONTINUOUS
10
0.512948937007874
20
1.0877782283464568
11
0.5134816141732284
21
1.088310905511811
0
LINE
8
BLACK
6
CONTINUOUS
10
0.5134816141732284
20
1.088310905511811
11
0.6461417322834645
21
1.0883858267716535
0
LINE
8
BLACK
6
CONTINUOUS
10
0.6461417322834645
20
1.0883858267716535
11
0.6465183858267717
21
1.088310905511811
0
LINE
8
BLACK
6
CONTINUOUS
10
0.514768937007874
20
1.086417874015748
11
0.5148415748031496
21
1.0135085433070865
0
LINE
8
BLACK
6
CONTINUOUS
10
0.5148415748031496
20
1.0135085433070865
11
0.6452310236220472
21
1.0135821653543307
0
LINE
8
BLACK
6
CONTINUOUS
10
0.6452310236220472
20
1.0135821653543307
11
0.6451583858267717
21
1.0864914960629921
0
LINE
8
BLACK
6
CONTINUOUS
10
0.6451583858267717
20
1.0864914960629921
11
0.514768937007874
21
1.086417874015748
0
LINE
8
BLACK
6
CONTINUOUS
10
1.0373216929133857
20
1.1932903543307087
11
1.135076968503937
21
1.0956410236220473
0
LINE
8
BLACK
6
CONTINUOUS
10
1.135076968503937
20
1.0956410236220473
11
1.1352903543307087
21
1.0953216929133858
0
LINE
8
BLACK
6
CONTINUOUS
10
1.1352903543307087
20
1.0953216929133858
11
1.1352903543307087
21
1.0945683858267716
0
LINE
8
BLACK
6
CONTINUOUS
10
1.1352903543307087
20
1.0945683858267716
11
1.0877509448818898
21
1.0469229921259842
0
LINE
8
BLACK
6
CONTINUOUS
10
1.0877509448818898
20
1.0469229921259842
11
1.0874316141732283
21
1.0467096456692913
0
LINE
8
BLACK
6
CONTINUOUS
10
1.0874316141732283
20
1.0467096456692913
11
1.0866783070866142
21
1.0467096456692913
0
LINE
8
BLACK
6
CONTINUOUS
10
1.0866783070866142
20
1.0467096456692913
11
0.9889229921259842
21
1.1443589763779527
0
LINE
8
BLACK
6
CONTINUOUS
10
0.9889229921259842
20
1.1443589763779527
11
0.9887096456692913
21
1.1446783070866142
0
LINE
8
BLACK
6
CONTINUOUS
10
0.9887096456692913
20
1.1446783070866142
11
0.9887096456692913
21
1.1454316141732284
0
LINE
8
BLACK
6
CONTINUOUS
10
0.9887096456692913
20
1.1454316141732284
11
1.036249094488189
21
1.1930770078740158
0
LINE
8
BLACK
6
CONTINUOUS
10
1.036249094488189
20
1.1930770078740158
11
1.0365683858267716
21
1.1932903543307087
0
LINE
8
BLACK
6
CONTINUOUS
10
1.0365683858267716
20
1.1932903543307087
11
1.0373216929133857
21
1.1932903543307087
0
LINE
8
BLACK
6
CONTINUOUS
10
0.9909577559055118
20
1.1450032283464566
11
1.0871064960629921
21
1.0489586614173227
0
LINE
8
BLACK
6
CONTINUOUS
10
1.0871064960629921
20
1.0489586614173227
11
1.1330422440944881
21
1.0949968110236221
0
LINE
8
BLACK
6
CONTINUOUS
10
1.1330422440944881
20
1.0949968110236221
11
1.0368934645669292
21
1.1910413385826772
0
LINE
8
BLACK
6
CONTINUOUS
10
1.0368934645669292
20
1.1910413385826772
11
0.9909577559055118
21
1.1450032283464566
0
LINE
8
BLACK
6
CONTINUOUS
10
1.2923057874015749
20
1.1574920078740156
11
1.2928384645669291
21
1.1569593307086614
0
LINE
8
BLACK
6
CONTINUOUS
10
1.2928384645669291
20
1.1569593307086614
11
1.2929133858267716
21
1.0794173228346458
0
LINE
8
BLACK
6
CONTINUOUS
10
1.2929133858267716
20
1.0794173228346458
11
1.2928384645669291
21
1.0790406692913386
0
LINE
8
BLACK
6
CONTINUOUS
10
1.2928384645669291
20
1.0790406692913386
11
1.2923057874015749
21
1.0785079921259841
0
LINE
8
BLACK
6
CONTINUOUS
10
1.2923057874015749
20
1.0785079921259841
11
1.1580708661417323
21
1.0784330708661418
0
LINE
8
BLACK
6
CONTINUOUS
10
1.1580708661417323
20
1.0784330708661418
11
1.1576942125984251
21
1.0785079921259841
0
LINE
8
BLACK
6
CONTINUOUS
10
1.1576942125984251
20
1.0785079921259841
11
1.1571615354330709
21
1.0790406692913386
0
LINE
8
BLACK
6
CONTINUOUS
10
1.1571615354330709
20
1.0790406692913386
11
1.1570866141732283
21
1.1565826771653542
0
LINE
8
BLACK
6
CONTINUOUS
10
1.1570866141732283
20
1.1565826771653542
11
1.1571615354330709
21
1.1569593307086614
0
LINE
8
BLACK
6
CONTINUOUS
10
1.1571615354330709
20
1.1569593307086614
11
1.1576942125984251
21
1.1574920078740156
0
LINE
8
BLACK
6
CONTINUOUS
10
1.1576942125984251
20
1.1574920078740156
11
1.2919291338582677
21
1.1575669291338582
0
LINE
8
BLACK
6
CONTINUOUS
10
1.2919291338582677
20
1.1575669291338582
11
1.2923057874015749
21
1.1574920078740156
0
LINE
8
BLACK
6
CONTINUOUS
10
1.1589814960629921
20
1.1555989370078741
11
1.1590542125984251
21
1.0803274409448818
0
LINE
8
BLACK
6
CONTINUOUS
10
1.1590542125984251
20
1.0803274409448818
11
1.2910184645669291
21
1.0804011023622047
0
LINE
8
BLACK
6
CONTINUOUS
10
1.2910184645669291
20
1.0804011023622047
11
1.2909457480314961
21
1.1556725984251968
0
LINE
8
BLACK
6
CONTINUOUS
10
1.2909457480314961
20
1.1556725984251968
11
1.1589814960629921
21
1.1555989370078741
0
LINE
8
BLACK
6
CONTINUOUS
10
0.6465183858267717
20
1.1883109055118111
11
0.647051062992126
21
1.1877782283464566
0
LINE
8
BLACK
6
CONTINUOUS
10
0.647051062992126
20
1.1877782283464566
11
0.6471259842519685
21
1.1125984251968504
0
LINE
8
BLACK
6
CONTINUOUS
10
0.6471259842519685
20
1.1125984251968504
11
0.647051062992126
21
1.1122217716535432
0
LINE
8
BLACK
6
CONTINUOUS
10
0.647051062992126
20
1.1122217716535432
11
0.6465183858267717
21
1.111689094488189
0
LINE
8
BLACK
6
CONTINUOUS
10
0.6465183858267717
20
1.111689094488189
11
0.5138582677165354
21
1.1116141732283464
0
LINE
8
BLACK
6
CONTINUOUS
10
0.5138582677165354
20
1.1116141732283464
11
0.5134816141732284
21
1.111689094488189
0
LINE
8
BLACK
6
CONTINUOUS
10
0.5134816141732284
20
1.111689094488189
11
0.512948937007874
21
1.1122217716535432
0
LINE
8
BLACK
6
CONTINUOUS
10
0.512948937007874
20
1.1122217716535432
11
0.5128740157480315
21
1.1874015748031497
0
LINE
8
BLACK
6
CONTINUOUS
10
0.5128740157480315
20
1.1874015748031497
11
0.512948937007874
21
1.1877782283464566
0
LINE
8
BLACK
6
CONTINUOUS
10
0.512948937007874
20
1.1877782283464566
11
0.5134816141732284
21
1.1883109055118111
0
LINE
8
BLACK
6
CONTINUOUS
10
0.5134816141732284
20
1.1883109055118111
11
0.6461417322834645
21
1.1883858267716536
0
LINE
8
BLACK
6
CONTINUOUS
10
0.6461417322834645
20
1.1883858267716536
11
0.6465183858267717
21
1.1883109055118111
0
LINE
8
BLACK
6
CONTINUOUS
10
0.514768937007874
20
1.1864178740157481
11
0.5148415748031496
21
1.1135085433070866
0
LINE
8
BLACK
6
CONTINUOUS
10
0.5148415748031496
20
1.1135085433070866
11
0.6452310236220472
21
1.1135821653543307
0
LINE
8
BLACK
6
CONTINUOUS
10
0.6452310236220472
20
1.1135821653543307
11
0.6451583858267717
21
1.1864914960629922
0
LINE
8
BLACK
6
CONTINUOUS
10
0.6451583858267717
20
1.1864914960629922
11
0.514768937007874
21
1.1864178740157481
0
LINE
8
BLACK
6
CONTINUOUS
10
1.4393057874015747
20
1.2304920078740158
11
1.4398384645669291
21
1.2299593307086614
0
LINE
8
BLACK
6
CONTINUOUS
10
1.4398384645669291
20
1.2299593307086614
11
1.4399133858267716
21
1.1524173228346457
0
LINE
8
BLACK
6
CONTINUOUS
10
1.4399133858267716
20
1.1524173228346457
11
1.4398384645669291
21
1.1520406692913385
0
LINE
8
BLACK
6
CONTINUOUS
10
1.4398384645669291
20
1.1520406692913385
11
1.4393057874015747
21
1.1515079921259843
0
LINE
8
BLACK
6
CONTINUOUS
10
1.4393057874015747
20
1.1515079921259843
11
1.3050708661417323
21
1.1514330708661418
0
LINE
8
BLACK
6
CONTINUOUS
10
1.3050708661417323
20
1.1514330708661418
11
1.3046942125984251
21
1.1515079921259843
0
LINE
8
BLACK
6
CONTINUOUS
10
1.3046942125984251
20
1.1515079921259843
11
1.3041615354330709
21
1.1520406692913385
0
LINE
8
BLACK
6
CONTINUOUS
10
1.3041615354330709
20
1.1520406692913385
11
1.3040866141732284
21
1.2295826771653544
0
LINE
8
BLACK
6
CONTINUOUS
10
1.3040866141732284
20
1.2295826771653544
11
1.3041615354330709
21
1.2299593307086614
0
LINE
8
BLACK
6
CONTINUOUS
10
1.3041615354330709
20
1.2299593307086614
11
1.3046942125984251
21
1.2304920078740158
0
LINE
8
BLACK
6
CONTINUOUS
10
1.3046942125984251
20
1.2304920078740158
11
1.4389291338582677
21
1.2305669291338583
0
LINE
8
BLACK
6
CONTINUOUS
10
1.4389291338582677
20
1.2305669291338583
11
1.4393057874015747
21
1.2304920078740158
0
LINE
8
BLACK
6
CONTINUOUS
10
1.3059814960629921
20
1.228598937007874
11
1.3060542125984251
21
1.1533274409448819
0
LINE
8
BLACK
6
CONTINUOUS
10
1.3060542125984251
20
1.1533274409448819
11
1.4380184645669292
21
1.1534011023622046
0
LINE
8
BLACK
6
CONTINUOUS
10
1.4380184645669292
20
1.1534011023622046
11
1.4379457480314961
21
1.2286725984251967
0
LINE
8
BLACK
6
CONTINUOUS
10
1.4379457480314961
20
1.2286725984251967
11
1.3059814960629921
21
1.228598937007874
0
LINE
8
BLACK
6
CONTINUOUS
10
1.2912742913385826
20
1.2283738976377951
11
1.2918069685039371
21
1.2278412204724409
0
LINE
8
BLACK
6
CONTINUOUS
10
1.2918069685039371
20
1.2278412204724409
11
1.2918818897637796
21
1.1605354330708662
0
LINE
8
BLACK
6
CONTINUOUS
10
1.2918818897637796
20
1.1605354330708662
11
1.2918069685039371
21
1.160158779527559
0
LINE
8
BLACK
6
CONTINUOUS
10
1.2918069685039371
20
1.160158779527559
11
1.2912742913385826
21
1.1596261023622048
0
LINE
8
BLACK
6
CONTINUOUS
10
1.2912742913385826
20
1.1596261023622048
11
1.1531023622047243
21
1.1595511811023622
0
LINE
8
BLACK
6
CONTINUOUS
10
1.1531023622047243
20
1.1595511811023622
11
1.1527257086614173
21
1.1596261023622048
0
LINE
8
BLACK
6
CONTINUOUS
10
1.1527257086614173
20
1.1596261023622048
11
1.1521930314960629
21
1.160158779527559
0
LINE
8
BLACK
6
CONTINUOUS
10
1.1521930314960629
20
1.160158779527559
11
1.1521181102362203
21
1.2274645669291337
0
LINE
8
BLACK
6
CONTINUOUS
10
1.1521181102362203
20
1.2274645669291337
11
1.1521930314960629
21
1.2278412204724409
0
LINE
8
BLACK
6
CONTINUOUS
10
1.1521930314960629
20
1.2278412204724409
11
1.1527257086614173
21
1.2283738976377951
0
LINE
8
BLACK
6
CONTINUOUS
10
1.1527257086614173
20
1.2283738976377951
11
1.2908976377952757
21
1.2284488188976377
0
LINE
8
BLACK
6
CONTINUOUS
10
1.2908976377952757
20
1.2284488188976377
11
1.2912742913385826
21
1.2283738976377951
0
LINE
8
BLACK
6
CONTINUOUS
10
1.1540131889763778
20
1.2264808267716536
11
1.1540855905511811
21
1.1614455118110236
0
LINE
8
BLACK
6
CONTINUOUS
10
1.1540855905511811
20
1.1614455118110236
11
1.2899867716535434
21
1.1615192125984253
0
LINE
8
BLACK
6
CONTINUOUS
10
1.2899867716535434
20
1.1615192125984253
11
1.2899143700787401
21
1.226554527559055
0
LINE
8
BLACK
6
CONTINUOUS
10
1.2899143700787401
20
1.226554527559055
11
1.1540131889763778
21
1.2264808267716536
0
LINE
8
BLACK
6
CONTINUOUS
10
1.1489593307086614
20
1.2968384645669291
11
1.1494920078740156
21
1.2963057874015749
0
LINE
8
BLACK
6
CONTINUOUS
10
1.1494920078740156
20
1.2963057874015749
11
1.1495669291338582
21
1.1620708661417323
0
LINE
8
BLACK
6
CONTINUOUS
10
1.1495669291338582
20
1.1620708661417323
11
1.1494920078740156
21
1.1616942125984251
0
LINE
8
BLACK
6
CONTINUOUS
10
1.1494920078740156
20
1.1616942125984251
11
1.1489593307086614
21
1.1611615354330709
0
LINE
8
BLACK
6
CONTINUOUS
10
1.1489593307086614
20
1.1611615354330709
11
1.0714173228346457
21
1.1610866141732283
0
LINE
8
BLACK
6
CONTINUOUS
10
1.0714173228346457
20
1.1610866141732283
11
1.0710406692913386
21
1.1611615354330709
0
LINE
8
BLACK
6
CONTINUOUS
10
1.0710406692913386
20
1.1611615354330709
11
1.0705079921259841
21
1.1616942125984251
0
LINE
8
BLACK
6
CONTINUOUS
10
1.0705079921259841
20
1.1616942125984251
11
1.0704330708661418
21
1.2959291338582677
0
LINE
8
BLACK
6
CONTINUOUS
10
1.0704330708661418
20
1.2959291338582677
11
1.0705079921259841
21
1.2963057874015749
0
LINE
8
BLACK
6
CONTINUOUS
10
1.0705079921259841
20
1.2963057874015749
11
1.0710406692913386
21
1.2968384645669291
0
LINE
8
BLACK
6
CONTINUOUS
10
1.0710406692913386
20
1.2968384645669291
11
1.1485826771653542
21
1.2969133858267716
0
LINE
8
BLACK
6
CONTINUOUS
10
1.1485826771653542
20
1.2969133858267716
11
1.1489593307086614
21
1.2968384645669291
0
LINE
8
BLACK
6
CONTINUOUS
10
1.0723274015748032
20
1.2949457874015748
11
1.0724010629921259
21
1.1629815354330708
0
LINE
8
BLACK
6
CONTINUOUS
10
1.0724010629921259
20
1.1629815354330708
11
1.147672559055118
21
1.1630542519685039
0
LINE
8
BLACK
6
CONTINUOUS
10
1.147672559055118
20
1.1630542519685039
11
1.1475988976377953
21
1.2950185039370079
0
LINE
8
BLACK
6
CONTINUOUS
10
1.1475988976377953
20
1.2950185039370079
11
1.0723274015748032
21
1.2949457874015748
0
LINE
8
BLACK
6
CONTINUOUS
10
0.940360905511811
20
1.3485864960629921
11
0.9408935826771654
21
1.3480538188976379
0
LINE
8
BLACK
6
CONTINUOUS
10
0.9408935826771654
20
1.3480538188976379
11
0.9409685039370078
21
1.1823228346456693
0
LINE
8
BLACK
6
CONTINUOUS
10
0.9409685039370078
20
1.1823228346456693
11
0.9408935826771654
21
1.1819461811023622
0
LINE
8
BLACK
6
CONTINUOUS
10
0.9408935826771654
20
1.1819461811023622
11
0.940360905511811
21
1.1814135039370079
0
LINE
8
BLACK
6
CONTINUOUS
10
0.940360905511811
20
1.1814135039370079
11
0.688015748031496
21
1.1813385826771654
0
LINE
8
BLACK
6
CONTINUOUS
10
0.688015748031496
20
1.1813385826771654
11
0.6876390944881889
21
1.1814135039370079
0
LINE
8
BLACK
6
CONTINUOUS
10
0.6876390944881889
20
1.1814135039370079
11
0.6871064173228346
21
1.1819461811023622
0
LINE
8
BLACK
6
CONTINUOUS
10
0.6871064173228346
20
1.1819461811023622
11
0.6870314960629921
21
1.3476771653543307
0
LINE
8
BLACK
6
CONTINUOUS
10
0.6870314960629921
20
1.3476771653543307
11
0.6871064173228346
21
1.3480538188976379
0
LINE
8
BLACK
6
CONTINUOUS
10
0.6871064173228346
20
1.3480538188976379
11
0.6876390944881889
21
1.3485864960629921
0
LINE
8
BLACK
6
CONTINUOUS
10
0.6876390944881889
20
1.3485864960629921
11
0.9399842519685039
21
1.3486614173228346
0
LINE
8
BLACK
6
CONTINUOUS
10
0.9399842519685039
20
1.3486614173228346
11
0.940360905511811
21
1.3485864960629921
0
LINE
8
BLACK
6
CONTINUOUS
10
0.6889256692913386
20
1.346693188976378
11
0.6889995669291339
21
1.1832325984251968
0
LINE
8
BLACK
6
CONTINUOUS
10
0.6889995669291339
20
1.1832325984251968
11
0.9390742913385827
21
1.1833068503937008
0
LINE
8
BLACK
6
CONTINUOUS
10
0.9390742913385827
20
1.1833068503937008
11
0.9390003937007874
21
1.3467674409448818
0
LINE
8
BLACK
6
CONTINUOUS
10
0.9390003937007874
20
1.3467674409448818
11
0.6889256692913386
21
1.346693188976378
0
LINE
8
BLACK
6
CONTINUOUS
10
0.6465183858267717
20
1.2883109055118109
11
0.647051062992126
21
1.2877782283464567
0
LINE
8
BLACK
6
CONTINUOUS
10
0.647051062992126
20
1.2877782283464567
11
0.6471259842519685
21
1.2125984251968505
0
LINE
8
BLACK
6
CONTINUOUS
10
0.6471259842519685
20
1.2125984251968505
11
0.647051062992126
21
1.2122217716535433
0
LINE
8
BLACK
6
CONTINUOUS
10
0.647051062992126
20
1.2122217716535433
11
0.6465183858267717
21
1.2116890944881888
0
LINE
8
BLACK
6
CONTINUOUS
10
0.6465183858267717
20
1.2116890944881888
11
0.5138582677165354
21
1.2116141732283465
0
LINE
8
BLACK
6
CONTINUOUS
10
0.5138582677165354
20
1.2116141732283465
11
0.5134816141732284
21
1.2116890944881888
0
LINE
8
BLACK
6
CONTINUOUS
10
0.5134816141732284
20
1.2116890944881888
11
0.512948937007874
21
1.2122217716535433
0
LINE
8
BLACK
6
CONTINUOUS
10
0.512948937007874
20
1.2122217716535433
11
0.5128740157480315
21
1.2874015748031495
0
LINE
8
BLACK
6
CONTINUOUS
10
0.5128740157480315
20
1.2874015748031495
11
0.512948937007874
21
1.2877782283464567
0
LINE
8
BLACK
6
CONTINUOUS
10
0.512948937007874
20
1.2877782283464567
11
0.5134816141732284
21
1.2883109055118109
0
LINE
8
BLACK
6
CONTINUOUS
10
0.5134816141732284
20
1.2883109055118109
11
0.6461417322834645
21
1.2883858267716535
0
LINE
8
BLACK
6
CONTINUOUS
10
0.6461417322834645
20
1.2883858267716535
11
0.6465183858267717
21
1.2883109055118109
0
LINE
8
BLACK
6
CONTINUOUS
10
0.514768937007874
20
1.2864178740157479
11
0.5148415748031496
21
1.2135085433070867
0
LINE
8
BLACK
6
CONTINUOUS
10
0.5148415748031496
20
1.2135085433070867
11
0.6452310236220472
21
1.2135821653543306
0
LINE
8
BLACK
6
CONTINUOUS
10
0.6452310236220472
20
1.2135821653543306
11
0.6451583858267717
21
1.2864914960629921
0
LINE
8
BLACK
6
CONTINUOUS
10
0.6451583858267717
20
1.2864914960629921
11
0.514768937007874
21
1.2864178740157479
0
LINE
8
BLACK
6
CONTINUOUS
10
0.6465183858267717
20
1.388310905511811
11
0.647051062992126
21
1.3877782283464566
0
LINE
8
BLACK
6
CONTINUOUS
10
0.647051062992126
20
1.3877782283464566
11
0.6471259842519685
21
1.3125984251968503
0
LINE
8
BLACK
6
CONTINUOUS
10
0.6471259842519685
20
1.3125984251968503
11
0.647051062992126
21
1.3122217716535434
0
LINE
8
BLACK
6
CONTINUOUS
10
0.647051062992126
20
1.3122217716535434
11
0.6465183858267717
21
1.3116890944881889
0
LINE
8
BLACK
6
CONTINUOUS
10
0.6465183858267717
20
1.3116890944881889
11
0.5138582677165354
21
1.3116141732283464
0
LINE
8
BLACK
6
CONTINUOUS
10
0.5138582677165354
20
1.3116141732283464
11
0.5134816141732284
21
1.3116890944881889
0
LINE
8
BLACK
6
CONTINUOUS
10
0.5134816141732284
20
1.3116890944881889
11
0.512948937007874
21
1.3122217716535434
0
LINE
8
BLACK
6
CONTINUOUS
10
0.512948937007874
20
1.3122217716535434
11
0.5128740157480315
21
1.3874015748031496
0
LINE
8
BLACK
6
CONTINUOUS
10
0.5128740157480315
20
1.3874015748031496
11
0.512948937007874
21
1.3877782283464566
0
LINE
8
BLACK
6
CONTINUOUS
10
0.512948937007874
20
1.3877782283464566
11
0.5134816141732284
21
1.388310905511811
0
LINE
8
BLACK
6
CONTINUOUS
10
0.5134816141732284
20
1.388310905511811
11
0.6461417322834645
21
1.3883858267716536
0
LINE
8
BLACK
6
CONTINUOUS
10
0.6461417322834645
20
1.3883858267716536
11
0.6465183858267717
21
1.388310905511811
0
LINE
8
BLACK
6
CONTINUOUS
10
0.514768937007874
20
1.386417874015748
11
0.5148415748031496
21
1.3135085433070866
0
LINE
8
BLACK
6
CONTINUOUS
10
0.5148415748031496
20
1.3135085433070866
11
0.6452310236220472
21
1.3135821653543307
0
LINE
8
BLACK
6
CONTINUOUS
10
0.6452310236220472
20
1.3135821653543307
11
0.6451583858267717
21
1.3864914960629922
0
LINE
8
BLACK
6
CONTINUOUS
10
0.6451583858267717
20
1.3864914960629922
11
0.514768937007874
21
1.386417874015748
0
LINE
8
BLACK
6
CONTINUOUS
10
0.7877782283464567
20
1.4970510629921259
11
0.788310905511811
21
1.4965183858267717
0
LINE
8
BLACK
6
CONTINUOUS
10
0.788310905511811
20
1.4965183858267717
11
0.7883858267716535
21
1.3638582677165354
0
LINE
8
BLACK
6
CONTINUOUS
10
0.7883858267716535
20
1.3638582677165354
11
0.788310905511811
21
1.3634816141732282
0
LINE
8
BLACK
6
CONTINUOUS
10
0.788310905511811
20
1.3634816141732282
11
0.7877782283464567
21
1.362948937007874
0
LINE
8
BLACK
6
CONTINUOUS
10
0.7877782283464567
20
1.362948937007874
11
0.7125984251968503
21
1.3628740157480315
0
LINE
8
BLACK
6
CONTINUOUS
10
0.7125984251968503
20
1.3628740157480315
11
0.7122217716535433
21
1.362948937007874
0
LINE
8
BLACK
6
CONTINUOUS
10
0.7122217716535433
20
1.362948937007874
11
0.711689094488189
21
1.3634816141732282
0
LINE
8
BLACK
6
CONTINUOUS
10
0.711689094488189
20
1.3634816141732282
11
0.7116141732283464
21
1.4961417322834645
0
LINE
8
BLACK
6
CONTINUOUS
10
0.7116141732283464
20
1.4961417322834645
11
0.711689094488189
21
1.4965183858267717
0
LINE
8
BLACK
6
CONTINUOUS
10
0.711689094488189
20
1.4965183858267717
11
0.7122217716535433
21
1.4970510629921259
0
LINE
8
BLACK
6
CONTINUOUS
10
0.7122217716535433
20
1.4970510629921259
11
0.7874015748031495
21
1.4971259842519684
0
LINE
8
BLACK
6
CONTINUOUS
10
0.7874015748031495
20
1.4971259842519684
11
0.7877782283464567
21
1.4970510629921259
0
LINE
8
BLACK
6
CONTINUOUS
10
0.7135085039370078
20
1.4951584251968504
11
0.713582125984252
21
1.3647689763779527
0
LINE
8
BLACK
6
CONTINUOUS
10
0.713582125984252
20
1.3647689763779527
11
0.7864914566929133
21
1.3648416141732282
0
LINE
8
BLACK
6
CONTINUOUS
10
0.7864914566929133
20
1.3648416141732282
11
0.7864178346456693
21
1.4952310629921259
0
LINE
8
BLACK
6
CONTINUOUS
10
0.7864178346456693
20
1.4952310629921259
11
0.7135085039370078
21
1.4951584251968504
0
LINE
8
BLACK
6
CONTINUOUS
10
0.8877782283464567
20
1.4970510629921259
11
0.888310905511811
21
1.4965183858267717
0
LINE
8
BLACK
6
CONTINUOUS
10
0.888310905511811
20
1.4965183858267717
11
0.8883858267716536
21
1.3638582677165354
0
LINE
8
BLACK
6
CONTINUOUS
10
0.8883858267716536
20
1.3638582677165354
11
0.888310905511811
21
1.3634816141732282
0
LINE
8
BLACK
6
CONTINUOUS
10
0.888310905511811
20
1.3634816141732282
11
0.8877782283464567
21
1.362948937007874
0
LINE
8
BLACK
6
CONTINUOUS
10
0.8877782283464567
20
1.362948937007874
11
0.8125984251968503
21
1.3628740157480315
0
LINE
8
BLACK
6
CONTINUOUS
10
0.8125984251968503
20
1.3628740157480315
11
0.8122217716535433
21
1.362948937007874
0
LINE
8
BLACK
6
CONTINUOUS
10
0.8122217716535433
20
1.362948937007874
11
0.8116890944881889
21
1.3634816141732282
0
LINE
8
BLACK
6
CONTINUOUS
10
0.8116890944881889
20
1.3634816141732282
11
0.8116141732283464
21
1.4961417322834645
0
LINE
8
BLACK
6
CONTINUOUS
10
0.8116141732283464
20
1.4961417322834645
11
0.8116890944881889
21
1.4965183858267717
0
LINE
8
BLACK
6
CONTINUOUS
10
0.8116890944881889
20
1.4965183858267717
11
0.8122217716535433
21
1.4970510629921259
0
LINE
8
BLACK
6
CONTINUOUS
10
0.8122217716535433
20
1.4970510629921259
11
0.8874015748031496
21
1.4971259842519684
0
LINE
8
BLACK
6
CONTINUOUS
10
0.8874015748031496
20
1.4971259842519684
11
0.8877782283464567
21
1.4970510629921259
0
LINE
8
BLACK
6
CONTINUOUS
10
0.8135085039370079
20
1.4951584251968504
11
0.8135821259842519
21
1.3647689763779527
0
LINE
8
BLACK
6
CONTINUOUS
10
0.8135821259842519
20
1.3647689763779527
11
0.8864914566929134
21
1.3648416141732282
0
LINE
8
BLACK
6
CONTINUOUS
10
0.8864914566929134
20
1.3648416141732282
11
0.8864178346456693
21
1.4952310629921259
0
LINE
8
BLACK
6
CONTINUOUS
10
0.8864178346456693
20
1.4952310629921259
11
0.8135085039370079
21
1.4951584251968504
0
LINE
8
BLACK
6
CONTINUOUS
10
1.0877782283464568
20
1.4990510629921259
11
1.088310905511811
21
1.4985183858267717
0
LINE
8
BLACK
6
CONTINUOUS
10
1.088310905511811
20
1.4985183858267717
11
1.0883858267716535
21
1.3658582677165354
0
LINE
8
BLACK
6
CONTINUOUS
10
1.0883858267716535
20
1.3658582677165354
11
1.088310905511811
21
1.3654816141732282
0
LINE
8
BLACK
6
CONTINUOUS
10
1.088310905511811
20
1.3654816141732282
11
1.0877782283464568
21
1.364948937007874
0
LINE
8
BLACK
6
CONTINUOUS
10
1.0877782283464568
20
1.364948937007874
11
1.0125984251968503
21
1.3648740157480315
0
LINE
8
BLACK
6
CONTINUOUS
10
1.0125984251968503
20
1.3648740157480315
11
1.0122217716535433
21
1.364948937007874
0
LINE
8
BLACK
6
CONTINUOUS
10
1.0122217716535433
20
1.364948937007874
11
1.0116890944881889
21
1.3654816141732282
0
LINE
8
BLACK
6
CONTINUOUS
10
1.0116890944881889
20
1.3654816141732282
11
1.0116141732283463
21
1.4981417322834645
0
LINE
8
BLACK
6
CONTINUOUS
10
1.0116141732283463
20
1.4981417322834645
11
1.0116890944881889
21
1.4985183858267717
0
LINE
8
BLACK
6
CONTINUOUS
10
1.0116890944881889
20
1.4985183858267717
11
1.0122217716535433
21
1.4990510629921259
0
LINE
8
BLACK
6
CONTINUOUS
10
1.0122217716535433
20
1.4990510629921259
11
1.0874015748031496
21
1.4991259842519684
0
LINE
8
BLACK
6
CONTINUOUS
10
1.0874015748031496
20
1.4991259842519684
11
1.0877782283464568
21
1.4990510629921259
0
LINE
8
BLACK
6
CONTINUOUS
10
1.0135085039370078
20
1.4971584251968504
11
1.0135821259842519
21
1.3667689763779527
0
LINE
8
BLACK
6
CONTINUOUS
10
1.0135821259842519
20
1.3667689763779527
11
1.0864914566929134
21
1.3668416141732282
0
LINE
8
BLACK
6
CONTINUOUS
10
1.0864914566929134
20
1.3668416141732282
11
1.0864178346456692
21
1.4972310629921259
0
LINE
8
BLACK
6
CONTINUOUS
10
1.0864178346456692
20
1.4972310629921259
11
1.0135085039370078
21
1.4971584251968504
0
LINE
8
BLACK
6
CONTINUOUS
10
1.2315183858267715
20
1.501310905511811
11
1.232051062992126
21
1.5007782283464566
0
LINE
8
BLACK
6
CONTINUOUS
10
1.232051062992126
20
1.5007782283464566
11
1.2321259842519685
21
1.4255984251968503
0
LINE
8
BLACK
6
CONTINUOUS
10
1.2321259842519685
20
1.4255984251968503
11
1.232051062992126
21
1.4252217716535434
0
LINE
8
BLACK
6
CONTINUOUS
10
1.232051062992126
20
1.4252217716535434
11
1.2315183858267715
21
1.4246890944881889
0
LINE
8
BLACK
6
CONTINUOUS
10
1.2315183858267715
20
1.4246890944881889
11
1.0988582677165355
21
1.4246141732283464
0
LINE
8
BLACK
6
CONTINUOUS
10
1.0988582677165355
20
1.4246141732283464
11
1.0984816141732283
21
1.4246890944881889
0
LINE
8
BLACK
6
CONTINUOUS
10
1.0984816141732283
20
1.4246890944881889
11
1.0979489370078739
21
1.4252217716535434
0
LINE
8
BLACK
6
CONTINUOUS
10
1.0979489370078739
20
1.4252217716535434
11
1.0978740157480316
21
1.5004015748031496
0
LINE
8
BLACK
6
CONTINUOUS
10
1.0978740157480316
20
1.5004015748031496
11
1.0979489370078739
21
1.5007782283464566
0
LINE
8
BLACK
6
CONTINUOUS
10
1.0979489370078739
20
1.5007782283464566
11
1.0984816141732283
21
1.501310905511811
0
LINE
8
BLACK
6
CONTINUOUS
10
1.0984816141732283
20
1.501310905511811
11
1.2311417322834646
21
1.5013858267716536
0
LINE
8
BLACK
6
CONTINUOUS
10
1.2311417322834646
20
1.5013858267716536
11
1.2315183858267715
21
1.501310905511811
0
LINE
8
BLACK
6
CONTINUOUS
10
1.099768937007874
20
1.499417874015748
11
1.0998415748031496
21
1.4265085433070865
0
LINE
8
BLACK
6
CONTINUOUS
10
1.0998415748031496
20
1.4265085433070865
11
1.2302310236220473
21
1.4265821653543307
0
LINE
8
BLACK
6
CONTINUOUS
10
1.2302310236220473
20
1.4265821653543307
11
1.2301583858267717
21
1.4994914960629921
0
LINE
8
BLACK
6
CONTINUOUS
10
1.2301583858267717
20
1.4994914960629921
11
1.099768937007874
21
1.499417874015748
0
LINE
8
BLACK
6
CONTINUOUS
10
1.4420105118110236
20
1.6178385039370078
11
1.442543188976378
21
1.6173058267716536
0
LINE
8
BLACK
6
CONTINUOUS
10
1.442543188976378
20
1.6173058267716536
11
1.4426181102362203
21
1.4830708267716535
0
LINE
8
BLACK
6
CONTINUOUS
10
1.4426181102362203
20
1.4830708267716535
11
1.442543188976378
21
1.4826941732283465
0
LINE
8
BLACK
6
CONTINUOUS
10
1.442543188976378
20
1.4826941732283465
11
1.4420105118110236
21
1.4821614960629921
0
LINE
8
BLACK
6
CONTINUOUS
10
1.4420105118110236
20
1.4821614960629921
11
1.2904527559055117
21
1.4820865748031495
0
LINE
8
BLACK
6
CONTINUOUS
10
1.2904527559055117
20
1.4820865748031495
11
1.2900761023622047
21
1.4821614960629921
0
LINE
8
BLACK
6
CONTINUOUS
10
1.2900761023622047
20
1.4821614960629921
11
1.2895434251968503
21
1.4826941732283465
0
LINE
8
BLACK
6
CONTINUOUS
10
1.2895434251968503
20
1.4826941732283465
11
1.2894685039370077
21
1.6169291732283464
0
LINE
8
BLACK
6
CONTINUOUS
10
1.2894685039370077
20
1.6169291732283464
11
1.2895434251968503
21
1.6173058267716536
0
LINE
8
BLACK
6
CONTINUOUS
10
1.2895434251968503
20
1.6173058267716536
11
1.2900761023622047
21
1.6178385039370078
0
LINE
8
BLACK
6
CONTINUOUS
10
1.2900761023622047
20
1.6178385039370078
11
1.4416338582677164
21
1.6179134251968503
0
LINE
8
BLACK
6
CONTINUOUS
10
1.4416338582677164
20
1.6179134251968503
11
1.4420105118110236
21
1.6178385039370078
0
LINE
8
BLACK
6
CONTINUOUS
10
1.2913628346456694
20
1.6159453937007873
11
1.291436496062992
21
1.4839808661417322
0
LINE
8
BLACK
6
CONTINUOUS
10
1.291436496062992
20
1.4839808661417322
11
1.4407237401574804
21
1.4840546456692914
0
LINE
8
BLACK
6
CONTINUOUS
10
1.4407237401574804
20
1.4840546456692914
11
1.4406500787401575
21
1.6160191732283464
0
LINE
8
BLACK
6
CONTINUOUS
10
1.4406500787401575
20
1.6160191732283464
11
1.2913628346456694
21
1.6159453937007873
0
LINE
8
BLACK
6
CONTINUOUS
10
1.5875183858267716
20
1.586310905511811
11
1.5880510629921258
21
1.5857782283464568
0
LINE
8
BLACK
6
CONTINUOUS
10
1.5880510629921258
20
1.5857782283464568
11
1.5881259842519684
21
1.5105984251968503
0
LINE
8
BLACK
6
CONTINUOUS
10
1.5881259842519684
20
1.5105984251968503
11
1.5880510629921258
21
1.5102217716535433
0
LINE
8
BLACK
6
CONTINUOUS
10
1.5880510629921258
20
1.5102217716535433
11
1.5875183858267716
21
1.5096890944881889
0
LINE
8
BLACK
6
CONTINUOUS
10
1.5875183858267716
20
1.5096890944881889
11
1.4548582677165354
21
1.5096141732283463
0
LINE
8
BLACK
6
CONTINUOUS
10
1.4548582677165354
20
1.5096141732283463
11
1.4544816141732284
21
1.5096890944881889
0
LINE
8
BLACK
6
CONTINUOUS
10
1.4544816141732284
20
1.5096890944881889
11
1.453948937007874
21
1.5102217716535433
0
LINE
8
BLACK
6
CONTINUOUS
10
1.453948937007874
20
1.5102217716535433
11
1.4538740157480314
21
1.5854015748031496
0
LINE
8
BLACK
6
CONTINUOUS
10
1.4538740157480314
20
1.5854015748031496
11
1.453948937007874
21
1.5857782283464568
0
LINE
8
BLACK
6
CONTINUOUS
10
1.453948937007874
20
1.5857782283464568
11
1.4544816141732284
21
1.586310905511811
0
LINE
8
BLACK
6
CONTINUOUS
10
1.4544816141732284
20
1.586310905511811
11
1.5871417322834644
21
1.5863858267716535
0
LINE
8
BLACK
6
CONTINUOUS
10
1.5871417322834644
20
1.5863858267716535
11
1.5875183858267716
21
1.586310905511811
0
LINE
8
BLACK
6
CONTINUOUS
10
1.4557689370078739
20
1.584417874015748
11
1.4558415748031495
21
1.5115085433070865
0
LINE
8
BLACK
6
CONTINUOUS
10
1.4558415748031495
20
1.5115085433070865
11
1.5862310236220472
21
1.5115821653543307
0
LINE
8
BLACK
6
CONTINUOUS
10
1.5862310236220472
20
1.5115821653543307
11
1.5861583858267716
21
1.5844914960629921
0
LINE
8
BLACK
6
CONTINUOUS
10
1.5861583858267716
20
1.5844914960629921
11
1.4557689370078739
21
1.584417874015748
0
LINE
8
BLACK
6
CONTINUOUS
10
1.2565183858267717
20
1.628310905511811
11
1.2570510629921259
21
1.6277782283464566
0
LINE
8
BLACK
6
CONTINUOUS
10
1.2570510629921259
20
1.6277782283464566
11
1.2571259842519684
21
1.5525984251968503
0
LINE
8
BLACK
6
CONTINUOUS
10
1.2571259842519684
20
1.5525984251968503
11
1.2570510629921259
21
1.5522217716535434
0
LINE
8
BLACK
6
CONTINUOUS
10
1.2570510629921259
20
1.5522217716535434
11
1.2565183858267717
21
1.5516890944881889
0
LINE
8
BLACK
6
CONTINUOUS
10
1.2565183858267717
20
1.5516890944881889
11
1.1238582677165354
21
1.5516141732283464
0
LINE
8
BLACK
6
CONTINUOUS
10
1.1238582677165354
20
1.5516141732283464
11
1.1234816141732282
21
1.5516890944881889
0
LINE
8
BLACK
6
CONTINUOUS
10
1.1234816141732282
20
1.5516890944881889
11
1.122948937007874
21
1.5522217716535434
0
LINE
8
BLACK
6
CONTINUOUS
10
1.122948937007874
20
1.5522217716535434
11
1.1228740157480315
21
1.6274015748031496
0
LINE
8
BLACK
6
CONTINUOUS
10
1.1228740157480315
20
1.6274015748031496
11
1.122948937007874
21
1.6277782283464566
0
LINE
8
BLACK
6
CONTINUOUS
10
1.122948937007874
20
1.6277782283464566
11
1.1234816141732282
21
1.628310905511811
0
LINE
8
BLACK
6
CONTINUOUS
10
1.1234816141732282
20
1.628310905511811
11
1.2561417322834645
21
1.6283858267716536
0
LINE
8
BLACK
6
CONTINUOUS
10
1.2561417322834645
20
1.6283858267716536
11
1.2565183858267717
21
1.628310905511811
0
LINE
8
BLACK
6
CONTINUOUS
10
1.1247689370078739
20
1.626417874015748
11
1.1248415748031495
21
1.5535085433070865
0
LINE
8
BLACK
6
CONTINUOUS
10
1.1248415748031495
20
1.5535085433070865
11
1.2552310236220472
21
1.5535821653543307
0
LINE
8
BLACK
6
CONTINUOUS
10
1.2552310236220472
20
1.5535821653543307
11
1.2551583858267716
21
1.6264914960629921
0
LINE
8
BLACK
6
CONTINUOUS
10
1.2551583858267716
20
1.6264914960629921
11
1.1247689370078739
21
1.626417874015748
0
LINE
8
BLACK
6
CONTINUOUS
10
1.4420105118110236
20
1.7578385039370079
11
1.442543188976378
21
1.7573058267716535
0
LINE
8
BLACK
6
CONTINUOUS
10
1.442543188976378
20
1.7573058267716535
11
1.4426181102362203
21
1.6230708267716536
0
LINE
8
BLACK
6
CONTINUOUS
10
1.4426181102362203
20
1.6230708267716536
11
1.442543188976378
21
1.6226941732283464
0
LINE
8
BLACK
6
CONTINUOUS
10
1.442543188976378
20
1.6226941732283464
11
1.4420105118110236
21
1.622161496062992
0
LINE
8
BLACK
6
CONTINUOUS
10
1.4420105118110236
20
1.622161496062992
11
1.2904527559055117
21
1.6220865748031497
0
LINE
8
BLACK
6
CONTINUOUS
10
1.2904527559055117
20
1.6220865748031497
11
1.2900761023622047
21
1.622161496062992
0
LINE
8
BLACK
6
CONTINUOUS
10
1.2900761023622047
20
1.622161496062992
11
1.2895434251968503
21
1.6226941732283464
0
LINE
8
BLACK
6
CONTINUOUS
10
1.2895434251968503
20
1.6226941732283464
11
1.2894685039370077
21
1.7569291732283465
0
LINE
8
BLACK
6
CONTINUOUS
10
1.2894685039370077
20
1.7569291732283465
11
1.2895434251968503
21
1.7573058267716535
0
LINE
8
BLACK
6
CONTINUOUS
10
1.2895434251968503
20
1.7573058267716535
11
1.2900761023622047
21
1.7578385039370079
0
LINE
8
BLACK
6
CONTINUOUS
10
1.2900761023622047
20
1.7578385039370079
11
1.4416338582677164
21
1.7579134251968505
0
LINE
8
BLACK
6
CONTINUOUS
10
1.4416338582677164
20
1.7579134251968505
11
1.4420105118110236
21
1.7578385039370079
0
LINE
8
BLACK
6
CONTINUOUS
10
1.2913628346456694
20
1.7559453937007874
11
1.291436496062992
21
1.6239808661417323
0
LINE
8
BLACK
6
CONTINUOUS
10
1.291436496062992
20
1.6239808661417323
11
1.4407237401574804
21
1.6240546456692913
0
LINE
8
BLACK
6
CONTINUOUS
10
1.4407237401574804
20
1.6240546456692913
11
1.4406500787401575
21
1.7560191732283463
0
LINE
8
BLACK
6
CONTINUOUS
10
1.4406500787401575
20
1.7560191732283463
11
1.2913628346456694
21
1.7559453937007874
0
LINE
8
BLACK
6
CONTINUOUS
10
1.2565183858267717
20
1.7383109055118109
11
1.2570510629921259
21
1.7377782283464567
0
LINE
8
BLACK
6
CONTINUOUS
10
1.2570510629921259
20
1.7377782283464567
11
1.2571259842519684
21
1.6625984251968504
0
LINE
8
BLACK
6
CONTINUOUS
10
1.2571259842519684
20
1.6625984251968504
11
1.2570510629921259
21
1.6622217716535432
0
LINE
8
BLACK
6
CONTINUOUS
10
1.2570510629921259
20
1.6622217716535432
11
1.2565183858267717
21
1.661689094488189
0
LINE
8
BLACK
6
CONTINUOUS
10
1.2565183858267717
20
1.661689094488189
11
1.1238582677165354
21
1.6616141732283465
0
LINE
8
BLACK
6
CONTINUOUS
10
1.1238582677165354
20
1.6616141732283465
11
1.1234816141732282
21
1.661689094488189
0
LINE
8
BLACK
6
CONTINUOUS
10
1.1234816141732282
20
1.661689094488189
11
1.122948937007874
21
1.6622217716535432
0
LINE
8
BLACK
6
CONTINUOUS
10
1.122948937007874
20
1.6622217716535432
11
1.1228740157480315
21
1.7374015748031495
0
LINE
8
BLACK
6
CONTINUOUS
10
1.1228740157480315
20
1.7374015748031495
11
1.122948937007874
21
1.7377782283464567
0
LINE
8
BLACK
6
CONTINUOUS
10
1.122948937007874
20
1.7377782283464567
11
1.1234816141732282
21
1.7383109055118109
0
LINE
8
BLACK
6
CONTINUOUS
10
1.1234816141732282
20
1.7383109055118109
11
1.2561417322834645
21
1.7383858267716534
0
LINE
8
BLACK
6
CONTINUOUS
10
1.2561417322834645
20
1.7383858267716534
11
1.2565183858267717
21
1.7383109055118109
0
LINE
8
BLACK
6
CONTINUOUS
10
1.1247689370078739
20
1.7364178740157481
11
1.1248415748031495
21
1.6635085433070866
0
LINE
8
BLACK
6
CONTINUOUS
10
1.1248415748031495
20
1.6635085433070866
11
1.2552310236220472
21
1.6635821653543306
0
LINE
8
BLACK
6
CONTINUOUS
10
1.2552310236220472
20
1.6635821653543306
11
1.2551583858267716
21
1.736491496062992
0
LINE
8
BLACK
6
CONTINUOUS
10
1.2551583858267716
20
1.736491496062992
11
1.1247689370078739
21
1.7364178740157481
0
LINE
8
BLACK
6
CONTINUOUS
10
1.5825616929133859
20
1.746342401574803
11
1.5830943700787401
21
1.7458097244094488
0
LINE
8
BLACK
6
CONTINUOUS
10
1.5830943700787401
20
1.7458097244094488
11
1.5831692913385826
21
1.6706299212598426
0
LINE
8
BLACK
6
CONTINUOUS
10
1.5831692913385826
20
1.6706299212598426
11
1.5830943700787401
21
1.6702532677165354
0
LINE
8
BLACK
6
CONTINUOUS
10
1.5830943700787401
20
1.6702532677165354
11
1.5825616929133859
21
1.6697205905511812
0
LINE
8
BLACK
6
CONTINUOUS
10
1.5825616929133859
20
1.6697205905511812
11
1.4499015748031496
21
1.6696456692913386
0
LINE
8
BLACK
6
CONTINUOUS
10
1.4499015748031496
20
1.6696456692913386
11
1.4495249212598424
21
1.6697205905511812
0
LINE
8
BLACK
6
CONTINUOUS
10
1.4495249212598424
20
1.6697205905511812
11
1.4489922440944882
21
1.6702532677165354
0
LINE
8
BLACK
6
CONTINUOUS
10
1.4489922440944882
20
1.6702532677165354
11
1.4489173228346457
21
1.7454330708661416
0
LINE
8
BLACK
6
CONTINUOUS
10
1.4489173228346457
20
1.7454330708661416
11
1.4489922440944882
21
1.7458097244094488
0
LINE
8
BLACK
6
CONTINUOUS
10
1.4489922440944882
20
1.7458097244094488
11
1.4495249212598424
21
1.746342401574803
0
LINE
8
BLACK
6
CONTINUOUS
10
1.4495249212598424
20
1.746342401574803
11
1.5821850393700787
21
1.7464173228346456
0
LINE
8
BLACK
6
CONTINUOUS
10
1.5821850393700787
20
1.7464173228346456
11
1.5825616929133859
21
1.746342401574803
0
LINE
8
BLACK
6
CONTINUOUS
10
1.4508122440944882
20
1.74444937007874
11
1.4508848818897637
21
1.6715400393700788
0
LINE
8
BLACK
6
CONTINUOUS
10
1.4508848818897637
20
1.6715400393700788
11
1.5812743307086614
21
1.6716136614173227
0
LINE
8
BLACK
6
CONTINUOUS
10
1.5812743307086614
20
1.6716136614173227
11
1.5812016929133859
21
1.7445229921259842
0
LINE
8
BLACK
6
CONTINUOUS
10
1.5812016929133859
20
1.7445229921259842
11
1.4508122440944882
21
1.74444937007874
  0
ENDSEC
  0
EOF
