  0
SECTION
  2
HEADER
  9
$ANGBASE
  50
0.0
  9
$ANGDIR
  70
1
  9
$MEASUREMENT
  70
0
  0
ENDSEC
  0
SECTION
  2
TABLES
  0
TABLE
  2
LTYPE
  70
4
  0
LTYPE
  5
40F
  2
CONTINUOUS
  70
0
  3
Solid line
  72
65
  73
0
  40
0.0
  0
LTYPE
  5
410
  2
DASHDOT
 70
0
  3
Dash Dot ____ _ ____ _
 72
65
 73
4
 40
2.0
 49
1.25
 49
-0.25
 49
0.25
 49
-0.25
  0
LTYPE
  5
411
  2
DASHED
 70
0
  3
Dashed __ __ __ __ __
 72
65
 73
2
 40
0.75
 49
0.5
 49
-0.25
  0
LTYPE
  5
43B
  2
DOTTED
 70
0
  3
Dotted .  .  .  .
 72
65
 73
2
 40
0.2
 49
0.0
 49
-0.2
  0
ENDTAB
  0
TABLE
  2
STYLE
  70
4
  0
STYLE
  2
KICAD
  70
0
  40
0
  41
1
  42
1
  50
0
  71
0
  3
isocp.shx
  0
STYLE
  2
KICADB
  70
0
  40
0
  41
1
  42
1
  50
0
  71
0
  3
isocp.shx
  0
STYLE
  2
KICADI
  70
0
  40
0
  41
1
  42
1
  50
15
  71
0
  3
isocp.shx
  0
STYLE
  2
KICADBI
  70
0
  40
0
  41
1
  42
1
  50
15
  71
0
  3
isocp.shx
  0
ENDTAB
  0
TABLE
  2
LAYER
  70
1
  0
LAYER
  2
BLACK
  70
0
  62
7
  6
CONTINUOUS
  0
ENDTAB
  0
ENDSEC
  0
SECTION
  2
ENTITIES
0
LINE
8
BLACK
6
CONTINUOUS
10
6.2776857480314963
20
-5.0617851181102358
11
6.2778209842519681
21
-5.0618985826771654
0
LINE
8
BLACK
6
CONTINUOUS
10
6.2778209842519681
20
-5.0618985826771654
11
6.2779963385826774
21
-5.0619187795275593
0
LINE
8
BLACK
6
CONTINUOUS
10
6.2779963385826774
20
-5.0619187795275593
11
6.2817458661417325
21
-5.0637935433070869
0
LINE
8
BLACK
6
CONTINUOUS
10
6.2817458661417325
20
-5.0637935433070869
11
6.2824549212598422
21
-5.0643194488188978
0
LINE
8
BLACK
6
CONTINUOUS
10
6.2824549212598422
20
-5.0643194488188978
11
6.282513267716535
21
-5.064346653543307
0
LINE
8
BLACK
6
CONTINUOUS
10
6.282513267716535
20
-5.064346653543307
11
6.2843880314960625
21
-5.0662214173228346
0
LINE
8
BLACK
6
CONTINUOUS
10
6.2843880314960625
20
-5.0662214173228346
11
6.2848942913385821
21
-5.0669444881889767
0
LINE
8
BLACK
6
CONTINUOUS
10
6.2848942913385821
20
-5.0669444881889767
11
6.2849411417322836
21
-5.066988818897638
0
LINE
8
BLACK
6
CONTINUOUS
10
6.2849411417322836
20
-5.066988818897638
11
6.2868159055118111
21
-5.0707383464566931
0
LINE
8
BLACK
6
CONTINUOUS
10
6.2868159055118111
20
-5.0707383464566931
11
6.2871082677165351
21
-5.0717212598425192
0
LINE
8
BLACK
6
CONTINUOUS
10
6.2871082677165351
20
-5.0717212598425192
11
6.2870672440944881
21
-5.0718929527559053
0
LINE
8
BLACK
6
CONTINUOUS
10
6.2870672440944881
20
-5.0718929527559053
11
6.2871276377952752
21
-5.0720588582677166
0
LINE
8
BLACK
6
CONTINUOUS
10
6.2871276377952752
20
-5.0720588582677166
11
6.2871276377952752
21
-5.0758083858267717
0
LINE
8
BLACK
6
CONTINUOUS
10
6.2871276377952752
20
-5.0758083858267717
11
6.2869743307086612
21
-5.0766777559055116
0
LINE
8
BLACK
6
CONTINUOUS
10
6.2869743307086612
20
-5.0766777559055116
11
6.2869761023622042
21
-5.0767421653543305
0
LINE
8
BLACK
6
CONTINUOUS
10
6.2869761023622042
20
-5.0767421653543305
11
6.2851013385826766
21
-5.0823664173228345
0
LINE
8
BLACK
6
CONTINUOUS
10
6.2851013385826766
20
-5.0823664173228345
11
6.2846130314960629
21
-5.083268188976378
0
LINE
8
BLACK
6
CONTINUOUS
10
6.2846130314960629
20
-5.083268188976378
11
6.2844626377952757
21
-5.0833605511811024
0
LINE
8
BLACK
6
CONTINUOUS
10
6.2844626377952757
20
-5.0833605511811024
11
6.2843880314960625
21
-5.0835205905511813
0
LINE
8
BLACK
6
CONTINUOUS
10
6.2843880314960625
20
-5.0835205905511813
11
6.2669315354330708
21
-5.1009771259842518
0
LINE
8
BLACK
6
CONTINUOUS
10
6.2669315354330708
20
-5.1009771259842518
11
6.284174881889764
21
-5.1009771259842518
0
LINE
8
BLACK
6
CONTINUOUS
10
6.284174881889764
20
-5.1009771259842518
11
6.2851848031496065
21
-5.1011551968503932
0
LINE
8
BLACK
6
CONTINUOUS
10
6.2851848031496065
20
-5.1011551968503932
11
6.2867320472440946
21
-5.1024535039370074
0
LINE
8
BLACK
6
CONTINUOUS
10
6.2867320472440946
20
-5.1024535039370074
11
6.2870827952755901
21
-5.1044426377952759
0
LINE
8
BLACK
6
CONTINUOUS
10
6.2870827952755901
20
-5.1044426377952759
11
6.2860728740157477
21
-5.1061918110236215
0
LINE
8
BLACK
6
CONTINUOUS
10
6.2860728740157477
20
-5.1061918110236215
11
6.284174881889764
21
-5.1068826377952758
0
LINE
8
BLACK
6
CONTINUOUS
10
6.284174881889764
20
-5.1068826377952758
11
6.2598029527559049
21
-5.1068826377952758
0
LINE
8
BLACK
6
CONTINUOUS
10
6.2598029527559049
20
-5.1068826377952758
11
6.2591681889763775
21
-5.1067707086614176
0
LINE
8
BLACK
6
CONTINUOUS
10
6.2591681889763775
20
-5.1067707086614176
11
6.2590387401574805
21
-5.1067820472440948
0
LINE
8
BLACK
6
CONTINUOUS
10
6.2590387401574805
20
-5.1067820472440948
11
6.2589735039370078
21
-5.1067363779527559
0
LINE
8
BLACK
6
CONTINUOUS
10
6.2589735039370078
20
-5.1067363779527559
11
6.2587930314960625
21
-5.1067045669291335
0
LINE
8
BLACK
6
CONTINUOUS
10
6.2587930314960625
20
-5.1067045669291335
11
6.2581121653543308
21
-5.106133267716535
0
LINE
8
BLACK
6
CONTINUOUS
10
6.2581121653543308
20
-5.106133267716535
11
6.2573841732283464
21
-5.1056235039370081
0
LINE
8
BLACK
6
CONTINUOUS
10
6.2573841732283464
20
-5.1056235039370081
11
6.2573492125984247
21
-5.1054930314960627
0
LINE
8
BLACK
6
CONTINUOUS
10
6.2573492125984247
20
-5.1054930314960627
11
6.2572457874015743
21
-5.1054062598425194
0
LINE
8
BLACK
6
CONTINUOUS
10
6.2572457874015743
20
-5.1054062598425194
11
6.2570914173228349
21
-5.1045309055118109
0
LINE
8
BLACK
6
CONTINUOUS
10
6.2570914173228349
20
-5.1045309055118109
11
6.2568614566929135
21
-5.1036725590551182
0
LINE
8
BLACK
6
CONTINUOUS
10
6.2568614566929135
20
-5.1036725590551182
11
6.2569185039370074
21
-5.103550196850394
0
LINE
8
BLACK
6
CONTINUOUS
10
6.2569185039370074
20
-5.103550196850394
11
6.2568950393700788
21
-5.1034171259842518
0
LINE
8
BLACK
6
CONTINUOUS
10
6.2568950393700788
20
-5.1034171259842518
11
6.2573395275590551
21
-5.1026472047244091
0
LINE
8
BLACK
6
CONTINUOUS
10
6.2573395275590551
20
-5.1026472047244091
11
6.2577150393700789
21
-5.1018419685039369
0
LINE
8
BLACK
6
CONTINUOUS
10
6.2577150393700789
20
-5.1018419685039369
11
6.2797192913385826
21
-5.0798376377952756
0
LINE
8
BLACK
6
CONTINUOUS
10
6.2797192913385826
20
-5.0798376377952756
11
6.281222125984252
21
-5.0753292519685038
0
LINE
8
BLACK
6
CONTINUOUS
10
6.281222125984252
20
-5.0753292519685038
11
6.281222125984252
21
-5.0727559055118112
0
LINE
8
BLACK
6
CONTINUOUS
10
6.281222125984252
20
-5.0727559055118112
11
6.2798733858267717
21
-5.0700584251968506
0
LINE
8
BLACK
6
CONTINUOUS
10
6.2798733858267717
20
-5.0700584251968506
11
6.2786762598425199
21
-5.0688612992125979
0
LINE
8
BLACK
6
CONTINUOUS
10
6.2786762598425199
20
-5.0688612992125979
11
6.2759787795275592
21
-5.0675125590551184
0
LINE
8
BLACK
6
CONTINUOUS
10
6.2759787795275592
20
-5.0675125590551184
11
6.2679990551181097
21
-5.0675125590551184
0
LINE
8
BLACK
6
CONTINUOUS
10
6.2679990551181097
20
-5.0675125590551184
11
6.2653015748031491
21
-5.0688612992125979
0
LINE
8
BLACK
6
CONTINUOUS
10
6.2653015748031491
20
-5.0688612992125979
11
6.2637656299212594
21
-5.0703972440944884
0
LINE
8
BLACK
6
CONTINUOUS
10
6.2637656299212594
20
-5.0703972440944884
11
6.2629255905511814
21
-5.0709854330708657
0
LINE
8
BLACK
6
CONTINUOUS
10
6.2629255905511814
20
-5.0709854330708657
11
6.2609135039370081
21
-5.0711614960629916
0
LINE
8
BLACK
6
CONTINUOUS
10
6.2609135039370081
20
-5.0711614960629916
11
6.2592589370078739
21
-5.070002952755905
0
LINE
8
BLACK
6
CONTINUOUS
10
6.2592589370078739
20
-5.070002952755905
11
6.258736220472441
21
-5.0680520078740159
0
LINE
8
BLACK
6
CONTINUOUS
10
6.258736220472441
20
-5.0680520078740159
11
6.2595898031496064
21
-5.0662214173228346
0
LINE
8
BLACK
6
CONTINUOUS
10
6.2595898031496064
20
-5.0662214173228346
11
6.261464566929134
21
-5.064346653543307
0
LINE
8
BLACK
6
CONTINUOUS
10
6.261464566929134
20
-5.064346653543307
11
6.2621876377952752
21
-5.0638403543307087
0
LINE
8
BLACK
6
CONTINUOUS
10
6.2621876377952752
20
-5.0638403543307087
11
6.2622319685039365
21
-5.0637935433070869
0
LINE
8
BLACK
6
CONTINUOUS
10
6.2622319685039365
20
-5.0637935433070869
11
6.2659814960629916
21
-5.0619187795275593
0
LINE
8
BLACK
6
CONTINUOUS
10
6.2659814960629916
20
-5.0619187795275593
11
6.2669644094488186
21
-5.0616264173228345
0
LINE
8
BLACK
6
CONTINUOUS
10
6.2669644094488186
20
-5.0616264173228345
11
6.2671361023622048
21
-5.0616674015748027
0
LINE
8
BLACK
6
CONTINUOUS
10
6.2671361023622048
20
-5.0616674015748027
11
6.267302007874016
21
-5.0616070472440944
0
LINE
8
BLACK
6
CONTINUOUS
10
6.267302007874016
20
-5.0616070472440944
11
6.2766758267716538
21
-5.0616070472440944
0
LINE
8
BLACK
6
CONTINUOUS
10
6.2766758267716538
20
-5.0616070472440944
11
6.2776857480314963
21
-5.0617851181102358
0
LINE
8
BLACK
6
CONTINUOUS
10
6.352676377952756
20
-5.0617851181102358
11
6.3528116141732278
21
-5.0618985826771654
0
LINE
8
BLACK
6
CONTINUOUS
10
6.3528116141732278
20
-5.0618985826771654
11
6.3529869685039371
21
-5.0619187795275593
0
LINE
8
BLACK
6
CONTINUOUS
10
6.3529869685039371
20
-5.0619187795275593
11
6.3567364960629922
21
-5.0637935433070869
0
LINE
8
BLACK
6
CONTINUOUS
10
6.3567364960629922
20
-5.0637935433070869
11
6.3574455511811019
21
-5.0643194488188978
0
LINE
8
BLACK
6
CONTINUOUS
10
6.3574455511811019
20
-5.0643194488188978
11
6.3575038976377956
21
-5.064346653543307
0
LINE
8
BLACK
6
CONTINUOUS
10
6.3575038976377956
20
-5.064346653543307
11
6.3593786614173231
21
-5.0662214173228346
0
LINE
8
BLACK
6
CONTINUOUS
10
6.3593786614173231
20
-5.0662214173228346
11
6.3598849212598427
21
-5.0669444881889767
0
LINE
8
BLACK
6
CONTINUOUS
10
6.3598849212598427
20
-5.0669444881889767
11
6.3599317716535433
21
-5.066988818897638
0
LINE
8
BLACK
6
CONTINUOUS
10
6.3599317716535433
20
-5.066988818897638
11
6.3618065354330708
21
-5.0707383464566931
0
LINE
8
BLACK
6
CONTINUOUS
10
6.3618065354330708
20
-5.0707383464566931
11
6.3620988976377948
21
-5.0717212598425192
0
LINE
8
BLACK
6
CONTINUOUS
10
6.3620988976377948
20
-5.0717212598425192
11
6.3620578740157478
21
-5.0718929527559053
0
LINE
8
BLACK
6
CONTINUOUS
10
6.3620578740157478
20
-5.0718929527559053
11
6.3621182677165349
21
-5.0720588582677166
0
LINE
8
BLACK
6
CONTINUOUS
10
6.3621182677165349
20
-5.0720588582677166
11
6.3621182677165349
21
-5.0870569685039371
0
LINE
8
BLACK
6
CONTINUOUS
10
6.3621182677165349
20
-5.0870569685039371
11
6.3620159055118108
21
-5.0876373228346452
0
LINE
8
BLACK
6
CONTINUOUS
10
6.3620159055118108
20
-5.0876373228346452
11
6.3620301181102361
21
-5.0877731102362205
0
LINE
8
BLACK
6
CONTINUOUS
10
6.3620301181102361
20
-5.0877731102362205
11
6.3601553543307086
21
-5.0952721653543307
0
LINE
8
BLACK
6
CONTINUOUS
10
6.3601553543307086
20
-5.0952721653543307
11
6.359751614173228
21
-5.0961773622047239
0
LINE
8
BLACK
6
CONTINUOUS
10
6.359751614173228
20
-5.0961773622047239
11
6.359747598425197
21
-5.0961938976377947
0
LINE
8
BLACK
6
CONTINUOUS
10
6.359747598425197
20
-5.0961938976377947
11
6.3559980708661419
21
-5.1018182283464562
0
LINE
8
BLACK
6
CONTINUOUS
10
6.3559980708661419
20
-5.1018182283464562
11
6.3556872440944883
21
-5.1021435433070863
0
LINE
8
BLACK
6
CONTINUOUS
10
6.3556872440944883
20
-5.1021435433070863
11
6.355629133858268
21
-5.1022682283464569
0
LINE
8
BLACK
6
CONTINUOUS
10
6.355629133858268
20
-5.1022682283464569
11
6.3537544094488192
21
-5.1041429921259844
0
LINE
8
BLACK
6
CONTINUOUS
10
6.3537544094488192
20
-5.1041429921259844
11
6.3530312204724408
21
-5.1046493700787403
0
LINE
8
BLACK
6
CONTINUOUS
10
6.3530312204724408
20
-5.1046493700787403
11
6.3529869685039371
21
-5.1046961417322834
0
LINE
8
BLACK
6
CONTINUOUS
10
6.3529869685039371
20
-5.1046961417322834
11
6.349237440944882
21
-5.1065709055118109
0
LINE
8
BLACK
6
CONTINUOUS
10
6.349237440944882
20
-5.1065709055118109
11
6.3482544881889762
21
-5.1068632677165358
0
LINE
8
BLACK
6
CONTINUOUS
10
6.3482544881889762
20
-5.1068632677165358
11
6.3480827952755901
21
-5.1068222440944879
0
LINE
8
BLACK
6
CONTINUOUS
10
6.3480827952755901
20
-5.1068222440944879
11
6.3479169291338584
21
-5.1068826377952758
0
LINE
8
BLACK
6
CONTINUOUS
10
6.3479169291338584
20
-5.1068826377952758
11
6.3404178740157482
21
-5.1068826377952758
0
LINE
8
BLACK
6
CONTINUOUS
10
6.3404178740157482
20
-5.1068826377952758
11
6.3394079527559057
21
-5.1067045669291335
0
LINE
8
BLACK
6
CONTINUOUS
10
6.3394079527559057
20
-5.1067045669291335
11
6.3378607086614176
21
-5.1054062598425194
0
LINE
8
BLACK
6
CONTINUOUS
10
6.3378607086614176
20
-5.1054062598425194
11
6.3375099606299212
21
-5.1034171259842518
0
LINE
8
BLACK
6
CONTINUOUS
10
6.3375099606299212
20
-5.1034171259842518
11
6.3385198818897637
21
-5.1016679527559052
0
LINE
8
BLACK
6
CONTINUOUS
10
6.3385198818897637
20
-5.1016679527559052
11
6.3404178740157482
21
-5.1009771259842518
0
LINE
8
BLACK
6
CONTINUOUS
10
6.3404178740157482
20
-5.1009771259842518
11
6.3472198818897638
21
-5.1009771259842518
0
LINE
8
BLACK
6
CONTINUOUS
10
6.3472198818897638
20
-5.1009771259842518
11
6.3499173228346457
21
-5.0996283858267715
0
LINE
8
BLACK
6
CONTINUOUS
10
6.3499173228346457
20
-5.0996283858267715
11
6.3512464566929134
21
-5.098299212598425
0
LINE
8
BLACK
6
CONTINUOUS
10
6.3512464566929134
20
-5.098299212598425
11
6.3545501968503935
21
-5.0933436614173226
0
LINE
8
BLACK
6
CONTINUOUS
10
6.3545501968503935
20
-5.0933436614173226
11
6.3552794881889758
21
-5.0904264960629924
0
LINE
8
BLACK
6
CONTINUOUS
10
6.3552794881889758
20
-5.0904264960629924
11
6.3529869685039371
21
-5.0915727559055117
0
LINE
8
BLACK
6
CONTINUOUS
10
6.3529869685039371
20
-5.0915727559055117
11
6.3520040157480313
21
-5.0918651181102357
0
LINE
8
BLACK
6
CONTINUOUS
10
6.3520040157480313
20
-5.0918651181102357
11
6.3518323228346452
21
-5.0918240944881887
0
LINE
8
BLACK
6
CONTINUOUS
10
6.3518323228346452
20
-5.0918240944881887
11
6.3516664566929135
21
-5.0918844881889767
0
LINE
8
BLACK
6
CONTINUOUS
10
6.3516664566929135
20
-5.0918844881889767
11
6.3441674015748033
21
-5.0918844881889767
0
LINE
8
BLACK
6
CONTINUOUS
10
6.3441674015748033
20
-5.0918844881889767
11
6.3431574803149608
21
-5.0917064173228344
0
LINE
8
BLACK
6
CONTINUOUS
10
6.3431574803149608
20
-5.0917064173228344
11
6.3430222047244094
21
-5.0915929133858269
0
LINE
8
BLACK
6
CONTINUOUS
10
6.3430222047244094
20
-5.0915929133858269
11
6.3428468897637797
21
-5.0915727559055117
0
LINE
8
BLACK
6
CONTINUOUS
10
6.3428468897637797
20
-5.0915727559055117
11
6.3390973622047246
21
-5.0896979921259842
0
LINE
8
BLACK
6
CONTINUOUS
10
6.3390973622047246
20
-5.0896979921259842
11
6.3383882677165353
21
-5.0891720866141732
0
LINE
8
BLACK
6
CONTINUOUS
10
6.3383882677165353
20
-5.0891720866141732
11
6.3383299606299213
21
-5.089144881889764
0
LINE
8
BLACK
6
CONTINUOUS
10
6.3383299606299213
20
-5.089144881889764
11
6.3364551968503937
21
-5.0872701181102364
0
LINE
8
BLACK
6
CONTINUOUS
10
6.3364551968503937
20
-5.0872701181102364
11
6.3359488976377953
21
-5.0865470078740156
0
LINE
8
BLACK
6
CONTINUOUS
10
6.3359488976377953
20
-5.0865470078740156
11
6.3359020866141726
21
-5.0865027165354331
0
LINE
8
BLACK
6
CONTINUOUS
10
6.3359020866141726
20
-5.0865027165354331
11
6.3340273228346451
21
-5.082753188976378
0
LINE
8
BLACK
6
CONTINUOUS
10
6.3340273228346451
20
-5.082753188976378
11
6.3337349606299211
21
-5.0817702362204722
0
LINE
8
BLACK
6
CONTINUOUS
10
6.3337349606299211
20
-5.0817702362204722
11
6.3337759448818893
21
-5.0815985433070869
0
LINE
8
BLACK
6
CONTINUOUS
10
6.3337759448818893
20
-5.0815985433070869
11
6.3337155905511811
21
-5.0814326771653544
0
LINE
8
BLACK
6
CONTINUOUS
10
6.3337155905511811
20
-5.0814326771653544
11
6.3337155905511811
21
-5.0720588582677166
0
LINE
8
BLACK
6
CONTINUOUS
10
6.3337155905511811
20
-5.0720588582677166
11
6.3338936614173225
21
-5.0710489370078742
0
LINE
8
BLACK
6
CONTINUOUS
10
6.3338936614173225
20
-5.0710489370078742
11
6.3340071259842521
21
-5.0709136614173227
0
LINE
8
BLACK
6
CONTINUOUS
10
6.3340071259842521
20
-5.0709136614173227
11
6.3340273228346451
21
-5.0707383464566931
0
LINE
8
BLACK
6
CONTINUOUS
10
6.3340273228346451
20
-5.0707383464566931
11
6.3359020866141726
21
-5.066988818897638
0
LINE
8
BLACK
6
CONTINUOUS
10
6.3359020866141726
20
-5.066988818897638
11
6.3364279921259845
21
-5.0662797244094486
0
LINE
8
BLACK
6
CONTINUOUS
10
6.3364279921259845
20
-5.0662797244094486
11
6.3364551968503937
21
-5.0662214173228346
0
LINE
8
BLACK
6
CONTINUOUS
10
6.3364551968503937
20
-5.0662214173228346
11
6.3383299606299213
21
-5.064346653543307
0
LINE
8
BLACK
6
CONTINUOUS
10
6.3383299606299213
20
-5.064346653543307
11
6.3390530314960625
21
-5.0638403543307087
0
LINE
8
BLACK
6
CONTINUOUS
10
6.3390530314960625
20
-5.0638403543307087
11
6.3390973622047246
21
-5.0637935433070869
0
LINE
8
BLACK
6
CONTINUOUS
10
6.3390973622047246
20
-5.0637935433070869
11
6.3428468897637797
21
-5.0619187795275593
0
LINE
8
BLACK
6
CONTINUOUS
10
6.3428468897637797
20
-5.0619187795275593
11
6.3438298031496059
21
-5.0616264173228345
0
LINE
8
BLACK
6
CONTINUOUS
10
6.3438298031496059
20
-5.0616264173228345
11
6.344001496062992
21
-5.0616674015748027
0
LINE
8
BLACK
6
CONTINUOUS
10
6.344001496062992
20
-5.0616674015748027
11
6.3441674015748033
21
-5.0616070472440944
0
LINE
8
BLACK
6
CONTINUOUS
10
6.3441674015748033
20
-5.0616070472440944
11
6.3516664566929135
21
-5.0616070472440944
0
LINE
8
BLACK
6
CONTINUOUS
10
6.3516664566929135
20
-5.0616070472440944
11
6.352676377952756
21
-5.0617851181102358
0
LINE
8
BLACK
6
CONTINUOUS
10
6.3421669685039372
20
-5.0688612992125979
11
6.3409698425196845
21
-5.0700584251968506
0
LINE
8
BLACK
6
CONTINUOUS
10
6.3409698425196845
20
-5.0700584251968506
11
6.3396211023622042
21
-5.0727559055118112
0
LINE
8
BLACK
6
CONTINUOUS
10
6.3396211023622042
20
-5.0727559055118112
11
6.3396211023622042
21
-5.0807356299212598
0
LINE
8
BLACK
6
CONTINUOUS
10
6.3396211023622042
20
-5.0807356299212598
11
6.3409698425196845
21
-5.0834331102362205
0
LINE
8
BLACK
6
CONTINUOUS
10
6.3409698425196845
20
-5.0834331102362205
11
6.3421669685039372
21
-5.0846302362204723
0
LINE
8
BLACK
6
CONTINUOUS
10
6.3421669685039372
20
-5.0846302362204723
11
6.3448644488188979
21
-5.0859789763779526
0
LINE
8
BLACK
6
CONTINUOUS
10
6.3448644488188979
20
-5.0859789763779526
11
6.3509694094488189
21
-5.0859789763779526
0
LINE
8
BLACK
6
CONTINUOUS
10
6.3509694094488189
20
-5.0859789763779526
11
6.3536668897637796
21
-5.0846302362204723
0
LINE
8
BLACK
6
CONTINUOUS
10
6.3536668897637796
20
-5.0846302362204723
11
6.3548640157480314
21
-5.0834331102362205
0
LINE
8
BLACK
6
CONTINUOUS
10
6.3548640157480314
20
-5.0834331102362205
11
6.3562127559055117
21
-5.0807356299212598
0
LINE
8
BLACK
6
CONTINUOUS
10
6.3562127559055117
20
-5.0807356299212598
11
6.3562127559055117
21
-5.0727559055118112
0
LINE
8
BLACK
6
CONTINUOUS
10
6.3562127559055117
20
-5.0727559055118112
11
6.3548640157480314
21
-5.0700584251968506
0
LINE
8
BLACK
6
CONTINUOUS
10
6.3548640157480314
20
-5.0700584251968506
11
6.3536668897637796
21
-5.0688612992125979
0
LINE
8
BLACK
6
CONTINUOUS
10
6.3536668897637796
20
-5.0688612992125979
11
6.3509694094488189
21
-5.0675125590551184
0
LINE
8
BLACK
6
CONTINUOUS
10
6.3509694094488189
20
-5.0675125590551184
11
6.3448644488188979
21
-5.0675125590551184
0
LINE
8
BLACK
6
CONTINUOUS
10
6.3448644488188979
20
-5.0675125590551184
11
6.3421669685039372
21
-5.0688612992125979
0
LINE
8
BLACK
6
CONTINUOUS
10
6.3901716929133858
20
-5.0617851181102358
11
6.3903069291338586
21
-5.0618985826771654
0
LINE
8
BLACK
6
CONTINUOUS
10
6.3903069291338586
20
-5.0618985826771654
11
6.3904822834645669
21
-5.0619187795275593
0
LINE
8
BLACK
6
CONTINUOUS
10
6.3904822834645669
20
-5.0619187795275593
11
6.394231811023622
21
-5.0637935433070869
0
LINE
8
BLACK
6
CONTINUOUS
10
6.394231811023622
20
-5.0637935433070869
11
6.3949408661417317
21
-5.0643194488188978
0
LINE
8
BLACK
6
CONTINUOUS
10
6.3949408661417317
20
-5.0643194488188978
11
6.3949992125984254
21
-5.064346653543307
0
LINE
8
BLACK
6
CONTINUOUS
10
6.3949992125984254
20
-5.064346653543307
11
6.396873976377953
21
-5.0662214173228346
0
LINE
8
BLACK
6
CONTINUOUS
10
6.396873976377953
20
-5.0662214173228346
11
6.3973802362204726
21
-5.0669444881889767
0
LINE
8
BLACK
6
CONTINUOUS
10
6.3973802362204726
20
-5.0669444881889767
11
6.3974270866141731
21
-5.066988818897638
0
LINE
8
BLACK
6
CONTINUOUS
10
6.3974270866141731
20
-5.066988818897638
11
6.3993018503937007
21
-5.0707383464566931
0
LINE
8
BLACK
6
CONTINUOUS
10
6.3993018503937007
20
-5.0707383464566931
11
6.3995942125984246
21
-5.0717212598425192
0
LINE
8
BLACK
6
CONTINUOUS
10
6.3995942125984246
20
-5.0717212598425192
11
6.3995531889763777
21
-5.0718929527559053
0
LINE
8
BLACK
6
CONTINUOUS
10
6.3995531889763777
20
-5.0718929527559053
11
6.3996135826771656
21
-5.0720588582677166
0
LINE
8
BLACK
6
CONTINUOUS
10
6.3996135826771656
20
-5.0720588582677166
11
6.3996135826771656
21
-5.0758083858267717
0
LINE
8
BLACK
6
CONTINUOUS
10
6.3996135826771656
20
-5.0758083858267717
11
6.3994602755905508
21
-5.0766777559055116
0
LINE
8
BLACK
6
CONTINUOUS
10
6.3994602755905508
20
-5.0766777559055116
11
6.3994620472440946
21
-5.0767421653543305
0
LINE
8
BLACK
6
CONTINUOUS
10
6.3994620472440946
20
-5.0767421653543305
11
6.3975872834645671
21
-5.0823664173228345
0
LINE
8
BLACK
6
CONTINUOUS
10
6.3975872834645671
20
-5.0823664173228345
11
6.3970989763779524
21
-5.083268188976378
0
LINE
8
BLACK
6
CONTINUOUS
10
6.3970989763779524
20
-5.083268188976378
11
6.3969485826771653
21
-5.0833605511811024
0
LINE
8
BLACK
6
CONTINUOUS
10
6.3969485826771653
20
-5.0833605511811024
11
6.396873976377953
21
-5.0835205905511813
0
LINE
8
BLACK
6
CONTINUOUS
10
6.396873976377953
20
-5.0835205905511813
11
6.3794174803149604
21
-5.1009771259842518
0
LINE
8
BLACK
6
CONTINUOUS
10
6.3794174803149604
20
-5.1009771259842518
11
6.3966608267716536
21
-5.1009771259842518
0
LINE
8
BLACK
6
CONTINUOUS
10
6.3966608267716536
20
-5.1009771259842518
11
6.397670748031496
21
-5.1011551968503932
0
LINE
8
BLACK
6
CONTINUOUS
10
6.397670748031496
20
-5.1011551968503932
11
6.3992179921259842
21
-5.1024535039370074
0
LINE
8
BLACK
6
CONTINUOUS
10
6.3992179921259842
20
-5.1024535039370074
11
6.3995687401574806
21
-5.1044426377952759
0
LINE
8
BLACK
6
CONTINUOUS
10
6.3995687401574806
20
-5.1044426377952759
11
6.3985588188976372
21
-5.1061918110236215
0
LINE
8
BLACK
6
CONTINUOUS
10
6.3985588188976372
20
-5.1061918110236215
11
6.3966608267716536
21
-5.1068826377952758
0
LINE
8
BLACK
6
CONTINUOUS
10
6.3966608267716536
20
-5.1068826377952758
11
6.3722888976377954
21
-5.1068826377952758
0
LINE
8
BLACK
6
CONTINUOUS
10
6.3722888976377954
20
-5.1068826377952758
11
6.371654133858268
21
-5.1067707086614176
0
LINE
8
BLACK
6
CONTINUOUS
10
6.371654133858268
20
-5.1067707086614176
11
6.3715246850393701
21
-5.1067820472440948
0
LINE
8
BLACK
6
CONTINUOUS
10
6.3715246850393701
20
-5.1067820472440948
11
6.3714594488188974
21
-5.1067363779527559
0
LINE
8
BLACK
6
CONTINUOUS
10
6.3714594488188974
20
-5.1067363779527559
11
6.3712789763779529
21
-5.1067045669291335
0
LINE
8
BLACK
6
CONTINUOUS
10
6.3712789763779529
20
-5.1067045669291335
11
6.3705981102362204
21
-5.106133267716535
0
LINE
8
BLACK
6
CONTINUOUS
10
6.3705981102362204
20
-5.106133267716535
11
6.369870118110236
21
-5.1056235039370081
0
LINE
8
BLACK
6
CONTINUOUS
10
6.369870118110236
20
-5.1056235039370081
11
6.3698351574803151
21
-5.1054930314960627
0
LINE
8
BLACK
6
CONTINUOUS
10
6.3698351574803151
20
-5.1054930314960627
11
6.3697317322834648
21
-5.1054062598425194
0
LINE
8
BLACK
6
CONTINUOUS
10
6.3697317322834648
20
-5.1054062598425194
11
6.3695773622047245
21
-5.1045309055118109
0
LINE
8
BLACK
6
CONTINUOUS
10
6.3695773622047245
20
-5.1045309055118109
11
6.3693474015748031
21
-5.1036725590551182
0
LINE
8
BLACK
6
CONTINUOUS
10
6.3693474015748031
20
-5.1036725590551182
11
6.3694044488188979
21
-5.103550196850394
0
LINE
8
BLACK
6
CONTINUOUS
10
6.3694044488188979
20
-5.103550196850394
11
6.3693809842519684
21
-5.1034171259842518
0
LINE
8
BLACK
6
CONTINUOUS
10
6.3693809842519684
20
-5.1034171259842518
11
6.3698254724409447
21
-5.1026472047244091
0
LINE
8
BLACK
6
CONTINUOUS
10
6.3698254724409447
20
-5.1026472047244091
11
6.3702009842519685
21
-5.1018419685039369
0
LINE
8
BLACK
6
CONTINUOUS
10
6.3702009842519685
20
-5.1018419685039369
11
6.3922052362204722
21
-5.0798376377952756
0
LINE
8
BLACK
6
CONTINUOUS
10
6.3922052362204722
20
-5.0798376377952756
11
6.3937080708661416
21
-5.0753292519685038
0
LINE
8
BLACK
6
CONTINUOUS
10
6.3937080708661416
20
-5.0753292519685038
11
6.3937080708661416
21
-5.0727559055118112
0
LINE
8
BLACK
6
CONTINUOUS
10
6.3937080708661416
20
-5.0727559055118112
11
6.3923593307086612
21
-5.0700584251968506
0
LINE
8
BLACK
6
CONTINUOUS
10
6.3923593307086612
20
-5.0700584251968506
11
6.3911622047244094
21
-5.0688612992125979
0
LINE
8
BLACK
6
CONTINUOUS
10
6.3911622047244094
20
-5.0688612992125979
11
6.3884647244094488
21
-5.0675125590551184
0
LINE
8
BLACK
6
CONTINUOUS
10
6.3884647244094488
20
-5.0675125590551184
11
6.3804850000000002
21
-5.0675125590551184
0
LINE
8
BLACK
6
CONTINUOUS
10
6.3804850000000002
20
-5.0675125590551184
11
6.3777875196850395
21
-5.0688612992125979
0
LINE
8
BLACK
6
CONTINUOUS
10
6.3777875196850395
20
-5.0688612992125979
11
6.3762515748031499
21
-5.0703972440944884
0
LINE
8
BLACK
6
CONTINUOUS
10
6.3762515748031499
20
-5.0703972440944884
11
6.3754115354330709
21
-5.0709854330708657
0
LINE
8
BLACK
6
CONTINUOUS
10
6.3754115354330709
20
-5.0709854330708657
11
6.3733994488188976
21
-5.0711614960629916
0
LINE
8
BLACK
6
CONTINUOUS
10
6.3733994488188976
20
-5.0711614960629916
11
6.3717448818897635
21
-5.070002952755905
0
LINE
8
BLACK
6
CONTINUOUS
10
6.3717448818897635
20
-5.070002952755905
11
6.3712221653543306
21
-5.0680520078740159
0
LINE
8
BLACK
6
CONTINUOUS
10
6.3712221653543306
20
-5.0680520078740159
11
6.372075748031496
21
-5.0662214173228346
0
LINE
8
BLACK
6
CONTINUOUS
10
6.372075748031496
20
-5.0662214173228346
11
6.3739505118110236
21
-5.064346653543307
0
LINE
8
BLACK
6
CONTINUOUS
10
6.3739505118110236
20
-5.064346653543307
11
6.3746735826771648
21
-5.0638403543307087
0
LINE
8
BLACK
6
CONTINUOUS
10
6.3746735826771648
20
-5.0638403543307087
11
6.3747179133858269
21
-5.0637935433070869
0
LINE
8
BLACK
6
CONTINUOUS
10
6.3747179133858269
20
-5.0637935433070869
11
6.378467440944882
21
-5.0619187795275593
0
LINE
8
BLACK
6
CONTINUOUS
10
6.378467440944882
20
-5.0619187795275593
11
6.3794503543307082
21
-5.0616264173228345
0
LINE
8
BLACK
6
CONTINUOUS
10
6.3794503543307082
20
-5.0616264173228345
11
6.3796220472440943
21
-5.0616674015748027
0
LINE
8
BLACK
6
CONTINUOUS
10
6.3796220472440943
20
-5.0616674015748027
11
6.3797879527559056
21
-5.0616070472440944
0
LINE
8
BLACK
6
CONTINUOUS
10
6.3797879527559056
20
-5.0616070472440944
11
6.3891617716535434
21
-5.0616070472440944
0
LINE
8
BLACK
6
CONTINUOUS
10
6.3891617716535434
20
-5.0616070472440944
11
6.3901716929133858
21
-5.0617851181102358
0
LINE
8
BLACK
6
CONTINUOUS
10
6.4257922440944881
20
-5.0617851181102358
11
6.4259274803149609
21
-5.0618985826771654
0
LINE
8
BLACK
6
CONTINUOUS
10
6.4259274803149609
20
-5.0618985826771654
11
6.4261028346456692
21
-5.0619187795275593
0
LINE
8
BLACK
6
CONTINUOUS
10
6.4261028346456692
20
-5.0619187795275593
11
6.4298523622047243
21
-5.0637935433070869
0
LINE
8
BLACK
6
CONTINUOUS
10
6.4298523622047243
20
-5.0637935433070869
11
6.4305614173228349
21
-5.0643194488188978
0
LINE
8
BLACK
6
CONTINUOUS
10
6.4305614173228349
20
-5.0643194488188978
11
6.4306197637795277
21
-5.064346653543307
0
LINE
8
BLACK
6
CONTINUOUS
10
6.4306197637795277
20
-5.064346653543307
11
6.4324945275590553
21
-5.0662214173228346
0
LINE
8
BLACK
6
CONTINUOUS
10
6.4324945275590553
20
-5.0662214173228346
11
6.4330007874015749
21
-5.0669444881889767
0
LINE
8
BLACK
6
CONTINUOUS
10
6.4330007874015749
20
-5.0669444881889767
11
6.4330476377952754
21
-5.066988818897638
0
LINE
8
BLACK
6
CONTINUOUS
10
6.4330476377952754
20
-5.066988818897638
11
6.434922401574803
21
-5.0707383464566931
0
LINE
8
BLACK
6
CONTINUOUS
10
6.434922401574803
20
-5.0707383464566931
11
6.4350676771653541
21
-5.0712267716535431
0
LINE
8
BLACK
6
CONTINUOUS
10
6.4350676771653541
20
-5.0712267716535431
11
6.4351459842519683
21
-5.0713427165354332
0
LINE
8
BLACK
6
CONTINUOUS
10
6.4351459842519683
20
-5.0713427165354332
11
6.4370207480314958
21
-5.0788417716535434
0
LINE
8
BLACK
6
CONTINUOUS
10
6.4370207480314958
20
-5.0788417716535434
11
6.437062204724409
21
-5.0794296456692916
0
LINE
8
BLACK
6
CONTINUOUS
10
6.437062204724409
20
-5.0794296456692916
11
6.4371088976377955
21
-5.0795579133858269
0
LINE
8
BLACK
6
CONTINUOUS
10
6.4371088976377955
20
-5.0795579133858269
11
6.4371088976377955
21
-5.0889317322834646
0
LINE
8
BLACK
6
CONTINUOUS
10
6.4371088976377955
20
-5.0889317322834646
11
6.4370065354330706
21
-5.0895120866141728
0
LINE
8
BLACK
6
CONTINUOUS
10
6.4370065354330706
20
-5.0895120866141728
11
6.4370207480314958
21
-5.089647874015748
0
LINE
8
BLACK
6
CONTINUOUS
10
6.4370207480314958
20
-5.089647874015748
11
6.4351459842519683
21
-5.0971469291338583
0
LINE
8
BLACK
6
CONTINUOUS
10
6.4351459842519683
20
-5.0971469291338583
11
6.4349383858267712
21
-5.0976123622047247
0
LINE
8
BLACK
6
CONTINUOUS
10
6.4349383858267712
20
-5.0976123622047247
11
6.434922401574803
21
-5.0977512992125984
0
LINE
8
BLACK
6
CONTINUOUS
10
6.434922401574803
20
-5.0977512992125984
11
6.4330476377952754
21
-5.1015008267716535
0
LINE
8
BLACK
6
CONTINUOUS
10
6.4330476377952754
20
-5.1015008267716535
11
6.4325216929133857
21
-5.1022098818897641
0
LINE
8
BLACK
6
CONTINUOUS
10
6.4325216929133857
20
-5.1022098818897641
11
6.4324945275590553
21
-5.1022682283464569
0
LINE
8
BLACK
6
CONTINUOUS
10
6.4324945275590553
20
-5.1022682283464569
11
6.4306198031496065
21
-5.1041429921259844
0
LINE
8
BLACK
6
CONTINUOUS
10
6.4306198031496065
20
-5.1041429921259844
11
6.4298966141732281
21
-5.1046493700787403
0
LINE
8
BLACK
6
CONTINUOUS
10
6.4298966141732281
20
-5.1046493700787403
11
6.4298523622047243
21
-5.1046961417322834
0
LINE
8
BLACK
6
CONTINUOUS
10
6.4298523622047243
20
-5.1046961417322834
11
6.4261028346456692
21
-5.1065709055118109
0
LINE
8
BLACK
6
CONTINUOUS
10
6.4261028346456692
20
-5.1065709055118109
11
6.4251198818897635
21
-5.1068632677165358
0
LINE
8
BLACK
6
CONTINUOUS
10
6.4251198818897635
20
-5.1068632677165358
11
6.4249481889763782
21
-5.1068222440944879
0
LINE
8
BLACK
6
CONTINUOUS
10
6.4249481889763782
20
-5.1068222440944879
11
6.4247823228346457
21
-5.1068826377952758
0
LINE
8
BLACK
6
CONTINUOUS
10
6.4247823228346457
20
-5.1068826377952758
11
6.4210327952755906
21
-5.1068826377952758
0
LINE
8
BLACK
6
CONTINUOUS
10
6.4210327952755906
20
-5.1068826377952758
11
6.4200228740157481
21
-5.1067045669291335
0
LINE
8
BLACK
6
CONTINUOUS
10
6.4200228740157481
20
-5.1067045669291335
11
6.4198875984251966
21
-5.1065910629921261
0
LINE
8
BLACK
6
CONTINUOUS
10
6.4198875984251966
20
-5.1065910629921261
11
6.419712283464567
21
-5.1065709055118109
0
LINE
8
BLACK
6
CONTINUOUS
10
6.419712283464567
20
-5.1065709055118109
11
6.4159627559055119
21
-5.1046961417322834
0
LINE
8
BLACK
6
CONTINUOUS
10
6.4159627559055119
20
-5.1046961417322834
11
6.4152536220472438
21
-5.1041701574803149
0
LINE
8
BLACK
6
CONTINUOUS
10
6.4152536220472438
20
-5.1041701574803149
11
6.4151953149606298
21
-5.1041429921259844
0
LINE
8
BLACK
6
CONTINUOUS
10
6.4151953149606298
20
-5.1041429921259844
11
6.4133205511811022
21
-5.1022681889763781
0
LINE
8
BLACK
6
CONTINUOUS
10
6.4133205511811022
20
-5.1022681889763781
11
6.4128142519685039
21
-5.101545118110236
0
LINE
8
BLACK
6
CONTINUOUS
10
6.4128142519685039
20
-5.101545118110236
11
6.4127674803149608
21
-5.1015008267716535
0
LINE
8
BLACK
6
CONTINUOUS
10
6.4127674803149608
20
-5.1015008267716535
11
6.4108927165354332
21
-5.0977512992125984
0
LINE
8
BLACK
6
CONTINUOUS
10
6.4108927165354332
20
-5.0977512992125984
11
6.4107474015748034
21
-5.0972628346456688
0
LINE
8
BLACK
6
CONTINUOUS
10
6.4107474015748034
20
-5.0972628346456688
11
6.410669133858268
21
-5.0971469291338583
0
LINE
8
BLACK
6
CONTINUOUS
10
6.410669133858268
20
-5.0971469291338583
11
6.4087943700787404
21
-5.089647874015748
0
LINE
8
BLACK
6
CONTINUOUS
10
6.4087943700787404
20
-5.089647874015748
11
6.4087528740157476
21
-5.0890599606299212
0
LINE
8
BLACK
6
CONTINUOUS
10
6.4087528740157476
20
-5.0890599606299212
11
6.4087062204724408
21
-5.0889317322834646
0
LINE
8
BLACK
6
CONTINUOUS
10
6.4087062204724408
20
-5.0889317322834646
11
6.4087062204724408
21
-5.0795579133858269
0
LINE
8
BLACK
6
CONTINUOUS
10
6.4087062204724408
20
-5.0795579133858269
11
6.408808543307086
21
-5.0789775196850391
0
LINE
8
BLACK
6
CONTINUOUS
10
6.408808543307086
20
-5.0789775196850391
11
6.4087943700787404
21
-5.0788417716535434
0
LINE
8
BLACK
6
CONTINUOUS
10
6.4087943700787404
20
-5.0788417716535434
11
6.410669133858268
21
-5.0713427165354332
0
LINE
8
BLACK
6
CONTINUOUS
10
6.410669133858268
20
-5.0713427165354332
11
6.4108766929133854
21
-5.070877244094488
0
LINE
8
BLACK
6
CONTINUOUS
10
6.4108766929133854
20
-5.070877244094488
11
6.4108927165354332
21
-5.0707383464566931
0
LINE
8
BLACK
6
CONTINUOUS
10
6.4108927165354332
20
-5.0707383464566931
11
6.4127674803149608
21
-5.066988818897638
0
LINE
8
BLACK
6
CONTINUOUS
10
6.4127674803149608
20
-5.066988818897638
11
6.4132933858267718
21
-5.0662797244094486
0
LINE
8
BLACK
6
CONTINUOUS
10
6.4132933858267718
20
-5.0662797244094486
11
6.413320590551181
21
-5.0662214173228346
0
LINE
8
BLACK
6
CONTINUOUS
10
6.413320590551181
20
-5.0662214173228346
11
6.4151953543307085
21
-5.064346653543307
0
LINE
8
BLACK
6
CONTINUOUS
10
6.4151953543307085
20
-5.064346653543307
11
6.4159184251968506
21
-5.0638403543307087
0
LINE
8
BLACK
6
CONTINUOUS
10
6.4159184251968506
20
-5.0638403543307087
11
6.4159627559055119
21
-5.0637935433070869
0
LINE
8
BLACK
6
CONTINUOUS
10
6.4159627559055119
20
-5.0637935433070869
11
6.419712283464567
21
-5.0619187795275593
0
LINE
8
BLACK
6
CONTINUOUS
10
6.419712283464567
20
-5.0619187795275593
11
6.4206951968503931
21
-5.0616264173228345
0
LINE
8
BLACK
6
CONTINUOUS
10
6.4206951968503931
20
-5.0616264173228345
11
6.4208668897637793
21
-5.0616674015748027
0
LINE
8
BLACK
6
CONTINUOUS
10
6.4208668897637793
20
-5.0616674015748027
11
6.4210327952755906
21
-5.0616070472440944
0
LINE
8
BLACK
6
CONTINUOUS
10
6.4210327952755906
20
-5.0616070472440944
11
6.4247823228346457
21
-5.0616070472440944
0
LINE
8
BLACK
6
CONTINUOUS
10
6.4247823228346457
20
-5.0616070472440944
11
6.4257922440944881
21
-5.0617851181102358
0
LINE
8
BLACK
6
CONTINUOUS
10
6.4190323622047245
20
-5.0688612992125979
11
6.4178352362204727
21
-5.0700584251968506
0
LINE
8
BLACK
6
CONTINUOUS
10
6.4178352362204727
20
-5.0700584251968506
11
6.4163197244094485
21
-5.0730894094488184
0
LINE
8
BLACK
6
CONTINUOUS
10
6.4163197244094485
20
-5.0730894094488184
11
6.4146117322834648
21
-5.0799214566929134
0
LINE
8
BLACK
6
CONTINUOUS
10
6.4146117322834648
20
-5.0799214566929134
11
6.4146117322834648
21
-5.0885681889763781
0
LINE
8
BLACK
6
CONTINUOUS
10
6.4146117322834648
20
-5.0885681889763781
11
6.4163197244094485
21
-5.0954002362204722
0
LINE
8
BLACK
6
CONTINUOUS
10
6.4163197244094485
20
-5.0954002362204722
11
6.4178352362204727
21
-5.0984312204724409
0
LINE
8
BLACK
6
CONTINUOUS
10
6.4178352362204727
20
-5.0984312204724409
11
6.4190323622047245
21
-5.0996283858267715
0
LINE
8
BLACK
6
CONTINUOUS
10
6.4190323622047245
20
-5.0996283858267715
11
6.4217298425196851
21
-5.1009771259842518
0
LINE
8
BLACK
6
CONTINUOUS
10
6.4217298425196851
20
-5.1009771259842518
11
6.4240852755905511
21
-5.1009771259842518
0
LINE
8
BLACK
6
CONTINUOUS
10
6.4240852755905511
20
-5.1009771259842518
11
6.426782716535433
21
-5.0996283858267715
0
LINE
8
BLACK
6
CONTINUOUS
10
6.426782716535433
20
-5.0996283858267715
11
6.4279798425196848
21
-5.0984312204724409
0
LINE
8
BLACK
6
CONTINUOUS
10
6.4279798425196848
20
-5.0984312204724409
11
6.429495354330709
21
-5.0954002362204722
0
LINE
8
BLACK
6
CONTINUOUS
10
6.429495354330709
20
-5.0954002362204722
11
6.4312033858267714
21
-5.0885681889763781
0
LINE
8
BLACK
6
CONTINUOUS
10
6.4312033858267714
20
-5.0885681889763781
11
6.4312033858267714
21
-5.0799214566929134
0
LINE
8
BLACK
6
CONTINUOUS
10
6.4312033858267714
20
-5.0799214566929134
11
6.429495354330709
21
-5.0730894094488184
0
LINE
8
BLACK
6
CONTINUOUS
10
6.429495354330709
20
-5.0730894094488184
11
6.4279798818897635
21
-5.0700584251968506
0
LINE
8
BLACK
6
CONTINUOUS
10
6.4279798818897635
20
-5.0700584251968506
11
6.4267827559055117
21
-5.0688612992125979
0
LINE
8
BLACK
6
CONTINUOUS
10
6.4267827559055117
20
-5.0688612992125979
11
6.4240852755905511
21
-5.0675125590551184
0
LINE
8
BLACK
6
CONTINUOUS
10
6.4240852755905511
20
-5.0675125590551184
11
6.4217298425196851
21
-5.0675125590551184
0
LINE
8
BLACK
6
CONTINUOUS
10
6.4217298425196851
20
-5.0675125590551184
11
6.4190323622047245
21
-5.0688612992125979
0
LINE
8
BLACK
6
CONTINUOUS
10
6.2120689370078734
20
-5.0617851181102358
11
6.2123361811023621
21
-5.0620093700787399
0
LINE
8
BLACK
6
CONTINUOUS
10
6.2123361811023621
20
-5.0620093700787399
11
6.212675787401575
21
-5.0620890157480316
0
LINE
8
BLACK
6
CONTINUOUS
10
6.212675787401575
20
-5.0620890157480316
11
6.2130883858267714
21
-5.0626405511811026
0
LINE
8
BLACK
6
CONTINUOUS
10
6.2130883858267714
20
-5.0626405511811026
11
6.2136161811023625
21
-5.06308342519685
0
LINE
8
BLACK
6
CONTINUOUS
10
6.2136161811023625
20
-5.06308342519685
11
6.2136767322834645
21
-5.063427007874016
0
LINE
8
BLACK
6
CONTINUOUS
10
6.2136767322834645
20
-5.063427007874016
11
6.213885708661417
21
-5.0637062992125985
0
LINE
8
BLACK
6
CONTINUOUS
10
6.213885708661417
20
-5.0637062992125985
11
6.2138472440944881
21
-5.0643940157480314
0
LINE
8
BLACK
6
CONTINUOUS
10
6.2138472440944881
20
-5.0643940157480314
11
6.213966929133858
21
-5.0650725590551176
0
LINE
8
BLACK
6
CONTINUOUS
10
6.213966929133858
20
-5.0650725590551176
11
6.2137924803149609
21
-5.0653746850393704
0
LINE
8
BLACK
6
CONTINUOUS
10
6.2137924803149609
20
-5.0653746850393704
11
6.2137730314960624
21
-5.0657229527559053
0
LINE
8
BLACK
6
CONTINUOUS
10
6.2137730314960624
20
-5.0657229527559053
11
6.1969001574803144
21
-5.1050930314960627
0
LINE
8
BLACK
6
CONTINUOUS
10
6.1969001574803144
20
-5.1050930314960627
11
6.1963386614173226
21
-5.1059511417322829
0
LINE
8
BLACK
6
CONTINUOUS
10
6.1963386614173226
20
-5.1059511417322829
11
6.194535826771653
21
-5.1068618503937007
0
LINE
8
BLACK
6
CONTINUOUS
10
6.194535826771653
20
-5.1068618503937007
11
6.1925693700787399
21
-5.1064007086614174
0
LINE
8
BLACK
6
CONTINUOUS
10
6.1925693700787399
20
-5.1064007086614174
11
6.1913594488188979
21
-5.1047833858267717
0
LINE
8
BLACK
6
CONTINUOUS
10
6.1913594488188979
20
-5.1047833858267717
11
6.1914721259842516
21
-5.1027667322834649
0
LINE
8
BLACK
6
CONTINUOUS
10
6.1914721259842516
20
-5.1027667322834649
11
6.2065810236220473
21
-5.0675125590551184
0
LINE
8
BLACK
6
CONTINUOUS
10
6.2065810236220473
20
-5.0675125590551184
11
6.1848123228346452
21
-5.0675125590551184
0
LINE
8
BLACK
6
CONTINUOUS
10
6.1848123228346452
20
-5.0675125590551184
11
6.1838024015748028
21
-5.0673344881889761
0
LINE
8
BLACK
6
CONTINUOUS
10
6.1838024015748028
20
-5.0673344881889761
11
6.1822551574803146
21
-5.066036181102362
0
LINE
8
BLACK
6
CONTINUOUS
10
6.1822551574803146
20
-5.066036181102362
11
6.1819044094488191
21
-5.0640470472440944
0
LINE
8
BLACK
6
CONTINUOUS
10
6.1819044094488191
20
-5.0640470472440944
11
6.1829143307086616
21
-5.0622978740157478
0
LINE
8
BLACK
6
CONTINUOUS
10
6.1829143307086616
20
-5.0622978740157478
11
6.1848123228346452
21
-5.0616070472440944
0
LINE
8
BLACK
6
CONTINUOUS
10
6.1848123228346452
20
-5.0616070472440944
11
6.211059015748031
21
-5.0616070472440944
0
LINE
8
BLACK
6
CONTINUOUS
10
6.211059015748031
20
-5.0616070472440944
11
6.2120689370078734
21
-5.0617851181102358
0
LINE
8
BLACK
6
CONTINUOUS
10
6.3245548818897639
20
-5.0617851181102358
11
6.3248221259842516
21
-5.0620093700787399
0
LINE
8
BLACK
6
CONTINUOUS
10
6.3248221259842516
20
-5.0620093700787399
11
6.3251617322834646
21
-5.0620890157480316
0
LINE
8
BLACK
6
CONTINUOUS
10
6.3251617322834646
20
-5.0620890157480316
11
6.3255743307086609
21
-5.0626405511811026
0
LINE
8
BLACK
6
CONTINUOUS
10
6.3255743307086609
20
-5.0626405511811026
11
6.326102125984252
21
-5.06308342519685
0
LINE
8
BLACK
6
CONTINUOUS
10
6.326102125984252
20
-5.06308342519685
11
6.3261626771653541
21
-5.063427007874016
0
LINE
8
BLACK
6
CONTINUOUS
10
6.3261626771653541
20
-5.063427007874016
11
6.3263716535433066
21
-5.0637062992125985
0
LINE
8
BLACK
6
CONTINUOUS
10
6.3263716535433066
20
-5.0637062992125985
11
6.3263331889763776
21
-5.0643940157480314
0
LINE
8
BLACK
6
CONTINUOUS
10
6.3263331889763776
20
-5.0643940157480314
11
6.3264528740157475
21
-5.0650725590551176
0
LINE
8
BLACK
6
CONTINUOUS
10
6.3264528740157475
20
-5.0650725590551176
11
6.3262784251968505
21
-5.0653746850393704
0
LINE
8
BLACK
6
CONTINUOUS
10
6.3262784251968505
20
-5.0653746850393704
11
6.3262589763779529
21
-5.0657229527559053
0
LINE
8
BLACK
6
CONTINUOUS
10
6.3262589763779529
20
-5.0657229527559053
11
6.3093861023622049
21
-5.1050930314960627
0
LINE
8
BLACK
6
CONTINUOUS
10
6.3093861023622049
20
-5.1050930314960627
11
6.3088246062992122
21
-5.1059511417322829
0
LINE
8
BLACK
6
CONTINUOUS
10
6.3088246062992122
20
-5.1059511417322829
11
6.3070217716535435
21
-5.1068618503937007
0
LINE
8
BLACK
6
CONTINUOUS
10
6.3070217716535435
20
-5.1068618503937007
11
6.3050553149606294
21
-5.1064007086614174
0
LINE
8
BLACK
6
CONTINUOUS
10
6.3050553149606294
20
-5.1064007086614174
11
6.3038453937007874
21
-5.1047833858267717
0
LINE
8
BLACK
6
CONTINUOUS
10
6.3038453937007874
20
-5.1047833858267717
11
6.303958070866142
21
-5.1027667322834649
0
LINE
8
BLACK
6
CONTINUOUS
10
6.303958070866142
20
-5.1027667322834649
11
6.3190669685039369
21
-5.0675125590551184
0
LINE
8
BLACK
6
CONTINUOUS
10
6.3190669685039369
20
-5.0675125590551184
11
6.2972982677165357
21
-5.0675125590551184
0
LINE
8
BLACK
6
CONTINUOUS
10
6.2972982677165357
20
-5.0675125590551184
11
6.2962883464566923
21
-5.0673344881889761
0
LINE
8
BLACK
6
CONTINUOUS
10
6.2962883464566923
20
-5.0673344881889761
11
6.2947411023622042
21
-5.066036181102362
0
LINE
8
BLACK
6
CONTINUOUS
10
6.2947411023622042
20
-5.066036181102362
11
6.2943903543307087
21
-5.0640470472440944
0
LINE
8
BLACK
6
CONTINUOUS
10
6.2943903543307087
20
-5.0640470472440944
11
6.2954002755905512
21
-5.0622978740157478
0
LINE
8
BLACK
6
CONTINUOUS
10
6.2954002755905512
20
-5.0622978740157478
11
6.2972982677165357
21
-5.0616070472440944
0
LINE
8
BLACK
6
CONTINUOUS
10
6.2972982677165357
20
-5.0616070472440944
11
6.3235449606299214
21
-5.0616070472440944
0
LINE
8
BLACK
6
CONTINUOUS
10
6.3235449606299214
20
-5.0616070472440944
11
6.3245548818897639
21
-5.0617851181102358
0
LINE
8
BLACK
6
CONTINUOUS
10
6.2349622047244093
20
-5.060088503937008
11
6.2363022834645667
21
-5.0615997637795278
0
LINE
8
BLACK
6
CONTINUOUS
10
6.2363022834645667
20
-5.0615997637795278
11
6.2363574409448814
21
-5.0636188188976377
0
LINE
8
BLACK
6
CONTINUOUS
10
6.2363574409448814
20
-5.0636188188976377
11
6.2282791338582673
21
-5.0878537401574802
0
LINE
8
BLACK
6
CONTINUOUS
10
6.2282791338582673
20
-5.0878537401574802
11
6.239977283464567
21
-5.0878537401574802
0
LINE
8
BLACK
6
CONTINUOUS
10
6.239977283464567
20
-5.0878537401574802
11
6.239977283464567
21
-5.0776831496062993
0
LINE
8
BLACK
6
CONTINUOUS
10
6.239977283464567
20
-5.0776831496062993
11
6.2401553543307084
21
-5.0766732283464568
0
LINE
8
BLACK
6
CONTINUOUS
10
6.2401553543307084
20
-5.0766732283464568
11
6.2414536614173226
21
-5.0751259842519687
0
LINE
8
BLACK
6
CONTINUOUS
10
6.2414536614173226
20
-5.0751259842519687
11
6.2434427952755902
21
-5.0747752362204723
0
LINE
8
BLACK
6
CONTINUOUS
10
6.2434427952755902
20
-5.0747752362204723
11
6.2451919685039368
21
-5.0757851574803148
0
LINE
8
BLACK
6
CONTINUOUS
10
6.2451919685039368
20
-5.0757851574803148
11
6.2458827952755902
21
-5.0776831496062993
0
LINE
8
BLACK
6
CONTINUOUS
10
6.2458827952755902
20
-5.0776831496062993
11
6.2458827952755902
21
-5.0878537401574802
0
LINE
8
BLACK
6
CONTINUOUS
10
6.2458827952755902
20
-5.0878537401574802
11
6.2485543307086608
21
-5.0878537401574802
0
LINE
8
BLACK
6
CONTINUOUS
10
6.2485543307086608
20
-5.0878537401574802
11
6.2495642519685042
21
-5.0880318110236216
0
LINE
8
BLACK
6
CONTINUOUS
10
6.2495642519685042
20
-5.0880318110236216
11
6.2511114960629923
21
-5.0893301181102357
0
LINE
8
BLACK
6
CONTINUOUS
10
6.2511114960629923
20
-5.0893301181102357
11
6.2514622440944878
21
-5.0913192519685042
0
LINE
8
BLACK
6
CONTINUOUS
10
6.2514622440944878
20
-5.0913192519685042
11
6.2504523228346454
21
-5.0930684251968499
0
LINE
8
BLACK
6
CONTINUOUS
10
6.2504523228346454
20
-5.0930684251968499
11
6.2485543307086608
21
-5.0937592519685042
0
LINE
8
BLACK
6
CONTINUOUS
10
6.2485543307086608
20
-5.0937592519685042
11
6.2458827952755902
21
-5.0937592519685042
0
LINE
8
BLACK
6
CONTINUOUS
10
6.2458827952755902
20
-5.0937592519685042
11
6.2458827952755902
21
-5.1039298818897638
0
LINE
8
BLACK
6
CONTINUOUS
10
6.2458827952755902
20
-5.1039298818897638
11
6.2457047244094488
21
-5.1049398031496063
0
LINE
8
BLACK
6
CONTINUOUS
10
6.2457047244094488
20
-5.1049398031496063
11
6.2444064173228346
21
-5.1064870472440944
0
LINE
8
BLACK
6
CONTINUOUS
10
6.2444064173228346
20
-5.1064870472440944
11
6.242417283464567
21
-5.1068377952755908
0
LINE
8
BLACK
6
CONTINUOUS
10
6.242417283464567
20
-5.1068377952755908
11
6.2406681102362205
21
-5.1058278740157483
0
LINE
8
BLACK
6
CONTINUOUS
10
6.2406681102362205
20
-5.1058278740157483
11
6.239977283464567
21
-5.1039298818897638
0
LINE
8
BLACK
6
CONTINUOUS
10
6.239977283464567
20
-5.1039298818897638
11
6.239977283464567
21
-5.0937592519685042
0
LINE
8
BLACK
6
CONTINUOUS
10
6.239977283464567
20
-5.0937592519685042
11
6.2241824015748026
21
-5.0937592519685042
0
LINE
8
BLACK
6
CONTINUOUS
10
6.2241824015748026
20
-5.0937592519685042
11
6.2231724803149602
21
-5.0935811811023619
0
LINE
8
BLACK
6
CONTINUOUS
10
6.2231724803149602
20
-5.0935811811023619
11
6.2229996062992123
21
-5.0934361023622046
0
LINE
8
BLACK
6
CONTINUOUS
10
6.2229996062992123
20
-5.0934361023622046
11
6.2227763779527558
21
-5.093403031496063
0
LINE
8
BLACK
6
CONTINUOUS
10
6.2227763779527558
20
-5.093403031496063
11
6.2222420472440945
21
-5.0928004330708658
0
LINE
8
BLACK
6
CONTINUOUS
10
6.2222420472440945
20
-5.0928004330708658
11
6.221625236220472
21
-5.0922828740157478
0
LINE
8
BLACK
6
CONTINUOUS
10
6.221625236220472
20
-5.0922828740157478
11
6.2215860236220468
21
-5.0920606299212601
0
LINE
8
BLACK
6
CONTINUOUS
10
6.2215860236220468
20
-5.0920606299212601
11
6.2214363385826772
21
-5.091891811023622
0
LINE
8
BLACK
6
CONTINUOUS
10
6.2214363385826772
20
-5.091891811023622
11
6.2214143307086616
21
-5.0910868897637798
0
LINE
8
BLACK
6
CONTINUOUS
10
6.2214143307086616
20
-5.0910868897637798
11
6.2212744881889765
21
-5.0902937401574802
0
LINE
8
BLACK
6
CONTINUOUS
10
6.2212744881889765
20
-5.0902937401574802
11
6.2213873228346452
21
-5.0900982677165354
0
LINE
8
BLACK
6
CONTINUOUS
10
6.2213873228346452
20
-5.0900982677165354
11
6.2213811811023625
21
-5.0898727559055121
0
LINE
8
BLACK
6
CONTINUOUS
10
6.2213811811023625
20
-5.0898727559055121
11
6.2307550000000003
21
-5.0617512992125979
0
LINE
8
BLACK
6
CONTINUOUS
10
6.2307550000000003
20
-5.0617512992125979
11
6.2312432677165353
21
-5.0608495275590553
0
LINE
8
BLACK
6
CONTINUOUS
10
6.2312432677165353
20
-5.0608495275590553
11
6.2329642519685038
21
-5.0597922440944885
0
LINE
8
BLACK
6
CONTINUOUS
10
6.2329642519685038
20
-5.0597922440944885
11
6.2349622047244093
21
-5.060088503937008
0
LINE
8
BLACK
6
CONTINUOUS
10
6.4599340944881884
20
-5.060088503937008
11
6.4612741732283467
21
-5.0615997637795278
0
LINE
8
BLACK
6
CONTINUOUS
10
6.4612741732283467
20
-5.0615997637795278
11
6.4613293307086614
21
-5.0636188188976377
0
LINE
8
BLACK
6
CONTINUOUS
10
6.4613293307086614
20
-5.0636188188976377
11
6.4532510236220473
21
-5.0878537401574802
0
LINE
8
BLACK
6
CONTINUOUS
10
6.4532510236220473
20
-5.0878537401574802
11
6.4649491732283462
21
-5.0878537401574802
0
LINE
8
BLACK
6
CONTINUOUS
10
6.4649491732283462
20
-5.0878537401574802
11
6.4649491732283462
21
-5.0776831496062993
0
LINE
8
BLACK
6
CONTINUOUS
10
6.4649491732283462
20
-5.0776831496062993
11
6.4651272440944885
21
-5.0766732283464568
0
LINE
8
BLACK
6
CONTINUOUS
10
6.4651272440944885
20
-5.0766732283464568
11
6.4664255511811026
21
-5.0751259842519687
0
LINE
8
BLACK
6
CONTINUOUS
10
6.4664255511811026
20
-5.0751259842519687
11
6.4684146850393702
21
-5.0747752362204723
0
LINE
8
BLACK
6
CONTINUOUS
10
6.4684146850393702
20
-5.0747752362204723
11
6.4701638582677168
21
-5.0757851574803148
0
LINE
8
BLACK
6
CONTINUOUS
10
6.4701638582677168
20
-5.0757851574803148
11
6.4708546850393702
21
-5.0776831496062993
0
LINE
8
BLACK
6
CONTINUOUS
10
6.4708546850393702
20
-5.0776831496062993
11
6.4708546850393702
21
-5.0878537401574802
0
LINE
8
BLACK
6
CONTINUOUS
10
6.4708546850393702
20
-5.0878537401574802
11
6.4735262204724409
21
-5.0878537401574802
0
LINE
8
BLACK
6
CONTINUOUS
10
6.4735262204724409
20
-5.0878537401574802
11
6.4745361417322833
21
-5.0880318110236216
0
LINE
8
BLACK
6
CONTINUOUS
10
6.4745361417322833
20
-5.0880318110236216
11
6.4760833858267715
21
-5.0893301181102357
0
LINE
8
BLACK
6
CONTINUOUS
10
6.4760833858267715
20
-5.0893301181102357
11
6.4764341338582678
21
-5.0913192519685042
0
LINE
8
BLACK
6
CONTINUOUS
10
6.4764341338582678
20
-5.0913192519685042
11
6.4754242125984254
21
-5.0930684251968499
0
LINE
8
BLACK
6
CONTINUOUS
10
6.4754242125984254
20
-5.0930684251968499
11
6.4735262204724409
21
-5.0937592519685042
0
LINE
8
BLACK
6
CONTINUOUS
10
6.4735262204724409
20
-5.0937592519685042
11
6.4708546850393702
21
-5.0937592519685042
0
LINE
8
BLACK
6
CONTINUOUS
10
6.4708546850393702
20
-5.0937592519685042
11
6.4708546850393702
21
-5.1039298818897638
0
LINE
8
BLACK
6
CONTINUOUS
10
6.4708546850393702
20
-5.1039298818897638
11
6.4706766141732279
21
-5.1049398031496063
0
LINE
8
BLACK
6
CONTINUOUS
10
6.4706766141732279
20
-5.1049398031496063
11
6.4693783070866138
21
-5.1064870472440944
0
LINE
8
BLACK
6
CONTINUOUS
10
6.4693783070866138
20
-5.1064870472440944
11
6.4673891732283462
21
-5.1068377952755908
0
LINE
8
BLACK
6
CONTINUOUS
10
6.4673891732283462
20
-5.1068377952755908
11
6.4656399999999996
21
-5.1058278740157483
0
LINE
8
BLACK
6
CONTINUOUS
10
6.4656399999999996
20
-5.1058278740157483
11
6.4649491732283462
21
-5.1039298818897638
0
LINE
8
BLACK
6
CONTINUOUS
10
6.4649491732283462
20
-5.1039298818897638
11
6.4649491732283462
21
-5.0937592519685042
0
LINE
8
BLACK
6
CONTINUOUS
10
6.4649491732283462
20
-5.0937592519685042
11
6.4491542913385826
21
-5.0937592519685042
0
LINE
8
BLACK
6
CONTINUOUS
10
6.4491542913385826
20
-5.0937592519685042
11
6.4481443700787402
21
-5.0935811811023619
0
LINE
8
BLACK
6
CONTINUOUS
10
6.4481443700787402
20
-5.0935811811023619
11
6.4479714960629924
21
-5.0934361023622046
0
LINE
8
BLACK
6
CONTINUOUS
10
6.4479714960629924
20
-5.0934361023622046
11
6.447748267716535
21
-5.093403031496063
0
LINE
8
BLACK
6
CONTINUOUS
10
6.447748267716535
20
-5.093403031496063
11
6.4472139370078736
21
-5.0928004330708658
0
LINE
8
BLACK
6
CONTINUOUS
10
6.4472139370078736
20
-5.0928004330708658
11
6.4465971259842521
21
-5.0922828740157478
0
LINE
8
BLACK
6
CONTINUOUS
10
6.4465971259842521
20
-5.0922828740157478
11
6.4465579133858268
21
-5.0920606299212601
0
LINE
8
BLACK
6
CONTINUOUS
10
6.4465579133858268
20
-5.0920606299212601
11
6.4464082283464563
21
-5.091891811023622
0
LINE
8
BLACK
6
CONTINUOUS
10
6.4464082283464563
20
-5.091891811023622
11
6.4463862204724407
21
-5.0910868897637798
0
LINE
8
BLACK
6
CONTINUOUS
10
6.4463862204724407
20
-5.0910868897637798
11
6.4462463779527557
21
-5.0902937401574802
0
LINE
8
BLACK
6
CONTINUOUS
10
6.4462463779527557
20
-5.0902937401574802
11
6.4463592125984253
21
-5.0900982677165354
0
LINE
8
BLACK
6
CONTINUOUS
10
6.4463592125984253
20
-5.0900982677165354
11
6.4463530708661416
21
-5.0898727559055121
0
LINE
8
BLACK
6
CONTINUOUS
10
6.4463530708661416
20
-5.0898727559055121
11
6.4557268897637794
21
-5.0617512992125979
0
LINE
8
BLACK
6
CONTINUOUS
10
6.4557268897637794
20
-5.0617512992125979
11
6.4562151574803144
21
-5.0608495275590553
0
LINE
8
BLACK
6
CONTINUOUS
10
6.4562151574803144
20
-5.0608495275590553
11
6.4579361417322829
21
-5.0597922440944885
0
LINE
8
BLACK
6
CONTINUOUS
10
6.4579361417322829
20
-5.0597922440944885
11
6.4599340944881884
21
-5.060088503937008
0
LINE
8
BLACK
6
CONTINUOUS
10
6.3082543307086612
20
-5.0131442913385822
11
6.3087155905511807
21
-5.0142578346456688
0
LINE
8
BLACK
6
CONTINUOUS
10
6.3087155905511807
20
-5.0142578346456688
11
6.3087155905511807
21
-5.0323680708661414
0
LINE
8
BLACK
6
CONTINUOUS
10
6.3087155905511807
20
-5.0323680708661414
11
6.3165146062992124
21
-5.0323680708661414
0
LINE
8
BLACK
6
CONTINUOUS
10
6.3165146062992124
20
-5.0323680708661414
11
6.3176281496062989
21
-5.0328293307086609
0
LINE
8
BLACK
6
CONTINUOUS
10
6.3176281496062989
20
-5.0328293307086609
11
6.3180894094488185
21
-5.0339428740157484
0
LINE
8
BLACK
6
CONTINUOUS
10
6.3180894094488185
20
-5.0339428740157484
11
6.3176281496062989
21
-5.0350564173228349
0
LINE
8
BLACK
6
CONTINUOUS
10
6.3176281496062989
20
-5.0350564173228349
11
6.3165146062992124
21
-5.0355176771653545
0
LINE
8
BLACK
6
CONTINUOUS
10
6.3165146062992124
20
-5.0355176771653545
11
6.3071407874015746
21
-5.0355176771653545
0
LINE
8
BLACK
6
CONTINUOUS
10
6.3071407874015746
20
-5.0355176771653545
11
6.306027244094488
21
-5.0350564173228349
0
LINE
8
BLACK
6
CONTINUOUS
10
6.306027244094488
20
-5.0350564173228349
11
6.3055659842519685
21
-5.0339428740157484
0
LINE
8
BLACK
6
CONTINUOUS
10
6.3055659842519685
20
-5.0339428740157484
11
6.3055659842519685
21
-5.0142578346456688
0
LINE
8
BLACK
6
CONTINUOUS
10
6.3055659842519685
20
-5.0142578346456688
11
6.306027244094488
21
-5.0131442913385822
0
LINE
8
BLACK
6
CONTINUOUS
10
6.306027244094488
20
-5.0131442913385822
11
6.3071407874015746
21
-5.0126830314960626
0
LINE
8
BLACK
6
CONTINUOUS
10
6.3071407874015746
20
-5.0126830314960626
11
6.3082543307086612
21
-5.0131442913385822
0
LINE
8
BLACK
6
CONTINUOUS
10
6.3281868897637796
20
-5.0128585039370082
11
6.3286367716535432
21
-5.0129475196850395
0
LINE
8
BLACK
6
CONTINUOUS
10
6.3286367716535432
20
-5.0129475196850395
11
6.3287269685039371
21
-5.0130822440944884
0
LINE
8
BLACK
6
CONTINUOUS
10
6.3287269685039371
20
-5.0130822440944884
11
6.328876771653543
21
-5.0131442913385822
0
LINE
8
BLACK
6
CONTINUOUS
10
6.328876771653543
20
-5.0131442913385822
11
6.3290522440944876
21
-5.0135679133858266
0
LINE
8
BLACK
6
CONTINUOUS
10
6.3290522440944876
20
-5.0135679133858266
11
6.3293074409448815
21
-5.0139489763779528
0
LINE
8
BLACK
6
CONTINUOUS
10
6.3293074409448815
20
-5.0139489763779528
11
6.32927594488189
21
-5.0141079921259841
0
LINE
8
BLACK
6
CONTINUOUS
10
6.32927594488189
20
-5.0141079921259841
11
6.3293380314960626
21
-5.0142578346456688
0
LINE
8
BLACK
6
CONTINUOUS
10
6.3293380314960626
20
-5.0142578346456688
11
6.3293380314960626
21
-5.0323680708661414
0
LINE
8
BLACK
6
CONTINUOUS
10
6.3293380314960626
20
-5.0323680708661414
11
6.3333875196850391
21
-5.0323680708661414
0
LINE
8
BLACK
6
CONTINUOUS
10
6.3333875196850391
20
-5.0323680708661414
11
6.3345010629921257
21
-5.0328293307086609
0
LINE
8
BLACK
6
CONTINUOUS
10
6.3345010629921257
20
-5.0328293307086609
11
6.3349623228346452
21
-5.0339428740157484
0
LINE
8
BLACK
6
CONTINUOUS
10
6.3349623228346452
20
-5.0339428740157484
11
6.3345010629921257
21
-5.0350564173228349
0
LINE
8
BLACK
6
CONTINUOUS
10
6.3345010629921257
20
-5.0350564173228349
11
6.3333875196850391
21
-5.0355176771653545
0
LINE
8
BLACK
6
CONTINUOUS
10
6.3333875196850391
20
-5.0355176771653545
11
6.3277632283464564
21
-5.0355176771653545
0
LINE
8
BLACK
6
CONTINUOUS
10
6.3277632283464564
20
-5.0355176771653545
11
6.3221389370078738
21
-5.0355176771653545
0
LINE
8
BLACK
6
CONTINUOUS
10
6.3221389370078738
20
-5.0355176771653545
11
6.3210253937007872
21
-5.0350564173228349
0
LINE
8
BLACK
6
CONTINUOUS
10
6.3210253937007872
20
-5.0350564173228349
11
6.3205641338582677
21
-5.0339428740157484
0
LINE
8
BLACK
6
CONTINUOUS
10
6.3205641338582677
20
-5.0339428740157484
11
6.3210253937007872
21
-5.0328293307086609
0
LINE
8
BLACK
6
CONTINUOUS
10
6.3210253937007872
20
-5.0328293307086609
11
6.3221389370078738
21
-5.0323680708661414
0
LINE
8
BLACK
6
CONTINUOUS
10
6.3221389370078738
20
-5.0323680708661414
11
6.3261884251968503
21
-5.0323680708661414
0
LINE
8
BLACK
6
CONTINUOUS
10
6.3261884251968503
20
-5.0323680708661414
11
6.3261884251968503
21
-5.0189971259842521
0
LINE
8
BLACK
6
CONTINUOUS
10
6.3261884251968503
20
-5.0189971259842521
11
6.3251272440944879
21
-5.0200583070866145
0
LINE
8
BLACK
6
CONTINUOUS
10
6.3251272440944879
20
-5.0200583070866145
11
6.3248877559055119
21
-5.0201574803149605
0
LINE
8
BLACK
6
CONTINUOUS
10
6.3248877559055119
20
-5.0201574803149605
11
6.324717952755905
21
-5.020353307086614
0
LINE
8
BLACK
6
CONTINUOUS
10
6.324717952755905
20
-5.020353307086614
11
6.3228431889763774
21
-5.0212906692913384
0
LINE
8
BLACK
6
CONTINUOUS
10
6.3228431889763774
20
-5.0212906692913384
11
6.3216409448818895
21
-5.021376102362205
0
LINE
8
BLACK
6
CONTINUOUS
10
6.3216409448818895
20
-5.021376102362205
11
6.3207303937007868
21
-5.020586377952756
0
LINE
8
BLACK
6
CONTINUOUS
10
6.3207303937007868
20
-5.020586377952756
11
6.3206449606299211
21
-5.0193841338582672
0
LINE
8
BLACK
6
CONTINUOUS
10
6.3206449606299211
20
-5.0193841338582672
11
6.3214346850393701
21
-5.0184735826771654
0
LINE
8
BLACK
6
CONTINUOUS
10
6.3214346850393701
20
-5.0184735826771654
11
6.3230808661417317
21
-5.0176504724409448
0
LINE
8
BLACK
6
CONTINUOUS
10
6.3230808661417317
20
-5.0176504724409448
11
6.3246646456692908
21
-5.0160666535433069
0
LINE
8
BLACK
6
CONTINUOUS
10
6.3246646456692908
20
-5.0160666535433069
11
6.3264529133858263
21
-5.0133842913385829
0
LINE
8
BLACK
6
CONTINUOUS
10
6.3264529133858263
20
-5.0133842913385829
11
6.3265876377952752
21
-5.0132940551181102
0
LINE
8
BLACK
6
CONTINUOUS
10
6.3265876377952752
20
-5.0132940551181102
11
6.3266496850393699
21
-5.0131442913385822
0
LINE
8
BLACK
6
CONTINUOUS
10
6.3266496850393699
20
-5.0131442913385822
11
6.3270733070866143
21
-5.0129687795275588
0
LINE
8
BLACK
6
CONTINUOUS
10
6.3270733070866143
20
-5.0129687795275588
11
6.3274543700787405
21
-5.0127136220472437
0
LINE
8
BLACK
6
CONTINUOUS
10
6.3274543700787405
20
-5.0127136220472437
11
6.3276133858267718
21
-5.0127450787401573
0
LINE
8
BLACK
6
CONTINUOUS
10
6.3276133858267718
20
-5.0127450787401573
11
6.3277632283464564
21
-5.0126830314960626
0
LINE
8
BLACK
6
CONTINUOUS
10
6.3277632283464564
20
-5.0126830314960626
11
6.3281868897637796
21
-5.0128585039370082
0
LINE
8
BLACK
6
CONTINUOUS
10
6.3469345275590552
20
-5.0128585039370082
11
6.3473844094488188
21
-5.0129475196850395
0
LINE
8
BLACK
6
CONTINUOUS
10
6.3473844094488188
20
-5.0129475196850395
11
6.3474746062992127
21
-5.0130822440944884
0
LINE
8
BLACK
6
CONTINUOUS
10
6.3474746062992127
20
-5.0130822440944884
11
6.3476244094488186
21
-5.0131442913385822
0
LINE
8
BLACK
6
CONTINUOUS
10
6.3476244094488186
20
-5.0131442913385822
11
6.3477998818897641
21
-5.0135679133858266
0
LINE
8
BLACK
6
CONTINUOUS
10
6.3477998818897641
20
-5.0135679133858266
11
6.3480550787401571
21
-5.0139489763779528
0
LINE
8
BLACK
6
CONTINUOUS
10
6.3480550787401571
20
-5.0139489763779528
11
6.3480235826771656
21
-5.0141079921259841
0
LINE
8
BLACK
6
CONTINUOUS
10
6.3480235826771656
20
-5.0141079921259841
11
6.3480856692913381
21
-5.0142578346456688
0
LINE
8
BLACK
6
CONTINUOUS
10
6.3480856692913381
20
-5.0142578346456688
11
6.3480856692913381
21
-5.0323680708661414
0
LINE
8
BLACK
6
CONTINUOUS
10
6.3480856692913381
20
-5.0323680708661414
11
6.3521351574803147
21
-5.0323680708661414
0
LINE
8
BLACK
6
CONTINUOUS
10
6.3521351574803147
20
-5.0323680708661414
11
6.3532487007874012
21
-5.0328293307086609
0
LINE
8
BLACK
6
CONTINUOUS
10
6.3532487007874012
20
-5.0328293307086609
11
6.3537099606299208
21
-5.0339428740157484
0
LINE
8
BLACK
6
CONTINUOUS
10
6.3537099606299208
20
-5.0339428740157484
11
6.3532487007874012
21
-5.0350564173228349
0
LINE
8
BLACK
6
CONTINUOUS
10
6.3532487007874012
20
-5.0350564173228349
11
6.3521351574803147
21
-5.0355176771653545
0
LINE
8
BLACK
6
CONTINUOUS
10
6.3521351574803147
20
-5.0355176771653545
11
6.346510866141732
21
-5.0355176771653545
0
LINE
8
BLACK
6
CONTINUOUS
10
6.346510866141732
20
-5.0355176771653545
11
6.3408865748031493
21
-5.0355176771653545
0
LINE
8
BLACK
6
CONTINUOUS
10
6.3408865748031493
20
-5.0355176771653545
11
6.3397730314960627
21
-5.0350564173228349
0
LINE
8
BLACK
6
CONTINUOUS
10
6.3397730314960627
20
-5.0350564173228349
11
6.3393117716535432
21
-5.0339428740157484
0
LINE
8
BLACK
6
CONTINUOUS
10
6.3393117716535432
20
-5.0339428740157484
11
6.3397730314960627
21
-5.0328293307086609
0
LINE
8
BLACK
6
CONTINUOUS
10
6.3397730314960627
20
-5.0328293307086609
11
6.3408865748031493
21
-5.0323680708661414
0
LINE
8
BLACK
6
CONTINUOUS
10
6.3408865748031493
20
-5.0323680708661414
11
6.3449360629921259
21
-5.0323680708661414
0
LINE
8
BLACK
6
CONTINUOUS
10
6.3449360629921259
20
-5.0323680708661414
11
6.3449360629921259
21
-5.0189971259842521
0
LINE
8
BLACK
6
CONTINUOUS
10
6.3449360629921259
20
-5.0189971259842521
11
6.3438748818897635
21
-5.0200583070866145
0
LINE
8
BLACK
6
CONTINUOUS
10
6.3438748818897635
20
-5.0200583070866145
11
6.3436353937007874
21
-5.0201574803149605
0
LINE
8
BLACK
6
CONTINUOUS
10
6.3436353937007874
20
-5.0201574803149605
11
6.3434655905511805
21
-5.020353307086614
0
LINE
8
BLACK
6
CONTINUOUS
10
6.3434655905511805
20
-5.020353307086614
11
6.341590826771653
21
-5.0212906692913384
0
LINE
8
BLACK
6
CONTINUOUS
10
6.341590826771653
20
-5.0212906692913384
11
6.3403885826771651
21
-5.021376102362205
0
LINE
8
BLACK
6
CONTINUOUS
10
6.3403885826771651
20
-5.021376102362205
11
6.3394780314960633
21
-5.020586377952756
0
LINE
8
BLACK
6
CONTINUOUS
10
6.3394780314960633
20
-5.020586377952756
11
6.3393925984251966
21
-5.0193841338582672
0
LINE
8
BLACK
6
CONTINUOUS
10
6.3393925984251966
20
-5.0193841338582672
11
6.3401823228346457
21
-5.0184735826771654
0
LINE
8
BLACK
6
CONTINUOUS
10
6.3401823228346457
20
-5.0184735826771654
11
6.3418285039370081
21
-5.0176504724409448
0
LINE
8
BLACK
6
CONTINUOUS
10
6.3418285039370081
20
-5.0176504724409448
11
6.3434122834645672
21
-5.0160666535433069
0
LINE
8
BLACK
6
CONTINUOUS
10
6.3434122834645672
20
-5.0160666535433069
11
6.3452005511811018
21
-5.0133842913385829
0
LINE
8
BLACK
6
CONTINUOUS
10
6.3452005511811018
20
-5.0133842913385829
11
6.3453352755905508
21
-5.0132940551181102
0
LINE
8
BLACK
6
CONTINUOUS
10
6.3453352755905508
20
-5.0132940551181102
11
6.3453973228346454
21
-5.0131442913385822
0
LINE
8
BLACK
6
CONTINUOUS
10
6.3453973228346454
20
-5.0131442913385822
11
6.3458209448818899
21
-5.0129687795275588
0
LINE
8
BLACK
6
CONTINUOUS
10
6.3458209448818899
20
-5.0129687795275588
11
6.346202007874016
21
-5.0127136220472437
0
LINE
8
BLACK
6
CONTINUOUS
10
6.346202007874016
20
-5.0127136220472437
11
6.3463610236220473
21
-5.0127450787401573
0
LINE
8
BLACK
6
CONTINUOUS
10
6.3463610236220473
20
-5.0127450787401573
11
6.346510866141732
21
-5.0126830314960626
0
LINE
8
BLACK
6
CONTINUOUS
10
6.346510866141732
20
-5.0126830314960626
11
6.3469345275590552
21
-5.0128585039370082
0
LINE
8
BLACK
6
CONTINUOUS
10
6.3685393700787403
20
-5.0053149606299208
11
6.369931299212598
21
-5.0058915354330704
0
LINE
8
BLACK
6
CONTINUOUS
10
6.369931299212598
20
-5.0058915354330704
11
6.3705078740157477
21
-5.0072834645669291
0
LINE
8
BLACK
6
CONTINUOUS
10
6.3705078740157477
20
-5.0072834645669291
11
6.3705078740157477
21
-5.0427165354330707
0
LINE
8
BLACK
6
CONTINUOUS
10
6.3705078740157477
20
-5.0427165354330707
11
6.369931299212598
21
-5.0441084645669294
0
LINE
8
BLACK
6
CONTINUOUS
10
6.369931299212598
20
-5.0441084645669294
11
6.3685393700787403
21
-5.0446850393700791
0
LINE
8
BLACK
6
CONTINUOUS
10
6.3685393700787403
20
-5.0446850393700791
11
6.2897992125984254
21
-5.0446850393700791
0
LINE
8
BLACK
6
CONTINUOUS
10
6.2897992125984254
20
-5.0446850393700791
11
6.2884072834645668
21
-5.0441084645669294
0
LINE
8
BLACK
6
CONTINUOUS
10
6.2884072834645668
20
-5.0441084645669294
11
6.2878307086614171
21
-5.0427165354330707
0
LINE
8
BLACK
6
CONTINUOUS
10
6.2878307086614171
20
-5.0427165354330707
11
6.2878307086614171
21
-5.0072834645669291
0
LINE
8
BLACK
6
CONTINUOUS
10
6.2878307086614171
20
-5.0072834645669291
11
6.2884072834645668
21
-5.0058915354330704
0
LINE
8
BLACK
6
CONTINUOUS
10
6.2884072834645668
20
-5.0058915354330704
11
6.2897992125984254
21
-5.0053149606299208
0
LINE
8
BLACK
6
CONTINUOUS
10
6.2897992125984254
20
-5.0053149606299208
11
6.3685393700787403
21
-5.0053149606299208
0
LINE
8
BLACK
6
CONTINUOUS
10
6.2917677165354329
20
-5.0092519685039365
11
6.2917677165354329
21
-5.0407480314960633
0
LINE
8
BLACK
6
CONTINUOUS
10
6.2917677165354329
20
-5.0407480314960633
11
6.366570866141732
21
-5.0407480314960633
0
LINE
8
BLACK
6
CONTINUOUS
10
6.366570866141732
20
-5.0407480314960633
11
6.366570866141732
21
-5.0092519685039365
0
LINE
8
BLACK
6
CONTINUOUS
10
6.366570866141732
20
-5.0092519685039365
11
6.2917677165354329
21
-5.0092519685039365
0
LINE
8
BLACK
6
CONTINUOUS
10
5.3510648425196852
20
-4.425105866141732
11
5.4510648425196848
21
-4.425105866141732
0
LINE
8
BLACK
6
CONTINUOUS
10
5.4510648425196848
20
-4.425105866141732
11
5.4514483464566927
21
-4.4251734645669289
0
LINE
8
BLACK
6
CONTINUOUS
10
5.4514483464566927
20
-4.4251734645669289
11
5.4515775984251968
21
-4.425150708661417
0
LINE
8
BLACK
6
CONTINUOUS
10
5.4515775984251968
20
-4.425150708661417
11
5.4516911811023618
21
-4.4252162992125985
0
LINE
8
BLACK
6
CONTINUOUS
10
5.4516911811023618
20
-4.4252162992125985
11
5.4520747637795273
21
-4.4252839370078743
0
LINE
8
BLACK
6
CONTINUOUS
10
5.4520747637795273
20
-4.4252839370078743
11
5.4526624409448816
21
-4.425777047244094
0
LINE
8
BLACK
6
CONTINUOUS
10
5.4526624409448816
20
-4.425777047244094
11
5.4533267716535434
21
-4.4261606299212595
0
LINE
8
BLACK
6
CONTINUOUS
10
5.4533267716535434
20
-4.4261606299212595
11
5.4534178740157477
21
-4.4264109448818898
0
LINE
8
BLACK
6
CONTINUOUS
10
5.4534178740157477
20
-4.4264109448818898
11
5.4536220078740154
21
-4.4265822440944884
0
LINE
8
BLACK
6
CONTINUOUS
10
5.4536220078740154
20
-4.4265822440944884
11
5.4537552362204726
21
-4.4273377952755908
0
LINE
8
BLACK
6
CONTINUOUS
10
5.4537552362204726
20
-4.4273377952755908
11
5.4540175984251968
21
-4.428058622047244
0
LINE
8
BLACK
6
CONTINUOUS
10
5.4540175984251968
20
-4.428058622047244
11
5.4540175984251968
21
-4.6280586220472442
0
LINE
8
BLACK
6
CONTINUOUS
10
5.4540175984251968
20
-4.6280586220472442
11
5.4539499606299211
21
-4.6284421259842521
0
LINE
8
BLACK
6
CONTINUOUS
10
5.4539499606299211
20
-4.6284421259842521
11
5.4539727559055118
21
-4.6285713779527562
0
LINE
8
BLACK
6
CONTINUOUS
10
5.4539727559055118
20
-4.6285713779527562
11
5.4539071259842515
21
-4.6286849606299212
0
LINE
8
BLACK
6
CONTINUOUS
10
5.4539071259842515
20
-4.6286849606299212
11
5.4538395275590554
21
-4.6290685433070866
0
LINE
8
BLACK
6
CONTINUOUS
10
5.4538395275590554
20
-4.6290685433070866
11
5.453346377952756
21
-4.629656220472441
0
LINE
8
BLACK
6
CONTINUOUS
10
5.453346377952756
20
-4.629656220472441
11
5.4529628346456693
21
-4.6303205511811019
0
LINE
8
BLACK
6
CONTINUOUS
10
5.4529628346456693
20
-4.6303205511811019
11
5.4527124803149603
21
-4.6304116535433071
0
LINE
8
BLACK
6
CONTINUOUS
10
5.4527124803149603
20
-4.6304116535433071
11
5.4525412204724404
21
-4.6306157874015748
0
LINE
8
BLACK
6
CONTINUOUS
10
5.4525412204724404
20
-4.6306157874015748
11
5.4517856299212601
21
-4.6307490157480311
0
LINE
8
BLACK
6
CONTINUOUS
10
5.4517856299212601
20
-4.6307490157480311
11
5.4510648425196848
21
-4.6310113779527562
0
LINE
8
BLACK
6
CONTINUOUS
10
5.4510648425196848
20
-4.6310113779527562
11
5.3510648425196852
21
-4.6310113779527562
0
LINE
8
BLACK
6
CONTINUOUS
10
5.3510648425196852
20
-4.6310113779527562
11
5.2510648425196846
21
-4.6310113779527562
0
LINE
8
BLACK
6
CONTINUOUS
10
5.2510648425196846
20
-4.6310113779527562
11
5.250681299212598
21
-4.6309437401574804
0
LINE
8
BLACK
6
CONTINUOUS
10
5.250681299212598
20
-4.6309437401574804
11
5.2505520866141735
21
-4.6309665354330711
0
LINE
8
BLACK
6
CONTINUOUS
10
5.2505520866141735
20
-4.6309665354330711
11
5.2504384645669289
21
-4.6309009055118109
0
LINE
8
BLACK
6
CONTINUOUS
10
5.2504384645669289
20
-4.6309009055118109
11
5.2500549212598422
21
-4.6308333070866139
0
LINE
8
BLACK
6
CONTINUOUS
10
5.2500549212598422
20
-4.6308333070866139
11
5.2494672047244091
21
-4.6303401574803145
0
LINE
8
BLACK
6
CONTINUOUS
10
5.2494672047244091
20
-4.6303401574803145
11
5.2488029133858269
21
-4.6299566141732287
0
LINE
8
BLACK
6
CONTINUOUS
10
5.2488029133858269
20
-4.6299566141732287
11
5.248711771653543
21
-4.6297062598425196
0
LINE
8
BLACK
6
CONTINUOUS
10
5.248711771653543
20
-4.6297062598425196
11
5.248507677165354
21
-4.6295349999999997
0
LINE
8
BLACK
6
CONTINUOUS
10
5.248507677165354
20
-4.6295349999999997
11
5.2483744094488189
21
-4.6287794094488186
0
LINE
8
BLACK
6
CONTINUOUS
10
5.2483744094488189
20
-4.6287794094488186
11
5.2481120866141735
21
-4.6280586220472442
0
LINE
8
BLACK
6
CONTINUOUS
10
5.2481120866141735
20
-4.6280586220472442
11
5.2481120866141735
21
-4.428058622047244
0
LINE
8
BLACK
6
CONTINUOUS
10
5.2481120866141735
20
-4.428058622047244
11
5.2481796850393696
21
-4.4276750787401573
0
LINE
8
BLACK
6
CONTINUOUS
10
5.2481796850393696
20
-4.4276750787401573
11
5.2481569291338586
21
-4.427545866141732
0
LINE
8
BLACK
6
CONTINUOUS
10
5.2481569291338586
20
-4.427545866141732
11
5.2482225196850392
21
-4.4274322440944882
0
LINE
8
BLACK
6
CONTINUOUS
10
5.2482225196850392
20
-4.4274322440944882
11
5.2482901574803149
21
-4.4270487007874015
0
LINE
8
BLACK
6
CONTINUOUS
10
5.2482901574803149
20
-4.4270487007874015
11
5.2487832677165356
21
-4.4264609842519684
0
LINE
8
BLACK
6
CONTINUOUS
10
5.2487832677165356
20
-4.4264609842519684
11
5.249166850393701
21
-4.4257966929133854
0
LINE
8
BLACK
6
CONTINUOUS
10
5.249166850393701
20
-4.4257966929133854
11
5.2494171653543305
21
-4.4257055511811023
0
LINE
8
BLACK
6
CONTINUOUS
10
5.2494171653543305
20
-4.4257055511811023
11
5.2495884645669291
21
-4.4255014566929134
0
LINE
8
BLACK
6
CONTINUOUS
10
5.2495884645669291
20
-4.4255014566929134
11
5.2503440157480314
21
-4.4253681889763783
0
LINE
8
BLACK
6
CONTINUOUS
10
5.2503440157480314
20
-4.4253681889763783
11
5.2510648425196846
21
-4.425105866141732
0
LINE
8
BLACK
6
CONTINUOUS
10
5.2510648425196846
20
-4.425105866141732
11
5.3510648425196852
21
-4.425105866141732
0
LINE
8
BLACK
6
CONTINUOUS
10
5.3540175984251963
20
-4.431011377952756
11
5.3540175984251963
21
-4.6251058661417321
0
LINE
8
BLACK
6
CONTINUOUS
10
5.3540175984251963
20
-4.6251058661417321
11
5.4481120866141728
21
-4.6251058661417321
0
LINE
8
BLACK
6
CONTINUOUS
10
5.4481120866141728
20
-4.6251058661417321
11
5.4481120866141728
21
-4.431011377952756
0
LINE
8
BLACK
6
CONTINUOUS
10
5.4481120866141728
20
-4.431011377952756
11
5.3540175984251963
21
-4.431011377952756
0
LINE
8
BLACK
6
CONTINUOUS
10
5.2540175984251967
20
-4.431011377952756
11
5.2540175984251967
21
-4.6251058661417321
0
LINE
8
BLACK
6
CONTINUOUS
10
5.2540175984251967
20
-4.6251058661417321
11
5.3481120866141731
21
-4.6251058661417321
0
LINE
8
BLACK
6
CONTINUOUS
10
5.3481120866141731
20
-4.6251058661417321
11
5.3481120866141731
21
-4.431011377952756
0
LINE
8
BLACK
6
CONTINUOUS
10
5.3481120866141731
20
-4.431011377952756
11
5.2540175984251967
21
-4.431011377952756
0
LINE
8
BLACK
6
CONTINUOUS
10
5.7514483464566926
20
-4.4251734645669289
11
5.7515775984251967
21
-4.425150708661417
0
LINE
8
BLACK
6
CONTINUOUS
10
5.7515775984251967
20
-4.425150708661417
11
5.7516911811023617
21
-4.4252162992125985
0
LINE
8
BLACK
6
CONTINUOUS
10
5.7516911811023617
20
-4.4252162992125985
11
5.7520747637795271
21
-4.4252839370078743
0
LINE
8
BLACK
6
CONTINUOUS
10
5.7520747637795271
20
-4.4252839370078743
11
5.7526624409448814
21
-4.425777047244094
0
LINE
8
BLACK
6
CONTINUOUS
10
5.7526624409448814
20
-4.425777047244094
11
5.7533267716535432
21
-4.4261606299212595
0
LINE
8
BLACK
6
CONTINUOUS
10
5.7533267716535432
20
-4.4261606299212595
11
5.7534178740157476
21
-4.4264109448818898
0
LINE
8
BLACK
6
CONTINUOUS
10
5.7534178740157476
20
-4.4264109448818898
11
5.7536220078740152
21
-4.4265822440944884
0
LINE
8
BLACK
6
CONTINUOUS
10
5.7536220078740152
20
-4.4265822440944884
11
5.7537552362204725
21
-4.4273377952755908
0
LINE
8
BLACK
6
CONTINUOUS
10
5.7537552362204725
20
-4.4273377952755908
11
5.7540175984251967
21
-4.428058622047244
0
LINE
8
BLACK
6
CONTINUOUS
10
5.7540175984251967
20
-4.428058622047244
11
5.7540175984251967
21
-4.6280586220472442
0
LINE
8
BLACK
6
CONTINUOUS
10
5.7540175984251967
20
-4.6280586220472442
11
5.7539499606299209
21
-4.6284421259842521
0
LINE
8
BLACK
6
CONTINUOUS
10
5.7539499606299209
20
-4.6284421259842521
11
5.7539727559055116
21
-4.6285713779527562
0
LINE
8
BLACK
6
CONTINUOUS
10
5.7539727559055116
20
-4.6285713779527562
11
5.7539071259842522
21
-4.6286849606299212
0
LINE
8
BLACK
6
CONTINUOUS
10
5.7539071259842522
20
-4.6286849606299212
11
5.7538395275590553
21
-4.6290685433070866
0
LINE
8
BLACK
6
CONTINUOUS
10
5.7538395275590553
20
-4.6290685433070866
11
5.7533463779527558
21
-4.629656220472441
0
LINE
8
BLACK
6
CONTINUOUS
10
5.7533463779527558
20
-4.629656220472441
11
5.7529628346456692
21
-4.6303205511811019
0
LINE
8
BLACK
6
CONTINUOUS
10
5.7529628346456692
20
-4.6303205511811019
11
5.7527124803149601
21
-4.6304116535433071
0
LINE
8
BLACK
6
CONTINUOUS
10
5.7527124803149601
20
-4.6304116535433071
11
5.7525412204724411
21
-4.6306157874015748
0
LINE
8
BLACK
6
CONTINUOUS
10
5.7525412204724411
20
-4.6306157874015748
11
5.75178562992126
21
-4.6307490157480311
0
LINE
8
BLACK
6
CONTINUOUS
10
5.75178562992126
20
-4.6307490157480311
11
5.7510648425196846
21
-4.6310113779527562
0
LINE
8
BLACK
6
CONTINUOUS
10
5.7510648425196846
20
-4.6310113779527562
11
5.651064842519685
21
-4.6310113779527562
0
LINE
8
BLACK
6
CONTINUOUS
10
5.651064842519685
20
-4.6310113779527562
11
5.6506812992125983
21
-4.6309437401574804
0
LINE
8
BLACK
6
CONTINUOUS
10
5.6506812992125983
20
-4.6309437401574804
11
5.650552086614173
21
-4.6309665354330711
0
LINE
8
BLACK
6
CONTINUOUS
10
5.650552086614173
20
-4.6309665354330711
11
5.6504384645669292
21
-4.6309009055118109
0
LINE
8
BLACK
6
CONTINUOUS
10
5.6504384645669292
20
-4.6309009055118109
11
5.6500549212598425
21
-4.6308333070866139
0
LINE
8
BLACK
6
CONTINUOUS
10
5.6500549212598425
20
-4.6308333070866139
11
5.6494672047244094
21
-4.6303401574803145
0
LINE
8
BLACK
6
CONTINUOUS
10
5.6494672047244094
20
-4.6303401574803145
11
5.6488029133858264
21
-4.6299566141732287
0
LINE
8
BLACK
6
CONTINUOUS
10
5.6488029133858264
20
-4.6299566141732287
11
5.6487117716535433
21
-4.6297062598425196
0
LINE
8
BLACK
6
CONTINUOUS
10
5.6487117716535433
20
-4.6297062598425196
11
5.6485076771653544
21
-4.6295349999999997
0
LINE
8
BLACK
6
CONTINUOUS
10
5.6485076771653544
20
-4.6295349999999997
11
5.6483744094488184
21
-4.6287794094488186
0
LINE
8
BLACK
6
CONTINUOUS
10
5.6483744094488184
20
-4.6287794094488186
11
5.648112086614173
21
-4.6280586220472442
0
LINE
8
BLACK
6
CONTINUOUS
10
5.648112086614173
20
-4.6280586220472442
11
5.648112086614173
21
-4.428058622047244
0
LINE
8
BLACK
6
CONTINUOUS
10
5.648112086614173
20
-4.428058622047244
11
5.64817968503937
21
-4.4276750787401573
0
LINE
8
BLACK
6
CONTINUOUS
10
5.64817968503937
20
-4.4276750787401573
11
5.648156929133858
21
-4.427545866141732
0
LINE
8
BLACK
6
CONTINUOUS
10
5.648156929133858
20
-4.427545866141732
11
5.6482225196850395
21
-4.4274322440944882
0
LINE
8
BLACK
6
CONTINUOUS
10
5.6482225196850395
20
-4.4274322440944882
11
5.6482901574803153
21
-4.4270487007874015
0
LINE
8
BLACK
6
CONTINUOUS
10
5.6482901574803153
20
-4.4270487007874015
11
5.6487832677165351
21
-4.4264609842519684
0
LINE
8
BLACK
6
CONTINUOUS
10
5.6487832677165351
20
-4.4264609842519684
11
5.6491668503937005
21
-4.4257966929133854
0
LINE
8
BLACK
6
CONTINUOUS
10
5.6491668503937005
20
-4.4257966929133854
11
5.6494171653543308
21
-4.4257055511811023
0
LINE
8
BLACK
6
CONTINUOUS
10
5.6494171653543308
20
-4.4257055511811023
11
5.6495884645669294
21
-4.4255014566929134
0
LINE
8
BLACK
6
CONTINUOUS
10
5.6495884645669294
20
-4.4255014566929134
11
5.6503440157480318
21
-4.4253681889763783
0
LINE
8
BLACK
6
CONTINUOUS
10
5.6503440157480318
20
-4.4253681889763783
11
5.651064842519685
21
-4.425105866141732
0
LINE
8
BLACK
6
CONTINUOUS
10
5.651064842519685
20
-4.425105866141732
11
5.7510648425196846
21
-4.425105866141732
0
LINE
8
BLACK
6
CONTINUOUS
10
5.7510648425196846
20
-4.425105866141732
11
5.7514483464566926
21
-4.4251734645669289
0
LINE
8
BLACK
6
CONTINUOUS
10
5.654017598425197
20
-4.431011377952756
11
5.654017598425197
21
-4.6251058661417321
0
LINE
8
BLACK
6
CONTINUOUS
10
5.654017598425197
20
-4.6251058661417321
11
5.7481120866141735
21
-4.6251058661417321
0
LINE
8
BLACK
6
CONTINUOUS
10
5.7481120866141735
20
-4.6251058661417321
11
5.7481120866141735
21
-4.431011377952756
0
LINE
8
BLACK
6
CONTINUOUS
10
5.7481120866141735
20
-4.431011377952756
11
5.654017598425197
21
-4.431011377952756
0
LINE
8
BLACK
6
CONTINUOUS
10
5.9510648425196848
20
-4.425105866141732
11
6.0510648425196845
21
-4.425105866141732
0
LINE
8
BLACK
6
CONTINUOUS
10
6.0510648425196845
20
-4.425105866141732
11
6.151064842519685
21
-4.425105866141732
0
LINE
8
BLACK
6
CONTINUOUS
10
6.151064842519685
20
-4.425105866141732
11
6.2510648425196846
21
-4.425105866141732
0
LINE
8
BLACK
6
CONTINUOUS
10
6.2510648425196846
20
-4.425105866141732
11
6.2514483464566926
21
-4.4251734645669289
0
LINE
8
BLACK
6
CONTINUOUS
10
6.2514483464566926
20
-4.4251734645669289
11
6.2515775984251967
21
-4.425150708661417
0
LINE
8
BLACK
6
CONTINUOUS
10
6.2515775984251967
20
-4.425150708661417
11
6.2516911811023617
21
-4.4252162992125985
0
LINE
8
BLACK
6
CONTINUOUS
10
6.2516911811023617
20
-4.4252162992125985
11
6.2520747637795271
21
-4.4252839370078743
0
LINE
8
BLACK
6
CONTINUOUS
10
6.2520747637795271
20
-4.4252839370078743
11
6.2526624409448814
21
-4.425777047244094
0
LINE
8
BLACK
6
CONTINUOUS
10
6.2526624409448814
20
-4.425777047244094
11
6.2533267716535432
21
-4.4261606299212595
0
LINE
8
BLACK
6
CONTINUOUS
10
6.2533267716535432
20
-4.4261606299212595
11
6.2534178740157476
21
-4.4264109448818898
0
LINE
8
BLACK
6
CONTINUOUS
10
6.2534178740157476
20
-4.4264109448818898
11
6.2536220078740152
21
-4.4265822440944884
0
LINE
8
BLACK
6
CONTINUOUS
10
6.2536220078740152
20
-4.4265822440944884
11
6.2537552362204725
21
-4.4273377952755908
0
LINE
8
BLACK
6
CONTINUOUS
10
6.2537552362204725
20
-4.4273377952755908
11
6.2540175984251967
21
-4.428058622047244
0
LINE
8
BLACK
6
CONTINUOUS
10
6.2540175984251967
20
-4.428058622047244
11
6.2540175984251967
21
-4.6280586220472442
0
LINE
8
BLACK
6
CONTINUOUS
10
6.2540175984251967
20
-4.6280586220472442
11
6.2539499606299209
21
-4.6284421259842521
0
LINE
8
BLACK
6
CONTINUOUS
10
6.2539499606299209
20
-4.6284421259842521
11
6.2539727559055116
21
-4.6285713779527562
0
LINE
8
BLACK
6
CONTINUOUS
10
6.2539727559055116
20
-4.6285713779527562
11
6.2539071259842522
21
-4.6286849606299212
0
LINE
8
BLACK
6
CONTINUOUS
10
6.2539071259842522
20
-4.6286849606299212
11
6.2538395275590553
21
-4.6290685433070866
0
LINE
8
BLACK
6
CONTINUOUS
10
6.2538395275590553
20
-4.6290685433070866
11
6.2533463779527558
21
-4.629656220472441
0
LINE
8
BLACK
6
CONTINUOUS
10
6.2533463779527558
20
-4.629656220472441
11
6.2529628346456692
21
-4.6303205511811019
0
LINE
8
BLACK
6
CONTINUOUS
10
6.2529628346456692
20
-4.6303205511811019
11
6.2527124803149601
21
-4.6304116535433071
0
LINE
8
BLACK
6
CONTINUOUS
10
6.2527124803149601
20
-4.6304116535433071
11
6.2525412204724411
21
-4.6306157874015748
0
LINE
8
BLACK
6
CONTINUOUS
10
6.2525412204724411
20
-4.6306157874015748
11
6.25178562992126
21
-4.6307490157480311
0
LINE
8
BLACK
6
CONTINUOUS
10
6.25178562992126
20
-4.6307490157480311
11
6.2510648425196846
21
-4.6310113779527562
0
LINE
8
BLACK
6
CONTINUOUS
10
6.2510648425196846
20
-4.6310113779527562
11
6.151064842519685
21
-4.6310113779527562
0
LINE
8
BLACK
6
CONTINUOUS
10
6.151064842519685
20
-4.6310113779527562
11
6.0510648425196845
21
-4.6310113779527562
0
LINE
8
BLACK
6
CONTINUOUS
10
6.0510648425196845
20
-4.6310113779527562
11
5.9510648425196848
21
-4.6310113779527562
0
LINE
8
BLACK
6
CONTINUOUS
10
5.9510648425196848
20
-4.6310113779527562
11
5.8510648425196852
21
-4.6310113779527562
0
LINE
8
BLACK
6
CONTINUOUS
10
5.8510648425196852
20
-4.6310113779527562
11
5.8506812992125985
21
-4.6309437401574804
0
LINE
8
BLACK
6
CONTINUOUS
10
5.8506812992125985
20
-4.6309437401574804
11
5.8505520866141731
21
-4.6309665354330711
0
LINE
8
BLACK
6
CONTINUOUS
10
5.8505520866141731
20
-4.6309665354330711
11
5.8504384645669294
21
-4.6309009055118109
0
LINE
8
BLACK
6
CONTINUOUS
10
5.8504384645669294
20
-4.6309009055118109
11
5.8500549212598427
21
-4.6308333070866139
0
LINE
8
BLACK
6
CONTINUOUS
10
5.8500549212598427
20
-4.6308333070866139
11
5.8494672047244096
21
-4.6303401574803145
0
LINE
8
BLACK
6
CONTINUOUS
10
5.8494672047244096
20
-4.6303401574803145
11
5.8488029133858266
21
-4.6299566141732287
0
LINE
8
BLACK
6
CONTINUOUS
10
5.8488029133858266
20
-4.6299566141732287
11
5.8487117716535435
21
-4.6297062598425196
0
LINE
8
BLACK
6
CONTINUOUS
10
5.8487117716535435
20
-4.6297062598425196
11
5.8485076771653546
21
-4.6295349999999997
0
LINE
8
BLACK
6
CONTINUOUS
10
5.8485076771653546
20
-4.6295349999999997
11
5.8483744094488186
21
-4.6287794094488186
0
LINE
8
BLACK
6
CONTINUOUS
10
5.8483744094488186
20
-4.6287794094488186
11
5.8481120866141731
21
-4.6280586220472442
0
LINE
8
BLACK
6
CONTINUOUS
10
5.8481120866141731
20
-4.6280586220472442
11
5.8481120866141731
21
-4.428058622047244
0
LINE
8
BLACK
6
CONTINUOUS
10
5.8481120866141731
20
-4.428058622047244
11
5.8481796850393701
21
-4.4276750787401573
0
LINE
8
BLACK
6
CONTINUOUS
10
5.8481796850393701
20
-4.4276750787401573
11
5.8481569291338582
21
-4.427545866141732
0
LINE
8
BLACK
6
CONTINUOUS
10
5.8481569291338582
20
-4.427545866141732
11
5.8482225196850388
21
-4.4274322440944882
0
LINE
8
BLACK
6
CONTINUOUS
10
5.8482225196850388
20
-4.4274322440944882
11
5.8482901574803146
21
-4.4270487007874015
0
LINE
8
BLACK
6
CONTINUOUS
10
5.8482901574803146
20
-4.4270487007874015
11
5.8487832677165352
21
-4.4264609842519684
0
LINE
8
BLACK
6
CONTINUOUS
10
5.8487832677165352
20
-4.4264609842519684
11
5.8491668503937007
21
-4.4257966929133854
0
LINE
8
BLACK
6
CONTINUOUS
10
5.8491668503937007
20
-4.4257966929133854
11
5.849417165354331
21
-4.4257055511811023
0
LINE
8
BLACK
6
CONTINUOUS
10
5.849417165354331
20
-4.4257055511811023
11
5.8495884645669287
21
-4.4255014566929134
0
LINE
8
BLACK
6
CONTINUOUS
10
5.8495884645669287
20
-4.4255014566929134
11
5.8503440157480311
21
-4.4253681889763783
0
LINE
8
BLACK
6
CONTINUOUS
10
5.8503440157480311
20
-4.4253681889763783
11
5.8510648425196852
21
-4.425105866141732
0
LINE
8
BLACK
6
CONTINUOUS
10
5.8510648425196852
20
-4.425105866141732
11
5.9510648425196848
21
-4.425105866141732
0
LINE
8
BLACK
6
CONTINUOUS
10
6.154017598425197
20
-4.431011377952756
11
6.154017598425197
21
-4.6251058661417321
0
LINE
8
BLACK
6
CONTINUOUS
10
6.154017598425197
20
-4.6251058661417321
11
6.2481120866141735
21
-4.6251058661417321
0
LINE
8
BLACK
6
CONTINUOUS
10
6.2481120866141735
20
-4.6251058661417321
11
6.2481120866141735
21
-4.431011377952756
0
LINE
8
BLACK
6
CONTINUOUS
10
6.2481120866141735
20
-4.431011377952756
11
6.154017598425197
21
-4.431011377952756
0
LINE
8
BLACK
6
CONTINUOUS
10
6.0540175984251965
20
-4.431011377952756
11
6.0540175984251965
21
-4.6251058661417321
0
LINE
8
BLACK
6
CONTINUOUS
10
6.0540175984251965
20
-4.6251058661417321
11
6.148112086614173
21
-4.6251058661417321
0
LINE
8
BLACK
6
CONTINUOUS
10
6.148112086614173
20
-4.6251058661417321
11
6.148112086614173
21
-4.431011377952756
0
LINE
8
BLACK
6
CONTINUOUS
10
6.148112086614173
20
-4.431011377952756
11
6.0540175984251965
21
-4.431011377952756
0
LINE
8
BLACK
6
CONTINUOUS
10
5.9540175984251968
20
-4.431011377952756
11
5.9540175984251968
21
-4.6251058661417321
0
LINE
8
BLACK
6
CONTINUOUS
10
5.9540175984251968
20
-4.6251058661417321
11
6.0481120866141733
21
-4.6251058661417321
0
LINE
8
BLACK
6
CONTINUOUS
10
6.0481120866141733
20
-4.6251058661417321
11
6.0481120866141733
21
-4.431011377952756
0
LINE
8
BLACK
6
CONTINUOUS
10
6.0481120866141733
20
-4.431011377952756
11
5.9540175984251968
21
-4.431011377952756
0
LINE
8
BLACK
6
CONTINUOUS
10
5.8540175984251963
20
-4.431011377952756
11
5.8540175984251963
21
-4.6251058661417321
0
LINE
8
BLACK
6
CONTINUOUS
10
5.8540175984251963
20
-4.6251058661417321
11
5.9481120866141728
21
-4.6251058661417321
0
LINE
8
BLACK
6
CONTINUOUS
10
5.9481120866141728
20
-4.6251058661417321
11
5.9481120866141728
21
-4.431011377952756
0
LINE
8
BLACK
6
CONTINUOUS
10
5.9481120866141728
20
-4.431011377952756
11
5.8540175984251963
21
-4.431011377952756
0
LINE
8
BLACK
6
CONTINUOUS
10
6.574688937007874
20
-4.5637847244094489
11
6.5897509448818896
21
-4.5788467322834645
0
LINE
8
BLACK
6
CONTINUOUS
10
6.5897509448818896
20
-4.5788467322834645
11
6.6101994488188973
21
-4.5635104330708662
0
LINE
8
BLACK
6
CONTINUOUS
10
6.6101994488188973
20
-4.5635104330708662
11
6.6111142519685036
21
-4.5630469291338578
0
LINE
8
BLACK
6
CONTINUOUS
10
6.6111142519685036
20
-4.5630469291338578
11
6.6131310236220475
21
-4.5631572440944881
0
LINE
8
BLACK
6
CONTINUOUS
10
6.6131310236220475
20
-4.5631572440944881
11
6.6146050787401576
21
-4.5645381102362208
0
LINE
8
BLACK
6
CONTINUOUS
10
6.6146050787401576
20
-4.5645381102362208
11
6.6148466535433066
21
-4.5665433858267717
0
LINE
8
BLACK
6
CONTINUOUS
10
6.6148466535433066
20
-4.5665433858267717
11
6.6137427559055117
21
-4.5682348425196846
0
LINE
8
BLACK
6
CONTINUOUS
10
6.6137427559055117
20
-4.5682348425196846
11
6.5939691732283467
21
-4.5830649606299207
0
LINE
8
BLACK
6
CONTINUOUS
10
6.5939691732283467
20
-4.5830649606299207
11
6.5963212598425196
21
-4.5854170472440945
0
LINE
8
BLACK
6
CONTINUOUS
10
6.5963212598425196
20
-4.5854170472440945
11
6.6119711023622045
21
-4.5854170472440945
0
LINE
8
BLACK
6
CONTINUOUS
10
6.6119711023622045
20
-4.5854170472440945
11
6.612981023622047
21
-4.5855951181102359
0
LINE
8
BLACK
6
CONTINUOUS
10
6.612981023622047
20
-4.5855951181102359
11
6.6145282677165351
21
-4.5868934251968501
0
LINE
8
BLACK
6
CONTINUOUS
10
6.6145282677165351
20
-4.5868934251968501
11
6.6148790157480315
21
-4.5888825590551177
0
LINE
8
BLACK
6
CONTINUOUS
10
6.6148790157480315
20
-4.5888825590551177
11
6.613869094488189
21
-4.5906317322834642
0
LINE
8
BLACK
6
CONTINUOUS
10
6.613869094488189
20
-4.5906317322834642
11
6.6119711023622045
21
-4.5913225590551177
0
LINE
8
BLACK
6
CONTINUOUS
10
6.6119711023622045
20
-4.5913225590551177
11
6.5726010236220471
21
-4.5913225590551177
0
LINE
8
BLACK
6
CONTINUOUS
10
6.5726010236220471
20
-4.5913225590551177
11
6.5715911023622047
21
-4.5911444881889762
0
LINE
8
BLACK
6
CONTINUOUS
10
6.5715911023622047
20
-4.5911444881889762
11
6.5700438582677165
21
-4.5898461811023621
0
LINE
8
BLACK
6
CONTINUOUS
10
6.5700438582677165
20
-4.5898461811023621
11
6.5696931102362202
21
-4.5878570472440945
0
LINE
8
BLACK
6
CONTINUOUS
10
6.5696931102362202
20
-4.5878570472440945
11
6.5707030314960626
21
-4.5861078740157479
0
LINE
8
BLACK
6
CONTINUOUS
10
6.5707030314960626
20
-4.5861078740157479
11
6.5726010236220471
21
-4.5854170472440945
0
LINE
8
BLACK
6
CONTINUOUS
10
6.5726010236220471
20
-4.5854170472440945
11
6.5879696062992128
21
-4.5854170472440945
0
LINE
8
BLACK
6
CONTINUOUS
10
6.5879696062992128
20
-4.5854170472440945
11
6.5705131102362202
21
-4.5679605511811019
0
LINE
8
BLACK
6
CONTINUOUS
10
6.5705131102362202
20
-4.5679605511811019
11
6.5699249212598421
21
-4.5671205118110239
0
LINE
8
BLACK
6
CONTINUOUS
10
6.5699249212598421
20
-4.5671205118110239
11
6.5697488582677162
21
-4.5651084251968506
0
LINE
8
BLACK
6
CONTINUOUS
10
6.5697488582677162
20
-4.5651084251968506
11
6.5709074015748028
21
-4.5634538582677164
0
LINE
8
BLACK
6
CONTINUOUS
10
6.5709074015748028
20
-4.5634538582677164
11
6.5728583464566928
21
-4.5629311417322835
0
LINE
8
BLACK
6
CONTINUOUS
10
6.5728583464566928
20
-4.5629311417322835
11
6.574688937007874
21
-4.5637847244094489
0
LINE
8
BLACK
6
CONTINUOUS
10
6.7146889370078737
20
-4.5637847244094489
11
6.7297509448818893
21
-4.5788467322834645
0
LINE
8
BLACK
6
CONTINUOUS
10
6.7297509448818893
20
-4.5788467322834645
11
6.7501994488188979
21
-4.5635104330708662
0
LINE
8
BLACK
6
CONTINUOUS
10
6.7501994488188979
20
-4.5635104330708662
11
6.7511142519685041
21
-4.5630469291338578
0
LINE
8
BLACK
6
CONTINUOUS
10
6.7511142519685041
20
-4.5630469291338578
11
6.7531310236220472
21
-4.5631572440944881
0
LINE
8
BLACK
6
CONTINUOUS
10
6.7531310236220472
20
-4.5631572440944881
11
6.7546050787401573
21
-4.5645381102362208
0
LINE
8
BLACK
6
CONTINUOUS
10
6.7546050787401573
20
-4.5645381102362208
11
6.7548466535433072
21
-4.5665433858267717
0
LINE
8
BLACK
6
CONTINUOUS
10
6.7548466535433072
20
-4.5665433858267717
11
6.7537427559055114
21
-4.5682348425196846
0
LINE
8
BLACK
6
CONTINUOUS
10
6.7537427559055114
20
-4.5682348425196846
11
6.7339691732283464
21
-4.5830649606299207
0
LINE
8
BLACK
6
CONTINUOUS
10
6.7339691732283464
20
-4.5830649606299207
11
6.7363212598425193
21
-4.5854170472440945
0
LINE
8
BLACK
6
CONTINUOUS
10
6.7363212598425193
20
-4.5854170472440945
11
6.7519711023622042
21
-4.5854170472440945
0
LINE
8
BLACK
6
CONTINUOUS
10
6.7519711023622042
20
-4.5854170472440945
11
6.7529810236220467
21
-4.5855951181102359
0
LINE
8
BLACK
6
CONTINUOUS
10
6.7529810236220467
20
-4.5855951181102359
11
6.7545282677165357
21
-4.5868934251968501
0
LINE
8
BLACK
6
CONTINUOUS
10
6.7545282677165357
20
-4.5868934251968501
11
6.7548790157480312
21
-4.5888825590551177
0
LINE
8
BLACK
6
CONTINUOUS
10
6.7548790157480312
20
-4.5888825590551177
11
6.7538690944881887
21
-4.5906317322834642
0
LINE
8
BLACK
6
CONTINUOUS
10
6.7538690944881887
20
-4.5906317322834642
11
6.7519711023622042
21
-4.5913225590551177
0
LINE
8
BLACK
6
CONTINUOUS
10
6.7519711023622042
20
-4.5913225590551177
11
6.7126010236220468
21
-4.5913225590551177
0
LINE
8
BLACK
6
CONTINUOUS
10
6.7126010236220468
20
-4.5913225590551177
11
6.7115911023622044
21
-4.5911444881889762
0
LINE
8
BLACK
6
CONTINUOUS
10
6.7115911023622044
20
-4.5911444881889762
11
6.7100438582677162
21
-4.5898461811023621
0
LINE
8
BLACK
6
CONTINUOUS
10
6.7100438582677162
20
-4.5898461811023621
11
6.7096931102362207
21
-4.5878570472440945
0
LINE
8
BLACK
6
CONTINUOUS
10
6.7096931102362207
20
-4.5878570472440945
11
6.7107030314960632
21
-4.5861078740157479
0
LINE
8
BLACK
6
CONTINUOUS
10
6.7107030314960632
20
-4.5861078740157479
11
6.7126010236220468
21
-4.5854170472440945
0
LINE
8
BLACK
6
CONTINUOUS
10
6.7126010236220468
20
-4.5854170472440945
11
6.7279696062992125
21
-4.5854170472440945
0
LINE
8
BLACK
6
CONTINUOUS
10
6.7279696062992125
20
-4.5854170472440945
11
6.7105131102362199
21
-4.5679605511811019
0
LINE
8
BLACK
6
CONTINUOUS
10
6.7105131102362199
20
-4.5679605511811019
11
6.7099249212598426
21
-4.5671205118110239
0
LINE
8
BLACK
6
CONTINUOUS
10
6.7099249212598426
20
-4.5671205118110239
11
6.7097488582677167
21
-4.5651084251968506
0
LINE
8
BLACK
6
CONTINUOUS
10
6.7097488582677167
20
-4.5651084251968506
11
6.7109074015748034
21
-4.5634538582677164
0
LINE
8
BLACK
6
CONTINUOUS
10
6.7109074015748034
20
-4.5634538582677164
11
6.7128583464566924
21
-4.5629311417322835
0
LINE
8
BLACK
6
CONTINUOUS
10
6.7128583464566924
20
-4.5629311417322835
11
6.7146889370078737
21
-4.5637847244094489
0
LINE
8
BLACK
6
CONTINUOUS
10
5.0764483464566927
20
-4.1401734645669288
11
5.0765775984251968
21
-4.1401507086614169
0
LINE
8
BLACK
6
CONTINUOUS
10
5.0765775984251968
20
-4.1401507086614169
11
5.0766911811023618
21
-4.1402162992125984
0
LINE
8
BLACK
6
CONTINUOUS
10
5.0766911811023618
20
-4.1402162992125984
11
5.0770747637795273
21
-4.1402839370078741
0
LINE
8
BLACK
6
CONTINUOUS
10
5.0770747637795273
20
-4.1402839370078741
11
5.0776624409448816
21
-4.1407770472440948
0
LINE
8
BLACK
6
CONTINUOUS
10
5.0776624409448816
20
-4.1407770472440948
11
5.0783267716535434
21
-4.1411606299212593
0
LINE
8
BLACK
6
CONTINUOUS
10
5.0783267716535434
20
-4.1411606299212593
11
5.0784178740157477
21
-4.1414109448818897
0
LINE
8
BLACK
6
CONTINUOUS
10
5.0784178740157477
20
-4.1414109448818897
11
5.0786220078740154
21
-4.1415822440944883
0
LINE
8
BLACK
6
CONTINUOUS
10
5.0786220078740154
20
-4.1415822440944883
11
5.0787552362204726
21
-4.1423377952755907
0
LINE
8
BLACK
6
CONTINUOUS
10
5.0787552362204726
20
-4.1423377952755907
11
5.0790175984251968
21
-4.1430586220472438
0
LINE
8
BLACK
6
CONTINUOUS
10
5.0790175984251968
20
-4.1430586220472438
11
5.0790175984251968
21
-4.4430586220472437
0
LINE
8
BLACK
6
CONTINUOUS
10
5.0790175984251968
20
-4.4430586220472437
11
5.0789499606299211
21
-4.4434421259842516
0
LINE
8
BLACK
6
CONTINUOUS
10
5.0789499606299211
20
-4.4434421259842516
11
5.0789727559055118
21
-4.4435713779527557
0
LINE
8
BLACK
6
CONTINUOUS
10
5.0789727559055118
20
-4.4435713779527557
11
5.0789071259842515
21
-4.4436849606299216
0
LINE
8
BLACK
6
CONTINUOUS
10
5.0789071259842515
20
-4.4436849606299216
11
5.0788395275590554
21
-4.4440685433070861
0
LINE
8
BLACK
6
CONTINUOUS
10
5.0788395275590554
20
-4.4440685433070861
11
5.078346377952756
21
-4.4446562204724405
0
LINE
8
BLACK
6
CONTINUOUS
10
5.078346377952756
20
-4.4446562204724405
11
5.0779628346456693
21
-4.4453205511811023
0
LINE
8
BLACK
6
CONTINUOUS
10
5.0779628346456693
20
-4.4453205511811023
11
5.0777124803149603
21
-4.4454116535433066
0
LINE
8
BLACK
6
CONTINUOUS
10
5.0777124803149603
20
-4.4454116535433066
11
5.0775412204724404
21
-4.4456157874015743
0
LINE
8
BLACK
6
CONTINUOUS
10
5.0775412204724404
20
-4.4456157874015743
11
5.0767856299212601
21
-4.4457490157480315
0
LINE
8
BLACK
6
CONTINUOUS
10
5.0767856299212601
20
-4.4457490157480315
11
5.0760648425196848
21
-4.4460113779527557
0
LINE
8
BLACK
6
CONTINUOUS
10
5.0760648425196848
20
-4.4460113779527557
11
4.8760648425196846
21
-4.4460113779527557
0
LINE
8
BLACK
6
CONTINUOUS
10
4.8760648425196846
20
-4.4460113779527557
11
4.875681299212598
21
-4.44594374015748
0
LINE
8
BLACK
6
CONTINUOUS
10
4.875681299212598
20
-4.44594374015748
11
4.8755520866141735
21
-4.4459665354330706
0
LINE
8
BLACK
6
CONTINUOUS
10
4.8755520866141735
20
-4.4459665354330706
11
4.8754384645669289
21
-4.4459009055118113
0
LINE
8
BLACK
6
CONTINUOUS
10
4.8754384645669289
20
-4.4459009055118113
11
4.8750549212598422
21
-4.4458333070866143
0
LINE
8
BLACK
6
CONTINUOUS
10
4.8750549212598422
20
-4.4458333070866143
11
4.8744672047244091
21
-4.4453401574803149
0
LINE
8
BLACK
6
CONTINUOUS
10
4.8744672047244091
20
-4.4453401574803149
11
4.8738029133858269
21
-4.4449566141732282
0
LINE
8
BLACK
6
CONTINUOUS
10
4.8738029133858269
20
-4.4449566141732282
11
4.873711771653543
21
-4.44470625984252
0
LINE
8
BLACK
6
CONTINUOUS
10
4.873711771653543
20
-4.44470625984252
11
4.873507677165354
21
-4.4445350000000001
0
LINE
8
BLACK
6
CONTINUOUS
10
4.873507677165354
20
-4.4445350000000001
11
4.8733744094488189
21
-4.443779409448819
0
LINE
8
BLACK
6
CONTINUOUS
10
4.8733744094488189
20
-4.443779409448819
11
4.8731120866141735
21
-4.4430586220472437
0
LINE
8
BLACK
6
CONTINUOUS
10
4.8731120866141735
20
-4.4430586220472437
11
4.8731120866141735
21
-4.1430586220472438
0
LINE
8
BLACK
6
CONTINUOUS
10
4.8731120866141735
20
-4.1430586220472438
11
4.8731796850393696
21
-4.1426750787401572
0
LINE
8
BLACK
6
CONTINUOUS
10
4.8731796850393696
20
-4.1426750787401572
11
4.8731569291338586
21
-4.1425458661417318
0
LINE
8
BLACK
6
CONTINUOUS
10
4.8731569291338586
20
-4.1425458661417318
11
4.8732225196850392
21
-4.1424322440944881
0
LINE
8
BLACK
6
CONTINUOUS
10
4.8732225196850392
20
-4.1424322440944881
11
4.8732901574803149
21
-4.1420487007874014
0
LINE
8
BLACK
6
CONTINUOUS
10
4.8732901574803149
20
-4.1420487007874014
11
4.8737832677165356
21
-4.1414609842519683
0
LINE
8
BLACK
6
CONTINUOUS
10
4.8737832677165356
20
-4.1414609842519683
11
4.874166850393701
21
-4.1407966929133861
0
LINE
8
BLACK
6
CONTINUOUS
10
4.874166850393701
20
-4.1407966929133861
11
4.8744171653543305
21
-4.1407055511811022
0
LINE
8
BLACK
6
CONTINUOUS
10
4.8744171653543305
20
-4.1407055511811022
11
4.8745884645669291
21
-4.1405014566929133
0
LINE
8
BLACK
6
CONTINUOUS
10
4.8745884645669291
20
-4.1405014566929133
11
4.8753440157480314
21
-4.1403681889763781
0
LINE
8
BLACK
6
CONTINUOUS
10
4.8753440157480314
20
-4.1403681889763781
11
4.8760648425196846
21
-4.1401058661417318
0
LINE
8
BLACK
6
CONTINUOUS
10
4.8760648425196846
20
-4.1401058661417318
11
5.0760648425196848
21
-4.1401058661417318
0
LINE
8
BLACK
6
CONTINUOUS
10
5.0760648425196848
20
-4.1401058661417318
11
5.0764483464566927
21
-4.1401734645669288
0
LINE
8
BLACK
6
CONTINUOUS
10
4.8790175984251967
20
-4.1460113779527559
11
4.8790175984251967
21
-4.4401058661417325
0
LINE
8
BLACK
6
CONTINUOUS
10
4.8790175984251967
20
-4.4401058661417325
11
5.0731120866141728
21
-4.4401058661417325
0
LINE
8
BLACK
6
CONTINUOUS
10
5.0731120866141728
20
-4.4401058661417325
11
5.0731120866141728
21
-4.1460113779527559
0
LINE
8
BLACK
6
CONTINUOUS
10
5.0731120866141728
20
-4.1460113779527559
11
4.8790175984251967
21
-4.1460113779527559
0
LINE
8
BLACK
6
CONTINUOUS
10
7.0116601181102363
20
-4.1739844881889763
11
7.0123509448818897
21
-4.1758824803149608
0
LINE
8
BLACK
6
CONTINUOUS
10
7.0123509448818897
20
-4.1758824803149608
11
7.0123509448818897
21
-4.211596771653543
0
LINE
8
BLACK
6
CONTINUOUS
10
7.0123509448818897
20
-4.211596771653543
11
7.0121976377952757
21
-4.2124661417322837
0
LINE
8
BLACK
6
CONTINUOUS
10
7.0121976377952757
20
-4.2124661417322837
11
7.0121994094488187
21
-4.2125305511811026
0
LINE
8
BLACK
6
CONTINUOUS
10
7.0121994094488187
20
-4.2125305511811026
11
7.0098184251968503
21
-4.2196733464566929
0
LINE
8
BLACK
6
CONTINUOUS
10
7.0098184251968503
20
-4.2196733464566929
11
7.0093301181102357
21
-4.2205751574803152
0
LINE
8
BLACK
6
CONTINUOUS
10
7.0093301181102357
20
-4.2205751574803152
11
7.0091796850393697
21
-4.2206675590551184
0
LINE
8
BLACK
6
CONTINUOUS
10
7.0091796850393697
20
-4.2206675590551184
11
7.0091051181102362
21
-4.2208275196850389
0
LINE
8
BLACK
6
CONTINUOUS
10
7.0091051181102362
20
-4.2208275196850389
11
7.0043432283464568
21
-4.2255894488188979
0
LINE
8
BLACK
6
CONTINUOUS
10
7.0043432283464568
20
-4.2255894488188979
11
7.0035031889763779
21
-4.2261776377952751
0
LINE
8
BLACK
6
CONTINUOUS
10
7.0035031889763779
20
-4.2261776377952751
11
7.0033273228346458
21
-4.2261929921259842
0
LINE
8
BLACK
6
CONTINUOUS
10
7.0033273228346458
20
-4.2261929921259842
11
7.00318905511811
21
-4.226302755905512
0
LINE
8
BLACK
6
CONTINUOUS
10
7.00318905511811
20
-4.226302755905512
11
6.9960461811023622
21
-4.2286837007874016
0
LINE
8
BLACK
6
CONTINUOUS
10
6.9960461811023622
20
-4.2286837007874016
11
6.9951729921259842
21
-4.2288131496062995
0
LINE
8
BLACK
6
CONTINUOUS
10
6.9951729921259842
20
-4.2288131496062995
11
6.9951124409448822
21
-4.2288352362204726
0
LINE
8
BLACK
6
CONTINUOUS
10
6.9951124409448822
20
-4.2288352362204726
11
6.9903505511811019
21
-4.2288352362204726
0
LINE
8
BLACK
6
CONTINUOUS
10
6.9903505511811019
20
-4.2288352362204726
11
6.9893406299212595
21
-4.2286571653543303
0
LINE
8
BLACK
6
CONTINUOUS
10
6.9893406299212595
20
-4.2286571653543303
11
6.9877933858267713
21
-4.2273588582677162
0
LINE
8
BLACK
6
CONTINUOUS
10
6.9877933858267713
20
-4.2273588582677162
11
6.9874426377952759
21
-4.2253697244094486
0
LINE
8
BLACK
6
CONTINUOUS
10
6.9874426377952759
20
-4.2253697244094486
11
6.9884525590551183
21
-4.223620551181102
0
LINE
8
BLACK
6
CONTINUOUS
10
6.9884525590551183
20
-4.223620551181102
11
6.9903505511811019
21
-4.2229297244094486
0
LINE
8
BLACK
6
CONTINUOUS
10
6.9903505511811019
20
-4.2229297244094486
11
6.9946333070866142
21
-4.2229297244094486
0
LINE
8
BLACK
6
CONTINUOUS
10
6.9946333070866142
20
-4.2229297244094486
11
7.0006602362204724
21
-4.2209207480314959
0
LINE
8
BLACK
6
CONTINUOUS
10
7.0006602362204724
20
-4.2209207480314959
11
7.0044364173228342
21
-4.2171445669291341
0
LINE
8
BLACK
6
CONTINUOUS
10
7.0044364173228342
20
-4.2171445669291341
11
7.0064454330708656
21
-4.2111175984251972
0
LINE
8
BLACK
6
CONTINUOUS
10
7.0064454330708656
20
-4.2111175984251972
11
7.0064454330708656
21
-4.1758824803149608
0
LINE
8
BLACK
6
CONTINUOUS
10
7.0064454330708656
20
-4.1758824803149608
11
7.0066235039370079
21
-4.1748725590551183
0
LINE
8
BLACK
6
CONTINUOUS
10
7.0066235039370079
20
-4.1748725590551183
11
7.0079218110236221
21
-4.1733253149606302
0
LINE
8
BLACK
6
CONTINUOUS
10
7.0079218110236221
20
-4.1733253149606302
11
7.0099109448818897
21
-4.1729745669291338
0
LINE
8
BLACK
6
CONTINUOUS
10
7.0099109448818897
20
-4.1729745669291338
11
7.0116601181102363
21
-4.1739844881889763
0
LINE
8
BLACK
6
CONTINUOUS
10
7.0508842913385825
20
-4.1731077952755902
11
7.0510195275590553
21
-4.1732212598425198
0
LINE
8
BLACK
6
CONTINUOUS
10
7.0510195275590553
20
-4.1732212598425198
11
7.0511948818897636
21
-4.1732414566929137
0
LINE
8
BLACK
6
CONTINUOUS
10
7.0511948818897636
20
-4.1732414566929137
11
7.055956771653543
21
-4.1756224015748034
0
LINE
8
BLACK
6
CONTINUOUS
10
7.055956771653543
20
-4.1756224015748034
11
7.0566658267716535
21
-4.1761483070866143
0
LINE
8
BLACK
6
CONTINUOUS
10
7.0566658267716535
20
-4.1761483070866143
11
7.0567241732283463
21
-4.1761755118110235
0
LINE
8
BLACK
6
CONTINUOUS
10
7.0567241732283463
20
-4.1761755118110235
11
7.059105118110236
21
-4.1785564566929132
0
LINE
8
BLACK
6
CONTINUOUS
10
7.059105118110236
20
-4.1785564566929132
11
7.0596113779527556
21
-4.1792795275590553
0
LINE
8
BLACK
6
CONTINUOUS
10
7.0596113779527556
20
-4.1792795275590553
11
7.0596582283464562
21
-4.1793238582677166
0
LINE
8
BLACK
6
CONTINUOUS
10
7.0596582283464562
20
-4.1793238582677166
11
7.0620392125984246
21
-4.1840857480314959
0
LINE
8
BLACK
6
CONTINUOUS
10
7.0620392125984246
20
-4.1840857480314959
11
7.0623315748031494
21
-4.1850686614173229
0
LINE
8
BLACK
6
CONTINUOUS
10
7.0623315748031494
20
-4.1850686614173229
11
7.0622905511811025
21
-4.1852403543307082
0
LINE
8
BLACK
6
CONTINUOUS
10
7.0622905511811025
20
-4.1852403543307082
11
7.0623509448818895
21
-4.1854062598425195
0
LINE
8
BLACK
6
CONTINUOUS
10
7.0623509448818895
20
-4.1854062598425195
11
7.0623509448818895
21
-4.1901681889763776
0
LINE
8
BLACK
6
CONTINUOUS
10
7.0623509448818895
20
-4.1901681889763776
11
7.0621976377952755
21
-4.1910375590551183
0
LINE
8
BLACK
6
CONTINUOUS
10
7.0621976377952755
20
-4.1910375590551183
11
7.0621994094488185
21
-4.1911019685039372
0
LINE
8
BLACK
6
CONTINUOUS
10
7.0621994094488185
20
-4.1911019685039372
11
7.0598184251968501
21
-4.1982447637795275
0
LINE
8
BLACK
6
CONTINUOUS
10
7.0598184251968501
20
-4.1982447637795275
11
7.0593301181102364
21
-4.1991465748031498
0
LINE
8
BLACK
6
CONTINUOUS
10
7.0593301181102364
20
-4.1991465748031498
11
7.0591796850393695
21
-4.199238976377953
0
LINE
8
BLACK
6
CONTINUOUS
10
7.0591796850393695
20
-4.199238976377953
11
7.059105118110236
21
-4.1993989370078735
0
LINE
8
BLACK
6
CONTINUOUS
10
7.059105118110236
20
-4.1993989370078735
11
7.0355743700787396
21
-4.2229297244094486
0
LINE
8
BLACK
6
CONTINUOUS
10
7.0355743700787396
20
-4.2229297244094486
11
7.0593981889763775
21
-4.2229297244094486
0
LINE
8
BLACK
6
CONTINUOUS
10
7.0593981889763775
20
-4.2229297244094486
11
7.0604081102362199
21
-4.2231077952755909
0
LINE
8
BLACK
6
CONTINUOUS
10
7.0604081102362199
20
-4.2231077952755909
11
7.0619553543307081
21
-4.224406102362205
0
LINE
8
BLACK
6
CONTINUOUS
10
7.0619553543307081
20
-4.224406102362205
11
7.0623061023622045
21
-4.2263952362204726
0
LINE
8
BLACK
6
CONTINUOUS
10
7.0623061023622045
20
-4.2263952362204726
11
7.061296181102362
21
-4.2281444094488192
0
LINE
8
BLACK
6
CONTINUOUS
10
7.061296181102362
20
-4.2281444094488192
11
7.0593981889763775
21
-4.2288352362204726
0
LINE
8
BLACK
6
CONTINUOUS
10
7.0593981889763775
20
-4.2288352362204726
11
7.0284457874015747
21
-4.2288352362204726
0
LINE
8
BLACK
6
CONTINUOUS
10
7.0284457874015747
20
-4.2288352362204726
11
7.0278110236220472
21
-4.2287233070866144
0
LINE
8
BLACK
6
CONTINUOUS
10
7.0278110236220472
20
-4.2287233070866144
11
7.0276815748031494
21
-4.2287346456692916
0
LINE
8
BLACK
6
CONTINUOUS
10
7.0276815748031494
20
-4.2287346456692916
11
7.0276163385826766
21
-4.2286889763779527
0
LINE
8
BLACK
6
CONTINUOUS
10
7.0276163385826766
20
-4.2286889763779527
11
7.0274358661417322
21
-4.2286571653543303
0
LINE
8
BLACK
6
CONTINUOUS
10
7.0274358661417322
20
-4.2286571653543303
11
7.0267549999999996
21
-4.2280858661417318
0
LINE
8
BLACK
6
CONTINUOUS
10
7.0267549999999996
20
-4.2280858661417318
11
7.0260270078740152
21
-4.2275761023622049
0
LINE
8
BLACK
6
CONTINUOUS
10
7.0260270078740152
20
-4.2275761023622049
11
7.0259920472440944
21
-4.2274456299212595
0
LINE
8
BLACK
6
CONTINUOUS
10
7.0259920472440944
20
-4.2274456299212595
11
7.0258886220472441
21
-4.2273588582677162
0
LINE
8
BLACK
6
CONTINUOUS
10
7.0258886220472441
20
-4.2273588582677162
11
7.0257342519685038
21
-4.2264835039370077
0
LINE
8
BLACK
6
CONTINUOUS
10
7.0257342519685038
20
-4.2264835039370077
11
7.0255042913385823
21
-4.225625157480315
0
LINE
8
BLACK
6
CONTINUOUS
10
7.0255042913385823
20
-4.225625157480315
11
7.0255613385826772
21
-4.2255027952755908
0
LINE
8
BLACK
6
CONTINUOUS
10
7.0255613385826772
20
-4.2255027952755908
11
7.0255378740157477
21
-4.2253697244094486
0
LINE
8
BLACK
6
CONTINUOUS
10
7.0255378740157477
20
-4.2253697244094486
11
7.0259823622047239
21
-4.2245998031496059
0
LINE
8
BLACK
6
CONTINUOUS
10
7.0259823622047239
20
-4.2245998031496059
11
7.0263578740157477
21
-4.2237945669291337
0
LINE
8
BLACK
6
CONTINUOUS
10
7.0263578740157477
20
-4.2237945669291337
11
7.0544364173228349
21
-4.1957159448818899
0
LINE
8
BLACK
6
CONTINUOUS
10
7.0544364173228349
20
-4.1957159448818899
11
7.0564454330708664
21
-4.1896890157480318
0
LINE
8
BLACK
6
CONTINUOUS
10
7.0564454330708664
20
-4.1896890157480318
11
7.0564454330708664
21
-4.1861033464566928
0
LINE
8
BLACK
6
CONTINUOUS
10
7.0564454330708664
20
-4.1861033464566928
11
7.0545904724409443
21
-4.1823934645669292
0
LINE
8
BLACK
6
CONTINUOUS
10
7.0545904724409443
20
-4.1823934645669292
11
7.0528871653543304
21
-4.1806901574803152
0
LINE
8
BLACK
6
CONTINUOUS
10
7.0528871653543304
20
-4.1806901574803152
11
7.0491773228346455
21
-4.1788352362204719
0
LINE
8
BLACK
6
CONTINUOUS
10
7.0491773228346455
20
-4.1788352362204719
11
7.0386666141732279
21
-4.1788352362204719
0
LINE
8
BLACK
6
CONTINUOUS
10
7.0386666141732279
20
-4.1788352362204719
11
7.0349567716535431
21
-4.1806901574803152
0
LINE
8
BLACK
6
CONTINUOUS
10
7.0349567716535431
20
-4.1806901574803152
11
7.0329146456692913
21
-4.182732283464567
0
LINE
8
BLACK
6
CONTINUOUS
10
7.0329146456692913
20
-4.182732283464567
11
7.0320746062992123
21
-4.1833204724409452
0
LINE
8
BLACK
6
CONTINUOUS
10
7.0320746062992123
20
-4.1833204724409452
11
7.030062519685039
21
-4.1834965354330711
0
LINE
8
BLACK
6
CONTINUOUS
10
7.030062519685039
20
-4.1834965354330711
11
7.0284079527559049
21
-4.1823379921259844
0
LINE
8
BLACK
6
CONTINUOUS
10
7.0284079527559049
20
-4.1823379921259844
11
7.027885236220472
21
-4.1803870472440945
0
LINE
8
BLACK
6
CONTINUOUS
10
7.027885236220472
20
-4.1803870472440945
11
7.0287388188976374
21
-4.1785564566929132
0
LINE
8
BLACK
6
CONTINUOUS
10
7.0287388188976374
20
-4.1785564566929132
11
7.0311197637795271
21
-4.1761755118110235
0
LINE
8
BLACK
6
CONTINUOUS
10
7.0311197637795271
20
-4.1761755118110235
11
7.0318428346456692
21
-4.1756692125984252
0
LINE
8
BLACK
6
CONTINUOUS
10
7.0318428346456692
20
-4.1756692125984252
11
7.0318871653543304
21
-4.1756224015748034
0
LINE
8
BLACK
6
CONTINUOUS
10
7.0318871653543304
20
-4.1756224015748034
11
7.0366490944881885
21
-4.1732414566929137
0
LINE
8
BLACK
6
CONTINUOUS
10
7.0366490944881885
20
-4.1732414566929137
11
7.0376320472440943
21
-4.1729490944881888
0
LINE
8
BLACK
6
CONTINUOUS
10
7.0376320472440943
20
-4.1729490944881888
11
7.0378037007874017
21
-4.172990078740157
0
LINE
8
BLACK
6
CONTINUOUS
10
7.0378037007874017
20
-4.172990078740157
11
7.0379696062992121
21
-4.1729297244094488
0
LINE
8
BLACK
6
CONTINUOUS
10
7.0379696062992121
20
-4.1729297244094488
11
7.0498743700787401
21
-4.1729297244094488
0
LINE
8
BLACK
6
CONTINUOUS
10
7.0498743700787401
20
-4.1729297244094488
11
7.0508842913385825
21
-4.1731077952755902
0
LINE
8
BLACK
6
CONTINUOUS
10
7.0375644881889761
20
-4.1157100393700787
11
7.0488674015748032
21
-4.1179583070866137
0
LINE
8
BLACK
6
CONTINUOUS
10
7.0488674015748032
20
-4.1179583070866137
11
7.059780157480315
21
-4.1216626771653546
0
LINE
8
BLACK
6
CONTINUOUS
10
7.059780157480315
20
-4.1216626771653546
11
7.0701160236220471
21
-4.1267597637795275
0
LINE
8
BLACK
6
CONTINUOUS
10
7.0701160236220471
20
-4.1267597637795275
11
7.0796981496062994
21
-4.1331623622047244
0
LINE
8
BLACK
6
CONTINUOUS
10
7.0796981496062994
20
-4.1331623622047244
11
7.0883625984251966
21
-4.1407608661417319
0
LINE
8
BLACK
6
CONTINUOUS
10
7.0883625984251966
20
-4.1407608661417319
11
7.0959611023622049
21
-4.1494253149606299
0
LINE
8
BLACK
6
CONTINUOUS
10
7.0959611023622049
20
-4.1494253149606299
11
7.102363700787401
21
-4.1590074803149601
0
LINE
8
BLACK
6
CONTINUOUS
10
7.102363700787401
20
-4.1590074803149601
11
7.1074607874015747
21
-4.1693433070866144
0
LINE
8
BLACK
6
CONTINUOUS
10
7.1074607874015747
20
-4.1693433070866144
11
7.1111651574803147
21
-4.1802560629921262
0
LINE
8
BLACK
6
CONTINUOUS
10
7.1111651574803147
20
-4.1802560629921262
11
7.1134134251968506
21
-4.1915589763779524
0
LINE
8
BLACK
6
CONTINUOUS
10
7.1134134251968506
20
-4.1915589763779524
11
7.1141671653543304
21
-4.2030586220472443
0
LINE
8
BLACK
6
CONTINUOUS
10
7.1141671653543304
20
-4.2030586220472443
11
7.1134134251968506
21
-4.2145582677165354
0
LINE
8
BLACK
6
CONTINUOUS
10
7.1134134251968506
20
-4.2145582677165354
11
7.1111651574803147
21
-4.2258611811023625
0
LINE
8
BLACK
6
CONTINUOUS
10
7.1111651574803147
20
-4.2258611811023625
11
7.1074607874015747
21
-4.2367739370078743
0
LINE
8
BLACK
6
CONTINUOUS
10
7.1074607874015747
20
-4.2367739370078743
11
7.102363700787401
21
-4.2471098031496064
0
LINE
8
BLACK
6
CONTINUOUS
10
7.102363700787401
20
-4.2471098031496064
11
7.0959611023622049
21
-4.2566919291338579
0
LINE
8
BLACK
6
CONTINUOUS
10
7.0959611023622049
20
-4.2566919291338579
11
7.0883625984251966
21
-4.2653563779527559
0
LINE
8
BLACK
6
CONTINUOUS
10
7.0883625984251966
20
-4.2653563779527559
11
7.0796981496062994
21
-4.2729548818897634
0
LINE
8
BLACK
6
CONTINUOUS
10
7.0796981496062994
20
-4.2729548818897634
11
7.0701160236220471
21
-4.2793574803149603
0
LINE
8
BLACK
6
CONTINUOUS
10
7.0701160236220471
20
-4.2793574803149603
11
7.059780157480315
21
-4.2844545669291341
0
LINE
8
BLACK
6
CONTINUOUS
10
7.059780157480315
20
-4.2844545669291341
11
7.0488674015748032
21
-4.2881589370078741
0
LINE
8
BLACK
6
CONTINUOUS
10
7.0488674015748032
20
-4.2881589370078741
11
7.0375644881889761
21
-4.2904072047244091
0
LINE
8
BLACK
6
CONTINUOUS
10
7.0375644881889761
20
-4.2904072047244091
11
7.026064842519685
21
-4.2911609448818897
0
LINE
8
BLACK
6
CONTINUOUS
10
7.026064842519685
20
-4.2911609448818897
11
7.0145651968503939
21
-4.2904072047244091
0
LINE
8
BLACK
6
CONTINUOUS
10
7.0145651968503939
20
-4.2904072047244091
11
7.0032622834645668
21
-4.2881589370078741
0
LINE
8
BLACK
6
CONTINUOUS
10
7.0032622834645668
20
-4.2881589370078741
11
6.992349527559055
21
-4.2844545669291341
0
LINE
8
BLACK
6
CONTINUOUS
10
6.992349527559055
20
-4.2844545669291341
11
6.9820136614173229
21
-4.2793574803149603
0
LINE
8
BLACK
6
CONTINUOUS
10
6.9820136614173229
20
-4.2793574803149603
11
6.9724315354330706
21
-4.2729548818897634
0
LINE
8
BLACK
6
CONTINUOUS
10
6.9724315354330706
20
-4.2729548818897634
11
6.9637670866141734
21
-4.2653563779527559
0
LINE
8
BLACK
6
CONTINUOUS
10
6.9637670866141734
20
-4.2653563779527559
11
6.9561685826771651
21
-4.2566919291338579
0
LINE
8
BLACK
6
CONTINUOUS
10
6.9561685826771651
20
-4.2566919291338579
11
6.9497659842519681
21
-4.2471098031496064
0
LINE
8
BLACK
6
CONTINUOUS
10
6.9497659842519681
20
-4.2471098031496064
11
6.9446688976377953
21
-4.2367739370078743
0
LINE
8
BLACK
6
CONTINUOUS
10
6.9446688976377953
20
-4.2367739370078743
11
6.9409645275590552
21
-4.2258611811023625
0
LINE
8
BLACK
6
CONTINUOUS
10
6.9409645275590552
20
-4.2258611811023625
11
6.9387162598425194
21
-4.2145582677165354
0
LINE
8
BLACK
6
CONTINUOUS
10
6.9387162598425194
20
-4.2145582677165354
11
6.9379625196850396
21
-4.2030586220472443
0
LINE
8
BLACK
6
CONTINUOUS
10
6.9379625196850396
20
-4.2030586220472443
11
6.9387162598425194
21
-4.1915589763779524
0
LINE
8
BLACK
6
CONTINUOUS
10
6.9387162598425194
20
-4.1915589763779524
11
6.9409645275590552
21
-4.1802560629921262
0
LINE
8
BLACK
6
CONTINUOUS
10
6.9409645275590552
20
-4.1802560629921262
11
6.9446688976377953
21
-4.1693433070866144
0
LINE
8
BLACK
6
CONTINUOUS
10
6.9446688976377953
20
-4.1693433070866144
11
6.9497659842519681
21
-4.1590074803149601
0
LINE
8
BLACK
6
CONTINUOUS
10
6.9497659842519681
20
-4.1590074803149601
11
6.9561685826771651
21
-4.1494253149606299
0
LINE
8
BLACK
6
CONTINUOUS
10
6.9561685826771651
20
-4.1494253149606299
11
6.9637670866141734
21
-4.1407608661417319
0
LINE
8
BLACK
6
CONTINUOUS
10
6.9637670866141734
20
-4.1407608661417319
11
6.9724315354330706
21
-4.1331623622047244
0
LINE
8
BLACK
6
CONTINUOUS
10
6.9724315354330706
20
-4.1331623622047244
11
6.9820137007874017
21
-4.1267597637795275
0
LINE
8
BLACK
6
CONTINUOUS
10
6.9820137007874017
20
-4.1267597637795275
11
6.992349527559055
21
-4.1216626771653546
0
LINE
8
BLACK
6
CONTINUOUS
10
6.992349527559055
20
-4.1216626771653546
11
7.0032622834645668
21
-4.1179583070866137
0
LINE
8
BLACK
6
CONTINUOUS
10
7.0032622834645668
20
-4.1179583070866137
11
7.0145651968503939
21
-4.1157100393700787
0
LINE
8
BLACK
6
CONTINUOUS
10
7.0145651968503939
20
-4.1157100393700787
11
7.026064842519685
21
-4.1149562992125981
0
LINE
8
BLACK
6
CONTINUOUS
10
7.026064842519685
20
-4.1149562992125981
11
7.0375644881889761
21
-4.1157100393700787
0
LINE
8
BLACK
6
CONTINUOUS
10
6.9444433070866136
20
-4.2142772440944878
11
6.9467311417322835
21
-4.2252868897637796
0
LINE
8
BLACK
6
CONTINUOUS
10
6.9467311417322835
20
-4.2252868897637796
11
6.9504968110236218
21
-4.2358824409448816
0
LINE
8
BLACK
6
CONTINUOUS
10
6.9504968110236218
20
-4.2358824409448816
11
6.9556701574803146
21
-4.2458665748031494
0
LINE
8
BLACK
6
CONTINUOUS
10
6.9556701574803146
20
-4.2458665748031494
11
6.9621548425196851
21
-4.2550532677165354
0
LINE
8
BLACK
6
CONTINUOUS
10
6.9621548425196851
20
-4.2550532677165354
11
6.9698300393700787
21
-4.2632713779527558
0
LINE
8
BLACK
6
CONTINUOUS
10
6.9698300393700787
20
-4.2632713779527558
11
6.9785527952755908
21
-4.270367874015748
0
LINE
8
BLACK
6
CONTINUOUS
10
6.9785527952755908
20
-4.270367874015748
11
6.988160590551181
21
-4.2762105118110236
0
LINE
8
BLACK
6
CONTINUOUS
10
6.988160590551181
20
-4.2762105118110236
11
6.9984744881889762
21
-4.2806904724409449
0
LINE
8
BLACK
6
CONTINUOUS
10
6.9984744881889762
20
-4.2806904724409449
11
7.0093023228346452
21
-4.2837242913385829
0
LINE
8
BLACK
6
CONTINUOUS
10
7.0093023228346452
20
-4.2837242913385829
11
7.0204424409448816
21
-4.2852554330708656
0
LINE
8
BLACK
6
CONTINUOUS
10
7.0204424409448816
20
-4.2852554330708656
11
7.0316872440944884
21
-4.2852554330708656
0
LINE
8
BLACK
6
CONTINUOUS
10
7.0316872440944884
20
-4.2852554330708656
11
7.0428273622047239
21
-4.2837242913385829
0
LINE
8
BLACK
6
CONTINUOUS
10
7.0428273622047239
20
-4.2837242913385829
11
7.0536551968503938
21
-4.2806904724409449
0
LINE
8
BLACK
6
CONTINUOUS
10
7.0536551968503938
20
-4.2806904724409449
11
7.063969094488189
21
-4.2762105118110236
0
LINE
8
BLACK
6
CONTINUOUS
10
7.063969094488189
20
-4.2762105118110236
11
7.0735768897637792
21
-4.270367874015748
0
LINE
8
BLACK
6
CONTINUOUS
10
7.0735768897637792
20
-4.270367874015748
11
7.0822996456692913
21
-4.2632713779527558
0
LINE
8
BLACK
6
CONTINUOUS
10
7.0822996456692913
20
-4.2632713779527558
11
7.0899748425196849
21
-4.2550532677165354
0
LINE
8
BLACK
6
CONTINUOUS
10
7.0899748425196849
20
-4.2550532677165354
11
7.0964595275590545
21
-4.2458665748031494
0
LINE
8
BLACK
6
CONTINUOUS
10
7.0964595275590545
20
-4.2458665748031494
11
7.1016328740157482
21
-4.2358824409448816
0
LINE
8
BLACK
6
CONTINUOUS
10
7.1016328740157482
20
-4.2358824409448816
11
7.1053985433070865
21
-4.2252868897637796
0
LINE
8
BLACK
6
CONTINUOUS
10
7.1053985433070865
20
-4.2252868897637796
11
7.1076863779527555
21
-4.2142772440944878
0
LINE
8
BLACK
6
CONTINUOUS
10
7.1076863779527555
20
-4.2142772440944878
11
7.1084537401574801
21
-4.2030586220472443
0
LINE
8
BLACK
6
CONTINUOUS
10
7.1084537401574801
20
-4.2030586220472443
11
7.1076863779527555
21
-4.19184
0
LINE
8
BLACK
6
CONTINUOUS
10
7.1076863779527555
20
-4.19184
11
7.1053985433070865
21
-4.1808303543307082
0
LINE
8
BLACK
6
CONTINUOUS
10
7.1053985433070865
20
-4.1808303543307082
11
7.1016328740157482
21
-4.1702348031496062
0
LINE
8
BLACK
6
CONTINUOUS
10
7.1016328740157482
20
-4.1702348031496062
11
7.0964595275590545
21
-4.1602506692913384
0
LINE
8
BLACK
6
CONTINUOUS
10
7.0964595275590545
20
-4.1602506692913384
11
7.0899748425196849
21
-4.1510639763779524
0
LINE
8
BLACK
6
CONTINUOUS
10
7.0899748425196849
20
-4.1510639763779524
11
7.0822996456692913
21
-4.142845866141732
0
LINE
8
BLACK
6
CONTINUOUS
10
7.0822996456692913
20
-4.142845866141732
11
7.0735768897637792
21
-4.1357493700787398
0
LINE
8
BLACK
6
CONTINUOUS
10
7.0735768897637792
20
-4.1357493700787398
11
7.063969094488189
21
-4.1299067322834642
0
LINE
8
BLACK
6
CONTINUOUS
10
7.063969094488189
20
-4.1299067322834642
11
7.0536551968503938
21
-4.1254267716535429
0
LINE
8
BLACK
6
CONTINUOUS
10
7.0536551968503938
20
-4.1254267716535429
11
7.0428273622047239
21
-4.1223929527559058
0
LINE
8
BLACK
6
CONTINUOUS
10
7.0428273622047239
20
-4.1223929527559058
11
7.0316872440944884
21
-4.1208618110236221
0
LINE
8
BLACK
6
CONTINUOUS
10
7.0316872440944884
20
-4.1208618110236221
11
7.0204424409448816
21
-4.1208618110236221
0
LINE
8
BLACK
6
CONTINUOUS
10
7.0204424409448816
20
-4.1208618110236221
11
7.0093023228346452
21
-4.1223929527559058
0
LINE
8
BLACK
6
CONTINUOUS
10
7.0093023228346452
20
-4.1223929527559058
11
6.9984744881889762
21
-4.1254267716535429
0
LINE
8
BLACK
6
CONTINUOUS
10
6.9984744881889762
20
-4.1254267716535429
11
6.988160590551181
21
-4.1299067322834642
0
LINE
8
BLACK
6
CONTINUOUS
10
6.988160590551181
20
-4.1299067322834642
11
6.9785527952755908
21
-4.1357493700787398
0
LINE
8
BLACK
6
CONTINUOUS
10
6.9785527952755908
20
-4.1357493700787398
11
6.9698300393700787
21
-4.142845866141732
0
LINE
8
BLACK
6
CONTINUOUS
10
6.9698300393700787
20
-4.142845866141732
11
6.9621548425196851
21
-4.1510639763779524
0
LINE
8
BLACK
6
CONTINUOUS
10
6.9621548425196851
20
-4.1510639763779524
11
6.9556701574803146
21
-4.1602506692913384
0
LINE
8
BLACK
6
CONTINUOUS
10
6.9556701574803146
20
-4.1602506692913384
11
6.9504968110236218
21
-4.1702348031496062
0
LINE
8
BLACK
6
CONTINUOUS
10
6.9504968110236218
20
-4.1702348031496062
11
6.9467311417322835
21
-4.1808303543307082
0
LINE
8
BLACK
6
CONTINUOUS
10
6.9467311417322835
20
-4.1808303543307082
11
6.9444433070866136
21
-4.19184
0
LINE
8
BLACK
6
CONTINUOUS
10
6.9444433070866136
20
-4.19184
11
6.9436759448818899
21
-4.2030586220472443
0
LINE
8
BLACK
6
CONTINUOUS
10
6.9436759448818899
20
-4.2030586220472443
11
6.9444433070866136
21
-4.2142772440944878
0
LINE
8
BLACK
6
CONTINUOUS
10
7.1642436220472439
20
-4.0623781889763775
11
7.164372874015748
21
-4.0623554330708664
0
LINE
8
BLACK
6
CONTINUOUS
10
7.164372874015748
20
-4.0623554330708664
11
7.164486456692913
21
-4.062421023622047
0
LINE
8
BLACK
6
CONTINUOUS
10
7.164486456692913
20
-4.062421023622047
11
7.1648700393700784
21
-4.0624886614173228
0
LINE
8
BLACK
6
CONTINUOUS
10
7.1648700393700784
20
-4.0624886614173228
11
7.1654577165354327
21
-4.0629817716535435
0
LINE
8
BLACK
6
CONTINUOUS
10
7.1654577165354327
20
-4.0629817716535435
11
7.1661220472440945
21
-4.0633653543307089
0
LINE
8
BLACK
6
CONTINUOUS
10
7.1661220472440945
20
-4.0633653543307089
11
7.1662131496062988
21
-4.0636156692913383
0
LINE
8
BLACK
6
CONTINUOUS
10
7.1662131496062988
20
-4.0636156692913383
11
7.1664172834645665
21
-4.0637869685039369
0
LINE
8
BLACK
6
CONTINUOUS
10
7.1664172834645665
20
-4.0637869685039369
11
7.1665505118110238
21
-4.0645425196850393
0
LINE
8
BLACK
6
CONTINUOUS
10
7.1665505118110238
20
-4.0645425196850393
11
7.166812874015748
21
-4.0652633464566925
0
LINE
8
BLACK
6
CONTINUOUS
10
7.166812874015748
20
-4.0652633464566925
11
7.166812874015748
21
-4.3408538976377953
0
LINE
8
BLACK
6
CONTINUOUS
10
7.166812874015748
20
-4.3408538976377953
11
7.1667452362204722
21
-4.3412374015748032
0
LINE
8
BLACK
6
CONTINUOUS
10
7.1667452362204722
20
-4.3412374015748032
11
7.1667680314960629
21
-4.3413666535433073
0
LINE
8
BLACK
6
CONTINUOUS
10
7.1667680314960629
20
-4.3413666535433073
11
7.1667024015748026
21
-4.3414802362204723
0
LINE
8
BLACK
6
CONTINUOUS
10
7.1667024015748026
20
-4.3414802362204723
11
7.1666348031496065
21
-4.3418638188976377
0
LINE
8
BLACK
6
CONTINUOUS
10
7.1666348031496065
20
-4.3418638188976377
11
7.1661416535433071
21
-4.3424514960629921
0
LINE
8
BLACK
6
CONTINUOUS
10
7.1661416535433071
20
-4.3424514960629921
11
7.1657581102362204
21
-4.3431158267716539
0
LINE
8
BLACK
6
CONTINUOUS
10
7.1657581102362204
20
-4.3431158267716539
11
7.1655077559055114
21
-4.3432069291338582
0
LINE
8
BLACK
6
CONTINUOUS
10
7.1655077559055114
20
-4.3432069291338582
11
7.1653364960629924
21
-4.3434110629921259
0
LINE
8
BLACK
6
CONTINUOUS
10
7.1653364960629924
20
-4.3434110629921259
11
7.1645809055118113
21
-4.3435442913385822
0
LINE
8
BLACK
6
CONTINUOUS
10
7.1645809055118113
20
-4.3435442913385822
11
7.1638601181102359
21
-4.3438066535433073
0
LINE
8
BLACK
6
CONTINUOUS
10
7.1638601181102359
20
-4.3438066535433073
11
6.8882695669291341
21
-4.3438066535433073
0
LINE
8
BLACK
6
CONTINUOUS
10
6.8882695669291341
20
-4.3438066535433073
11
6.8878860236220474
21
-4.3437390157480316
0
LINE
8
BLACK
6
CONTINUOUS
10
6.8878860236220474
20
-4.3437390157480316
11
6.887756811023622
21
-4.3437618110236222
0
LINE
8
BLACK
6
CONTINUOUS
10
6.887756811023622
20
-4.3437618110236222
11
6.8876431889763774
21
-4.343696181102362
0
LINE
8
BLACK
6
CONTINUOUS
10
6.8876431889763774
20
-4.343696181102362
11
6.8872596456692916
21
-4.343628582677165
0
LINE
8
BLACK
6
CONTINUOUS
10
6.8872596456692916
20
-4.343628582677165
11
6.8866719291338585
21
-4.3431354330708665
0
LINE
8
BLACK
6
CONTINUOUS
10
6.8866719291338585
20
-4.3431354330708665
11
6.8860076377952755
21
-4.3427518897637798
0
LINE
8
BLACK
6
CONTINUOUS
10
6.8860076377952755
20
-4.3427518897637798
11
6.8859164960629924
21
-4.3425015354330707
0
LINE
8
BLACK
6
CONTINUOUS
10
6.8859164960629924
20
-4.3425015354330707
11
6.8857124015748026
21
-4.3423302755905508
0
LINE
8
BLACK
6
CONTINUOUS
10
6.8857124015748026
20
-4.3423302755905508
11
6.8855791338582675
21
-4.3415746850393697
0
LINE
8
BLACK
6
CONTINUOUS
10
6.8855791338582675
20
-4.3415746850393697
11
6.885316811023622
21
-4.3408538976377953
0
LINE
8
BLACK
6
CONTINUOUS
10
6.885316811023622
20
-4.3408538976377953
11
6.885316811023622
21
-4.0652633464566925
0
LINE
8
BLACK
6
CONTINUOUS
10
6.885316811023622
20
-4.0652633464566925
11
6.885384409448819
21
-4.0648798031496058
0
LINE
8
BLACK
6
CONTINUOUS
10
6.885384409448819
20
-4.0648798031496058
11
6.8853616535433071
21
-4.0647505905511814
0
LINE
8
BLACK
6
CONTINUOUS
10
6.8853616535433071
20
-4.0647505905511814
11
6.8854272440944877
21
-4.0646369685039367
0
LINE
8
BLACK
6
CONTINUOUS
10
6.8854272440944877
20
-4.0646369685039367
11
6.8854948818897634
21
-4.0642534251968501
0
LINE
8
BLACK
6
CONTINUOUS
10
6.8854948818897634
20
-4.0642534251968501
11
6.8859879921259841
21
-4.063665708661417
0
LINE
8
BLACK
6
CONTINUOUS
10
6.8859879921259841
20
-4.063665708661417
11
6.8863715748031495
21
-4.0630014173228348
0
LINE
8
BLACK
6
CONTINUOUS
10
6.8863715748031495
20
-4.0630014173228348
11
6.886621889763779
21
-4.0629102755905508
0
LINE
8
BLACK
6
CONTINUOUS
10
6.886621889763779
20
-4.0629102755905508
11
6.8867931889763776
21
-4.0627061811023619
0
LINE
8
BLACK
6
CONTINUOUS
10
6.8867931889763776
20
-4.0627061811023619
11
6.88754874015748
21
-4.0625729133858268
0
LINE
8
BLACK
6
CONTINUOUS
10
6.88754874015748
20
-4.0625729133858268
11
6.8882695669291341
21
-4.0623105905511814
0
LINE
8
BLACK
6
CONTINUOUS
10
6.8882695669291341
20
-4.0623105905511814
11
7.1638601181102359
21
-4.0623105905511814
0
LINE
8
BLACK
6
CONTINUOUS
10
7.1638601181102359
20
-4.0623105905511814
11
7.1642436220472439
21
-4.0623781889763775
0
LINE
8
BLACK
6
CONTINUOUS
10
6.8912223228346452
20
-4.0682161023622045
11
6.8912223228346452
21
-4.3379011417322833
0
LINE
8
BLACK
6
CONTINUOUS
10
6.8912223228346452
20
-4.3379011417322833
11
7.1609073622047239
21
-4.3379011417322833
0
LINE
8
BLACK
6
CONTINUOUS
10
7.1609073622047239
20
-4.3379011417322833
11
7.1609073622047239
21
-4.0682161023622045
0
LINE
8
BLACK
6
CONTINUOUS
10
7.1609073622047239
20
-4.0682161023622045
11
6.8912223228346452
21
-4.0682161023622045
0
LINE
8
BLACK
6
CONTINUOUS
10
5.0764483464566927
20
-3.6251734645669291
11
5.0765775984251968
21
-3.6251507086614172
0
LINE
8
BLACK
6
CONTINUOUS
10
5.0765775984251968
20
-3.6251507086614172
11
5.0766911811023618
21
-3.6252162992125982
0
LINE
8
BLACK
6
CONTINUOUS
10
5.0766911811023618
20
-3.6252162992125982
11
5.0770747637795273
21
-3.625283937007874
0
LINE
8
BLACK
6
CONTINUOUS
10
5.0770747637795273
20
-3.625283937007874
11
5.0776624409448816
21
-3.6257770472440942
0
LINE
8
BLACK
6
CONTINUOUS
10
5.0776624409448816
20
-3.6257770472440942
11
5.0783267716535434
21
-3.6261606299212596
0
LINE
8
BLACK
6
CONTINUOUS
10
5.0783267716535434
20
-3.6261606299212596
11
5.0784178740157477
21
-3.6264109448818895
0
LINE
8
BLACK
6
CONTINUOUS
10
5.0784178740157477
20
-3.6264109448818895
11
5.0786220078740154
21
-3.6265822440944881
0
LINE
8
BLACK
6
CONTINUOUS
10
5.0786220078740154
20
-3.6265822440944881
11
5.0787552362204726
21
-3.6273377952755905
0
LINE
8
BLACK
6
CONTINUOUS
10
5.0787552362204726
20
-3.6273377952755905
11
5.0790175984251968
21
-3.6280586220472442
0
LINE
8
BLACK
6
CONTINUOUS
10
5.0790175984251968
20
-3.6280586220472442
11
5.0790175984251968
21
-3.928058622047244
0
LINE
8
BLACK
6
CONTINUOUS
10
5.0790175984251968
20
-3.928058622047244
11
5.0789499606299211
21
-3.9284421259842519
0
LINE
8
BLACK
6
CONTINUOUS
10
5.0789499606299211
20
-3.9284421259842519
11
5.0789727559055118
21
-3.928571377952756
0
LINE
8
BLACK
6
CONTINUOUS
10
5.0789727559055118
20
-3.928571377952756
11
5.0789071259842515
21
-3.928684960629921
0
LINE
8
BLACK
6
CONTINUOUS
10
5.0789071259842515
20
-3.928684960629921
11
5.0788395275590554
21
-3.9290685433070864
0
LINE
8
BLACK
6
CONTINUOUS
10
5.0788395275590554
20
-3.9290685433070864
11
5.078346377952756
21
-3.9296562204724408
0
LINE
8
BLACK
6
CONTINUOUS
10
5.078346377952756
20
-3.9296562204724408
11
5.0779628346456693
21
-3.9303205511811021
0
LINE
8
BLACK
6
CONTINUOUS
10
5.0779628346456693
20
-3.9303205511811021
11
5.0777124803149603
21
-3.9304116535433069
0
LINE
8
BLACK
6
CONTINUOUS
10
5.0777124803149603
20
-3.9304116535433069
11
5.0775412204724404
21
-3.9306157874015746
0
LINE
8
BLACK
6
CONTINUOUS
10
5.0775412204724404
20
-3.9306157874015746
11
5.0767856299212601
21
-3.9307490157480314
0
LINE
8
BLACK
6
CONTINUOUS
10
5.0767856299212601
20
-3.9307490157480314
11
5.0760648425196848
21
-3.931011377952756
0
LINE
8
BLACK
6
CONTINUOUS
10
5.0760648425196848
20
-3.931011377952756
11
4.8760648425196846
21
-3.931011377952756
0
LINE
8
BLACK
6
CONTINUOUS
10
4.8760648425196846
20
-3.931011377952756
11
4.875681299212598
21
-3.9309437401574803
0
LINE
8
BLACK
6
CONTINUOUS
10
4.875681299212598
20
-3.9309437401574803
11
4.8755520866141735
21
-3.930966535433071
0
LINE
8
BLACK
6
CONTINUOUS
10
4.8755520866141735
20
-3.930966535433071
11
4.8754384645669289
21
-3.9309009055118111
0
LINE
8
BLACK
6
CONTINUOUS
10
4.8754384645669289
20
-3.9309009055118111
11
4.8750549212598422
21
-3.9308333070866142
0
LINE
8
BLACK
6
CONTINUOUS
10
4.8750549212598422
20
-3.9308333070866142
11
4.8744672047244091
21
-3.9303401574803147
0
LINE
8
BLACK
6
CONTINUOUS
10
4.8744672047244091
20
-3.9303401574803147
11
4.8738029133858269
21
-3.9299566141732281
0
LINE
8
BLACK
6
CONTINUOUS
10
4.8738029133858269
20
-3.9299566141732281
11
4.873711771653543
21
-3.9297062598425194
0
LINE
8
BLACK
6
CONTINUOUS
10
4.873711771653543
20
-3.9297062598425194
11
4.873507677165354
21
-3.929535
0
LINE
8
BLACK
6
CONTINUOUS
10
4.873507677165354
20
-3.929535
11
4.8733744094488189
21
-3.9287794094488189
0
LINE
8
BLACK
6
CONTINUOUS
10
4.8733744094488189
20
-3.9287794094488189
11
4.8731120866141735
21
-3.928058622047244
0
LINE
8
BLACK
6
CONTINUOUS
10
4.8731120866141735
20
-3.928058622047244
11
4.8731120866141735
21
-3.6280586220472442
0
LINE
8
BLACK
6
CONTINUOUS
10
4.8731120866141735
20
-3.6280586220472442
11
4.8731796850393696
21
-3.6276750787401575
0
LINE
8
BLACK
6
CONTINUOUS
10
4.8731796850393696
20
-3.6276750787401575
11
4.8731569291338586
21
-3.6275458661417321
0
LINE
8
BLACK
6
CONTINUOUS
10
4.8731569291338586
20
-3.6275458661417321
11
4.8732225196850392
21
-3.6274322440944879
0
LINE
8
BLACK
6
CONTINUOUS
10
4.8732225196850392
20
-3.6274322440944879
11
4.8732901574803149
21
-3.6270487007874017
0
LINE
8
BLACK
6
CONTINUOUS
10
4.8732901574803149
20
-3.6270487007874017
11
4.8737832677165356
21
-3.6264609842519686
0
LINE
8
BLACK
6
CONTINUOUS
10
4.8737832677165356
20
-3.6264609842519686
11
4.874166850393701
21
-3.6257966929133856
0
LINE
8
BLACK
6
CONTINUOUS
10
4.874166850393701
20
-3.6257966929133856
11
4.8744171653543305
21
-3.6257055511811025
0
LINE
8
BLACK
6
CONTINUOUS
10
4.8744171653543305
20
-3.6257055511811025
11
4.8745884645669291
21
-3.6255014566929131
0
LINE
8
BLACK
6
CONTINUOUS
10
4.8745884645669291
20
-3.6255014566929131
11
4.8753440157480314
21
-3.625368188976378
0
LINE
8
BLACK
6
CONTINUOUS
10
4.8753440157480314
20
-3.625368188976378
11
4.8760648425196846
21
-3.6251058661417321
0
LINE
8
BLACK
6
CONTINUOUS
10
4.8760648425196846
20
-3.6251058661417321
11
5.0760648425196848
21
-3.6251058661417321
0
LINE
8
BLACK
6
CONTINUOUS
10
5.0760648425196848
20
-3.6251058661417321
11
5.0764483464566927
21
-3.6251734645669291
0
LINE
8
BLACK
6
CONTINUOUS
10
4.8790175984251967
20
-3.6310113779527557
11
4.8790175984251967
21
-3.9251058661417324
0
LINE
8
BLACK
6
CONTINUOUS
10
4.8790175984251967
20
-3.9251058661417324
11
5.0731120866141728
21
-3.9251058661417324
0
LINE
8
BLACK
6
CONTINUOUS
10
5.0731120866141728
20
-3.9251058661417324
11
5.0731120866141728
21
-3.6310113779527557
0
LINE
8
BLACK
6
CONTINUOUS
10
5.0731120866141728
20
-3.6310113779527557
11
4.8790175984251967
21
-3.6310113779527557
0
LINE
8
BLACK
6
CONTINUOUS
10
7.0116601181102363
20
-3.7489844881889764
11
7.0123509448818897
21
-3.7508824803149605
0
LINE
8
BLACK
6
CONTINUOUS
10
7.0123509448818897
20
-3.7508824803149605
11
7.0123509448818897
21
-3.7865967716535431
0
LINE
8
BLACK
6
CONTINUOUS
10
7.0123509448818897
20
-3.7865967716535431
11
7.0121976377952757
21
-3.7874661417322835
0
LINE
8
BLACK
6
CONTINUOUS
10
7.0121976377952757
20
-3.7874661417322835
11
7.0121994094488187
21
-3.7875305511811024
0
LINE
8
BLACK
6
CONTINUOUS
10
7.0121994094488187
20
-3.7875305511811024
11
7.0098184251968503
21
-3.7946733464566926
0
LINE
8
BLACK
6
CONTINUOUS
10
7.0098184251968503
20
-3.7946733464566926
11
7.0093301181102357
21
-3.7955751574803149
0
LINE
8
BLACK
6
CONTINUOUS
10
7.0093301181102357
20
-3.7955751574803149
11
7.0091796850393697
21
-3.7956675590551181
0
LINE
8
BLACK
6
CONTINUOUS
10
7.0091796850393697
20
-3.7956675590551181
11
7.0091051181102362
21
-3.7958275196850391
0
LINE
8
BLACK
6
CONTINUOUS
10
7.0091051181102362
20
-3.7958275196850391
11
7.0043432283464568
21
-3.8005894488188976
0
LINE
8
BLACK
6
CONTINUOUS
10
7.0043432283464568
20
-3.8005894488188976
11
7.0035031889763779
21
-3.8011776377952753
0
LINE
8
BLACK
6
CONTINUOUS
10
7.0035031889763779
20
-3.8011776377952753
11
7.0033273228346458
21
-3.8011929921259844
0
LINE
8
BLACK
6
CONTINUOUS
10
7.0033273228346458
20
-3.8011929921259844
11
7.00318905511811
21
-3.8013027559055117
0
LINE
8
BLACK
6
CONTINUOUS
10
7.00318905511811
20
-3.8013027559055117
11
6.9960461811023622
21
-3.8036837007874014
0
LINE
8
BLACK
6
CONTINUOUS
10
6.9960461811023622
20
-3.8036837007874014
11
6.9951729921259842
21
-3.8038131496062992
0
LINE
8
BLACK
6
CONTINUOUS
10
6.9951729921259842
20
-3.8038131496062992
11
6.9951124409448822
21
-3.8038352362204724
0
LINE
8
BLACK
6
CONTINUOUS
10
6.9951124409448822
20
-3.8038352362204724
11
6.9903505511811019
21
-3.8038352362204724
0
LINE
8
BLACK
6
CONTINUOUS
10
6.9903505511811019
20
-3.8038352362204724
11
6.9893406299212595
21
-3.8036571653543305
0
LINE
8
BLACK
6
CONTINUOUS
10
6.9893406299212595
20
-3.8036571653543305
11
6.9877933858267713
21
-3.8023588582677164
0
LINE
8
BLACK
6
CONTINUOUS
10
6.9877933858267713
20
-3.8023588582677164
11
6.9874426377952759
21
-3.8003697244094488
0
LINE
8
BLACK
6
CONTINUOUS
10
6.9874426377952759
20
-3.8003697244094488
11
6.9884525590551183
21
-3.7986205511811022
0
LINE
8
BLACK
6
CONTINUOUS
10
6.9884525590551183
20
-3.7986205511811022
11
6.9903505511811019
21
-3.7979297244094488
0
LINE
8
BLACK
6
CONTINUOUS
10
6.9903505511811019
20
-3.7979297244094488
11
6.9946333070866142
21
-3.7979297244094488
0
LINE
8
BLACK
6
CONTINUOUS
10
6.9946333070866142
20
-3.7979297244094488
11
7.0006602362204724
21
-3.795920748031496
0
LINE
8
BLACK
6
CONTINUOUS
10
7.0006602362204724
20
-3.795920748031496
11
7.0044364173228342
21
-3.7921445669291338
0
LINE
8
BLACK
6
CONTINUOUS
10
7.0044364173228342
20
-3.7921445669291338
11
7.0064454330708656
21
-3.7861175984251969
0
LINE
8
BLACK
6
CONTINUOUS
10
7.0064454330708656
20
-3.7861175984251969
11
7.0064454330708656
21
-3.7508824803149605
0
LINE
8
BLACK
6
CONTINUOUS
10
7.0064454330708656
20
-3.7508824803149605
11
7.0066235039370079
21
-3.7498725590551181
0
LINE
8
BLACK
6
CONTINUOUS
10
7.0066235039370079
20
-3.7498725590551181
11
7.0079218110236221
21
-3.7483253149606299
0
LINE
8
BLACK
6
CONTINUOUS
10
7.0079218110236221
20
-3.7483253149606299
11
7.0099109448818897
21
-3.7479745669291336
0
LINE
8
BLACK
6
CONTINUOUS
10
7.0099109448818897
20
-3.7479745669291336
11
7.0116601181102363
21
-3.7489844881889764
0
LINE
8
BLACK
6
CONTINUOUS
10
7.0598355118110234
20
-3.7480068110236218
11
7.0599710236220474
21
-3.7479858267716533
0
LINE
8
BLACK
6
CONTINUOUS
10
7.0599710236220474
20
-3.7479858267716533
11
7.0600756692913382
21
-3.7480491732283463
0
LINE
8
BLACK
6
CONTINUOUS
10
7.0600756692913382
20
-3.7480491732283463
11
7.0604081102362199
21
-3.7481077952755903
0
LINE
8
BLACK
6
CONTINUOUS
10
7.0604081102362199
20
-3.7481077952755903
11
7.0610178346456696
21
-3.748619409448819
0
LINE
8
BLACK
6
CONTINUOUS
10
7.0610178346456696
20
-3.748619409448819
11
7.0616989763779525
21
-3.7490316929133858
0
LINE
8
BLACK
6
CONTINUOUS
10
7.0616989763779525
20
-3.7490316929133858
11
7.0617749606299212
21
-3.7492547244094485
0
LINE
8
BLACK
6
CONTINUOUS
10
7.0617749606299212
20
-3.7492547244094485
11
7.0619553543307081
21
-3.7494061023622045
0
LINE
8
BLACK
6
CONTINUOUS
10
7.0619553543307081
20
-3.7494061023622045
11
7.0620935433070864
21
-3.7501899606299212
0
LINE
8
BLACK
6
CONTINUOUS
10
7.0620935433070864
20
-3.7501899606299212
11
7.0623503149606295
21
-3.7509435826771651
0
LINE
8
BLACK
6
CONTINUOUS
10
7.0623503149606295
20
-3.7509435826771651
11
7.062265157480315
21
-3.7511631889763777
0
LINE
8
BLACK
6
CONTINUOUS
10
7.062265157480315
20
-3.7511631889763777
11
7.0623061023622045
21
-3.7513952362204726
0
LINE
8
BLACK
6
CONTINUOUS
10
7.0623061023622045
20
-3.7513952362204726
11
7.0619079921259837
21
-3.7520846850393701
0
LINE
8
BLACK
6
CONTINUOUS
10
7.0619079921259837
20
-3.7520846850393701
11
7.0616203543307083
21
-3.7528268897637793
0
LINE
8
BLACK
6
CONTINUOUS
10
7.0616203543307083
20
-3.7528268897637793
11
7.0492387007874013
21
-3.7669773228346455
0
LINE
8
BLACK
6
CONTINUOUS
10
7.0492387007874013
20
-3.7669773228346455
11
7.0498743700787401
21
-3.7669773228346455
0
LINE
8
BLACK
6
CONTINUOUS
10
7.0498743700787401
20
-3.7669773228346455
11
7.0508842913385825
21
-3.7671553937007873
0
LINE
8
BLACK
6
CONTINUOUS
10
7.0508842913385825
20
-3.7671553937007873
11
7.0510195275590553
21
-3.7672688582677165
0
LINE
8
BLACK
6
CONTINUOUS
10
7.0510195275590553
20
-3.7672688582677165
11
7.0511948818897636
21
-3.76728905511811
0
LINE
8
BLACK
6
CONTINUOUS
10
7.0511948818897636
20
-3.76728905511811
11
7.055956771653543
21
-3.7696700000000001
0
LINE
8
BLACK
6
CONTINUOUS
10
7.055956771653543
20
-3.7696700000000001
11
7.0566658267716535
21
-3.7701958661417323
0
LINE
8
BLACK
6
CONTINUOUS
10
7.0566658267716535
20
-3.7701958661417323
11
7.0567241732283463
21
-3.7702231102362203
0
LINE
8
BLACK
6
CONTINUOUS
10
7.0567241732283463
20
-3.7702231102362203
11
7.0591051574803148
21
-3.7726041338582674
0
LINE
8
BLACK
6
CONTINUOUS
10
7.0591051574803148
20
-3.7726041338582674
11
7.0596114173228344
21
-3.7733271653543308
0
LINE
8
BLACK
6
CONTINUOUS
10
7.0596114173228344
20
-3.7733271653543308
11
7.0596582283464562
21
-3.773371496062992
0
LINE
8
BLACK
6
CONTINUOUS
10
7.0596582283464562
20
-3.773371496062992
11
7.0620392125984246
21
-3.7781333858267714
0
LINE
8
BLACK
6
CONTINUOUS
10
7.0620392125984246
20
-3.7781333858267714
11
7.0623315748031494
21
-3.7791162992125984
0
LINE
8
BLACK
6
CONTINUOUS
10
7.0623315748031494
20
-3.7791162992125984
11
7.0622905511811025
21
-3.7792879921259841
0
LINE
8
BLACK
6
CONTINUOUS
10
7.0622905511811025
20
-3.7792879921259841
11
7.0623509448818895
21
-3.7794538976377954
0
LINE
8
BLACK
6
CONTINUOUS
10
7.0623509448818895
20
-3.7794538976377954
11
7.0623509448818895
21
-3.7913586614173229
0
LINE
8
BLACK
6
CONTINUOUS
10
7.0623509448818895
20
-3.7913586614173229
11
7.0621728740157481
21
-3.7923685826771654
0
LINE
8
BLACK
6
CONTINUOUS
10
7.0621728740157481
20
-3.7923685826771654
11
7.0620593700787397
21
-3.7925038188976377
0
LINE
8
BLACK
6
CONTINUOUS
10
7.0620593700787397
20
-3.7925038188976377
11
7.0620392125984246
21
-3.7926791732283465
0
LINE
8
BLACK
6
CONTINUOUS
10
7.0620392125984246
20
-3.7926791732283465
11
7.0596582283464562
21
-3.7974410629921258
0
LINE
8
BLACK
6
CONTINUOUS
10
7.0596582283464562
20
-3.7974410629921258
11
7.0591324015748027
21
-3.7981499212598426
0
LINE
8
BLACK
6
CONTINUOUS
10
7.0591324015748027
20
-3.7981499212598426
11
7.0591051574803148
21
-3.7982084251968504
0
LINE
8
BLACK
6
CONTINUOUS
10
7.0591051574803148
20
-3.7982084251968504
11
7.0567241732283463
21
-3.8005894488188976
0
LINE
8
BLACK
6
CONTINUOUS
10
7.0567241732283463
20
-3.8005894488188976
11
7.0560010236220467
21
-3.8010957874015747
0
LINE
8
BLACK
6
CONTINUOUS
10
7.0560010236220467
20
-3.8010957874015747
11
7.055956771653543
21
-3.8011425590551182
0
LINE
8
BLACK
6
CONTINUOUS
10
7.055956771653543
20
-3.8011425590551182
11
7.0511948818897636
21
-3.8035235039370079
0
LINE
8
BLACK
6
CONTINUOUS
10
7.0511948818897636
20
-3.8035235039370079
11
7.0502119291338579
21
-3.8038158661417323
0
LINE
8
BLACK
6
CONTINUOUS
10
7.0502119291338579
20
-3.8038158661417323
11
7.0500402362204726
21
-3.8037748425196849
0
LINE
8
BLACK
6
CONTINUOUS
10
7.0500402362204726
20
-3.8037748425196849
11
7.0498743700787401
21
-3.8038352362204724
0
LINE
8
BLACK
6
CONTINUOUS
10
7.0498743700787401
20
-3.8038352362204724
11
7.0355886614173224
21
-3.8038352362204724
0
LINE
8
BLACK
6
CONTINUOUS
10
7.0355886614173224
20
-3.8038352362204724
11
7.03457874015748
21
-3.8036571653543305
0
LINE
8
BLACK
6
CONTINUOUS
10
7.03457874015748
20
-3.8036571653543305
11
7.0344434645669294
21
-3.8035436614173226
0
LINE
8
BLACK
6
CONTINUOUS
10
7.0344434645669294
20
-3.8035436614173226
11
7.0342681496062989
21
-3.8035235039370079
0
LINE
8
BLACK
6
CONTINUOUS
10
7.0342681496062989
20
-3.8035235039370079
11
7.0295062204724408
21
-3.8011425590551182
0
LINE
8
BLACK
6
CONTINUOUS
10
7.0295062204724408
20
-3.8011425590551182
11
7.0287971259842514
21
-3.8006166535433068
0
LINE
8
BLACK
6
CONTINUOUS
10
7.0287971259842514
20
-3.8006166535433068
11
7.0287388188976374
21
-3.8005894488188976
0
LINE
8
BLACK
6
CONTINUOUS
10
7.0287388188976374
20
-3.8005894488188976
11
7.0263578740157477
21
-3.7982084645669292
0
LINE
8
BLACK
6
CONTINUOUS
10
7.0263578740157477
20
-3.7982084645669292
11
7.0257696456692909
21
-3.7973683858267715
0
LINE
8
BLACK
6
CONTINUOUS
10
7.0257696456692909
20
-3.7973683858267715
11
7.0255936614173224
21
-3.7953562992125982
0
LINE
8
BLACK
6
CONTINUOUS
10
7.0255936614173224
20
-3.7953562992125982
11
7.0267521653543303
21
-3.7937017716535433
0
LINE
8
BLACK
6
CONTINUOUS
10
7.0267521653543303
20
-3.7937017716535433
11
7.028703149606299
21
-3.7931790551181099
0
LINE
8
BLACK
6
CONTINUOUS
10
7.028703149606299
20
-3.7931790551181099
11
7.0305337007874016
21
-3.7940326377952753
0
LINE
8
BLACK
6
CONTINUOUS
10
7.0305337007874016
20
-3.7940326377952753
11
7.0325758267716534
21
-3.7960748031496063
0
LINE
8
BLACK
6
CONTINUOUS
10
7.0325758267716534
20
-3.7960748031496063
11
7.0362856692913383
21
-3.7979297244094488
0
LINE
8
BLACK
6
CONTINUOUS
10
7.0362856692913383
20
-3.7979297244094488
11
7.0491773228346455
21
-3.7979297244094488
0
LINE
8
BLACK
6
CONTINUOUS
10
7.0491773228346455
20
-3.7979297244094488
11
7.0528871259842516
21
-3.7960748031496063
0
LINE
8
BLACK
6
CONTINUOUS
10
7.0528871259842516
20
-3.7960748031496063
11
7.0545904330708664
21
-3.7943714566929132
0
LINE
8
BLACK
6
CONTINUOUS
10
7.0545904330708664
20
-3.7943714566929132
11
7.0564454330708664
21
-3.7906615354330708
0
LINE
8
BLACK
6
CONTINUOUS
10
7.0564454330708664
20
-3.7906615354330708
11
7.0564454330708664
21
-3.7801509842519683
0
LINE
8
BLACK
6
CONTINUOUS
10
7.0564454330708664
20
-3.7801509842519683
11
7.0545904330708664
21
-3.7764410629921259
0
LINE
8
BLACK
6
CONTINUOUS
10
7.0545904330708664
20
-3.7764410629921259
11
7.0528871259842516
21
-3.7747377165354328
0
LINE
8
BLACK
6
CONTINUOUS
10
7.0528871259842516
20
-3.7747377165354328
11
7.0491773228346455
21
-3.7728828346456691
0
LINE
8
BLACK
6
CONTINUOUS
10
7.0491773228346455
20
-3.7728828346456691
11
7.0427314960629923
21
-3.7728828346456691
0
LINE
8
BLACK
6
CONTINUOUS
10
7.0427314960629923
20
-3.7728828346456691
11
7.0422941338582676
21
-3.7728057086614171
0
LINE
8
BLACK
6
CONTINUOUS
10
7.0422941338582676
20
-3.7728057086614171
11
7.0421586614173224
21
-3.7728267322834643
0
LINE
8
BLACK
6
CONTINUOUS
10
7.0421586614173224
20
-3.7728267322834643
11
7.0420539763779528
21
-3.772763346456693
0
LINE
8
BLACK
6
CONTINUOUS
10
7.0420539763779528
20
-3.772763346456693
11
7.0417215748031499
21
-3.7727047637795277
0
LINE
8
BLACK
6
CONTINUOUS
10
7.0417215748031499
20
-3.7727047637795277
11
7.0411117716535427
21
-3.7721930708661415
0
LINE
8
BLACK
6
CONTINUOUS
10
7.0411117716535427
20
-3.7721930708661415
11
7.040430748031496
21
-3.7717808661417322
0
LINE
8
BLACK
6
CONTINUOUS
10
7.040430748031496
20
-3.7717808661417322
11
7.0403547637795274
21
-3.7715578346456691
0
LINE
8
BLACK
6
CONTINUOUS
10
7.0403547637795274
20
-3.7715578346456691
11
7.0401743307086608
21
-3.7714064566929131
0
LINE
8
BLACK
6
CONTINUOUS
10
7.0401743307086608
20
-3.7714064566929131
11
7.0400360629921259
21
-3.7706224803149606
0
LINE
8
BLACK
6
CONTINUOUS
10
7.0400360629921259
20
-3.7706224803149606
11
7.0397793700787403
21
-3.7698689763779525
0
LINE
8
BLACK
6
CONTINUOUS
10
7.0397793700787403
20
-3.7698689763779525
11
7.039864488188976
21
-3.7696493307086612
0
LINE
8
BLACK
6
CONTINUOUS
10
7.039864488188976
20
-3.7696493307086612
11
7.0398235826771653
21
-3.7694173228346455
0
LINE
8
BLACK
6
CONTINUOUS
10
7.0398235826771653
20
-3.7694173228346455
11
7.0402216535433073
21
-3.7687278346456692
0
LINE
8
BLACK
6
CONTINUOUS
10
7.0402216535433073
20
-3.7687278346456692
11
7.0405093307086615
21
-3.7679856692913387
0
LINE
8
BLACK
6
CONTINUOUS
10
7.0405093307086615
20
-3.7679856692913387
11
7.0528909842519685
21
-3.7538352362204725
0
LINE
8
BLACK
6
CONTINUOUS
10
7.0528909842519685
20
-3.7538352362204725
11
7.0284457874015747
21
-3.7538352362204725
0
LINE
8
BLACK
6
CONTINUOUS
10
7.0284457874015747
20
-3.7538352362204725
11
7.0274358661417322
21
-3.7536571653543307
0
LINE
8
BLACK
6
CONTINUOUS
10
7.0274358661417322
20
-3.7536571653543307
11
7.0258886220472441
21
-3.7523588582677165
0
LINE
8
BLACK
6
CONTINUOUS
10
7.0258886220472441
20
-3.7523588582677165
11
7.0255378740157477
21
-3.7503697244094489
0
LINE
8
BLACK
6
CONTINUOUS
10
7.0255378740157477
20
-3.7503697244094489
11
7.0265477952755901
21
-3.7486205511811024
0
LINE
8
BLACK
6
CONTINUOUS
10
7.0265477952755901
20
-3.7486205511811024
11
7.0284457874015747
21
-3.7479297244094489
0
LINE
8
BLACK
6
CONTINUOUS
10
7.0284457874015747
20
-3.7479297244094489
11
7.0593981889763775
21
-3.7479297244094489
0
LINE
8
BLACK
6
CONTINUOUS
10
7.0593981889763775
20
-3.7479297244094489
11
7.0598355118110234
21
-3.7480068110236218
0
LINE
8
BLACK
6
CONTINUOUS
10
7.0375644881889761
20
-3.6907100393700785
11
7.0488674015748032
21
-3.6929583070866139
0
LINE
8
BLACK
6
CONTINUOUS
10
7.0488674015748032
20
-3.6929583070866139
11
7.059780157480315
21
-3.6966626771653543
0
LINE
8
BLACK
6
CONTINUOUS
10
7.059780157480315
20
-3.6966626771653543
11
7.0701160236220471
21
-3.7017597637795276
0
LINE
8
BLACK
6
CONTINUOUS
10
7.0701160236220471
20
-3.7017597637795276
11
7.0796981496062994
21
-3.7081623622047242
0
LINE
8
BLACK
6
CONTINUOUS
10
7.0796981496062994
20
-3.7081623622047242
11
7.0883625984251966
21
-3.7157608661417321
0
LINE
8
BLACK
6
CONTINUOUS
10
7.0883625984251966
20
-3.7157608661417321
11
7.0959611023622049
21
-3.7244253149606297
0
LINE
8
BLACK
6
CONTINUOUS
10
7.0959611023622049
20
-3.7244253149606297
11
7.102363700787401
21
-3.7340074803149603
0
LINE
8
BLACK
6
CONTINUOUS
10
7.102363700787401
20
-3.7340074803149603
11
7.1074607874015747
21
-3.7443433070866141
0
LINE
8
BLACK
6
CONTINUOUS
10
7.1074607874015747
20
-3.7443433070866141
11
7.1111651574803147
21
-3.7552560629921259
0
LINE
8
BLACK
6
CONTINUOUS
10
7.1111651574803147
20
-3.7552560629921259
11
7.1134134251968506
21
-3.7665589763779526
0
LINE
8
BLACK
6
CONTINUOUS
10
7.1134134251968506
20
-3.7665589763779526
11
7.1141671653543304
21
-3.7780586220472441
0
LINE
8
BLACK
6
CONTINUOUS
10
7.1141671653543304
20
-3.7780586220472441
11
7.1134134251968506
21
-3.7895582677165351
0
LINE
8
BLACK
6
CONTINUOUS
10
7.1134134251968506
20
-3.7895582677165351
11
7.1111651574803147
21
-3.8008611811023623
0
LINE
8
BLACK
6
CONTINUOUS
10
7.1111651574803147
20
-3.8008611811023623
11
7.1074607874015747
21
-3.811773937007874
0
LINE
8
BLACK
6
CONTINUOUS
10
7.1074607874015747
20
-3.811773937007874
11
7.102363700787401
21
-3.8221098031496061
0
LINE
8
BLACK
6
CONTINUOUS
10
7.102363700787401
20
-3.8221098031496061
11
7.0959611023622049
21
-3.831691929133858
0
LINE
8
BLACK
6
CONTINUOUS
10
7.0959611023622049
20
-3.831691929133858
11
7.0883625984251966
21
-3.8403563779527556
0
LINE
8
BLACK
6
CONTINUOUS
10
7.0883625984251966
20
-3.8403563779527556
11
7.0796981496062994
21
-3.8479548818897635
0
LINE
8
BLACK
6
CONTINUOUS
10
7.0796981496062994
20
-3.8479548818897635
11
7.0701160236220471
21
-3.8543574803149605
0
LINE
8
BLACK
6
CONTINUOUS
10
7.0701160236220471
20
-3.8543574803149605
11
7.059780157480315
21
-3.8594545669291338
0
LINE
8
BLACK
6
CONTINUOUS
10
7.059780157480315
20
-3.8594545669291338
11
7.0488674015748032
21
-3.8631589370078738
0
LINE
8
BLACK
6
CONTINUOUS
10
7.0488674015748032
20
-3.8631589370078738
11
7.0375644881889761
21
-3.8654072047244092
0
LINE
8
BLACK
6
CONTINUOUS
10
7.0375644881889761
20
-3.8654072047244092
11
7.026064842519685
21
-3.8661609448818899
0
LINE
8
BLACK
6
CONTINUOUS
10
7.026064842519685
20
-3.8661609448818899
11
7.0145651968503939
21
-3.8654072047244092
0
LINE
8
BLACK
6
CONTINUOUS
10
7.0145651968503939
20
-3.8654072047244092
11
7.0032622834645668
21
-3.8631589370078738
0
LINE
8
BLACK
6
CONTINUOUS
10
7.0032622834645668
20
-3.8631589370078738
11
6.992349527559055
21
-3.8594545669291338
0
LINE
8
BLACK
6
CONTINUOUS
10
6.992349527559055
20
-3.8594545669291338
11
6.9820136614173229
21
-3.8543574803149605
0
LINE
8
BLACK
6
CONTINUOUS
10
6.9820136614173229
20
-3.8543574803149605
11
6.9724315354330706
21
-3.8479548818897635
0
LINE
8
BLACK
6
CONTINUOUS
10
6.9724315354330706
20
-3.8479548818897635
11
6.9637670866141734
21
-3.8403563779527556
0
LINE
8
BLACK
6
CONTINUOUS
10
6.9637670866141734
20
-3.8403563779527556
11
6.9561685826771651
21
-3.831691929133858
0
LINE
8
BLACK
6
CONTINUOUS
10
6.9561685826771651
20
-3.831691929133858
11
6.9497659842519681
21
-3.8221098031496061
0
LINE
8
BLACK
6
CONTINUOUS
10
6.9497659842519681
20
-3.8221098031496061
11
6.9446688976377953
21
-3.811773937007874
0
LINE
8
BLACK
6
CONTINUOUS
10
6.9446688976377953
20
-3.811773937007874
11
6.9409645275590552
21
-3.8008611811023623
0
LINE
8
BLACK
6
CONTINUOUS
10
6.9409645275590552
20
-3.8008611811023623
11
6.9387162598425194
21
-3.7895582677165351
0
LINE
8
BLACK
6
CONTINUOUS
10
6.9387162598425194
20
-3.7895582677165351
11
6.9379625196850396
21
-3.7780586220472441
0
LINE
8
BLACK
6
CONTINUOUS
10
6.9379625196850396
20
-3.7780586220472441
11
6.9387162598425194
21
-3.7665589763779526
0
LINE
8
BLACK
6
CONTINUOUS
10
6.9387162598425194
20
-3.7665589763779526
11
6.9409645275590552
21
-3.7552560629921259
0
LINE
8
BLACK
6
CONTINUOUS
10
6.9409645275590552
20
-3.7552560629921259
11
6.9446688976377953
21
-3.7443433070866141
0
LINE
8
BLACK
6
CONTINUOUS
10
6.9446688976377953
20
-3.7443433070866141
11
6.9497659842519681
21
-3.7340074803149603
0
LINE
8
BLACK
6
CONTINUOUS
10
6.9497659842519681
20
-3.7340074803149603
11
6.9561685826771651
21
-3.7244253149606297
0
LINE
8
BLACK
6
CONTINUOUS
10
6.9561685826771651
20
-3.7244253149606297
11
6.9637670866141734
21
-3.7157608661417321
0
LINE
8
BLACK
6
CONTINUOUS
10
6.9637670866141734
20
-3.7157608661417321
11
6.9724315354330706
21
-3.7081623622047242
0
LINE
8
BLACK
6
CONTINUOUS
10
6.9724315354330706
20
-3.7081623622047242
11
6.9820137007874017
21
-3.7017597637795276
0
LINE
8
BLACK
6
CONTINUOUS
10
6.9820137007874017
20
-3.7017597637795276
11
6.992349527559055
21
-3.6966626771653543
0
LINE
8
BLACK
6
CONTINUOUS
10
6.992349527559055
20
-3.6966626771653543
11
7.0032622834645668
21
-3.6929583070866139
0
LINE
8
BLACK
6
CONTINUOUS
10
7.0032622834645668
20
-3.6929583070866139
11
7.0145651968503939
21
-3.6907100393700785
0
LINE
8
BLACK
6
CONTINUOUS
10
7.0145651968503939
20
-3.6907100393700785
11
7.026064842519685
21
-3.6899562992125983
0
LINE
8
BLACK
6
CONTINUOUS
10
7.026064842519685
20
-3.6899562992125983
11
7.0375644881889761
21
-3.6907100393700785
0
LINE
8
BLACK
6
CONTINUOUS
10
6.9444433070866136
20
-3.789277244094488
11
6.9467311417322835
21
-3.8002868897637794
0
LINE
8
BLACK
6
CONTINUOUS
10
6.9467311417322835
20
-3.8002868897637794
11
6.9504968110236218
21
-3.8108824409448818
0
LINE
8
BLACK
6
CONTINUOUS
10
6.9504968110236218
20
-3.8108824409448818
11
6.9556701574803146
21
-3.8208665748031496
0
LINE
8
BLACK
6
CONTINUOUS
10
6.9556701574803146
20
-3.8208665748031496
11
6.9621548425196851
21
-3.8300532677165355
0
LINE
8
BLACK
6
CONTINUOUS
10
6.9621548425196851
20
-3.8300532677165355
11
6.9698300393700787
21
-3.838271377952756
0
LINE
8
BLACK
6
CONTINUOUS
10
6.9698300393700787
20
-3.838271377952756
11
6.9785527952755908
21
-3.8453678740157478
0
LINE
8
BLACK
6
CONTINUOUS
10
6.9785527952755908
20
-3.8453678740157478
11
6.988160590551181
21
-3.8512105118110234
0
LINE
8
BLACK
6
CONTINUOUS
10
6.988160590551181
20
-3.8512105118110234
11
6.9984744881889762
21
-3.8556904724409446
0
LINE
8
BLACK
6
CONTINUOUS
10
6.9984744881889762
20
-3.8556904724409446
11
7.0093023228346452
21
-3.8587242913385826
0
LINE
8
BLACK
6
CONTINUOUS
10
7.0093023228346452
20
-3.8587242913385826
11
7.0204424409448816
21
-3.8602554330708663
0
LINE
8
BLACK
6
CONTINUOUS
10
7.0204424409448816
20
-3.8602554330708663
11
7.0316872440944884
21
-3.8602554330708663
0
LINE
8
BLACK
6
CONTINUOUS
10
7.0316872440944884
20
-3.8602554330708663
11
7.0428273622047239
21
-3.8587242913385826
0
LINE
8
BLACK
6
CONTINUOUS
10
7.0428273622047239
20
-3.8587242913385826
11
7.0536551968503938
21
-3.8556904724409446
0
LINE
8
BLACK
6
CONTINUOUS
10
7.0536551968503938
20
-3.8556904724409446
11
7.063969094488189
21
-3.8512105118110234
0
LINE
8
BLACK
6
CONTINUOUS
10
7.063969094488189
20
-3.8512105118110234
11
7.0735768897637792
21
-3.8453678740157478
0
LINE
8
BLACK
6
CONTINUOUS
10
7.0735768897637792
20
-3.8453678740157478
11
7.0822996456692913
21
-3.838271377952756
0
LINE
8
BLACK
6
CONTINUOUS
10
7.0822996456692913
20
-3.838271377952756
11
7.0899748425196849
21
-3.8300532677165355
0
LINE
8
BLACK
6
CONTINUOUS
10
7.0899748425196849
20
-3.8300532677165355
11
7.0964595275590545
21
-3.8208665748031496
0
LINE
8
BLACK
6
CONTINUOUS
10
7.0964595275590545
20
-3.8208665748031496
11
7.1016328740157482
21
-3.8108824409448818
0
LINE
8
BLACK
6
CONTINUOUS
10
7.1016328740157482
20
-3.8108824409448818
11
7.1053985433070865
21
-3.8002868897637794
0
LINE
8
BLACK
6
CONTINUOUS
10
7.1053985433070865
20
-3.8002868897637794
11
7.1076863779527555
21
-3.789277244094488
0
LINE
8
BLACK
6
CONTINUOUS
10
7.1076863779527555
20
-3.789277244094488
11
7.1084537401574801
21
-3.7780586220472441
0
LINE
8
BLACK
6
CONTINUOUS
10
7.1084537401574801
20
-3.7780586220472441
11
7.1076863779527555
21
-3.7668399999999997
0
LINE
8
BLACK
6
CONTINUOUS
10
7.1076863779527555
20
-3.7668399999999997
11
7.1053985433070865
21
-3.7558303543307088
0
LINE
8
BLACK
6
CONTINUOUS
10
7.1053985433070865
20
-3.7558303543307088
11
7.1016328740157482
21
-3.7452348031496063
0
LINE
8
BLACK
6
CONTINUOUS
10
7.1016328740157482
20
-3.7452348031496063
11
7.0964595275590545
21
-3.7352506692913385
0
LINE
8
BLACK
6
CONTINUOUS
10
7.0964595275590545
20
-3.7352506692913385
11
7.0899748425196849
21
-3.7260639763779526
0
LINE
8
BLACK
6
CONTINUOUS
10
7.0899748425196849
20
-3.7260639763779526
11
7.0822996456692913
21
-3.7178458661417322
0
LINE
8
BLACK
6
CONTINUOUS
10
7.0822996456692913
20
-3.7178458661417322
11
7.0735768897637792
21
-3.71074937007874
0
LINE
8
BLACK
6
CONTINUOUS
10
7.0735768897637792
20
-3.71074937007874
11
7.063969094488189
21
-3.7049067322834643
0
LINE
8
BLACK
6
CONTINUOUS
10
7.063969094488189
20
-3.7049067322834643
11
7.0536551968503938
21
-3.7004267716535431
0
LINE
8
BLACK
6
CONTINUOUS
10
7.0536551968503938
20
-3.7004267716535431
11
7.0428273622047239
21
-3.6973929527559055
0
LINE
8
BLACK
6
CONTINUOUS
10
7.0428273622047239
20
-3.6973929527559055
11
7.0316872440944884
21
-3.6958618110236219
0
LINE
8
BLACK
6
CONTINUOUS
10
7.0316872440944884
20
-3.6958618110236219
11
7.0204424409448816
21
-3.6958618110236219
0
LINE
8
BLACK
6
CONTINUOUS
10
7.0204424409448816
20
-3.6958618110236219
11
7.0093023228346452
21
-3.6973929527559055
0
LINE
8
BLACK
6
CONTINUOUS
10
7.0093023228346452
20
-3.6973929527559055
11
6.9984744881889762
21
-3.7004267716535431
0
LINE
8
BLACK
6
CONTINUOUS
10
6.9984744881889762
20
-3.7004267716535431
11
6.988160590551181
21
-3.7049067322834643
0
LINE
8
BLACK
6
CONTINUOUS
10
6.988160590551181
20
-3.7049067322834643
11
6.9785527952755908
21
-3.71074937007874
0
LINE
8
BLACK
6
CONTINUOUS
10
6.9785527952755908
20
-3.71074937007874
11
6.9698300393700787
21
-3.7178458661417322
0
LINE
8
BLACK
6
CONTINUOUS
10
6.9698300393700787
20
-3.7178458661417322
11
6.9621548425196851
21
-3.7260639763779526
0
LINE
8
BLACK
6
CONTINUOUS
10
6.9621548425196851
20
-3.7260639763779526
11
6.9556701574803146
21
-3.7352506692913385
0
LINE
8
BLACK
6
CONTINUOUS
10
6.9556701574803146
20
-3.7352506692913385
11
6.9504968110236218
21
-3.7452348031496063
0
LINE
8
BLACK
6
CONTINUOUS
10
6.9504968110236218
20
-3.7452348031496063
11
6.9467311417322835
21
-3.7558303543307088
0
LINE
8
BLACK
6
CONTINUOUS
10
6.9467311417322835
20
-3.7558303543307088
11
6.9444433070866136
21
-3.7668399999999997
0
LINE
8
BLACK
6
CONTINUOUS
10
6.9444433070866136
20
-3.7668399999999997
11
6.9436759448818899
21
-3.7780586220472441
0
LINE
8
BLACK
6
CONTINUOUS
10
6.9436759448818899
20
-3.7780586220472441
11
6.9444433070866136
21
-3.789277244094488
0
LINE
8
BLACK
6
CONTINUOUS
10
7.1642436220472439
20
-3.6373781889763777
11
7.164372874015748
21
-3.6373554330708662
0
LINE
8
BLACK
6
CONTINUOUS
10
7.164372874015748
20
-3.6373554330708662
11
7.164486456692913
21
-3.6374210236220472
0
LINE
8
BLACK
6
CONTINUOUS
10
7.164486456692913
20
-3.6374210236220472
11
7.1648700393700784
21
-3.637488661417323
0
LINE
8
BLACK
6
CONTINUOUS
10
7.1648700393700784
20
-3.637488661417323
11
7.1654577165354327
21
-3.6379817716535432
0
LINE
8
BLACK
6
CONTINUOUS
10
7.1654577165354327
20
-3.6379817716535432
11
7.1661220472440945
21
-3.6383653543307086
0
LINE
8
BLACK
6
CONTINUOUS
10
7.1661220472440945
20
-3.6383653543307086
11
7.1662131496062988
21
-3.6386156692913385
0
LINE
8
BLACK
6
CONTINUOUS
10
7.1662131496062988
20
-3.6386156692913385
11
7.1664172834645665
21
-3.6387869685039371
0
LINE
8
BLACK
6
CONTINUOUS
10
7.1664172834645665
20
-3.6387869685039371
11
7.1665505118110238
21
-3.6395425196850395
0
LINE
8
BLACK
6
CONTINUOUS
10
7.1665505118110238
20
-3.6395425196850395
11
7.166812874015748
21
-3.6402633464566927
0
LINE
8
BLACK
6
CONTINUOUS
10
7.166812874015748
20
-3.6402633464566927
11
7.166812874015748
21
-3.915853897637795
0
LINE
8
BLACK
6
CONTINUOUS
10
7.166812874015748
20
-3.915853897637795
11
7.1667452362204722
21
-3.9162374015748029
0
LINE
8
BLACK
6
CONTINUOUS
10
7.1667452362204722
20
-3.9162374015748029
11
7.1667680314960629
21
-3.916366653543307
0
LINE
8
BLACK
6
CONTINUOUS
10
7.1667680314960629
20
-3.916366653543307
11
7.1667024015748026
21
-3.9164802362204725
0
LINE
8
BLACK
6
CONTINUOUS
10
7.1667024015748026
20
-3.9164802362204725
11
7.1666348031496065
21
-3.9168638188976379
0
LINE
8
BLACK
6
CONTINUOUS
10
7.1666348031496065
20
-3.9168638188976379
11
7.1661416535433071
21
-3.9174514960629923
0
LINE
8
BLACK
6
CONTINUOUS
10
7.1661416535433071
20
-3.9174514960629923
11
7.1657581102362204
21
-3.9181158267716536
0
LINE
8
BLACK
6
CONTINUOUS
10
7.1657581102362204
20
-3.9181158267716536
11
7.1655077559055114
21
-3.9182069291338584
0
LINE
8
BLACK
6
CONTINUOUS
10
7.1655077559055114
20
-3.9182069291338584
11
7.1653364960629924
21
-3.918411062992126
0
LINE
8
BLACK
6
CONTINUOUS
10
7.1653364960629924
20
-3.918411062992126
11
7.1645809055118113
21
-3.9185442913385824
0
LINE
8
BLACK
6
CONTINUOUS
10
7.1645809055118113
20
-3.9185442913385824
11
7.1638601181102359
21
-3.918806653543307
0
LINE
8
BLACK
6
CONTINUOUS
10
7.1638601181102359
20
-3.918806653543307
11
6.8882695669291341
21
-3.918806653543307
0
LINE
8
BLACK
6
CONTINUOUS
10
6.8882695669291341
20
-3.918806653543307
11
6.8878860236220474
21
-3.9187390157480313
0
LINE
8
BLACK
6
CONTINUOUS
10
6.8878860236220474
20
-3.9187390157480313
11
6.887756811023622
21
-3.918761811023622
0
LINE
8
BLACK
6
CONTINUOUS
10
6.887756811023622
20
-3.918761811023622
11
6.8876431889763774
21
-3.9186961811023622
0
LINE
8
BLACK
6
CONTINUOUS
10
6.8876431889763774
20
-3.9186961811023622
11
6.8872596456692916
21
-3.9186285826771652
0
LINE
8
BLACK
6
CONTINUOUS
10
6.8872596456692916
20
-3.9186285826771652
11
6.8866719291338585
21
-3.9181354330708662
0
LINE
8
BLACK
6
CONTINUOUS
10
6.8866719291338585
20
-3.9181354330708662
11
6.8860076377952755
21
-3.9177518897637795
0
LINE
8
BLACK
6
CONTINUOUS
10
6.8860076377952755
20
-3.9177518897637795
11
6.8859164960629924
21
-3.9175015354330709
0
LINE
8
BLACK
6
CONTINUOUS
10
6.8859164960629924
20
-3.9175015354330709
11
6.8857124015748026
21
-3.917330275590551
0
LINE
8
BLACK
6
CONTINUOUS
10
6.8857124015748026
20
-3.917330275590551
11
6.8855791338582675
21
-3.9165746850393699
0
LINE
8
BLACK
6
CONTINUOUS
10
6.8855791338582675
20
-3.9165746850393699
11
6.885316811023622
21
-3.915853897637795
0
LINE
8
BLACK
6
CONTINUOUS
10
6.885316811023622
20
-3.915853897637795
11
6.885316811023622
21
-3.6402633464566927
0
LINE
8
BLACK
6
CONTINUOUS
10
6.885316811023622
20
-3.6402633464566927
11
6.885384409448819
21
-3.639879803149606
0
LINE
8
BLACK
6
CONTINUOUS
10
6.885384409448819
20
-3.639879803149606
11
6.8853616535433071
21
-3.6397505905511811
0
LINE
8
BLACK
6
CONTINUOUS
10
6.8853616535433071
20
-3.6397505905511811
11
6.8854272440944877
21
-3.6396369685039369
0
LINE
8
BLACK
6
CONTINUOUS
10
6.8854272440944877
20
-3.6396369685039369
11
6.8854948818897634
21
-3.6392534251968502
0
LINE
8
BLACK
6
CONTINUOUS
10
6.8854948818897634
20
-3.6392534251968502
11
6.8859879921259841
21
-3.6386657086614171
0
LINE
8
BLACK
6
CONTINUOUS
10
6.8859879921259841
20
-3.6386657086614171
11
6.8863715748031495
21
-3.6380014173228346
0
LINE
8
BLACK
6
CONTINUOUS
10
6.8863715748031495
20
-3.6380014173228346
11
6.886621889763779
21
-3.637910275590551
0
LINE
8
BLACK
6
CONTINUOUS
10
6.886621889763779
20
-3.637910275590551
11
6.8867931889763776
21
-3.6377061811023621
0
LINE
8
BLACK
6
CONTINUOUS
10
6.8867931889763776
20
-3.6377061811023621
11
6.88754874015748
21
-3.6375729133858266
0
LINE
8
BLACK
6
CONTINUOUS
10
6.88754874015748
20
-3.6375729133858266
11
6.8882695669291341
21
-3.6373105905511811
0
LINE
8
BLACK
6
CONTINUOUS
10
6.8882695669291341
20
-3.6373105905511811
11
7.1638601181102359
21
-3.6373105905511811
0
LINE
8
BLACK
6
CONTINUOUS
10
7.1638601181102359
20
-3.6373105905511811
11
7.1642436220472439
21
-3.6373781889763777
0
LINE
8
BLACK
6
CONTINUOUS
10
6.8912223228346452
20
-3.6432161023622047
11
6.8912223228346452
21
-3.9129011417322834
0
LINE
8
BLACK
6
CONTINUOUS
10
6.8912223228346452
20
-3.9129011417322834
11
7.1609073622047239
21
-3.9129011417322834
0
LINE
8
BLACK
6
CONTINUOUS
10
7.1609073622047239
20
-3.9129011417322834
11
7.1609073622047239
21
-3.6432161023622047
0
LINE
8
BLACK
6
CONTINUOUS
10
7.1609073622047239
20
-3.6432161023622047
11
6.8912223228346452
21
-3.6432161023622047
0
LINE
8
BLACK
6
CONTINUOUS
10
5.3260648425196848
20
-3.275105866141732
11
5.4260648425196853
21
-3.275105866141732
0
LINE
8
BLACK
6
CONTINUOUS
10
5.4260648425196853
20
-3.275105866141732
11
5.4264483464566924
21
-3.275173464566929
0
LINE
8
BLACK
6
CONTINUOUS
10
5.4264483464566924
20
-3.275173464566929
11
5.4265775984251965
21
-3.2751507086614171
0
LINE
8
BLACK
6
CONTINUOUS
10
5.4265775984251965
20
-3.2751507086614171
11
5.4266911811023624
21
-3.2752162992125982
0
LINE
8
BLACK
6
CONTINUOUS
10
5.4266911811023624
20
-3.2752162992125982
11
5.4270747637795278
21
-3.2752839370078739
0
LINE
8
BLACK
6
CONTINUOUS
10
5.4270747637795278
20
-3.2752839370078739
11
5.4276624409448821
21
-3.2757770472440946
0
LINE
8
BLACK
6
CONTINUOUS
10
5.4276624409448821
20
-3.2757770472440946
11
5.428326771653543
21
-3.2761606299212596
0
LINE
8
BLACK
6
CONTINUOUS
10
5.428326771653543
20
-3.2761606299212596
11
5.4284178740157483
21
-3.2764109448818899
0
LINE
8
BLACK
6
CONTINUOUS
10
5.4284178740157483
20
-3.2764109448818899
11
5.4286220078740159
21
-3.2765822440944881
0
LINE
8
BLACK
6
CONTINUOUS
10
5.4286220078740159
20
-3.2765822440944881
11
5.4287552362204723
21
-3.2773377952755904
0
LINE
8
BLACK
6
CONTINUOUS
10
5.4287552362204723
20
-3.2773377952755904
11
5.4290175984251965
21
-3.2780586220472441
0
LINE
8
BLACK
6
CONTINUOUS
10
5.4290175984251965
20
-3.2780586220472441
11
5.4290175984251965
21
-3.4780586220472438
0
LINE
8
BLACK
6
CONTINUOUS
10
5.4290175984251965
20
-3.4780586220472438
11
5.4289499606299207
21
-3.4784421259842517
0
LINE
8
BLACK
6
CONTINUOUS
10
5.4289499606299207
20
-3.4784421259842517
11
5.4289727559055114
21
-3.4785713779527558
0
LINE
8
BLACK
6
CONTINUOUS
10
5.4289727559055114
20
-3.4785713779527558
11
5.4289071259842521
21
-3.4786849606299213
0
LINE
8
BLACK
6
CONTINUOUS
10
5.4289071259842521
20
-3.4786849606299213
11
5.4288395275590551
21
-3.4790685433070867
0
LINE
8
BLACK
6
CONTINUOUS
10
5.4288395275590551
20
-3.4790685433070867
11
5.4283463779527557
21
-3.4796562204724411
0
LINE
8
BLACK
6
CONTINUOUS
10
5.4283463779527557
20
-3.4796562204724411
11
5.427962834645669
21
-3.4803205511811024
0
LINE
8
BLACK
6
CONTINUOUS
10
5.427962834645669
20
-3.4803205511811024
11
5.4277124803149608
21
-3.4804116535433072
0
LINE
8
BLACK
6
CONTINUOUS
10
5.4277124803149608
20
-3.4804116535433072
11
5.4275412204724409
21
-3.4806157874015748
0
LINE
8
BLACK
6
CONTINUOUS
10
5.4275412204724409
20
-3.4806157874015748
11
5.4267856299212598
21
-3.4807490157480316
0
LINE
8
BLACK
6
CONTINUOUS
10
5.4267856299212598
20
-3.4807490157480316
11
5.4260648425196853
21
-3.4810113779527558
0
LINE
8
BLACK
6
CONTINUOUS
10
5.4260648425196853
20
-3.4810113779527558
11
5.3260648425196848
21
-3.4810113779527558
0
LINE
8
BLACK
6
CONTINUOUS
10
5.3260648425196848
20
-3.4810113779527558
11
5.2260648425196852
21
-3.4810113779527558
0
LINE
8
BLACK
6
CONTINUOUS
10
5.2260648425196852
20
-3.4810113779527558
11
5.2256812992125985
21
-3.4809437401574801
0
LINE
8
BLACK
6
CONTINUOUS
10
5.2256812992125985
20
-3.4809437401574801
11
5.2255520866141731
21
-3.4809665354330708
0
LINE
8
BLACK
6
CONTINUOUS
10
5.2255520866141731
20
-3.4809665354330708
11
5.2254384645669294
21
-3.480900905511811
0
LINE
8
BLACK
6
CONTINUOUS
10
5.2254384645669294
20
-3.480900905511811
11
5.2250549212598427
21
-3.480833307086614
0
LINE
8
BLACK
6
CONTINUOUS
10
5.2250549212598427
20
-3.480833307086614
11
5.2244672047244096
21
-3.480340157480315
0
LINE
8
BLACK
6
CONTINUOUS
10
5.2244672047244096
20
-3.480340157480315
11
5.2238029133858266
21
-3.4799566141732283
0
LINE
8
BLACK
6
CONTINUOUS
10
5.2238029133858266
20
-3.4799566141732283
11
5.2237117716535435
21
-3.4797062598425197
0
LINE
8
BLACK
6
CONTINUOUS
10
5.2237117716535435
20
-3.4797062598425197
11
5.2235076771653546
21
-3.4795349999999998
0
LINE
8
BLACK
6
CONTINUOUS
10
5.2235076771653546
20
-3.4795349999999998
11
5.2233744094488186
21
-3.4787794094488187
0
LINE
8
BLACK
6
CONTINUOUS
10
5.2233744094488186
20
-3.4787794094488187
11
5.2231120866141731
21
-3.4780586220472438
0
LINE
8
BLACK
6
CONTINUOUS
10
5.2231120866141731
20
-3.4780586220472438
11
5.2231120866141731
21
-3.2780586220472441
0
LINE
8
BLACK
6
CONTINUOUS
10
5.2231120866141731
20
-3.2780586220472441
11
5.2231796850393701
21
-3.2776750787401574
0
LINE
8
BLACK
6
CONTINUOUS
10
5.2231796850393701
20
-3.2776750787401574
11
5.2231569291338582
21
-3.277545866141732
0
LINE
8
BLACK
6
CONTINUOUS
10
5.2231569291338582
20
-3.277545866141732
11
5.2232225196850388
21
-3.2774322440944883
0
LINE
8
BLACK
6
CONTINUOUS
10
5.2232225196850388
20
-3.2774322440944883
11
5.2232901574803146
21
-3.2770487007874016
0
LINE
8
BLACK
6
CONTINUOUS
10
5.2232901574803146
20
-3.2770487007874016
11
5.2237832677165352
21
-3.2764609842519685
0
LINE
8
BLACK
6
CONTINUOUS
10
5.2237832677165352
20
-3.2764609842519685
11
5.2241668503937007
21
-3.2757966929133859
0
LINE
8
BLACK
6
CONTINUOUS
10
5.2241668503937007
20
-3.2757966929133859
11
5.224417165354331
21
-3.2757055511811024
0
LINE
8
BLACK
6
CONTINUOUS
10
5.224417165354331
20
-3.2757055511811024
11
5.2245884645669287
21
-3.2755014566929135
0
LINE
8
BLACK
6
CONTINUOUS
10
5.2245884645669287
20
-3.2755014566929135
11
5.2253440157480311
21
-3.2753681889763779
0
LINE
8
BLACK
6
CONTINUOUS
10
5.2253440157480311
20
-3.2753681889763779
11
5.2260648425196852
21
-3.275105866141732
0
LINE
8
BLACK
6
CONTINUOUS
10
5.2260648425196852
20
-3.275105866141732
11
5.3260648425196848
21
-3.275105866141732
0
LINE
8
BLACK
6
CONTINUOUS
10
5.3290175984251968
20
-3.2810113779527557
11
5.3290175984251968
21
-3.4751058661417322
0
LINE
8
BLACK
6
CONTINUOUS
10
5.3290175984251968
20
-3.4751058661417322
11
5.4231120866141733
21
-3.4751058661417322
0
LINE
8
BLACK
6
CONTINUOUS
10
5.4231120866141733
20
-3.4751058661417322
11
5.4231120866141733
21
-3.2810113779527557
0
LINE
8
BLACK
6
CONTINUOUS
10
5.4231120866141733
20
-3.2810113779527557
11
5.3290175984251968
21
-3.2810113779527557
0
LINE
8
BLACK
6
CONTINUOUS
10
5.2290175984251963
20
-3.2810113779527557
11
5.2290175984251963
21
-3.4751058661417322
0
LINE
8
BLACK
6
CONTINUOUS
10
5.2290175984251963
20
-3.4751058661417322
11
5.3231120866141728
21
-3.4751058661417322
0
LINE
8
BLACK
6
CONTINUOUS
10
5.3231120866141728
20
-3.4751058661417322
11
5.3231120866141728
21
-3.2810113779527557
0
LINE
8
BLACK
6
CONTINUOUS
10
5.3231120866141728
20
-3.2810113779527557
11
5.2290175984251963
21
-3.2810113779527557
0
LINE
8
BLACK
6
CONTINUOUS
10
6.026064842519685
20
-3.275105866141732
11
6.1260648425196846
21
-3.275105866141732
0
LINE
8
BLACK
6
CONTINUOUS
10
6.1260648425196846
20
-3.275105866141732
11
6.1264483464566926
21
-3.275173464566929
0
LINE
8
BLACK
6
CONTINUOUS
10
6.1264483464566926
20
-3.275173464566929
11
6.1265775984251967
21
-3.2751507086614171
0
LINE
8
BLACK
6
CONTINUOUS
10
6.1265775984251967
20
-3.2751507086614171
11
6.1266911811023617
21
-3.2752162992125982
0
LINE
8
BLACK
6
CONTINUOUS
10
6.1266911811023617
20
-3.2752162992125982
11
6.1270747637795271
21
-3.2752839370078739
0
LINE
8
BLACK
6
CONTINUOUS
10
6.1270747637795271
20
-3.2752839370078739
11
6.1276624409448814
21
-3.2757770472440946
0
LINE
8
BLACK
6
CONTINUOUS
10
6.1276624409448814
20
-3.2757770472440946
11
6.1283267716535432
21
-3.2761606299212596
0
LINE
8
BLACK
6
CONTINUOUS
10
6.1283267716535432
20
-3.2761606299212596
11
6.1284178740157476
21
-3.2764109448818899
0
LINE
8
BLACK
6
CONTINUOUS
10
6.1284178740157476
20
-3.2764109448818899
11
6.1286220078740152
21
-3.2765822440944881
0
LINE
8
BLACK
6
CONTINUOUS
10
6.1286220078740152
20
-3.2765822440944881
11
6.1287552362204725
21
-3.2773377952755904
0
LINE
8
BLACK
6
CONTINUOUS
10
6.1287552362204725
20
-3.2773377952755904
11
6.1290175984251967
21
-3.2780586220472441
0
LINE
8
BLACK
6
CONTINUOUS
10
6.1290175984251967
20
-3.2780586220472441
11
6.1290175984251967
21
-3.4780586220472438
0
LINE
8
BLACK
6
CONTINUOUS
10
6.1290175984251967
20
-3.4780586220472438
11
6.1289499606299209
21
-3.4784421259842517
0
LINE
8
BLACK
6
CONTINUOUS
10
6.1289499606299209
20
-3.4784421259842517
11
6.1289727559055116
21
-3.4785713779527558
0
LINE
8
BLACK
6
CONTINUOUS
10
6.1289727559055116
20
-3.4785713779527558
11
6.1289071259842522
21
-3.4786849606299213
0
LINE
8
BLACK
6
CONTINUOUS
10
6.1289071259842522
20
-3.4786849606299213
11
6.1288395275590553
21
-3.4790685433070867
0
LINE
8
BLACK
6
CONTINUOUS
10
6.1288395275590553
20
-3.4790685433070867
11
6.1283463779527558
21
-3.4796562204724411
0
LINE
8
BLACK
6
CONTINUOUS
10
6.1283463779527558
20
-3.4796562204724411
11
6.1279628346456692
21
-3.4803205511811024
0
LINE
8
BLACK
6
CONTINUOUS
10
6.1279628346456692
20
-3.4803205511811024
11
6.1277124803149601
21
-3.4804116535433072
0
LINE
8
BLACK
6
CONTINUOUS
10
6.1277124803149601
20
-3.4804116535433072
11
6.1275412204724411
21
-3.4806157874015748
0
LINE
8
BLACK
6
CONTINUOUS
10
6.1275412204724411
20
-3.4806157874015748
11
6.12678562992126
21
-3.4807490157480316
0
LINE
8
BLACK
6
CONTINUOUS
10
6.12678562992126
20
-3.4807490157480316
11
6.1260648425196846
21
-3.4810113779527558
0
LINE
8
BLACK
6
CONTINUOUS
10
6.1260648425196846
20
-3.4810113779527558
11
6.026064842519685
21
-3.4810113779527558
0
LINE
8
BLACK
6
CONTINUOUS
10
6.026064842519685
20
-3.4810113779527558
11
5.9260648425196845
21
-3.4810113779527558
0
LINE
8
BLACK
6
CONTINUOUS
10
5.9260648425196845
20
-3.4810113779527558
11
5.9256812992125987
21
-3.4809437401574801
0
LINE
8
BLACK
6
CONTINUOUS
10
5.9256812992125987
20
-3.4809437401574801
11
5.9255520866141733
21
-3.4809665354330708
0
LINE
8
BLACK
6
CONTINUOUS
10
5.9255520866141733
20
-3.4809665354330708
11
5.9254384645669287
21
-3.480900905511811
0
LINE
8
BLACK
6
CONTINUOUS
10
5.9254384645669287
20
-3.480900905511811
11
5.925054921259842
21
-3.480833307086614
0
LINE
8
BLACK
6
CONTINUOUS
10
5.925054921259842
20
-3.480833307086614
11
5.9244672047244089
21
-3.480340157480315
0
LINE
8
BLACK
6
CONTINUOUS
10
5.9244672047244089
20
-3.480340157480315
11
5.9238029133858268
21
-3.4799566141732283
0
LINE
8
BLACK
6
CONTINUOUS
10
5.9238029133858268
20
-3.4799566141732283
11
5.9237117716535428
21
-3.4797062598425197
0
LINE
8
BLACK
6
CONTINUOUS
10
5.9237117716535428
20
-3.4797062598425197
11
5.9235076771653539
21
-3.4795349999999998
0
LINE
8
BLACK
6
CONTINUOUS
10
5.9235076771653539
20
-3.4795349999999998
11
5.9233744094488188
21
-3.4787794094488187
0
LINE
8
BLACK
6
CONTINUOUS
10
5.9233744094488188
20
-3.4787794094488187
11
5.9231120866141733
21
-3.4780586220472438
0
LINE
8
BLACK
6
CONTINUOUS
10
5.9231120866141733
20
-3.4780586220472438
11
5.9231120866141733
21
-3.2780586220472441
0
LINE
8
BLACK
6
CONTINUOUS
10
5.9231120866141733
20
-3.2780586220472441
11
5.9231796850393703
21
-3.2776750787401574
0
LINE
8
BLACK
6
CONTINUOUS
10
5.9231796850393703
20
-3.2776750787401574
11
5.9231569291338584
21
-3.277545866141732
0
LINE
8
BLACK
6
CONTINUOUS
10
5.9231569291338584
20
-3.277545866141732
11
5.923222519685039
21
-3.2774322440944883
0
LINE
8
BLACK
6
CONTINUOUS
10
5.923222519685039
20
-3.2774322440944883
11
5.9232901574803147
21
-3.2770487007874016
0
LINE
8
BLACK
6
CONTINUOUS
10
5.9232901574803147
20
-3.2770487007874016
11
5.9237832677165354
21
-3.2764609842519685
0
LINE
8
BLACK
6
CONTINUOUS
10
5.9237832677165354
20
-3.2764609842519685
11
5.9241668503937008
21
-3.2757966929133859
0
LINE
8
BLACK
6
CONTINUOUS
10
5.9241668503937008
20
-3.2757966929133859
11
5.9244171653543303
21
-3.2757055511811024
0
LINE
8
BLACK
6
CONTINUOUS
10
5.9244171653543303
20
-3.2757055511811024
11
5.9245884645669289
21
-3.2755014566929135
0
LINE
8
BLACK
6
CONTINUOUS
10
5.9245884645669289
20
-3.2755014566929135
11
5.9253440157480313
21
-3.2753681889763779
0
LINE
8
BLACK
6
CONTINUOUS
10
5.9253440157480313
20
-3.2753681889763779
11
5.9260648425196845
21
-3.275105866141732
0
LINE
8
BLACK
6
CONTINUOUS
10
5.9260648425196845
20
-3.275105866141732
11
6.026064842519685
21
-3.275105866141732
0
LINE
8
BLACK
6
CONTINUOUS
10
6.029017598425197
20
-3.2810113779527557
11
6.029017598425197
21
-3.4751058661417322
0
LINE
8
BLACK
6
CONTINUOUS
10
6.029017598425197
20
-3.4751058661417322
11
6.1231120866141735
21
-3.4751058661417322
0
LINE
8
BLACK
6
CONTINUOUS
10
6.1231120866141735
20
-3.4751058661417322
11
6.1231120866141735
21
-3.2810113779527557
0
LINE
8
BLACK
6
CONTINUOUS
10
6.1231120866141735
20
-3.2810113779527557
11
6.029017598425197
21
-3.2810113779527557
0
LINE
8
BLACK
6
CONTINUOUS
10
5.9290175984251965
20
-3.2810113779527557
11
5.9290175984251965
21
-3.4751058661417322
0
LINE
8
BLACK
6
CONTINUOUS
10
5.9290175984251965
20
-3.4751058661417322
11
6.023112086614173
21
-3.4751058661417322
0
LINE
8
BLACK
6
CONTINUOUS
10
6.023112086614173
20
-3.4751058661417322
11
6.023112086614173
21
-3.2810113779527557
0
LINE
8
BLACK
6
CONTINUOUS
10
6.023112086614173
20
-3.2810113779527557
11
5.9290175984251965
21
-3.2810113779527557
  0
ENDSEC
  0
EOF
