  0
SECTION
  2
HEADER
  9
$ANGBASE
  50
0.0
  9
$ANGDIR
  70
1
  9
$MEASUREMENT
  70
0
  0
ENDSEC
  0
SECTION
  2
TABLES
  0
TABLE
  2
LTYPE
  70
4
  0
LTYPE
  5
40F
  2
CONTINUOUS
  70
0
  3
Solid line
  72
65
  73
0
  40
0.0
  0
LTYPE
  5
410
  2
DASHDOT
 70
0
  3
Dash Dot ____ _ ____ _
 72
65
 73
4
 40
2.0
 49
1.25
 49
-0.25
 49
0.25
 49
-0.25
  0
LTYPE
  5
411
  2
DASHED
 70
0
  3
Dashed __ __ __ __ __
 72
65
 73
2
 40
0.75
 49
0.5
 49
-0.25
  0
LTYPE
  5
43B
  2
DOTTED
 70
0
  3
Dotted .  .  .  .
 72
65
 73
2
 40
0.2
 49
0.0
 49
-0.2
  0
ENDTAB
  0
TABLE
  2
STYLE
  70
4
  0
STYLE
  2
KICAD
  70
0
  40
0
  41
1
  42
1
  50
0
  71
0
  3
isocp.shx
  0
STYLE
  2
KICADB
  70
0
  40
0
  41
1
  42
1
  50
0
  71
0
  3
isocp.shx
  0
STYLE
  2
KICADI
  70
0
  40
0
  41
1
  42
1
  50
15
  71
0
  3
isocp.shx
  0
STYLE
  2
KICADBI
  70
0
  40
0
  41
1
  42
1
  50
15
  71
0
  3
isocp.shx
  0
ENDTAB
  0
TABLE
  2
LAYER
  70
1
  0
LAYER
  2
BLACK
  70
0
  62
7
  6
CONTINUOUS
  0
ENDTAB
  0
ENDSEC
  0
SECTION
  2
ENTITIES
0
LINE
8
BLACK
6
CONTINUOUS
10
2.0022619291338581
20
0.3822129527559055
11
2.0029527559055116
21
0.3803149606299213
0
LINE
8
BLACK
6
CONTINUOUS
10
2.0029527559055116
20
0.3803149606299213
11
2.0029527559055116
21
-0.0230874015748031
0
LINE
8
BLACK
6
CONTINUOUS
10
2.0029527559055116
20
-0.0230874015748031
11
2.0027746850393702
21
-0.0240973228346457
0
LINE
8
BLACK
6
CONTINUOUS
10
2.0027746850393702
20
-0.0240973228346457
11
2.001476377952756
21
-0.0256445669291339
0
LINE
8
BLACK
6
CONTINUOUS
10
2.001476377952756
20
-0.0256445669291339
11
1.9994872440944882
21
-0.0259953149606299
0
LINE
8
BLACK
6
CONTINUOUS
10
1.9994872440944882
20
-0.0259953149606299
11
1.9977380708661416
21
-0.0249853937007874
0
LINE
8
BLACK
6
CONTINUOUS
10
1.9977380708661416
20
-0.0249853937007874
11
1.9970472440944882
21
-0.0230874015748031
0
LINE
8
BLACK
6
CONTINUOUS
10
1.9970472440944882
20
-0.0230874015748031
11
1.9970472440944882
21
-0.0048659842519685
0
LINE
8
BLACK
6
CONTINUOUS
10
1.9970472440944882
20
-0.0048659842519685
11
1.957012874015748
21
-0.0257065748031496
0
LINE
8
BLACK
6
CONTINUOUS
10
1.957012874015748
20
-0.0257065748031496
11
1.956034842519685
21
-0.0260149606299213
0
LINE
8
BLACK
6
CONTINUOUS
10
1.956034842519685
20
-0.0260149606299213
11
1.9540629133858267
21
-0.0255777559055118
0
LINE
8
BLACK
6
CONTINUOUS
10
1.9540629133858267
20
-0.0255777559055118
11
1.9528333464566929
21
-0.0239753543307087
0
LINE
8
BLACK
6
CONTINUOUS
10
1.9528333464566929
20
-0.0239753543307087
11
1.9529214566929134
21
-0.0219574803149606
0
LINE
8
BLACK
6
CONTINUOUS
10
1.9529214566929134
20
-0.0219574803149606
11
1.9542860236220472
21
-0.0204683070866142
0
LINE
8
BLACK
6
CONTINUOUS
10
1.9542860236220472
20
-0.0204683070866142
11
1.9879330708661418
21
-0.0029527559055118
0
LINE
8
BLACK
6
CONTINUOUS
10
1.9879330708661418
20
-0.0029527559055118
11
0.4120669291338583
21
-0.0029527559055118
0
LINE
8
BLACK
6
CONTINUOUS
10
0.4120669291338583
20
-0.0029527559055118
11
0.4457139763779527
21
-0.0204683070866142
0
LINE
8
BLACK
6
CONTINUOUS
10
0.4457139763779527
20
-0.0204683070866142
11
0.4465275590551181
21
-0.0210925984251969
0
LINE
8
BLACK
6
CONTINUOUS
10
0.4465275590551181
20
-0.0210925984251969
11
0.4473004724409449
21
-0.0229586220472441
0
LINE
8
BLACK
6
CONTINUOUS
10
0.4473004724409449
20
-0.0229586220472441
11
0.4466931102362204
21
-0.0248849606299213
0
LINE
8
BLACK
6
CONTINUOUS
10
0.4466931102362204
20
-0.0248849606299213
11
0.4449896456692913
21
-0.0259701968503937
0
LINE
8
BLACK
6
CONTINUOUS
10
0.4449896456692913
20
-0.0259701968503937
11
0.4429871259842519
21
-0.0257065748031496
0
LINE
8
BLACK
6
CONTINUOUS
10
0.4429871259842519
20
-0.0257065748031496
11
0.4029527559055118
21
-0.0048659842519685
0
LINE
8
BLACK
6
CONTINUOUS
10
0.4029527559055118
20
-0.0048659842519685
11
0.4029527559055118
21
-0.0230874015748031
0
LINE
8
BLACK
6
CONTINUOUS
10
0.4029527559055118
20
-0.0230874015748031
11
0.4027746850393701
21
-0.0240973228346457
0
LINE
8
BLACK
6
CONTINUOUS
10
0.4027746850393701
20
-0.0240973228346457
11
0.4014763779527559
21
-0.0256445669291339
0
LINE
8
BLACK
6
CONTINUOUS
10
0.4014763779527559
20
-0.0256445669291339
11
0.3994872440944882
21
-0.0259953149606299
0
LINE
8
BLACK
6
CONTINUOUS
10
0.3994872440944882
20
-0.0259953149606299
11
0.3977380708661417
21
-0.0249853937007874
0
LINE
8
BLACK
6
CONTINUOUS
10
0.3977380708661417
20
-0.0249853937007874
11
0.3970472440944882
21
-0.0230874015748031
0
LINE
8
BLACK
6
CONTINUOUS
10
0.3970472440944882
20
-0.0230874015748031
11
0.3970472440944882
21
0.3803149606299213
0
LINE
8
BLACK
6
CONTINUOUS
10
0.3970472440944882
20
0.3803149606299213
11
0.3972253149606299
21
0.3813248818897638
0
LINE
8
BLACK
6
CONTINUOUS
10
0.3972253149606299
20
0.3813248818897638
11
0.3985236220472441
21
0.382872125984252
0
LINE
8
BLACK
6
CONTINUOUS
10
0.3985236220472441
20
0.382872125984252
11
0.4005127559055118
21
0.383222874015748
0
LINE
8
BLACK
6
CONTINUOUS
10
0.4005127559055118
20
0.383222874015748
11
0.4022619291338583
21
0.3822129527559055
0
LINE
8
BLACK
6
CONTINUOUS
10
0.4022619291338583
20
0.3822129527559055
11
0.4029527559055118
21
0.3803149606299213
0
LINE
8
BLACK
6
CONTINUOUS
10
0.4029527559055118
20
0.3803149606299213
11
0.4029527559055118
21
0.0048660236220472
0
LINE
8
BLACK
6
CONTINUOUS
10
0.4029527559055118
20
0.0048660236220472
11
0.4429871259842519
21
0.0257065748031496
0
LINE
8
BLACK
6
CONTINUOUS
10
0.4429871259842519
20
0.0257065748031496
11
0.443965157480315
21
0.0260149212598425
0
LINE
8
BLACK
6
CONTINUOUS
10
0.443965157480315
20
0.0260149212598425
11
0.4459370472440945
21
0.0255777559055118
0
LINE
8
BLACK
6
CONTINUOUS
10
0.4459370472440945
20
0.0255777559055118
11
0.4471666535433071
21
0.0239753543307087
0
LINE
8
BLACK
6
CONTINUOUS
10
0.4471666535433071
20
0.0239753543307087
11
0.4470785039370079
21
0.0219574803149606
0
LINE
8
BLACK
6
CONTINUOUS
10
0.4470785039370079
20
0.0219574803149606
11
0.4457139763779527
21
0.0204683070866142
0
LINE
8
BLACK
6
CONTINUOUS
10
0.4457139763779527
20
0.0204683070866142
11
0.4120669291338583
21
0.0029527559055118
0
LINE
8
BLACK
6
CONTINUOUS
10
0.4120669291338583
20
0.0029527559055118
11
1.9879330708661418
21
0.0029527559055118
0
LINE
8
BLACK
6
CONTINUOUS
10
1.9879330708661418
20
0.0029527559055118
11
1.9542860236220472
21
0.0204683070866142
0
LINE
8
BLACK
6
CONTINUOUS
10
1.9542860236220472
20
0.0204683070866142
11
1.9534724409448818
21
0.0210925984251969
0
LINE
8
BLACK
6
CONTINUOUS
10
1.9534724409448818
20
0.0210925984251969
11
1.9526994881889763
21
0.0229586614173228
0
LINE
8
BLACK
6
CONTINUOUS
10
1.9526994881889763
20
0.0229586614173228
11
1.9533068503937008
21
0.024885
0
LINE
8
BLACK
6
CONTINUOUS
10
1.9533068503937008
20
0.024885
11
1.9550103543307087
21
0.0259701968503937
0
LINE
8
BLACK
6
CONTINUOUS
10
1.9550103543307087
20
0.0259701968503937
11
1.957012874015748
21
0.0257065748031496
0
LINE
8
BLACK
6
CONTINUOUS
10
1.957012874015748
20
0.0257065748031496
11
1.9970472440944882
21
0.0048660236220472
0
LINE
8
BLACK
6
CONTINUOUS
10
1.9970472440944882
20
0.0048660236220472
11
1.9970472440944882
21
0.3803149606299213
0
LINE
8
BLACK
6
CONTINUOUS
10
1.9970472440944882
20
0.3803149606299213
11
1.9972253149606298
21
0.3813248818897638
0
LINE
8
BLACK
6
CONTINUOUS
10
1.9972253149606298
20
0.3813248818897638
11
1.998523622047244
21
0.382872125984252
0
LINE
8
BLACK
6
CONTINUOUS
10
1.998523622047244
20
0.382872125984252
11
2.0005127559055116
21
0.383222874015748
0
LINE
8
BLACK
6
CONTINUOUS
10
2.0005127559055116
20
0.383222874015748
11
2.0022619291338581
21
0.3822129527559055
0
LINE
8
BLACK
6
CONTINUOUS
10
1.0697763385826771
20
0.069514094488189
11
1.0699115748031496
21
0.0694006299212598
0
LINE
8
BLACK
6
CONTINUOUS
10
1.0699115748031496
20
0.0694006299212598
11
1.0700869291338582
21
0.0693804330708661
0
LINE
8
BLACK
6
CONTINUOUS
10
1.0700869291338582
20
0.0693804330708661
11
1.0738364566929133
21
0.0675056692913386
0
LINE
8
BLACK
6
CONTINUOUS
10
1.0738364566929133
20
0.0675056692913386
11
1.0745455118110236
21
0.0669797637795276
0
LINE
8
BLACK
6
CONTINUOUS
10
1.0745455118110236
20
0.0669797637795276
11
1.0746038582677164
21
0.0669525590551181
0
LINE
8
BLACK
6
CONTINUOUS
10
1.0746038582677164
20
0.0669525590551181
11
1.076478622047244
21
0.0650777952755905
0
LINE
8
BLACK
6
CONTINUOUS
10
1.076478622047244
20
0.0650777952755905
11
1.0769848818897638
21
0.0643547244094488
0
LINE
8
BLACK
6
CONTINUOUS
10
1.0769848818897638
20
0.0643547244094488
11
1.0770317322834646
21
0.0643103937007874
0
LINE
8
BLACK
6
CONTINUOUS
10
1.0770317322834646
20
0.0643103937007874
11
1.0789064960629922
21
0.0605608661417323
0
LINE
8
BLACK
6
CONTINUOUS
10
1.0789064960629922
20
0.0605608661417323
11
1.0790517716535433
21
0.0600724409448819
0
LINE
8
BLACK
6
CONTINUOUS
10
1.0790517716535433
20
0.0600724409448819
11
1.0791300787401574
21
0.0599564960629921
0
LINE
8
BLACK
6
CONTINUOUS
10
1.0791300787401574
20
0.0599564960629921
11
1.081004842519685
21
0.0524574409448819
0
LINE
8
BLACK
6
CONTINUOUS
10
1.081004842519685
20
0.0524574409448819
11
1.0810462992125984
21
0.0518695669291339
0
LINE
8
BLACK
6
CONTINUOUS
10
1.0810462992125984
20
0.0518695669291339
11
1.0810929921259842
21
0.0517412992125984
0
LINE
8
BLACK
6
CONTINUOUS
10
1.0810929921259842
20
0.0517412992125984
11
1.0810929921259842
21
0.0423674803149606
0
LINE
8
BLACK
6
CONTINUOUS
10
1.0810929921259842
20
0.0423674803149606
11
1.0809906299212597
21
0.041787125984252
0
LINE
8
BLACK
6
CONTINUOUS
10
1.0809906299212597
20
0.041787125984252
11
1.081004842519685
21
0.0416513385826772
0
LINE
8
BLACK
6
CONTINUOUS
10
1.081004842519685
20
0.0416513385826772
11
1.0791300787401574
21
0.0341522834645669
0
LINE
8
BLACK
6
CONTINUOUS
10
1.0791300787401574
20
0.0341522834645669
11
1.0789224803149606
21
0.0336868503937008
0
LINE
8
BLACK
6
CONTINUOUS
10
1.0789224803149606
20
0.0336868503937008
11
1.0789064960629922
21
0.0335479133858268
0
LINE
8
BLACK
6
CONTINUOUS
10
1.0789064960629922
20
0.0335479133858268
11
1.0770317322834646
21
0.0297983858267717
0
LINE
8
BLACK
6
CONTINUOUS
10
1.0770317322834646
20
0.0297983858267717
11
1.0765057874015749
21
0.0290893307086614
0
LINE
8
BLACK
6
CONTINUOUS
10
1.0765057874015749
20
0.0290893307086614
11
1.076478622047244
21
0.0290309842519685
0
LINE
8
BLACK
6
CONTINUOUS
10
1.076478622047244
20
0.0290309842519685
11
1.0746038976377952
21
0.0271562204724409
0
LINE
8
BLACK
6
CONTINUOUS
10
1.0746038976377952
20
0.0271562204724409
11
1.0738807086614173
21
0.026649842519685
0
LINE
8
BLACK
6
CONTINUOUS
10
1.0738807086614173
20
0.026649842519685
11
1.0738364566929133
21
0.0266030708661417
0
LINE
8
BLACK
6
CONTINUOUS
10
1.0738364566929133
20
0.0266030708661417
11
1.0700869291338582
21
0.0247283070866142
0
LINE
8
BLACK
6
CONTINUOUS
10
1.0700869291338582
20
0.0247283070866142
11
1.0691039763779526
21
0.0244359448818898
0
LINE
8
BLACK
6
CONTINUOUS
10
1.0691039763779526
20
0.0244359448818898
11
1.0689322834645669
21
0.024476968503937
0
LINE
8
BLACK
6
CONTINUOUS
10
1.0689322834645669
20
0.024476968503937
11
1.0687664173228346
21
0.0244165748031496
0
LINE
8
BLACK
6
CONTINUOUS
10
1.0687664173228346
20
0.0244165748031496
11
1.0650168897637795
21
0.0244165748031496
0
LINE
8
BLACK
6
CONTINUOUS
10
1.0650168897637795
20
0.0244165748031496
11
1.0640069685039371
21
0.0245946456692913
0
LINE
8
BLACK
6
CONTINUOUS
10
1.0640069685039371
20
0.0245946456692913
11
1.0638716929133858
21
0.0247081496062992
0
LINE
8
BLACK
6
CONTINUOUS
10
1.0638716929133858
20
0.0247081496062992
11
1.063696377952756
21
0.0247283070866142
0
LINE
8
BLACK
6
CONTINUOUS
10
1.063696377952756
20
0.0247283070866142
11
1.0599468503937008
21
0.0266030708661417
0
LINE
8
BLACK
6
CONTINUOUS
10
1.0599468503937008
20
0.0266030708661417
11
1.059237716535433
21
0.0271290551181102
0
LINE
8
BLACK
6
CONTINUOUS
10
1.059237716535433
20
0.0271290551181102
11
1.0591794094488189
21
0.0271562204724409
0
LINE
8
BLACK
6
CONTINUOUS
10
1.0591794094488189
20
0.0271562204724409
11
1.0573046456692914
21
0.0290310236220472
0
LINE
8
BLACK
6
CONTINUOUS
10
1.0573046456692914
20
0.0290310236220472
11
1.0567983464566928
21
0.029754094488189
0
LINE
8
BLACK
6
CONTINUOUS
10
1.0567983464566928
20
0.029754094488189
11
1.0567515748031495
21
0.0297983858267717
0
LINE
8
BLACK
6
CONTINUOUS
10
1.0567515748031495
20
0.0297983858267717
11
1.054876811023622
21
0.0335479133858268
0
LINE
8
BLACK
6
CONTINUOUS
10
1.054876811023622
20
0.0335479133858268
11
1.0547314960629921
21
0.0340363779527559
0
LINE
8
BLACK
6
CONTINUOUS
10
1.0547314960629921
20
0.0340363779527559
11
1.0546532283464567
21
0.0341522834645669
0
LINE
8
BLACK
6
CONTINUOUS
10
1.0546532283464567
20
0.0341522834645669
11
1.0527784645669291
21
0.0416513385826772
0
LINE
8
BLACK
6
CONTINUOUS
10
1.0527784645669291
20
0.0416513385826772
11
1.0527369685039369
21
0.0422392519685039
0
LINE
8
BLACK
6
CONTINUOUS
10
1.0527369685039369
20
0.0422392519685039
11
1.0526903149606299
21
0.0423674803149606
0
LINE
8
BLACK
6
CONTINUOUS
10
1.0526903149606299
20
0.0423674803149606
11
1.0526903149606299
21
0.0517412992125984
0
LINE
8
BLACK
6
CONTINUOUS
10
1.0526903149606299
20
0.0517412992125984
11
1.0527926377952757
21
0.0523216929133858
0
LINE
8
BLACK
6
CONTINUOUS
10
1.0527926377952757
20
0.0523216929133858
11
1.0527784645669291
21
0.0524574409448819
0
LINE
8
BLACK
6
CONTINUOUS
10
1.0527784645669291
20
0.0524574409448819
11
1.0546532283464567
21
0.0599564960629921
0
LINE
8
BLACK
6
CONTINUOUS
10
1.0546532283464567
20
0.0599564960629921
11
1.0548607874015747
21
0.060421968503937
0
LINE
8
BLACK
6
CONTINUOUS
10
1.0548607874015747
20
0.060421968503937
11
1.054876811023622
21
0.0605608661417323
0
LINE
8
BLACK
6
CONTINUOUS
10
1.054876811023622
20
0.0605608661417323
11
1.0567515748031495
21
0.0643103937007874
0
LINE
8
BLACK
6
CONTINUOUS
10
1.0567515748031495
20
0.0643103937007874
11
1.0572774803149607
21
0.0650194881889764
0
LINE
8
BLACK
6
CONTINUOUS
10
1.0572774803149607
20
0.0650194881889764
11
1.0573046850393701
21
0.0650777952755905
0
LINE
8
BLACK
6
CONTINUOUS
10
1.0573046850393701
20
0.0650777952755905
11
1.0591794488188977
21
0.0669525590551181
0
LINE
8
BLACK
6
CONTINUOUS
10
1.0591794488188977
20
0.0669525590551181
11
1.0599025196850393
21
0.0674588582677165
0
LINE
8
BLACK
6
CONTINUOUS
10
1.0599025196850393
20
0.0674588582677165
11
1.0599468503937008
21
0.0675056692913386
0
LINE
8
BLACK
6
CONTINUOUS
10
1.0599468503937008
20
0.0675056692913386
11
1.063696377952756
21
0.0693804330708661
0
LINE
8
BLACK
6
CONTINUOUS
10
1.063696377952756
20
0.0693804330708661
11
1.0646792913385827
21
0.0696727952755905
0
LINE
8
BLACK
6
CONTINUOUS
10
1.0646792913385827
20
0.0696727952755905
11
1.0648509842519684
21
0.0696318110236221
0
LINE
8
BLACK
6
CONTINUOUS
10
1.0648509842519684
20
0.0696318110236221
11
1.0650168897637795
21
0.0696921653543307
0
LINE
8
BLACK
6
CONTINUOUS
10
1.0650168897637795
20
0.0696921653543307
11
1.0687664173228346
21
0.0696921653543307
0
LINE
8
BLACK
6
CONTINUOUS
10
1.0687664173228346
20
0.0696921653543307
11
1.0697763385826771
21
0.069514094488189
0
LINE
8
BLACK
6
CONTINUOUS
10
1.0630164566929134
20
0.0624379133858268
11
1.0618193307086614
21
0.0612407874015748
0
LINE
8
BLACK
6
CONTINUOUS
10
1.0618193307086614
20
0.0612407874015748
11
1.0603038188976377
21
0.0582098031496063
0
LINE
8
BLACK
6
CONTINUOUS
10
1.0603038188976377
20
0.0582098031496063
11
1.0585958267716535
21
0.0513777559055118
0
LINE
8
BLACK
6
CONTINUOUS
10
1.0585958267716535
20
0.0513777559055118
11
1.0585958267716535
21
0.0427310236220472
0
LINE
8
BLACK
6
CONTINUOUS
10
1.0585958267716535
20
0.0427310236220472
11
1.0603038188976377
21
0.0358989763779528
0
LINE
8
BLACK
6
CONTINUOUS
10
1.0603038188976377
20
0.0358989763779528
11
1.0618193307086614
21
0.0328679921259842
0
LINE
8
BLACK
6
CONTINUOUS
10
1.0618193307086614
20
0.0328679921259842
11
1.0630164566929134
21
0.0316708267716535
0
LINE
8
BLACK
6
CONTINUOUS
10
1.0630164566929134
20
0.0316708267716535
11
1.0657139370078741
21
0.0303220866141732
0
LINE
8
BLACK
6
CONTINUOUS
10
1.0657139370078741
20
0.0303220866141732
11
1.06806937007874
21
0.0303220866141732
0
LINE
8
BLACK
6
CONTINUOUS
10
1.06806937007874
20
0.0303220866141732
11
1.0707668110236219
21
0.0316708267716535
0
LINE
8
BLACK
6
CONTINUOUS
10
1.0707668110236219
20
0.0316708267716535
11
1.071963937007874
21
0.0328679921259842
0
LINE
8
BLACK
6
CONTINUOUS
10
1.071963937007874
20
0.0328679921259842
11
1.0734794488188977
21
0.0358989763779528
0
LINE
8
BLACK
6
CONTINUOUS
10
1.0734794488188977
20
0.0358989763779528
11
1.0751874803149606
21
0.0427310236220472
0
LINE
8
BLACK
6
CONTINUOUS
10
1.0751874803149606
20
0.0427310236220472
11
1.0751874803149606
21
0.0513777559055118
0
LINE
8
BLACK
6
CONTINUOUS
10
1.0751874803149606
20
0.0513777559055118
11
1.0734794488188977
21
0.0582098031496063
0
LINE
8
BLACK
6
CONTINUOUS
10
1.0734794488188977
20
0.0582098031496063
11
1.0719639763779527
21
0.0612407874015748
0
LINE
8
BLACK
6
CONTINUOUS
10
1.0719639763779527
20
0.0612407874015748
11
1.0707668503937007
21
0.0624379133858268
0
LINE
8
BLACK
6
CONTINUOUS
10
1.0707668503937007
20
0.0624379133858268
11
1.06806937007874
21
0.0637866535433071
0
LINE
8
BLACK
6
CONTINUOUS
10
1.06806937007874
20
0.0637866535433071
11
1.0657139370078741
21
0.0637866535433071
0
LINE
8
BLACK
6
CONTINUOUS
10
1.0657139370078741
20
0.0637866535433071
11
1.0630164566929134
21
0.0624379133858268
0
LINE
8
BLACK
6
CONTINUOUS
10
1.1316435826771654
20
0.069514094488189
11
1.1331908267716535
21
0.0682157874015748
0
LINE
8
BLACK
6
CONTINUOUS
10
1.1331908267716535
20
0.0682157874015748
11
1.1335415748031497
21
0.0662266535433071
0
LINE
8
BLACK
6
CONTINUOUS
10
1.1335415748031497
20
0.0662266535433071
11
1.132531653543307
21
0.0644774803149606
0
LINE
8
BLACK
6
CONTINUOUS
10
1.132531653543307
20
0.0644774803149606
11
1.1306336614173229
21
0.0637866535433071
0
LINE
8
BLACK
6
CONTINUOUS
10
1.1306336614173229
20
0.0637866535433071
11
1.1238316535433071
21
0.0637866535433071
0
LINE
8
BLACK
6
CONTINUOUS
10
1.1238316535433071
20
0.0637866535433071
11
1.1211341732283464
21
0.0624379133858268
0
LINE
8
BLACK
6
CONTINUOUS
10
1.1211341732283464
20
0.0624379133858268
11
1.1198049606299212
21
0.0611087401574803
0
LINE
8
BLACK
6
CONTINUOUS
10
1.1198049606299212
20
0.0611087401574803
11
1.1165013385826772
21
0.0561532677165354
0
LINE
8
BLACK
6
CONTINUOUS
10
1.1165013385826772
20
0.0561532677165354
11
1.1157720472440944
21
0.053236062992126
0
LINE
8
BLACK
6
CONTINUOUS
10
1.1157720472440944
20
0.053236062992126
11
1.1180645669291338
21
0.0543823228346457
0
LINE
8
BLACK
6
CONTINUOUS
10
1.1180645669291338
20
0.0543823228346457
11
1.1190474803149606
21
0.0546746850393701
0
LINE
8
BLACK
6
CONTINUOUS
10
1.1190474803149606
20
0.0546746850393701
11
1.1192191732283465
21
0.0546337007874016
0
LINE
8
BLACK
6
CONTINUOUS
10
1.1192191732283465
20
0.0546337007874016
11
1.1193850787401574
21
0.0546940551181102
0
LINE
8
BLACK
6
CONTINUOUS
10
1.1193850787401574
20
0.0546940551181102
11
1.1268841338582678
21
0.0546940551181102
0
LINE
8
BLACK
6
CONTINUOUS
10
1.1268841338582678
20
0.0546940551181102
11
1.1278940551181103
21
0.0545159842519685
0
LINE
8
BLACK
6
CONTINUOUS
10
1.1278940551181103
20
0.0545159842519685
11
1.1280292913385828
21
0.0544025196850394
0
LINE
8
BLACK
6
CONTINUOUS
10
1.1280292913385828
20
0.0544025196850394
11
1.1282046456692914
21
0.0543823228346457
0
LINE
8
BLACK
6
CONTINUOUS
10
1.1282046456692914
20
0.0543823228346457
11
1.1319541732283465
21
0.0525075590551181
0
LINE
8
BLACK
6
CONTINUOUS
10
1.1319541732283465
20
0.0525075590551181
11
1.1326632283464566
21
0.0519816535433071
0
LINE
8
BLACK
6
CONTINUOUS
10
1.1326632283464566
20
0.0519816535433071
11
1.1327215748031496
21
0.0519544488188976
0
LINE
8
BLACK
6
CONTINUOUS
10
1.1327215748031496
20
0.0519544488188976
11
1.1345963385826772
21
0.0500796850393701
0
LINE
8
BLACK
6
CONTINUOUS
10
1.1345963385826772
20
0.0500796850393701
11
1.1351025984251968
21
0.0493566141732283
0
LINE
8
BLACK
6
CONTINUOUS
10
1.1351025984251968
20
0.0493566141732283
11
1.1351494488188976
21
0.0493122834645669
0
LINE
8
BLACK
6
CONTINUOUS
10
1.1351494488188976
20
0.0493122834645669
11
1.1370242125984251
21
0.0455627559055118
0
LINE
8
BLACK
6
CONTINUOUS
10
1.1370242125984251
20
0.0455627559055118
11
1.1373165748031495
21
0.044579842519685
0
LINE
8
BLACK
6
CONTINUOUS
10
1.1373165748031495
20
0.044579842519685
11
1.1372755511811024
21
0.0444081496062992
0
LINE
8
BLACK
6
CONTINUOUS
10
1.1372755511811024
20
0.0444081496062992
11
1.1373359448818898
21
0.0442422440944882
0
LINE
8
BLACK
6
CONTINUOUS
10
1.1373359448818898
20
0.0442422440944882
11
1.1373359448818898
21
0.0348684251968504
0
LINE
8
BLACK
6
CONTINUOUS
10
1.1373359448818898
20
0.0348684251968504
11
1.137157874015748
21
0.0338585039370079
0
LINE
8
BLACK
6
CONTINUOUS
10
1.137157874015748
20
0.0338585039370079
11
1.13704437007874
21
0.0337232677165354
0
LINE
8
BLACK
6
CONTINUOUS
10
1.13704437007874
20
0.0337232677165354
11
1.1370242125984251
21
0.0335479133858268
0
LINE
8
BLACK
6
CONTINUOUS
10
1.1370242125984251
20
0.0335479133858268
11
1.1351494488188976
21
0.0297983858267717
0
LINE
8
BLACK
6
CONTINUOUS
10
1.1351494488188976
20
0.0297983858267717
11
1.1346235039370078
21
0.0290893307086614
0
LINE
8
BLACK
6
CONTINUOUS
10
1.1346235039370078
20
0.0290893307086614
11
1.1345963385826772
21
0.0290309842519685
0
LINE
8
BLACK
6
CONTINUOUS
10
1.1345963385826772
20
0.0290309842519685
11
1.1327216141732284
21
0.0271562204724409
0
LINE
8
BLACK
6
CONTINUOUS
10
1.1327216141732284
20
0.0271562204724409
11
1.1319984251968505
21
0.026649842519685
0
LINE
8
BLACK
6
CONTINUOUS
10
1.1319984251968505
20
0.026649842519685
11
1.1319541732283465
21
0.0266030708661417
0
LINE
8
BLACK
6
CONTINUOUS
10
1.1319541732283465
20
0.0266030708661417
11
1.1282046456692914
21
0.0247283070866142
0
LINE
8
BLACK
6
CONTINUOUS
10
1.1282046456692914
20
0.0247283070866142
11
1.1272216929133858
21
0.0244359448818898
0
LINE
8
BLACK
6
CONTINUOUS
10
1.1272216929133858
20
0.0244359448818898
11
1.1270499999999999
21
0.024476968503937
0
LINE
8
BLACK
6
CONTINUOUS
10
1.1270499999999999
20
0.024476968503937
11
1.1268841338582678
21
0.0244165748031496
0
LINE
8
BLACK
6
CONTINUOUS
10
1.1268841338582678
20
0.0244165748031496
11
1.1193850787401574
21
0.0244165748031496
0
LINE
8
BLACK
6
CONTINUOUS
10
1.1193850787401574
20
0.0244165748031496
11
1.1183751574803149
21
0.0245946456692913
0
LINE
8
BLACK
6
CONTINUOUS
10
1.1183751574803149
20
0.0245946456692913
11
1.1182398818897639
21
0.0247081496062992
0
LINE
8
BLACK
6
CONTINUOUS
10
1.1182398818897639
20
0.0247081496062992
11
1.1180645669291338
21
0.0247283070866142
0
LINE
8
BLACK
6
CONTINUOUS
10
1.1180645669291338
20
0.0247283070866142
11
1.1143150393700787
21
0.0266030708661417
0
LINE
8
BLACK
6
CONTINUOUS
10
1.1143150393700787
20
0.0266030708661417
11
1.113605905511811
21
0.0271290551181102
0
LINE
8
BLACK
6
CONTINUOUS
10
1.113605905511811
20
0.0271290551181102
11
1.1135475984251968
21
0.0271562204724409
0
LINE
8
BLACK
6
CONTINUOUS
10
1.1135475984251968
20
0.0271562204724409
11
1.1116728346456692
21
0.0290310236220472
0
LINE
8
BLACK
6
CONTINUOUS
10
1.1116728346456692
20
0.0290310236220472
11
1.1111665354330709
21
0.029754094488189
0
LINE
8
BLACK
6
CONTINUOUS
10
1.1111665354330709
20
0.029754094488189
11
1.1111197637795276
21
0.0297983858267717
0
LINE
8
BLACK
6
CONTINUOUS
10
1.1111197637795276
20
0.0297983858267717
11
1.109245
21
0.0335479133858268
0
LINE
8
BLACK
6
CONTINUOUS
10
1.109245
20
0.0335479133858268
11
1.1089526377952756
21
0.0345308661417323
0
LINE
8
BLACK
6
CONTINUOUS
10
1.1089526377952756
20
0.0345308661417323
11
1.1089936220472441
21
0.0347025590551181
0
LINE
8
BLACK
6
CONTINUOUS
10
1.1089936220472441
20
0.0347025590551181
11
1.1089332677165353
21
0.0348684251968504
0
LINE
8
BLACK
6
CONTINUOUS
10
1.1089332677165353
20
0.0348684251968504
11
1.1089332677165353
21
0.0498665354330709
0
LINE
8
BLACK
6
CONTINUOUS
10
1.1089332677165353
20
0.0498665354330709
11
1.1090355905511811
21
0.0504469291338583
0
LINE
8
BLACK
6
CONTINUOUS
10
1.1090355905511811
20
0.0504469291338583
11
1.1090214173228345
21
0.0505826771653543
0
LINE
8
BLACK
6
CONTINUOUS
10
1.1090214173228345
20
0.0505826771653543
11
1.1108961811023621
21
0.0580817322834646
0
LINE
8
BLACK
6
CONTINUOUS
10
1.1108961811023621
20
0.0580817322834646
11
1.1112998818897637
21
0.0589869291338583
0
LINE
8
BLACK
6
CONTINUOUS
10
1.1112998818897637
20
0.0589869291338583
11
1.1113039370078739
21
0.0590035039370079
0
LINE
8
BLACK
6
CONTINUOUS
10
1.1113039370078739
20
0.0590035039370079
11
1.115053464566929
21
0.0646277952755906
0
LINE
8
BLACK
6
CONTINUOUS
10
1.115053464566929
20
0.0646277952755906
11
1.1153642519685039
21
0.0649531889763779
0
LINE
8
BLACK
6
CONTINUOUS
10
1.1153642519685039
20
0.0649531889763779
11
1.1154224015748031
21
0.0650777952755905
0
LINE
8
BLACK
6
CONTINUOUS
10
1.1154224015748031
20
0.0650777952755905
11
1.1172971653543307
21
0.0669525590551181
0
LINE
8
BLACK
6
CONTINUOUS
10
1.1172971653543307
20
0.0669525590551181
11
1.1180202362204723
21
0.0674588582677165
0
LINE
8
BLACK
6
CONTINUOUS
10
1.1180202362204723
20
0.0674588582677165
11
1.1180645669291338
21
0.0675056692913386
0
LINE
8
BLACK
6
CONTINUOUS
10
1.1180645669291338
20
0.0675056692913386
11
1.1218140944881889
21
0.0693804330708661
0
LINE
8
BLACK
6
CONTINUOUS
10
1.1218140944881889
20
0.0693804330708661
11
1.1227970078740157
21
0.0696727952755905
0
LINE
8
BLACK
6
CONTINUOUS
10
1.1227970078740157
20
0.0696727952755905
11
1.1229687007874016
21
0.0696318110236221
0
LINE
8
BLACK
6
CONTINUOUS
10
1.1229687007874016
20
0.0696318110236221
11
1.1231346062992125
21
0.0696921653543307
0
LINE
8
BLACK
6
CONTINUOUS
10
1.1231346062992125
20
0.0696921653543307
11
1.1306336614173229
21
0.0696921653543307
0
LINE
8
BLACK
6
CONTINUOUS
10
1.1306336614173229
20
0.0696921653543307
11
1.1316435826771654
21
0.069514094488189
0
LINE
8
BLACK
6
CONTINUOUS
10
1.1173846456692913
20
0.0474398031496063
11
1.1161875196850393
21
0.0462426771653543
0
LINE
8
BLACK
6
CONTINUOUS
10
1.1161875196850393
20
0.0462426771653543
11
1.1148387795275589
21
0.0435451968503937
0
LINE
8
BLACK
6
CONTINUOUS
10
1.1148387795275589
20
0.0435451968503937
11
1.1148387795275589
21
0.0355654724409449
0
LINE
8
BLACK
6
CONTINUOUS
10
1.1148387795275589
20
0.0355654724409449
11
1.1161875196850393
21
0.0328679921259842
0
LINE
8
BLACK
6
CONTINUOUS
10
1.1161875196850393
20
0.0328679921259842
11
1.1173846456692913
21
0.0316708267716535
0
LINE
8
BLACK
6
CONTINUOUS
10
1.1173846456692913
20
0.0316708267716535
11
1.1200821259842519
21
0.0303220866141732
0
LINE
8
BLACK
6
CONTINUOUS
10
1.1200821259842519
20
0.0303220866141732
11
1.1261870866141732
21
0.0303220866141732
0
LINE
8
BLACK
6
CONTINUOUS
10
1.1261870866141732
20
0.0303220866141732
11
1.1288845275590551
21
0.0316708267716535
0
LINE
8
BLACK
6
CONTINUOUS
10
1.1288845275590551
20
0.0316708267716535
11
1.1300816535433071
21
0.0328679921259842
0
LINE
8
BLACK
6
CONTINUOUS
10
1.1300816535433071
20
0.0328679921259842
11
1.1314304330708662
21
0.0355654724409449
0
LINE
8
BLACK
6
CONTINUOUS
10
1.1314304330708662
20
0.0355654724409449
11
1.1314304330708662
21
0.0435451968503937
0
LINE
8
BLACK
6
CONTINUOUS
10
1.1314304330708662
20
0.0435451968503937
11
1.1300816929133859
21
0.0462426771653543
0
LINE
8
BLACK
6
CONTINUOUS
10
1.1300816929133859
20
0.0462426771653543
11
1.1288845669291339
21
0.0474398031496063
0
LINE
8
BLACK
6
CONTINUOUS
10
1.1288845669291339
20
0.0474398031496063
11
1.1261870866141732
21
0.0487885433070866
0
LINE
8
BLACK
6
CONTINUOUS
10
1.1261870866141732
20
0.0487885433070866
11
1.1200821259842519
21
0.0487885433070866
0
LINE
8
BLACK
6
CONTINUOUS
10
1.1200821259842519
20
0.0487885433070866
11
1.1173846456692913
21
0.0474398031496063
0
LINE
8
BLACK
6
CONTINUOUS
10
1.2010099212598424
20
0.069514094488189
11
1.2011451574803149
21
0.0694006299212598
0
LINE
8
BLACK
6
CONTINUOUS
10
1.2011451574803149
20
0.0694006299212598
11
1.2013205118110235
21
0.0693804330708661
0
LINE
8
BLACK
6
CONTINUOUS
10
1.2013205118110235
20
0.0693804330708661
11
1.2050700393700786
21
0.0675056692913386
0
LINE
8
BLACK
6
CONTINUOUS
10
1.2050700393700786
20
0.0675056692913386
11
1.205779094488189
21
0.0669797637795276
0
LINE
8
BLACK
6
CONTINUOUS
10
1.205779094488189
20
0.0669797637795276
11
1.2058374409448818
21
0.0669525590551181
0
LINE
8
BLACK
6
CONTINUOUS
10
1.2058374409448818
20
0.0669525590551181
11
1.2077122047244093
21
0.0650777952755905
0
LINE
8
BLACK
6
CONTINUOUS
10
1.2077122047244093
20
0.0650777952755905
11
1.2082184645669292
21
0.0643547244094488
0
LINE
8
BLACK
6
CONTINUOUS
10
1.2082184645669292
20
0.0643547244094488
11
1.2082653149606299
21
0.0643103937007874
0
LINE
8
BLACK
6
CONTINUOUS
10
1.2082653149606299
20
0.0643103937007874
11
1.2101400787401575
21
0.0605608661417323
0
LINE
8
BLACK
6
CONTINUOUS
10
1.2101400787401575
20
0.0605608661417323
11
1.2102853543307086
21
0.0600724409448819
0
LINE
8
BLACK
6
CONTINUOUS
10
1.2102853543307086
20
0.0600724409448819
11
1.2103636614173228
21
0.0599564960629921
0
LINE
8
BLACK
6
CONTINUOUS
10
1.2103636614173228
20
0.0599564960629921
11
1.2122384251968503
21
0.0524574409448819
0
LINE
8
BLACK
6
CONTINUOUS
10
1.2122384251968503
20
0.0524574409448819
11
1.2122798818897638
21
0.0518695669291339
0
LINE
8
BLACK
6
CONTINUOUS
10
1.2122798818897638
20
0.0518695669291339
11
1.2123265748031495
21
0.0517412992125984
0
LINE
8
BLACK
6
CONTINUOUS
10
1.2123265748031495
20
0.0517412992125984
11
1.2123265748031495
21
0.0423674803149606
0
LINE
8
BLACK
6
CONTINUOUS
10
1.2123265748031495
20
0.0423674803149606
11
1.2122242125984253
21
0.041787125984252
0
LINE
8
BLACK
6
CONTINUOUS
10
1.2122242125984253
20
0.041787125984252
11
1.2122384251968503
21
0.0416513385826772
0
LINE
8
BLACK
6
CONTINUOUS
10
1.2122384251968503
20
0.0416513385826772
11
1.2103636614173228
21
0.0341522834645669
0
LINE
8
BLACK
6
CONTINUOUS
10
1.2103636614173228
20
0.0341522834645669
11
1.210156062992126
21
0.0336868503937008
0
LINE
8
BLACK
6
CONTINUOUS
10
1.210156062992126
20
0.0336868503937008
11
1.2101400787401575
21
0.0335479133858268
0
LINE
8
BLACK
6
CONTINUOUS
10
1.2101400787401575
20
0.0335479133858268
11
1.2082653149606299
21
0.0297983858267717
0
LINE
8
BLACK
6
CONTINUOUS
10
1.2082653149606299
20
0.0297983858267717
11
1.2077393700787402
21
0.0290893307086614
0
LINE
8
BLACK
6
CONTINUOUS
10
1.2077393700787402
20
0.0290893307086614
11
1.2077122047244093
21
0.0290309842519685
0
LINE
8
BLACK
6
CONTINUOUS
10
1.2077122047244093
20
0.0290309842519685
11
1.2058374803149605
21
0.0271562204724409
0
LINE
8
BLACK
6
CONTINUOUS
10
1.2058374803149605
20
0.0271562204724409
11
1.2051142913385826
21
0.026649842519685
0
LINE
8
BLACK
6
CONTINUOUS
10
1.2051142913385826
20
0.026649842519685
11
1.2050700393700786
21
0.0266030708661417
0
LINE
8
BLACK
6
CONTINUOUS
10
1.2050700393700786
20
0.0266030708661417
11
1.2013205118110235
21
0.0247283070866142
0
LINE
8
BLACK
6
CONTINUOUS
10
1.2013205118110235
20
0.0247283070866142
11
1.2003375590551182
21
0.0244359448818898
0
LINE
8
BLACK
6
CONTINUOUS
10
1.2003375590551182
20
0.0244359448818898
11
1.2001658661417323
21
0.024476968503937
0
LINE
8
BLACK
6
CONTINUOUS
10
1.2001658661417323
20
0.024476968503937
11
1.2
21
0.0244165748031496
0
LINE
8
BLACK
6
CONTINUOUS
10
1.2
20
0.0244165748031496
11
1.1962504724409448
21
0.0244165748031496
0
LINE
8
BLACK
6
CONTINUOUS
10
1.1962504724409448
20
0.0244165748031496
11
1.1952405511811024
21
0.0245946456692913
0
LINE
8
BLACK
6
CONTINUOUS
10
1.1952405511811024
20
0.0245946456692913
11
1.1951052755905511
21
0.0247081496062992
0
LINE
8
BLACK
6
CONTINUOUS
10
1.1951052755905511
20
0.0247081496062992
11
1.1949299606299213
21
0.0247283070866142
0
LINE
8
BLACK
6
CONTINUOUS
10
1.1949299606299213
20
0.0247283070866142
11
1.1911804330708662
21
0.0266030708661417
0
LINE
8
BLACK
6
CONTINUOUS
10
1.1911804330708662
20
0.0266030708661417
11
1.1904712992125983
21
0.0271290551181102
0
LINE
8
BLACK
6
CONTINUOUS
10
1.1904712992125983
20
0.0271290551181102
11
1.1904129921259843
21
0.0271562204724409
0
LINE
8
BLACK
6
CONTINUOUS
10
1.1904129921259843
20
0.0271562204724409
11
1.1885382283464567
21
0.0290310236220472
0
LINE
8
BLACK
6
CONTINUOUS
10
1.1885382283464567
20
0.0290310236220472
11
1.1880319291338581
21
0.029754094488189
0
LINE
8
BLACK
6
CONTINUOUS
10
1.1880319291338581
20
0.029754094488189
11
1.1879851574803149
21
0.0297983858267717
0
LINE
8
BLACK
6
CONTINUOUS
10
1.1879851574803149
20
0.0297983858267717
11
1.1861103937007873
21
0.0335479133858268
0
LINE
8
BLACK
6
CONTINUOUS
10
1.1861103937007873
20
0.0335479133858268
11
1.1859650787401574
21
0.0340363779527559
0
LINE
8
BLACK
6
CONTINUOUS
10
1.1859650787401574
20
0.0340363779527559
11
1.185886811023622
21
0.0341522834645669
0
LINE
8
BLACK
6
CONTINUOUS
10
1.185886811023622
20
0.0341522834645669
11
1.1840120472440945
21
0.0416513385826772
0
LINE
8
BLACK
6
CONTINUOUS
10
1.1840120472440945
20
0.0416513385826772
11
1.1839705511811023
21
0.0422392519685039
0
LINE
8
BLACK
6
CONTINUOUS
10
1.1839705511811023
20
0.0422392519685039
11
1.1839238976377953
21
0.0423674803149606
0
LINE
8
BLACK
6
CONTINUOUS
10
1.1839238976377953
20
0.0423674803149606
11
1.1839238976377953
21
0.0517412992125984
0
LINE
8
BLACK
6
CONTINUOUS
10
1.1839238976377953
20
0.0517412992125984
11
1.184026220472441
21
0.0523216929133858
0
LINE
8
BLACK
6
CONTINUOUS
10
1.184026220472441
20
0.0523216929133858
11
1.1840120472440945
21
0.0524574409448819
0
LINE
8
BLACK
6
CONTINUOUS
10
1.1840120472440945
20
0.0524574409448819
11
1.185886811023622
21
0.0599564960629921
0
LINE
8
BLACK
6
CONTINUOUS
10
1.185886811023622
20
0.0599564960629921
11
1.1860943700787401
21
0.060421968503937
0
LINE
8
BLACK
6
CONTINUOUS
10
1.1860943700787401
20
0.060421968503937
11
1.1861103937007873
21
0.0605608661417323
0
LINE
8
BLACK
6
CONTINUOUS
10
1.1861103937007873
20
0.0605608661417323
11
1.1879851574803149
21
0.0643103937007874
0
LINE
8
BLACK
6
CONTINUOUS
10
1.1879851574803149
20
0.0643103937007874
11
1.1885110629921261
21
0.0650194881889764
0
LINE
8
BLACK
6
CONTINUOUS
10
1.1885110629921261
20
0.0650194881889764
11
1.1885382677165355
21
0.0650777952755905
0
LINE
8
BLACK
6
CONTINUOUS
10
1.1885382677165355
20
0.0650777952755905
11
1.190413031496063
21
0.0669525590551181
0
LINE
8
BLACK
6
CONTINUOUS
10
1.190413031496063
20
0.0669525590551181
11
1.1911361023622047
21
0.0674588582677165
0
LINE
8
BLACK
6
CONTINUOUS
10
1.1911361023622047
20
0.0674588582677165
11
1.1911804330708662
21
0.0675056692913386
0
LINE
8
BLACK
6
CONTINUOUS
10
1.1911804330708662
20
0.0675056692913386
11
1.1949299606299213
21
0.0693804330708661
0
LINE
8
BLACK
6
CONTINUOUS
10
1.1949299606299213
20
0.0693804330708661
11
1.1959128740157481
21
0.0696727952755905
0
LINE
8
BLACK
6
CONTINUOUS
10
1.1959128740157481
20
0.0696727952755905
11
1.1960845669291338
21
0.0696318110236221
0
LINE
8
BLACK
6
CONTINUOUS
10
1.1960845669291338
20
0.0696318110236221
11
1.1962504724409448
21
0.0696921653543307
0
LINE
8
BLACK
6
CONTINUOUS
10
1.1962504724409448
20
0.0696921653543307
11
1.2
21
0.0696921653543307
0
LINE
8
BLACK
6
CONTINUOUS
10
1.2
20
0.0696921653543307
11
1.2010099212598424
21
0.069514094488189
0
LINE
8
BLACK
6
CONTINUOUS
10
1.1942500393700788
20
0.0624379133858268
11
1.1930529133858268
21
0.0612407874015748
0
LINE
8
BLACK
6
CONTINUOUS
10
1.1930529133858268
20
0.0612407874015748
11
1.191537401574803
21
0.0582098031496063
0
LINE
8
BLACK
6
CONTINUOUS
10
1.191537401574803
20
0.0582098031496063
11
1.1898294094488189
21
0.0513777559055118
0
LINE
8
BLACK
6
CONTINUOUS
10
1.1898294094488189
20
0.0513777559055118
11
1.1898294094488189
21
0.0427310236220472
0
LINE
8
BLACK
6
CONTINUOUS
10
1.1898294094488189
20
0.0427310236220472
11
1.191537401574803
21
0.0358989763779528
0
LINE
8
BLACK
6
CONTINUOUS
10
1.191537401574803
20
0.0358989763779528
11
1.1930529133858268
21
0.0328679921259842
0
LINE
8
BLACK
6
CONTINUOUS
10
1.1930529133858268
20
0.0328679921259842
11
1.1942500393700788
21
0.0316708267716535
0
LINE
8
BLACK
6
CONTINUOUS
10
1.1942500393700788
20
0.0316708267716535
11
1.1969475196850394
21
0.0303220866141732
0
LINE
8
BLACK
6
CONTINUOUS
10
1.1969475196850394
20
0.0303220866141732
11
1.1993029527559056
21
0.0303220866141732
0
LINE
8
BLACK
6
CONTINUOUS
10
1.1993029527559056
20
0.0303220866141732
11
1.2020003937007875
21
0.0316708267716535
0
LINE
8
BLACK
6
CONTINUOUS
10
1.2020003937007875
20
0.0316708267716535
11
1.2031975196850393
21
0.0328679921259842
0
LINE
8
BLACK
6
CONTINUOUS
10
1.2031975196850393
20
0.0328679921259842
11
1.204713031496063
21
0.0358989763779528
0
LINE
8
BLACK
6
CONTINUOUS
10
1.204713031496063
20
0.0358989763779528
11
1.2064210629921259
21
0.0427310236220472
0
LINE
8
BLACK
6
CONTINUOUS
10
1.2064210629921259
20
0.0427310236220472
11
1.2064210629921259
21
0.0513777559055118
0
LINE
8
BLACK
6
CONTINUOUS
10
1.2064210629921259
20
0.0513777559055118
11
1.204713031496063
21
0.0582098031496063
0
LINE
8
BLACK
6
CONTINUOUS
10
1.204713031496063
20
0.0582098031496063
11
1.203197559055118
21
0.0612407874015748
0
LINE
8
BLACK
6
CONTINUOUS
10
1.203197559055118
20
0.0612407874015748
11
1.202000433070866
21
0.0624379133858268
0
LINE
8
BLACK
6
CONTINUOUS
10
1.202000433070866
20
0.0624379133858268
11
1.1993029527559056
21
0.0637866535433071
0
LINE
8
BLACK
6
CONTINUOUS
10
1.1993029527559056
20
0.0637866535433071
11
1.1969475196850394
21
0.0637866535433071
0
LINE
8
BLACK
6
CONTINUOUS
10
1.1969475196850394
20
0.0637866535433071
11
1.1942500393700788
21
0.0624379133858268
0
LINE
8
BLACK
6
CONTINUOUS
10
1.2385052362204725
20
0.069514094488189
11
1.2386404724409448
21
0.0694006299212598
0
LINE
8
BLACK
6
CONTINUOUS
10
1.2386404724409448
20
0.0694006299212598
11
1.2388158267716536
21
0.0693804330708661
0
LINE
8
BLACK
6
CONTINUOUS
10
1.2388158267716536
20
0.0693804330708661
11
1.2425653543307087
21
0.0675056692913386
0
LINE
8
BLACK
6
CONTINUOUS
10
1.2425653543307087
20
0.0675056692913386
11
1.2432744094488188
21
0.0669797637795276
0
LINE
8
BLACK
6
CONTINUOUS
10
1.2432744094488188
20
0.0669797637795276
11
1.2433327559055118
21
0.0669525590551181
0
LINE
8
BLACK
6
CONTINUOUS
10
1.2433327559055118
20
0.0669525590551181
11
1.2452075196850394
21
0.0650777952755905
0
LINE
8
BLACK
6
CONTINUOUS
10
1.2452075196850394
20
0.0650777952755905
11
1.245713779527559
21
0.0643547244094488
0
LINE
8
BLACK
6
CONTINUOUS
10
1.245713779527559
20
0.0643547244094488
11
1.2457606299212598
21
0.0643103937007874
0
LINE
8
BLACK
6
CONTINUOUS
10
1.2457606299212598
20
0.0643103937007874
11
1.2476353937007874
21
0.0605608661417323
0
LINE
8
BLACK
6
CONTINUOUS
10
1.2476353937007874
20
0.0605608661417323
11
1.2477806692913385
21
0.0600724409448819
0
LINE
8
BLACK
6
CONTINUOUS
10
1.2477806692913385
20
0.0600724409448819
11
1.2478589763779526
21
0.0599564960629921
0
LINE
8
BLACK
6
CONTINUOUS
10
1.2478589763779526
20
0.0599564960629921
11
1.2497337401574802
21
0.0524574409448819
0
LINE
8
BLACK
6
CONTINUOUS
10
1.2497337401574802
20
0.0524574409448819
11
1.2497751968503936
21
0.0518695669291339
0
LINE
8
BLACK
6
CONTINUOUS
10
1.2497751968503936
20
0.0518695669291339
11
1.2498218897637794
21
0.0517412992125984
0
LINE
8
BLACK
6
CONTINUOUS
10
1.2498218897637794
20
0.0517412992125984
11
1.2498218897637794
21
0.0423674803149606
0
LINE
8
BLACK
6
CONTINUOUS
10
1.2498218897637794
20
0.0423674803149606
11
1.2497195275590551
21
0.041787125984252
0
LINE
8
BLACK
6
CONTINUOUS
10
1.2497195275590551
20
0.041787125984252
11
1.2497337401574802
21
0.0416513385826772
0
LINE
8
BLACK
6
CONTINUOUS
10
1.2497337401574802
20
0.0416513385826772
11
1.2478589763779526
21
0.0341522834645669
0
LINE
8
BLACK
6
CONTINUOUS
10
1.2478589763779526
20
0.0341522834645669
11
1.2476513779527558
21
0.0336868503937008
0
LINE
8
BLACK
6
CONTINUOUS
10
1.2476513779527558
20
0.0336868503937008
11
1.2476353937007874
21
0.0335479133858268
0
LINE
8
BLACK
6
CONTINUOUS
10
1.2476353937007874
20
0.0335479133858268
11
1.2457606299212598
21
0.0297983858267717
0
LINE
8
BLACK
6
CONTINUOUS
10
1.2457606299212598
20
0.0297983858267717
11
1.2452346850393701
21
0.0290893307086614
0
LINE
8
BLACK
6
CONTINUOUS
10
1.2452346850393701
20
0.0290893307086614
11
1.2452075196850394
21
0.0290309842519685
0
LINE
8
BLACK
6
CONTINUOUS
10
1.2452075196850394
20
0.0290309842519685
11
1.2433327952755906
21
0.0271562204724409
0
LINE
8
BLACK
6
CONTINUOUS
10
1.2433327952755906
20
0.0271562204724409
11
1.2426096062992125
21
0.026649842519685
0
LINE
8
BLACK
6
CONTINUOUS
10
1.2426096062992125
20
0.026649842519685
11
1.2425653543307087
21
0.0266030708661417
0
LINE
8
BLACK
6
CONTINUOUS
10
1.2425653543307087
20
0.0266030708661417
11
1.2388158267716536
21
0.0247283070866142
0
LINE
8
BLACK
6
CONTINUOUS
10
1.2388158267716536
20
0.0247283070866142
11
1.237832874015748
21
0.0244359448818898
0
LINE
8
BLACK
6
CONTINUOUS
10
1.237832874015748
20
0.0244359448818898
11
1.2376611811023621
21
0.024476968503937
0
LINE
8
BLACK
6
CONTINUOUS
10
1.2376611811023621
20
0.024476968503937
11
1.2374953149606298
21
0.0244165748031496
0
LINE
8
BLACK
6
CONTINUOUS
10
1.2374953149606298
20
0.0244165748031496
11
1.2337457874015747
21
0.0244165748031496
0
LINE
8
BLACK
6
CONTINUOUS
10
1.2337457874015747
20
0.0244165748031496
11
1.2327358661417323
21
0.0245946456692913
0
LINE
8
BLACK
6
CONTINUOUS
10
1.2327358661417323
20
0.0245946456692913
11
1.232600590551181
21
0.0247081496062992
0
LINE
8
BLACK
6
CONTINUOUS
10
1.232600590551181
20
0.0247081496062992
11
1.2324252755905512
21
0.0247283070866142
0
LINE
8
BLACK
6
CONTINUOUS
10
1.2324252755905512
20
0.0247283070866142
11
1.228675748031496
21
0.0266030708661417
0
LINE
8
BLACK
6
CONTINUOUS
10
1.228675748031496
20
0.0266030708661417
11
1.2279666141732284
21
0.0271290551181102
0
LINE
8
BLACK
6
CONTINUOUS
10
1.2279666141732284
20
0.0271290551181102
11
1.2279083070866141
21
0.0271562204724409
0
LINE
8
BLACK
6
CONTINUOUS
10
1.2279083070866141
20
0.0271562204724409
11
1.2260335433070866
21
0.0290310236220472
0
LINE
8
BLACK
6
CONTINUOUS
10
1.2260335433070866
20
0.0290310236220472
11
1.2255272440944882
21
0.029754094488189
0
LINE
8
BLACK
6
CONTINUOUS
10
1.2255272440944882
20
0.029754094488189
11
1.2254804724409449
21
0.0297983858267717
0
LINE
8
BLACK
6
CONTINUOUS
10
1.2254804724409449
20
0.0297983858267717
11
1.2236057086614174
21
0.0335479133858268
0
LINE
8
BLACK
6
CONTINUOUS
10
1.2236057086614174
20
0.0335479133858268
11
1.2234603937007873
21
0.0340363779527559
0
LINE
8
BLACK
6
CONTINUOUS
10
1.2234603937007873
20
0.0340363779527559
11
1.2233821259842519
21
0.0341522834645669
0
LINE
8
BLACK
6
CONTINUOUS
10
1.2233821259842519
20
0.0341522834645669
11
1.2215073622047243
21
0.0416513385826772
0
LINE
8
BLACK
6
CONTINUOUS
10
1.2215073622047243
20
0.0416513385826772
11
1.2214658661417324
21
0.0422392519685039
0
LINE
8
BLACK
6
CONTINUOUS
10
1.2214658661417324
20
0.0422392519685039
11
1.2214192125984251
21
0.0423674803149606
0
LINE
8
BLACK
6
CONTINUOUS
10
1.2214192125984251
20
0.0423674803149606
11
1.2214192125984251
21
0.0517412992125984
0
LINE
8
BLACK
6
CONTINUOUS
10
1.2214192125984251
20
0.0517412992125984
11
1.2215215354330708
21
0.0523216929133858
0
LINE
8
BLACK
6
CONTINUOUS
10
1.2215215354330708
20
0.0523216929133858
11
1.2215073622047243
21
0.0524574409448819
0
LINE
8
BLACK
6
CONTINUOUS
10
1.2215073622047243
20
0.0524574409448819
11
1.2233821259842519
21
0.0599564960629921
0
LINE
8
BLACK
6
CONTINUOUS
10
1.2233821259842519
20
0.0599564960629921
11
1.2235896850393702
21
0.060421968503937
0
LINE
8
BLACK
6
CONTINUOUS
10
1.2235896850393702
20
0.060421968503937
11
1.2236057086614174
21
0.0605608661417323
0
LINE
8
BLACK
6
CONTINUOUS
10
1.2236057086614174
20
0.0605608661417323
11
1.2254804724409449
21
0.0643103937007874
0
LINE
8
BLACK
6
CONTINUOUS
10
1.2254804724409449
20
0.0643103937007874
11
1.2260063779527559
21
0.0650194881889764
0
LINE
8
BLACK
6
CONTINUOUS
10
1.2260063779527559
20
0.0650194881889764
11
1.2260335826771653
21
0.0650777952755905
0
LINE
8
BLACK
6
CONTINUOUS
10
1.2260335826771653
20
0.0650777952755905
11
1.2279083464566929
21
0.0669525590551181
0
LINE
8
BLACK
6
CONTINUOUS
10
1.2279083464566929
20
0.0669525590551181
11
1.2286314173228345
21
0.0674588582677165
0
LINE
8
BLACK
6
CONTINUOUS
10
1.2286314173228345
20
0.0674588582677165
11
1.228675748031496
21
0.0675056692913386
0
LINE
8
BLACK
6
CONTINUOUS
10
1.228675748031496
20
0.0675056692913386
11
1.2324252755905512
21
0.0693804330708661
0
LINE
8
BLACK
6
CONTINUOUS
10
1.2324252755905512
20
0.0693804330708661
11
1.2334081889763779
21
0.0696727952755905
0
LINE
8
BLACK
6
CONTINUOUS
10
1.2334081889763779
20
0.0696727952755905
11
1.2335798818897636
21
0.0696318110236221
0
LINE
8
BLACK
6
CONTINUOUS
10
1.2335798818897636
20
0.0696318110236221
11
1.2337457874015747
21
0.0696921653543307
0
LINE
8
BLACK
6
CONTINUOUS
10
1.2337457874015747
20
0.0696921653543307
11
1.2374953149606298
21
0.0696921653543307
0
LINE
8
BLACK
6
CONTINUOUS
10
1.2374953149606298
20
0.0696921653543307
11
1.2385052362204725
21
0.069514094488189
0
LINE
8
BLACK
6
CONTINUOUS
10
1.2317453543307086
20
0.0624379133858268
11
1.2305482283464566
21
0.0612407874015748
0
LINE
8
BLACK
6
CONTINUOUS
10
1.2305482283464566
20
0.0612407874015748
11
1.2290327165354331
21
0.0582098031496063
0
LINE
8
BLACK
6
CONTINUOUS
10
1.2290327165354331
20
0.0582098031496063
11
1.2273247244094487
21
0.0513777559055118
0
LINE
8
BLACK
6
CONTINUOUS
10
1.2273247244094487
20
0.0513777559055118
11
1.2273247244094487
21
0.0427310236220472
0
LINE
8
BLACK
6
CONTINUOUS
10
1.2273247244094487
20
0.0427310236220472
11
1.2290327165354331
21
0.0358989763779528
0
LINE
8
BLACK
6
CONTINUOUS
10
1.2290327165354331
20
0.0358989763779528
11
1.2305482283464566
21
0.0328679921259842
0
LINE
8
BLACK
6
CONTINUOUS
10
1.2305482283464566
20
0.0328679921259842
11
1.2317453543307086
21
0.0316708267716535
0
LINE
8
BLACK
6
CONTINUOUS
10
1.2317453543307086
20
0.0316708267716535
11
1.2344428346456693
21
0.0303220866141732
0
LINE
8
BLACK
6
CONTINUOUS
10
1.2344428346456693
20
0.0303220866141732
11
1.2367982677165354
21
0.0303220866141732
0
LINE
8
BLACK
6
CONTINUOUS
10
1.2367982677165354
20
0.0303220866141732
11
1.2394957086614173
21
0.0316708267716535
0
LINE
8
BLACK
6
CONTINUOUS
10
1.2394957086614173
20
0.0316708267716535
11
1.2406928346456694
21
0.0328679921259842
0
LINE
8
BLACK
6
CONTINUOUS
10
1.2406928346456694
20
0.0328679921259842
11
1.2422083464566929
21
0.0358989763779528
0
LINE
8
BLACK
6
CONTINUOUS
10
1.2422083464566929
20
0.0358989763779528
11
1.2439163779527558
21
0.0427310236220472
0
LINE
8
BLACK
6
CONTINUOUS
10
1.2439163779527558
20
0.0427310236220472
11
1.2439163779527558
21
0.0513777559055118
0
LINE
8
BLACK
6
CONTINUOUS
10
1.2439163779527558
20
0.0513777559055118
11
1.2422083464566929
21
0.0582098031496063
0
LINE
8
BLACK
6
CONTINUOUS
10
1.2422083464566929
20
0.0582098031496063
11
1.2406928740157479
21
0.0612407874015748
0
LINE
8
BLACK
6
CONTINUOUS
10
1.2406928740157479
20
0.0612407874015748
11
1.2394957480314961
21
0.0624379133858268
0
LINE
8
BLACK
6
CONTINUOUS
10
1.2394957480314961
20
0.0624379133858268
11
1.2367982677165354
21
0.0637866535433071
0
LINE
8
BLACK
6
CONTINUOUS
10
1.2367982677165354
20
0.0637866535433071
11
1.2344428346456693
21
0.0637866535433071
0
LINE
8
BLACK
6
CONTINUOUS
10
1.2344428346456693
20
0.0637866535433071
11
1.2317453543307086
21
0.0624379133858268
0
LINE
8
BLACK
6
CONTINUOUS
10
1.0953928346456692
20
0.0340033858267717
11
1.0955259055118109
21
0.034026811023622
0
LINE
8
BLACK
6
CONTINUOUS
10
1.0955259055118109
20
0.034026811023622
11
1.0956428346456693
21
0.0339593307086614
0
LINE
8
BLACK
6
CONTINUOUS
10
1.0956428346456693
20
0.0339593307086614
11
1.0957773622047244
21
0.033971062992126
0
LINE
8
BLACK
6
CONTINUOUS
10
1.0957773622047244
20
0.033971062992126
11
1.0964059055118109
21
0.0335309448818898
0
LINE
8
BLACK
6
CONTINUOUS
10
1.0964059055118109
20
0.0335309448818898
11
1.0971011023622046
21
0.0332067716535433
0
LINE
8
BLACK
6
CONTINUOUS
10
1.0971011023622046
20
0.0332067716535433
11
1.0989758267716536
21
0.0313320078740158
0
LINE
8
BLACK
6
CONTINUOUS
10
1.0989758267716536
20
0.0313320078740158
11
1.0991992125984251
21
0.0310129921259843
0
LINE
8
BLACK
6
CONTINUOUS
10
1.0991992125984251
20
0.0310129921259843
11
1.0993066929133859
21
0.0309377165354331
0
LINE
8
BLACK
6
CONTINUOUS
10
1.0993066929133859
20
0.0309377165354331
11
1.0993406299212598
21
0.0308110236220472
0
LINE
8
BLACK
6
CONTINUOUS
10
1.0993406299212598
20
0.0308110236220472
11
1.0995640551181103
21
0.0304919291338583
0
LINE
8
BLACK
6
CONTINUOUS
10
1.0995640551181103
20
0.0304919291338583
11
1.0996308661417322
21
0.0297276377952756
0
LINE
8
BLACK
6
CONTINUOUS
10
1.0996308661417322
20
0.0297276377952756
11
1.0998294094488188
21
0.0289867322834646
0
LINE
8
BLACK
6
CONTINUOUS
10
1.0998294094488188
20
0.0289867322834646
11
1.099716811023622
21
0.0287453149606299
0
LINE
8
BLACK
6
CONTINUOUS
10
1.099716811023622
20
0.0287453149606299
11
1.0997400393700787
21
0.028479842519685
0
LINE
8
BLACK
6
CONTINUOUS
10
1.0997400393700787
20
0.028479842519685
11
1.0992999999999999
21
0.0278514173228346
0
LINE
8
BLACK
6
CONTINUOUS
10
1.0992999999999999
20
0.0278514173228346
11
1.0989758267716536
21
0.0271561811023622
0
LINE
8
BLACK
6
CONTINUOUS
10
1.0989758267716536
20
0.0271561811023622
11
1.0971010629921261
21
0.0252814173228346
0
LINE
8
BLACK
6
CONTINUOUS
10
1.0971010629921261
20
0.0252814173228346
11
1.0967820078740158
21
0.025058031496063
0
LINE
8
BLACK
6
CONTINUOUS
10
1.0967820078740158
20
0.025058031496063
11
1.0967067716535432
21
0.0249505511811024
0
LINE
8
BLACK
6
CONTINUOUS
10
1.0967067716535432
20
0.0249505511811024
11
1.0965799999999999
21
0.0249166141732283
0
LINE
8
BLACK
6
CONTINUOUS
10
1.0965799999999999
20
0.0249166141732283
11
1.0965730314960629
21
0.0249117322834646
0
LINE
8
BLACK
6
CONTINUOUS
10
1.0965730314960629
20
0.0249117322834646
11
1.0964895275590552
21
0.0248121653543307
0
LINE
8
BLACK
6
CONTINUOUS
10
1.0964895275590552
20
0.0248121653543307
11
1.0964111417322835
21
0.0247983464566929
0
LINE
8
BLACK
6
CONTINUOUS
10
1.0964111417322835
20
0.0247983464566929
11
1.0962610236220471
21
0.0246932283464567
0
LINE
8
BLACK
6
CONTINUOUS
10
1.0962610236220471
20
0.0246932283464567
11
1.0954966929133858
21
0.0246263779527559
0
LINE
8
BLACK
6
CONTINUOUS
10
1.0954966929133858
20
0.0246263779527559
11
1.0947557874015748
21
0.0244278346456693
0
LINE
8
BLACK
6
CONTINUOUS
10
1.0947557874015748
20
0.0244278346456693
11
1.0946334251968504
21
0.0244848818897638
0
LINE
8
BLACK
6
CONTINUOUS
10
1.0946334251968504
20
0.0244848818897638
11
1.0945003937007873
21
0.0244614173228346
0
LINE
8
BLACK
6
CONTINUOUS
10
1.0945003937007873
20
0.0244614173228346
11
1.0943834251968503
21
0.024528937007874
0
LINE
8
BLACK
6
CONTINUOUS
10
1.0943834251968503
20
0.024528937007874
11
1.0942489370078741
21
0.0245171653543307
0
LINE
8
BLACK
6
CONTINUOUS
10
1.0942489370078741
20
0.0245171653543307
11
1.0936204330708661
21
0.0249572834645669
0
LINE
8
BLACK
6
CONTINUOUS
10
1.0936204330708661
20
0.0249572834645669
11
1.0929252362204724
21
0.0252814173228346
0
LINE
8
BLACK
6
CONTINUOUS
10
1.0929252362204724
20
0.0252814173228346
11
1.0910504724409449
21
0.0271561811023622
0
LINE
8
BLACK
6
CONTINUOUS
10
1.0910504724409449
20
0.0271561811023622
11
1.0908271259842519
21
0.027475157480315
0
LINE
8
BLACK
6
CONTINUOUS
10
1.0908271259842519
20
0.027475157480315
11
1.0907196062992126
21
0.0275504330708661
0
LINE
8
BLACK
6
CONTINUOUS
10
1.0907196062992126
20
0.0275504330708661
11
1.0906856299212597
21
0.0276772440944882
0
LINE
8
BLACK
6
CONTINUOUS
10
1.0906856299212597
20
0.0276772440944882
11
1.090462283464567
21
0.0279962204724409
0
LINE
8
BLACK
6
CONTINUOUS
10
1.090462283464567
20
0.0279962204724409
11
1.0903953937007873
21
0.0287604724409449
0
LINE
8
BLACK
6
CONTINUOUS
10
1.0903953937007873
20
0.0287604724409449
11
1.0901968897637795
21
0.0295014173228346
0
LINE
8
BLACK
6
CONTINUOUS
10
1.0901968897637795
20
0.0295014173228346
11
1.0903094488188976
21
0.0297428346456693
0
LINE
8
BLACK
6
CONTINUOUS
10
1.0903094488188976
20
0.0297428346456693
11
1.0902862204724408
21
0.0300083070866142
0
LINE
8
BLACK
6
CONTINUOUS
10
1.0902862204724408
20
0.0300083070866142
11
1.0907262598425196
21
0.030636811023622
0
LINE
8
BLACK
6
CONTINUOUS
10
1.0907262598425196
20
0.030636811023622
11
1.0910504330708661
21
0.031331968503937
0
LINE
8
BLACK
6
CONTINUOUS
10
1.0910504330708661
20
0.031331968503937
11
1.0929251968503937
21
0.0332067716535433
0
LINE
8
BLACK
6
CONTINUOUS
10
1.0929251968503937
20
0.0332067716535433
11
1.0932442519685039
21
0.0334302362204724
0
LINE
8
BLACK
6
CONTINUOUS
10
1.0932442519685039
20
0.0334302362204724
11
1.093319527559055
21
0.0335376771653543
0
LINE
8
BLACK
6
CONTINUOUS
10
1.093319527559055
20
0.0335376771653543
11
1.0934462204724409
21
0.0335716535433071
0
LINE
8
BLACK
6
CONTINUOUS
10
1.0934462204724409
20
0.0335716535433071
11
1.0934532283464566
21
0.0335765748031496
0
LINE
8
BLACK
6
CONTINUOUS
10
1.0934532283464566
20
0.0335765748031496
11
1.0935367716535433
21
0.033676062992126
0
LINE
8
BLACK
6
CONTINUOUS
10
1.0935367716535433
20
0.033676062992126
11
1.0936150787401575
21
0.0336898818897638
0
LINE
8
BLACK
6
CONTINUOUS
10
1.0936150787401575
20
0.0336898818897638
11
1.0937652362204724
21
0.033795
0
LINE
8
BLACK
6
CONTINUOUS
10
1.0937652362204724
20
0.033795
11
1.0945295669291337
21
0.0338618897637795
0
LINE
8
BLACK
6
CONTINUOUS
10
1.0945295669291337
20
0.0338618897637795
11
1.0952705118110235
21
0.0340603937007874
0
LINE
8
BLACK
6
CONTINUOUS
10
1.0952705118110235
20
0.0340603937007874
11
1.0953928346456692
21
0.0340033858267717
0
LINE
8
BLACK
6
CONTINUOUS
10
1.0289275590551181
20
0.0712107086614173
11
1.0302676377952755
21
0.0696994488188976
0
LINE
8
BLACK
6
CONTINUOUS
10
1.0302676377952755
20
0.0696994488188976
11
1.0303227952755905
21
0.0676803937007874
0
LINE
8
BLACK
6
CONTINUOUS
10
1.0303227952755905
20
0.0676803937007874
11
1.0222444881889763
21
0.0434454724409449
0
LINE
8
BLACK
6
CONTINUOUS
10
1.0222444881889763
20
0.0434454724409449
11
1.0339426377952756
21
0.0434454724409449
0
LINE
8
BLACK
6
CONTINUOUS
10
1.0339426377952756
20
0.0434454724409449
11
1.0339426377952756
21
0.053616062992126
0
LINE
8
BLACK
6
CONTINUOUS
10
1.0339426377952756
20
0.053616062992126
11
1.0341207086614173
21
0.0546259842519685
0
LINE
8
BLACK
6
CONTINUOUS
10
1.0341207086614173
20
0.0546259842519685
11
1.0354190157480314
21
0.0561732283464567
0
LINE
8
BLACK
6
CONTINUOUS
10
1.0354190157480314
20
0.0561732283464567
11
1.0374081496062992
21
0.0565239763779528
0
LINE
8
BLACK
6
CONTINUOUS
10
1.0374081496062992
20
0.0565239763779528
11
1.0391573228346456
21
0.0555140551181102
0
LINE
8
BLACK
6
CONTINUOUS
10
1.0391573228346456
20
0.0555140551181102
11
1.0398481496062992
21
0.053616062992126
0
LINE
8
BLACK
6
CONTINUOUS
10
1.0398481496062992
20
0.053616062992126
11
1.0398481496062992
21
0.0434454724409449
0
LINE
8
BLACK
6
CONTINUOUS
10
1.0398481496062992
20
0.0434454724409449
11
1.0425196850393701
21
0.0434454724409449
0
LINE
8
BLACK
6
CONTINUOUS
10
1.0425196850393701
20
0.0434454724409449
11
1.0435296062992125
21
0.0432674015748031
0
LINE
8
BLACK
6
CONTINUOUS
10
1.0435296062992125
20
0.0432674015748031
11
1.0450768503937007
21
0.041969094488189
0
LINE
8
BLACK
6
CONTINUOUS
10
1.0450768503937007
20
0.041969094488189
11
1.0454275984251968
21
0.0399799606299213
0
LINE
8
BLACK
6
CONTINUOUS
10
1.0454275984251968
20
0.0399799606299213
11
1.0444176771653544
21
0.0382307874015748
0
LINE
8
BLACK
6
CONTINUOUS
10
1.0444176771653544
20
0.0382307874015748
11
1.0425196850393701
21
0.0375399606299213
0
LINE
8
BLACK
6
CONTINUOUS
10
1.0425196850393701
20
0.0375399606299213
11
1.0398481496062992
21
0.0375399606299213
0
LINE
8
BLACK
6
CONTINUOUS
10
1.0398481496062992
20
0.0375399606299213
11
1.0398481496062992
21
0.0273693307086614
0
LINE
8
BLACK
6
CONTINUOUS
10
1.0398481496062992
20
0.0273693307086614
11
1.0396700787401574
21
0.0263594094488189
0
LINE
8
BLACK
6
CONTINUOUS
10
1.0396700787401574
20
0.0263594094488189
11
1.0383717716535432
21
0.0248121653543307
0
LINE
8
BLACK
6
CONTINUOUS
10
1.0383717716535432
20
0.0248121653543307
11
1.0363826377952756
21
0.0244614173228346
0
LINE
8
BLACK
6
CONTINUOUS
10
1.0363826377952756
20
0.0244614173228346
11
1.0346334645669291
21
0.0254713385826772
0
LINE
8
BLACK
6
CONTINUOUS
10
1.0346334645669291
20
0.0254713385826772
11
1.0339426377952756
21
0.0273693307086614
0
LINE
8
BLACK
6
CONTINUOUS
10
1.0339426377952756
20
0.0273693307086614
11
1.0339426377952756
21
0.0375399606299213
0
LINE
8
BLACK
6
CONTINUOUS
10
1.0339426377952756
20
0.0375399606299213
11
1.0181477559055119
21
0.0375399606299213
0
LINE
8
BLACK
6
CONTINUOUS
10
1.0181477559055119
20
0.0375399606299213
11
1.0171378346456692
21
0.037718031496063
0
LINE
8
BLACK
6
CONTINUOUS
10
1.0171378346456692
20
0.037718031496063
11
1.0169649606299211
21
0.0378631102362205
0
LINE
8
BLACK
6
CONTINUOUS
10
1.0169649606299211
20
0.0378631102362205
11
1.0167417322834646
21
0.0378961811023622
0
LINE
8
BLACK
6
CONTINUOUS
10
1.0167417322834646
20
0.0378961811023622
11
1.016207401574803
21
0.0384987795275591
0
LINE
8
BLACK
6
CONTINUOUS
10
1.016207401574803
20
0.0384987795275591
11
1.0155905905511811
21
0.0390163385826772
0
LINE
8
BLACK
6
CONTINUOUS
10
1.0155905905511811
20
0.0390163385826772
11
1.0155513779527559
21
0.0392385826771654
0
LINE
8
BLACK
6
CONTINUOUS
10
1.0155513779527559
20
0.0392385826771654
11
1.0154016929133858
21
0.0394074015748032
0
LINE
8
BLACK
6
CONTINUOUS
10
1.0154016929133858
20
0.0394074015748032
11
1.0153796850393702
21
0.0402123228346457
0
LINE
8
BLACK
6
CONTINUOUS
10
1.0153796850393702
20
0.0402123228346457
11
1.0152398425196849
21
0.0410054724409449
0
LINE
8
BLACK
6
CONTINUOUS
10
1.0152398425196849
20
0.0410054724409449
11
1.0153526771653543
21
0.0412009448818898
0
LINE
8
BLACK
6
CONTINUOUS
10
1.0153526771653543
20
0.0412009448818898
11
1.0153465354330709
21
0.0414264566929134
0
LINE
8
BLACK
6
CONTINUOUS
10
1.0153465354330709
20
0.0414264566929134
11
1.0247203543307086
21
0.0695479133858268
0
LINE
8
BLACK
6
CONTINUOUS
10
1.0247203543307086
20
0.0695479133858268
11
1.0252086220472441
21
0.0704496850393701
0
LINE
8
BLACK
6
CONTINUOUS
10
1.0252086220472441
20
0.0704496850393701
11
1.0269296062992126
21
0.071506968503937
0
LINE
8
BLACK
6
CONTINUOUS
10
1.0269296062992126
20
0.071506968503937
11
1.0289275590551181
21
0.0712107086614173
0
LINE
8
BLACK
6
CONTINUOUS
10
1.1601611417322835
20
0.0712107086614173
11
1.1615012204724409
21
0.0696994488188976
0
LINE
8
BLACK
6
CONTINUOUS
10
1.1615012204724409
20
0.0696994488188976
11
1.1615563779527558
21
0.0676803937007874
0
LINE
8
BLACK
6
CONTINUOUS
10
1.1615563779527558
20
0.0676803937007874
11
1.1534780708661416
21
0.0434454724409449
0
LINE
8
BLACK
6
CONTINUOUS
10
1.1534780708661416
20
0.0434454724409449
11
1.165176220472441
21
0.0434454724409449
0
LINE
8
BLACK
6
CONTINUOUS
10
1.165176220472441
20
0.0434454724409449
11
1.165176220472441
21
0.053616062992126
0
LINE
8
BLACK
6
CONTINUOUS
10
1.165176220472441
20
0.053616062992126
11
1.1653542913385826
21
0.0546259842519685
0
LINE
8
BLACK
6
CONTINUOUS
10
1.1653542913385826
20
0.0546259842519685
11
1.1666525984251968
21
0.0561732283464567
0
LINE
8
BLACK
6
CONTINUOUS
10
1.1666525984251968
20
0.0561732283464567
11
1.1686417322834646
21
0.0565239763779528
0
LINE
8
BLACK
6
CONTINUOUS
10
1.1686417322834646
20
0.0565239763779528
11
1.1703909055118109
21
0.0555140551181102
0
LINE
8
BLACK
6
CONTINUOUS
10
1.1703909055118109
20
0.0555140551181102
11
1.1710817322834646
21
0.053616062992126
0
LINE
8
BLACK
6
CONTINUOUS
10
1.1710817322834646
20
0.053616062992126
11
1.1710817322834646
21
0.0434454724409449
0
LINE
8
BLACK
6
CONTINUOUS
10
1.1710817322834646
20
0.0434454724409449
11
1.1737532677165354
21
0.0434454724409449
0
LINE
8
BLACK
6
CONTINUOUS
10
1.1737532677165354
20
0.0434454724409449
11
1.1747631889763779
21
0.0432674015748031
0
LINE
8
BLACK
6
CONTINUOUS
10
1.1747631889763779
20
0.0432674015748031
11
1.176310433070866
21
0.041969094488189
0
LINE
8
BLACK
6
CONTINUOUS
10
1.176310433070866
20
0.041969094488189
11
1.1766611811023622
21
0.0399799606299213
0
LINE
8
BLACK
6
CONTINUOUS
10
1.1766611811023622
20
0.0399799606299213
11
1.1756512598425197
21
0.0382307874015748
0
LINE
8
BLACK
6
CONTINUOUS
10
1.1756512598425197
20
0.0382307874015748
11
1.1737532677165354
21
0.0375399606299213
0
LINE
8
BLACK
6
CONTINUOUS
10
1.1737532677165354
20
0.0375399606299213
11
1.1710817322834646
21
0.0375399606299213
0
LINE
8
BLACK
6
CONTINUOUS
10
1.1710817322834646
20
0.0375399606299213
11
1.1710817322834646
21
0.0273693307086614
0
LINE
8
BLACK
6
CONTINUOUS
10
1.1710817322834646
20
0.0273693307086614
11
1.1709036614173227
21
0.0263594094488189
0
LINE
8
BLACK
6
CONTINUOUS
10
1.1709036614173227
20
0.0263594094488189
11
1.1696053543307086
21
0.0248121653543307
0
LINE
8
BLACK
6
CONTINUOUS
10
1.1696053543307086
20
0.0248121653543307
11
1.167616220472441
21
0.0244614173228346
0
LINE
8
BLACK
6
CONTINUOUS
10
1.167616220472441
20
0.0244614173228346
11
1.1658670472440944
21
0.0254713385826772
0
LINE
8
BLACK
6
CONTINUOUS
10
1.1658670472440944
20
0.0254713385826772
11
1.165176220472441
21
0.0273693307086614
0
LINE
8
BLACK
6
CONTINUOUS
10
1.165176220472441
20
0.0273693307086614
11
1.165176220472441
21
0.0375399606299213
0
LINE
8
BLACK
6
CONTINUOUS
10
1.165176220472441
20
0.0375399606299213
11
1.1493813385826772
21
0.0375399606299213
0
LINE
8
BLACK
6
CONTINUOUS
10
1.1493813385826772
20
0.0375399606299213
11
1.1483714173228345
21
0.037718031496063
0
LINE
8
BLACK
6
CONTINUOUS
10
1.1483714173228345
20
0.037718031496063
11
1.1481985433070865
21
0.0378631102362205
0
LINE
8
BLACK
6
CONTINUOUS
10
1.1481985433070865
20
0.0378631102362205
11
1.14797531496063
21
0.0378961811023622
0
LINE
8
BLACK
6
CONTINUOUS
10
1.14797531496063
20
0.0378961811023622
11
1.1474409842519684
21
0.0384987795275591
0
LINE
8
BLACK
6
CONTINUOUS
10
1.1474409842519684
20
0.0384987795275591
11
1.1468241732283464
21
0.0390163385826772
0
LINE
8
BLACK
6
CONTINUOUS
10
1.1468241732283464
20
0.0390163385826772
11
1.1467849606299212
21
0.0392385826771654
0
LINE
8
BLACK
6
CONTINUOUS
10
1.1467849606299212
20
0.0392385826771654
11
1.1466352755905511
21
0.0394074015748032
0
LINE
8
BLACK
6
CONTINUOUS
10
1.1466352755905511
20
0.0394074015748032
11
1.1466132677165355
21
0.0402123228346457
0
LINE
8
BLACK
6
CONTINUOUS
10
1.1466132677165355
20
0.0402123228346457
11
1.1464734251968505
21
0.0410054724409449
0
LINE
8
BLACK
6
CONTINUOUS
10
1.1464734251968505
20
0.0410054724409449
11
1.1465862598425196
21
0.0412009448818898
0
LINE
8
BLACK
6
CONTINUOUS
10
1.1465862598425196
20
0.0412009448818898
11
1.1465801181102362
21
0.0414264566929134
0
LINE
8
BLACK
6
CONTINUOUS
10
1.1465801181102362
20
0.0414264566929134
11
1.155953937007874
21
0.0695479133858268
0
LINE
8
BLACK
6
CONTINUOUS
10
1.155953937007874
20
0.0695479133858268
11
1.1564422047244094
21
0.0704496850393701
0
LINE
8
BLACK
6
CONTINUOUS
10
1.1564422047244094
20
0.0704496850393701
11
1.1581631889763779
21
0.071506968503937
0
LINE
8
BLACK
6
CONTINUOUS
10
1.1581631889763779
20
0.071506968503937
11
1.1601611417322835
21
0.0712107086614173
0
LINE
8
BLACK
6
CONTINUOUS
10
1.305996811023622
20
0.0563907480314961
11
1.3061320472440945
21
0.0562772834645669
0
LINE
8
BLACK
6
CONTINUOUS
10
1.3061320472440945
20
0.0562772834645669
11
1.3063074015748031
21
0.0562570866141732
0
LINE
8
BLACK
6
CONTINUOUS
10
1.3063074015748031
20
0.0562570866141732
11
1.3100569291338582
21
0.0543823228346457
0
LINE
8
BLACK
6
CONTINUOUS
10
1.3100569291338582
20
0.0543823228346457
11
1.3106268503937009
21
0.0539596456692913
0
LINE
8
BLACK
6
CONTINUOUS
10
1.3106268503937009
20
0.0539596456692913
11
1.3108614960629921
21
0.0540613385826772
0
LINE
8
BLACK
6
CONTINUOUS
10
1.3108614960629921
20
0.0540613385826772
11
1.3111654330708662
21
0.0543823228346457
0
LINE
8
BLACK
6
CONTINUOUS
10
1.3111654330708662
20
0.0543823228346457
11
1.3149149606299213
21
0.0562570866141732
0
LINE
8
BLACK
6
CONTINUOUS
10
1.3149149606299213
20
0.0562570866141732
11
1.3158978740157481
21
0.0565494488188976
0
LINE
8
BLACK
6
CONTINUOUS
10
1.3158978740157481
20
0.0565494488188976
11
1.3160695669291338
21
0.0565084645669291
0
LINE
8
BLACK
6
CONTINUOUS
10
1.3160695669291338
20
0.0565084645669291
11
1.3162354724409449
21
0.0565688188976378
0
LINE
8
BLACK
6
CONTINUOUS
10
1.3162354724409449
20
0.0565688188976378
11
1.3218597637795275
21
0.0565688188976378
0
LINE
8
BLACK
6
CONTINUOUS
10
1.3218597637795275
20
0.0565688188976378
11
1.32286968503937
21
0.0563907480314961
0
LINE
8
BLACK
6
CONTINUOUS
10
1.32286968503937
20
0.0563907480314961
11
1.3230049212598425
21
0.0562772834645669
0
LINE
8
BLACK
6
CONTINUOUS
10
1.3230049212598425
20
0.0562772834645669
11
1.3231802755905511
21
0.0562570866141732
0
LINE
8
BLACK
6
CONTINUOUS
10
1.3231802755905511
20
0.0562570866141732
11
1.3269298425196849
21
0.0543823228346457
0
LINE
8
BLACK
6
CONTINUOUS
10
1.3269298425196849
20
0.0543823228346457
11
1.3277535039370079
21
0.0537714173228346
0
LINE
8
BLACK
6
CONTINUOUS
10
1.3277535039370079
20
0.0537714173228346
11
1.3279293307086615
21
0.0533657480314961
0
LINE
8
BLACK
6
CONTINUOUS
10
1.3279293307086615
20
0.0533657480314961
11
1.3282503543307087
21
0.053061811023622
0
LINE
8
BLACK
6
CONTINUOUS
10
1.3282503543307087
20
0.053061811023622
11
1.3301251181102363
21
0.0493122834645669
0
LINE
8
BLACK
6
CONTINUOUS
10
1.3301251181102363
20
0.0493122834645669
11
1.3304174803149607
21
0.0483293700787402
0
LINE
8
BLACK
6
CONTINUOUS
10
1.3304174803149607
20
0.0483293700787402
11
1.3303764566929133
21
0.0481576771653543
0
LINE
8
BLACK
6
CONTINUOUS
10
1.3303764566929133
20
0.0481576771653543
11
1.3304368503937007
21
0.0479917716535433
0
LINE
8
BLACK
6
CONTINUOUS
10
1.3304368503937007
20
0.0479917716535433
11
1.3304368503937007
21
0.0273693307086614
0
LINE
8
BLACK
6
CONTINUOUS
10
1.3304368503937007
20
0.0273693307086614
11
1.3302587795275591
21
0.0263594094488189
0
LINE
8
BLACK
6
CONTINUOUS
10
1.3302587795275591
20
0.0263594094488189
11
1.328960472440945
21
0.0248121653543307
0
LINE
8
BLACK
6
CONTINUOUS
10
1.328960472440945
20
0.0248121653543307
11
1.3269713385826771
21
0.0244614173228346
0
LINE
8
BLACK
6
CONTINUOUS
10
1.3269713385826771
20
0.0244614173228346
11
1.3252221653543306
21
0.0254713385826772
0
LINE
8
BLACK
6
CONTINUOUS
10
1.3252221653543306
20
0.0254713385826772
11
1.3245313385826771
21
0.0273693307086614
0
LINE
8
BLACK
6
CONTINUOUS
10
1.3245313385826771
20
0.0273693307086614
11
1.3245313385826771
21
0.0472947244094488
0
LINE
8
BLACK
6
CONTINUOUS
10
1.3245313385826771
20
0.0472947244094488
11
1.3234084645669291
21
0.0495404724409449
0
LINE
8
BLACK
6
CONTINUOUS
10
1.3234084645669291
20
0.0495404724409449
11
1.3211627165354329
21
0.0506633070866142
0
LINE
8
BLACK
6
CONTINUOUS
10
1.3211627165354329
20
0.0506633070866142
11
1.3169325196850394
21
0.0506633070866142
0
LINE
8
BLACK
6
CONTINUOUS
10
1.3169325196850394
20
0.0506633070866142
11
1.3146867716535433
21
0.0495404724409449
0
LINE
8
BLACK
6
CONTINUOUS
10
1.3146867716535433
20
0.0495404724409449
11
1.313563937007874
21
0.0472947244094488
0
LINE
8
BLACK
6
CONTINUOUS
10
1.313563937007874
20
0.0472947244094488
11
1.313563937007874
21
0.0273693307086614
0
LINE
8
BLACK
6
CONTINUOUS
10
1.313563937007874
20
0.0273693307086614
11
1.3133858661417324
21
0.0263594094488189
0
LINE
8
BLACK
6
CONTINUOUS
10
1.3133858661417324
20
0.0263594094488189
11
1.312087559055118
21
0.0248121653543307
0
LINE
8
BLACK
6
CONTINUOUS
10
1.312087559055118
20
0.0248121653543307
11
1.3100984251968504
21
0.0244614173228346
0
LINE
8
BLACK
6
CONTINUOUS
10
1.3100984251968504
20
0.0244614173228346
11
1.3083492519685038
21
0.0254713385826772
0
LINE
8
BLACK
6
CONTINUOUS
10
1.3083492519685038
20
0.0254713385826772
11
1.3076584251968504
21
0.0273693307086614
0
LINE
8
BLACK
6
CONTINUOUS
10
1.3076584251968504
20
0.0273693307086614
11
1.3076584251968504
21
0.0472947244094488
0
LINE
8
BLACK
6
CONTINUOUS
10
1.3076584251968504
20
0.0472947244094488
11
1.3065355511811023
21
0.0495404724409449
0
LINE
8
BLACK
6
CONTINUOUS
10
1.3065355511811023
20
0.0495404724409449
11
1.3042898425196849
21
0.0506633070866142
0
LINE
8
BLACK
6
CONTINUOUS
10
1.3042898425196849
20
0.0506633070866142
11
1.3000596456692912
21
0.0506633070866142
0
LINE
8
BLACK
6
CONTINUOUS
10
1.3000596456692912
20
0.0506633070866142
11
1.2973621653543306
21
0.0493145669291339
0
LINE
8
BLACK
6
CONTINUOUS
10
1.2973621653543306
20
0.0493145669291339
11
1.296691062992126
21
0.0486434645669291
0
LINE
8
BLACK
6
CONTINUOUS
10
1.296691062992126
20
0.0486434645669291
11
1.296691062992126
21
0.0273693307086614
0
LINE
8
BLACK
6
CONTINUOUS
10
1.296691062992126
20
0.0273693307086614
11
1.2965129921259841
21
0.0263594094488189
0
LINE
8
BLACK
6
CONTINUOUS
10
1.2965129921259841
20
0.0263594094488189
11
1.29521468503937
21
0.0248121653543307
0
LINE
8
BLACK
6
CONTINUOUS
10
1.29521468503937
20
0.0248121653543307
11
1.2932255511811024
21
0.0244614173228346
0
LINE
8
BLACK
6
CONTINUOUS
10
1.2932255511811024
20
0.0244614173228346
11
1.2914763779527558
21
0.0254713385826772
0
LINE
8
BLACK
6
CONTINUOUS
10
1.2914763779527558
20
0.0254713385826772
11
1.2907855511811024
21
0.0273693307086614
0
LINE
8
BLACK
6
CONTINUOUS
10
1.2907855511811024
20
0.0273693307086614
11
1.2907855511811024
21
0.053616062992126
0
LINE
8
BLACK
6
CONTINUOUS
10
1.2907855511811024
20
0.053616062992126
11
1.290963622047244
21
0.0546259842519685
0
LINE
8
BLACK
6
CONTINUOUS
10
1.290963622047244
20
0.0546259842519685
11
1.2922619291338582
21
0.0561732283464567
0
LINE
8
BLACK
6
CONTINUOUS
10
1.2922619291338582
20
0.0561732283464567
11
1.294251062992126
21
0.0565239763779528
0
LINE
8
BLACK
6
CONTINUOUS
10
1.294251062992126
20
0.0565239763779528
11
1.2960002362204723
21
0.0555140551181102
0
LINE
8
BLACK
6
CONTINUOUS
10
1.2960002362204723
20
0.0555140551181102
11
1.2960857874015748
21
0.0552789763779528
0
LINE
8
BLACK
6
CONTINUOUS
10
1.2960857874015748
20
0.0552789763779528
11
1.2980420866141733
21
0.0562570866141732
0
LINE
8
BLACK
6
CONTINUOUS
10
1.2980420866141733
20
0.0562570866141732
11
1.2990249999999999
21
0.0565494488188976
0
LINE
8
BLACK
6
CONTINUOUS
10
1.2990249999999999
20
0.0565494488188976
11
1.2991966929133858
21
0.0565084645669291
0
LINE
8
BLACK
6
CONTINUOUS
10
1.2991966929133858
20
0.0565084645669291
11
1.2993625984251969
21
0.0565688188976378
0
LINE
8
BLACK
6
CONTINUOUS
10
1.2993625984251969
20
0.0565688188976378
11
1.3049868897637795
21
0.0565688188976378
0
LINE
8
BLACK
6
CONTINUOUS
10
1.3049868897637795
20
0.0565688188976378
11
1.305996811023622
21
0.0563907480314961
0
LINE
8
BLACK
6
CONTINUOUS
10
1.3584902362204725
20
0.0563907480314961
11
1.3586254724409448
21
0.0562772834645669
0
LINE
8
BLACK
6
CONTINUOUS
10
1.3586254724409448
20
0.0562772834645669
11
1.3588008267716536
21
0.0562570866141732
0
LINE
8
BLACK
6
CONTINUOUS
10
1.3588008267716536
20
0.0562570866141732
11
1.3625503543307087
21
0.0543823228346457
0
LINE
8
BLACK
6
CONTINUOUS
10
1.3625503543307087
20
0.0543823228346457
11
1.3631202755905512
21
0.0539596456692913
0
LINE
8
BLACK
6
CONTINUOUS
10
1.3631202755905512
20
0.0539596456692913
11
1.3633549212598426
21
0.0540613385826772
0
LINE
8
BLACK
6
CONTINUOUS
10
1.3633549212598426
20
0.0540613385826772
11
1.3636588582677165
21
0.0543823228346457
0
LINE
8
BLACK
6
CONTINUOUS
10
1.3636588582677165
20
0.0543823228346457
11
1.3674083858267716
21
0.0562570866141732
0
LINE
8
BLACK
6
CONTINUOUS
10
1.3674083858267716
20
0.0562570866141732
11
1.3683912992125984
21
0.0565494488188976
0
LINE
8
BLACK
6
CONTINUOUS
10
1.3683912992125984
20
0.0565494488188976
11
1.3685629921259843
21
0.0565084645669291
0
LINE
8
BLACK
6
CONTINUOUS
10
1.3685629921259843
20
0.0565084645669291
11
1.3687288976377951
21
0.0565688188976378
0
LINE
8
BLACK
6
CONTINUOUS
10
1.3687288976377951
20
0.0565688188976378
11
1.3743531889763778
21
0.0565688188976378
0
LINE
8
BLACK
6
CONTINUOUS
10
1.3743531889763778
20
0.0565688188976378
11
1.3753631102362205
21
0.0563907480314961
0
LINE
8
BLACK
6
CONTINUOUS
10
1.3753631102362205
20
0.0563907480314961
11
1.3754983464566928
21
0.0562772834645669
0
LINE
8
BLACK
6
CONTINUOUS
10
1.3754983464566928
20
0.0562772834645669
11
1.3756737007874016
21
0.0562570866141732
0
LINE
8
BLACK
6
CONTINUOUS
10
1.3756737007874016
20
0.0562570866141732
11
1.3794232677165355
21
0.0543823228346457
0
LINE
8
BLACK
6
CONTINUOUS
10
1.3794232677165355
20
0.0543823228346457
11
1.3802469291338582
21
0.0537714173228346
0
LINE
8
BLACK
6
CONTINUOUS
10
1.3802469291338582
20
0.0537714173228346
11
1.3804227559055118
21
0.0533657480314961
0
LINE
8
BLACK
6
CONTINUOUS
10
1.3804227559055118
20
0.0533657480314961
11
1.380743779527559
21
0.053061811023622
0
LINE
8
BLACK
6
CONTINUOUS
10
1.380743779527559
20
0.053061811023622
11
1.3826185433070866
21
0.0493122834645669
0
LINE
8
BLACK
6
CONTINUOUS
10
1.3826185433070866
20
0.0493122834645669
11
1.382910905511811
21
0.0483293700787402
0
LINE
8
BLACK
6
CONTINUOUS
10
1.382910905511811
20
0.0483293700787402
11
1.3828698818897638
21
0.0481576771653543
0
LINE
8
BLACK
6
CONTINUOUS
10
1.3828698818897638
20
0.0481576771653543
11
1.382930275590551
21
0.0479917716535433
0
LINE
8
BLACK
6
CONTINUOUS
10
1.382930275590551
20
0.0479917716535433
11
1.382930275590551
21
0.0273693307086614
0
LINE
8
BLACK
6
CONTINUOUS
10
1.382930275590551
20
0.0273693307086614
11
1.3827522047244094
21
0.0263594094488189
0
LINE
8
BLACK
6
CONTINUOUS
10
1.3827522047244094
20
0.0263594094488189
11
1.3814538976377952
21
0.0248121653543307
0
LINE
8
BLACK
6
CONTINUOUS
10
1.3814538976377952
20
0.0248121653543307
11
1.3794647637795274
21
0.0244614173228346
0
LINE
8
BLACK
6
CONTINUOUS
10
1.3794647637795274
20
0.0244614173228346
11
1.3777155905511811
21
0.0254713385826772
0
LINE
8
BLACK
6
CONTINUOUS
10
1.3777155905511811
20
0.0254713385826772
11
1.3770247637795274
21
0.0273693307086614
0
LINE
8
BLACK
6
CONTINUOUS
10
1.3770247637795274
20
0.0273693307086614
11
1.3770247637795274
21
0.0472947244094488
0
LINE
8
BLACK
6
CONTINUOUS
10
1.3770247637795274
20
0.0472947244094488
11
1.3759018897637796
21
0.0495404724409449
0
LINE
8
BLACK
6
CONTINUOUS
10
1.3759018897637796
20
0.0495404724409449
11
1.3736561417322835
21
0.0506633070866142
0
LINE
8
BLACK
6
CONTINUOUS
10
1.3736561417322835
20
0.0506633070866142
11
1.3694259448818897
21
0.0506633070866142
0
LINE
8
BLACK
6
CONTINUOUS
10
1.3694259448818897
20
0.0506633070866142
11
1.3671801968503936
21
0.0495404724409449
0
LINE
8
BLACK
6
CONTINUOUS
10
1.3671801968503936
20
0.0495404724409449
11
1.3660573622047243
21
0.0472947244094488
0
LINE
8
BLACK
6
CONTINUOUS
10
1.3660573622047243
20
0.0472947244094488
11
1.3660573622047243
21
0.0273693307086614
0
LINE
8
BLACK
6
CONTINUOUS
10
1.3660573622047243
20
0.0273693307086614
11
1.3658792913385827
21
0.0263594094488189
0
LINE
8
BLACK
6
CONTINUOUS
10
1.3658792913385827
20
0.0263594094488189
11
1.3645809842519685
21
0.0248121653543307
0
LINE
8
BLACK
6
CONTINUOUS
10
1.3645809842519685
20
0.0248121653543307
11
1.3625918503937007
21
0.0244614173228346
0
LINE
8
BLACK
6
CONTINUOUS
10
1.3625918503937007
20
0.0244614173228346
11
1.3608426771653543
21
0.0254713385826772
0
LINE
8
BLACK
6
CONTINUOUS
10
1.3608426771653543
20
0.0254713385826772
11
1.3601518503937007
21
0.0273693307086614
0
LINE
8
BLACK
6
CONTINUOUS
10
1.3601518503937007
20
0.0273693307086614
11
1.3601518503937007
21
0.0472947244094488
0
LINE
8
BLACK
6
CONTINUOUS
10
1.3601518503937007
20
0.0472947244094488
11
1.3590289763779528
21
0.0495404724409449
0
LINE
8
BLACK
6
CONTINUOUS
10
1.3590289763779528
20
0.0495404724409449
11
1.3567832677165355
21
0.0506633070866142
0
LINE
8
BLACK
6
CONTINUOUS
10
1.3567832677165355
20
0.0506633070866142
11
1.3525530708661417
21
0.0506633070866142
0
LINE
8
BLACK
6
CONTINUOUS
10
1.3525530708661417
20
0.0506633070866142
11
1.3498555905511811
21
0.0493145669291339
0
LINE
8
BLACK
6
CONTINUOUS
10
1.3498555905511811
20
0.0493145669291339
11
1.3491844881889763
21
0.0486434645669291
0
LINE
8
BLACK
6
CONTINUOUS
10
1.3491844881889763
20
0.0486434645669291
11
1.3491844881889763
21
0.0273693307086614
0
LINE
8
BLACK
6
CONTINUOUS
10
1.3491844881889763
20
0.0273693307086614
11
1.3490064173228347
21
0.0263594094488189
0
LINE
8
BLACK
6
CONTINUOUS
10
1.3490064173228347
20
0.0263594094488189
11
1.3477081102362205
21
0.0248121653543307
0
LINE
8
BLACK
6
CONTINUOUS
10
1.3477081102362205
20
0.0248121653543307
11
1.3457189763779527
21
0.0244614173228346
0
LINE
8
BLACK
6
CONTINUOUS
10
1.3457189763779527
20
0.0244614173228346
11
1.3439698031496063
21
0.0254713385826772
0
LINE
8
BLACK
6
CONTINUOUS
10
1.3439698031496063
20
0.0254713385826772
11
1.3432789763779527
21
0.0273693307086614
0
LINE
8
BLACK
6
CONTINUOUS
10
1.3432789763779527
20
0.0273693307086614
11
1.3432789763779527
21
0.053616062992126
0
LINE
8
BLACK
6
CONTINUOUS
10
1.3432789763779527
20
0.053616062992126
11
1.3434570472440945
21
0.0546259842519685
0
LINE
8
BLACK
6
CONTINUOUS
10
1.3434570472440945
20
0.0546259842519685
11
1.3447553543307087
21
0.0561732283464567
0
LINE
8
BLACK
6
CONTINUOUS
10
1.3447553543307087
20
0.0561732283464567
11
1.3467444881889763
21
0.0565239763779528
0
LINE
8
BLACK
6
CONTINUOUS
10
1.3467444881889763
20
0.0565239763779528
11
1.3484936614173229
21
0.0555140551181102
0
LINE
8
BLACK
6
CONTINUOUS
10
1.3484936614173229
20
0.0555140551181102
11
1.3485792125984251
21
0.0552789763779528
0
LINE
8
BLACK
6
CONTINUOUS
10
1.3485792125984251
20
0.0552789763779528
11
1.3505355118110236
21
0.0562570866141732
0
LINE
8
BLACK
6
CONTINUOUS
10
1.3505355118110236
20
0.0562570866141732
11
1.3515184251968504
21
0.0565494488188976
0
LINE
8
BLACK
6
CONTINUOUS
10
1.3515184251968504
20
0.0565494488188976
11
1.3516901181102361
21
0.0565084645669291
0
LINE
8
BLACK
6
CONTINUOUS
10
1.3516901181102361
20
0.0565084645669291
11
1.3518560236220472
21
0.0565688188976378
0
LINE
8
BLACK
6
CONTINUOUS
10
1.3518560236220472
20
0.0565688188976378
11
1.3574803149606298
21
0.0565688188976378
0
LINE
8
BLACK
6
CONTINUOUS
10
1.3574803149606298
20
0.0565688188976378
11
1.3584902362204725
21
0.0563907480314961
0
LINE
8
BLACK
6
CONTINUOUS
10
2.3976406299212596
20
1.6027475590551181
11
2.3991878740157482
21
1.601449251968504
0
LINE
8
BLACK
6
CONTINUOUS
10
2.3991878740157482
20
1.601449251968504
11
2.3995386220472441
21
1.5994601181102361
0
LINE
8
BLACK
6
CONTINUOUS
10
2.3995386220472441
20
1.5994601181102361
11
2.3985287007874017
21
1.5977109448818898
0
LINE
8
BLACK
6
CONTINUOUS
10
2.3985287007874017
20
1.5977109448818898
11
2.3966307086614171
21
1.5970201181102361
0
LINE
8
BLACK
6
CONTINUOUS
10
2.3966307086614171
20
1.5970201181102361
11
2.3784092913385826
21
1.5970201181102361
0
LINE
8
BLACK
6
CONTINUOUS
10
2.3784092913385826
20
1.5970201181102361
11
2.3992498818897636
21
1.5569857480314959
0
LINE
8
BLACK
6
CONTINUOUS
10
2.3992498818897636
20
1.5569857480314959
11
2.3995582283464567
21
1.5560077165354331
0
LINE
8
BLACK
6
CONTINUOUS
10
2.3995582283464567
20
1.5560077165354331
11
2.3991210629921258
21
1.5540358267716534
0
LINE
8
BLACK
6
CONTINUOUS
10
2.3991210629921258
20
1.5540358267716534
11
2.3975186614173229
21
1.5528062204724409
0
LINE
8
BLACK
6
CONTINUOUS
10
2.3975186614173229
20
1.5528062204724409
11
2.3955007874015748
21
1.5528943700787401
0
LINE
8
BLACK
6
CONTINUOUS
10
2.3955007874015748
20
1.5528943700787401
11
2.3940116141732282
21
1.5542588976377953
0
LINE
8
BLACK
6
CONTINUOUS
10
2.3940116141732282
20
1.5542588976377953
11
2.3764960629921261
21
1.5879059842519685
0
LINE
8
BLACK
6
CONTINUOUS
10
2.3764960629921261
20
1.5879059842519685
11
2.3764960629921261
21
0.4120398031496063
0
LINE
8
BLACK
6
CONTINUOUS
10
2.3764960629921261
20
0.4120398031496063
11
2.3940116141732282
21
0.4456868503937008
0
LINE
8
BLACK
6
CONTINUOUS
10
2.3940116141732282
20
0.4456868503937008
11
2.3946359055118109
21
0.4465004330708661
0
LINE
8
BLACK
6
CONTINUOUS
10
2.3946359055118109
20
0.4465004330708661
11
2.3965019291338581
21
0.4472733464566929
0
LINE
8
BLACK
6
CONTINUOUS
10
2.3965019291338581
20
0.4472733464566929
11
2.3984282677165352
21
0.4466659842519685
0
LINE
8
BLACK
6
CONTINUOUS
10
2.3984282677165352
20
0.4466659842519685
11
2.3995135039370079
21
0.4449625196850394
0
LINE
8
BLACK
6
CONTINUOUS
10
2.3995135039370079
20
0.4449625196850394
11
2.3992498818897636
21
0.44296
0
LINE
8
BLACK
6
CONTINUOUS
10
2.3992498818897636
20
0.44296
11
2.3784092913385826
21
0.4029256299212599
0
LINE
8
BLACK
6
CONTINUOUS
10
2.3784092913385826
20
0.4029256299212599
11
2.3966307086614171
21
0.4029256299212599
0
LINE
8
BLACK
6
CONTINUOUS
10
2.3966307086614171
20
0.4029256299212599
11
2.3976406299212596
21
0.4027475590551181
0
LINE
8
BLACK
6
CONTINUOUS
10
2.3976406299212596
20
0.4027475590551181
11
2.3991878740157482
21
0.401449251968504
0
LINE
8
BLACK
6
CONTINUOUS
10
2.3991878740157482
20
0.401449251968504
11
2.3995386220472441
21
0.3994601181102362
0
LINE
8
BLACK
6
CONTINUOUS
10
2.3995386220472441
20
0.3994601181102362
11
2.3985287007874017
21
0.3977109448818897
0
LINE
8
BLACK
6
CONTINUOUS
10
2.3985287007874017
20
0.3977109448818897
11
2.3966307086614171
21
0.3970201181102362
0
LINE
8
BLACK
6
CONTINUOUS
10
2.3966307086614171
20
0.3970201181102362
11
2.0192931889763779
21
0.3970201181102362
0
LINE
8
BLACK
6
CONTINUOUS
10
2.0192931889763779
20
0.3970201181102362
11
2.0182832677165354
21
0.3971981889763779
0
LINE
8
BLACK
6
CONTINUOUS
10
2.0182832677165354
20
0.3971981889763779
11
2.0167360236220473
21
0.3984964960629921
0
LINE
8
BLACK
6
CONTINUOUS
10
2.0167360236220473
20
0.3984964960629921
11
2.0163852755905509
21
0.4004856299212599
0
LINE
8
BLACK
6
CONTINUOUS
10
2.0163852755905509
20
0.4004856299212599
11
2.0173951968503938
21
0.4022348031496063
0
LINE
8
BLACK
6
CONTINUOUS
10
2.0173951968503938
20
0.4022348031496063
11
2.0192931889763779
21
0.4029256299212599
0
LINE
8
BLACK
6
CONTINUOUS
10
2.0192931889763779
20
0.4029256299212599
11
2.3686773228346456
21
0.4029256299212599
0
LINE
8
BLACK
6
CONTINUOUS
10
2.3686773228346456
20
0.4029256299212599
11
2.3478367322834646
21
0.44296
0
LINE
8
BLACK
6
CONTINUOUS
10
2.3478367322834646
20
0.44296
11
2.3475283464566927
21
0.443938031496063
0
LINE
8
BLACK
6
CONTINUOUS
10
2.3475283464566927
20
0.443938031496063
11
2.3479655511811024
21
0.4459099606299213
0
LINE
8
BLACK
6
CONTINUOUS
10
2.3479655511811024
20
0.4459099606299213
11
2.3495679527559052
21
0.4471395275590551
0
LINE
8
BLACK
6
CONTINUOUS
10
2.3495679527559052
20
0.4471395275590551
11
2.3515858267716534
21
0.4470514173228347
0
LINE
8
BLACK
6
CONTINUOUS
10
2.3515858267716534
20
0.4470514173228347
11
2.353075
21
0.4456868503937008
0
LINE
8
BLACK
6
CONTINUOUS
10
2.353075
20
0.4456868503937008
11
2.3705905511811025
21
0.4120398031496063
0
LINE
8
BLACK
6
CONTINUOUS
10
2.3705905511811025
20
0.4120398031496063
11
2.3705905511811025
21
1.5879059842519685
0
LINE
8
BLACK
6
CONTINUOUS
10
2.3705905511811025
20
1.5879059842519685
11
2.353075
21
1.5542588976377953
0
LINE
8
BLACK
6
CONTINUOUS
10
2.353075
20
1.5542588976377953
11
2.3524507086614173
21
1.55344531496063
0
LINE
8
BLACK
6
CONTINUOUS
10
2.3524507086614173
20
1.55344531496063
11
2.3505846456692914
21
1.5526723622047243
0
LINE
8
BLACK
6
CONTINUOUS
10
2.3505846456692914
20
1.5526723622047243
11
2.3486583070866143
21
1.5532797244094487
0
LINE
8
BLACK
6
CONTINUOUS
10
2.3486583070866143
20
1.5532797244094487
11
2.3475731102362203
21
1.5549832283464566
0
LINE
8
BLACK
6
CONTINUOUS
10
2.3475731102362203
20
1.5549832283464566
11
2.3478367322834646
21
1.5569857480314959
0
LINE
8
BLACK
6
CONTINUOUS
10
2.3478367322834646
20
1.5569857480314959
11
2.3686773228346456
21
1.5970201181102361
0
LINE
8
BLACK
6
CONTINUOUS
10
2.3686773228346456
20
1.5970201181102361
11
2.0192931889763779
21
1.5970201181102361
0
LINE
8
BLACK
6
CONTINUOUS
10
2.0192931889763779
20
1.5970201181102361
11
2.0182832677165354
21
1.597198188976378
0
LINE
8
BLACK
6
CONTINUOUS
10
2.0182832677165354
20
1.597198188976378
11
2.0167360236220473
21
1.5984964960629922
0
LINE
8
BLACK
6
CONTINUOUS
10
2.0167360236220473
20
1.5984964960629922
11
2.0163852755905509
21
1.6004856299212598
0
LINE
8
BLACK
6
CONTINUOUS
10
2.0163852755905509
20
1.6004856299212598
11
2.0173951968503938
21
1.6022348031496063
0
LINE
8
BLACK
6
CONTINUOUS
10
2.0173951968503938
20
1.6022348031496063
11
2.0192931889763779
21
1.6029256299212598
0
LINE
8
BLACK
6
CONTINUOUS
10
2.0192931889763779
20
1.6029256299212598
11
2.3966307086614171
21
1.6029256299212598
0
LINE
8
BLACK
6
CONTINUOUS
10
2.3966307086614171
20
1.6029256299212598
11
2.3976406299212596
21
1.6027475590551181
0
LINE
8
BLACK
6
CONTINUOUS
10
2.339684803149606
20
0.8433925196850394
11
2.3398200393700788
21
0.8432790551181102
0
LINE
8
BLACK
6
CONTINUOUS
10
2.3398200393700788
20
0.8432790551181102
11
2.3399953937007871
21
0.8432588582677165
0
LINE
8
BLACK
6
CONTINUOUS
10
2.3399953937007871
20
0.8432588582677165
11
2.3437449212598427
21
0.841384094488189
0
LINE
8
BLACK
6
CONTINUOUS
10
2.3437449212598427
20
0.841384094488189
11
2.3444538976377953
21
0.8408582677165354
0
LINE
8
BLACK
6
CONTINUOUS
10
2.3444538976377953
20
0.8408582677165354
11
2.3445122834645669
21
0.8408310236220472
0
LINE
8
BLACK
6
CONTINUOUS
10
2.3445122834645669
20
0.8408310236220472
11
2.3463870866141732
21
0.8389562598425196
0
LINE
8
BLACK
6
CONTINUOUS
10
2.3463870866141732
20
0.8389562598425196
11
2.346893464566929
21
0.8382331102362205
0
LINE
8
BLACK
6
CONTINUOUS
10
2.346893464566929
20
0.8382331102362205
11
2.3469402362204725
21
0.8381888188976377
0
LINE
8
BLACK
6
CONTINUOUS
10
2.3469402362204725
20
0.8381888188976377
11
2.3488150000000001
21
0.8344392913385826
0
LINE
8
BLACK
6
CONTINUOUS
10
2.3488150000000001
20
0.8344392913385826
11
2.3491073622047245
21
0.8334563779527558
0
LINE
8
BLACK
6
CONTINUOUS
10
2.3491073622047245
20
0.8334563779527558
11
2.3490663385826771
21
0.83328468503937
0
LINE
8
BLACK
6
CONTINUOUS
10
2.3490663385826771
20
0.83328468503937
11
2.3491267322834646
21
0.8331187795275591
0
LINE
8
BLACK
6
CONTINUOUS
10
2.3491267322834646
20
0.8331187795275591
11
2.3491267322834646
21
0.8218701968503936
0
LINE
8
BLACK
6
CONTINUOUS
10
2.3491267322834646
20
0.8218701968503936
11
2.3489486614173227
21
0.8208602755905512
0
LINE
8
BLACK
6
CONTINUOUS
10
2.3489486614173227
20
0.8208602755905512
11
2.3488351574803148
21
0.8207250393700787
0
LINE
8
BLACK
6
CONTINUOUS
10
2.3488351574803148
20
0.8207250393700787
11
2.3488150000000001
21
0.8205496850393701
0
LINE
8
BLACK
6
CONTINUOUS
10
2.3488150000000001
20
0.8205496850393701
11
2.3469402362204725
21
0.816800157480315
0
LINE
8
BLACK
6
CONTINUOUS
10
2.3469402362204725
20
0.816800157480315
11
2.3464142519685041
21
0.816091062992126
0
LINE
8
BLACK
6
CONTINUOUS
10
2.3464142519685041
20
0.816091062992126
11
2.3463870866141732
21
0.8160327165354331
0
LINE
8
BLACK
6
CONTINUOUS
10
2.3463870866141732
20
0.8160327165354331
11
2.3445122834645669
21
0.8141579527559055
0
LINE
8
BLACK
6
CONTINUOUS
10
2.3445122834645669
20
0.8141579527559055
11
2.3436722440944879
21
0.8135697637795275
0
LINE
8
BLACK
6
CONTINUOUS
10
2.3436722440944879
20
0.8135697637795275
11
2.3416601574803151
21
0.8133937795275591
0
LINE
8
BLACK
6
CONTINUOUS
10
2.3416601574803151
20
0.8133937795275591
11
2.3400056299212597
21
0.8145522834645669
0
LINE
8
BLACK
6
CONTINUOUS
10
2.3400056299212597
20
0.8145522834645669
11
2.3394829133858268
21
0.8165032677165354
0
LINE
8
BLACK
6
CONTINUOUS
10
2.3394829133858268
20
0.8165032677165354
11
2.340336535433071
21
0.8183338582677165
0
LINE
8
BLACK
6
CONTINUOUS
10
2.340336535433071
20
0.8183338582677165
11
2.3418724803149606
21
0.8198698031496063
0
LINE
8
BLACK
6
CONTINUOUS
10
2.3418724803149606
20
0.8198698031496063
11
2.343221220472441
21
0.8225672440944882
0
LINE
8
BLACK
6
CONTINUOUS
10
2.343221220472441
20
0.8225672440944882
11
2.343221220472441
21
0.8324217322834645
0
LINE
8
BLACK
6
CONTINUOUS
10
2.343221220472441
20
0.8324217322834645
11
2.3418724803149606
21
0.8351192125984251
0
LINE
8
BLACK
6
CONTINUOUS
10
2.3418724803149606
20
0.8351192125984251
11
2.3406753149606301
21
0.8363163385826772
0
LINE
8
BLACK
6
CONTINUOUS
10
2.3406753149606301
20
0.8363163385826772
11
2.3379778346456694
21
0.8376650787401575
0
LINE
8
BLACK
6
CONTINUOUS
10
2.3379778346456694
20
0.8376650787401575
11
2.3299981102362204
21
0.8376650787401575
0
LINE
8
BLACK
6
CONTINUOUS
10
2.3299981102362204
20
0.8376650787401575
11
2.3273006299212597
21
0.8363163385826772
0
LINE
8
BLACK
6
CONTINUOUS
10
2.3273006299212597
20
0.8363163385826772
11
2.3261035039370079
21
0.8351192125984251
0
LINE
8
BLACK
6
CONTINUOUS
10
2.3261035039370079
20
0.8351192125984251
11
2.3247547637795276
21
0.8324217322834645
0
LINE
8
BLACK
6
CONTINUOUS
10
2.3247547637795276
20
0.8324217322834645
11
2.3247547637795276
21
0.8274944881889763
0
LINE
8
BLACK
6
CONTINUOUS
10
2.3247547637795276
20
0.8274944881889763
11
2.3246776377952756
21
0.8270571653543307
0
LINE
8
BLACK
6
CONTINUOUS
10
2.3246776377952756
20
0.8270571653543307
11
2.3246986614173228
21
0.826921653543307
0
LINE
8
BLACK
6
CONTINUOUS
10
2.3246986614173228
20
0.826921653543307
11
2.3246352755905511
21
0.8268170078740157
0
LINE
8
BLACK
6
CONTINUOUS
10
2.3246352755905511
20
0.8268170078740157
11
2.3245766929133858
21
0.8264845669291339
0
LINE
8
BLACK
6
CONTINUOUS
10
2.3245766929133858
20
0.8264845669291339
11
2.324065
21
0.8258748031496063
0
LINE
8
BLACK
6
CONTINUOUS
10
2.324065
20
0.8258748031496063
11
2.3236527952755903
21
0.8251937401574803
0
LINE
8
BLACK
6
CONTINUOUS
10
2.3236527952755903
20
0.8251937401574803
11
2.3234297637795276
21
0.8251177952755905
0
LINE
8
BLACK
6
CONTINUOUS
10
2.3234297637795276
20
0.8251177952755905
11
2.3232783858267716
21
0.8249373228346456
0
LINE
8
BLACK
6
CONTINUOUS
10
2.3232783858267716
20
0.8249373228346456
11
2.3224944094488187
21
0.824799094488189
0
LINE
8
BLACK
6
CONTINUOUS
10
2.3224944094488187
20
0.824799094488189
11
2.321740905511811
21
0.8245423622047244
0
LINE
8
BLACK
6
CONTINUOUS
10
2.321740905511811
20
0.8245423622047244
11
2.3215212598425197
21
0.8246275196850393
0
LINE
8
BLACK
6
CONTINUOUS
10
2.3215212598425197
20
0.8246275196850393
11
2.321289251968504
21
0.8245865748031496
0
LINE
8
BLACK
6
CONTINUOUS
10
2.321289251968504
20
0.8245865748031496
11
2.3205997637795277
21
0.8249846850393701
0
LINE
8
BLACK
6
CONTINUOUS
10
2.3205997637795277
20
0.8249846850393701
11
2.3198575984251968
21
0.8252723228346457
0
LINE
8
BLACK
6
CONTINUOUS
10
2.3198575984251968
20
0.8252723228346457
11
2.3097566535433072
21
0.8341106692913386
0
LINE
8
BLACK
6
CONTINUOUS
10
2.3097566535433072
20
0.8341106692913386
11
2.3097566535433072
21
0.816245905511811
0
LINE
8
BLACK
6
CONTINUOUS
10
2.3097566535433072
20
0.816245905511811
11
2.3095785826771653
21
0.8152359842519685
0
LINE
8
BLACK
6
CONTINUOUS
10
2.3095785826771653
20
0.8152359842519685
11
2.3082802755905512
21
0.8136887401574803
0
LINE
8
BLACK
6
CONTINUOUS
10
2.3082802755905512
20
0.8136887401574803
11
2.3062911417322836
21
0.8133379921259842
0
LINE
8
BLACK
6
CONTINUOUS
10
2.3062911417322836
20
0.8133379921259842
11
2.304541968503937
21
0.8143479133858268
0
LINE
8
BLACK
6
CONTINUOUS
10
2.304541968503937
20
0.8143479133858268
11
2.3038511417322836
21
0.816245905511811
0
LINE
8
BLACK
6
CONTINUOUS
10
2.3038511417322836
20
0.816245905511811
11
2.3038511417322836
21
0.8406178346456693
0
LINE
8
BLACK
6
CONTINUOUS
10
2.3038511417322836
20
0.8406178346456693
11
2.3039282283464568
21
0.8410551968503936
0
LINE
8
BLACK
6
CONTINUOUS
10
2.3039282283464568
20
0.8410551968503936
11
2.3039072440944883
21
0.8411906692913386
0
LINE
8
BLACK
6
CONTINUOUS
10
2.3039072440944883
20
0.8411906692913386
11
2.3039705905511809
21
0.8412953543307087
0
LINE
8
BLACK
6
CONTINUOUS
10
2.3039705905511809
20
0.8412953543307087
11
2.304029212598425
21
0.8416277559055118
0
LINE
8
BLACK
6
CONTINUOUS
10
2.304029212598425
20
0.8416277559055118
11
2.3045408661417324
21
0.8422375590551181
0
LINE
8
BLACK
6
CONTINUOUS
10
2.3045408661417324
20
0.8422375590551181
11
2.3049531102362204
21
0.8429185826771654
0
LINE
8
BLACK
6
CONTINUOUS
10
2.3049531102362204
20
0.8429185826771654
11
2.3051761023622048
21
0.8429945669291339
0
LINE
8
BLACK
6
CONTINUOUS
10
2.3051761023622048
20
0.8429945669291339
11
2.3053275196850391
21
0.843175
0
LINE
8
BLACK
6
CONTINUOUS
10
2.3053275196850391
20
0.843175
11
2.3061114566929133
21
0.8433132677165354
0
LINE
8
BLACK
6
CONTINUOUS
10
2.3061114566929133
20
0.8433132677165354
11
2.3068650000000002
21
0.8435699606299213
0
LINE
8
BLACK
6
CONTINUOUS
10
2.3068650000000002
20
0.8435699606299213
11
2.3070846062992127
21
0.843484842519685
0
LINE
8
BLACK
6
CONTINUOUS
10
2.3070846062992127
20
0.843484842519685
11
2.3073166535433072
21
0.843525748031496
0
LINE
8
BLACK
6
CONTINUOUS
10
2.3073166535433072
20
0.843525748031496
11
2.3080061023622047
21
0.8431276771653543
0
LINE
8
BLACK
6
CONTINUOUS
10
2.3080061023622047
20
0.8431276771653543
11
2.3087483070866139
21
0.84284
0
LINE
8
BLACK
6
CONTINUOUS
10
2.3087483070866139
20
0.84284
11
2.3189840944881888
21
0.8338837007874016
0
LINE
8
BLACK
6
CONTINUOUS
10
2.3189840944881888
20
0.8338837007874016
11
2.3190273228346454
21
0.8341287007874015
0
LINE
8
BLACK
6
CONTINUOUS
10
2.3190273228346454
20
0.8341287007874015
11
2.3191407874015746
21
0.8342639763779527
0
LINE
8
BLACK
6
CONTINUOUS
10
2.3191407874015746
20
0.8342639763779527
11
2.3191609842519685
21
0.8344392913385826
0
LINE
8
BLACK
6
CONTINUOUS
10
2.3191609842519685
20
0.8344392913385826
11
2.321035748031496
21
0.8381888188976377
0
LINE
8
BLACK
6
CONTINUOUS
10
2.321035748031496
20
0.8381888188976377
11
2.321561653543307
21
0.8388979133858268
0
LINE
8
BLACK
6
CONTINUOUS
10
2.321561653543307
20
0.8388979133858268
11
2.3215888582677167
21
0.8389562204724409
0
LINE
8
BLACK
6
CONTINUOUS
10
2.3215888582677167
20
0.8389562204724409
11
2.3234636220472442
21
0.8408309842519684
0
LINE
8
BLACK
6
CONTINUOUS
10
2.3234636220472442
20
0.8408309842519684
11
2.3241866929133859
21
0.8413372834645669
0
LINE
8
BLACK
6
CONTINUOUS
10
2.3241866929133859
20
0.8413372834645669
11
2.3242310236220471
21
0.841384094488189
0
LINE
8
BLACK
6
CONTINUOUS
10
2.3242310236220471
20
0.841384094488189
11
2.3279805511811023
21
0.8432588582677165
0
LINE
8
BLACK
6
CONTINUOUS
10
2.3279805511811023
20
0.8432588582677165
11
2.3289634645669293
21
0.8435512204724409
0
LINE
8
BLACK
6
CONTINUOUS
10
2.3289634645669293
20
0.8435512204724409
11
2.329135157480315
21
0.8435102362204724
0
LINE
8
BLACK
6
CONTINUOUS
10
2.329135157480315
20
0.8435102362204724
11
2.3293010629921258
21
0.8435705905511811
0
LINE
8
BLACK
6
CONTINUOUS
10
2.3293010629921258
20
0.8435705905511811
11
2.3386748818897636
21
0.8435705905511811
0
LINE
8
BLACK
6
CONTINUOUS
10
2.3386748818897636
20
0.8435705905511811
11
2.339684803149606
21
0.8433925196850394
0
LINE
8
BLACK
6
CONTINUOUS
10
2.3317561811023619
20
0.8809635826771653
11
2.3318919685039368
21
0.8809777559055118
0
LINE
8
BLACK
6
CONTINUOUS
10
2.3318919685039368
20
0.8809777559055118
11
2.339391023622047
21
0.8791029921259842
0
LINE
8
BLACK
6
CONTINUOUS
10
2.339391023622047
20
0.8791029921259842
11
2.3398564566929134
21
0.8788954330708661
0
LINE
8
BLACK
6
CONTINUOUS
10
2.3398564566929134
20
0.8788954330708661
11
2.3399953937007871
21
0.8788794094488189
0
LINE
8
BLACK
6
CONTINUOUS
10
2.3399953937007871
20
0.8788794094488189
11
2.3437449212598427
21
0.8770046456692914
0
LINE
8
BLACK
6
CONTINUOUS
10
2.3437449212598427
20
0.8770046456692914
11
2.3444538976377953
21
0.8764788188976378
0
LINE
8
BLACK
6
CONTINUOUS
10
2.3444538976377953
20
0.8764788188976378
11
2.3445122834645669
21
0.8764515748031496
0
LINE
8
BLACK
6
CONTINUOUS
10
2.3445122834645669
20
0.8764515748031496
11
2.3463870866141732
21
0.8745768110236221
0
LINE
8
BLACK
6
CONTINUOUS
10
2.3463870866141732
20
0.8745768110236221
11
2.346893464566929
21
0.8738536614173228
0
LINE
8
BLACK
6
CONTINUOUS
10
2.346893464566929
20
0.8738536614173228
11
2.3469402362204725
21
0.8738093700787402
0
LINE
8
BLACK
6
CONTINUOUS
10
2.3469402362204725
20
0.8738093700787402
11
2.3488150000000001
21
0.870059842519685
0
LINE
8
BLACK
6
CONTINUOUS
10
2.3488150000000001
20
0.870059842519685
11
2.3491073622047245
21
0.8690769291338583
0
LINE
8
BLACK
6
CONTINUOUS
10
2.3491073622047245
20
0.8690769291338583
11
2.3490663385826771
21
0.8689052362204724
0
LINE
8
BLACK
6
CONTINUOUS
10
2.3490663385826771
20
0.8689052362204724
11
2.3491267322834646
21
0.8687393307086614
0
LINE
8
BLACK
6
CONTINUOUS
10
2.3491267322834646
20
0.8687393307086614
11
2.3491267322834646
21
0.8649898031496063
0
LINE
8
BLACK
6
CONTINUOUS
10
2.3491267322834646
20
0.8649898031496063
11
2.3489486614173227
21
0.8639798818897637
0
LINE
8
BLACK
6
CONTINUOUS
10
2.3489486614173227
20
0.8639798818897637
11
2.3488351574803148
21
0.8638446456692913
0
LINE
8
BLACK
6
CONTINUOUS
10
2.3488351574803148
20
0.8638446456692913
11
2.3488150000000001
21
0.8636692913385826
0
LINE
8
BLACK
6
CONTINUOUS
10
2.3488150000000001
20
0.8636692913385826
11
2.3469402362204725
21
0.8599197637795275
0
LINE
8
BLACK
6
CONTINUOUS
10
2.3469402362204725
20
0.8599197637795275
11
2.3464142519685041
21
0.8592106692913386
0
LINE
8
BLACK
6
CONTINUOUS
10
2.3464142519685041
20
0.8592106692913386
11
2.3463870866141732
21
0.8591523228346456
0
LINE
8
BLACK
6
CONTINUOUS
10
2.3463870866141732
20
0.8591523228346456
11
2.3445122834645669
21
0.857277559055118
0
LINE
8
BLACK
6
CONTINUOUS
10
2.3445122834645669
20
0.857277559055118
11
2.3437892125984252
21
0.8567712992125984
0
LINE
8
BLACK
6
CONTINUOUS
10
2.3437892125984252
20
0.8567712992125984
11
2.3437449212598427
21
0.8567244881889764
0
LINE
8
BLACK
6
CONTINUOUS
10
2.3437449212598427
20
0.8567244881889764
11
2.3399953937007871
21
0.8548497244094488
0
LINE
8
BLACK
6
CONTINUOUS
10
2.3399953937007871
20
0.8548497244094488
11
2.3395069291338584
21
0.8547044488188976
0
LINE
8
BLACK
6
CONTINUOUS
10
2.3395069291338584
20
0.8547044488188976
11
2.339391023622047
21
0.8546261417322835
0
LINE
8
BLACK
6
CONTINUOUS
10
2.339391023622047
20
0.8546261417322835
11
2.3318919685039368
21
0.8527513779527559
0
LINE
8
BLACK
6
CONTINUOUS
10
2.3318919685039368
20
0.8527513779527559
11
2.3313040551181103
21
0.8527099212598425
0
LINE
8
BLACK
6
CONTINUOUS
10
2.3313040551181103
20
0.8527099212598425
11
2.3311758267716534
21
0.8526632283464567
0
LINE
8
BLACK
6
CONTINUOUS
10
2.3311758267716534
20
0.8526632283464567
11
2.3218020078740156
21
0.8526632283464567
0
LINE
8
BLACK
6
CONTINUOUS
10
2.3218020078740156
20
0.8526632283464567
11
2.3212216141732283
21
0.8527655905511811
0
LINE
8
BLACK
6
CONTINUOUS
10
2.3212216141732283
20
0.8527655905511811
11
2.3210858661417322
21
0.8527513779527559
0
LINE
8
BLACK
6
CONTINUOUS
10
2.3210858661417322
20
0.8527513779527559
11
2.313586811023622
21
0.8546261417322835
0
LINE
8
BLACK
6
CONTINUOUS
10
2.313586811023622
20
0.8546261417322835
11
2.3131213385826772
21
0.8548337401574803
0
LINE
8
BLACK
6
CONTINUOUS
10
2.3131213385826772
20
0.8548337401574803
11
2.3129824409448818
21
0.8548497244094488
0
LINE
8
BLACK
6
CONTINUOUS
10
2.3129824409448818
20
0.8548497244094488
11
2.3092329133858267
21
0.8567244881889764
0
LINE
8
BLACK
6
CONTINUOUS
10
2.3092329133858267
20
0.8567244881889764
11
2.3085238188976378
21
0.8572503937007874
0
LINE
8
BLACK
6
CONTINUOUS
10
2.3085238188976378
20
0.8572503937007874
11
2.3084655118110238
21
0.8572775984251968
0
LINE
8
BLACK
6
CONTINUOUS
10
2.3084655118110238
20
0.8572775984251968
11
2.3065907480314962
21
0.8591523622047244
0
LINE
8
BLACK
6
CONTINUOUS
10
2.3065907480314962
20
0.8591523622047244
11
2.3060844488188974
21
0.8598754724409449
0
LINE
8
BLACK
6
CONTINUOUS
10
2.3060844488188974
20
0.8598754724409449
11
2.3060376377952756
21
0.8599197637795275
0
LINE
8
BLACK
6
CONTINUOUS
10
2.3060376377952756
20
0.8599197637795275
11
2.304162874015748
21
0.8636692913385826
0
LINE
8
BLACK
6
CONTINUOUS
10
2.304162874015748
20
0.8636692913385826
11
2.3038705118110236
21
0.8646522440944882
0
LINE
8
BLACK
6
CONTINUOUS
10
2.3038705118110236
20
0.8646522440944882
11
2.3039114960629923
21
0.864823937007874
0
LINE
8
BLACK
6
CONTINUOUS
10
2.3039114960629923
20
0.864823937007874
11
2.3038511417322836
21
0.8649898031496063
0
LINE
8
BLACK
6
CONTINUOUS
10
2.3038511417322836
20
0.8649898031496063
11
2.3038511417322836
21
0.8687393307086614
0
LINE
8
BLACK
6
CONTINUOUS
10
2.3038511417322836
20
0.8687393307086614
11
2.304029212598425
21
0.8697492519685039
0
LINE
8
BLACK
6
CONTINUOUS
10
2.304029212598425
20
0.8697492519685039
11
2.3041426771653541
21
0.8698845275590551
0
LINE
8
BLACK
6
CONTINUOUS
10
2.3041426771653541
20
0.8698845275590551
11
2.304162874015748
21
0.870059842519685
0
LINE
8
BLACK
6
CONTINUOUS
10
2.304162874015748
20
0.870059842519685
11
2.3060376377952756
21
0.8738093700787402
0
LINE
8
BLACK
6
CONTINUOUS
10
2.3060376377952756
20
0.8738093700787402
11
2.3065635433070866
21
0.8745184645669292
0
LINE
8
BLACK
6
CONTINUOUS
10
2.3065635433070866
20
0.8745184645669292
11
2.3065907480314962
21
0.8745767716535433
0
LINE
8
BLACK
6
CONTINUOUS
10
2.3065907480314962
20
0.8745767716535433
11
2.3084655118110238
21
0.8764515354330709
0
LINE
8
BLACK
6
CONTINUOUS
10
2.3084655118110238
20
0.8764515354330709
11
2.3091885826771654
21
0.8769578346456692
0
LINE
8
BLACK
6
CONTINUOUS
10
2.3091885826771654
20
0.8769578346456692
11
2.3092329133858267
21
0.8770046456692914
0
LINE
8
BLACK
6
CONTINUOUS
10
2.3092329133858267
20
0.8770046456692914
11
2.3129824409448818
21
0.8788794094488189
0
LINE
8
BLACK
6
CONTINUOUS
10
2.3129824409448818
20
0.8788794094488189
11
2.3134708661417323
21
0.8790247244094488
0
LINE
8
BLACK
6
CONTINUOUS
10
2.3134708661417323
20
0.8790247244094488
11
2.313586811023622
21
0.8791029921259842
0
LINE
8
BLACK
6
CONTINUOUS
10
2.313586811023622
20
0.8791029921259842
11
2.3210858661417322
21
0.8809777559055118
0
LINE
8
BLACK
6
CONTINUOUS
10
2.3210858661417322
20
0.8809777559055118
11
2.3216737401574803
21
0.8810192519685039
0
LINE
8
BLACK
6
CONTINUOUS
10
2.3216737401574803
20
0.8810192519685039
11
2.3218020078740156
21
0.881065905511811
0
LINE
8
BLACK
6
CONTINUOUS
10
2.3218020078740156
20
0.881065905511811
11
2.3311758267716534
21
0.881065905511811
0
LINE
8
BLACK
6
CONTINUOUS
10
2.3311758267716534
20
0.881065905511811
11
2.3317561811023619
21
0.8809635826771653
0
LINE
8
BLACK
6
CONTINUOUS
10
2.315333503937008
20
0.8734524015748031
11
2.3123025196850393
21
0.8719368897637795
0
LINE
8
BLACK
6
CONTINUOUS
10
2.3123025196850393
20
0.8719368897637795
11
2.3111053937007875
21
0.8707397637795276
0
LINE
8
BLACK
6
CONTINUOUS
10
2.3111053937007875
20
0.8707397637795276
11
2.3097566535433072
21
0.8680422834645669
0
LINE
8
BLACK
6
CONTINUOUS
10
2.3097566535433072
20
0.8680422834645669
11
2.3097566535433072
21
0.8656868503937007
0
LINE
8
BLACK
6
CONTINUOUS
10
2.3097566535433072
20
0.8656868503937007
11
2.3111053937007875
21
0.8629893700787401
0
LINE
8
BLACK
6
CONTINUOUS
10
2.3111053937007875
20
0.8629893700787401
11
2.3123025196850393
21
0.8617922440944882
0
LINE
8
BLACK
6
CONTINUOUS
10
2.3123025196850393
20
0.8617922440944882
11
2.315333503937008
21
0.8602767716535433
0
LINE
8
BLACK
6
CONTINUOUS
10
2.315333503937008
20
0.8602767716535433
11
2.3221655511811021
21
0.8585687401574803
0
LINE
8
BLACK
6
CONTINUOUS
10
2.3221655511811021
20
0.8585687401574803
11
2.3308122834645668
21
0.8585687401574803
0
LINE
8
BLACK
6
CONTINUOUS
10
2.3308122834645668
20
0.8585687401574803
11
2.3376443307086614
21
0.8602767716535433
0
LINE
8
BLACK
6
CONTINUOUS
10
2.3376443307086614
20
0.8602767716535433
11
2.3406753149606301
21
0.8617922834645669
0
LINE
8
BLACK
6
CONTINUOUS
10
2.3406753149606301
20
0.8617922834645669
11
2.3418724803149606
21
0.8629894094488189
0
LINE
8
BLACK
6
CONTINUOUS
10
2.3418724803149606
20
0.8629894094488189
11
2.343221220472441
21
0.8656868503937007
0
LINE
8
BLACK
6
CONTINUOUS
10
2.343221220472441
20
0.8656868503937007
11
2.343221220472441
21
0.8680422834645669
0
LINE
8
BLACK
6
CONTINUOUS
10
2.343221220472441
20
0.8680422834645669
11
2.3418724803149606
21
0.8707397637795276
0
LINE
8
BLACK
6
CONTINUOUS
10
2.3418724803149606
20
0.8707397637795276
11
2.3406753149606301
21
0.8719368897637795
0
LINE
8
BLACK
6
CONTINUOUS
10
2.3406753149606301
20
0.8719368897637795
11
2.3376443307086614
21
0.8734524015748031
0
LINE
8
BLACK
6
CONTINUOUS
10
2.3376443307086614
20
0.8734524015748031
11
2.3308122834645668
21
0.8751603937007874
0
LINE
8
BLACK
6
CONTINUOUS
10
2.3308122834645668
20
0.8751603937007874
11
2.3221655511811021
21
0.8751603937007874
0
LINE
8
BLACK
6
CONTINUOUS
10
2.3221655511811021
20
0.8751603937007874
11
2.315333503937008
21
0.8734524015748031
0
LINE
8
BLACK
6
CONTINUOUS
10
2.3447979921259843
20
0.8996897637795276
11
2.345063464566929
21
0.8997129527559055
0
LINE
8
BLACK
6
CONTINUOUS
10
2.345063464566929
20
0.8997129527559055
11
2.3456918897637795
21
0.8992729133858267
0
LINE
8
BLACK
6
CONTINUOUS
10
2.3456918897637795
20
0.8992729133858267
11
2.3463871259842519
21
0.8989487401574803
0
LINE
8
BLACK
6
CONTINUOUS
10
2.3463871259842519
20
0.8989487401574803
11
2.3482618897637795
21
0.8970739763779527
0
LINE
8
BLACK
6
CONTINUOUS
10
2.3482618897637795
20
0.8970739763779527
11
2.348485275590551
21
0.8967549606299212
0
LINE
8
BLACK
6
CONTINUOUS
10
2.348485275590551
20
0.8967549606299212
11
2.348592755905512
21
0.89667968503937
0
LINE
8
BLACK
6
CONTINUOUS
10
2.348592755905512
20
0.89667968503937
11
2.3486266929133857
21
0.8965529527559055
0
LINE
8
BLACK
6
CONTINUOUS
10
2.3486266929133857
20
0.8965529527559055
11
2.3486315748031497
21
0.8965459842519685
0
LINE
8
BLACK
6
CONTINUOUS
10
2.3486315748031497
20
0.8965459842519685
11
2.3487311417322836
21
0.8964624409448819
0
LINE
8
BLACK
6
CONTINUOUS
10
2.3487311417322836
20
0.8964624409448819
11
2.3487449606299213
21
0.896384094488189
0
LINE
8
BLACK
6
CONTINUOUS
10
2.3487449606299213
20
0.896384094488189
11
2.3488500787401576
21
0.896233937007874
0
LINE
8
BLACK
6
CONTINUOUS
10
2.3488500787401576
20
0.896233937007874
11
2.3489169291338583
21
0.8954697244094488
0
LINE
8
BLACK
6
CONTINUOUS
10
2.3489169291338583
20
0.8954697244094488
11
2.3491154724409449
21
0.8947287007874015
0
LINE
8
BLACK
6
CONTINUOUS
10
2.3491154724409449
20
0.8947287007874015
11
2.3490584251968505
21
0.8946063779527559
0
LINE
8
BLACK
6
CONTINUOUS
10
2.3490584251968505
20
0.8946063779527559
11
2.3490818897637795
21
0.8944733070866141
0
LINE
8
BLACK
6
CONTINUOUS
10
2.3490818897637795
20
0.8944733070866141
11
2.3490143307086613
21
0.8943563385826772
0
LINE
8
BLACK
6
CONTINUOUS
10
2.3490143307086613
20
0.8943563385826772
11
2.3490261023622048
21
0.8942218503937007
0
LINE
8
BLACK
6
CONTINUOUS
10
2.3490261023622048
20
0.8942218503937007
11
2.3485861023622046
21
0.8935934645669291
0
LINE
8
BLACK
6
CONTINUOUS
10
2.3485861023622046
20
0.8935934645669291
11
2.3482618897637795
21
0.8928981496062992
0
LINE
8
BLACK
6
CONTINUOUS
10
2.3482618897637795
20
0.8928981496062992
11
2.3463871259842519
21
0.8910233858267717
0
LINE
8
BLACK
6
CONTINUOUS
10
2.3463871259842519
20
0.8910233858267717
11
2.3460681102362204
21
0.8908000393700787
0
LINE
8
BLACK
6
CONTINUOUS
10
2.3460681102362204
20
0.8908000393700787
11
2.3459928740157481
21
0.8906925590551181
0
LINE
8
BLACK
6
CONTINUOUS
10
2.3459928740157481
20
0.8906925590551181
11
2.3458661417322832
21
0.8906586220472441
0
LINE
8
BLACK
6
CONTINUOUS
10
2.3458661417322832
20
0.8906586220472441
11
2.345547086614173
21
0.8904351968503936
0
LINE
8
BLACK
6
CONTINUOUS
10
2.345547086614173
20
0.8904351968503936
11
2.3447827559055119
21
0.8903683464566929
0
LINE
8
BLACK
6
CONTINUOUS
10
2.3447827559055119
20
0.8903683464566929
11
2.3440418897637794
21
0.8901698031496063
0
LINE
8
BLACK
6
CONTINUOUS
10
2.3440418897637794
20
0.8901698031496063
11
2.3438004724409449
21
0.8902824015748031
0
LINE
8
BLACK
6
CONTINUOUS
10
2.3438004724409449
20
0.8902824015748031
11
2.3435350000000001
21
0.8902591338582677
0
LINE
8
BLACK
6
CONTINUOUS
10
2.3435350000000001
20
0.8902591338582677
11
2.3429064566929134
21
0.890699251968504
0
LINE
8
BLACK
6
CONTINUOUS
10
2.3429064566929134
20
0.890699251968504
11
2.3422112992125985
21
0.8910233858267717
0
LINE
8
BLACK
6
CONTINUOUS
10
2.3422112992125985
20
0.8910233858267717
11
2.340336535433071
21
0.8928981102362205
0
LINE
8
BLACK
6
CONTINUOUS
10
2.340336535433071
20
0.8928981102362205
11
2.3401130708661415
21
0.8932172047244095
0
LINE
8
BLACK
6
CONTINUOUS
10
2.3401130708661415
20
0.8932172047244095
11
2.3400056299212597
21
0.8932924409448819
0
LINE
8
BLACK
6
CONTINUOUS
10
2.3400056299212597
20
0.8932924409448819
11
2.3399716535433068
21
0.8934191732283464
0
LINE
8
BLACK
6
CONTINUOUS
10
2.3399716535433068
20
0.8934191732283464
11
2.3399667322834645
21
0.8934261811023622
0
LINE
8
BLACK
6
CONTINUOUS
10
2.3399667322834645
20
0.8934261811023622
11
2.3398672440944881
21
0.89350968503937
0
LINE
8
BLACK
6
CONTINUOUS
10
2.3398672440944881
20
0.89350968503937
11
2.3398534251968504
21
0.8935880314960629
0
LINE
8
BLACK
6
CONTINUOUS
10
2.3398534251968504
20
0.8935880314960629
11
2.3397483070866141
21
0.8937381496062992
0
LINE
8
BLACK
6
CONTINUOUS
10
2.3397483070866141
20
0.8937381496062992
11
2.3396814173228346
21
0.8945025196850394
0
LINE
8
BLACK
6
CONTINUOUS
10
2.3396814173228346
20
0.8945025196850394
11
2.3394829133858268
21
0.8952434251968504
0
LINE
8
BLACK
6
CONTINUOUS
10
2.3394829133858268
20
0.8952434251968504
11
2.3395399212598424
21
0.8953657874015748
0
LINE
8
BLACK
6
CONTINUOUS
10
2.3395399212598424
20
0.8953657874015748
11
2.3395164960629922
21
0.8954988188976378
0
LINE
8
BLACK
6
CONTINUOUS
10
2.3395164960629922
20
0.8954988188976378
11
2.3395839763779529
21
0.8956157874015748
0
LINE
8
BLACK
6
CONTINUOUS
10
2.3395839763779529
20
0.8956157874015748
11
2.3395722440944882
21
0.8957502755905512
0
LINE
8
BLACK
6
CONTINUOUS
10
2.3395722440944882
20
0.8957502755905512
11
2.3400123622047242
21
0.8963788976377952
0
LINE
8
BLACK
6
CONTINUOUS
10
2.3400123622047242
20
0.8963788976377952
11
2.340336535433071
21
0.8970740157480315
0
LINE
8
BLACK
6
CONTINUOUS
10
2.340336535433071
20
0.8970740157480315
11
2.3422112992125985
21
0.8989487401574803
0
LINE
8
BLACK
6
CONTINUOUS
10
2.3422112992125985
20
0.8989487401574803
11
2.34253031496063
21
0.8991721653543306
0
LINE
8
BLACK
6
CONTINUOUS
10
2.34253031496063
20
0.8991721653543306
11
2.3426055905511811
21
0.8992796062992126
0
LINE
8
BLACK
6
CONTINUOUS
10
2.3426055905511811
20
0.8992796062992126
11
2.3427322834645667
21
0.8993135826771653
0
LINE
8
BLACK
6
CONTINUOUS
10
2.3427322834645667
20
0.8993135826771653
11
2.3430513779527558
21
0.8995369685039369
0
LINE
8
BLACK
6
CONTINUOUS
10
2.3430513779527558
20
0.8995369685039369
11
2.3438156299212598
21
0.8996038188976377
0
LINE
8
BLACK
6
CONTINUOUS
10
2.3438156299212598
20
0.8996038188976377
11
2.3445565354330706
21
0.8998023228346457
0
LINE
8
BLACK
6
CONTINUOUS
10
2.3445565354330706
20
0.8998023228346457
11
2.3447979921259843
21
0.8996897637795276
0
LINE
8
BLACK
6
CONTINUOUS
10
2.3353125196850395
20
0.9381288582677165
11
2.3360033464566929
21
0.9362308661417322
0
LINE
8
BLACK
6
CONTINUOUS
10
2.3360033464566929
20
0.9362308661417322
11
2.3360033464566929
21
0.9335593307086614
0
LINE
8
BLACK
6
CONTINUOUS
10
2.3360033464566929
20
0.9335593307086614
11
2.3461739763779526
21
0.9335593307086614
0
LINE
8
BLACK
6
CONTINUOUS
10
2.3461739763779526
20
0.9335593307086614
11
2.347183897637795
21
0.9333812598425196
0
LINE
8
BLACK
6
CONTINUOUS
10
2.347183897637795
20
0.9333812598425196
11
2.3487311417322836
21
0.9320829527559055
0
LINE
8
BLACK
6
CONTINUOUS
10
2.3487311417322836
20
0.9320829527559055
11
2.3490818897637795
21
0.9300938188976378
0
LINE
8
BLACK
6
CONTINUOUS
10
2.3490818897637795
20
0.9300938188976378
11
2.3480719685039371
21
0.9283446456692913
0
LINE
8
BLACK
6
CONTINUOUS
10
2.3480719685039371
20
0.9283446456692913
11
2.3461739763779526
21
0.9276538188976378
0
LINE
8
BLACK
6
CONTINUOUS
10
2.3461739763779526
20
0.9276538188976378
11
2.3360033464566929
21
0.9276538188976378
0
LINE
8
BLACK
6
CONTINUOUS
10
2.3360033464566929
20
0.9276538188976378
11
2.3360033464566929
21
0.911858937007874
0
LINE
8
BLACK
6
CONTINUOUS
10
2.3360033464566929
20
0.911858937007874
11
2.3358252755905511
21
0.9108490157480315
0
LINE
8
BLACK
6
CONTINUOUS
10
2.3358252755905511
20
0.9108490157480315
11
2.3356801968503937
21
0.9106761811023621
0
LINE
8
BLACK
6
CONTINUOUS
10
2.3356801968503937
20
0.9106761811023621
11
2.3356471259842517
21
0.9104529527559055
0
LINE
8
BLACK
6
CONTINUOUS
10
2.3356471259842517
20
0.9104529527559055
11
2.3350446456692913
21
0.9099187401574803
0
LINE
8
BLACK
6
CONTINUOUS
10
2.3350446456692913
20
0.9099187401574803
11
2.3345269685039369
21
0.9093017716535433
0
LINE
8
BLACK
6
CONTINUOUS
10
2.3345269685039369
20
0.9093017716535433
11
2.3343046850393701
21
0.9092625984251969
0
LINE
8
BLACK
6
CONTINUOUS
10
2.3343046850393701
20
0.9092625984251969
11
2.3341358661417324
21
0.909112874015748
0
LINE
8
BLACK
6
CONTINUOUS
10
2.3341358661417324
20
0.909112874015748
11
2.3333309842519685
21
0.909090905511811
0
LINE
8
BLACK
6
CONTINUOUS
10
2.3333309842519685
20
0.909090905511811
11
2.3325378346456693
21
0.9089510236220473
0
LINE
8
BLACK
6
CONTINUOUS
10
2.3325378346456693
20
0.9089510236220473
11
2.3323423622047246
21
0.9090638976377953
0
LINE
8
BLACK
6
CONTINUOUS
10
2.3323423622047246
20
0.9090638976377953
11
2.3321168110236221
21
0.9090577165354331
0
LINE
8
BLACK
6
CONTINUOUS
10
2.3321168110236221
20
0.9090577165354331
11
2.3039953937007875
21
0.9184315354330709
0
LINE
8
BLACK
6
CONTINUOUS
10
2.3039953937007875
20
0.9184315354330709
11
2.303093622047244
21
0.9189198425196851
0
LINE
8
BLACK
6
CONTINUOUS
10
2.303093622047244
20
0.9189198425196851
11
2.3020363385826772
21
0.9206407874015747
0
LINE
8
BLACK
6
CONTINUOUS
10
2.3020363385826772
20
0.9206407874015747
11
2.3023325984251968
21
0.922638779527559
0
LINE
8
BLACK
6
CONTINUOUS
10
2.3023325984251968
20
0.922638779527559
11
2.3038438188976378
21
0.9239788188976378
0
LINE
8
BLACK
6
CONTINUOUS
10
2.3038438188976378
20
0.9239788188976378
11
2.3058628740157481
21
0.9240339763779527
0
LINE
8
BLACK
6
CONTINUOUS
10
2.3058628740157481
20
0.9240339763779527
11
2.3300978346456693
21
0.9159556692913385
0
LINE
8
BLACK
6
CONTINUOUS
10
2.3300978346456693
20
0.9159556692913385
11
2.3300978346456693
21
0.9276538188976378
0
LINE
8
BLACK
6
CONTINUOUS
10
2.3300978346456693
20
0.9276538188976378
11
2.319927244094488
21
0.9276538188976378
0
LINE
8
BLACK
6
CONTINUOUS
10
2.319927244094488
20
0.9276538188976378
11
2.3189173228346456
21
0.9278318897637795
0
LINE
8
BLACK
6
CONTINUOUS
10
2.3189173228346456
20
0.9278318897637795
11
2.3173700787401574
21
0.9291301968503937
0
LINE
8
BLACK
6
CONTINUOUS
10
2.3173700787401574
20
0.9291301968503937
11
2.3170193307086615
21
0.9311193307086614
0
LINE
8
BLACK
6
CONTINUOUS
10
2.3170193307086615
20
0.9311193307086614
11
2.318029251968504
21
0.9328685039370078
0
LINE
8
BLACK
6
CONTINUOUS
10
2.318029251968504
20
0.9328685039370078
11
2.319927244094488
21
0.9335593307086614
0
LINE
8
BLACK
6
CONTINUOUS
10
2.319927244094488
20
0.9335593307086614
11
2.3300978346456693
21
0.9335593307086614
0
LINE
8
BLACK
6
CONTINUOUS
10
2.3300978346456693
20
0.9335593307086614
11
2.3300978346456693
21
0.9362308661417322
0
LINE
8
BLACK
6
CONTINUOUS
10
2.3300978346456693
20
0.9362308661417322
11
2.3302759055118112
21
0.9372407874015748
0
LINE
8
BLACK
6
CONTINUOUS
10
2.3302759055118112
20
0.9372407874015748
11
2.3315742125984253
21
0.9387880314960629
0
LINE
8
BLACK
6
CONTINUOUS
10
2.3315742125984253
20
0.9387880314960629
11
2.3335633464566929
21
0.9391387795275591
0
LINE
8
BLACK
6
CONTINUOUS
10
2.3335633464566929
20
0.9391387795275591
11
2.3353125196850395
21
0.9381288582677165
0
LINE
8
BLACK
6
CONTINUOUS
10
2.3171876377952754
20
0.9746261023622047
11
2.3173228740157481
21
0.9745126377952755
0
LINE
8
BLACK
6
CONTINUOUS
10
2.3173228740157481
20
0.9745126377952755
11
2.3174982283464565
21
0.9744924409448819
0
LINE
8
BLACK
6
CONTINUOUS
10
2.3174982283464565
20
0.9744924409448819
11
2.3212477559055116
21
0.9726176771653543
0
LINE
8
BLACK
6
CONTINUOUS
10
2.3212477559055116
20
0.9726176771653543
11
2.3219568110236222
21
0.9720917716535433
0
LINE
8
BLACK
6
CONTINUOUS
10
2.3219568110236222
20
0.9720917716535433
11
2.322015157480315
21
0.9720645669291338
0
LINE
8
BLACK
6
CONTINUOUS
10
2.322015157480315
20
0.9720645669291338
11
2.3236767716535431
21
0.9704029527559055
0
LINE
8
BLACK
6
CONTINUOUS
10
2.3236767716535431
20
0.9704029527559055
11
2.3253383858267718
21
0.9720645669291338
0
LINE
8
BLACK
6
CONTINUOUS
10
2.3253383858267718
20
0.9720645669291338
11
2.3260614566929134
21
0.9725708661417323
0
LINE
8
BLACK
6
CONTINUOUS
10
2.3260614566929134
20
0.9725708661417323
11
2.3261057874015747
21
0.9726176771653543
0
LINE
8
BLACK
6
CONTINUOUS
10
2.3261057874015747
20
0.9726176771653543
11
2.3298553149606298
21
0.9744924409448819
0
LINE
8
BLACK
6
CONTINUOUS
10
2.3298553149606298
20
0.9744924409448819
11
2.3308382283464568
21
0.9747848031496062
0
LINE
8
BLACK
6
CONTINUOUS
10
2.3308382283464568
20
0.9747848031496062
11
2.3310099212598425
21
0.9747438188976377
0
LINE
8
BLACK
6
CONTINUOUS
10
2.3310099212598425
20
0.9747438188976377
11
2.3311758267716534
21
0.9748041732283464
0
LINE
8
BLACK
6
CONTINUOUS
10
2.3311758267716534
20
0.9748041732283464
11
2.3386748818897636
21
0.9748041732283464
0
LINE
8
BLACK
6
CONTINUOUS
10
2.3386748818897636
20
0.9748041732283464
11
2.339684803149606
21
0.9746261023622047
0
LINE
8
BLACK
6
CONTINUOUS
10
2.339684803149606
20
0.9746261023622047
11
2.3398200393700788
21
0.9745126377952755
0
LINE
8
BLACK
6
CONTINUOUS
10
2.3398200393700788
20
0.9745126377952755
11
2.3399953937007871
21
0.9744924409448819
0
LINE
8
BLACK
6
CONTINUOUS
10
2.3399953937007871
20
0.9744924409448819
11
2.3437449212598427
21
0.9726176771653543
0
LINE
8
BLACK
6
CONTINUOUS
10
2.3437449212598427
20
0.9726176771653543
11
2.3444538976377953
21
0.9720918503937007
0
LINE
8
BLACK
6
CONTINUOUS
10
2.3444538976377953
20
0.9720918503937007
11
2.3445122834645669
21
0.9720646062992125
0
LINE
8
BLACK
6
CONTINUOUS
10
2.3445122834645669
20
0.9720646062992125
11
2.3463870866141732
21
0.970189842519685
0
LINE
8
BLACK
6
CONTINUOUS
10
2.3463870866141732
20
0.970189842519685
11
2.346893464566929
21
0.9694666929133858
0
LINE
8
BLACK
6
CONTINUOUS
10
2.346893464566929
20
0.9694666929133858
11
2.3469402362204725
21
0.9694224015748031
0
LINE
8
BLACK
6
CONTINUOUS
10
2.3469402362204725
20
0.9694224015748031
11
2.3488150000000001
21
0.965672874015748
0
LINE
8
BLACK
6
CONTINUOUS
10
2.3488150000000001
20
0.965672874015748
11
2.3491073622047245
21
0.9646899606299212
0
LINE
8
BLACK
6
CONTINUOUS
10
2.3491073622047245
20
0.9646899606299212
11
2.3490663385826771
21
0.9645182677165354
0
LINE
8
BLACK
6
CONTINUOUS
10
2.3490663385826771
20
0.9645182677165354
11
2.3491267322834646
21
0.9643523622047244
0
LINE
8
BLACK
6
CONTINUOUS
10
2.3491267322834646
20
0.9643523622047244
11
2.3491267322834646
21
0.9568533070866142
0
LINE
8
BLACK
6
CONTINUOUS
10
2.3491267322834646
20
0.9568533070866142
11
2.3489486614173227
21
0.9558433858267716
0
LINE
8
BLACK
6
CONTINUOUS
10
2.3489486614173227
20
0.9558433858267716
11
2.3488351574803148
21
0.9557081496062992
0
LINE
8
BLACK
6
CONTINUOUS
10
2.3488351574803148
20
0.9557081496062992
11
2.3488150000000001
21
0.9555327952755905
0
LINE
8
BLACK
6
CONTINUOUS
10
2.3488150000000001
20
0.9555327952755905
11
2.3469402362204725
21
0.9517832677165354
0
LINE
8
BLACK
6
CONTINUOUS
10
2.3469402362204725
20
0.9517832677165354
11
2.3464142519685041
21
0.9510741732283464
0
LINE
8
BLACK
6
CONTINUOUS
10
2.3464142519685041
20
0.9510741732283464
11
2.3463870866141732
21
0.9510158267716535
0
LINE
8
BLACK
6
CONTINUOUS
10
2.3463870866141732
20
0.9510158267716535
11
2.3445122834645669
21
0.949141062992126
0
LINE
8
BLACK
6
CONTINUOUS
10
2.3445122834645669
20
0.949141062992126
11
2.3437892125984252
21
0.9486348031496062
0
LINE
8
BLACK
6
CONTINUOUS
10
2.3437892125984252
20
0.9486348031496062
11
2.3437449212598427
21
0.9485879921259842
0
LINE
8
BLACK
6
CONTINUOUS
10
2.3437449212598427
20
0.9485879921259842
11
2.3399953937007871
21
0.9467132283464567
0
LINE
8
BLACK
6
CONTINUOUS
10
2.3399953937007871
20
0.9467132283464567
11
2.3390124409448818
21
0.9464208661417323
0
LINE
8
BLACK
6
CONTINUOUS
10
2.3390124409448818
20
0.9464208661417323
11
2.3388407480314961
21
0.9464618897637795
0
LINE
8
BLACK
6
CONTINUOUS
10
2.3388407480314961
20
0.9464618897637795
11
2.3386748818897636
21
0.9464014960629921
0
LINE
8
BLACK
6
CONTINUOUS
10
2.3386748818897636
20
0.9464014960629921
11
2.3311758267716534
21
0.9464014960629921
0
LINE
8
BLACK
6
CONTINUOUS
10
2.3311758267716534
20
0.9464014960629921
11
2.3301659055118109
21
0.9465795669291338
0
LINE
8
BLACK
6
CONTINUOUS
10
2.3301659055118109
20
0.9465795669291338
11
2.3300306299212599
21
0.9466930708661417
0
LINE
8
BLACK
6
CONTINUOUS
10
2.3300306299212599
20
0.9466930708661417
11
2.3298553149606298
21
0.9467132283464567
0
LINE
8
BLACK
6
CONTINUOUS
10
2.3298553149606298
20
0.9467132283464567
11
2.3261057874015747
21
0.9485879921259842
0
LINE
8
BLACK
6
CONTINUOUS
10
2.3261057874015747
20
0.9485879921259842
11
2.3253966929133858
21
0.9491138976377953
0
LINE
8
BLACK
6
CONTINUOUS
10
2.3253966929133858
20
0.9491138976377953
11
2.3253383858267718
21
0.9491411023622047
0
LINE
8
BLACK
6
CONTINUOUS
10
2.3253383858267718
20
0.9491411023622047
11
2.3236767716535431
21
0.950802716535433
0
LINE
8
BLACK
6
CONTINUOUS
10
2.3236767716535431
20
0.950802716535433
11
2.322015157480315
21
0.9491411023622047
0
LINE
8
BLACK
6
CONTINUOUS
10
2.322015157480315
20
0.9491411023622047
11
2.3212920472440945
21
0.948634842519685
0
LINE
8
BLACK
6
CONTINUOUS
10
2.3212920472440945
20
0.948634842519685
11
2.3212477559055116
21
0.9485879921259842
0
LINE
8
BLACK
6
CONTINUOUS
10
2.3212477559055116
20
0.9485879921259842
11
2.3174982283464565
21
0.9467132283464567
0
LINE
8
BLACK
6
CONTINUOUS
10
2.3174982283464565
20
0.9467132283464567
11
2.3165152755905511
21
0.9464208661417323
0
LINE
8
BLACK
6
CONTINUOUS
10
2.3165152755905511
20
0.9464208661417323
11
2.3163435826771654
21
0.9464618897637795
0
LINE
8
BLACK
6
CONTINUOUS
10
2.3163435826771654
20
0.9464618897637795
11
2.3161777165354329
21
0.9464014960629921
0
LINE
8
BLACK
6
CONTINUOUS
10
2.3161777165354329
20
0.9464014960629921
11
2.3143029527559054
21
0.9464014960629921
0
LINE
8
BLACK
6
CONTINUOUS
10
2.3143029527559054
20
0.9464014960629921
11
2.3132930314960629
21
0.9465795669291338
0
LINE
8
BLACK
6
CONTINUOUS
10
2.3132930314960629
20
0.9465795669291338
11
2.3131577559055119
21
0.9466930708661417
0
LINE
8
BLACK
6
CONTINUOUS
10
2.3131577559055119
20
0.9466930708661417
11
2.3129824409448818
21
0.9467132283464567
0
LINE
8
BLACK
6
CONTINUOUS
10
2.3129824409448818
20
0.9467132283464567
11
2.3092329133858267
21
0.9485879921259842
0
LINE
8
BLACK
6
CONTINUOUS
10
2.3092329133858267
20
0.9485879921259842
11
2.3085238188976378
21
0.9491138976377953
0
LINE
8
BLACK
6
CONTINUOUS
10
2.3085238188976378
20
0.9491138976377953
11
2.3084655118110238
21
0.9491411023622047
0
LINE
8
BLACK
6
CONTINUOUS
10
2.3084655118110238
20
0.9491411023622047
11
2.3065907480314962
21
0.9510158661417323
0
LINE
8
BLACK
6
CONTINUOUS
10
2.3065907480314962
20
0.9510158661417323
11
2.3060844488188974
21
0.9517389763779527
0
LINE
8
BLACK
6
CONTINUOUS
10
2.3060844488188974
20
0.9517389763779527
11
2.3060376377952756
21
0.9517832677165354
0
LINE
8
BLACK
6
CONTINUOUS
10
2.3060376377952756
20
0.9517832677165354
11
2.304162874015748
21
0.9555327952755905
0
LINE
8
BLACK
6
CONTINUOUS
10
2.304162874015748
20
0.9555327952755905
11
2.3038705118110236
21
0.9565157480314961
0
LINE
8
BLACK
6
CONTINUOUS
10
2.3038705118110236
20
0.9565157480314961
11
2.3039114960629923
21
0.9566874409448819
0
LINE
8
BLACK
6
CONTINUOUS
10
2.3039114960629923
20
0.9566874409448819
11
2.3038511417322836
21
0.9568533070866142
0
LINE
8
BLACK
6
CONTINUOUS
10
2.3038511417322836
20
0.9568533070866142
11
2.3038511417322836
21
0.9643523622047244
0
LINE
8
BLACK
6
CONTINUOUS
10
2.3038511417322836
20
0.9643523622047244
11
2.304029212598425
21
0.9653622834645669
0
LINE
8
BLACK
6
CONTINUOUS
10
2.304029212598425
20
0.9653622834645669
11
2.3041426771653541
21
0.9654975590551181
0
LINE
8
BLACK
6
CONTINUOUS
10
2.3041426771653541
20
0.9654975590551181
11
2.304162874015748
21
0.965672874015748
0
LINE
8
BLACK
6
CONTINUOUS
10
2.304162874015748
20
0.965672874015748
11
2.3060376377952756
21
0.9694224015748031
0
LINE
8
BLACK
6
CONTINUOUS
10
2.3060376377952756
20
0.9694224015748031
11
2.3065635433070866
21
0.9701314960629921
0
LINE
8
BLACK
6
CONTINUOUS
10
2.3065635433070866
20
0.9701314960629921
11
2.3065907480314962
21
0.9701898031496062
0
LINE
8
BLACK
6
CONTINUOUS
10
2.3065907480314962
20
0.9701898031496062
11
2.3084655118110238
21
0.9720645669291338
0
LINE
8
BLACK
6
CONTINUOUS
10
2.3084655118110238
20
0.9720645669291338
11
2.3091885826771654
21
0.9725708661417323
0
LINE
8
BLACK
6
CONTINUOUS
10
2.3091885826771654
20
0.9725708661417323
11
2.3092329133858267
21
0.9726176771653543
0
LINE
8
BLACK
6
CONTINUOUS
10
2.3092329133858267
20
0.9726176771653543
11
2.3129824409448818
21
0.9744924409448819
0
LINE
8
BLACK
6
CONTINUOUS
10
2.3129824409448818
20
0.9744924409448819
11
2.3139653543307088
21
0.9747848031496062
0
LINE
8
BLACK
6
CONTINUOUS
10
2.3139653543307088
20
0.9747848031496062
11
2.3141370472440945
21
0.9747438188976377
0
LINE
8
BLACK
6
CONTINUOUS
10
2.3141370472440945
20
0.9747438188976377
11
2.3143029527559054
21
0.9748041732283464
0
LINE
8
BLACK
6
CONTINUOUS
10
2.3143029527559054
20
0.9748041732283464
11
2.3161777165354329
21
0.9748041732283464
0
LINE
8
BLACK
6
CONTINUOUS
10
2.3161777165354329
20
0.9748041732283464
11
2.3171876377952754
21
0.9746261023622047
0
LINE
8
BLACK
6
CONTINUOUS
10
2.3123025196850393
20
0.9675499212598425
11
2.3111053937007875
21
0.9663527952755905
0
LINE
8
BLACK
6
CONTINUOUS
10
2.3111053937007875
20
0.9663527952755905
11
2.3097566535433072
21
0.9636553149606299
0
LINE
8
BLACK
6
CONTINUOUS
10
2.3097566535433072
20
0.9636553149606299
11
2.3097566535433072
21
0.9575503543307087
0
LINE
8
BLACK
6
CONTINUOUS
10
2.3097566535433072
20
0.9575503543307087
11
2.3111053937007875
21
0.954852874015748
0
LINE
8
BLACK
6
CONTINUOUS
10
2.3111053937007875
20
0.954852874015748
11
2.3123025196850393
21
0.953655748031496
0
LINE
8
BLACK
6
CONTINUOUS
10
2.3123025196850393
20
0.953655748031496
11
2.3149999999999999
21
0.9523070078740157
0
LINE
8
BLACK
6
CONTINUOUS
10
2.3149999999999999
20
0.9523070078740157
11
2.3154806692913383
21
0.9523070078740157
0
LINE
8
BLACK
6
CONTINUOUS
10
2.3154806692913383
20
0.9523070078740157
11
2.318178149606299
21
0.953655748031496
0
LINE
8
BLACK
6
CONTINUOUS
10
2.318178149606299
20
0.953655748031496
11
2.3193752755905512
21
0.954852874015748
0
LINE
8
BLACK
6
CONTINUOUS
10
2.3193752755905512
20
0.954852874015748
11
2.3207240157480316
21
0.9575503543307087
0
LINE
8
BLACK
6
CONTINUOUS
10
2.3207240157480316
20
0.9575503543307087
11
2.3207240157480316
21
0.9636553149606299
0
LINE
8
BLACK
6
CONTINUOUS
10
2.3207240157480316
20
0.9636553149606299
11
2.3193752755905512
21
0.9663527952755905
0
LINE
8
BLACK
6
CONTINUOUS
10
2.3193752755905512
20
0.9663527952755905
11
2.318178149606299
21
0.9675499212598425
0
LINE
8
BLACK
6
CONTINUOUS
10
2.318178149606299
20
0.9675499212598425
11
2.3154806692913383
21
0.9688986614173228
0
LINE
8
BLACK
6
CONTINUOUS
10
2.3154806692913383
20
0.9688986614173228
11
2.3149999999999999
21
0.9688986614173228
0
LINE
8
BLACK
6
CONTINUOUS
10
2.3149999999999999
20
0.9688986614173228
11
2.3123025196850393
21
0.9675499212598425
0
LINE
8
BLACK
6
CONTINUOUS
10
2.3291753937007873
20
0.9675499212598425
11
2.3279782677165355
21
0.9663527952755905
0
LINE
8
BLACK
6
CONTINUOUS
10
2.3279782677165355
20
0.9663527952755905
11
2.3266295275590552
21
0.9636553149606299
0
LINE
8
BLACK
6
CONTINUOUS
10
2.3266295275590552
20
0.9636553149606299
11
2.3266295275590552
21
0.9575503543307087
0
LINE
8
BLACK
6
CONTINUOUS
10
2.3266295275590552
20
0.9575503543307087
11
2.3279782677165355
21
0.954852874015748
0
LINE
8
BLACK
6
CONTINUOUS
10
2.3279782677165355
20
0.954852874015748
11
2.3291753937007873
21
0.953655748031496
0
LINE
8
BLACK
6
CONTINUOUS
10
2.3291753937007873
20
0.953655748031496
11
2.3318728740157479
21
0.9523070078740157
0
LINE
8
BLACK
6
CONTINUOUS
10
2.3318728740157479
20
0.9523070078740157
11
2.3379778346456694
21
0.9523070078740157
0
LINE
8
BLACK
6
CONTINUOUS
10
2.3379778346456694
20
0.9523070078740157
11
2.3406753149606301
21
0.9536557874015748
0
LINE
8
BLACK
6
CONTINUOUS
10
2.3406753149606301
20
0.9536557874015748
11
2.3418724803149606
21
0.9548529133858268
0
LINE
8
BLACK
6
CONTINUOUS
10
2.3418724803149606
20
0.9548529133858268
11
2.343221220472441
21
0.9575503543307087
0
LINE
8
BLACK
6
CONTINUOUS
10
2.343221220472441
20
0.9575503543307087
11
2.343221220472441
21
0.9636553149606299
0
LINE
8
BLACK
6
CONTINUOUS
10
2.343221220472441
20
0.9636553149606299
11
2.3418724803149606
21
0.9663527952755905
0
LINE
8
BLACK
6
CONTINUOUS
10
2.3418724803149606
20
0.9663527952755905
11
2.3406753149606301
21
0.9675499212598425
0
LINE
8
BLACK
6
CONTINUOUS
10
2.3406753149606301
20
0.9675499212598425
11
2.3379778346456694
21
0.9688986614173228
0
LINE
8
BLACK
6
CONTINUOUS
10
2.3379778346456694
20
0.9688986614173228
11
2.3318728740157479
21
0.9688986614173228
0
LINE
8
BLACK
6
CONTINUOUS
10
2.3318728740157479
20
0.9688986614173228
11
2.3291753937007873
21
0.9675499212598425
0
LINE
8
BLACK
6
CONTINUOUS
10
2.3317561811023619
20
1.0121971653543307
11
2.3318919685039368
21
1.0122113385826772
0
LINE
8
BLACK
6
CONTINUOUS
10
2.3318919685039368
20
1.0122113385826772
11
2.339391023622047
21
1.0103365748031496
0
LINE
8
BLACK
6
CONTINUOUS
10
2.339391023622047
20
1.0103365748031496
11
2.3398564566929134
21
1.0101290157480314
0
LINE
8
BLACK
6
CONTINUOUS
10
2.3398564566929134
20
1.0101290157480314
11
2.3399953937007871
21
1.0101129921259842
0
LINE
8
BLACK
6
CONTINUOUS
10
2.3399953937007871
20
1.0101129921259842
11
2.3437449212598427
21
1.0082382283464566
0
LINE
8
BLACK
6
CONTINUOUS
10
2.3437449212598427
20
1.0082382283464566
11
2.3444538976377953
21
1.0077124015748031
0
LINE
8
BLACK
6
CONTINUOUS
10
2.3444538976377953
20
1.0077124015748031
11
2.3445122834645669
21
1.007685157480315
0
LINE
8
BLACK
6
CONTINUOUS
10
2.3445122834645669
20
1.007685157480315
11
2.3463870866141732
21
1.0058103937007874
0
LINE
8
BLACK
6
CONTINUOUS
10
2.3463870866141732
20
1.0058103937007874
11
2.346893464566929
21
1.0050872440944882
0
LINE
8
BLACK
6
CONTINUOUS
10
2.346893464566929
20
1.0050872440944882
11
2.3469402362204725
21
1.0050429527559055
0
LINE
8
BLACK
6
CONTINUOUS
10
2.3469402362204725
20
1.0050429527559055
11
2.3488150000000001
21
1.0012934251968504
0
LINE
8
BLACK
6
CONTINUOUS
10
2.3488150000000001
20
1.0012934251968504
11
2.3491073622047245
21
1.0003105118110236
0
LINE
8
BLACK
6
CONTINUOUS
10
2.3491073622047245
20
1.0003105118110236
11
2.3490663385826771
21
1.0001388188976377
0
LINE
8
BLACK
6
CONTINUOUS
10
2.3490663385826771
20
1.0001388188976377
11
2.3491267322834646
21
0.9999729133858267
0
LINE
8
BLACK
6
CONTINUOUS
10
2.3491267322834646
20
0.9999729133858267
11
2.3491267322834646
21
0.9962233858267716
0
LINE
8
BLACK
6
CONTINUOUS
10
2.3491267322834646
20
0.9962233858267716
11
2.3489486614173227
21
0.9952134645669292
0
LINE
8
BLACK
6
CONTINUOUS
10
2.3489486614173227
20
0.9952134645669292
11
2.3488351574803148
21
0.9950782283464567
0
LINE
8
BLACK
6
CONTINUOUS
10
2.3488351574803148
20
0.9950782283464567
11
2.3488150000000001
21
0.9949028740157481
0
LINE
8
BLACK
6
CONTINUOUS
10
2.3488150000000001
20
0.9949028740157481
11
2.3469402362204725
21
0.9911533464566928
0
LINE
8
BLACK
6
CONTINUOUS
10
2.3469402362204725
20
0.9911533464566928
11
2.3464142519685041
21
0.9904442519685039
0
LINE
8
BLACK
6
CONTINUOUS
10
2.3464142519685041
20
0.9904442519685039
11
2.3463870866141732
21
0.990385905511811
0
LINE
8
BLACK
6
CONTINUOUS
10
2.3463870866141732
20
0.990385905511811
11
2.3445122834645669
21
0.9885111417322835
0
LINE
8
BLACK
6
CONTINUOUS
10
2.3445122834645669
20
0.9885111417322835
11
2.3437892125984252
21
0.9880048818897638
0
LINE
8
BLACK
6
CONTINUOUS
10
2.3437892125984252
20
0.9880048818897638
11
2.3437449212598427
21
0.9879580708661417
0
LINE
8
BLACK
6
CONTINUOUS
10
2.3437449212598427
20
0.9879580708661417
11
2.3399953937007871
21
0.9860833070866142
0
LINE
8
BLACK
6
CONTINUOUS
10
2.3399953937007871
20
0.9860833070866142
11
2.3395069291338584
21
0.985938031496063
0
LINE
8
BLACK
6
CONTINUOUS
10
2.3395069291338584
20
0.985938031496063
11
2.339391023622047
21
0.9858597244094488
0
LINE
8
BLACK
6
CONTINUOUS
10
2.339391023622047
20
0.9858597244094488
11
2.3318919685039368
21
0.9839849606299212
0
LINE
8
BLACK
6
CONTINUOUS
10
2.3318919685039368
20
0.9839849606299212
11
2.3313040551181103
21
0.9839435039370078
0
LINE
8
BLACK
6
CONTINUOUS
10
2.3313040551181103
20
0.9839435039370078
11
2.3311758267716534
21
0.983896811023622
0
LINE
8
BLACK
6
CONTINUOUS
10
2.3311758267716534
20
0.983896811023622
11
2.3218020078740156
21
0.983896811023622
0
LINE
8
BLACK
6
CONTINUOUS
10
2.3218020078740156
20
0.983896811023622
11
2.3212216141732283
21
0.9839991732283464
0
LINE
8
BLACK
6
CONTINUOUS
10
2.3212216141732283
20
0.9839991732283464
11
2.3210858661417322
21
0.9839849606299212
0
LINE
8
BLACK
6
CONTINUOUS
10
2.3210858661417322
20
0.9839849606299212
11
2.313586811023622
21
0.9858597244094488
0
LINE
8
BLACK
6
CONTINUOUS
10
2.313586811023622
20
0.9858597244094488
11
2.3131213385826772
21
0.9860673228346456
0
LINE
8
BLACK
6
CONTINUOUS
10
2.3131213385826772
20
0.9860673228346456
11
2.3129824409448818
21
0.9860833070866142
0
LINE
8
BLACK
6
CONTINUOUS
10
2.3129824409448818
20
0.9860833070866142
11
2.3092329133858267
21
0.9879580708661417
0
LINE
8
BLACK
6
CONTINUOUS
10
2.3092329133858267
20
0.9879580708661417
11
2.3085238188976378
21
0.9884839763779527
0
LINE
8
BLACK
6
CONTINUOUS
10
2.3085238188976378
20
0.9884839763779527
11
2.3084655118110238
21
0.9885111811023621
0
LINE
8
BLACK
6
CONTINUOUS
10
2.3084655118110238
20
0.9885111811023621
11
2.3065907480314962
21
0.9903859448818897
0
LINE
8
BLACK
6
CONTINUOUS
10
2.3065907480314962
20
0.9903859448818897
11
2.3060844488188974
21
0.9911090551181102
0
LINE
8
BLACK
6
CONTINUOUS
10
2.3060844488188974
20
0.9911090551181102
11
2.3060376377952756
21
0.9911533464566928
0
LINE
8
BLACK
6
CONTINUOUS
10
2.3060376377952756
20
0.9911533464566928
11
2.304162874015748
21
0.9949028740157481
0
LINE
8
BLACK
6
CONTINUOUS
10
2.304162874015748
20
0.9949028740157481
11
2.3038705118110236
21
0.9958858267716535
0
LINE
8
BLACK
6
CONTINUOUS
10
2.3038705118110236
20
0.9958858267716535
11
2.3039114960629923
21
0.9960575196850393
0
LINE
8
BLACK
6
CONTINUOUS
10
2.3039114960629923
20
0.9960575196850393
11
2.3038511417322836
21
0.9962233858267716
0
LINE
8
BLACK
6
CONTINUOUS
10
2.3038511417322836
20
0.9962233858267716
11
2.3038511417322836
21
0.9999729133858267
0
LINE
8
BLACK
6
CONTINUOUS
10
2.3038511417322836
20
0.9999729133858267
11
2.304029212598425
21
1.0009828346456693
0
LINE
8
BLACK
6
CONTINUOUS
10
2.304029212598425
20
1.0009828346456693
11
2.3041426771653541
21
1.0011181102362205
0
LINE
8
BLACK
6
CONTINUOUS
10
2.3041426771653541
20
1.0011181102362205
11
2.304162874015748
21
1.0012934251968504
0
LINE
8
BLACK
6
CONTINUOUS
10
2.304162874015748
20
1.0012934251968504
11
2.3060376377952756
21
1.0050429527559055
0
LINE
8
BLACK
6
CONTINUOUS
10
2.3060376377952756
20
1.0050429527559055
11
2.3065635433070866
21
1.0057520472440944
0
LINE
8
BLACK
6
CONTINUOUS
10
2.3065635433070866
20
1.0057520472440944
11
2.3065907480314962
21
1.0058103543307086
0
LINE
8
BLACK
6
CONTINUOUS
10
2.3065907480314962
20
1.0058103543307086
11
2.3084655118110238
21
1.0076851181102362
0
LINE
8
BLACK
6
CONTINUOUS
10
2.3084655118110238
20
1.0076851181102362
11
2.3091885826771654
21
1.0081914173228346
0
LINE
8
BLACK
6
CONTINUOUS
10
2.3091885826771654
20
1.0081914173228346
11
2.3092329133858267
21
1.0082382283464566
0
LINE
8
BLACK
6
CONTINUOUS
10
2.3092329133858267
20
1.0082382283464566
11
2.3129824409448818
21
1.0101129921259842
0
LINE
8
BLACK
6
CONTINUOUS
10
2.3129824409448818
20
1.0101129921259842
11
2.3134708661417323
21
1.0102583070866142
0
LINE
8
BLACK
6
CONTINUOUS
10
2.3134708661417323
20
1.0102583070866142
11
2.313586811023622
21
1.0103365748031496
0
LINE
8
BLACK
6
CONTINUOUS
10
2.313586811023622
20
1.0103365748031496
11
2.3210858661417322
21
1.0122113385826772
0
LINE
8
BLACK
6
CONTINUOUS
10
2.3210858661417322
20
1.0122113385826772
11
2.3216737401574803
21
1.0122528346456692
0
LINE
8
BLACK
6
CONTINUOUS
10
2.3216737401574803
20
1.0122528346456692
11
2.3218020078740156
21
1.0122994881889764
0
LINE
8
BLACK
6
CONTINUOUS
10
2.3218020078740156
20
1.0122994881889764
11
2.3311758267716534
21
1.0122994881889764
0
LINE
8
BLACK
6
CONTINUOUS
10
2.3311758267716534
20
1.0122994881889764
11
2.3317561811023619
21
1.0121971653543307
0
LINE
8
BLACK
6
CONTINUOUS
10
2.315333503937008
20
1.0046859842519684
11
2.3123025196850393
21
1.0031704724409449
0
LINE
8
BLACK
6
CONTINUOUS
10
2.3123025196850393
20
1.0031704724409449
11
2.3111053937007875
21
1.0019733464566929
0
LINE
8
BLACK
6
CONTINUOUS
10
2.3111053937007875
20
1.0019733464566929
11
2.3097566535433072
21
0.9992758661417322
0
LINE
8
BLACK
6
CONTINUOUS
10
2.3097566535433072
20
0.9992758661417322
11
2.3097566535433072
21
0.9969204330708661
0
LINE
8
BLACK
6
CONTINUOUS
10
2.3097566535433072
20
0.9969204330708661
11
2.3111053937007875
21
0.9942229527559054
0
LINE
8
BLACK
6
CONTINUOUS
10
2.3111053937007875
20
0.9942229527559054
11
2.3123025196850393
21
0.9930258267716535
0
LINE
8
BLACK
6
CONTINUOUS
10
2.3123025196850393
20
0.9930258267716535
11
2.315333503937008
21
0.9915103543307087
0
LINE
8
BLACK
6
CONTINUOUS
10
2.315333503937008
20
0.9915103543307087
11
2.3221655511811021
21
0.9898023228346456
0
LINE
8
BLACK
6
CONTINUOUS
10
2.3221655511811021
20
0.9898023228346456
11
2.3308122834645668
21
0.9898023228346456
0
LINE
8
BLACK
6
CONTINUOUS
10
2.3308122834645668
20
0.9898023228346456
11
2.3376443307086614
21
0.9915103543307087
0
LINE
8
BLACK
6
CONTINUOUS
10
2.3376443307086614
20
0.9915103543307087
11
2.3406753149606301
21
0.9930258661417323
0
LINE
8
BLACK
6
CONTINUOUS
10
2.3406753149606301
20
0.9930258661417323
11
2.3418724803149606
21
0.9942229921259842
0
LINE
8
BLACK
6
CONTINUOUS
10
2.3418724803149606
20
0.9942229921259842
11
2.343221220472441
21
0.9969204330708661
0
LINE
8
BLACK
6
CONTINUOUS
10
2.343221220472441
20
0.9969204330708661
11
2.343221220472441
21
0.9992758661417322
0
LINE
8
BLACK
6
CONTINUOUS
10
2.343221220472441
20
0.9992758661417322
11
2.3418724803149606
21
1.0019733464566929
0
LINE
8
BLACK
6
CONTINUOUS
10
2.3418724803149606
20
1.0019733464566929
11
2.3406753149606301
21
1.0031704724409449
0
LINE
8
BLACK
6
CONTINUOUS
10
2.3406753149606301
20
1.0031704724409449
11
2.3376443307086614
21
1.0046859842519684
0
LINE
8
BLACK
6
CONTINUOUS
10
2.3376443307086614
20
1.0046859842519684
11
2.3308122834645668
21
1.0063939763779528
0
LINE
8
BLACK
6
CONTINUOUS
10
2.3308122834645668
20
1.0063939763779528
11
2.3221655511811021
21
1.0063939763779528
0
LINE
8
BLACK
6
CONTINUOUS
10
2.3221655511811021
20
1.0063939763779528
11
2.315333503937008
21
1.0046859842519684
0
LINE
8
BLACK
6
CONTINUOUS
10
2.3317561811023619
20
1.0496924803149605
11
2.3318919685039368
21
1.0497066535433071
0
LINE
8
BLACK
6
CONTINUOUS
10
2.3318919685039368
20
1.0497066535433071
11
2.339391023622047
21
1.0478318897637795
0
LINE
8
BLACK
6
CONTINUOUS
10
2.339391023622047
20
1.0478318897637795
11
2.3398564566929134
21
1.0476243307086615
0
LINE
8
BLACK
6
CONTINUOUS
10
2.3398564566929134
20
1.0476243307086615
11
2.3399953937007871
21
1.0476083070866142
0
LINE
8
BLACK
6
CONTINUOUS
10
2.3399953937007871
20
1.0476083070866142
11
2.3437449212598427
21
1.0457335433070867
0
LINE
8
BLACK
6
CONTINUOUS
10
2.3437449212598427
20
1.0457335433070867
11
2.3444538976377953
21
1.045207716535433
0
LINE
8
BLACK
6
CONTINUOUS
10
2.3444538976377953
20
1.045207716535433
11
2.3445122834645669
21
1.0451804724409448
0
LINE
8
BLACK
6
CONTINUOUS
10
2.3445122834645669
20
1.0451804724409448
11
2.3463870866141732
21
1.0433057086614173
0
LINE
8
BLACK
6
CONTINUOUS
10
2.3463870866141732
20
1.0433057086614173
11
2.346893464566929
21
1.0425825590551181
0
LINE
8
BLACK
6
CONTINUOUS
10
2.346893464566929
20
1.0425825590551181
11
2.3469402362204725
21
1.0425382677165353
0
LINE
8
BLACK
6
CONTINUOUS
10
2.3469402362204725
20
1.0425382677165353
11
2.3488150000000001
21
1.0387887401574802
0
LINE
8
BLACK
6
CONTINUOUS
10
2.3488150000000001
20
1.0387887401574802
11
2.3491073622047245
21
1.0378058267716535
0
LINE
8
BLACK
6
CONTINUOUS
10
2.3491073622047245
20
1.0378058267716535
11
2.3490663385826771
21
1.0376341338582677
0
LINE
8
BLACK
6
CONTINUOUS
10
2.3490663385826771
20
1.0376341338582677
11
2.3491267322834646
21
1.0374682283464567
0
LINE
8
BLACK
6
CONTINUOUS
10
2.3491267322834646
20
1.0374682283464567
11
2.3491267322834646
21
1.0337187007874016
0
LINE
8
BLACK
6
CONTINUOUS
10
2.3491267322834646
20
1.0337187007874016
11
2.3489486614173227
21
1.0327087795275591
0
LINE
8
BLACK
6
CONTINUOUS
10
2.3489486614173227
20
1.0327087795275591
11
2.3488351574803148
21
1.0325735433070866
0
LINE
8
BLACK
6
CONTINUOUS
10
2.3488351574803148
20
1.0325735433070866
11
2.3488150000000001
21
1.032398188976378
0
LINE
8
BLACK
6
CONTINUOUS
10
2.3488150000000001
20
1.032398188976378
11
2.3469402362204725
21
1.0286486614173229
0
LINE
8
BLACK
6
CONTINUOUS
10
2.3469402362204725
20
1.0286486614173229
11
2.3464142519685041
21
1.0279395669291338
0
LINE
8
BLACK
6
CONTINUOUS
10
2.3464142519685041
20
1.0279395669291338
11
2.3463870866141732
21
1.027881220472441
0
LINE
8
BLACK
6
CONTINUOUS
10
2.3463870866141732
20
1.027881220472441
11
2.3445122834645669
21
1.0260064566929135
0
LINE
8
BLACK
6
CONTINUOUS
10
2.3445122834645669
20
1.0260064566929135
11
2.3437892125984252
21
1.0255001968503936
0
LINE
8
BLACK
6
CONTINUOUS
10
2.3437892125984252
20
1.0255001968503936
11
2.3437449212598427
21
1.0254533858267716
0
LINE
8
BLACK
6
CONTINUOUS
10
2.3437449212598427
20
1.0254533858267716
11
2.3399953937007871
21
1.023578622047244
0
LINE
8
BLACK
6
CONTINUOUS
10
2.3399953937007871
20
1.023578622047244
11
2.3395069291338584
21
1.0234333464566929
0
LINE
8
BLACK
6
CONTINUOUS
10
2.3395069291338584
20
1.0234333464566929
11
2.339391023622047
21
1.0233550393700788
0
LINE
8
BLACK
6
CONTINUOUS
10
2.339391023622047
20
1.0233550393700788
11
2.3318919685039368
21
1.0214802755905512
0
LINE
8
BLACK
6
CONTINUOUS
10
2.3318919685039368
20
1.0214802755905512
11
2.3313040551181103
21
1.0214388188976378
0
LINE
8
BLACK
6
CONTINUOUS
10
2.3313040551181103
20
1.0214388188976378
11
2.3311758267716534
21
1.021392125984252
0
LINE
8
BLACK
6
CONTINUOUS
10
2.3311758267716534
20
1.021392125984252
11
2.3218020078740156
21
1.021392125984252
0
LINE
8
BLACK
6
CONTINUOUS
10
2.3218020078740156
20
1.021392125984252
11
2.3212216141732283
21
1.0214944881889763
0
LINE
8
BLACK
6
CONTINUOUS
10
2.3212216141732283
20
1.0214944881889763
11
2.3210858661417322
21
1.0214802755905512
0
LINE
8
BLACK
6
CONTINUOUS
10
2.3210858661417322
20
1.0214802755905512
11
2.313586811023622
21
1.0233550393700788
0
LINE
8
BLACK
6
CONTINUOUS
10
2.313586811023622
20
1.0233550393700788
11
2.3131213385826772
21
1.0235626377952756
0
LINE
8
BLACK
6
CONTINUOUS
10
2.3131213385826772
20
1.0235626377952756
11
2.3129824409448818
21
1.023578622047244
0
LINE
8
BLACK
6
CONTINUOUS
10
2.3129824409448818
20
1.023578622047244
11
2.3092329133858267
21
1.0254533858267716
0
LINE
8
BLACK
6
CONTINUOUS
10
2.3092329133858267
20
1.0254533858267716
11
2.3085238188976378
21
1.0259792913385826
0
LINE
8
BLACK
6
CONTINUOUS
10
2.3085238188976378
20
1.0259792913385826
11
2.3084655118110238
21
1.0260064960629922
0
LINE
8
BLACK
6
CONTINUOUS
10
2.3084655118110238
20
1.0260064960629922
11
2.3065907480314962
21
1.0278812598425198
0
LINE
8
BLACK
6
CONTINUOUS
10
2.3065907480314962
20
1.0278812598425198
11
2.3060844488188974
21
1.0286043700787402
0
LINE
8
BLACK
6
CONTINUOUS
10
2.3060844488188974
20
1.0286043700787402
11
2.3060376377952756
21
1.0286486614173229
0
LINE
8
BLACK
6
CONTINUOUS
10
2.3060376377952756
20
1.0286486614173229
11
2.304162874015748
21
1.032398188976378
0
LINE
8
BLACK
6
CONTINUOUS
10
2.304162874015748
20
1.032398188976378
11
2.3038705118110236
21
1.0333811417322833
0
LINE
8
BLACK
6
CONTINUOUS
10
2.3038705118110236
20
1.0333811417322833
11
2.3039114960629923
21
1.0335528346456693
0
LINE
8
BLACK
6
CONTINUOUS
10
2.3039114960629923
20
1.0335528346456693
11
2.3038511417322836
21
1.0337187007874016
0
LINE
8
BLACK
6
CONTINUOUS
10
2.3038511417322836
20
1.0337187007874016
11
2.3038511417322836
21
1.0374682283464567
0
LINE
8
BLACK
6
CONTINUOUS
10
2.3038511417322836
20
1.0374682283464567
11
2.304029212598425
21
1.0384781496062991
0
LINE
8
BLACK
6
CONTINUOUS
10
2.304029212598425
20
1.0384781496062991
11
2.3041426771653541
21
1.0386134251968504
0
LINE
8
BLACK
6
CONTINUOUS
10
2.3041426771653541
20
1.0386134251968504
11
2.304162874015748
21
1.0387887401574802
0
LINE
8
BLACK
6
CONTINUOUS
10
2.304162874015748
20
1.0387887401574802
11
2.3060376377952756
21
1.0425382677165353
0
LINE
8
BLACK
6
CONTINUOUS
10
2.3060376377952756
20
1.0425382677165353
11
2.3065635433070866
21
1.0432473622047245
0
LINE
8
BLACK
6
CONTINUOUS
10
2.3065635433070866
20
1.0432473622047245
11
2.3065907480314962
21
1.0433056692913385
0
LINE
8
BLACK
6
CONTINUOUS
10
2.3065907480314962
20
1.0433056692913385
11
2.3084655118110238
21
1.0451804330708661
0
LINE
8
BLACK
6
CONTINUOUS
10
2.3084655118110238
20
1.0451804330708661
11
2.3091885826771654
21
1.0456867322834646
0
LINE
8
BLACK
6
CONTINUOUS
10
2.3091885826771654
20
1.0456867322834646
11
2.3092329133858267
21
1.0457335433070867
0
LINE
8
BLACK
6
CONTINUOUS
10
2.3092329133858267
20
1.0457335433070867
11
2.3129824409448818
21
1.0476083070866142
0
LINE
8
BLACK
6
CONTINUOUS
10
2.3129824409448818
20
1.0476083070866142
11
2.3134708661417323
21
1.0477536220472441
0
LINE
8
BLACK
6
CONTINUOUS
10
2.3134708661417323
20
1.0477536220472441
11
2.313586811023622
21
1.0478318897637795
0
LINE
8
BLACK
6
CONTINUOUS
10
2.313586811023622
20
1.0478318897637795
11
2.3210858661417322
21
1.0497066535433071
0
LINE
8
BLACK
6
CONTINUOUS
10
2.3210858661417322
20
1.0497066535433071
11
2.3216737401574803
21
1.0497481496062993
0
LINE
8
BLACK
6
CONTINUOUS
10
2.3216737401574803
20
1.0497481496062993
11
2.3218020078740156
21
1.0497948031496063
0
LINE
8
BLACK
6
CONTINUOUS
10
2.3218020078740156
20
1.0497948031496063
11
2.3311758267716534
21
1.0497948031496063
0
LINE
8
BLACK
6
CONTINUOUS
10
2.3311758267716534
20
1.0497948031496063
11
2.3317561811023619
21
1.0496924803149605
0
LINE
8
BLACK
6
CONTINUOUS
10
2.315333503937008
20
1.0421812992125985
11
2.3123025196850393
21
1.0406657874015748
0
LINE
8
BLACK
6
CONTINUOUS
10
2.3123025196850393
20
1.0406657874015748
11
2.3111053937007875
21
1.0394686614173227
0
LINE
8
BLACK
6
CONTINUOUS
10
2.3111053937007875
20
1.0394686614173227
11
2.3097566535433072
21
1.0367711811023621
0
LINE
8
BLACK
6
CONTINUOUS
10
2.3097566535433072
20
1.0367711811023621
11
2.3097566535433072
21
1.0344157480314959
0
LINE
8
BLACK
6
CONTINUOUS
10
2.3097566535433072
20
1.0344157480314959
11
2.3111053937007875
21
1.0317182677165355
0
LINE
8
BLACK
6
CONTINUOUS
10
2.3111053937007875
20
1.0317182677165355
11
2.3123025196850393
21
1.0305211417322835
0
LINE
8
BLACK
6
CONTINUOUS
10
2.3123025196850393
20
1.0305211417322835
11
2.315333503937008
21
1.0290056692913385
0
LINE
8
BLACK
6
CONTINUOUS
10
2.315333503937008
20
1.0290056692913385
11
2.3221655511811021
21
1.0272976377952756
0
LINE
8
BLACK
6
CONTINUOUS
10
2.3221655511811021
20
1.0272976377952756
11
2.3308122834645668
21
1.0272976377952756
0
LINE
8
BLACK
6
CONTINUOUS
10
2.3308122834645668
20
1.0272976377952756
11
2.3376443307086614
21
1.0290056692913385
0
LINE
8
BLACK
6
CONTINUOUS
10
2.3376443307086614
20
1.0290056692913385
11
2.3406753149606301
21
1.0305211811023622
0
LINE
8
BLACK
6
CONTINUOUS
10
2.3406753149606301
20
1.0305211811023622
11
2.3418724803149606
21
1.0317183070866141
0
LINE
8
BLACK
6
CONTINUOUS
10
2.3418724803149606
20
1.0317183070866141
11
2.343221220472441
21
1.0344157480314959
0
LINE
8
BLACK
6
CONTINUOUS
10
2.343221220472441
20
1.0344157480314959
11
2.343221220472441
21
1.0367711811023621
0
LINE
8
BLACK
6
CONTINUOUS
10
2.343221220472441
20
1.0367711811023621
11
2.3418724803149606
21
1.0394686614173227
0
LINE
8
BLACK
6
CONTINUOUS
10
2.3418724803149606
20
1.0394686614173227
11
2.3406753149606301
21
1.0406657874015748
0
LINE
8
BLACK
6
CONTINUOUS
10
2.3406753149606301
20
1.0406657874015748
11
2.3376443307086614
21
1.0421812992125985
0
LINE
8
BLACK
6
CONTINUOUS
10
2.3376443307086614
20
1.0421812992125985
11
2.3308122834645668
21
1.0438892913385827
0
LINE
8
BLACK
6
CONTINUOUS
10
2.3308122834645668
20
1.0438892913385827
11
2.3221655511811021
21
1.0438892913385827
0
LINE
8
BLACK
6
CONTINUOUS
10
2.3221655511811021
20
1.0438892913385827
11
2.315333503937008
21
1.0421812992125985
0
LINE
8
BLACK
6
CONTINUOUS
10
2.347183897637795
20
1.1302316929133858
11
2.3487311417322836
21
1.1289333858267716
0
LINE
8
BLACK
6
CONTINUOUS
10
2.3487311417322836
20
1.1289333858267716
11
2.3490818897637795
21
1.126944251968504
0
LINE
8
BLACK
6
CONTINUOUS
10
2.3490818897637795
20
1.126944251968504
11
2.3480719685039371
21
1.1251950787401575
0
LINE
8
BLACK
6
CONTINUOUS
10
2.3480719685039371
20
1.1251950787401575
11
2.3461739763779526
21
1.124504251968504
0
LINE
8
BLACK
6
CONTINUOUS
10
2.3461739763779526
20
1.124504251968504
11
2.3262485826771653
21
1.124504251968504
0
LINE
8
BLACK
6
CONTINUOUS
10
2.3262485826771653
20
1.124504251968504
11
2.3240028346456691
21
1.1233814173228347
0
LINE
8
BLACK
6
CONTINUOUS
10
2.3240028346456691
20
1.1233814173228347
11
2.3228800000000001
21
1.1211356692913386
0
LINE
8
BLACK
6
CONTINUOUS
10
2.3228800000000001
20
1.1211356692913386
11
2.3228800000000001
21
1.1169054330708661
0
LINE
8
BLACK
6
CONTINUOUS
10
2.3228800000000001
20
1.1169054330708661
11
2.3240028346456691
21
1.1146597244094487
0
LINE
8
BLACK
6
CONTINUOUS
10
2.3240028346456691
20
1.1146597244094487
11
2.3262485826771653
21
1.1135368503937009
0
LINE
8
BLACK
6
CONTINUOUS
10
2.3262485826771653
20
1.1135368503937009
11
2.3461739763779526
21
1.1135368503937009
0
LINE
8
BLACK
6
CONTINUOUS
10
2.3461739763779526
20
1.1135368503937009
11
2.347183897637795
21
1.113358779527559
0
LINE
8
BLACK
6
CONTINUOUS
10
2.347183897637795
20
1.113358779527559
11
2.3487311417322836
21
1.1120604724409449
0
LINE
8
BLACK
6
CONTINUOUS
10
2.3487311417322836
20
1.1120604724409449
11
2.3490818897637795
21
1.110071338582677
0
LINE
8
BLACK
6
CONTINUOUS
10
2.3490818897637795
20
1.110071338582677
11
2.3480719685039371
21
1.1083221653543307
0
LINE
8
BLACK
6
CONTINUOUS
10
2.3480719685039371
20
1.1083221653543307
11
2.3461739763779526
21
1.107631338582677
0
LINE
8
BLACK
6
CONTINUOUS
10
2.3461739763779526
20
1.107631338582677
11
2.3262485826771653
21
1.107631338582677
0
LINE
8
BLACK
6
CONTINUOUS
10
2.3262485826771653
20
1.107631338582677
11
2.3240028346456691
21
1.1065085039370079
0
LINE
8
BLACK
6
CONTINUOUS
10
2.3240028346456691
20
1.1065085039370079
11
2.3228800000000001
21
1.1042627559055118
0
LINE
8
BLACK
6
CONTINUOUS
10
2.3228800000000001
20
1.1042627559055118
11
2.3228800000000001
21
1.1000325590551181
0
LINE
8
BLACK
6
CONTINUOUS
10
2.3228800000000001
20
1.1000325590551181
11
2.3242287401574804
21
1.0973350787401575
0
LINE
8
BLACK
6
CONTINUOUS
10
2.3242287401574804
20
1.0973350787401575
11
2.324899842519685
21
1.0966639763779527
0
LINE
8
BLACK
6
CONTINUOUS
10
2.324899842519685
20
1.0966639763779527
11
2.3461739763779526
21
1.0966639763779527
0
LINE
8
BLACK
6
CONTINUOUS
10
2.3461739763779526
20
1.0966639763779527
11
2.347183897637795
21
1.096485905511811
0
LINE
8
BLACK
6
CONTINUOUS
10
2.347183897637795
20
1.096485905511811
11
2.3487311417322836
21
1.0951875984251969
0
LINE
8
BLACK
6
CONTINUOUS
10
2.3487311417322836
20
1.0951875984251969
11
2.3490818897637795
21
1.093198464566929
0
LINE
8
BLACK
6
CONTINUOUS
10
2.3490818897637795
20
1.093198464566929
11
2.3480719685039371
21
1.0914492913385827
0
LINE
8
BLACK
6
CONTINUOUS
10
2.3480719685039371
20
1.0914492913385827
11
2.3461739763779526
21
1.090758464566929
0
LINE
8
BLACK
6
CONTINUOUS
10
2.3461739763779526
20
1.090758464566929
11
2.319927244094488
21
1.090758464566929
0
LINE
8
BLACK
6
CONTINUOUS
10
2.319927244094488
20
1.090758464566929
11
2.3189173228346456
21
1.0909365354330709
0
LINE
8
BLACK
6
CONTINUOUS
10
2.3189173228346456
20
1.0909365354330709
11
2.3173700787401574
21
1.0922348425196851
0
LINE
8
BLACK
6
CONTINUOUS
10
2.3173700787401574
20
1.0922348425196851
11
2.3170193307086615
21
1.0942239763779527
0
LINE
8
BLACK
6
CONTINUOUS
10
2.3170193307086615
20
1.0942239763779527
11
2.318029251968504
21
1.0959731496062992
0
LINE
8
BLACK
6
CONTINUOUS
10
2.318029251968504
20
1.0959731496062992
11
2.3182643307086614
21
1.0960587401574804
0
LINE
8
BLACK
6
CONTINUOUS
10
2.3182643307086614
20
1.0960587401574804
11
2.3172862204724409
21
1.098015
0
LINE
8
BLACK
6
CONTINUOUS
10
2.3172862204724409
20
1.098015
11
2.3169938582677165
21
1.0989979527559055
0
LINE
8
BLACK
6
CONTINUOUS
10
2.3169938582677165
20
1.0989979527559055
11
2.3170348425196852
21
1.0991696456692912
0
LINE
8
BLACK
6
CONTINUOUS
10
2.3170348425196852
20
1.0991696456692912
11
2.3169744881889764
21
1.0993355118110235
0
LINE
8
BLACK
6
CONTINUOUS
10
2.3169744881889764
20
1.0993355118110235
11
2.3169744881889764
21
1.1049598031496062
0
LINE
8
BLACK
6
CONTINUOUS
10
2.3169744881889764
20
1.1049598031496062
11
2.3171525590551179
21
1.1059697244094489
0
LINE
8
BLACK
6
CONTINUOUS
10
2.3171525590551179
20
1.1059697244094489
11
2.317266023622047
21
1.1061049999999999
0
LINE
8
BLACK
6
CONTINUOUS
10
2.317266023622047
20
1.1061049999999999
11
2.3172862204724409
21
1.10628031496063
0
LINE
8
BLACK
6
CONTINUOUS
10
2.3172862204724409
20
1.10628031496063
11
2.3191609842519685
21
1.1100298425196851
0
LINE
8
BLACK
6
CONTINUOUS
10
2.3191609842519685
20
1.1100298425196851
11
2.3195836614173229
21
1.1105998031496063
0
LINE
8
BLACK
6
CONTINUOUS
10
2.3195836614173229
20
1.1105998031496063
11
2.3194819685039372
21
1.1108344488188977
0
LINE
8
BLACK
6
CONTINUOUS
10
2.3194819685039372
20
1.1108344488188977
11
2.3191609842519685
21
1.1111383464566928
0
LINE
8
BLACK
6
CONTINUOUS
10
2.3191609842519685
20
1.1111383464566928
11
2.3172862204724409
21
1.114887874015748
0
LINE
8
BLACK
6
CONTINUOUS
10
2.3172862204724409
20
1.114887874015748
11
2.3169938582677165
21
1.1158708267716535
0
LINE
8
BLACK
6
CONTINUOUS
10
2.3169938582677165
20
1.1158708267716535
11
2.3170348425196852
21
1.1160425196850394
0
LINE
8
BLACK
6
CONTINUOUS
10
2.3170348425196852
20
1.1160425196850394
11
2.3169744881889764
21
1.1162083858267717
0
LINE
8
BLACK
6
CONTINUOUS
10
2.3169744881889764
20
1.1162083858267717
11
2.3169744881889764
21
1.1218326771653544
0
LINE
8
BLACK
6
CONTINUOUS
10
2.3169744881889764
20
1.1218326771653544
11
2.3171525590551179
21
1.1228425984251968
0
LINE
8
BLACK
6
CONTINUOUS
10
2.3171525590551179
20
1.1228425984251968
11
2.317266023622047
21
1.1229778740157481
0
LINE
8
BLACK
6
CONTINUOUS
10
2.317266023622047
20
1.1229778740157481
11
2.3172862204724409
21
1.1231531889763779
0
LINE
8
BLACK
6
CONTINUOUS
10
2.3172862204724409
20
1.1231531889763779
11
2.3191609842519685
21
1.1269027559055118
0
LINE
8
BLACK
6
CONTINUOUS
10
2.3191609842519685
20
1.1269027559055118
11
2.3197718897637793
21
1.1277264173228345
0
LINE
8
BLACK
6
CONTINUOUS
10
2.3197718897637793
20
1.1277264173228345
11
2.3201775590551179
21
1.1279022834645669
0
LINE
8
BLACK
6
CONTINUOUS
10
2.3201775590551179
20
1.1279022834645669
11
2.320481496062992
21
1.1282232677165354
0
LINE
8
BLACK
6
CONTINUOUS
10
2.320481496062992
20
1.1282232677165354
11
2.3242310236220471
21
1.1300980314960629
0
LINE
8
BLACK
6
CONTINUOUS
10
2.3242310236220471
20
1.1300980314960629
11
2.3252139370078742
21
1.1303903937007873
0
LINE
8
BLACK
6
CONTINUOUS
10
2.3252139370078742
20
1.1303903937007873
11
2.3253856299212599
21
1.1303494094488189
0
LINE
8
BLACK
6
CONTINUOUS
10
2.3253856299212599
20
1.1303494094488189
11
2.3255515354330707
21
1.1304097637795276
0
LINE
8
BLACK
6
CONTINUOUS
10
2.3255515354330707
20
1.1304097637795276
11
2.3461739763779526
21
1.1304097637795276
0
LINE
8
BLACK
6
CONTINUOUS
10
2.3461739763779526
20
1.1304097637795276
11
2.347183897637795
21
1.1302316929133858
0
LINE
8
BLACK
6
CONTINUOUS
10
2.347183897637795
20
1.1827251181102363
11
2.3487311417322836
21
1.1814268110236221
0
LINE
8
BLACK
6
CONTINUOUS
10
2.3487311417322836
20
1.1814268110236221
11
2.3490818897637795
21
1.1794376771653543
0
LINE
8
BLACK
6
CONTINUOUS
10
2.3490818897637795
20
1.1794376771653543
11
2.3480719685039371
21
1.1776885039370077
0
LINE
8
BLACK
6
CONTINUOUS
10
2.3480719685039371
20
1.1776885039370077
11
2.3461739763779526
21
1.1769976771653543
0
LINE
8
BLACK
6
CONTINUOUS
10
2.3461739763779526
20
1.1769976771653543
11
2.3262485826771653
21
1.1769976771653543
0
LINE
8
BLACK
6
CONTINUOUS
10
2.3262485826771653
20
1.1769976771653543
11
2.3240028346456691
21
1.175874842519685
0
LINE
8
BLACK
6
CONTINUOUS
10
2.3240028346456691
20
1.175874842519685
11
2.3228800000000001
21
1.1736290944881889
0
LINE
8
BLACK
6
CONTINUOUS
10
2.3228800000000001
20
1.1736290944881889
11
2.3228800000000001
21
1.1693988582677166
0
LINE
8
BLACK
6
CONTINUOUS
10
2.3228800000000001
20
1.1693988582677166
11
2.3240028346456691
21
1.1671531496062992
0
LINE
8
BLACK
6
CONTINUOUS
10
2.3240028346456691
20
1.1671531496062992
11
2.3262485826771653
21
1.1660302755905512
0
LINE
8
BLACK
6
CONTINUOUS
10
2.3262485826771653
20
1.1660302755905512
11
2.3461739763779526
21
1.1660302755905512
0
LINE
8
BLACK
6
CONTINUOUS
10
2.3461739763779526
20
1.1660302755905512
11
2.347183897637795
21
1.1658522047244093
0
LINE
8
BLACK
6
CONTINUOUS
10
2.347183897637795
20
1.1658522047244093
11
2.3487311417322836
21
1.1645538976377952
0
LINE
8
BLACK
6
CONTINUOUS
10
2.3487311417322836
20
1.1645538976377952
11
2.3490818897637795
21
1.1625647637795276
0
LINE
8
BLACK
6
CONTINUOUS
10
2.3490818897637795
20
1.1625647637795276
11
2.3480719685039371
21
1.160815590551181
0
LINE
8
BLACK
6
CONTINUOUS
10
2.3480719685039371
20
1.160815590551181
11
2.3461739763779526
21
1.1601247637795276
0
LINE
8
BLACK
6
CONTINUOUS
10
2.3461739763779526
20
1.1601247637795276
11
2.3262485826771653
21
1.1601247637795276
0
LINE
8
BLACK
6
CONTINUOUS
10
2.3262485826771653
20
1.1601247637795276
11
2.3240028346456691
21
1.1590019291338582
0
LINE
8
BLACK
6
CONTINUOUS
10
2.3240028346456691
20
1.1590019291338582
11
2.3228800000000001
21
1.1567561811023621
0
LINE
8
BLACK
6
CONTINUOUS
10
2.3228800000000001
20
1.1567561811023621
11
2.3228800000000001
21
1.1525259842519684
0
LINE
8
BLACK
6
CONTINUOUS
10
2.3228800000000001
20
1.1525259842519684
11
2.3242287401574804
21
1.1498285039370078
0
LINE
8
BLACK
6
CONTINUOUS
10
2.3242287401574804
20
1.1498285039370078
11
2.324899842519685
21
1.1491574015748032
0
LINE
8
BLACK
6
CONTINUOUS
10
2.324899842519685
20
1.1491574015748032
11
2.3461739763779526
21
1.1491574015748032
0
LINE
8
BLACK
6
CONTINUOUS
10
2.3461739763779526
20
1.1491574015748032
11
2.347183897637795
21
1.1489793307086613
0
LINE
8
BLACK
6
CONTINUOUS
10
2.347183897637795
20
1.1489793307086613
11
2.3487311417322836
21
1.1476810236220472
0
LINE
8
BLACK
6
CONTINUOUS
10
2.3487311417322836
20
1.1476810236220472
11
2.3490818897637795
21
1.1456918897637796
0
LINE
8
BLACK
6
CONTINUOUS
10
2.3490818897637795
20
1.1456918897637796
11
2.3480719685039371
21
1.143942716535433
0
LINE
8
BLACK
6
CONTINUOUS
10
2.3480719685039371
20
1.143942716535433
11
2.3461739763779526
21
1.1432518897637796
0
LINE
8
BLACK
6
CONTINUOUS
10
2.3461739763779526
20
1.1432518897637796
11
2.319927244094488
21
1.1432518897637796
0
LINE
8
BLACK
6
CONTINUOUS
10
2.319927244094488
20
1.1432518897637796
11
2.3189173228346456
21
1.1434299606299212
0
LINE
8
BLACK
6
CONTINUOUS
10
2.3189173228346456
20
1.1434299606299212
11
2.3173700787401574
21
1.1447282677165354
0
LINE
8
BLACK
6
CONTINUOUS
10
2.3173700787401574
20
1.1447282677165354
11
2.3170193307086615
21
1.1467174015748032
0
LINE
8
BLACK
6
CONTINUOUS
10
2.3170193307086615
20
1.1467174015748032
11
2.318029251968504
21
1.1484665748031495
0
LINE
8
BLACK
6
CONTINUOUS
10
2.318029251968504
20
1.1484665748031495
11
2.3182643307086614
21
1.1485521653543307
0
LINE
8
BLACK
6
CONTINUOUS
10
2.3182643307086614
20
1.1485521653543307
11
2.3172862204724409
21
1.1505084251968503
0
LINE
8
BLACK
6
CONTINUOUS
10
2.3172862204724409
20
1.1505084251968503
11
2.3169938582677165
21
1.1514913779527558
0
LINE
8
BLACK
6
CONTINUOUS
10
2.3169938582677165
20
1.1514913779527558
11
2.3170348425196852
21
1.1516630708661417
0
LINE
8
BLACK
6
CONTINUOUS
10
2.3170348425196852
20
1.1516630708661417
11
2.3169744881889764
21
1.151828937007874
0
LINE
8
BLACK
6
CONTINUOUS
10
2.3169744881889764
20
1.151828937007874
11
2.3169744881889764
21
1.1574532283464567
0
LINE
8
BLACK
6
CONTINUOUS
10
2.3169744881889764
20
1.1574532283464567
11
2.3171525590551179
21
1.1584631496062991
0
LINE
8
BLACK
6
CONTINUOUS
10
2.3171525590551179
20
1.1584631496062991
11
2.317266023622047
21
1.1585984251968504
0
LINE
8
BLACK
6
CONTINUOUS
10
2.317266023622047
20
1.1585984251968504
11
2.3172862204724409
21
1.1587737401574802
0
LINE
8
BLACK
6
CONTINUOUS
10
2.3172862204724409
20
1.1587737401574802
11
2.3191609842519685
21
1.1625232677165354
0
LINE
8
BLACK
6
CONTINUOUS
10
2.3191609842519685
20
1.1625232677165354
11
2.3195836614173229
21
1.1630932283464566
0
LINE
8
BLACK
6
CONTINUOUS
10
2.3195836614173229
20
1.1630932283464566
11
2.3194819685039372
21
1.163327874015748
0
LINE
8
BLACK
6
CONTINUOUS
10
2.3194819685039372
20
1.163327874015748
11
2.3191609842519685
21
1.1636317716535434
0
LINE
8
BLACK
6
CONTINUOUS
10
2.3191609842519685
20
1.1636317716535434
11
2.3172862204724409
21
1.1673812992125985
0
LINE
8
BLACK
6
CONTINUOUS
10
2.3172862204724409
20
1.1673812992125985
11
2.3169938582677165
21
1.168364251968504
0
LINE
8
BLACK
6
CONTINUOUS
10
2.3169938582677165
20
1.168364251968504
11
2.3170348425196852
21
1.1685359448818897
0
LINE
8
BLACK
6
CONTINUOUS
10
2.3170348425196852
20
1.1685359448818897
11
2.3169744881889764
21
1.168701811023622
0
LINE
8
BLACK
6
CONTINUOUS
10
2.3169744881889764
20
1.168701811023622
11
2.3169744881889764
21
1.1743261023622047
0
LINE
8
BLACK
6
CONTINUOUS
10
2.3169744881889764
20
1.1743261023622047
11
2.3171525590551179
21
1.1753360236220471
0
LINE
8
BLACK
6
CONTINUOUS
10
2.3171525590551179
20
1.1753360236220471
11
2.317266023622047
21
1.1754712992125984
0
LINE
8
BLACK
6
CONTINUOUS
10
2.317266023622047
20
1.1754712992125984
11
2.3172862204724409
21
1.1756466141732282
0
LINE
8
BLACK
6
CONTINUOUS
10
2.3172862204724409
20
1.1756466141732282
11
2.3191609842519685
21
1.1793961811023621
0
LINE
8
BLACK
6
CONTINUOUS
10
2.3191609842519685
20
1.1793961811023621
11
2.3197718897637793
21
1.180219842519685
0
LINE
8
BLACK
6
CONTINUOUS
10
2.3197718897637793
20
1.180219842519685
11
2.3201775590551179
21
1.1803957086614172
0
LINE
8
BLACK
6
CONTINUOUS
10
2.3201775590551179
20
1.1803957086614172
11
2.320481496062992
21
1.1807166929133859
0
LINE
8
BLACK
6
CONTINUOUS
10
2.320481496062992
20
1.1807166929133859
11
2.3242310236220471
21
1.1825914566929134
0
LINE
8
BLACK
6
CONTINUOUS
10
2.3242310236220471
20
1.1825914566929134
11
2.3252139370078742
21
1.1828838188976378
0
LINE
8
BLACK
6
CONTINUOUS
10
2.3252139370078742
20
1.1828838188976378
11
2.3253856299212599
21
1.1828428346456692
0
LINE
8
BLACK
6
CONTINUOUS
10
2.3253856299212599
20
1.1828428346456692
11
2.3255515354330707
21
1.1829031889763779
0
LINE
8
BLACK
6
CONTINUOUS
10
2.3255515354330707
20
1.1829031889763779
11
2.3461739763779526
21
1.1829031889763779
0
LINE
8
BLACK
6
CONTINUOUS
10
2.3461739763779526
20
1.1829031889763779
11
2.347183897637795
21
1.1827251181102363
  0
ENDSEC
  0
EOF
