  0
SECTION
  2
HEADER
  9
$ANGBASE
  50
0.0
  9
$ANGDIR
  70
1
  9
$MEASUREMENT
  70
0
  0
ENDSEC
  0
SECTION
  2
TABLES
  0
TABLE
  2
LTYPE
  70
4
  0
LTYPE
  5
40F
  2
CONTINUOUS
  70
0
  3
Solid line
  72
65
  73
0
  40
0.0
  0
LTYPE
  5
410
  2
DASHDOT
 70
0
  3
Dash Dot ____ _ ____ _
 72
65
 73
4
 40
2.0
 49
1.25
 49
-0.25
 49
0.25
 49
-0.25
  0
LTYPE
  5
411
  2
DASHED
 70
0
  3
Dashed __ __ __ __ __
 72
65
 73
2
 40
0.75
 49
0.5
 49
-0.25
  0
LTYPE
  5
43B
  2
DOTTED
 70
0
  3
Dotted .  .  .  .
 72
65
 73
2
 40
0.2
 49
0.0
 49
-0.2
  0
ENDTAB
  0
TABLE
  2
STYLE
  70
4
  0
STYLE
  2
KICAD
  70
0
  40
0
  41
1
  42
1
  50
0
  71
0
  3
isocp.shx
  0
STYLE
  2
KICADB
  70
0
  40
0
  41
1
  42
1
  50
0
  71
0
  3
isocp.shx
  0
STYLE
  2
KICADI
  70
0
  40
0
  41
1
  42
1
  50
15
  71
0
  3
isocp.shx
  0
STYLE
  2
KICADBI
  70
0
  40
0
  41
1
  42
1
  50
15
  71
0
  3
isocp.shx
  0
ENDTAB
  0
TABLE
  2
LAYER
  70
1
  0
LAYER
  2
BLACK
  70
0
  62
7
  6
CONTINUOUS
  0
ENDTAB
  0
ENDSEC
  0
SECTION
  2
ENTITIES
0
LINE
8
BLACK
6
CONTINUOUS
10
2.1903835039370079
20
1.7928851574803149
11
2.190512755905512
21
1.7929079133858268
0
LINE
8
BLACK
6
CONTINUOUS
10
2.190512755905512
20
1.7929079133858268
11
2.190626338582677
21
1.7928423228346457
0
LINE
8
BLACK
6
CONTINUOUS
10
2.190626338582677
20
1.7928423228346457
11
2.1910099212598424
21
1.79277468503937
0
LINE
8
BLACK
6
CONTINUOUS
10
2.1910099212598424
20
1.79277468503937
11
2.1915975984251967
21
1.7922815748031495
0
LINE
8
BLACK
6
CONTINUOUS
10
2.1915975984251967
20
1.7922815748031495
11
2.1922619291338581
21
1.7918979921259841
0
LINE
8
BLACK
6
CONTINUOUS
10
2.1922619291338581
20
1.7918979921259841
11
2.1923530314960629
21
1.7916476771653542
0
LINE
8
BLACK
6
CONTINUOUS
10
2.1923530314960629
20
1.7916476771653542
11
2.1925571653543305
21
1.7914763779527558
0
LINE
8
BLACK
6
CONTINUOUS
10
2.1925571653543305
20
1.7914763779527558
11
2.1926903937007873
21
1.7907208267716535
0
LINE
8
BLACK
6
CONTINUOUS
10
2.1926903937007873
20
1.7907208267716535
11
2.192952755905512
21
1.79
0
LINE
8
BLACK
6
CONTINUOUS
10
2.192952755905512
20
1.79
11
2.192952755905512
21
0.21
0
LINE
8
BLACK
6
CONTINUOUS
10
2.192952755905512
20
0.21
11
2.1928851181102362
21
0.2096164960629921
0
LINE
8
BLACK
6
CONTINUOUS
10
2.1928851181102362
20
0.2096164960629921
11
2.1929079133858269
21
0.2094872440944882
0
LINE
8
BLACK
6
CONTINUOUS
10
2.1929079133858269
20
0.2094872440944882
11
2.1928422834645667
21
0.2093736614173228
0
LINE
8
BLACK
6
CONTINUOUS
10
2.1928422834645667
20
0.2093736614173228
11
2.1927746850393701
21
0.2089900787401575
0
LINE
8
BLACK
6
CONTINUOUS
10
2.1927746850393701
20
0.2089900787401575
11
2.1922815354330707
21
0.2084024015748031
0
LINE
8
BLACK
6
CONTINUOUS
10
2.1922815354330707
20
0.2084024015748031
11
2.191897992125984
21
0.2077380708661417
0
LINE
8
BLACK
6
CONTINUOUS
10
2.191897992125984
20
0.2077380708661417
11
2.1916476377952754
21
0.207646968503937
0
LINE
8
BLACK
6
CONTINUOUS
10
2.1916476377952754
20
0.207646968503937
11
2.191476377952756
21
0.2074428346456693
0
LINE
8
BLACK
6
CONTINUOUS
10
2.191476377952756
20
0.2074428346456693
11
2.1907207874015748
21
0.2073096062992126
0
LINE
8
BLACK
6
CONTINUOUS
10
2.1907207874015748
20
0.2073096062992126
11
2.1899999999999999
21
0.2070472440944882
0
LINE
8
BLACK
6
CONTINUOUS
10
2.1899999999999999
20
0.2070472440944882
11
0.21
21
0.2070472440944882
0
LINE
8
BLACK
6
CONTINUOUS
10
0.21
20
0.2070472440944882
11
0.2096164566929134
21
0.2071148818897638
0
LINE
8
BLACK
6
CONTINUOUS
10
0.2096164566929134
20
0.2071148818897638
11
0.2094872440944882
21
0.2070920866141732
0
LINE
8
BLACK
6
CONTINUOUS
10
0.2094872440944882
20
0.2070920866141732
11
0.2093736220472441
21
0.2071577165354331
0
LINE
8
BLACK
6
CONTINUOUS
10
0.2093736220472441
20
0.2071577165354331
11
0.2089900787401575
21
0.2072253149606299
0
LINE
8
BLACK
6
CONTINUOUS
10
0.2089900787401575
20
0.2072253149606299
11
0.2084023622047244
21
0.2077184645669291
0
LINE
8
BLACK
6
CONTINUOUS
10
0.2084023622047244
20
0.2077184645669291
11
0.2077380708661417
21
0.2081020078740158
0
LINE
8
BLACK
6
CONTINUOUS
10
0.2077380708661417
20
0.2081020078740158
11
0.2076469291338583
21
0.2083523622047244
0
LINE
8
BLACK
6
CONTINUOUS
10
0.2076469291338583
20
0.2083523622047244
11
0.2074428346456693
21
0.2085236220472441
0
LINE
8
BLACK
6
CONTINUOUS
10
0.2074428346456693
20
0.2085236220472441
11
0.2073095669291339
21
0.2092792125984252
0
LINE
8
BLACK
6
CONTINUOUS
10
0.2073095669291339
20
0.2092792125984252
11
0.2070472440944882
21
0.21
0
LINE
8
BLACK
6
CONTINUOUS
10
0.2070472440944882
20
0.21
11
0.2070472440944882
21
1.79
0
LINE
8
BLACK
6
CONTINUOUS
10
0.2070472440944882
20
1.79
11
0.207114842519685
21
1.7903835433070865
0
LINE
8
BLACK
6
CONTINUOUS
10
0.207114842519685
20
1.7903835433070865
11
0.2070920866141732
21
1.7905127559055118
0
LINE
8
BLACK
6
CONTINUOUS
10
0.2070920866141732
20
1.7905127559055118
11
0.2071576771653543
21
1.7906263779527558
0
LINE
8
BLACK
6
CONTINUOUS
10
0.2071576771653543
20
1.7906263779527558
11
0.2072253149606299
21
1.7910099212598425
0
LINE
8
BLACK
6
CONTINUOUS
10
0.2072253149606299
20
1.7910099212598425
11
0.2077184251968504
21
1.7915976377952756
0
LINE
8
BLACK
6
CONTINUOUS
10
0.2077184251968504
20
1.7915976377952756
11
0.2081020078740158
21
1.7922619291338582
0
LINE
8
BLACK
6
CONTINUOUS
10
0.2081020078740158
20
1.7922619291338582
11
0.2083523228346457
21
1.7923530708661417
0
LINE
8
BLACK
6
CONTINUOUS
10
0.2083523228346457
20
1.7923530708661417
11
0.2085236220472441
21
1.7925571653543306
0
LINE
8
BLACK
6
CONTINUOUS
10
0.2085236220472441
20
1.7925571653543306
11
0.2092791732283465
21
1.7926904330708662
0
LINE
8
BLACK
6
CONTINUOUS
10
0.2092791732283465
20
1.7926904330708662
11
0.21
21
1.7929527559055118
0
LINE
8
BLACK
6
CONTINUOUS
10
0.21
20
1.7929527559055118
11
2.1899999999999999
21
1.7929527559055118
0
LINE
8
BLACK
6
CONTINUOUS
10
2.1899999999999999
20
1.7929527559055118
11
2.1903835039370079
21
1.7928851574803149
0
LINE
8
BLACK
6
CONTINUOUS
10
0.2129527559055118
20
1.7870472440944882
11
0.2129527559055118
21
0.2129527559055118
0
LINE
8
BLACK
6
CONTINUOUS
10
0.2129527559055118
20
0.2129527559055118
11
2.1870472440944879
21
0.2129527559055118
0
LINE
8
BLACK
6
CONTINUOUS
10
2.1870472440944879
20
0.2129527559055118
11
2.1870472440944879
21
1.7870472440944882
0
LINE
8
BLACK
6
CONTINUOUS
10
2.1870472440944879
20
1.7870472440944882
11
0.2129527559055118
21
1.7870472440944882
  0
ENDSEC
  0
EOF
