  0
SECTION
  2
HEADER
  9
$ANGBASE
  50
0.0
  9
$ANGDIR
  70
1
  9
$MEASUREMENT
  70
0
  0
ENDSEC
  0
SECTION
  2
TABLES
  0
TABLE
  2
LTYPE
  70
4
  0
LTYPE
  5
40F
  2
CONTINUOUS
  70
0
  3
Solid line
  72
65
  73
0
  40
0.0
  0
LTYPE
  5
410
  2
DASHDOT
 70
0
  3
Dash Dot ____ _ ____ _
 72
65
 73
4
 40
2.0
 49
1.25
 49
-0.25
 49
0.25
 49
-0.25
  0
LTYPE
  5
411
  2
DASHED
 70
0
  3
Dashed __ __ __ __ __
 72
65
 73
2
 40
0.75
 49
0.5
 49
-0.25
  0
LTYPE
  5
43B
  2
DOTTED
 70
0
  3
Dotted .  .  .  .
 72
65
 73
2
 40
0.2
 49
0.0
 49
-0.2
  0
ENDTAB
  0
TABLE
  2
STYLE
  70
4
  0
STYLE
  2
KICAD
  70
0
  40
0
  41
1
  42
1
  50
0
  71
0
  3
isocp.shx
  0
STYLE
  2
KICADB
  70
0
  40
0
  41
1
  42
1
  50
0
  71
0
  3
isocp.shx
  0
STYLE
  2
KICADI
  70
0
  40
0
  41
1
  42
1
  50
15
  71
0
  3
isocp.shx
  0
STYLE
  2
KICADBI
  70
0
  40
0
  41
1
  42
1
  50
15
  71
0
  3
isocp.shx
  0
ENDTAB
  0
TABLE
  2
LAYER
  70
1
  0
LAYER
  2
BLACK
  70
0
  62
7
  6
CONTINUOUS
  0
ENDTAB
  0
ENDSEC
  0
SECTION
  2
ENTITIES
0
LINE
8
BLACK
6
CONTINUOUS
10
1.7421259842519685
20
0.4759448818897637
11
1.742821968503937
21
0.4756566141732284
0
LINE
8
BLACK
6
CONTINUOUS
10
1.742821968503937
20
0.4756566141732284
11
1.7431102362204725
21
0.4749606299212598
0
LINE
8
BLACK
6
CONTINUOUS
10
1.7431102362204725
20
0.4749606299212598
11
1.7431102362204725
21
0.3411023622047244
0
LINE
8
BLACK
6
CONTINUOUS
10
1.7431102362204725
20
0.3411023622047244
11
1.742821968503937
21
0.3404063779527559
0
LINE
8
BLACK
6
CONTINUOUS
10
1.742821968503937
20
0.3404063779527559
11
1.7421259842519685
21
0.3401181102362205
0
LINE
8
BLACK
6
CONTINUOUS
10
1.7421259842519685
20
0.3401181102362205
11
1.6649606299212598
21
0.3401181102362205
0
LINE
8
BLACK
6
CONTINUOUS
10
1.6649606299212598
20
0.3401181102362205
11
1.6642646456692913
21
0.3404063779527559
0
LINE
8
BLACK
6
CONTINUOUS
10
1.6642646456692913
20
0.3404063779527559
11
1.6639763779527559
21
0.3411023622047244
0
LINE
8
BLACK
6
CONTINUOUS
10
1.6639763779527559
20
0.3411023622047244
11
1.6639763779527559
21
0.4749606299212598
0
LINE
8
BLACK
6
CONTINUOUS
10
1.6639763779527559
20
0.4749606299212598
11
1.6642646456692913
21
0.4756566141732284
0
LINE
8
BLACK
6
CONTINUOUS
10
1.6642646456692913
20
0.4756566141732284
11
1.6649606299212598
21
0.4759448818897637
0
LINE
8
BLACK
6
CONTINUOUS
10
1.6649606299212598
20
0.4759448818897637
11
1.7421259842519685
21
0.4759448818897637
0
LINE
8
BLACK
6
CONTINUOUS
10
1.6659448818897638
20
0.4739763779527559
11
1.6659448818897638
21
0.3420866141732283
0
LINE
8
BLACK
6
CONTINUOUS
10
1.6659448818897638
20
0.3420866141732283
11
1.7411417322834646
21
0.3420866141732283
0
LINE
8
BLACK
6
CONTINUOUS
10
1.7411417322834646
20
0.3420866141732283
11
1.7411417322834646
21
0.4739763779527559
0
LINE
8
BLACK
6
CONTINUOUS
10
1.7411417322834646
20
0.4739763779527559
11
1.6659448818897638
21
0.4739763779527559
0
LINE
8
BLACK
6
CONTINUOUS
10
1.6521259842519684
20
0.4859448818897638
11
1.6528219685039369
21
0.4856566141732284
0
LINE
8
BLACK
6
CONTINUOUS
10
1.6528219685039369
20
0.4856566141732284
11
1.6531102362204724
21
0.4849606299212598
0
LINE
8
BLACK
6
CONTINUOUS
10
1.6531102362204724
20
0.4849606299212598
11
1.6531102362204724
21
0.3511023622047244
0
LINE
8
BLACK
6
CONTINUOUS
10
1.6531102362204724
20
0.3511023622047244
11
1.6528219685039369
21
0.3504063779527559
0
LINE
8
BLACK
6
CONTINUOUS
10
1.6528219685039369
20
0.3504063779527559
11
1.6521259842519684
21
0.3501181102362205
0
LINE
8
BLACK
6
CONTINUOUS
10
1.6521259842519684
20
0.3501181102362205
11
1.5749606299212597
21
0.3501181102362205
0
LINE
8
BLACK
6
CONTINUOUS
10
1.5749606299212597
20
0.3501181102362205
11
1.5742646456692913
21
0.3504063779527559
0
LINE
8
BLACK
6
CONTINUOUS
10
1.5742646456692913
20
0.3504063779527559
11
1.5739763779527558
21
0.3511023622047244
0
LINE
8
BLACK
6
CONTINUOUS
10
1.5739763779527558
20
0.3511023622047244
11
1.5739763779527558
21
0.4849606299212598
0
LINE
8
BLACK
6
CONTINUOUS
10
1.5739763779527558
20
0.4849606299212598
11
1.5742646456692913
21
0.4856566141732284
0
LINE
8
BLACK
6
CONTINUOUS
10
1.5742646456692913
20
0.4856566141732284
11
1.5749606299212597
21
0.4859448818897638
0
LINE
8
BLACK
6
CONTINUOUS
10
1.5749606299212597
20
0.4859448818897638
11
1.6521259842519684
21
0.4859448818897638
0
LINE
8
BLACK
6
CONTINUOUS
10
1.5759448818897637
20
0.4839763779527559
11
1.5759448818897637
21
0.3520866141732283
0
LINE
8
BLACK
6
CONTINUOUS
10
1.5759448818897637
20
0.3520866141732283
11
1.6511417322834645
21
0.3520866141732283
0
LINE
8
BLACK
6
CONTINUOUS
10
1.6511417322834645
20
0.3520866141732283
11
1.6511417322834645
21
0.4839763779527559
0
LINE
8
BLACK
6
CONTINUOUS
10
1.6511417322834645
20
0.4839763779527559
11
1.5759448818897637
21
0.4839763779527559
0
LINE
8
BLACK
6
CONTINUOUS
10
0.8059448818897638
20
0.6926574803149607
11
0.8066408661417322
21
0.6923692125984252
0
LINE
8
BLACK
6
CONTINUOUS
10
0.8066408661417322
20
0.6923692125984252
11
0.8069291338582677
21
0.6916732283464567
0
LINE
8
BLACK
6
CONTINUOUS
10
0.8069291338582677
20
0.6916732283464567
11
0.8069291338582677
21
0.5593897637795275
0
LINE
8
BLACK
6
CONTINUOUS
10
0.8069291338582677
20
0.5593897637795275
11
0.8066408661417322
21
0.5586937795275591
0
LINE
8
BLACK
6
CONTINUOUS
10
0.8066408661417322
20
0.5586937795275591
11
0.8059448818897638
21
0.5584055118110236
0
LINE
8
BLACK
6
CONTINUOUS
10
0.8059448818897638
20
0.5584055118110236
11
0.7311417322834646
21
0.5584055118110236
0
LINE
8
BLACK
6
CONTINUOUS
10
0.7311417322834646
20
0.5584055118110236
11
0.7304457480314961
21
0.5586937795275591
0
LINE
8
BLACK
6
CONTINUOUS
10
0.7304457480314961
20
0.5586937795275591
11
0.7301574803149606
21
0.5593897637795275
0
LINE
8
BLACK
6
CONTINUOUS
10
0.7301574803149606
20
0.5593897637795275
11
0.7301574803149606
21
0.6916732283464567
0
LINE
8
BLACK
6
CONTINUOUS
10
0.7301574803149606
20
0.6916732283464567
11
0.7304457480314961
21
0.6923692125984252
0
LINE
8
BLACK
6
CONTINUOUS
10
0.7304457480314961
20
0.6923692125984252
11
0.7311417322834646
21
0.6926574803149607
0
LINE
8
BLACK
6
CONTINUOUS
10
0.7311417322834646
20
0.6926574803149607
11
0.8059448818897638
21
0.6926574803149607
0
LINE
8
BLACK
6
CONTINUOUS
10
0.7321259842519685
20
0.6906889763779528
11
0.7321259842519685
21
0.5603740157480315
0
LINE
8
BLACK
6
CONTINUOUS
10
0.7321259842519685
20
0.5603740157480315
11
0.8049606299212598
21
0.5603740157480315
0
LINE
8
BLACK
6
CONTINUOUS
10
0.8049606299212598
20
0.5603740157480315
11
0.8049606299212598
21
0.6906889763779528
0
LINE
8
BLACK
6
CONTINUOUS
10
0.8049606299212598
20
0.6906889763779528
11
0.7321259842519685
21
0.6906889763779528
0
LINE
8
BLACK
6
CONTINUOUS
10
0.9059448818897637
20
0.6926574803149607
11
0.9066408661417322
21
0.6923692125984252
0
LINE
8
BLACK
6
CONTINUOUS
10
0.9066408661417322
20
0.6923692125984252
11
0.9069291338582677
21
0.6916732283464567
0
LINE
8
BLACK
6
CONTINUOUS
10
0.9069291338582677
20
0.6916732283464567
11
0.9069291338582677
21
0.5593897637795275
0
LINE
8
BLACK
6
CONTINUOUS
10
0.9069291338582677
20
0.5593897637795275
11
0.9066408661417322
21
0.5586937795275591
0
LINE
8
BLACK
6
CONTINUOUS
10
0.9066408661417322
20
0.5586937795275591
11
0.9059448818897637
21
0.5584055118110236
0
LINE
8
BLACK
6
CONTINUOUS
10
0.9059448818897637
20
0.5584055118110236
11
0.8311417322834646
21
0.5584055118110236
0
LINE
8
BLACK
6
CONTINUOUS
10
0.8311417322834646
20
0.5584055118110236
11
0.8304457480314961
21
0.5586937795275591
0
LINE
8
BLACK
6
CONTINUOUS
10
0.8304457480314961
20
0.5586937795275591
11
0.8301574803149606
21
0.5593897637795275
0
LINE
8
BLACK
6
CONTINUOUS
10
0.8301574803149606
20
0.5593897637795275
11
0.8301574803149606
21
0.6916732283464567
0
LINE
8
BLACK
6
CONTINUOUS
10
0.8301574803149606
20
0.6916732283464567
11
0.8304457480314961
21
0.6923692125984252
0
LINE
8
BLACK
6
CONTINUOUS
10
0.8304457480314961
20
0.6923692125984252
11
0.8311417322834646
21
0.6926574803149607
0
LINE
8
BLACK
6
CONTINUOUS
10
0.8311417322834646
20
0.6926574803149607
11
0.9059448818897637
21
0.6926574803149607
0
LINE
8
BLACK
6
CONTINUOUS
10
0.8321259842519685
20
0.6906889763779528
11
0.8321259842519685
21
0.5603740157480315
0
LINE
8
BLACK
6
CONTINUOUS
10
0.8321259842519685
20
0.5603740157480315
11
0.9049606299212598
21
0.5603740157480315
0
LINE
8
BLACK
6
CONTINUOUS
10
0.9049606299212598
20
0.5603740157480315
11
0.9049606299212598
21
0.6906889763779528
0
LINE
8
BLACK
6
CONTINUOUS
10
0.9049606299212598
20
0.6906889763779528
11
0.8321259842519685
21
0.6906889763779528
0
LINE
8
BLACK
6
CONTINUOUS
10
1.0059448818897638
20
0.6926574803149607
11
1.0066408661417323
21
0.6923692125984252
0
LINE
8
BLACK
6
CONTINUOUS
10
1.0066408661417323
20
0.6923692125984252
11
1.0069291338582678
21
0.6916732283464567
0
LINE
8
BLACK
6
CONTINUOUS
10
1.0069291338582678
20
0.6916732283464567
11
1.0069291338582678
21
0.5593897637795275
0
LINE
8
BLACK
6
CONTINUOUS
10
1.0069291338582678
20
0.5593897637795275
11
1.0066408661417323
21
0.5586937795275591
0
LINE
8
BLACK
6
CONTINUOUS
10
1.0066408661417323
20
0.5586937795275591
11
1.0059448818897638
21
0.5584055118110236
0
LINE
8
BLACK
6
CONTINUOUS
10
1.0059448818897638
20
0.5584055118110236
11
0.9311417322834645
21
0.5584055118110236
0
LINE
8
BLACK
6
CONTINUOUS
10
0.9311417322834645
20
0.5584055118110236
11
0.930445748031496
21
0.5586937795275591
0
LINE
8
BLACK
6
CONTINUOUS
10
0.930445748031496
20
0.5586937795275591
11
0.9301574803149606
21
0.5593897637795275
0
LINE
8
BLACK
6
CONTINUOUS
10
0.9301574803149606
20
0.5593897637795275
11
0.9301574803149606
21
0.6916732283464567
0
LINE
8
BLACK
6
CONTINUOUS
10
0.9301574803149606
20
0.6916732283464567
11
0.930445748031496
21
0.6923692125984252
0
LINE
8
BLACK
6
CONTINUOUS
10
0.930445748031496
20
0.6923692125984252
11
0.9311417322834645
21
0.6926574803149607
0
LINE
8
BLACK
6
CONTINUOUS
10
0.9311417322834645
20
0.6926574803149607
11
1.0059448818897638
21
0.6926574803149607
0
LINE
8
BLACK
6
CONTINUOUS
10
0.9321259842519685
20
0.6906889763779528
11
0.9321259842519685
21
0.5603740157480315
0
LINE
8
BLACK
6
CONTINUOUS
10
0.9321259842519685
20
0.5603740157480315
11
1.0049606299212599
21
0.5603740157480315
0
LINE
8
BLACK
6
CONTINUOUS
10
1.0049606299212599
20
0.5603740157480315
11
1.0049606299212599
21
0.6906889763779528
0
LINE
8
BLACK
6
CONTINUOUS
10
1.0049606299212599
20
0.6906889763779528
11
0.9321259842519685
21
0.6906889763779528
0
LINE
8
BLACK
6
CONTINUOUS
10
1.4285982677165354
20
0.8013967716535433
11
1.4292942519685039
21
0.8011085039370078
0
LINE
8
BLACK
6
CONTINUOUS
10
1.4292942519685039
20
0.8011085039370078
11
1.4766203149606298
21
0.7537824015748031
0
LINE
8
BLACK
6
CONTINUOUS
10
1.4766203149606298
20
0.7537824015748031
11
1.476908622047244
21
0.7530864566929134
0
LINE
8
BLACK
6
CONTINUOUS
10
1.476908622047244
20
0.7530864566929134
11
1.4766203149606298
21
0.7523904724409448
0
LINE
8
BLACK
6
CONTINUOUS
10
1.4766203149606298
20
0.7523904724409448
11
1.4766202362204723
21
0.7523904724409448
0
LINE
8
BLACK
6
CONTINUOUS
10
1.4766202362204723
20
0.7523904724409448
11
1.3791843307086613
21
0.6549544881889764
0
LINE
8
BLACK
6
CONTINUOUS
10
1.3791843307086613
20
0.6549544881889764
11
1.3784883464566928
21
0.6546661811023622
0
LINE
8
BLACK
6
CONTINUOUS
10
1.3784883464566928
20
0.6546661811023622
11
1.377996220472441
21
0.6548700787401575
0
LINE
8
BLACK
6
CONTINUOUS
10
1.377996220472441
20
0.6548700787401575
11
1.3777923622047243
21
0.6549544881889764
0
LINE
8
BLACK
6
CONTINUOUS
10
1.3777923622047243
20
0.6549544881889764
11
1.3777923228346456
21
0.6549545669291339
0
LINE
8
BLACK
6
CONTINUOUS
10
1.3777923228346456
20
0.6549545669291339
11
1.3304662992125984
21
0.7022805511811023
0
LINE
8
BLACK
6
CONTINUOUS
10
1.3304662992125984
20
0.7022805511811023
11
1.330178031496063
21
0.7029765354330708
0
LINE
8
BLACK
6
CONTINUOUS
10
1.330178031496063
20
0.7029765354330708
11
1.3304662992125984
21
0.7036725196850393
0
LINE
8
BLACK
6
CONTINUOUS
10
1.3304662992125984
20
0.7036725196850393
11
1.4279022834645669
21
0.8011084645669291
0
LINE
8
BLACK
6
CONTINUOUS
10
1.4279022834645669
20
0.8011084645669291
11
1.4279022834645669
21
0.8011085039370078
0
LINE
8
BLACK
6
CONTINUOUS
10
1.4279022834645669
20
0.8011085039370078
11
1.4285982677165354
21
0.8013967716535433
0
LINE
8
BLACK
6
CONTINUOUS
10
1.3325542125984251
20
0.7029765354330708
11
1.3784883070866141
21
0.6570424409448818
0
LINE
8
BLACK
6
CONTINUOUS
10
1.3784883070866141
20
0.6570424409448818
11
1.4745323622047244
21
0.7530864566929134
0
LINE
8
BLACK
6
CONTINUOUS
10
1.4745323622047244
20
0.7530864566929134
11
1.4285982283464567
21
0.7990205905511811
0
LINE
8
BLACK
6
CONTINUOUS
10
1.4285982283464567
20
0.7990205905511811
11
1.3325542125984251
21
0.7029765354330708
0
LINE
8
BLACK
6
CONTINUOUS
10
0.9121259842519684
20
0.8959448818897637
11
0.912821968503937
21
0.8956566141732283
0
LINE
8
BLACK
6
CONTINUOUS
10
0.912821968503937
20
0.8956566141732283
11
0.9131102362204724
21
0.8949606299212598
0
LINE
8
BLACK
6
CONTINUOUS
10
0.9131102362204724
20
0.8949606299212598
11
0.9131102362204724
21
0.7611023622047244
0
LINE
8
BLACK
6
CONTINUOUS
10
0.9131102362204724
20
0.7611023622047244
11
0.912821968503937
21
0.7604063779527559
0
LINE
8
BLACK
6
CONTINUOUS
10
0.912821968503937
20
0.7604063779527559
11
0.9121259842519684
21
0.7601181102362204
0
LINE
8
BLACK
6
CONTINUOUS
10
0.9121259842519684
20
0.7601181102362204
11
0.8349606299212599
21
0.7601181102362204
0
LINE
8
BLACK
6
CONTINUOUS
10
0.8349606299212599
20
0.7601181102362204
11
0.8342646456692914
21
0.7604063779527559
0
LINE
8
BLACK
6
CONTINUOUS
10
0.8342646456692914
20
0.7604063779527559
11
0.8339763779527559
21
0.7611023622047244
0
LINE
8
BLACK
6
CONTINUOUS
10
0.8339763779527559
20
0.7611023622047244
11
0.8339763779527559
21
0.8949606299212598
0
LINE
8
BLACK
6
CONTINUOUS
10
0.8339763779527559
20
0.8949606299212598
11
0.8342646456692914
21
0.8956566141732283
0
LINE
8
BLACK
6
CONTINUOUS
10
0.8342646456692914
20
0.8956566141732283
11
0.8349606299212599
21
0.8959448818897637
0
LINE
8
BLACK
6
CONTINUOUS
10
0.8349606299212599
20
0.8959448818897637
11
0.9121259842519684
21
0.8959448818897637
0
LINE
8
BLACK
6
CONTINUOUS
10
0.8359448818897638
20
0.8939763779527559
11
0.8359448818897638
21
0.7620866141732283
0
LINE
8
BLACK
6
CONTINUOUS
10
0.8359448818897638
20
0.7620866141732283
11
0.9111417322834645
21
0.7620866141732283
0
LINE
8
BLACK
6
CONTINUOUS
10
0.9111417322834645
20
0.7620866141732283
11
0.9111417322834645
21
0.8939763779527559
0
LINE
8
BLACK
6
CONTINUOUS
10
0.9111417322834645
20
0.8939763779527559
11
0.8359448818897638
21
0.8939763779527559
0
LINE
8
BLACK
6
CONTINUOUS
10
1.0121259842519685
20
0.8959448818897637
11
1.012821968503937
21
0.8956566141732283
0
LINE
8
BLACK
6
CONTINUOUS
10
1.012821968503937
20
0.8956566141732283
11
1.0131102362204725
21
0.8949606299212598
0
LINE
8
BLACK
6
CONTINUOUS
10
1.0131102362204725
20
0.8949606299212598
11
1.0131102362204725
21
0.7611023622047244
0
LINE
8
BLACK
6
CONTINUOUS
10
1.0131102362204725
20
0.7611023622047244
11
1.012821968503937
21
0.7604063779527559
0
LINE
8
BLACK
6
CONTINUOUS
10
1.012821968503937
20
0.7604063779527559
11
1.0121259842519685
21
0.7601181102362204
0
LINE
8
BLACK
6
CONTINUOUS
10
1.0121259842519685
20
0.7601181102362204
11
0.9349606299212598
21
0.7601181102362204
0
LINE
8
BLACK
6
CONTINUOUS
10
0.9349606299212598
20
0.7601181102362204
11
0.9342646456692913
21
0.7604063779527559
0
LINE
8
BLACK
6
CONTINUOUS
10
0.9342646456692913
20
0.7604063779527559
11
0.9339763779527559
21
0.7611023622047244
0
LINE
8
BLACK
6
CONTINUOUS
10
0.9339763779527559
20
0.7611023622047244
11
0.9339763779527559
21
0.8949606299212598
0
LINE
8
BLACK
6
CONTINUOUS
10
0.9339763779527559
20
0.8949606299212598
11
0.9342646456692913
21
0.8956566141732283
0
LINE
8
BLACK
6
CONTINUOUS
10
0.9342646456692913
20
0.8956566141732283
11
0.9349606299212598
21
0.8959448818897637
0
LINE
8
BLACK
6
CONTINUOUS
10
0.9349606299212598
20
0.8959448818897637
11
1.0121259842519685
21
0.8959448818897637
0
LINE
8
BLACK
6
CONTINUOUS
10
0.9359448818897638
20
0.8939763779527559
11
0.9359448818897638
21
0.7620866141732283
0
LINE
8
BLACK
6
CONTINUOUS
10
0.9359448818897638
20
0.7620866141732283
11
1.0111417322834646
21
0.7620866141732283
0
LINE
8
BLACK
6
CONTINUOUS
10
1.0111417322834646
20
0.7620866141732283
11
1.0111417322834646
21
0.8939763779527559
0
LINE
8
BLACK
6
CONTINUOUS
10
1.0111417322834646
20
0.8939763779527559
11
0.9359448818897638
21
0.8939763779527559
0
LINE
8
BLACK
6
CONTINUOUS
10
1.0921259842519684
20
0.8959448818897637
11
1.0928219685039371
21
0.8956566141732283
0
LINE
8
BLACK
6
CONTINUOUS
10
1.0928219685039371
20
0.8956566141732283
11
1.0931102362204723
21
0.8949606299212598
0
LINE
8
BLACK
6
CONTINUOUS
10
1.0931102362204723
20
0.8949606299212598
11
1.0931102362204723
21
0.7611023622047244
0
LINE
8
BLACK
6
CONTINUOUS
10
1.0931102362204723
20
0.7611023622047244
11
1.0928219685039371
21
0.7604063779527559
0
LINE
8
BLACK
6
CONTINUOUS
10
1.0928219685039371
20
0.7604063779527559
11
1.0921259842519684
21
0.7601181102362204
0
LINE
8
BLACK
6
CONTINUOUS
10
1.0921259842519684
20
0.7601181102362204
11
1.0149606299212599
21
0.7601181102362204
0
LINE
8
BLACK
6
CONTINUOUS
10
1.0149606299212599
20
0.7601181102362204
11
1.0142646456692914
21
0.7604063779527559
0
LINE
8
BLACK
6
CONTINUOUS
10
1.0142646456692914
20
0.7604063779527559
11
1.013976377952756
21
0.7611023622047244
0
LINE
8
BLACK
6
CONTINUOUS
10
1.013976377952756
20
0.7611023622047244
11
1.013976377952756
21
0.8949606299212598
0
LINE
8
BLACK
6
CONTINUOUS
10
1.013976377952756
20
0.8949606299212598
11
1.0142646456692914
21
0.8956566141732283
0
LINE
8
BLACK
6
CONTINUOUS
10
1.0142646456692914
20
0.8956566141732283
11
1.0149606299212599
21
0.8959448818897637
0
LINE
8
BLACK
6
CONTINUOUS
10
1.0149606299212599
20
0.8959448818897637
11
1.0921259842519684
21
0.8959448818897637
0
LINE
8
BLACK
6
CONTINUOUS
10
1.0159448818897638
20
0.8939763779527559
11
1.0159448818897638
21
0.7620866141732283
0
LINE
8
BLACK
6
CONTINUOUS
10
1.0159448818897638
20
0.7620866141732283
11
1.0911417322834644
21
0.7620866141732283
0
LINE
8
BLACK
6
CONTINUOUS
10
1.0911417322834644
20
0.7620866141732283
11
1.0911417322834644
21
0.8939763779527559
0
LINE
8
BLACK
6
CONTINUOUS
10
1.0911417322834644
20
0.8939763779527559
11
1.0159448818897638
21
0.8939763779527559
0
LINE
8
BLACK
6
CONTINUOUS
10
1.1721259842519685
20
0.8959448818897637
11
1.1728219685039369
21
0.8956566141732283
0
LINE
8
BLACK
6
CONTINUOUS
10
1.1728219685039369
20
0.8956566141732283
11
1.1731102362204724
21
0.8949606299212598
0
LINE
8
BLACK
6
CONTINUOUS
10
1.1731102362204724
20
0.8949606299212598
11
1.1731102362204724
21
0.7611023622047244
0
LINE
8
BLACK
6
CONTINUOUS
10
1.1731102362204724
20
0.7611023622047244
11
1.1728219685039369
21
0.7604063779527559
0
LINE
8
BLACK
6
CONTINUOUS
10
1.1728219685039369
20
0.7604063779527559
11
1.1721259842519685
21
0.7601181102362204
0
LINE
8
BLACK
6
CONTINUOUS
10
1.1721259842519685
20
0.7601181102362204
11
1.0949606299212598
21
0.7601181102362204
0
LINE
8
BLACK
6
CONTINUOUS
10
1.0949606299212598
20
0.7601181102362204
11
1.0942646456692913
21
0.7604063779527559
0
LINE
8
BLACK
6
CONTINUOUS
10
1.0942646456692913
20
0.7604063779527559
11
1.0939763779527558
21
0.7611023622047244
0
LINE
8
BLACK
6
CONTINUOUS
10
1.0939763779527558
20
0.7611023622047244
11
1.0939763779527558
21
0.8949606299212598
0
LINE
8
BLACK
6
CONTINUOUS
10
1.0939763779527558
20
0.8949606299212598
11
1.0942646456692913
21
0.8956566141732283
0
LINE
8
BLACK
6
CONTINUOUS
10
1.0942646456692913
20
0.8956566141732283
11
1.0949606299212598
21
0.8959448818897637
0
LINE
8
BLACK
6
CONTINUOUS
10
1.0949606299212598
20
0.8959448818897637
11
1.1721259842519685
21
0.8959448818897637
0
LINE
8
BLACK
6
CONTINUOUS
10
1.0959448818897637
20
0.8939763779527559
11
1.0959448818897637
21
0.7620866141732283
0
LINE
8
BLACK
6
CONTINUOUS
10
1.0959448818897637
20
0.7620866141732283
11
1.1711417322834645
21
0.7620866141732283
0
LINE
8
BLACK
6
CONTINUOUS
10
1.1711417322834645
20
0.7620866141732283
11
1.1711417322834645
21
0.8939763779527559
0
LINE
8
BLACK
6
CONTINUOUS
10
1.1711417322834645
20
0.8939763779527559
11
1.0959448818897637
21
0.8939763779527559
0
LINE
8
BLACK
6
CONTINUOUS
10
0.7296850393700787
20
0.8383858267716535
11
0.7303810236220473
21
0.8380975590551181
0
LINE
8
BLACK
6
CONTINUOUS
10
0.7303810236220473
20
0.8380975590551181
11
0.7306692913385827
21
0.8374015748031496
0
LINE
8
BLACK
6
CONTINUOUS
10
0.7306692913385827
20
0.8374015748031496
11
0.7306692913385827
21
0.7625984251968504
0
LINE
8
BLACK
6
CONTINUOUS
10
0.7306692913385827
20
0.7625984251968504
11
0.7303810236220473
21
0.7619024409448819
0
LINE
8
BLACK
6
CONTINUOUS
10
0.7303810236220473
20
0.7619024409448819
11
0.7296850393700787
21
0.7616141732283465
0
LINE
8
BLACK
6
CONTINUOUS
10
0.7296850393700787
20
0.7616141732283465
11
0.5974015748031496
21
0.7616141732283465
0
LINE
8
BLACK
6
CONTINUOUS
10
0.5974015748031496
20
0.7616141732283465
11
0.5967055905511811
21
0.7619024409448819
0
LINE
8
BLACK
6
CONTINUOUS
10
0.5967055905511811
20
0.7619024409448819
11
0.5964173228346457
21
0.7625984251968504
0
LINE
8
BLACK
6
CONTINUOUS
10
0.5964173228346457
20
0.7625984251968504
11
0.5964173228346457
21
0.8374015748031496
0
LINE
8
BLACK
6
CONTINUOUS
10
0.5964173228346457
20
0.8374015748031496
11
0.5967055905511811
21
0.8380975590551181
0
LINE
8
BLACK
6
CONTINUOUS
10
0.5967055905511811
20
0.8380975590551181
11
0.5974015748031496
21
0.8383858267716535
0
LINE
8
BLACK
6
CONTINUOUS
10
0.5974015748031496
20
0.8383858267716535
11
0.7296850393700787
21
0.8383858267716535
0
LINE
8
BLACK
6
CONTINUOUS
10
0.5983858267716535
20
0.8364173228346456
11
0.5983858267716535
21
0.7635826771653543
0
LINE
8
BLACK
6
CONTINUOUS
10
0.5983858267716535
20
0.7635826771653543
11
0.7287007874015747
21
0.7635826771653543
0
LINE
8
BLACK
6
CONTINUOUS
10
0.7287007874015747
20
0.7635826771653543
11
0.7287007874015747
21
0.8364173228346456
0
LINE
8
BLACK
6
CONTINUOUS
10
0.7287007874015747
20
0.8364173228346456
11
0.5983858267716535
21
0.8364173228346456
0
LINE
8
BLACK
6
CONTINUOUS
10
1.4182498818897638
20
0.8813779527559055
11
1.4189458661417322
21
0.88108968503937
0
LINE
8
BLACK
6
CONTINUOUS
10
1.4189458661417322
20
0.88108968503937
11
1.4192341338582677
21
0.8803937007874015
0
LINE
8
BLACK
6
CONTINUOUS
10
1.4192341338582677
20
0.8803937007874015
11
1.4192341338582677
21
0.8055905511811023
0
LINE
8
BLACK
6
CONTINUOUS
10
1.4192341338582677
20
0.8055905511811023
11
1.4189458661417322
21
0.8048945669291339
0
LINE
8
BLACK
6
CONTINUOUS
10
1.4189458661417322
20
0.8048945669291339
11
1.4182498818897638
21
0.8046062992125984
0
LINE
8
BLACK
6
CONTINUOUS
10
1.4182498818897638
20
0.8046062992125984
11
1.2859664173228347
21
0.8046062992125984
0
LINE
8
BLACK
6
CONTINUOUS
10
1.2859664173228347
20
0.8046062992125984
11
1.2852704330708662
21
0.8048945669291339
0
LINE
8
BLACK
6
CONTINUOUS
10
1.2852704330708662
20
0.8048945669291339
11
1.2849821653543307
21
0.8055905511811023
0
LINE
8
BLACK
6
CONTINUOUS
10
1.2849821653543307
20
0.8055905511811023
11
1.2849821653543307
21
0.8803937007874015
0
LINE
8
BLACK
6
CONTINUOUS
10
1.2849821653543307
20
0.8803937007874015
11
1.2852704330708662
21
0.88108968503937
0
LINE
8
BLACK
6
CONTINUOUS
10
1.2852704330708662
20
0.88108968503937
11
1.2859664173228347
21
0.8813779527559055
0
LINE
8
BLACK
6
CONTINUOUS
10
1.2859664173228347
20
0.8813779527559055
11
1.4182498818897638
21
0.8813779527559055
0
LINE
8
BLACK
6
CONTINUOUS
10
1.2869506692913386
20
0.8794094488188976
11
1.2869506692913386
21
0.8065748031496063
0
LINE
8
BLACK
6
CONTINUOUS
10
1.2869506692913386
20
0.8065748031496063
11
1.4172656299212598
21
0.8065748031496063
0
LINE
8
BLACK
6
CONTINUOUS
10
1.4172656299212598
20
0.8065748031496063
11
1.4172656299212598
21
0.8794094488188976
0
LINE
8
BLACK
6
CONTINUOUS
10
1.4172656299212598
20
0.8794094488188976
11
1.2869506692913386
21
0.8794094488188976
0
LINE
8
BLACK
6
CONTINUOUS
10
0.7296850393700787
20
0.9383858267716535
11
0.7303810236220473
21
0.938097559055118
0
LINE
8
BLACK
6
CONTINUOUS
10
0.7303810236220473
20
0.938097559055118
11
0.7306692913385827
21
0.9374015748031496
0
LINE
8
BLACK
6
CONTINUOUS
10
0.7306692913385827
20
0.9374015748031496
11
0.7306692913385827
21
0.8625984251968504
0
LINE
8
BLACK
6
CONTINUOUS
10
0.7306692913385827
20
0.8625984251968504
11
0.7303810236220473
21
0.8619024409448819
0
LINE
8
BLACK
6
CONTINUOUS
10
0.7303810236220473
20
0.8619024409448819
11
0.7296850393700787
21
0.8616141732283464
0
LINE
8
BLACK
6
CONTINUOUS
10
0.7296850393700787
20
0.8616141732283464
11
0.5974015748031496
21
0.8616141732283464
0
LINE
8
BLACK
6
CONTINUOUS
10
0.5974015748031496
20
0.8616141732283464
11
0.5967055905511811
21
0.8619024409448819
0
LINE
8
BLACK
6
CONTINUOUS
10
0.5967055905511811
20
0.8619024409448819
11
0.5964173228346457
21
0.8625984251968504
0
LINE
8
BLACK
6
CONTINUOUS
10
0.5964173228346457
20
0.8625984251968504
11
0.5964173228346457
21
0.9374015748031496
0
LINE
8
BLACK
6
CONTINUOUS
10
0.5964173228346457
20
0.9374015748031496
11
0.5967055905511811
21
0.938097559055118
0
LINE
8
BLACK
6
CONTINUOUS
10
0.5967055905511811
20
0.938097559055118
11
0.5974015748031496
21
0.9383858267716535
0
LINE
8
BLACK
6
CONTINUOUS
10
0.5974015748031496
20
0.9383858267716535
11
0.7296850393700787
21
0.9383858267716535
0
LINE
8
BLACK
6
CONTINUOUS
10
0.5983858267716535
20
0.9364173228346456
11
0.5983858267716535
21
0.8635826771653543
0
LINE
8
BLACK
6
CONTINUOUS
10
0.5983858267716535
20
0.8635826771653543
11
0.7287007874015747
21
0.8635826771653543
0
LINE
8
BLACK
6
CONTINUOUS
10
0.7287007874015747
20
0.8635826771653543
11
0.7287007874015747
21
0.9364173228346456
0
LINE
8
BLACK
6
CONTINUOUS
10
0.7287007874015747
20
0.9364173228346456
11
0.5983858267716535
21
0.9364173228346456
0
LINE
8
BLACK
6
CONTINUOUS
10
1.3931908267716535
20
1.0518862598425196
11
1.393886811023622
21
1.0515979921259841
0
LINE
8
BLACK
6
CONTINUOUS
10
1.393886811023622
20
1.0515979921259841
11
1.3941750787401574
21
1.0509020078740157
0
LINE
8
BLACK
6
CONTINUOUS
10
1.3941750787401574
20
1.0509020078740157
11
1.3941750787401574
21
0.9170437401574802
0
LINE
8
BLACK
6
CONTINUOUS
10
1.3941750787401574
20
0.9170437401574802
11
1.393886811023622
21
0.9163477559055118
0
LINE
8
BLACK
6
CONTINUOUS
10
1.393886811023622
20
0.9163477559055118
11
1.3931908267716535
21
0.9160594881889763
0
LINE
8
BLACK
6
CONTINUOUS
10
1.3931908267716535
20
0.9160594881889763
11
1.3160254724409448
21
0.9160594881889763
0
LINE
8
BLACK
6
CONTINUOUS
10
1.3160254724409448
20
0.9160594881889763
11
1.3153294881889763
21
0.9163477559055118
0
LINE
8
BLACK
6
CONTINUOUS
10
1.3153294881889763
20
0.9163477559055118
11
1.3150412204724409
21
0.9170437401574802
0
LINE
8
BLACK
6
CONTINUOUS
10
1.3150412204724409
20
0.9170437401574802
11
1.3150412204724409
21
1.0509020078740157
0
LINE
8
BLACK
6
CONTINUOUS
10
1.3150412204724409
20
1.0509020078740157
11
1.3153294881889763
21
1.0515979921259841
0
LINE
8
BLACK
6
CONTINUOUS
10
1.3153294881889763
20
1.0515979921259841
11
1.3160254724409448
21
1.0518862598425196
0
LINE
8
BLACK
6
CONTINUOUS
10
1.3160254724409448
20
1.0518862598425196
11
1.3931908267716535
21
1.0518862598425196
0
LINE
8
BLACK
6
CONTINUOUS
10
1.3170097244094487
20
1.0499177559055117
11
1.3170097244094487
21
0.9180279921259842
0
LINE
8
BLACK
6
CONTINUOUS
10
1.3170097244094487
20
0.9180279921259842
11
1.3922065748031496
21
0.9180279921259842
0
LINE
8
BLACK
6
CONTINUOUS
10
1.3922065748031496
20
0.9180279921259842
11
1.3922065748031496
21
1.0499177559055117
0
LINE
8
BLACK
6
CONTINUOUS
10
1.3922065748031496
20
1.0499177559055117
11
1.3170097244094487
21
1.0499177559055117
0
LINE
8
BLACK
6
CONTINUOUS
10
1.5931908267716535
20
1.0518862598425196
11
1.593886811023622
21
1.0515979921259841
0
LINE
8
BLACK
6
CONTINUOUS
10
1.593886811023622
20
1.0515979921259841
11
1.5941750787401574
21
1.0509020078740157
0
LINE
8
BLACK
6
CONTINUOUS
10
1.5941750787401574
20
1.0509020078740157
11
1.5941750787401574
21
0.9170437401574802
0
LINE
8
BLACK
6
CONTINUOUS
10
1.5941750787401574
20
0.9170437401574802
11
1.593886811023622
21
0.9163477559055118
0
LINE
8
BLACK
6
CONTINUOUS
10
1.593886811023622
20
0.9163477559055118
11
1.5931908267716535
21
0.9160594881889763
0
LINE
8
BLACK
6
CONTINUOUS
10
1.5931908267716535
20
0.9160594881889763
11
1.5160254724409448
21
0.9160594881889763
0
LINE
8
BLACK
6
CONTINUOUS
10
1.5160254724409448
20
0.9160594881889763
11
1.5153294881889763
21
0.9163477559055118
0
LINE
8
BLACK
6
CONTINUOUS
10
1.5153294881889763
20
0.9163477559055118
11
1.5150412204724408
21
0.9170437401574802
0
LINE
8
BLACK
6
CONTINUOUS
10
1.5150412204724408
20
0.9170437401574802
11
1.5150412204724408
21
1.0509020078740157
0
LINE
8
BLACK
6
CONTINUOUS
10
1.5150412204724408
20
1.0509020078740157
11
1.5153294881889763
21
1.0515979921259841
0
LINE
8
BLACK
6
CONTINUOUS
10
1.5153294881889763
20
1.0515979921259841
11
1.5160254724409448
21
1.0518862598425196
0
LINE
8
BLACK
6
CONTINUOUS
10
1.5160254724409448
20
1.0518862598425196
11
1.5931908267716535
21
1.0518862598425196
0
LINE
8
BLACK
6
CONTINUOUS
10
1.5170097244094487
20
1.0499177559055117
11
1.5170097244094487
21
0.9180279921259842
0
LINE
8
BLACK
6
CONTINUOUS
10
1.5170097244094487
20
0.9180279921259842
11
1.5922065748031495
21
0.9180279921259842
0
LINE
8
BLACK
6
CONTINUOUS
10
1.5922065748031495
20
0.9180279921259842
11
1.5922065748031495
21
1.0499177559055117
0
LINE
8
BLACK
6
CONTINUOUS
10
1.5922065748031495
20
1.0499177559055117
11
1.5170097244094487
21
1.0499177559055117
0
LINE
8
BLACK
6
CONTINUOUS
10
1.7431908267716536
20
1.0518862598425196
11
1.7438868110236221
21
1.0515979921259841
0
LINE
8
BLACK
6
CONTINUOUS
10
1.7438868110236221
20
1.0515979921259841
11
1.7441750787401575
21
1.0509020078740157
0
LINE
8
BLACK
6
CONTINUOUS
10
1.7441750787401575
20
1.0509020078740157
11
1.7441750787401575
21
0.9170437401574802
0
LINE
8
BLACK
6
CONTINUOUS
10
1.7441750787401575
20
0.9170437401574802
11
1.7438868110236221
21
0.9163477559055118
0
LINE
8
BLACK
6
CONTINUOUS
10
1.7438868110236221
20
0.9163477559055118
11
1.7431908267716536
21
0.9160594881889763
0
LINE
8
BLACK
6
CONTINUOUS
10
1.7431908267716536
20
0.9160594881889763
11
1.6660254724409449
21
0.9160594881889763
0
LINE
8
BLACK
6
CONTINUOUS
10
1.6660254724409449
20
0.9160594881889763
11
1.6653294881889764
21
0.9163477559055118
0
LINE
8
BLACK
6
CONTINUOUS
10
1.6653294881889764
20
0.9163477559055118
11
1.665041220472441
21
0.9170437401574802
0
LINE
8
BLACK
6
CONTINUOUS
10
1.665041220472441
20
0.9170437401574802
11
1.665041220472441
21
1.0509020078740157
0
LINE
8
BLACK
6
CONTINUOUS
10
1.665041220472441
20
1.0509020078740157
11
1.6653294881889764
21
1.0515979921259841
0
LINE
8
BLACK
6
CONTINUOUS
10
1.6653294881889764
20
1.0515979921259841
11
1.6660254724409449
21
1.0518862598425196
0
LINE
8
BLACK
6
CONTINUOUS
10
1.6660254724409449
20
1.0518862598425196
11
1.7431908267716536
21
1.0518862598425196
0
LINE
8
BLACK
6
CONTINUOUS
10
1.6670097244094488
20
1.0499177559055117
11
1.6670097244094488
21
0.9180279921259842
0
LINE
8
BLACK
6
CONTINUOUS
10
1.6670097244094488
20
0.9180279921259842
11
1.7422065748031497
21
0.9180279921259842
0
LINE
8
BLACK
6
CONTINUOUS
10
1.7422065748031497
20
0.9180279921259842
11
1.7422065748031497
21
1.0499177559055117
0
LINE
8
BLACK
6
CONTINUOUS
10
1.7422065748031497
20
1.0499177559055117
11
1.6670097244094488
21
1.0499177559055117
0
LINE
8
BLACK
6
CONTINUOUS
10
0.9769703543307087
20
1.1313779527559056
11
0.9776663385826772
21
1.1310896850393701
0
LINE
8
BLACK
6
CONTINUOUS
10
0.9776663385826772
20
1.1310896850393701
11
0.9779546062992126
21
1.1303937007874016
0
LINE
8
BLACK
6
CONTINUOUS
10
0.9779546062992126
20
1.1303937007874016
11
0.9779546062992126
21
0.9256692913385827
0
LINE
8
BLACK
6
CONTINUOUS
10
0.9779546062992126
20
0.9256692913385827
11
0.9776663385826772
21
0.9249733070866142
0
LINE
8
BLACK
6
CONTINUOUS
10
0.9776663385826772
20
0.9249733070866142
11
0.9769703543307087
21
0.9246850393700787
0
LINE
8
BLACK
6
CONTINUOUS
10
0.9769703543307087
20
0.9246850393700787
11
0.7722459448818898
21
0.9246850393700787
0
LINE
8
BLACK
6
CONTINUOUS
10
0.7722459448818898
20
0.9246850393700787
11
0.7715499606299212
21
0.9249733070866142
0
LINE
8
BLACK
6
CONTINUOUS
10
0.7715499606299212
20
0.9249733070866142
11
0.7712616929133858
21
0.9256692913385827
0
LINE
8
BLACK
6
CONTINUOUS
10
0.7712616929133858
20
0.9256692913385827
11
0.7712616929133858
21
1.1303937007874016
0
LINE
8
BLACK
6
CONTINUOUS
10
0.7712616929133858
20
1.1303937007874016
11
0.7715499606299212
21
1.1310896850393701
0
LINE
8
BLACK
6
CONTINUOUS
10
0.7715499606299212
20
1.1310896850393701
11
0.7722459448818898
21
1.1313779527559056
0
LINE
8
BLACK
6
CONTINUOUS
10
0.7722459448818898
20
1.1313779527559056
11
0.9769703543307087
21
1.1313779527559056
0
LINE
8
BLACK
6
CONTINUOUS
10
0.7732301968503937
20
1.1294094488188977
11
0.7732301968503937
21
0.9266535433070866
0
LINE
8
BLACK
6
CONTINUOUS
10
0.7732301968503937
20
0.9266535433070866
11
0.9759861023622047
21
0.9266535433070866
0
LINE
8
BLACK
6
CONTINUOUS
10
0.9759861023622047
20
0.9266535433070866
11
0.9759861023622047
21
1.1294094488188977
0
LINE
8
BLACK
6
CONTINUOUS
10
0.9759861023622047
20
1.1294094488188977
11
0.7732301968503937
21
1.1294094488188977
0
LINE
8
BLACK
6
CONTINUOUS
10
1.3080727165354331
20
1.0698547637795275
11
1.3087687007874016
21
1.069566496062992
0
LINE
8
BLACK
6
CONTINUOUS
10
1.3087687007874016
20
1.069566496062992
11
1.309056968503937
21
1.0688705118110235
0
LINE
8
BLACK
6
CONTINUOUS
10
1.309056968503937
20
1.0688705118110235
11
1.309056968503937
21
0.9310752362204724
0
LINE
8
BLACK
6
CONTINUOUS
10
1.309056968503937
20
0.9310752362204724
11
1.3087687007874016
21
0.9303792519685039
0
LINE
8
BLACK
6
CONTINUOUS
10
1.3087687007874016
20
0.9303792519685039
11
1.3080727165354331
21
0.9300909842519685
0
LINE
8
BLACK
6
CONTINUOUS
10
1.3080727165354331
20
0.9300909842519685
11
1.2411435826771653
21
0.9300909842519685
0
LINE
8
BLACK
6
CONTINUOUS
10
1.2411435826771653
20
0.9300909842519685
11
1.2404475984251968
21
0.9303792519685039
0
LINE
8
BLACK
6
CONTINUOUS
10
1.2404475984251968
20
0.9303792519685039
11
1.2401593307086614
21
0.9310752362204724
0
LINE
8
BLACK
6
CONTINUOUS
10
1.2401593307086614
20
0.9310752362204724
11
1.2401593307086614
21
1.0688705118110235
0
LINE
8
BLACK
6
CONTINUOUS
10
1.2401593307086614
20
1.0688705118110235
11
1.2404475984251968
21
1.069566496062992
0
LINE
8
BLACK
6
CONTINUOUS
10
1.2404475984251968
20
1.069566496062992
11
1.2411435826771653
21
1.0698547637795275
0
LINE
8
BLACK
6
CONTINUOUS
10
1.2411435826771653
20
1.0698547637795275
11
1.3080727165354331
21
1.0698547637795275
0
LINE
8
BLACK
6
CONTINUOUS
10
1.2421278346456692
20
1.0678862598425196
11
1.2421278346456692
21
0.9320594881889763
0
LINE
8
BLACK
6
CONTINUOUS
10
1.2421278346456692
20
0.9320594881889763
11
1.3070884645669292
21
0.9320594881889763
0
LINE
8
BLACK
6
CONTINUOUS
10
1.3070884645669292
20
0.9320594881889763
11
1.3070884645669292
21
1.0678862598425196
0
LINE
8
BLACK
6
CONTINUOUS
10
1.3070884645669292
20
1.0678862598425196
11
1.2421278346456692
21
1.0678862598425196
0
LINE
8
BLACK
6
CONTINUOUS
10
0.7161417322834646
20
1.0383858267716535
11
0.716837716535433
21
1.038097559055118
0
LINE
8
BLACK
6
CONTINUOUS
10
0.716837716535433
20
1.038097559055118
11
0.7171259842519685
21
1.0374015748031495
0
LINE
8
BLACK
6
CONTINUOUS
10
0.7171259842519685
20
1.0374015748031495
11
0.7171259842519685
21
0.9625984251968503
0
LINE
8
BLACK
6
CONTINUOUS
10
0.7171259842519685
20
0.9625984251968503
11
0.716837716535433
21
0.9619024409448819
0
LINE
8
BLACK
6
CONTINUOUS
10
0.716837716535433
20
0.9619024409448819
11
0.7161417322834646
21
0.9616141732283464
0
LINE
8
BLACK
6
CONTINUOUS
10
0.7161417322834646
20
0.9616141732283464
11
0.5838582677165354
21
0.9616141732283464
0
LINE
8
BLACK
6
CONTINUOUS
10
0.5838582677165354
20
0.9616141732283464
11
0.5831622834645669
21
0.9619024409448819
0
LINE
8
BLACK
6
CONTINUOUS
10
0.5831622834645669
20
0.9619024409448819
11
0.5828740157480314
21
0.9625984251968503
0
LINE
8
BLACK
6
CONTINUOUS
10
0.5828740157480314
20
0.9625984251968503
11
0.5828740157480314
21
1.0374015748031495
0
LINE
8
BLACK
6
CONTINUOUS
10
0.5828740157480314
20
1.0374015748031495
11
0.5831622834645669
21
1.038097559055118
0
LINE
8
BLACK
6
CONTINUOUS
10
0.5831622834645669
20
1.038097559055118
11
0.5838582677165354
21
1.0383858267716535
0
LINE
8
BLACK
6
CONTINUOUS
10
0.5838582677165354
20
1.0383858267716535
11
0.7161417322834646
21
1.0383858267716535
0
LINE
8
BLACK
6
CONTINUOUS
10
0.5848425196850393
20
1.0364173228346456
11
0.5848425196850393
21
0.9635826771653543
0
LINE
8
BLACK
6
CONTINUOUS
10
0.5848425196850393
20
0.9635826771653543
11
0.7151574803149606
21
0.9635826771653543
0
LINE
8
BLACK
6
CONTINUOUS
10
0.7151574803149606
20
0.9635826771653543
11
0.7151574803149606
21
1.0364173228346456
0
LINE
8
BLACK
6
CONTINUOUS
10
0.7151574803149606
20
1.0364173228346456
11
0.5848425196850393
21
1.0364173228346456
0
LINE
8
BLACK
6
CONTINUOUS
10
1.2131908267716536
20
1.1428862598425196
11
1.2138868110236221
21
1.1425979921259841
0
LINE
8
BLACK
6
CONTINUOUS
10
1.2138868110236221
20
1.1425979921259841
11
1.2141750787401575
21
1.1419020078740156
0
LINE
8
BLACK
6
CONTINUOUS
10
1.2141750787401575
20
1.1419020078740156
11
1.2141750787401575
21
1.0080437401574802
0
LINE
8
BLACK
6
CONTINUOUS
10
1.2141750787401575
20
1.0080437401574802
11
1.2138868110236221
21
1.0073477559055117
0
LINE
8
BLACK
6
CONTINUOUS
10
1.2138868110236221
20
1.0073477559055117
11
1.2131908267716536
21
1.0070594881889763
0
LINE
8
BLACK
6
CONTINUOUS
10
1.2131908267716536
20
1.0070594881889763
11
1.1360254724409449
21
1.0070594881889763
0
LINE
8
BLACK
6
CONTINUOUS
10
1.1360254724409449
20
1.0070594881889763
11
1.1353294881889764
21
1.0073477559055117
0
LINE
8
BLACK
6
CONTINUOUS
10
1.1353294881889764
20
1.0073477559055117
11
1.1350412204724409
21
1.0080437401574802
0
LINE
8
BLACK
6
CONTINUOUS
10
1.1350412204724409
20
1.0080437401574802
11
1.1350412204724409
21
1.1419020078740156
0
LINE
8
BLACK
6
CONTINUOUS
10
1.1350412204724409
20
1.1419020078740156
11
1.1353294881889764
21
1.1425979921259841
0
LINE
8
BLACK
6
CONTINUOUS
10
1.1353294881889764
20
1.1425979921259841
11
1.1360254724409449
21
1.1428862598425196
0
LINE
8
BLACK
6
CONTINUOUS
10
1.1360254724409449
20
1.1428862598425196
11
1.2131908267716536
21
1.1428862598425196
0
LINE
8
BLACK
6
CONTINUOUS
10
1.1370097244094488
20
1.1409177559055117
11
1.1370097244094488
21
1.0090279921259842
0
LINE
8
BLACK
6
CONTINUOUS
10
1.1370097244094488
20
1.0090279921259842
11
1.2122065748031496
21
1.0090279921259842
0
LINE
8
BLACK
6
CONTINUOUS
10
1.2122065748031496
20
1.0090279921259842
11
1.2122065748031496
21
1.1409177559055117
0
LINE
8
BLACK
6
CONTINUOUS
10
1.2122065748031496
20
1.1409177559055117
11
1.1370097244094488
21
1.1409177559055117
0
LINE
8
BLACK
6
CONTINUOUS
10
1.8157498818897637
20
1.1483587007874017
11
1.8164458661417322
21
1.1480704330708662
0
LINE
8
BLACK
6
CONTINUOUS
10
1.8164458661417322
20
1.1480704330708662
11
1.8167341338582677
21
1.1473744488188977
0
LINE
8
BLACK
6
CONTINUOUS
10
1.8167341338582677
20
1.1473744488188977
11
1.8167341338582677
21
1.0725712992125984
0
LINE
8
BLACK
6
CONTINUOUS
10
1.8167341338582677
20
1.0725712992125984
11
1.8164458661417322
21
1.0718753149606299
0
LINE
8
BLACK
6
CONTINUOUS
10
1.8164458661417322
20
1.0718753149606299
11
1.8157498818897637
21
1.0715870472440945
0
LINE
8
BLACK
6
CONTINUOUS
10
1.8157498818897637
20
1.0715870472440945
11
1.6834664173228346
21
1.0715870472440945
0
LINE
8
BLACK
6
CONTINUOUS
10
1.6834664173228346
20
1.0715870472440945
11
1.6827704330708662
21
1.0718753149606299
0
LINE
8
BLACK
6
CONTINUOUS
10
1.6827704330708662
20
1.0718753149606299
11
1.6824821653543307
21
1.0725712992125984
0
LINE
8
BLACK
6
CONTINUOUS
10
1.6824821653543307
20
1.0725712992125984
11
1.6824821653543307
21
1.1473744488188977
0
LINE
8
BLACK
6
CONTINUOUS
10
1.6824821653543307
20
1.1473744488188977
11
1.6827704330708662
21
1.1480704330708662
0
LINE
8
BLACK
6
CONTINUOUS
10
1.6827704330708662
20
1.1480704330708662
11
1.6834664173228346
21
1.1483587007874017
0
LINE
8
BLACK
6
CONTINUOUS
10
1.6834664173228346
20
1.1483587007874017
11
1.8157498818897637
21
1.1483587007874017
0
LINE
8
BLACK
6
CONTINUOUS
10
1.6844506692913386
20
1.1463901968503938
11
1.6844506692913386
21
1.0735555511811024
0
LINE
8
BLACK
6
CONTINUOUS
10
1.6844506692913386
20
1.0735555511811024
11
1.8147656299212598
21
1.0735555511811024
0
LINE
8
BLACK
6
CONTINUOUS
10
1.8147656299212598
20
1.0735555511811024
11
1.8147656299212598
21
1.1463901968503938
0
LINE
8
BLACK
6
CONTINUOUS
10
1.8147656299212598
20
1.1463901968503938
11
1.6844506692913386
21
1.1463901968503938
0
LINE
8
BLACK
6
CONTINUOUS
10
1.3735057874015748
20
1.1434216929133858
11
1.3742017716535433
21
1.1431334251968504
0
LINE
8
BLACK
6
CONTINUOUS
10
1.3742017716535433
20
1.1431334251968504
11
1.3744900393700787
21
1.1424374409448819
0
LINE
8
BLACK
6
CONTINUOUS
10
1.3744900393700787
20
1.1424374409448819
11
1.3744900393700787
21
1.075508307086614
0
LINE
8
BLACK
6
CONTINUOUS
10
1.3744900393700787
20
1.075508307086614
11
1.3742017716535433
21
1.0748123228346456
0
LINE
8
BLACK
6
CONTINUOUS
10
1.3742017716535433
20
1.0748123228346456
11
1.3735057874015748
21
1.0745240551181101
0
LINE
8
BLACK
6
CONTINUOUS
10
1.3735057874015748
20
1.0745240551181101
11
1.2357105118110236
21
1.0745240551181101
0
LINE
8
BLACK
6
CONTINUOUS
10
1.2357105118110236
20
1.0745240551181101
11
1.2350145275590552
21
1.0748123228346456
0
LINE
8
BLACK
6
CONTINUOUS
10
1.2350145275590552
20
1.0748123228346456
11
1.2347262598425197
21
1.075508307086614
0
LINE
8
BLACK
6
CONTINUOUS
10
1.2347262598425197
20
1.075508307086614
11
1.2347262598425197
21
1.1424374409448819
0
LINE
8
BLACK
6
CONTINUOUS
10
1.2347262598425197
20
1.1424374409448819
11
1.2350145275590552
21
1.1431334251968504
0
LINE
8
BLACK
6
CONTINUOUS
10
1.2350145275590552
20
1.1431334251968504
11
1.2357105118110236
21
1.1434216929133858
0
LINE
8
BLACK
6
CONTINUOUS
10
1.2357105118110236
20
1.1434216929133858
11
1.3735057874015748
21
1.1434216929133858
0
LINE
8
BLACK
6
CONTINUOUS
10
1.2366947637795276
20
1.1414531889763779
11
1.2366947637795276
21
1.076492559055118
0
LINE
8
BLACK
6
CONTINUOUS
10
1.2366947637795276
20
1.076492559055118
11
1.3725215354330709
21
1.076492559055118
0
LINE
8
BLACK
6
CONTINUOUS
10
1.3725215354330709
20
1.076492559055118
11
1.3725215354330709
21
1.1414531889763779
0
LINE
8
BLACK
6
CONTINUOUS
10
1.3725215354330709
20
1.1414531889763779
11
1.2366947637795276
21
1.1414531889763779
0
LINE
8
BLACK
6
CONTINUOUS
10
1.5235057874015747
20
1.1434216929133858
11
1.5242017716535432
21
1.1431334251968504
0
LINE
8
BLACK
6
CONTINUOUS
10
1.5242017716535432
20
1.1431334251968504
11
1.5244900393700787
21
1.1424374409448819
0
LINE
8
BLACK
6
CONTINUOUS
10
1.5244900393700787
20
1.1424374409448819
11
1.5244900393700787
21
1.075508307086614
0
LINE
8
BLACK
6
CONTINUOUS
10
1.5244900393700787
20
1.075508307086614
11
1.5242017716535432
21
1.0748123228346456
0
LINE
8
BLACK
6
CONTINUOUS
10
1.5242017716535432
20
1.0748123228346456
11
1.5235057874015747
21
1.0745240551181101
0
LINE
8
BLACK
6
CONTINUOUS
10
1.5235057874015747
20
1.0745240551181101
11
1.3857105118110236
21
1.0745240551181101
0
LINE
8
BLACK
6
CONTINUOUS
10
1.3857105118110236
20
1.0745240551181101
11
1.3850145275590551
21
1.0748123228346456
0
LINE
8
BLACK
6
CONTINUOUS
10
1.3850145275590551
20
1.0748123228346456
11
1.3847262598425196
21
1.075508307086614
0
LINE
8
BLACK
6
CONTINUOUS
10
1.3847262598425196
20
1.075508307086614
11
1.3847262598425196
21
1.1424374409448819
0
LINE
8
BLACK
6
CONTINUOUS
10
1.3847262598425196
20
1.1424374409448819
11
1.3850145275590551
21
1.1431334251968504
0
LINE
8
BLACK
6
CONTINUOUS
10
1.3850145275590551
20
1.1431334251968504
11
1.3857105118110236
21
1.1434216929133858
0
LINE
8
BLACK
6
CONTINUOUS
10
1.3857105118110236
20
1.1434216929133858
11
1.5235057874015747
21
1.1434216929133858
0
LINE
8
BLACK
6
CONTINUOUS
10
1.3866947637795275
20
1.1414531889763779
11
1.3866947637795275
21
1.076492559055118
0
LINE
8
BLACK
6
CONTINUOUS
10
1.3866947637795275
20
1.076492559055118
11
1.5225215354330708
21
1.076492559055118
0
LINE
8
BLACK
6
CONTINUOUS
10
1.5225215354330708
20
1.076492559055118
11
1.5225215354330708
21
1.1414531889763779
0
LINE
8
BLACK
6
CONTINUOUS
10
1.5225215354330708
20
1.1414531889763779
11
1.3866947637795275
21
1.1414531889763779
0
LINE
8
BLACK
6
CONTINUOUS
10
1.6735057874015749
20
1.1434216929133858
11
1.6742017716535433
21
1.1431334251968504
0
LINE
8
BLACK
6
CONTINUOUS
10
1.6742017716535433
20
1.1431334251968504
11
1.6744900393700788
21
1.1424374409448819
0
LINE
8
BLACK
6
CONTINUOUS
10
1.6744900393700788
20
1.1424374409448819
11
1.6744900393700788
21
1.075508307086614
0
LINE
8
BLACK
6
CONTINUOUS
10
1.6744900393700788
20
1.075508307086614
11
1.6742017716535433
21
1.0748123228346456
0
LINE
8
BLACK
6
CONTINUOUS
10
1.6742017716535433
20
1.0748123228346456
11
1.6735057874015749
21
1.0745240551181101
0
LINE
8
BLACK
6
CONTINUOUS
10
1.6735057874015749
20
1.0745240551181101
11
1.5357105118110237
21
1.0745240551181101
0
LINE
8
BLACK
6
CONTINUOUS
10
1.5357105118110237
20
1.0745240551181101
11
1.535014527559055
21
1.0748123228346456
0
LINE
8
BLACK
6
CONTINUOUS
10
1.535014527559055
20
1.0748123228346456
11
1.5347262598425198
21
1.075508307086614
0
LINE
8
BLACK
6
CONTINUOUS
10
1.5347262598425198
20
1.075508307086614
11
1.5347262598425198
21
1.1424374409448819
0
LINE
8
BLACK
6
CONTINUOUS
10
1.5347262598425198
20
1.1424374409448819
11
1.535014527559055
21
1.1431334251968504
0
LINE
8
BLACK
6
CONTINUOUS
10
1.535014527559055
20
1.1431334251968504
11
1.5357105118110237
21
1.1434216929133858
0
LINE
8
BLACK
6
CONTINUOUS
10
1.5357105118110237
20
1.1434216929133858
11
1.6735057874015749
21
1.1434216929133858
0
LINE
8
BLACK
6
CONTINUOUS
10
1.5366947637795276
20
1.1414531889763779
11
1.5366947637795276
21
1.076492559055118
0
LINE
8
BLACK
6
CONTINUOUS
10
1.5366947637795276
20
1.076492559055118
11
1.6725215354330709
21
1.076492559055118
0
LINE
8
BLACK
6
CONTINUOUS
10
1.6725215354330709
20
1.076492559055118
11
1.6725215354330709
21
1.1414531889763779
0
LINE
8
BLACK
6
CONTINUOUS
10
1.6725215354330709
20
1.1414531889763779
11
1.5366947637795276
21
1.1414531889763779
0
LINE
8
BLACK
6
CONTINUOUS
10
0.7046850393700788
20
1.1964173228346457
11
0.7053810236220472
21
1.1961290551181103
0
LINE
8
BLACK
6
CONTINUOUS
10
0.7053810236220472
20
1.1961290551181103
11
0.7056692913385827
21
1.1954330708661418
0
LINE
8
BLACK
6
CONTINUOUS
10
0.7056692913385827
20
1.1954330708661418
11
0.7056692913385827
21
1.1206299212598425
0
LINE
8
BLACK
6
CONTINUOUS
10
0.7056692913385827
20
1.1206299212598425
11
0.7053810236220472
21
1.119933937007874
0
LINE
8
BLACK
6
CONTINUOUS
10
0.7053810236220472
20
1.119933937007874
11
0.7046850393700788
21
1.1196456692913386
0
LINE
8
BLACK
6
CONTINUOUS
10
0.7046850393700788
20
1.1196456692913386
11
0.5724015748031496
21
1.1196456692913386
0
LINE
8
BLACK
6
CONTINUOUS
10
0.5724015748031496
20
1.1196456692913386
11
0.5717055905511811
21
1.119933937007874
0
LINE
8
BLACK
6
CONTINUOUS
10
0.5717055905511811
20
1.119933937007874
11
0.5714173228346456
21
1.1206299212598425
0
LINE
8
BLACK
6
CONTINUOUS
10
0.5714173228346456
20
1.1206299212598425
11
0.5714173228346456
21
1.1954330708661418
0
LINE
8
BLACK
6
CONTINUOUS
10
0.5714173228346456
20
1.1954330708661418
11
0.5717055905511811
21
1.1961290551181103
0
LINE
8
BLACK
6
CONTINUOUS
10
0.5717055905511811
20
1.1961290551181103
11
0.5724015748031496
21
1.1964173228346457
0
LINE
8
BLACK
6
CONTINUOUS
10
0.5724015748031496
20
1.1964173228346457
11
0.7046850393700788
21
1.1964173228346457
0
LINE
8
BLACK
6
CONTINUOUS
10
0.5733858267716535
20
1.1944488188976379
11
0.5733858267716535
21
1.1216141732283464
0
LINE
8
BLACK
6
CONTINUOUS
10
0.5733858267716535
20
1.1216141732283464
11
0.7037007874015748
21
1.1216141732283464
0
LINE
8
BLACK
6
CONTINUOUS
10
0.7037007874015748
20
1.1216141732283464
11
0.7037007874015748
21
1.1944488188976379
0
LINE
8
BLACK
6
CONTINUOUS
10
0.7037007874015748
20
1.1944488188976379
11
0.5733858267716535
21
1.1944488188976379
0
LINE
8
BLACK
6
CONTINUOUS
10
0.1935057874015748
20
1.4137524015748031
11
0.1942017716535433
21
1.4134641338582676
0
LINE
8
BLACK
6
CONTINUOUS
10
0.1942017716535433
20
1.4134641338582676
11
0.1944900393700787
21
1.4127681496062992
0
LINE
8
BLACK
6
CONTINUOUS
10
0.1944900393700787
20
1.4127681496062992
11
0.1944900393700787
21
1.2995398031496064
0
LINE
8
BLACK
6
CONTINUOUS
10
0.1944900393700787
20
1.2995398031496064
11
0.3190372834645669
21
1.2995398031496064
0
LINE
8
BLACK
6
CONTINUOUS
10
0.3190372834645669
20
1.2995398031496064
11
0.3197332677165354
21
1.2992515354330709
0
LINE
8
BLACK
6
CONTINUOUS
10
0.3197332677165354
20
1.2992515354330709
11
0.3200215354330709
21
1.2985555511811024
0
LINE
8
BLACK
6
CONTINUOUS
10
0.3200215354330709
20
1.2985555511811024
11
0.3200215354330709
21
1.2213901968503937
0
LINE
8
BLACK
6
CONTINUOUS
10
0.3200215354330709
20
1.2213901968503937
11
0.3197332677165354
21
1.2206942125984253
0
LINE
8
BLACK
6
CONTINUOUS
10
0.3197332677165354
20
1.2206942125984253
11
0.3190372834645669
21
1.2204059448818898
0
LINE
8
BLACK
6
CONTINUOUS
10
0.3190372834645669
20
1.2204059448818898
11
0.1944900393700787
21
1.2204059448818898
0
LINE
8
BLACK
6
CONTINUOUS
10
0.1944900393700787
20
1.2204059448818898
11
0.1944900393700787
21
1.2195398031496063
0
LINE
8
BLACK
6
CONTINUOUS
10
0.1944900393700787
20
1.2195398031496063
11
0.3190372834645669
21
1.2195398031496063
0
LINE
8
BLACK
6
CONTINUOUS
10
0.3190372834645669
20
1.2195398031496063
11
0.3197332677165354
21
1.2192515354330709
0
LINE
8
BLACK
6
CONTINUOUS
10
0.3197332677165354
20
1.2192515354330709
11
0.3200215354330709
21
1.2185555511811024
0
LINE
8
BLACK
6
CONTINUOUS
10
0.3200215354330709
20
1.2185555511811024
11
0.3200215354330709
21
1.1413901968503937
0
LINE
8
BLACK
6
CONTINUOUS
10
0.3200215354330709
20
1.1413901968503937
11
0.3197332677165354
21
1.1406942125984252
0
LINE
8
BLACK
6
CONTINUOUS
10
0.3197332677165354
20
1.1406942125984252
11
0.3190372834645669
21
1.1404059448818897
0
LINE
8
BLACK
6
CONTINUOUS
10
0.3190372834645669
20
1.1404059448818897
11
0.1944900393700787
21
1.1404059448818897
0
LINE
8
BLACK
6
CONTINUOUS
10
0.1944900393700787
20
1.1404059448818897
11
0.1944900393700787
21
1.1371775984251968
0
LINE
8
BLACK
6
CONTINUOUS
10
0.1944900393700787
20
1.1371775984251968
11
0.1942017716535433
21
1.1364816141732283
0
LINE
8
BLACK
6
CONTINUOUS
10
0.1942017716535433
20
1.1364816141732283
11
0.1935057874015748
21
1.1361933464566929
0
LINE
8
BLACK
6
CONTINUOUS
10
0.1935057874015748
20
1.1361933464566929
11
0.0557105118110236
21
1.1361933464566929
0
LINE
8
BLACK
6
CONTINUOUS
10
0.0557105118110236
20
1.1361933464566929
11
0.0550145275590551
21
1.1364816141732283
0
LINE
8
BLACK
6
CONTINUOUS
10
0.0550145275590551
20
1.1364816141732283
11
0.0547262598425197
21
1.1371775984251968
0
LINE
8
BLACK
6
CONTINUOUS
10
0.0547262598425197
20
1.1371775984251968
11
0.0547262598425197
21
1.4127681496062992
0
LINE
8
BLACK
6
CONTINUOUS
10
0.0547262598425197
20
1.4127681496062992
11
0.0550145275590551
21
1.4134641338582676
0
LINE
8
BLACK
6
CONTINUOUS
10
0.0550145275590551
20
1.4134641338582676
11
0.0557105118110236
21
1.4137524015748031
0
LINE
8
BLACK
6
CONTINUOUS
10
0.0557105118110236
20
1.4137524015748031
11
0.1935057874015748
21
1.4137524015748031
0
LINE
8
BLACK
6
CONTINUOUS
10
0.0566947637795276
20
1.4117838976377952
11
0.0566947637795276
21
1.1381618503937008
0
LINE
8
BLACK
6
CONTINUOUS
10
0.0566947637795276
20
1.1381618503937008
11
0.1925215354330709
21
1.1381618503937008
0
LINE
8
BLACK
6
CONTINUOUS
10
0.1925215354330709
20
1.1381618503937008
11
0.1925215354330709
21
1.1404059448818897
0
LINE
8
BLACK
6
CONTINUOUS
10
0.1925215354330709
20
1.1404059448818897
11
0.1851790157480315
21
1.1404059448818897
0
LINE
8
BLACK
6
CONTINUOUS
10
0.1851790157480315
20
1.1404059448818897
11
0.184483031496063
21
1.1406942125984252
0
LINE
8
BLACK
6
CONTINUOUS
10
0.184483031496063
20
1.1406942125984252
11
0.1841947637795276
21
1.1413901968503937
0
LINE
8
BLACK
6
CONTINUOUS
10
0.1841947637795276
20
1.1413901968503937
11
0.1841947637795276
21
1.2185555511811024
0
LINE
8
BLACK
6
CONTINUOUS
10
0.1841947637795276
20
1.2185555511811024
11
0.184483031496063
21
1.2192515354330709
0
LINE
8
BLACK
6
CONTINUOUS
10
0.184483031496063
20
1.2192515354330709
11
0.1851790157480315
21
1.2195398031496063
0
LINE
8
BLACK
6
CONTINUOUS
10
0.1851790157480315
20
1.2195398031496063
11
0.1925215354330709
21
1.2195398031496063
0
LINE
8
BLACK
6
CONTINUOUS
10
0.1925215354330709
20
1.2195398031496063
11
0.1925215354330709
21
1.2204059448818898
0
LINE
8
BLACK
6
CONTINUOUS
10
0.1925215354330709
20
1.2204059448818898
11
0.1851790157480315
21
1.2204059448818898
0
LINE
8
BLACK
6
CONTINUOUS
10
0.1851790157480315
20
1.2204059448818898
11
0.184483031496063
21
1.2206942125984253
0
LINE
8
BLACK
6
CONTINUOUS
10
0.184483031496063
20
1.2206942125984253
11
0.1841947637795276
21
1.2213901968503937
0
LINE
8
BLACK
6
CONTINUOUS
10
0.1841947637795276
20
1.2213901968503937
11
0.1841947637795276
21
1.2985555511811024
0
LINE
8
BLACK
6
CONTINUOUS
10
0.1841947637795276
20
1.2985555511811024
11
0.184483031496063
21
1.2992515354330709
0
LINE
8
BLACK
6
CONTINUOUS
10
0.184483031496063
20
1.2992515354330709
11
0.1851790157480315
21
1.2995398031496064
0
LINE
8
BLACK
6
CONTINUOUS
10
0.1851790157480315
20
1.2995398031496064
11
0.1925215354330709
21
1.2995398031496064
0
LINE
8
BLACK
6
CONTINUOUS
10
0.1925215354330709
20
1.2995398031496064
11
0.1925215354330709
21
1.4117838976377952
0
LINE
8
BLACK
6
CONTINUOUS
10
0.1925215354330709
20
1.4117838976377952
11
0.0566947637795276
21
1.4117838976377952
0
LINE
8
BLACK
6
CONTINUOUS
10
0.1861632677165354
20
1.2175712992125984
11
0.1861632677165354
21
1.1423744488188976
0
LINE
8
BLACK
6
CONTINUOUS
10
0.1861632677165354
20
1.1423744488188976
11
0.1925215354330709
21
1.1423744488188976
0
LINE
8
BLACK
6
CONTINUOUS
10
0.1925215354330709
20
1.1423744488188976
11
0.1925215354330709
21
1.2175712992125984
0
LINE
8
BLACK
6
CONTINUOUS
10
0.1925215354330709
20
1.2175712992125984
11
0.1861632677165354
21
1.2175712992125984
0
LINE
8
BLACK
6
CONTINUOUS
10
0.1944900393700787
20
1.2175712992125984
11
0.1944900393700787
21
1.1423744488188976
0
LINE
8
BLACK
6
CONTINUOUS
10
0.1944900393700787
20
1.1423744488188976
11
0.318053031496063
21
1.1423744488188976
0
LINE
8
BLACK
6
CONTINUOUS
10
0.318053031496063
20
1.1423744488188976
11
0.318053031496063
21
1.2175712992125984
0
LINE
8
BLACK
6
CONTINUOUS
10
0.318053031496063
20
1.2175712992125984
11
0.1944900393700787
21
1.2175712992125984
0
LINE
8
BLACK
6
CONTINUOUS
10
0.1861632677165354
20
1.2975712992125985
11
0.1861632677165354
21
1.2223744488188977
0
LINE
8
BLACK
6
CONTINUOUS
10
0.1861632677165354
20
1.2223744488188977
11
0.1925215354330709
21
1.2223744488188977
0
LINE
8
BLACK
6
CONTINUOUS
10
0.1925215354330709
20
1.2223744488188977
11
0.1925215354330709
21
1.2975712992125985
0
LINE
8
BLACK
6
CONTINUOUS
10
0.1925215354330709
20
1.2975712992125985
11
0.1861632677165354
21
1.2975712992125985
0
LINE
8
BLACK
6
CONTINUOUS
10
0.1944900393700787
20
1.2975712992125985
11
0.1944900393700787
21
1.2223744488188977
0
LINE
8
BLACK
6
CONTINUOUS
10
0.1944900393700787
20
1.2223744488188977
11
0.318053031496063
21
1.2223744488188977
0
LINE
8
BLACK
6
CONTINUOUS
10
0.318053031496063
20
1.2223744488188977
11
0.318053031496063
21
1.2975712992125985
0
LINE
8
BLACK
6
CONTINUOUS
10
0.318053031496063
20
1.2975712992125985
11
0.1944900393700787
21
1.2975712992125985
0
LINE
8
BLACK
6
CONTINUOUS
10
0.9785275590551181
20
1.3486929133858268
11
0.9792235433070866
21
1.3484046456692913
0
LINE
8
BLACK
6
CONTINUOUS
10
0.9792235433070866
20
1.3484046456692913
11
0.9795118110236221
21
1.3477086614173228
0
LINE
8
BLACK
6
CONTINUOUS
10
0.9795118110236221
20
1.3477086614173228
11
0.9795118110236221
21
1.1823543307086615
0
LINE
8
BLACK
6
CONTINUOUS
10
0.9795118110236221
20
1.1823543307086615
11
0.9792235433070866
21
1.181658346456693
0
LINE
8
BLACK
6
CONTINUOUS
10
0.9792235433070866
20
1.181658346456693
11
0.9785275590551181
21
1.1813700787401575
0
LINE
8
BLACK
6
CONTINUOUS
10
0.9785275590551181
20
1.1813700787401575
11
0.7265590551181103
21
1.1813700787401575
0
LINE
8
BLACK
6
CONTINUOUS
10
0.7265590551181103
20
1.1813700787401575
11
0.7258630708661418
21
1.181658346456693
0
LINE
8
BLACK
6
CONTINUOUS
10
0.7258630708661418
20
1.181658346456693
11
0.7255748031496063
21
1.1823543307086615
0
LINE
8
BLACK
6
CONTINUOUS
10
0.7255748031496063
20
1.1823543307086615
11
0.7255748031496063
21
1.3477086614173228
0
LINE
8
BLACK
6
CONTINUOUS
10
0.7255748031496063
20
1.3477086614173228
11
0.7258630708661418
21
1.3484046456692913
0
LINE
8
BLACK
6
CONTINUOUS
10
0.7258630708661418
20
1.3484046456692913
11
0.7265590551181103
21
1.3486929133858268
0
LINE
8
BLACK
6
CONTINUOUS
10
0.7265590551181103
20
1.3486929133858268
11
0.9785275590551181
21
1.3486929133858268
0
LINE
8
BLACK
6
CONTINUOUS
10
0.7275433070866142
20
1.3467244094488189
11
0.7275433070866142
21
1.1833385826771654
0
LINE
8
BLACK
6
CONTINUOUS
10
0.7275433070866142
20
1.1833385826771654
11
0.9775433070866142
21
1.1833385826771654
0
LINE
8
BLACK
6
CONTINUOUS
10
0.9775433070866142
20
1.1833385826771654
11
0.9775433070866142
21
1.3467244094488189
0
LINE
8
BLACK
6
CONTINUOUS
10
0.9775433070866142
20
1.3467244094488189
11
0.7275433070866142
21
1.3467244094488189
0
LINE
8
BLACK
6
CONTINUOUS
10
1.3415372834645669
20
1.2895398031496064
11
1.3422332677165354
21
1.2892515354330709
0
LINE
8
BLACK
6
CONTINUOUS
10
1.3422332677165354
20
1.2892515354330709
11
1.3425215354330708
21
1.2885555511811024
0
LINE
8
BLACK
6
CONTINUOUS
10
1.3425215354330708
20
1.2885555511811024
11
1.3425215354330708
21
1.2113901968503937
0
LINE
8
BLACK
6
CONTINUOUS
10
1.3425215354330708
20
1.2113901968503937
11
1.3422332677165354
21
1.2106942125984252
0
LINE
8
BLACK
6
CONTINUOUS
10
1.3422332677165354
20
1.2106942125984252
11
1.3415372834645669
21
1.2104059448818898
0
LINE
8
BLACK
6
CONTINUOUS
10
1.3415372834645669
20
1.2104059448818898
11
1.2076790157480315
21
1.2104059448818898
0
LINE
8
BLACK
6
CONTINUOUS
10
1.2076790157480315
20
1.2104059448818898
11
1.206983031496063
21
1.2106942125984252
0
LINE
8
BLACK
6
CONTINUOUS
10
1.206983031496063
20
1.2106942125984252
11
1.2066947637795276
21
1.2113901968503937
0
LINE
8
BLACK
6
CONTINUOUS
10
1.2066947637795276
20
1.2113901968503937
11
1.2066947637795276
21
1.2885555511811024
0
LINE
8
BLACK
6
CONTINUOUS
10
1.2066947637795276
20
1.2885555511811024
11
1.206983031496063
21
1.2892515354330709
0
LINE
8
BLACK
6
CONTINUOUS
10
1.206983031496063
20
1.2892515354330709
11
1.2076790157480315
21
1.2895398031496064
0
LINE
8
BLACK
6
CONTINUOUS
10
1.2076790157480315
20
1.2895398031496064
11
1.3415372834645669
21
1.2895398031496064
0
LINE
8
BLACK
6
CONTINUOUS
10
1.2086632677165354
20
1.2875712992125985
11
1.2086632677165354
21
1.2123744488188977
0
LINE
8
BLACK
6
CONTINUOUS
10
1.2086632677165354
20
1.2123744488188977
11
1.340553031496063
21
1.2123744488188977
0
LINE
8
BLACK
6
CONTINUOUS
10
1.340553031496063
20
1.2123744488188977
11
1.340553031496063
21
1.2875712992125985
0
LINE
8
BLACK
6
CONTINUOUS
10
1.340553031496063
20
1.2875712992125985
11
1.2086632677165354
21
1.2875712992125985
0
LINE
8
BLACK
6
CONTINUOUS
10
1.7907498818897638
20
1.2883587007874016
11
1.7914458661417323
21
1.2880704330708661
0
LINE
8
BLACK
6
CONTINUOUS
10
1.7914458661417323
20
1.2880704330708661
11
1.7917341338582677
21
1.2873744488188976
0
LINE
8
BLACK
6
CONTINUOUS
10
1.7917341338582677
20
1.2873744488188976
11
1.7917341338582677
21
1.2125712992125983
0
LINE
8
BLACK
6
CONTINUOUS
10
1.7917341338582677
20
1.2125712992125983
11
1.7914458661417323
21
1.2118753149606298
0
LINE
8
BLACK
6
CONTINUOUS
10
1.7914458661417323
20
1.2118753149606298
11
1.7907498818897638
21
1.2115870472440944
0
LINE
8
BLACK
6
CONTINUOUS
10
1.7907498818897638
20
1.2115870472440944
11
1.6584664173228345
21
1.2115870472440944
0
LINE
8
BLACK
6
CONTINUOUS
10
1.6584664173228345
20
1.2115870472440944
11
1.657770433070866
21
1.2118753149606298
0
LINE
8
BLACK
6
CONTINUOUS
10
1.657770433070866
20
1.2118753149606298
11
1.6574821653543306
21
1.2125712992125983
0
LINE
8
BLACK
6
CONTINUOUS
10
1.6574821653543306
20
1.2125712992125983
11
1.6574821653543306
21
1.2873744488188976
0
LINE
8
BLACK
6
CONTINUOUS
10
1.6574821653543306
20
1.2873744488188976
11
1.657770433070866
21
1.2880704330708661
0
LINE
8
BLACK
6
CONTINUOUS
10
1.657770433070866
20
1.2880704330708661
11
1.6584664173228345
21
1.2883587007874016
0
LINE
8
BLACK
6
CONTINUOUS
10
1.6584664173228345
20
1.2883587007874016
11
1.7907498818897638
21
1.2883587007874016
0
LINE
8
BLACK
6
CONTINUOUS
10
1.6594506692913384
20
1.2863901968503937
11
1.6594506692913384
21
1.2135555511811023
0
LINE
8
BLACK
6
CONTINUOUS
10
1.6594506692913384
20
1.2135555511811023
11
1.7897656299212599
21
1.2135555511811023
0
LINE
8
BLACK
6
CONTINUOUS
10
1.7897656299212599
20
1.2135555511811023
11
1.7897656299212599
21
1.2863901968503937
0
LINE
8
BLACK
6
CONTINUOUS
10
1.7897656299212599
20
1.2863901968503937
11
1.6594506692913384
21
1.2863901968503937
0
LINE
8
BLACK
6
CONTINUOUS
10
1.4935057874015747
20
1.2844216929133858
11
1.4942017716535432
21
1.2841334251968504
0
LINE
8
BLACK
6
CONTINUOUS
10
1.4942017716535432
20
1.2841334251968504
11
1.4944900393700786
21
1.2834374409448819
0
LINE
8
BLACK
6
CONTINUOUS
10
1.4944900393700786
20
1.2834374409448819
11
1.4944900393700786
21
1.2165083070866141
0
LINE
8
BLACK
6
CONTINUOUS
10
1.4944900393700786
20
1.2165083070866141
11
1.4942017716535432
21
1.2158123228346456
0
LINE
8
BLACK
6
CONTINUOUS
10
1.4942017716535432
20
1.2158123228346456
11
1.4935057874015747
21
1.2155240551181101
0
LINE
8
BLACK
6
CONTINUOUS
10
1.4935057874015747
20
1.2155240551181101
11
1.3557105118110235
21
1.2155240551181101
0
LINE
8
BLACK
6
CONTINUOUS
10
1.3557105118110235
20
1.2155240551181101
11
1.355014527559055
21
1.2158123228346456
0
LINE
8
BLACK
6
CONTINUOUS
10
1.355014527559055
20
1.2158123228346456
11
1.3547262598425196
21
1.2165083070866141
0
LINE
8
BLACK
6
CONTINUOUS
10
1.3547262598425196
20
1.2165083070866141
11
1.3547262598425196
21
1.2834374409448819
0
LINE
8
BLACK
6
CONTINUOUS
10
1.3547262598425196
20
1.2834374409448819
11
1.355014527559055
21
1.2841334251968504
0
LINE
8
BLACK
6
CONTINUOUS
10
1.355014527559055
20
1.2841334251968504
11
1.3557105118110235
21
1.2844216929133858
0
LINE
8
BLACK
6
CONTINUOUS
10
1.3557105118110235
20
1.2844216929133858
11
1.4935057874015747
21
1.2844216929133858
0
LINE
8
BLACK
6
CONTINUOUS
10
1.3566947637795275
20
1.2824531889763779
11
1.3566947637795275
21
1.217492559055118
0
LINE
8
BLACK
6
CONTINUOUS
10
1.3566947637795275
20
1.217492559055118
11
1.4925215354330708
21
1.217492559055118
0
LINE
8
BLACK
6
CONTINUOUS
10
1.4925215354330708
20
1.217492559055118
11
1.4925215354330708
21
1.2824531889763779
0
LINE
8
BLACK
6
CONTINUOUS
10
1.4925215354330708
20
1.2824531889763779
11
1.3566947637795275
21
1.2824531889763779
0
LINE
8
BLACK
6
CONTINUOUS
10
1.6435057874015748
20
1.2844216929133858
11
1.6442017716535433
21
1.2841334251968504
0
LINE
8
BLACK
6
CONTINUOUS
10
1.6442017716535433
20
1.2841334251968504
11
1.6444900393700788
21
1.2834374409448819
0
LINE
8
BLACK
6
CONTINUOUS
10
1.6444900393700788
20
1.2834374409448819
11
1.6444900393700788
21
1.2165083070866141
0
LINE
8
BLACK
6
CONTINUOUS
10
1.6444900393700788
20
1.2165083070866141
11
1.6442017716535433
21
1.2158123228346456
0
LINE
8
BLACK
6
CONTINUOUS
10
1.6442017716535433
20
1.2158123228346456
11
1.6435057874015748
21
1.2155240551181101
0
LINE
8
BLACK
6
CONTINUOUS
10
1.6435057874015748
20
1.2155240551181101
11
1.5057105118110237
21
1.2155240551181101
0
LINE
8
BLACK
6
CONTINUOUS
10
1.5057105118110237
20
1.2155240551181101
11
1.5050145275590552
21
1.2158123228346456
0
LINE
8
BLACK
6
CONTINUOUS
10
1.5050145275590552
20
1.2158123228346456
11
1.5047262598425197
21
1.2165083070866141
0
LINE
8
BLACK
6
CONTINUOUS
10
1.5047262598425197
20
1.2165083070866141
11
1.5047262598425197
21
1.2834374409448819
0
LINE
8
BLACK
6
CONTINUOUS
10
1.5047262598425197
20
1.2834374409448819
11
1.5050145275590552
21
1.2841334251968504
0
LINE
8
BLACK
6
CONTINUOUS
10
1.5050145275590552
20
1.2841334251968504
11
1.5057105118110237
21
1.2844216929133858
0
LINE
8
BLACK
6
CONTINUOUS
10
1.5057105118110237
20
1.2844216929133858
11
1.6435057874015748
21
1.2844216929133858
0
LINE
8
BLACK
6
CONTINUOUS
10
1.5066947637795276
20
1.2824531889763779
11
1.5066947637795276
21
1.217492559055118
0
LINE
8
BLACK
6
CONTINUOUS
10
1.5066947637795276
20
1.217492559055118
11
1.6425215354330709
21
1.217492559055118
0
LINE
8
BLACK
6
CONTINUOUS
10
1.6425215354330709
20
1.217492559055118
11
1.6425215354330709
21
1.2824531889763779
0
LINE
8
BLACK
6
CONTINUOUS
10
1.6425215354330709
20
1.2824531889763779
11
1.5066947637795276
21
1.2824531889763779
0
LINE
8
BLACK
6
CONTINUOUS
10
0.6827436614173228
20
1.2964173228346456
11
0.6834396456692913
21
1.2961290551181102
0
LINE
8
BLACK
6
CONTINUOUS
10
0.6834396456692913
20
1.2961290551181102
11
0.6837279133858267
21
1.2954330708661417
0
LINE
8
BLACK
6
CONTINUOUS
10
0.6837279133858267
20
1.2954330708661417
11
0.6837279133858267
21
1.2206299212598426
0
LINE
8
BLACK
6
CONTINUOUS
10
0.6837279133858267
20
1.2206299212598426
11
0.6834396456692913
21
1.2199339370078739
0
LINE
8
BLACK
6
CONTINUOUS
10
0.6834396456692913
20
1.2199339370078739
11
0.6827436614173228
21
1.2196456692913387
0
LINE
8
BLACK
6
CONTINUOUS
10
0.6827436614173228
20
1.2196456692913387
11
0.5504601968503937
21
1.2196456692913387
0
LINE
8
BLACK
6
CONTINUOUS
10
0.5504601968503937
20
1.2196456692913387
11
0.5497642125984252
21
1.2199339370078739
0
LINE
8
BLACK
6
CONTINUOUS
10
0.5497642125984252
20
1.2199339370078739
11
0.5494759448818898
21
1.2206299212598426
0
LINE
8
BLACK
6
CONTINUOUS
10
0.5494759448818898
20
1.2206299212598426
11
0.5494759448818898
21
1.2954330708661417
0
LINE
8
BLACK
6
CONTINUOUS
10
0.5494759448818898
20
1.2954330708661417
11
0.5497642125984252
21
1.2961290551181102
0
LINE
8
BLACK
6
CONTINUOUS
10
0.5497642125984252
20
1.2961290551181102
11
0.5504601968503937
21
1.2964173228346456
0
LINE
8
BLACK
6
CONTINUOUS
10
0.5504601968503937
20
1.2964173228346456
11
0.6827436614173228
21
1.2964173228346456
0
LINE
8
BLACK
6
CONTINUOUS
10
0.5514444488188976
20
1.2944488188976377
11
0.5514444488188976
21
1.2216141732283465
0
LINE
8
BLACK
6
CONTINUOUS
10
0.5514444488188976
20
1.2216141732283465
11
0.6817594094488189
21
1.2216141732283465
0
LINE
8
BLACK
6
CONTINUOUS
10
0.6817594094488189
20
1.2216141732283465
11
0.6817594094488189
21
1.2944488188976377
0
LINE
8
BLACK
6
CONTINUOUS
10
0.6817594094488189
20
1.2944488188976377
11
0.5514444488188976
21
1.2944488188976377
0
LINE
8
BLACK
6
CONTINUOUS
10
1.1830727165354331
20
1.3698547637795275
11
1.1837687007874016
21
1.3695664960629921
0
LINE
8
BLACK
6
CONTINUOUS
10
1.1837687007874016
20
1.3695664960629921
11
1.184056968503937
21
1.3688705118110236
0
LINE
8
BLACK
6
CONTINUOUS
10
1.184056968503937
20
1.3688705118110236
11
1.184056968503937
21
1.2310752362204724
0
LINE
8
BLACK
6
CONTINUOUS
10
1.184056968503937
20
1.2310752362204724
11
1.1837687007874016
21
1.230379251968504
0
LINE
8
BLACK
6
CONTINUOUS
10
1.1837687007874016
20
1.230379251968504
11
1.1830727165354331
21
1.2300909842519685
0
LINE
8
BLACK
6
CONTINUOUS
10
1.1830727165354331
20
1.2300909842519685
11
1.1161435826771653
21
1.2300909842519685
0
LINE
8
BLACK
6
CONTINUOUS
10
1.1161435826771653
20
1.2300909842519685
11
1.1154475984251968
21
1.230379251968504
0
LINE
8
BLACK
6
CONTINUOUS
10
1.1154475984251968
20
1.230379251968504
11
1.1151593307086614
21
1.2310752362204724
0
LINE
8
BLACK
6
CONTINUOUS
10
1.1151593307086614
20
1.2310752362204724
11
1.1151593307086614
21
1.3688705118110236
0
LINE
8
BLACK
6
CONTINUOUS
10
1.1151593307086614
20
1.3688705118110236
11
1.1154475984251968
21
1.3695664960629921
0
LINE
8
BLACK
6
CONTINUOUS
10
1.1154475984251968
20
1.3695664960629921
11
1.1161435826771653
21
1.3698547637795275
0
LINE
8
BLACK
6
CONTINUOUS
10
1.1161435826771653
20
1.3698547637795275
11
1.1830727165354331
21
1.3698547637795275
0
LINE
8
BLACK
6
CONTINUOUS
10
1.1171278346456692
20
1.3678862598425197
11
1.1171278346456692
21
1.2320594881889764
0
LINE
8
BLACK
6
CONTINUOUS
10
1.1171278346456692
20
1.2320594881889764
11
1.1820884645669292
21
1.2320594881889764
0
LINE
8
BLACK
6
CONTINUOUS
10
1.1820884645669292
20
1.2320594881889764
11
1.1820884645669292
21
1.3678862598425197
0
LINE
8
BLACK
6
CONTINUOUS
10
1.1820884645669292
20
1.3678862598425197
11
1.1171278346456692
21
1.3678862598425197
0
LINE
8
BLACK
6
CONTINUOUS
10
1.0609448818897638
20
1.3951574803149607
11
1.0616408661417323
21
1.3948692125984252
0
LINE
8
BLACK
6
CONTINUOUS
10
1.0616408661417323
20
1.3948692125984252
11
1.0619291338582677
21
1.3941732283464567
0
LINE
8
BLACK
6
CONTINUOUS
10
1.0619291338582677
20
1.3941732283464567
11
1.0619291338582677
21
1.2618897637795274
0
LINE
8
BLACK
6
CONTINUOUS
10
1.0619291338582677
20
1.2618897637795274
11
1.0616408661417323
21
1.261193779527559
0
LINE
8
BLACK
6
CONTINUOUS
10
1.0616408661417323
20
1.261193779527559
11
1.0609448818897638
21
1.2609055118110235
0
LINE
8
BLACK
6
CONTINUOUS
10
1.0609448818897638
20
1.2609055118110235
11
0.9861417322834646
21
1.2609055118110235
0
LINE
8
BLACK
6
CONTINUOUS
10
0.9861417322834646
20
1.2609055118110235
11
0.9854457480314961
21
1.261193779527559
0
LINE
8
BLACK
6
CONTINUOUS
10
0.9854457480314961
20
1.261193779527559
11
0.9851574803149606
21
1.2618897637795274
0
LINE
8
BLACK
6
CONTINUOUS
10
0.9851574803149606
20
1.2618897637795274
11
0.9851574803149606
21
1.3941732283464567
0
LINE
8
BLACK
6
CONTINUOUS
10
0.9851574803149606
20
1.3941732283464567
11
0.9854457480314961
21
1.3948692125984252
0
LINE
8
BLACK
6
CONTINUOUS
10
0.9854457480314961
20
1.3948692125984252
11
0.9861417322834646
21
1.3951574803149607
0
LINE
8
BLACK
6
CONTINUOUS
10
0.9861417322834646
20
1.3951574803149607
11
1.0609448818897638
21
1.3951574803149607
0
LINE
8
BLACK
6
CONTINUOUS
10
0.9871259842519685
20
1.3931889763779528
11
0.9871259842519685
21
1.2628740157480314
0
LINE
8
BLACK
6
CONTINUOUS
10
0.9871259842519685
20
1.2628740157480314
11
1.0599606299212598
21
1.2628740157480314
0
LINE
8
BLACK
6
CONTINUOUS
10
1.0599606299212598
20
1.2628740157480314
11
1.0599606299212598
21
1.3931889763779528
0
LINE
8
BLACK
6
CONTINUOUS
10
1.0599606299212598
20
1.3931889763779528
11
0.9871259842519685
21
1.3931889763779528
0
LINE
8
BLACK
6
CONTINUOUS
10
1.4381908267716534
20
1.4428862598425196
11
1.4388868110236219
21
1.4425979921259842
0
LINE
8
BLACK
6
CONTINUOUS
10
1.4388868110236219
20
1.4425979921259842
11
1.4391750787401574
21
1.4419020078740157
0
LINE
8
BLACK
6
CONTINUOUS
10
1.4391750787401574
20
1.4419020078740157
11
1.4391750787401574
21
1.3080437401574803
0
LINE
8
BLACK
6
CONTINUOUS
10
1.4391750787401574
20
1.3080437401574803
11
1.4388868110236219
21
1.3073477559055118
0
LINE
8
BLACK
6
CONTINUOUS
10
1.4388868110236219
20
1.3073477559055118
11
1.4381908267716534
21
1.3070594881889763
0
LINE
8
BLACK
6
CONTINUOUS
10
1.4381908267716534
20
1.3070594881889763
11
1.361025472440945
21
1.3070594881889763
0
LINE
8
BLACK
6
CONTINUOUS
10
1.361025472440945
20
1.3070594881889763
11
1.3603294881889763
21
1.3073477559055118
0
LINE
8
BLACK
6
CONTINUOUS
10
1.3603294881889763
20
1.3073477559055118
11
1.3600412204724408
21
1.3080437401574803
0
LINE
8
BLACK
6
CONTINUOUS
10
1.3600412204724408
20
1.3080437401574803
11
1.3600412204724408
21
1.4419020078740157
0
LINE
8
BLACK
6
CONTINUOUS
10
1.3600412204724408
20
1.4419020078740157
11
1.3603294881889763
21
1.4425979921259842
0
LINE
8
BLACK
6
CONTINUOUS
10
1.3603294881889763
20
1.4425979921259842
11
1.361025472440945
21
1.4428862598425196
0
LINE
8
BLACK
6
CONTINUOUS
10
1.361025472440945
20
1.4428862598425196
11
1.4381908267716534
21
1.4428862598425196
0
LINE
8
BLACK
6
CONTINUOUS
10
1.3620097244094489
20
1.4409177559055117
11
1.3620097244094489
21
1.3090279921259842
0
LINE
8
BLACK
6
CONTINUOUS
10
1.3620097244094489
20
1.3090279921259842
11
1.4372065748031495
21
1.3090279921259842
0
LINE
8
BLACK
6
CONTINUOUS
10
1.4372065748031495
20
1.3090279921259842
11
1.4372065748031495
21
1.4409177559055117
0
LINE
8
BLACK
6
CONTINUOUS
10
1.4372065748031495
20
1.4409177559055117
11
1.3620097244094489
21
1.4409177559055117
0
LINE
8
BLACK
6
CONTINUOUS
10
1.5631908267716534
20
1.4428862598425196
11
1.5638868110236219
21
1.4425979921259842
0
LINE
8
BLACK
6
CONTINUOUS
10
1.5638868110236219
20
1.4425979921259842
11
1.5641750787401574
21
1.4419020078740157
0
LINE
8
BLACK
6
CONTINUOUS
10
1.5641750787401574
20
1.4419020078740157
11
1.5641750787401574
21
1.3080437401574803
0
LINE
8
BLACK
6
CONTINUOUS
10
1.5641750787401574
20
1.3080437401574803
11
1.5638868110236219
21
1.3073477559055118
0
LINE
8
BLACK
6
CONTINUOUS
10
1.5638868110236219
20
1.3073477559055118
11
1.5631908267716534
21
1.3070594881889763
0
LINE
8
BLACK
6
CONTINUOUS
10
1.5631908267716534
20
1.3070594881889763
11
1.4860254724409447
21
1.3070594881889763
0
LINE
8
BLACK
6
CONTINUOUS
10
1.4860254724409447
20
1.3070594881889763
11
1.4853294881889763
21
1.3073477559055118
0
LINE
8
BLACK
6
CONTINUOUS
10
1.4853294881889763
20
1.3073477559055118
11
1.4850412204724408
21
1.3080437401574803
0
LINE
8
BLACK
6
CONTINUOUS
10
1.4850412204724408
20
1.3080437401574803
11
1.4850412204724408
21
1.4419020078740157
0
LINE
8
BLACK
6
CONTINUOUS
10
1.4850412204724408
20
1.4419020078740157
11
1.4853294881889763
21
1.4425979921259842
0
LINE
8
BLACK
6
CONTINUOUS
10
1.4853294881889763
20
1.4425979921259842
11
1.4860254724409447
21
1.4428862598425196
0
LINE
8
BLACK
6
CONTINUOUS
10
1.4860254724409447
20
1.4428862598425196
11
1.5631908267716534
21
1.4428862598425196
0
LINE
8
BLACK
6
CONTINUOUS
10
1.4870097244094487
20
1.4409177559055117
11
1.4870097244094487
21
1.3090279921259842
0
LINE
8
BLACK
6
CONTINUOUS
10
1.4870097244094487
20
1.3090279921259842
11
1.5622065748031495
21
1.3090279921259842
0
LINE
8
BLACK
6
CONTINUOUS
10
1.5622065748031495
20
1.3090279921259842
11
1.5622065748031495
21
1.4409177559055117
0
LINE
8
BLACK
6
CONTINUOUS
10
1.5622065748031495
20
1.4409177559055117
11
1.4870097244094487
21
1.4409177559055117
0
LINE
8
BLACK
6
CONTINUOUS
10
1.6881908267716534
20
1.4428862598425196
11
1.6888868110236219
21
1.4425979921259842
0
LINE
8
BLACK
6
CONTINUOUS
10
1.6888868110236219
20
1.4425979921259842
11
1.6891750787401574
21
1.4419020078740157
0
LINE
8
BLACK
6
CONTINUOUS
10
1.6891750787401574
20
1.4419020078740157
11
1.6891750787401574
21
1.3080437401574803
0
LINE
8
BLACK
6
CONTINUOUS
10
1.6891750787401574
20
1.3080437401574803
11
1.6888868110236219
21
1.3073477559055118
0
LINE
8
BLACK
6
CONTINUOUS
10
1.6888868110236219
20
1.3073477559055118
11
1.6881908267716534
21
1.3070594881889763
0
LINE
8
BLACK
6
CONTINUOUS
10
1.6881908267716534
20
1.3070594881889763
11
1.6110254724409447
21
1.3070594881889763
0
LINE
8
BLACK
6
CONTINUOUS
10
1.6110254724409447
20
1.3070594881889763
11
1.6103294881889763
21
1.3073477559055118
0
LINE
8
BLACK
6
CONTINUOUS
10
1.6103294881889763
20
1.3073477559055118
11
1.6100412204724408
21
1.3080437401574803
0
LINE
8
BLACK
6
CONTINUOUS
10
1.6100412204724408
20
1.3080437401574803
11
1.6100412204724408
21
1.4419020078740157
0
LINE
8
BLACK
6
CONTINUOUS
10
1.6100412204724408
20
1.4419020078740157
11
1.6103294881889763
21
1.4425979921259842
0
LINE
8
BLACK
6
CONTINUOUS
10
1.6103294881889763
20
1.4425979921259842
11
1.6110254724409447
21
1.4428862598425196
0
LINE
8
BLACK
6
CONTINUOUS
10
1.6110254724409447
20
1.4428862598425196
11
1.6881908267716534
21
1.4428862598425196
0
LINE
8
BLACK
6
CONTINUOUS
10
1.6120097244094487
20
1.4409177559055117
11
1.6120097244094487
21
1.3090279921259842
0
LINE
8
BLACK
6
CONTINUOUS
10
1.6120097244094487
20
1.3090279921259842
11
1.6872065748031495
21
1.3090279921259842
0
LINE
8
BLACK
6
CONTINUOUS
10
1.6872065748031495
20
1.3090279921259842
11
1.6872065748031495
21
1.4409177559055117
0
LINE
8
BLACK
6
CONTINUOUS
10
1.6872065748031495
20
1.4409177559055117
11
1.6120097244094487
21
1.4409177559055117
0
LINE
8
BLACK
6
CONTINUOUS
10
1.3435057874015748
20
1.3844216929133859
11
1.3442017716535433
21
1.3841334251968505
0
LINE
8
BLACK
6
CONTINUOUS
10
1.3442017716535433
20
1.3841334251968505
11
1.3444900393700787
21
1.383437440944882
0
LINE
8
BLACK
6
CONTINUOUS
10
1.3444900393700787
20
1.383437440944882
11
1.3444900393700787
21
1.3165083070866141
0
LINE
8
BLACK
6
CONTINUOUS
10
1.3444900393700787
20
1.3165083070866141
11
1.3442017716535433
21
1.3158123228346457
0
LINE
8
BLACK
6
CONTINUOUS
10
1.3442017716535433
20
1.3158123228346457
11
1.3435057874015748
21
1.3155240551181102
0
LINE
8
BLACK
6
CONTINUOUS
10
1.3435057874015748
20
1.3155240551181102
11
1.2057105118110236
21
1.3155240551181102
0
LINE
8
BLACK
6
CONTINUOUS
10
1.2057105118110236
20
1.3155240551181102
11
1.2050145275590551
21
1.3158123228346457
0
LINE
8
BLACK
6
CONTINUOUS
10
1.2050145275590551
20
1.3158123228346457
11
1.2047262598425197
21
1.3165083070866141
0
LINE
8
BLACK
6
CONTINUOUS
10
1.2047262598425197
20
1.3165083070866141
11
1.2047262598425197
21
1.383437440944882
0
LINE
8
BLACK
6
CONTINUOUS
10
1.2047262598425197
20
1.383437440944882
11
1.2050145275590551
21
1.3841334251968505
0
LINE
8
BLACK
6
CONTINUOUS
10
1.2050145275590551
20
1.3841334251968505
11
1.2057105118110236
21
1.3844216929133859
0
LINE
8
BLACK
6
CONTINUOUS
10
1.2057105118110236
20
1.3844216929133859
11
1.3435057874015748
21
1.3844216929133859
0
LINE
8
BLACK
6
CONTINUOUS
10
1.2066947637795276
20
1.3824531889763778
11
1.2066947637795276
21
1.3174925590551181
0
LINE
8
BLACK
6
CONTINUOUS
10
1.2066947637795276
20
1.3174925590551181
11
1.3425215354330708
21
1.3174925590551181
0
LINE
8
BLACK
6
CONTINUOUS
10
1.3425215354330708
20
1.3174925590551181
11
1.3425215354330708
21
1.3824531889763778
0
LINE
8
BLACK
6
CONTINUOUS
10
1.3425215354330708
20
1.3824531889763778
11
1.2066947637795276
21
1.3824531889763778
0
LINE
8
BLACK
6
CONTINUOUS
10
1.2781908267716535
20
1.5403862598425198
11
1.278886811023622
21
1.5400979921259843
0
LINE
8
BLACK
6
CONTINUOUS
10
1.278886811023622
20
1.5400979921259843
11
1.2791750787401575
21
1.5394020078740158
0
LINE
8
BLACK
6
CONTINUOUS
10
1.2791750787401575
20
1.5394020078740158
11
1.2791750787401575
21
1.4055437401574802
0
LINE
8
BLACK
6
CONTINUOUS
10
1.2791750787401575
20
1.4055437401574802
11
1.278886811023622
21
1.4048477559055117
0
LINE
8
BLACK
6
CONTINUOUS
10
1.278886811023622
20
1.4048477559055117
11
1.2781908267716535
21
1.4045594881889762
0
LINE
8
BLACK
6
CONTINUOUS
10
1.2781908267716535
20
1.4045594881889762
11
1.2010254724409448
21
1.4045594881889762
0
LINE
8
BLACK
6
CONTINUOUS
10
1.2010254724409448
20
1.4045594881889762
11
1.2003294881889763
21
1.4048477559055117
0
LINE
8
BLACK
6
CONTINUOUS
10
1.2003294881889763
20
1.4048477559055117
11
1.2000412204724409
21
1.4055437401574802
0
LINE
8
BLACK
6
CONTINUOUS
10
1.2000412204724409
20
1.4055437401574802
11
1.2000412204724409
21
1.5394020078740158
0
LINE
8
BLACK
6
CONTINUOUS
10
1.2000412204724409
20
1.5394020078740158
11
1.2003294881889763
21
1.5400979921259843
0
LINE
8
BLACK
6
CONTINUOUS
10
1.2003294881889763
20
1.5400979921259843
11
1.2010254724409448
21
1.5403862598425198
0
LINE
8
BLACK
6
CONTINUOUS
10
1.2010254724409448
20
1.5403862598425198
11
1.2781908267716535
21
1.5403862598425198
0
LINE
8
BLACK
6
CONTINUOUS
10
1.2020097244094488
20
1.5384177559055119
11
1.2020097244094488
21
1.4065279921259841
0
LINE
8
BLACK
6
CONTINUOUS
10
1.2020097244094488
20
1.4065279921259841
11
1.2772065748031496
21
1.4065279921259841
0
LINE
8
BLACK
6
CONTINUOUS
10
1.2772065748031496
20
1.4065279921259841
11
1.2772065748031496
21
1.5384177559055119
0
LINE
8
BLACK
6
CONTINUOUS
10
1.2772065748031496
20
1.5384177559055119
11
1.2020097244094488
21
1.5384177559055119
0
LINE
8
BLACK
6
CONTINUOUS
10
0.7109448818897638
20
1.5420988582677164
11
0.7116408661417323
21
1.541810590551181
0
LINE
8
BLACK
6
CONTINUOUS
10
0.7116408661417323
20
1.541810590551181
11
0.7119291338582677
21
1.5411146062992125
0
LINE
8
BLACK
6
CONTINUOUS
10
0.7119291338582677
20
1.5411146062992125
11
0.7119291338582677
21
1.4088311417322834
0
LINE
8
BLACK
6
CONTINUOUS
10
0.7119291338582677
20
1.4088311417322834
11
0.7116408661417323
21
1.4081351574803149
0
LINE
8
BLACK
6
CONTINUOUS
10
0.7116408661417323
20
1.4081351574803149
11
0.7109448818897638
21
1.4078468897637795
0
LINE
8
BLACK
6
CONTINUOUS
10
0.7109448818897638
20
1.4078468897637795
11
0.6361417322834646
21
1.4078468897637795
0
LINE
8
BLACK
6
CONTINUOUS
10
0.6361417322834646
20
1.4078468897637795
11
0.635445748031496
21
1.4081351574803149
0
LINE
8
BLACK
6
CONTINUOUS
10
0.635445748031496
20
1.4081351574803149
11
0.6351574803149607
21
1.4088311417322834
0
LINE
8
BLACK
6
CONTINUOUS
10
0.6351574803149607
20
1.4088311417322834
11
0.6351574803149607
21
1.5411146062992125
0
LINE
8
BLACK
6
CONTINUOUS
10
0.6351574803149607
20
1.5411146062992125
11
0.635445748031496
21
1.541810590551181
0
LINE
8
BLACK
6
CONTINUOUS
10
0.635445748031496
20
1.541810590551181
11
0.6361417322834646
21
1.5420988582677164
0
LINE
8
BLACK
6
CONTINUOUS
10
0.6361417322834646
20
1.5420988582677164
11
0.7109448818897638
21
1.5420988582677164
0
LINE
8
BLACK
6
CONTINUOUS
10
0.6371259842519685
20
1.5401303543307086
11
0.6371259842519685
21
1.4098153937007873
0
LINE
8
BLACK
6
CONTINUOUS
10
0.6371259842519685
20
1.4098153937007873
11
0.7099606299212599
21
1.4098153937007873
0
LINE
8
BLACK
6
CONTINUOUS
10
0.7099606299212599
20
1.4098153937007873
11
0.7099606299212599
21
1.5401303543307086
0
LINE
8
BLACK
6
CONTINUOUS
10
0.7099606299212599
20
1.5401303543307086
11
0.6371259842519685
21
1.5401303543307086
0
LINE
8
BLACK
6
CONTINUOUS
10
0.8109448818897638
20
1.5420988582677164
11
0.8116408661417323
21
1.541810590551181
0
LINE
8
BLACK
6
CONTINUOUS
10
0.8116408661417323
20
1.541810590551181
11
0.8119291338582677
21
1.5411146062992125
0
LINE
8
BLACK
6
CONTINUOUS
10
0.8119291338582677
20
1.5411146062992125
11
0.8119291338582677
21
1.4088311417322834
0
LINE
8
BLACK
6
CONTINUOUS
10
0.8119291338582677
20
1.4088311417322834
11
0.8116408661417323
21
1.4081351574803149
0
LINE
8
BLACK
6
CONTINUOUS
10
0.8116408661417323
20
1.4081351574803149
11
0.8109448818897638
21
1.4078468897637795
0
LINE
8
BLACK
6
CONTINUOUS
10
0.8109448818897638
20
1.4078468897637795
11
0.7361417322834646
21
1.4078468897637795
0
LINE
8
BLACK
6
CONTINUOUS
10
0.7361417322834646
20
1.4078468897637795
11
0.7354457480314961
21
1.4081351574803149
0
LINE
8
BLACK
6
CONTINUOUS
10
0.7354457480314961
20
1.4081351574803149
11
0.7351574803149606
21
1.4088311417322834
0
LINE
8
BLACK
6
CONTINUOUS
10
0.7351574803149606
20
1.4088311417322834
11
0.7351574803149606
21
1.5411146062992125
0
LINE
8
BLACK
6
CONTINUOUS
10
0.7351574803149606
20
1.5411146062992125
11
0.7354457480314961
21
1.541810590551181
0
LINE
8
BLACK
6
CONTINUOUS
10
0.7354457480314961
20
1.541810590551181
11
0.7361417322834646
21
1.5420988582677164
0
LINE
8
BLACK
6
CONTINUOUS
10
0.7361417322834646
20
1.5420988582677164
11
0.8109448818897638
21
1.5420988582677164
0
LINE
8
BLACK
6
CONTINUOUS
10
0.7371259842519685
20
1.5401303543307086
11
0.7371259842519685
21
1.4098153937007873
0
LINE
8
BLACK
6
CONTINUOUS
10
0.7371259842519685
20
1.4098153937007873
11
0.8099606299212598
21
1.4098153937007873
0
LINE
8
BLACK
6
CONTINUOUS
10
0.8099606299212598
20
1.4098153937007873
11
0.8099606299212598
21
1.5401303543307086
0
LINE
8
BLACK
6
CONTINUOUS
10
0.8099606299212598
20
1.5401303543307086
11
0.7371259842519685
21
1.5401303543307086
0
LINE
8
BLACK
6
CONTINUOUS
10
1.0896850393700788
20
1.5164173228346456
11
1.0903810236220473
21
1.5161290551181101
0
LINE
8
BLACK
6
CONTINUOUS
10
1.0903810236220473
20
1.5161290551181101
11
1.0906692913385827
21
1.5154330708661417
0
LINE
8
BLACK
6
CONTINUOUS
10
1.0906692913385827
20
1.5154330708661417
11
1.0906692913385827
21
1.4406299212598426
0
LINE
8
BLACK
6
CONTINUOUS
10
1.0906692913385827
20
1.4406299212598426
11
1.0903810236220473
21
1.4399339370078741
0
LINE
8
BLACK
6
CONTINUOUS
10
1.0903810236220473
20
1.4399339370078741
11
1.0896850393700788
21
1.4396456692913386
0
LINE
8
BLACK
6
CONTINUOUS
10
1.0896850393700788
20
1.4396456692913386
11
0.9574015748031496
21
1.4396456692913386
0
LINE
8
BLACK
6
CONTINUOUS
10
0.9574015748031496
20
1.4396456692913386
11
0.9567055905511811
21
1.4399339370078741
0
LINE
8
BLACK
6
CONTINUOUS
10
0.9567055905511811
20
1.4399339370078741
11
0.9564173228346456
21
1.4406299212598426
0
LINE
8
BLACK
6
CONTINUOUS
10
0.9564173228346456
20
1.4406299212598426
11
0.9564173228346456
21
1.5154330708661417
0
LINE
8
BLACK
6
CONTINUOUS
10
0.9564173228346456
20
1.5154330708661417
11
0.9567055905511811
21
1.5161290551181101
0
LINE
8
BLACK
6
CONTINUOUS
10
0.9567055905511811
20
1.5161290551181101
11
0.9574015748031496
21
1.5164173228346456
0
LINE
8
BLACK
6
CONTINUOUS
10
0.9574015748031496
20
1.5164173228346456
11
1.0896850393700788
21
1.5164173228346456
0
LINE
8
BLACK
6
CONTINUOUS
10
0.9583858267716535
20
1.5144488188976377
11
0.9583858267716535
21
1.4416141732283465
0
LINE
8
BLACK
6
CONTINUOUS
10
0.9583858267716535
20
1.4416141732283465
11
1.0887007874015748
21
1.4416141732283465
0
LINE
8
BLACK
6
CONTINUOUS
10
1.0887007874015748
20
1.4416141732283465
11
1.0887007874015748
21
1.5144488188976377
0
LINE
8
BLACK
6
CONTINUOUS
10
1.0887007874015748
20
1.5144488188976377
11
0.9583858267716535
21
1.5144488188976377
0
LINE
8
BLACK
6
CONTINUOUS
10
1.4329724409448819
20
1.7646062992125984
11
1.4336684251968503
21
1.7643180314960629
0
LINE
8
BLACK
6
CONTINUOUS
10
1.4336684251968503
20
1.7643180314960629
11
1.4339566929133858
21
1.7636220472440944
0
LINE
8
BLACK
6
CONTINUOUS
10
1.4339566929133858
20
1.7636220472440944
11
1.4339566929133858
21
1.6136220472440945
0
LINE
8
BLACK
6
CONTINUOUS
10
1.4339566929133858
20
1.6136220472440945
11
1.4339566929133858
21
1.4624409448818898
0
LINE
8
BLACK
6
CONTINUOUS
10
1.4339566929133858
20
1.4624409448818898
11
1.4336684251968503
21
1.4617449606299213
0
LINE
8
BLACK
6
CONTINUOUS
10
1.4336684251968503
20
1.4617449606299213
11
1.4329724409448819
21
1.4614566929133859
0
LINE
8
BLACK
6
CONTINUOUS
10
1.4329724409448819
20
1.4614566929133859
11
1.2991141732283464
21
1.4614566929133859
0
LINE
8
BLACK
6
CONTINUOUS
10
1.2991141732283464
20
1.4614566929133859
11
1.298418188976378
21
1.4617449606299213
0
LINE
8
BLACK
6
CONTINUOUS
10
1.298418188976378
20
1.4617449606299213
11
1.2981299212598425
21
1.4624409448818898
0
LINE
8
BLACK
6
CONTINUOUS
10
1.2981299212598425
20
1.4624409448818898
11
1.2981299212598425
21
1.6136220472440945
0
LINE
8
BLACK
6
CONTINUOUS
10
1.2981299212598425
20
1.6136220472440945
11
1.2981299212598425
21
1.7636220472440944
0
LINE
8
BLACK
6
CONTINUOUS
10
1.2981299212598425
20
1.7636220472440944
11
1.298418188976378
21
1.7643180314960629
0
LINE
8
BLACK
6
CONTINUOUS
10
1.298418188976378
20
1.7643180314960629
11
1.2991141732283464
21
1.7646062992125984
0
LINE
8
BLACK
6
CONTINUOUS
10
1.2991141732283464
20
1.7646062992125984
11
1.4329724409448819
21
1.7646062992125984
0
LINE
8
BLACK
6
CONTINUOUS
10
1.3000984251968504
20
1.6114566929133858
11
1.3000984251968504
21
1.4634251968503937
0
LINE
8
BLACK
6
CONTINUOUS
10
1.3000984251968504
20
1.4634251968503937
11
1.4319881889763779
21
1.4634251968503937
0
LINE
8
BLACK
6
CONTINUOUS
10
1.4319881889763779
20
1.4634251968503937
11
1.4319881889763779
21
1.6114566929133858
0
LINE
8
BLACK
6
CONTINUOUS
10
1.4319881889763779
20
1.6114566929133858
11
1.3000984251968504
21
1.6114566929133858
0
LINE
8
BLACK
6
CONTINUOUS
10
1.3000984251968504
20
1.7626377952755905
11
1.3000984251968504
21
1.6146062992125985
0
LINE
8
BLACK
6
CONTINUOUS
10
1.3000984251968504
20
1.6146062992125985
11
1.4319881889763779
21
1.6146062992125985
0
LINE
8
BLACK
6
CONTINUOUS
10
1.4319881889763779
20
1.6146062992125985
11
1.4319881889763779
21
1.7626377952755905
0
LINE
8
BLACK
6
CONTINUOUS
10
1.4319881889763779
20
1.7626377952755905
11
1.3000984251968504
21
1.7626377952755905
0
LINE
8
BLACK
6
CONTINUOUS
10
1.5796850393700788
20
1.6064173228346457
11
1.5803810236220472
21
1.6061290551181102
0
LINE
8
BLACK
6
CONTINUOUS
10
1.5803810236220472
20
1.6061290551181102
11
1.5806692913385827
21
1.6054330708661417
0
LINE
8
BLACK
6
CONTINUOUS
10
1.5806692913385827
20
1.6054330708661417
11
1.5806692913385827
21
1.5306299212598424
0
LINE
8
BLACK
6
CONTINUOUS
10
1.5806692913385827
20
1.5306299212598424
11
1.5803810236220472
21
1.5299339370078739
0
LINE
8
BLACK
6
CONTINUOUS
10
1.5803810236220472
20
1.5299339370078739
11
1.5796850393700788
21
1.5296456692913385
0
LINE
8
BLACK
6
CONTINUOUS
10
1.5796850393700788
20
1.5296456692913385
11
1.4474015748031497
21
1.5296456692913385
0
LINE
8
BLACK
6
CONTINUOUS
10
1.4474015748031497
20
1.5296456692913385
11
1.446705590551181
21
1.5299339370078739
0
LINE
8
BLACK
6
CONTINUOUS
10
1.446705590551181
20
1.5299339370078739
11
1.4464173228346457
21
1.5306299212598424
0
LINE
8
BLACK
6
CONTINUOUS
10
1.4464173228346457
20
1.5306299212598424
11
1.4464173228346457
21
1.6054330708661417
0
LINE
8
BLACK
6
CONTINUOUS
10
1.4464173228346457
20
1.6054330708661417
11
1.446705590551181
21
1.6061290551181102
0
LINE
8
BLACK
6
CONTINUOUS
10
1.446705590551181
20
1.6061290551181102
11
1.4474015748031497
21
1.6064173228346457
0
LINE
8
BLACK
6
CONTINUOUS
10
1.4474015748031497
20
1.6064173228346457
11
1.5796850393700788
21
1.6064173228346457
0
LINE
8
BLACK
6
CONTINUOUS
10
1.4483858267716536
20
1.6044488188976378
11
1.4483858267716536
21
1.5316141732283464
0
LINE
8
BLACK
6
CONTINUOUS
10
1.4483858267716536
20
1.5316141732283464
11
1.5787007874015748
21
1.5316141732283464
0
LINE
8
BLACK
6
CONTINUOUS
10
1.5787007874015748
20
1.5316141732283464
11
1.5787007874015748
21
1.6044488188976378
0
LINE
8
BLACK
6
CONTINUOUS
10
1.5787007874015748
20
1.6044488188976378
11
1.4483858267716536
21
1.6044488188976378
0
LINE
8
BLACK
6
CONTINUOUS
10
1.2796850393700787
20
1.6764173228346457
11
1.2803810236220472
21
1.6761290551181103
0
LINE
8
BLACK
6
CONTINUOUS
10
1.2803810236220472
20
1.6761290551181103
11
1.2806692913385826
21
1.6754330708661418
0
LINE
8
BLACK
6
CONTINUOUS
10
1.2806692913385826
20
1.6754330708661418
11
1.2806692913385826
21
1.6006299212598425
0
LINE
8
BLACK
6
CONTINUOUS
10
1.2806692913385826
20
1.6006299212598425
11
1.2803810236220472
21
1.599933937007874
0
LINE
8
BLACK
6
CONTINUOUS
10
1.2803810236220472
20
1.599933937007874
11
1.2796850393700787
21
1.5996456692913386
0
LINE
8
BLACK
6
CONTINUOUS
10
1.2796850393700787
20
1.5996456692913386
11
1.1474015748031496
21
1.5996456692913386
0
LINE
8
BLACK
6
CONTINUOUS
10
1.1474015748031496
20
1.5996456692913386
11
1.1467055905511812
21
1.599933937007874
0
LINE
8
BLACK
6
CONTINUOUS
10
1.1467055905511812
20
1.599933937007874
11
1.1464173228346457
21
1.6006299212598425
0
LINE
8
BLACK
6
CONTINUOUS
10
1.1464173228346457
20
1.6006299212598425
11
1.1464173228346457
21
1.6754330708661418
0
LINE
8
BLACK
6
CONTINUOUS
10
1.1464173228346457
20
1.6754330708661418
11
1.1467055905511812
21
1.6761290551181103
0
LINE
8
BLACK
6
CONTINUOUS
10
1.1467055905511812
20
1.6761290551181103
11
1.1474015748031496
21
1.6764173228346457
0
LINE
8
BLACK
6
CONTINUOUS
10
1.1474015748031496
20
1.6764173228346457
11
1.2796850393700787
21
1.6764173228346457
0
LINE
8
BLACK
6
CONTINUOUS
10
1.1483858267716536
20
1.6744488188976379
11
1.1483858267716536
21
1.6016141732283464
0
LINE
8
BLACK
6
CONTINUOUS
10
1.1483858267716536
20
1.6016141732283464
11
1.2787007874015748
21
1.6016141732283464
0
LINE
8
BLACK
6
CONTINUOUS
10
1.2787007874015748
20
1.6016141732283464
11
1.2787007874015748
21
1.6744488188976379
0
LINE
8
BLACK
6
CONTINUOUS
10
1.2787007874015748
20
1.6744488188976379
11
1.1483858267716536
21
1.6744488188976379
0
LINE
8
BLACK
6
CONTINUOUS
10
1.5821850393700787
20
1.7464173228346456
11
1.5828810236220472
21
1.7461290551181101
0
LINE
8
BLACK
6
CONTINUOUS
10
1.5828810236220472
20
1.7461290551181101
11
1.5831692913385826
21
1.7454330708661416
0
LINE
8
BLACK
6
CONTINUOUS
10
1.5831692913385826
20
1.7454330708661416
11
1.5831692913385826
21
1.6706299212598426
0
LINE
8
BLACK
6
CONTINUOUS
10
1.5831692913385826
20
1.6706299212598426
11
1.5828810236220472
21
1.6699339370078741
0
LINE
8
BLACK
6
CONTINUOUS
10
1.5828810236220472
20
1.6699339370078741
11
1.5821850393700787
21
1.6696456692913386
0
LINE
8
BLACK
6
CONTINUOUS
10
1.5821850393700787
20
1.6696456692913386
11
1.4499015748031496
21
1.6696456692913386
0
LINE
8
BLACK
6
CONTINUOUS
10
1.4499015748031496
20
1.6696456692913386
11
1.4492055905511811
21
1.6699339370078741
0
LINE
8
BLACK
6
CONTINUOUS
10
1.4492055905511811
20
1.6699339370078741
11
1.4489173228346457
21
1.6706299212598426
0
LINE
8
BLACK
6
CONTINUOUS
10
1.4489173228346457
20
1.6706299212598426
11
1.4489173228346457
21
1.7454330708661416
0
LINE
8
BLACK
6
CONTINUOUS
10
1.4489173228346457
20
1.7454330708661416
11
1.4492055905511811
21
1.7461290551181101
0
LINE
8
BLACK
6
CONTINUOUS
10
1.4492055905511811
20
1.7461290551181101
11
1.4499015748031496
21
1.7464173228346456
0
LINE
8
BLACK
6
CONTINUOUS
10
1.4499015748031496
20
1.7464173228346456
11
1.5821850393700787
21
1.7464173228346456
0
LINE
8
BLACK
6
CONTINUOUS
10
1.4508858267716536
20
1.7444488188976377
11
1.4508858267716536
21
1.6716141732283465
0
LINE
8
BLACK
6
CONTINUOUS
10
1.4508858267716536
20
1.6716141732283465
11
1.5812007874015748
21
1.6716141732283465
0
LINE
8
BLACK
6
CONTINUOUS
10
1.5812007874015748
20
1.6716141732283465
11
1.5812007874015748
21
1.7444488188976377
0
LINE
8
BLACK
6
CONTINUOUS
10
1.5812007874015748
20
1.7444488188976377
11
1.4508858267716536
21
1.7444488188976377
0
LINE
8
BLACK
6
CONTINUOUS
10
1.2796850393700787
20
1.7564173228346456
11
1.2803810236220472
21
1.7561290551181101
0
LINE
8
BLACK
6
CONTINUOUS
10
1.2803810236220472
20
1.7561290551181101
11
1.2806692913385826
21
1.7554330708661416
0
LINE
8
BLACK
6
CONTINUOUS
10
1.2806692913385826
20
1.7554330708661416
11
1.2806692913385826
21
1.6806299212598426
0
LINE
8
BLACK
6
CONTINUOUS
10
1.2806692913385826
20
1.6806299212598426
11
1.2803810236220472
21
1.6799339370078741
0
LINE
8
BLACK
6
CONTINUOUS
10
1.2803810236220472
20
1.6799339370078741
11
1.2796850393700787
21
1.6796456692913386
0
LINE
8
BLACK
6
CONTINUOUS
10
1.2796850393700787
20
1.6796456692913386
11
1.1474015748031496
21
1.6796456692913386
0
LINE
8
BLACK
6
CONTINUOUS
10
1.1474015748031496
20
1.6796456692913386
11
1.1467055905511812
21
1.6799339370078741
0
LINE
8
BLACK
6
CONTINUOUS
10
1.1467055905511812
20
1.6799339370078741
11
1.1464173228346457
21
1.6806299212598426
0
LINE
8
BLACK
6
CONTINUOUS
10
1.1464173228346457
20
1.6806299212598426
11
1.1464173228346457
21
1.7554330708661416
0
LINE
8
BLACK
6
CONTINUOUS
10
1.1464173228346457
20
1.7554330708661416
11
1.1467055905511812
21
1.7561290551181101
0
LINE
8
BLACK
6
CONTINUOUS
10
1.1467055905511812
20
1.7561290551181101
11
1.1474015748031496
21
1.7564173228346456
0
LINE
8
BLACK
6
CONTINUOUS
10
1.1474015748031496
20
1.7564173228346456
11
1.2796850393700787
21
1.7564173228346456
0
LINE
8
BLACK
6
CONTINUOUS
10
1.1483858267716536
20
1.7544488188976377
11
1.1483858267716536
21
1.6816141732283465
0
LINE
8
BLACK
6
CONTINUOUS
10
1.1483858267716536
20
1.6816141732283465
11
1.2787007874015748
21
1.6816141732283465
0
LINE
8
BLACK
6
CONTINUOUS
10
1.2787007874015748
20
1.6816141732283465
11
1.2787007874015748
21
1.7544488188976377
0
LINE
8
BLACK
6
CONTINUOUS
10
1.2787007874015748
20
1.7544488188976377
11
1.1483858267716536
21
1.7544488188976377
  0
ENDSEC
  0
EOF
