  0
SECTION
  2
HEADER
  9
$ANGBASE
  50
0.0
  9
$ANGDIR
  70
1
  9
$MEASUREMENT
  70
0
  0
ENDSEC
  0
SECTION
  2
TABLES
  0
TABLE
  2
LTYPE
  70
4
  0
LTYPE
  5
40F
  2
CONTINUOUS
  70
0
  3
Solid line
  72
65
  73
0
  40
0.0
  0
LTYPE
  5
410
  2
DASHDOT
 70
0
  3
Dash Dot ____ _ ____ _
 72
65
 73
4
 40
2.0
 49
1.25
 49
-0.25
 49
0.25
 49
-0.25
  0
LTYPE
  5
411
  2
DASHED
 70
0
  3
Dashed __ __ __ __ __
 72
65
 73
2
 40
0.75
 49
0.5
 49
-0.25
  0
LTYPE
  5
43B
  2
DOTTED
 70
0
  3
Dotted .  .  .  .
 72
65
 73
2
 40
0.2
 49
0.0
 49
-0.2
  0
ENDTAB
  0
TABLE
  2
STYLE
  70
4
  0
STYLE
  2
KICAD
  70
0
  40
0
  41
1
  42
1
  50
0
  71
0
  3
isocp.shx
  0
STYLE
  2
KICADB
  70
0
  40
0
  41
1
  42
1
  50
0
  71
0
  3
isocp.shx
  0
STYLE
  2
KICADI
  70
0
  40
0
  41
1
  42
1
  50
15
  71
0
  3
isocp.shx
  0
STYLE
  2
KICADBI
  70
0
  40
0
  41
1
  42
1
  50
15
  71
0
  3
isocp.shx
  0
ENDTAB
  0
TABLE
  2
LAYER
  70
1
  0
LAYER
  2
BLACK
  70
0
  62
7
  6
CONTINUOUS
  0
ENDTAB
  0
ENDSEC
  0
SECTION
  2
ENTITIES
0
LINE
8
BLACK
6
CONTINUOUS
10
6.7734664173228341
20
-4.4009326377952753
11
6.7741624015748032
21
-4.4012209055118108
0
LINE
8
BLACK
6
CONTINUOUS
10
6.7741624015748032
20
-4.4012209055118108
11
6.7744506692913387
21
-4.401916889763779
0
LINE
8
BLACK
6
CONTINUOUS
10
6.7744506692913387
20
-4.401916889763779
11
6.7744506692913387
21
-4.5342003543307081
0
LINE
8
BLACK
6
CONTINUOUS
10
6.7744506692913387
20
-4.5342003543307081
11
6.7741624015748032
21
-4.5348963385826773
0
LINE
8
BLACK
6
CONTINUOUS
10
6.7741624015748032
20
-4.5348963385826773
11
6.7734664173228341
21
-4.5351846062992127
0
LINE
8
BLACK
6
CONTINUOUS
10
6.7734664173228341
20
-4.5351846062992127
11
6.698663267716535
21
-4.5351846062992127
0
LINE
8
BLACK
6
CONTINUOUS
10
6.698663267716535
20
-4.5351846062992127
11
6.6979672834645667
21
-4.5348963385826773
0
LINE
8
BLACK
6
CONTINUOUS
10
6.6979672834645667
20
-4.5348963385826773
11
6.6976790157480313
21
-4.5342003543307081
0
LINE
8
BLACK
6
CONTINUOUS
10
6.6976790157480313
20
-4.5342003543307081
11
6.6976790157480313
21
-4.401916889763779
0
LINE
8
BLACK
6
CONTINUOUS
10
6.6976790157480313
20
-4.401916889763779
11
6.6979672834645667
21
-4.4012209055118108
0
LINE
8
BLACK
6
CONTINUOUS
10
6.6979672834645667
20
-4.4012209055118108
11
6.698663267716535
21
-4.4009326377952753
0
LINE
8
BLACK
6
CONTINUOUS
10
6.698663267716535
20
-4.4009326377952753
11
6.7734664173228341
21
-4.4009326377952753
0
LINE
8
BLACK
6
CONTINUOUS
10
6.6996475196850396
20
-4.4029011417322836
11
6.6996475196850396
21
-4.5332161023622044
0
LINE
8
BLACK
6
CONTINUOUS
10
6.6996475196850396
20
-4.5332161023622044
11
6.7724821653543303
21
-4.5332161023622044
0
LINE
8
BLACK
6
CONTINUOUS
10
6.7724821653543303
20
-4.5332161023622044
11
6.7724821653543303
21
-4.4029011417322836
0
LINE
8
BLACK
6
CONTINUOUS
10
6.7724821653543303
20
-4.4029011417322836
11
6.6996475196850396
21
-4.4029011417322836
0
LINE
8
BLACK
6
CONTINUOUS
10
6.6334664173228344
20
-4.3984326377952758
11
6.6341624015748026
21
-4.3987209055118113
0
LINE
8
BLACK
6
CONTINUOUS
10
6.6341624015748026
20
-4.3987209055118113
11
6.6344506692913381
21
-4.3994168897637795
0
LINE
8
BLACK
6
CONTINUOUS
10
6.6344506692913381
20
-4.3994168897637795
11
6.6344506692913381
21
-4.5317003543307086
0
LINE
8
BLACK
6
CONTINUOUS
10
6.6344506692913381
20
-4.5317003543307086
11
6.6341624015748026
21
-4.5323963385826769
0
LINE
8
BLACK
6
CONTINUOUS
10
6.6341624015748026
20
-4.5323963385826769
11
6.6334664173228344
21
-4.5326846062992123
0
LINE
8
BLACK
6
CONTINUOUS
10
6.6334664173228344
20
-4.5326846062992123
11
6.5586632677165353
21
-4.5326846062992123
0
LINE
8
BLACK
6
CONTINUOUS
10
6.5586632677165353
20
-4.5326846062992123
11
6.557967283464567
21
-4.5323963385826769
0
LINE
8
BLACK
6
CONTINUOUS
10
6.557967283464567
20
-4.5323963385826769
11
6.5576790157480316
21
-4.5317003543307086
0
LINE
8
BLACK
6
CONTINUOUS
10
6.5576790157480316
20
-4.5317003543307086
11
6.5576790157480316
21
-4.3994168897637795
0
LINE
8
BLACK
6
CONTINUOUS
10
6.5576790157480316
20
-4.3994168897637795
11
6.557967283464567
21
-4.3987209055118113
0
LINE
8
BLACK
6
CONTINUOUS
10
6.557967283464567
20
-4.3987209055118113
11
6.5586632677165353
21
-4.3984326377952758
0
LINE
8
BLACK
6
CONTINUOUS
10
6.5586632677165353
20
-4.3984326377952758
11
6.6334664173228344
21
-4.3984326377952758
0
LINE
8
BLACK
6
CONTINUOUS
10
6.559647519685039
20
-4.4004011417322833
11
6.559647519685039
21
-4.5307161023622049
0
LINE
8
BLACK
6
CONTINUOUS
10
6.559647519685039
20
-4.5307161023622049
11
6.6324821653543307
21
-4.5307161023622049
0
LINE
8
BLACK
6
CONTINUOUS
10
6.6324821653543307
20
-4.5307161023622049
11
6.6324821653543307
21
-4.4004011417322833
0
LINE
8
BLACK
6
CONTINUOUS
10
6.6324821653543307
20
-4.4004011417322833
11
6.559647519685039
21
-4.4004011417322833
0
LINE
8
BLACK
6
CONTINUOUS
10
5.3384664173228344
20
-4.2859326377952751
11
5.3391624015748027
21
-4.2862209055118106
0
LINE
8
BLACK
6
CONTINUOUS
10
5.3391624015748027
20
-4.2862209055118106
11
5.3394506692913382
21
-4.2869168897637797
0
LINE
8
BLACK
6
CONTINUOUS
10
5.3394506692913382
20
-4.2869168897637797
11
5.3394506692913382
21
-4.4192003543307088
0
LINE
8
BLACK
6
CONTINUOUS
10
5.3394506692913382
20
-4.4192003543307088
11
5.3391624015748027
21
-4.4198963385826771
0
LINE
8
BLACK
6
CONTINUOUS
10
5.3391624015748027
20
-4.4198963385826771
11
5.3384664173228344
21
-4.4201846062992125
0
LINE
8
BLACK
6
CONTINUOUS
10
5.3384664173228344
20
-4.4201846062992125
11
5.2636632677165354
21
-4.4201846062992125
0
LINE
8
BLACK
6
CONTINUOUS
10
5.2636632677165354
20
-4.4201846062992125
11
5.2629672834645671
21
-4.4198963385826771
0
LINE
8
BLACK
6
CONTINUOUS
10
5.2629672834645671
20
-4.4198963385826771
11
5.2626790157480317
21
-4.4192003543307088
0
LINE
8
BLACK
6
CONTINUOUS
10
5.2626790157480317
20
-4.4192003543307088
11
5.2626790157480317
21
-4.2869168897637797
0
LINE
8
BLACK
6
CONTINUOUS
10
5.2626790157480317
20
-4.2869168897637797
11
5.2629672834645671
21
-4.2862209055118106
0
LINE
8
BLACK
6
CONTINUOUS
10
5.2629672834645671
20
-4.2862209055118106
11
5.2636632677165354
21
-4.2859326377952751
0
LINE
8
BLACK
6
CONTINUOUS
10
5.2636632677165354
20
-4.2859326377952751
11
5.3384664173228344
21
-4.2859326377952751
0
LINE
8
BLACK
6
CONTINUOUS
10
5.2646475196850391
20
-4.2879011417322834
11
5.2646475196850391
21
-4.4182161023622042
0
LINE
8
BLACK
6
CONTINUOUS
10
5.2646475196850391
20
-4.4182161023622042
11
5.3374821653543307
21
-4.4182161023622042
0
LINE
8
BLACK
6
CONTINUOUS
10
5.3374821653543307
20
-4.4182161023622042
11
5.3374821653543307
21
-4.2879011417322834
0
LINE
8
BLACK
6
CONTINUOUS
10
5.3374821653543307
20
-4.2879011417322834
11
5.2646475196850391
21
-4.2879011417322834
0
LINE
8
BLACK
6
CONTINUOUS
10
5.4384664173228341
20
-4.2859326377952751
11
5.4391624015748032
21
-4.2862209055118106
0
LINE
8
BLACK
6
CONTINUOUS
10
5.4391624015748032
20
-4.2862209055118106
11
5.4394506692913387
21
-4.2869168897637797
0
LINE
8
BLACK
6
CONTINUOUS
10
5.4394506692913387
20
-4.2869168897637797
11
5.4394506692913387
21
-4.4192003543307088
0
LINE
8
BLACK
6
CONTINUOUS
10
5.4394506692913387
20
-4.4192003543307088
11
5.4391624015748032
21
-4.4198963385826771
0
LINE
8
BLACK
6
CONTINUOUS
10
5.4391624015748032
20
-4.4198963385826771
11
5.4384664173228341
21
-4.4201846062992125
0
LINE
8
BLACK
6
CONTINUOUS
10
5.4384664173228341
20
-4.4201846062992125
11
5.363663267716535
21
-4.4201846062992125
0
LINE
8
BLACK
6
CONTINUOUS
10
5.363663267716535
20
-4.4201846062992125
11
5.3629672834645667
21
-4.4198963385826771
0
LINE
8
BLACK
6
CONTINUOUS
10
5.3629672834645667
20
-4.4198963385826771
11
5.3626790157480313
21
-4.4192003543307088
0
LINE
8
BLACK
6
CONTINUOUS
10
5.3626790157480313
20
-4.4192003543307088
11
5.3626790157480313
21
-4.2869168897637797
0
LINE
8
BLACK
6
CONTINUOUS
10
5.3626790157480313
20
-4.2869168897637797
11
5.3629672834645667
21
-4.2862209055118106
0
LINE
8
BLACK
6
CONTINUOUS
10
5.3629672834645667
20
-4.2862209055118106
11
5.363663267716535
21
-4.2859326377952751
0
LINE
8
BLACK
6
CONTINUOUS
10
5.363663267716535
20
-4.2859326377952751
11
5.4384664173228341
21
-4.2859326377952751
0
LINE
8
BLACK
6
CONTINUOUS
10
5.3646475196850396
20
-4.2879011417322834
11
5.3646475196850396
21
-4.4182161023622042
0
LINE
8
BLACK
6
CONTINUOUS
10
5.3646475196850396
20
-4.4182161023622042
11
5.4374821653543304
21
-4.4182161023622042
0
LINE
8
BLACK
6
CONTINUOUS
10
5.4374821653543304
20
-4.4182161023622042
11
5.4374821653543304
21
-4.2879011417322834
0
LINE
8
BLACK
6
CONTINUOUS
10
5.4374821653543304
20
-4.2879011417322834
11
5.3646475196850396
21
-4.2879011417322834
0
LINE
8
BLACK
6
CONTINUOUS
10
5.9384664173228341
20
-4.2859326377952751
11
5.9391624015748032
21
-4.2862209055118106
0
LINE
8
BLACK
6
CONTINUOUS
10
5.9391624015748032
20
-4.2862209055118106
11
5.9394506692913387
21
-4.2869168897637797
0
LINE
8
BLACK
6
CONTINUOUS
10
5.9394506692913387
20
-4.2869168897637797
11
5.9394506692913387
21
-4.4192003543307088
0
LINE
8
BLACK
6
CONTINUOUS
10
5.9394506692913387
20
-4.4192003543307088
11
5.9391624015748032
21
-4.4198963385826771
0
LINE
8
BLACK
6
CONTINUOUS
10
5.9391624015748032
20
-4.4198963385826771
11
5.9384664173228341
21
-4.4201846062992125
0
LINE
8
BLACK
6
CONTINUOUS
10
5.9384664173228341
20
-4.4201846062992125
11
5.863663267716535
21
-4.4201846062992125
0
LINE
8
BLACK
6
CONTINUOUS
10
5.863663267716535
20
-4.4201846062992125
11
5.8629672834645667
21
-4.4198963385826771
0
LINE
8
BLACK
6
CONTINUOUS
10
5.8629672834645667
20
-4.4198963385826771
11
5.8626790157480313
21
-4.4192003543307088
0
LINE
8
BLACK
6
CONTINUOUS
10
5.8626790157480313
20
-4.4192003543307088
11
5.8626790157480313
21
-4.2869168897637797
0
LINE
8
BLACK
6
CONTINUOUS
10
5.8626790157480313
20
-4.2869168897637797
11
5.8629672834645667
21
-4.2862209055118106
0
LINE
8
BLACK
6
CONTINUOUS
10
5.8629672834645667
20
-4.2862209055118106
11
5.863663267716535
21
-4.2859326377952751
0
LINE
8
BLACK
6
CONTINUOUS
10
5.863663267716535
20
-4.2859326377952751
11
5.9384664173228341
21
-4.2859326377952751
0
LINE
8
BLACK
6
CONTINUOUS
10
5.8646475196850396
20
-4.2879011417322834
11
5.8646475196850396
21
-4.4182161023622042
0
LINE
8
BLACK
6
CONTINUOUS
10
5.8646475196850396
20
-4.4182161023622042
11
5.9374821653543304
21
-4.4182161023622042
0
LINE
8
BLACK
6
CONTINUOUS
10
5.9374821653543304
20
-4.4182161023622042
11
5.9374821653543304
21
-4.2879011417322834
0
LINE
8
BLACK
6
CONTINUOUS
10
5.9374821653543304
20
-4.2879011417322834
11
5.8646475196850396
21
-4.2879011417322834
0
LINE
8
BLACK
6
CONTINUOUS
10
6.0384664173228346
20
-4.2859326377952751
11
6.0391624015748029
21
-4.2862209055118106
0
LINE
8
BLACK
6
CONTINUOUS
10
6.0391624015748029
20
-4.2862209055118106
11
6.0394506692913383
21
-4.2869168897637797
0
LINE
8
BLACK
6
CONTINUOUS
10
6.0394506692913383
20
-4.2869168897637797
11
6.0394506692913383
21
-4.4192003543307088
0
LINE
8
BLACK
6
CONTINUOUS
10
6.0394506692913383
20
-4.4192003543307088
11
6.0391624015748029
21
-4.4198963385826771
0
LINE
8
BLACK
6
CONTINUOUS
10
6.0391624015748029
20
-4.4198963385826771
11
6.0384664173228346
21
-4.4201846062992125
0
LINE
8
BLACK
6
CONTINUOUS
10
6.0384664173228346
20
-4.4201846062992125
11
5.9636632677165355
21
-4.4201846062992125
0
LINE
8
BLACK
6
CONTINUOUS
10
5.9636632677165355
20
-4.4201846062992125
11
5.9629672834645664
21
-4.4198963385826771
0
LINE
8
BLACK
6
CONTINUOUS
10
5.9629672834645664
20
-4.4198963385826771
11
5.9626790157480309
21
-4.4192003543307088
0
LINE
8
BLACK
6
CONTINUOUS
10
5.9626790157480309
20
-4.4192003543307088
11
5.9626790157480309
21
-4.2869168897637797
0
LINE
8
BLACK
6
CONTINUOUS
10
5.9626790157480309
20
-4.2869168897637797
11
5.9629672834645664
21
-4.2862209055118106
0
LINE
8
BLACK
6
CONTINUOUS
10
5.9629672834645664
20
-4.2862209055118106
11
5.9636632677165355
21
-4.2859326377952751
0
LINE
8
BLACK
6
CONTINUOUS
10
5.9636632677165355
20
-4.2859326377952751
11
6.0384664173228346
21
-4.2859326377952751
0
LINE
8
BLACK
6
CONTINUOUS
10
5.9646475196850393
20
-4.2879011417322834
11
5.9646475196850393
21
-4.4182161023622042
0
LINE
8
BLACK
6
CONTINUOUS
10
5.9646475196850393
20
-4.4182161023622042
11
6.0374821653543309
21
-4.4182161023622042
0
LINE
8
BLACK
6
CONTINUOUS
10
6.0374821653543309
20
-4.4182161023622042
11
6.0374821653543309
21
-4.2879011417322834
0
LINE
8
BLACK
6
CONTINUOUS
10
6.0374821653543309
20
-4.2879011417322834
11
5.9646475196850393
21
-4.2879011417322834
0
LINE
8
BLACK
6
CONTINUOUS
10
6.1384664173228343
20
-4.2859326377952751
11
6.1391624015748034
21
-4.2862209055118106
0
LINE
8
BLACK
6
CONTINUOUS
10
6.1391624015748034
20
-4.2862209055118106
11
6.1394506692913389
21
-4.2869168897637797
0
LINE
8
BLACK
6
CONTINUOUS
10
6.1394506692913389
20
-4.2869168897637797
11
6.1394506692913389
21
-4.4192003543307088
0
LINE
8
BLACK
6
CONTINUOUS
10
6.1394506692913389
20
-4.4192003543307088
11
6.1391624015748034
21
-4.4198963385826771
0
LINE
8
BLACK
6
CONTINUOUS
10
6.1391624015748034
20
-4.4198963385826771
11
6.1384664173228343
21
-4.4201846062992125
0
LINE
8
BLACK
6
CONTINUOUS
10
6.1384664173228343
20
-4.4201846062992125
11
6.0636632677165352
21
-4.4201846062992125
0
LINE
8
BLACK
6
CONTINUOUS
10
6.0636632677165352
20
-4.4201846062992125
11
6.0629672834645669
21
-4.4198963385826771
0
LINE
8
BLACK
6
CONTINUOUS
10
6.0629672834645669
20
-4.4198963385826771
11
6.0626790157480315
21
-4.4192003543307088
0
LINE
8
BLACK
6
CONTINUOUS
10
6.0626790157480315
20
-4.4192003543307088
11
6.0626790157480315
21
-4.2869168897637797
0
LINE
8
BLACK
6
CONTINUOUS
10
6.0626790157480315
20
-4.2869168897637797
11
6.0629672834645669
21
-4.2862209055118106
0
LINE
8
BLACK
6
CONTINUOUS
10
6.0629672834645669
20
-4.2862209055118106
11
6.0636632677165352
21
-4.2859326377952751
0
LINE
8
BLACK
6
CONTINUOUS
10
6.0636632677165352
20
-4.2859326377952751
11
6.1384664173228343
21
-4.2859326377952751
0
LINE
8
BLACK
6
CONTINUOUS
10
6.0646475196850389
20
-4.2879011417322834
11
6.0646475196850389
21
-4.4182161023622042
0
LINE
8
BLACK
6
CONTINUOUS
10
6.0646475196850389
20
-4.4182161023622042
11
6.1374821653543306
21
-4.4182161023622042
0
LINE
8
BLACK
6
CONTINUOUS
10
6.1374821653543306
20
-4.4182161023622042
11
6.1374821653543306
21
-4.2879011417322834
0
LINE
8
BLACK
6
CONTINUOUS
10
6.1374821653543306
20
-4.2879011417322834
11
6.0646475196850389
21
-4.2879011417322834
0
LINE
8
BLACK
6
CONTINUOUS
10
6.2384664173228348
20
-4.2859326377952751
11
6.2391624015748031
21
-4.2862209055118106
0
LINE
8
BLACK
6
CONTINUOUS
10
6.2391624015748031
20
-4.2862209055118106
11
6.2394506692913385
21
-4.2869168897637797
0
LINE
8
BLACK
6
CONTINUOUS
10
6.2394506692913385
20
-4.2869168897637797
11
6.2394506692913385
21
-4.4192003543307088
0
LINE
8
BLACK
6
CONTINUOUS
10
6.2394506692913385
20
-4.4192003543307088
11
6.2391624015748031
21
-4.4198963385826771
0
LINE
8
BLACK
6
CONTINUOUS
10
6.2391624015748031
20
-4.4198963385826771
11
6.2384664173228348
21
-4.4201846062992125
0
LINE
8
BLACK
6
CONTINUOUS
10
6.2384664173228348
20
-4.4201846062992125
11
6.1636632677165357
21
-4.4201846062992125
0
LINE
8
BLACK
6
CONTINUOUS
10
6.1636632677165357
20
-4.4201846062992125
11
6.1629672834645666
21
-4.4198963385826771
0
LINE
8
BLACK
6
CONTINUOUS
10
6.1629672834645666
20
-4.4198963385826771
11
6.1626790157480311
21
-4.4192003543307088
0
LINE
8
BLACK
6
CONTINUOUS
10
6.1626790157480311
20
-4.4192003543307088
11
6.1626790157480311
21
-4.2869168897637797
0
LINE
8
BLACK
6
CONTINUOUS
10
6.1626790157480311
20
-4.2869168897637797
11
6.1629672834645666
21
-4.2862209055118106
0
LINE
8
BLACK
6
CONTINUOUS
10
6.1629672834645666
20
-4.2862209055118106
11
6.1636632677165357
21
-4.2859326377952751
0
LINE
8
BLACK
6
CONTINUOUS
10
6.1636632677165357
20
-4.2859326377952751
11
6.2384664173228348
21
-4.2859326377952751
0
LINE
8
BLACK
6
CONTINUOUS
10
6.1646475196850394
20
-4.2879011417322834
11
6.1646475196850394
21
-4.4182161023622042
0
LINE
8
BLACK
6
CONTINUOUS
10
6.1646475196850394
20
-4.4182161023622042
11
6.2374821653543302
21
-4.4182161023622042
0
LINE
8
BLACK
6
CONTINUOUS
10
6.2374821653543302
20
-4.4182161023622042
11
6.2374821653543302
21
-4.2879011417322834
0
LINE
8
BLACK
6
CONTINUOUS
10
6.2374821653543302
20
-4.2879011417322834
11
6.1646475196850394
21
-4.2879011417322834
0
LINE
8
BLACK
6
CONTINUOUS
10
6.6329939763779526
20
-4.248176732283464
11
6.6336899606299209
21
-4.2484649999999995
0
LINE
8
BLACK
6
CONTINUOUS
10
6.6336899606299209
20
-4.2484649999999995
11
6.6339782283464563
21
-4.2491609842519686
0
LINE
8
BLACK
6
CONTINUOUS
10
6.6339782283464563
20
-4.2491609842519686
11
6.6339782283464563
21
-4.3869562598425196
0
LINE
8
BLACK
6
CONTINUOUS
10
6.6339782283464563
20
-4.3869562598425196
11
6.6336899606299209
21
-4.3876522440944878
0
LINE
8
BLACK
6
CONTINUOUS
10
6.6336899606299209
20
-4.3876522440944878
11
6.6329939763779526
21
-4.3879405118110233
0
LINE
8
BLACK
6
CONTINUOUS
10
6.6329939763779526
20
-4.3879405118110233
11
6.4991357086614174
21
-4.3879405118110233
0
LINE
8
BLACK
6
CONTINUOUS
10
6.4991357086614174
20
-4.3879405118110233
11
6.4984397244094483
21
-4.3876522440944878
0
LINE
8
BLACK
6
CONTINUOUS
10
6.4984397244094483
20
-4.3876522440944878
11
6.4981514566929128
21
-4.3869562598425196
0
LINE
8
BLACK
6
CONTINUOUS
10
6.4981514566929128
20
-4.3869562598425196
11
6.4981514566929128
21
-4.2491609842519686
0
LINE
8
BLACK
6
CONTINUOUS
10
6.4981514566929128
20
-4.2491609842519686
11
6.4984397244094483
21
-4.2484649999999995
0
LINE
8
BLACK
6
CONTINUOUS
10
6.4984397244094483
20
-4.2484649999999995
11
6.4991357086614174
21
-4.248176732283464
0
LINE
8
BLACK
6
CONTINUOUS
10
6.4991357086614174
20
-4.248176732283464
11
6.6329939763779526
21
-4.248176732283464
0
LINE
8
BLACK
6
CONTINUOUS
10
6.5001199606299211
20
-4.2501452362204724
11
6.5001199606299211
21
-4.3859720078740159
0
LINE
8
BLACK
6
CONTINUOUS
10
6.5001199606299211
20
-4.3859720078740159
11
6.6320097244094489
21
-4.3859720078740159
0
LINE
8
BLACK
6
CONTINUOUS
10
6.6320097244094489
20
-4.3859720078740159
11
6.6320097244094489
21
-4.2501452362204724
0
LINE
8
BLACK
6
CONTINUOUS
10
6.6320097244094489
20
-4.2501452362204724
11
6.5001199606299211
21
-4.2501452362204724
0
LINE
8
BLACK
6
CONTINUOUS
10
6.782993976377953
20
-4.248176732283464
11
6.7836899606299212
21
-4.2484649999999995
0
LINE
8
BLACK
6
CONTINUOUS
10
6.7836899606299212
20
-4.2484649999999995
11
6.7839782283464567
21
-4.2491609842519686
0
LINE
8
BLACK
6
CONTINUOUS
10
6.7839782283464567
20
-4.2491609842519686
11
6.7839782283464567
21
-4.3869562598425196
0
LINE
8
BLACK
6
CONTINUOUS
10
6.7839782283464567
20
-4.3869562598425196
11
6.7836899606299212
21
-4.3876522440944878
0
LINE
8
BLACK
6
CONTINUOUS
10
6.7836899606299212
20
-4.3876522440944878
11
6.782993976377953
21
-4.3879405118110233
0
LINE
8
BLACK
6
CONTINUOUS
10
6.782993976377953
20
-4.3879405118110233
11
6.6491357086614169
21
-4.3879405118110233
0
LINE
8
BLACK
6
CONTINUOUS
10
6.6491357086614169
20
-4.3879405118110233
11
6.6484397244094486
21
-4.3876522440944878
0
LINE
8
BLACK
6
CONTINUOUS
10
6.6484397244094486
20
-4.3876522440944878
11
6.6481514566929132
21
-4.3869562598425196
0
LINE
8
BLACK
6
CONTINUOUS
10
6.6481514566929132
20
-4.3869562598425196
11
6.6481514566929132
21
-4.2491609842519686
0
LINE
8
BLACK
6
CONTINUOUS
10
6.6481514566929132
20
-4.2491609842519686
11
6.6484397244094486
21
-4.2484649999999995
0
LINE
8
BLACK
6
CONTINUOUS
10
6.6484397244094486
20
-4.2484649999999995
11
6.6491357086614169
21
-4.248176732283464
0
LINE
8
BLACK
6
CONTINUOUS
10
6.6491357086614169
20
-4.248176732283464
11
6.782993976377953
21
-4.248176732283464
0
LINE
8
BLACK
6
CONTINUOUS
10
6.6501199606299215
20
-4.2501452362204724
11
6.6501199606299215
21
-4.3859720078740159
0
LINE
8
BLACK
6
CONTINUOUS
10
6.6501199606299215
20
-4.3859720078740159
11
6.7820097244094484
21
-4.3859720078740159
0
LINE
8
BLACK
6
CONTINUOUS
10
6.7820097244094484
20
-4.3859720078740159
11
6.7820097244094484
21
-4.2501452362204724
0
LINE
8
BLACK
6
CONTINUOUS
10
6.7820097244094484
20
-4.2501452362204724
11
6.6501199606299215
21
-4.2501452362204724
0
LINE
8
BLACK
6
CONTINUOUS
10
6.4447065748031491
20
-4.1466535433070861
11
6.4454025590551183
21
-4.1469418110236216
0
LINE
8
BLACK
6
CONTINUOUS
10
6.4454025590551183
20
-4.1469418110236216
11
6.4456908267716537
21
-4.1476377952755907
0
LINE
8
BLACK
6
CONTINUOUS
10
6.4456908267716537
20
-4.1476377952755907
11
6.4456908267716537
21
-4.2224409448818898
0
LINE
8
BLACK
6
CONTINUOUS
10
6.4456908267716537
20
-4.2224409448818898
11
6.4454025590551183
21
-4.2231369291338581
0
LINE
8
BLACK
6
CONTINUOUS
10
6.4454025590551183
20
-4.2231369291338581
11
6.4447065748031491
21
-4.2234251968503935
0
LINE
8
BLACK
6
CONTINUOUS
10
6.4447065748031491
20
-4.2234251968503935
11
6.31242311023622
21
-4.2234251968503935
0
LINE
8
BLACK
6
CONTINUOUS
10
6.31242311023622
20
-4.2234251968503935
11
6.3117271259842518
21
-4.2231369291338581
0
LINE
8
BLACK
6
CONTINUOUS
10
6.3117271259842518
20
-4.2231369291338581
11
6.3114388582677163
21
-4.2224409448818898
0
LINE
8
BLACK
6
CONTINUOUS
10
6.3114388582677163
20
-4.2224409448818898
11
6.3114388582677163
21
-4.1476377952755907
0
LINE
8
BLACK
6
CONTINUOUS
10
6.3114388582677163
20
-4.1476377952755907
11
6.3117271259842518
21
-4.1469418110236216
0
LINE
8
BLACK
6
CONTINUOUS
10
6.3117271259842518
20
-4.1469418110236216
11
6.31242311023622
21
-4.1466535433070861
0
LINE
8
BLACK
6
CONTINUOUS
10
6.31242311023622
20
-4.1466535433070861
11
6.4447065748031491
21
-4.1466535433070861
0
LINE
8
BLACK
6
CONTINUOUS
10
6.3134073622047246
20
-4.1486220472440944
11
6.3134073622047246
21
-4.2214566929133861
0
LINE
8
BLACK
6
CONTINUOUS
10
6.3134073622047246
20
-4.2214566929133861
11
6.4437223228346454
21
-4.2214566929133861
0
LINE
8
BLACK
6
CONTINUOUS
10
6.4437223228346454
20
-4.2214566929133861
11
6.4437223228346454
21
-4.1486220472440944
0
LINE
8
BLACK
6
CONTINUOUS
10
6.4437223228346454
20
-4.1486220472440944
11
6.3134073622047246
21
-4.1486220472440944
0
LINE
8
BLACK
6
CONTINUOUS
10
6.0034270472440943
20
-3.8997121653543307
11
6.0041230314960625
21
-3.9000004330708662
0
LINE
8
BLACK
6
CONTINUOUS
10
6.0041230314960625
20
-3.9000004330708662
11
6.004411299212598
21
-3.9006964173228345
0
LINE
8
BLACK
6
CONTINUOUS
10
6.004411299212598
20
-3.9006964173228345
11
6.004411299212598
21
-4.1054208267716534
0
LINE
8
BLACK
6
CONTINUOUS
10
6.004411299212598
20
-4.1054208267716534
11
6.0041230314960625
21
-4.1061168110236217
0
LINE
8
BLACK
6
CONTINUOUS
10
6.0041230314960625
20
-4.1061168110236217
11
6.0034270472440943
21
-4.1064050787401571
0
LINE
8
BLACK
6
CONTINUOUS
10
6.0034270472440943
20
-4.1064050787401571
11
5.7987026377952757
21
-4.1064050787401571
0
LINE
8
BLACK
6
CONTINUOUS
10
5.7987026377952757
20
-4.1064050787401571
11
5.7980066535433066
21
-4.1061168110236217
0
LINE
8
BLACK
6
CONTINUOUS
10
5.7980066535433066
20
-4.1061168110236217
11
5.7977183858267711
21
-4.1054208267716534
0
LINE
8
BLACK
6
CONTINUOUS
10
5.7977183858267711
20
-4.1054208267716534
11
5.7977183858267711
21
-3.9006964173228345
0
LINE
8
BLACK
6
CONTINUOUS
10
5.7977183858267711
20
-3.9006964173228345
11
5.7980066535433066
21
-3.9000004330708662
0
LINE
8
BLACK
6
CONTINUOUS
10
5.7980066535433066
20
-3.9000004330708662
11
5.7987026377952757
21
-3.8997121653543307
0
LINE
8
BLACK
6
CONTINUOUS
10
5.7987026377952757
20
-3.8997121653543307
11
6.0034270472440943
21
-3.8997121653543307
0
LINE
8
BLACK
6
CONTINUOUS
10
5.7996868897637794
20
-3.9016806692913386
11
5.7996868897637794
21
-4.1044365748031497
0
LINE
8
BLACK
6
CONTINUOUS
10
5.7996868897637794
20
-4.1044365748031497
11
6.0024427952755905
21
-4.1044365748031497
0
LINE
8
BLACK
6
CONTINUOUS
10
6.0024427952755905
20
-4.1044365748031497
11
6.0024427952755905
21
-3.9016806692913386
0
LINE
8
BLACK
6
CONTINUOUS
10
6.0024427952755905
20
-3.9016806692913386
11
5.7996868897637794
21
-3.9016806692913386
0
LINE
8
BLACK
6
CONTINUOUS
10
6.3345294094488187
20
-3.9581767322834644
11
6.335225393700787
21
-3.9584649999999999
0
LINE
8
BLACK
6
CONTINUOUS
10
6.335225393700787
20
-3.9584649999999999
11
6.3355136614173224
21
-3.9591609842519686
0
LINE
8
BLACK
6
CONTINUOUS
10
6.3355136614173224
20
-3.9591609842519686
11
6.3355136614173224
21
-4.0969562598425195
0
LINE
8
BLACK
6
CONTINUOUS
10
6.3355136614173224
20
-4.0969562598425195
11
6.335225393700787
21
-4.0976522440944878
0
LINE
8
BLACK
6
CONTINUOUS
10
6.335225393700787
20
-4.0976522440944878
11
6.3345294094488187
21
-4.0979405118110233
0
LINE
8
BLACK
6
CONTINUOUS
10
6.3345294094488187
20
-4.0979405118110233
11
6.2676002755905511
21
-4.0979405118110233
0
LINE
8
BLACK
6
CONTINUOUS
10
6.2676002755905511
20
-4.0979405118110233
11
6.2669042913385828
21
-4.0976522440944878
0
LINE
8
BLACK
6
CONTINUOUS
10
6.2669042913385828
20
-4.0976522440944878
11
6.2666160236220474
21
-4.0969562598425195
0
LINE
8
BLACK
6
CONTINUOUS
10
6.2666160236220474
20
-4.0969562598425195
11
6.2666160236220474
21
-3.9591609842519686
0
LINE
8
BLACK
6
CONTINUOUS
10
6.2666160236220474
20
-3.9591609842519686
11
6.2669042913385828
21
-3.9584649999999999
0
LINE
8
BLACK
6
CONTINUOUS
10
6.2669042913385828
20
-3.9584649999999999
11
6.2676002755905511
21
-3.9581767322834644
0
LINE
8
BLACK
6
CONTINUOUS
10
6.2676002755905511
20
-3.9581767322834644
11
6.3345294094488187
21
-3.9581767322834644
0
LINE
8
BLACK
6
CONTINUOUS
10
6.2685845275590548
20
-3.9601452362204723
11
6.2685845275590548
21
-4.0959720078740158
0
LINE
8
BLACK
6
CONTINUOUS
10
6.2685845275590548
20
-4.0959720078740158
11
6.333545157480315
21
-4.0959720078740158
0
LINE
8
BLACK
6
CONTINUOUS
10
6.333545157480315
20
-4.0959720078740158
11
6.333545157480315
21
-3.9601452362204723
0
LINE
8
BLACK
6
CONTINUOUS
10
6.333545157480315
20
-3.9601452362204723
11
6.2685845275590548
21
-3.9601452362204723
0
LINE
8
BLACK
6
CONTINUOUS
10
6.2396475196850396
20
-3.8851452362204721
11
6.2403435039370079
21
-3.8854335039370076
0
LINE
8
BLACK
6
CONTINUOUS
10
6.2403435039370079
20
-3.8854335039370076
11
6.2406317716535433
21
-3.8861294881889763
0
LINE
8
BLACK
6
CONTINUOUS
10
6.2406317716535433
20
-3.8861294881889763
11
6.2406317716535433
21
-4.0199877559055119
0
LINE
8
BLACK
6
CONTINUOUS
10
6.2406317716535433
20
-4.0199877559055119
11
6.2403435039370079
21
-4.0206837401574802
0
LINE
8
BLACK
6
CONTINUOUS
10
6.2403435039370079
20
-4.0206837401574802
11
6.2396475196850396
21
-4.0209720078740157
0
LINE
8
BLACK
6
CONTINUOUS
10
6.2396475196850396
20
-4.0209720078740157
11
6.1624821653543309
21
-4.0209720078740157
0
LINE
8
BLACK
6
CONTINUOUS
10
6.1624821653543309
20
-4.0209720078740157
11
6.1617861811023618
21
-4.0206837401574802
0
LINE
8
BLACK
6
CONTINUOUS
10
6.1617861811023618
20
-4.0206837401574802
11
6.1614979133858263
21
-4.0199877559055119
0
LINE
8
BLACK
6
CONTINUOUS
10
6.1614979133858263
20
-4.0199877559055119
11
6.1614979133858263
21
-3.8861294881889763
0
LINE
8
BLACK
6
CONTINUOUS
10
6.1614979133858263
20
-3.8861294881889763
11
6.1617861811023618
21
-3.8854335039370076
0
LINE
8
BLACK
6
CONTINUOUS
10
6.1617861811023618
20
-3.8854335039370076
11
6.1624821653543309
21
-3.8851452362204721
0
LINE
8
BLACK
6
CONTINUOUS
10
6.1624821653543309
20
-3.8851452362204721
11
6.2396475196850396
21
-3.8851452362204721
0
LINE
8
BLACK
6
CONTINUOUS
10
6.1634664173228346
20
-3.88711374015748
11
6.1634664173228346
21
-4.0190035039370082
0
LINE
8
BLACK
6
CONTINUOUS
10
6.1634664173228346
20
-4.0190035039370082
11
6.238663267716535
21
-4.0190035039370082
0
LINE
8
BLACK
6
CONTINUOUS
10
6.238663267716535
20
-4.0190035039370082
11
6.238663267716535
21
-3.88711374015748
0
LINE
8
BLACK
6
CONTINUOUS
10
6.238663267716535
20
-3.88711374015748
11
6.1634664173228346
21
-3.88711374015748
0
LINE
8
BLACK
6
CONTINUOUS
10
6.8422065748031491
20
-3.8796727952755905
11
6.8429025590551182
21
-3.879961062992126
0
LINE
8
BLACK
6
CONTINUOUS
10
6.8429025590551182
20
-3.879961062992126
11
6.8431908267716537
21
-3.8806570472440942
0
LINE
8
BLACK
6
CONTINUOUS
10
6.8431908267716537
20
-3.8806570472440942
11
6.8431908267716537
21
-3.9554601968503937
0
LINE
8
BLACK
6
CONTINUOUS
10
6.8431908267716537
20
-3.9554601968503937
11
6.8429025590551182
21
-3.956156181102362
0
LINE
8
BLACK
6
CONTINUOUS
10
6.8429025590551182
20
-3.956156181102362
11
6.8422065748031491
21
-3.9564444488188975
0
LINE
8
BLACK
6
CONTINUOUS
10
6.8422065748031491
20
-3.9564444488188975
11
6.70992311023622
21
-3.9564444488188975
0
LINE
8
BLACK
6
CONTINUOUS
10
6.70992311023622
20
-3.9564444488188975
11
6.7092271259842517
21
-3.956156181102362
0
LINE
8
BLACK
6
CONTINUOUS
10
6.7092271259842517
20
-3.956156181102362
11
6.7089388582677163
21
-3.9554601968503937
0
LINE
8
BLACK
6
CONTINUOUS
10
6.7089388582677163
20
-3.9554601968503937
11
6.7089388582677163
21
-3.8806570472440942
0
LINE
8
BLACK
6
CONTINUOUS
10
6.7089388582677163
20
-3.8806570472440942
11
6.7092271259842517
21
-3.879961062992126
0
LINE
8
BLACK
6
CONTINUOUS
10
6.7092271259842517
20
-3.879961062992126
11
6.70992311023622
21
-3.8796727952755905
0
LINE
8
BLACK
6
CONTINUOUS
10
6.70992311023622
20
-3.8796727952755905
11
6.8422065748031491
21
-3.8796727952755905
0
LINE
8
BLACK
6
CONTINUOUS
10
6.7109073622047246
20
-3.8816412992125984
11
6.7109073622047246
21
-3.9544759448818896
0
LINE
8
BLACK
6
CONTINUOUS
10
6.7109073622047246
20
-3.9544759448818896
11
6.8412223228346454
21
-3.9544759448818896
0
LINE
8
BLACK
6
CONTINUOUS
10
6.8412223228346454
20
-3.9544759448818896
11
6.8412223228346454
21
-3.8816412992125984
0
LINE
8
BLACK
6
CONTINUOUS
10
6.8412223228346454
20
-3.8816412992125984
11
6.7109073622047246
21
-3.8816412992125984
0
LINE
8
BLACK
6
CONTINUOUS
10
6.3999624803149606
20
-3.8846098031496061
11
6.4006584645669289
21
-3.8848980708661416
0
LINE
8
BLACK
6
CONTINUOUS
10
6.4006584645669289
20
-3.8848980708661416
11
6.4009467322834643
21
-3.8855940551181103
0
LINE
8
BLACK
6
CONTINUOUS
10
6.4009467322834643
20
-3.8855940551181103
11
6.4009467322834643
21
-3.9525231889763779
0
LINE
8
BLACK
6
CONTINUOUS
10
6.4009467322834643
20
-3.9525231889763779
11
6.4006584645669289
21
-3.9532191732283462
0
LINE
8
BLACK
6
CONTINUOUS
10
6.4006584645669289
20
-3.9532191732283462
11
6.3999624803149606
21
-3.9535074409448816
0
LINE
8
BLACK
6
CONTINUOUS
10
6.3999624803149606
20
-3.9535074409448816
11
6.2621672047244097
21
-3.9535074409448816
0
LINE
8
BLACK
6
CONTINUOUS
10
6.2621672047244097
20
-3.9535074409448816
11
6.2614712204724405
21
-3.9532191732283462
0
LINE
8
BLACK
6
CONTINUOUS
10
6.2614712204724405
20
-3.9532191732283462
11
6.2611829527559051
21
-3.9525231889763779
0
LINE
8
BLACK
6
CONTINUOUS
10
6.2611829527559051
20
-3.9525231889763779
11
6.2611829527559051
21
-3.8855940551181103
0
LINE
8
BLACK
6
CONTINUOUS
10
6.2611829527559051
20
-3.8855940551181103
11
6.2614712204724405
21
-3.8848980708661416
0
LINE
8
BLACK
6
CONTINUOUS
10
6.2614712204724405
20
-3.8848980708661416
11
6.2621672047244097
21
-3.8846098031496061
0
LINE
8
BLACK
6
CONTINUOUS
10
6.2621672047244097
20
-3.8846098031496061
11
6.3999624803149606
21
-3.8846098031496061
0
LINE
8
BLACK
6
CONTINUOUS
10
6.2631514566929134
20
-3.886578307086614
11
6.2631514566929134
21
-3.9515389370078737
0
LINE
8
BLACK
6
CONTINUOUS
10
6.2631514566929134
20
-3.9515389370078737
11
6.3989782283464569
21
-3.9515389370078737
0
LINE
8
BLACK
6
CONTINUOUS
10
6.3989782283464569
20
-3.9515389370078737
11
6.3989782283464569
21
-3.886578307086614
0
LINE
8
BLACK
6
CONTINUOUS
10
6.3989782283464569
20
-3.886578307086614
11
6.2631514566929134
21
-3.886578307086614
0
LINE
8
BLACK
6
CONTINUOUS
10
6.5499624803149601
20
-3.8846098031496061
11
6.5506584645669292
21
-3.8848980708661416
0
LINE
8
BLACK
6
CONTINUOUS
10
6.5506584645669292
20
-3.8848980708661416
11
6.5509467322834647
21
-3.8855940551181103
0
LINE
8
BLACK
6
CONTINUOUS
10
6.5509467322834647
20
-3.8855940551181103
11
6.5509467322834647
21
-3.9525231889763779
0
LINE
8
BLACK
6
CONTINUOUS
10
6.5509467322834647
20
-3.9525231889763779
11
6.5506584645669292
21
-3.9532191732283462
0
LINE
8
BLACK
6
CONTINUOUS
10
6.5506584645669292
20
-3.9532191732283462
11
6.5499624803149601
21
-3.9535074409448816
0
LINE
8
BLACK
6
CONTINUOUS
10
6.5499624803149601
20
-3.9535074409448816
11
6.4121672047244092
21
-3.9535074409448816
0
LINE
8
BLACK
6
CONTINUOUS
10
6.4121672047244092
20
-3.9535074409448816
11
6.4114712204724409
21
-3.9532191732283462
0
LINE
8
BLACK
6
CONTINUOUS
10
6.4114712204724409
20
-3.9532191732283462
11
6.4111829527559054
21
-3.9525231889763779
0
LINE
8
BLACK
6
CONTINUOUS
10
6.4111829527559054
20
-3.9525231889763779
11
6.4111829527559054
21
-3.8855940551181103
0
LINE
8
BLACK
6
CONTINUOUS
10
6.4111829527559054
20
-3.8855940551181103
11
6.4114712204724409
21
-3.8848980708661416
0
LINE
8
BLACK
6
CONTINUOUS
10
6.4114712204724409
20
-3.8848980708661416
11
6.4121672047244092
21
-3.8846098031496061
0
LINE
8
BLACK
6
CONTINUOUS
10
6.4121672047244092
20
-3.8846098031496061
11
6.5499624803149601
21
-3.8846098031496061
0
LINE
8
BLACK
6
CONTINUOUS
10
6.4131514566929129
20
-3.886578307086614
11
6.4131514566929129
21
-3.9515389370078737
0
LINE
8
BLACK
6
CONTINUOUS
10
6.4131514566929129
20
-3.9515389370078737
11
6.5489782283464564
21
-3.9515389370078737
0
LINE
8
BLACK
6
CONTINUOUS
10
6.5489782283464564
20
-3.9515389370078737
11
6.5489782283464564
21
-3.886578307086614
0
LINE
8
BLACK
6
CONTINUOUS
10
6.5489782283464564
20
-3.886578307086614
11
6.4131514566929129
21
-3.886578307086614
0
LINE
8
BLACK
6
CONTINUOUS
10
6.6999624803149604
20
-3.8846098031496061
11
6.7006584645669287
21
-3.8848980708661416
0
LINE
8
BLACK
6
CONTINUOUS
10
6.7006584645669287
20
-3.8848980708661416
11
6.7009467322834642
21
-3.8855940551181103
0
LINE
8
BLACK
6
CONTINUOUS
10
6.7009467322834642
20
-3.8855940551181103
11
6.7009467322834642
21
-3.9525231889763779
0
LINE
8
BLACK
6
CONTINUOUS
10
6.7009467322834642
20
-3.9525231889763779
11
6.7006584645669287
21
-3.9532191732283462
0
LINE
8
BLACK
6
CONTINUOUS
10
6.7006584645669287
20
-3.9532191732283462
11
6.6999624803149604
21
-3.9535074409448816
0
LINE
8
BLACK
6
CONTINUOUS
10
6.6999624803149604
20
-3.9535074409448816
11
6.5621672047244095
21
-3.9535074409448816
0
LINE
8
BLACK
6
CONTINUOUS
10
6.5621672047244095
20
-3.9535074409448816
11
6.5614712204724404
21
-3.9532191732283462
0
LINE
8
BLACK
6
CONTINUOUS
10
6.5614712204724404
20
-3.9532191732283462
11
6.5611829527559058
21
-3.9525231889763779
0
LINE
8
BLACK
6
CONTINUOUS
10
6.5611829527559058
20
-3.9525231889763779
11
6.5611829527559058
21
-3.8855940551181103
0
LINE
8
BLACK
6
CONTINUOUS
10
6.5611829527559058
20
-3.8855940551181103
11
6.5614712204724404
21
-3.8848980708661416
0
LINE
8
BLACK
6
CONTINUOUS
10
6.5614712204724404
20
-3.8848980708661416
11
6.5621672047244095
21
-3.8846098031496061
0
LINE
8
BLACK
6
CONTINUOUS
10
6.5621672047244095
20
-3.8846098031496061
11
6.6999624803149604
21
-3.8846098031496061
0
LINE
8
BLACK
6
CONTINUOUS
10
6.5631514566929132
20
-3.886578307086614
11
6.5631514566929132
21
-3.9515389370078737
0
LINE
8
BLACK
6
CONTINUOUS
10
6.5631514566929132
20
-3.9515389370078737
11
6.6989782283464567
21
-3.9515389370078737
0
LINE
8
BLACK
6
CONTINUOUS
10
6.6989782283464567
20
-3.9515389370078737
11
6.6989782283464567
21
-3.886578307086614
0
LINE
8
BLACK
6
CONTINUOUS
10
6.6989782283464567
20
-3.886578307086614
11
6.5631514566929132
21
-3.886578307086614
0
LINE
8
BLACK
6
CONTINUOUS
10
5.1943719291338581
20
-3.6477436614173229
11
5.1950679133858264
21
-3.6480319291338583
0
LINE
8
BLACK
6
CONTINUOUS
10
5.1950679133858264
20
-3.6480319291338583
11
5.1953561811023619
21
-3.6487279133858266
0
LINE
8
BLACK
6
CONTINUOUS
10
5.1953561811023619
20
-3.6487279133858266
11
5.1953561811023619
21
-3.8573893307086613
0
LINE
8
BLACK
6
CONTINUOUS
10
5.1953561811023619
20
-3.8573893307086613
11
5.1950679133858264
21
-3.85808531496063
0
LINE
8
BLACK
6
CONTINUOUS
10
5.1950679133858264
20
-3.85808531496063
11
5.1943719291338581
21
-3.8583735826771655
0
LINE
8
BLACK
6
CONTINUOUS
10
5.1943719291338581
20
-3.8583735826771655
11
5.1077577559055118
21
-3.8583735826771655
0
LINE
8
BLACK
6
CONTINUOUS
10
5.1077577559055118
20
-3.8583735826771655
11
5.1070617716535436
21
-3.85808531496063
0
LINE
8
BLACK
6
CONTINUOUS
10
5.1070617716535436
20
-3.85808531496063
11
5.1067735039370081
21
-3.8573893307086613
0
LINE
8
BLACK
6
CONTINUOUS
10
5.1067735039370081
20
-3.8573893307086613
11
5.1067735039370081
21
-3.6487279133858266
0
LINE
8
BLACK
6
CONTINUOUS
10
5.1067735039370081
20
-3.6487279133858266
11
5.1070617716535436
21
-3.6480319291338583
0
LINE
8
BLACK
6
CONTINUOUS
10
5.1070617716535436
20
-3.6480319291338583
11
5.1077577559055118
21
-3.6477436614173229
0
LINE
8
BLACK
6
CONTINUOUS
10
5.1077577559055118
20
-3.6477436614173229
11
5.1943719291338581
21
-3.6477436614173229
0
LINE
8
BLACK
6
CONTINUOUS
10
5.1087420078740156
20
-3.6497121653543307
11
5.1087420078740156
21
-3.8564050787401576
0
LINE
8
BLACK
6
CONTINUOUS
10
5.1087420078740156
20
-3.8564050787401576
11
5.1933876771653544
21
-3.8564050787401576
0
LINE
8
BLACK
6
CONTINUOUS
10
5.1933876771653544
20
-3.8564050787401576
11
5.1933876771653544
21
-3.6497121653543307
0
LINE
8
BLACK
6
CONTINUOUS
10
5.1933876771653544
20
-3.6497121653543307
11
5.1087420078740156
21
-3.6497121653543307
0
LINE
8
BLACK
6
CONTINUOUS
10
6.8172065748031496
20
-3.7396727952755904
11
6.8179025590551179
21
-3.7399610629921258
0
LINE
8
BLACK
6
CONTINUOUS
10
6.8179025590551179
20
-3.7399610629921258
11
6.8181908267716533
21
-3.7406570472440945
0
LINE
8
BLACK
6
CONTINUOUS
10
6.8181908267716533
20
-3.7406570472440945
11
6.8181908267716533
21
-3.8154601968503936
0
LINE
8
BLACK
6
CONTINUOUS
10
6.8181908267716533
20
-3.8154601968503936
11
6.8179025590551179
21
-3.8161561811023623
0
LINE
8
BLACK
6
CONTINUOUS
10
6.8179025590551179
20
-3.8161561811023623
11
6.8172065748031496
21
-3.8164444488188978
0
LINE
8
BLACK
6
CONTINUOUS
10
6.8172065748031496
20
-3.8164444488188978
11
6.6849231102362205
21
-3.8164444488188978
0
LINE
8
BLACK
6
CONTINUOUS
10
6.6849231102362205
20
-3.8164444488188978
11
6.6842271259842514
21
-3.8161561811023623
0
LINE
8
BLACK
6
CONTINUOUS
10
6.6842271259842514
20
-3.8161561811023623
11
6.6839388582677159
21
-3.8154601968503936
0
LINE
8
BLACK
6
CONTINUOUS
10
6.6839388582677159
20
-3.8154601968503936
11
6.6839388582677159
21
-3.7406570472440945
0
LINE
8
BLACK
6
CONTINUOUS
10
6.6839388582677159
20
-3.7406570472440945
11
6.6842271259842514
21
-3.7399610629921258
0
LINE
8
BLACK
6
CONTINUOUS
10
6.6842271259842514
20
-3.7399610629921258
11
6.6849231102362205
21
-3.7396727952755904
0
LINE
8
BLACK
6
CONTINUOUS
10
6.6849231102362205
20
-3.7396727952755904
11
6.8172065748031496
21
-3.7396727952755904
0
LINE
8
BLACK
6
CONTINUOUS
10
6.6859073622047243
20
-3.7416412992125982
11
6.6859073622047243
21
-3.8144759448818895
0
LINE
8
BLACK
6
CONTINUOUS
10
6.6859073622047243
20
-3.8144759448818895
11
6.8162223228346459
21
-3.8144759448818895
0
LINE
8
BLACK
6
CONTINUOUS
10
6.8162223228346459
20
-3.8144759448818895
11
6.8162223228346459
21
-3.7416412992125982
0
LINE
8
BLACK
6
CONTINUOUS
10
6.8162223228346459
20
-3.7416412992125982
11
6.6859073622047243
21
-3.7416412992125982
0
LINE
8
BLACK
6
CONTINUOUS
10
6.5199624803149607
20
-3.7436098031496061
11
6.520658464566929
21
-3.7438980708661416
0
LINE
8
BLACK
6
CONTINUOUS
10
6.520658464566929
20
-3.7438980708661416
11
6.5209467322834644
21
-3.7445940551181103
0
LINE
8
BLACK
6
CONTINUOUS
10
6.5209467322834644
20
-3.7445940551181103
11
6.5209467322834644
21
-3.8115231889763779
0
LINE
8
BLACK
6
CONTINUOUS
10
6.5209467322834644
20
-3.8115231889763779
11
6.520658464566929
21
-3.8122191732283466
0
LINE
8
BLACK
6
CONTINUOUS
10
6.520658464566929
20
-3.8122191732283466
11
6.5199624803149607
21
-3.8125074409448816
0
LINE
8
BLACK
6
CONTINUOUS
10
6.5199624803149607
20
-3.8125074409448816
11
6.3821672047244089
21
-3.8125074409448816
0
LINE
8
BLACK
6
CONTINUOUS
10
6.3821672047244089
20
-3.8125074409448816
11
6.3814712204724406
21
-3.8122191732283466
0
LINE
8
BLACK
6
CONTINUOUS
10
6.3814712204724406
20
-3.8122191732283466
11
6.3811829527559052
21
-3.8115231889763779
0
LINE
8
BLACK
6
CONTINUOUS
10
6.3811829527559052
20
-3.8115231889763779
11
6.3811829527559052
21
-3.7445940551181103
0
LINE
8
BLACK
6
CONTINUOUS
10
6.3811829527559052
20
-3.7445940551181103
11
6.3814712204724406
21
-3.7438980708661416
0
LINE
8
BLACK
6
CONTINUOUS
10
6.3814712204724406
20
-3.7438980708661416
11
6.3821672047244089
21
-3.7436098031496061
0
LINE
8
BLACK
6
CONTINUOUS
10
6.3821672047244089
20
-3.7436098031496061
11
6.5199624803149607
21
-3.7436098031496061
0
LINE
8
BLACK
6
CONTINUOUS
10
6.3831514566929135
20
-3.745578307086614
11
6.3831514566929135
21
-3.8105389370078737
0
LINE
8
BLACK
6
CONTINUOUS
10
6.3831514566929135
20
-3.8105389370078737
11
6.5189782283464561
21
-3.8105389370078737
0
LINE
8
BLACK
6
CONTINUOUS
10
6.5189782283464561
20
-3.8105389370078737
11
6.5189782283464561
21
-3.745578307086614
0
LINE
8
BLACK
6
CONTINUOUS
10
6.5189782283464561
20
-3.745578307086614
11
6.3831514566929135
21
-3.745578307086614
0
LINE
8
BLACK
6
CONTINUOUS
10
6.6699624803149602
20
-3.7436098031496061
11
6.6706584645669293
21
-3.7438980708661416
0
LINE
8
BLACK
6
CONTINUOUS
10
6.6706584645669293
20
-3.7438980708661416
11
6.6709467322834648
21
-3.7445940551181103
0
LINE
8
BLACK
6
CONTINUOUS
10
6.6709467322834648
20
-3.7445940551181103
11
6.6709467322834648
21
-3.8115231889763779
0
LINE
8
BLACK
6
CONTINUOUS
10
6.6709467322834648
20
-3.8115231889763779
11
6.6706584645669293
21
-3.8122191732283466
0
LINE
8
BLACK
6
CONTINUOUS
10
6.6706584645669293
20
-3.8122191732283466
11
6.6699624803149602
21
-3.8125074409448816
0
LINE
8
BLACK
6
CONTINUOUS
10
6.6699624803149602
20
-3.8125074409448816
11
6.5321672047244093
21
-3.8125074409448816
0
LINE
8
BLACK
6
CONTINUOUS
10
6.5321672047244093
20
-3.8125074409448816
11
6.531471220472441
21
-3.8122191732283466
0
LINE
8
BLACK
6
CONTINUOUS
10
6.531471220472441
20
-3.8122191732283466
11
6.5311829527559055
21
-3.8115231889763779
0
LINE
8
BLACK
6
CONTINUOUS
10
6.5311829527559055
20
-3.8115231889763779
11
6.5311829527559055
21
-3.7445940551181103
0
LINE
8
BLACK
6
CONTINUOUS
10
6.5311829527559055
20
-3.7445940551181103
11
6.531471220472441
21
-3.7438980708661416
0
LINE
8
BLACK
6
CONTINUOUS
10
6.531471220472441
20
-3.7438980708661416
11
6.5321672047244093
21
-3.7436098031496061
0
LINE
8
BLACK
6
CONTINUOUS
10
6.5321672047244093
20
-3.7436098031496061
11
6.6699624803149602
21
-3.7436098031496061
0
LINE
8
BLACK
6
CONTINUOUS
10
6.533151456692913
20
-3.745578307086614
11
6.533151456692913
21
-3.8105389370078737
0
LINE
8
BLACK
6
CONTINUOUS
10
6.533151456692913
20
-3.8105389370078737
11
6.6689782283464565
21
-3.8105389370078737
0
LINE
8
BLACK
6
CONTINUOUS
10
6.6689782283464565
20
-3.8105389370078737
11
6.6689782283464565
21
-3.745578307086614
0
LINE
8
BLACK
6
CONTINUOUS
10
6.6689782283464565
20
-3.745578307086614
11
6.533151456692913
21
-3.745578307086614
0
LINE
8
BLACK
6
CONTINUOUS
10
6.0770490944881885
20
-3.6416412992125982
11
6.0777450787401577
21
-3.6419295669291336
0
LINE
8
BLACK
6
CONTINUOUS
10
6.0777450787401577
20
-3.6419295669291336
11
6.0780333464566931
21
-3.6426255511811023
0
LINE
8
BLACK
6
CONTINUOUS
10
6.0780333464566931
20
-3.6426255511811023
11
6.0780333464566931
21
-3.8079798818897639
0
LINE
8
BLACK
6
CONTINUOUS
10
6.0780333464566931
20
-3.8079798818897639
11
6.0777450787401577
21
-3.8086758661417321
0
LINE
8
BLACK
6
CONTINUOUS
10
6.0777450787401577
20
-3.8086758661417321
11
6.0770490944881885
21
-3.8089641338582676
0
LINE
8
BLACK
6
CONTINUOUS
10
6.0770490944881885
20
-3.8089641338582676
11
5.8250805905511811
21
-3.8089641338582676
0
LINE
8
BLACK
6
CONTINUOUS
10
5.8250805905511811
20
-3.8089641338582676
11
5.8243846062992128
21
-3.8086758661417321
0
LINE
8
BLACK
6
CONTINUOUS
10
5.8243846062992128
20
-3.8086758661417321
11
5.8240963385826774
21
-3.8079798818897639
0
LINE
8
BLACK
6
CONTINUOUS
10
5.8240963385826774
20
-3.8079798818897639
11
5.8240963385826774
21
-3.6426255511811023
0
LINE
8
BLACK
6
CONTINUOUS
10
5.8240963385826774
20
-3.6426255511811023
11
5.8243846062992128
21
-3.6419295669291336
0
LINE
8
BLACK
6
CONTINUOUS
10
5.8243846062992128
20
-3.6419295669291336
11
5.8250805905511811
21
-3.6416412992125982
0
LINE
8
BLACK
6
CONTINUOUS
10
5.8250805905511811
20
-3.6416412992125982
11
6.0770490944881885
21
-3.6416412992125982
0
LINE
8
BLACK
6
CONTINUOUS
10
5.8260648425196848
20
-3.643609803149606
11
5.8260648425196848
21
-3.8069956299212597
0
LINE
8
BLACK
6
CONTINUOUS
10
5.8260648425196848
20
-3.8069956299212597
11
6.0760648425196848
21
-3.8069956299212597
0
LINE
8
BLACK
6
CONTINUOUS
10
6.0760648425196848
20
-3.8069956299212597
11
6.0760648425196848
21
-3.643609803149606
0
LINE
8
BLACK
6
CONTINUOUS
10
6.0760648425196848
20
-3.643609803149606
11
5.8260648425196848
21
-3.643609803149606
0
LINE
8
BLACK
6
CONTINUOUS
10
6.2095294094488187
20
-3.6581767322834646
11
6.210225393700787
21
-3.6584650000000001
0
LINE
8
BLACK
6
CONTINUOUS
10
6.210225393700787
20
-3.6584650000000001
11
6.2105136614173224
21
-3.6591609842519683
0
LINE
8
BLACK
6
CONTINUOUS
10
6.2105136614173224
20
-3.6591609842519683
11
6.2105136614173224
21
-3.7969562598425197
0
LINE
8
BLACK
6
CONTINUOUS
10
6.2105136614173224
20
-3.7969562598425197
11
6.210225393700787
21
-3.797652244094488
0
LINE
8
BLACK
6
CONTINUOUS
10
6.210225393700787
20
-3.797652244094488
11
6.2095294094488187
21
-3.7979405118110234
0
LINE
8
BLACK
6
CONTINUOUS
10
6.2095294094488187
20
-3.7979405118110234
11
6.1426002755905511
21
-3.7979405118110234
0
LINE
8
BLACK
6
CONTINUOUS
10
6.1426002755905511
20
-3.7979405118110234
11
6.1419042913385828
21
-3.797652244094488
0
LINE
8
BLACK
6
CONTINUOUS
10
6.1419042913385828
20
-3.797652244094488
11
6.1416160236220474
21
-3.7969562598425197
0
LINE
8
BLACK
6
CONTINUOUS
10
6.1416160236220474
20
-3.7969562598425197
11
6.1416160236220474
21
-3.6591609842519683
0
LINE
8
BLACK
6
CONTINUOUS
10
6.1416160236220474
20
-3.6591609842519683
11
6.1419042913385828
21
-3.6584650000000001
0
LINE
8
BLACK
6
CONTINUOUS
10
6.1419042913385828
20
-3.6584650000000001
11
6.1426002755905511
21
-3.6581767322834646
0
LINE
8
BLACK
6
CONTINUOUS
10
6.1426002755905511
20
-3.6581767322834646
11
6.2095294094488187
21
-3.6581767322834646
0
LINE
8
BLACK
6
CONTINUOUS
10
6.1435845275590548
20
-3.6601452362204725
11
6.1435845275590548
21
-3.7959720078740156
0
LINE
8
BLACK
6
CONTINUOUS
10
6.1435845275590548
20
-3.7959720078740156
11
6.208545157480315
21
-3.7959720078740156
0
LINE
8
BLACK
6
CONTINUOUS
10
6.208545157480315
20
-3.7959720078740156
11
6.208545157480315
21
-3.6601452362204725
0
LINE
8
BLACK
6
CONTINUOUS
10
6.208545157480315
20
-3.6601452362204725
11
6.1435845275590548
21
-3.6601452362204725
0
LINE
8
BLACK
6
CONTINUOUS
10
6.3699624803149604
20
-3.643609803149606
11
6.3706584645669286
21
-3.6438980708661415
0
LINE
8
BLACK
6
CONTINUOUS
10
6.3706584645669286
20
-3.6438980708661415
11
6.3709467322834641
21
-3.6445940551181102
0
LINE
8
BLACK
6
CONTINUOUS
10
6.3709467322834641
20
-3.6445940551181102
11
6.3709467322834641
21
-3.7115231889763778
0
LINE
8
BLACK
6
CONTINUOUS
10
6.3709467322834641
20
-3.7115231889763778
11
6.3706584645669286
21
-3.7122191732283465
0
LINE
8
BLACK
6
CONTINUOUS
10
6.3706584645669286
20
-3.7122191732283465
11
6.3699624803149604
21
-3.7125074409448819
0
LINE
8
BLACK
6
CONTINUOUS
10
6.3699624803149604
20
-3.7125074409448819
11
6.2321672047244094
21
-3.7125074409448819
0
LINE
8
BLACK
6
CONTINUOUS
10
6.2321672047244094
20
-3.7125074409448819
11
6.2314712204724412
21
-3.7122191732283465
0
LINE
8
BLACK
6
CONTINUOUS
10
6.2314712204724412
20
-3.7122191732283465
11
6.2311829527559057
21
-3.7115231889763778
0
LINE
8
BLACK
6
CONTINUOUS
10
6.2311829527559057
20
-3.7115231889763778
11
6.2311829527559057
21
-3.6445940551181102
0
LINE
8
BLACK
6
CONTINUOUS
10
6.2311829527559057
20
-3.6445940551181102
11
6.2314712204724412
21
-3.6438980708661415
0
LINE
8
BLACK
6
CONTINUOUS
10
6.2314712204724412
20
-3.6438980708661415
11
6.2321672047244094
21
-3.643609803149606
0
LINE
8
BLACK
6
CONTINUOUS
10
6.2321672047244094
20
-3.643609803149606
11
6.3699624803149604
21
-3.643609803149606
0
LINE
8
BLACK
6
CONTINUOUS
10
6.2331514566929132
20
-3.6455783070866139
11
6.2331514566929132
21
-3.7105389370078741
0
LINE
8
BLACK
6
CONTINUOUS
10
6.2331514566929132
20
-3.7105389370078741
11
6.3689782283464567
21
-3.7105389370078741
0
LINE
8
BLACK
6
CONTINUOUS
10
6.3689782283464567
20
-3.7105389370078741
11
6.3689782283464567
21
-3.6455783070866139
0
LINE
8
BLACK
6
CONTINUOUS
10
6.3689782283464567
20
-3.6455783070866139
11
6.2331514566929132
21
-3.6455783070866139
0
LINE
8
BLACK
6
CONTINUOUS
10
5.3134664173228341
20
-3.4859326377952753
11
5.3141624015748032
21
-3.4862209055118107
0
LINE
8
BLACK
6
CONTINUOUS
10
5.3141624015748032
20
-3.4862209055118107
11
5.3144506692913387
21
-3.4869168897637794
0
LINE
8
BLACK
6
CONTINUOUS
10
5.3144506692913387
20
-3.4869168897637794
11
5.3144506692913387
21
-3.6192003543307085
0
LINE
8
BLACK
6
CONTINUOUS
10
5.3144506692913387
20
-3.6192003543307085
11
5.3141624015748032
21
-3.6198963385826772
0
LINE
8
BLACK
6
CONTINUOUS
10
5.3141624015748032
20
-3.6198963385826772
11
5.3134664173228341
21
-3.6201846062992127
0
LINE
8
BLACK
6
CONTINUOUS
10
5.3134664173228341
20
-3.6201846062992127
11
5.238663267716535
21
-3.6201846062992127
0
LINE
8
BLACK
6
CONTINUOUS
10
5.238663267716535
20
-3.6201846062992127
11
5.2379672834645667
21
-3.6198963385826772
0
LINE
8
BLACK
6
CONTINUOUS
10
5.2379672834645667
20
-3.6198963385826772
11
5.2376790157480313
21
-3.6192003543307085
0
LINE
8
BLACK
6
CONTINUOUS
10
5.2376790157480313
20
-3.6192003543307085
11
5.2376790157480313
21
-3.4869168897637794
0
LINE
8
BLACK
6
CONTINUOUS
10
5.2376790157480313
20
-3.4869168897637794
11
5.2379672834645667
21
-3.4862209055118107
0
LINE
8
BLACK
6
CONTINUOUS
10
5.2379672834645667
20
-3.4862209055118107
11
5.238663267716535
21
-3.4859326377952753
0
LINE
8
BLACK
6
CONTINUOUS
10
5.238663267716535
20
-3.4859326377952753
11
5.3134664173228341
21
-3.4859326377952753
0
LINE
8
BLACK
6
CONTINUOUS
10
5.2396475196850396
20
-3.4879011417322836
11
5.2396475196850396
21
-3.6182161023622048
0
LINE
8
BLACK
6
CONTINUOUS
10
5.2396475196850396
20
-3.6182161023622048
11
5.3124821653543304
21
-3.6182161023622048
0
LINE
8
BLACK
6
CONTINUOUS
10
5.3124821653543304
20
-3.6182161023622048
11
5.3124821653543304
21
-3.4879011417322836
0
LINE
8
BLACK
6
CONTINUOUS
10
5.3124821653543304
20
-3.4879011417322836
11
5.2396475196850396
21
-3.4879011417322836
0
LINE
8
BLACK
6
CONTINUOUS
10
5.4134664173228346
20
-3.4859326377952753
11
5.4141624015748029
21
-3.4862209055118107
0
LINE
8
BLACK
6
CONTINUOUS
10
5.4141624015748029
20
-3.4862209055118107
11
5.4144506692913383
21
-3.4869168897637794
0
LINE
8
BLACK
6
CONTINUOUS
10
5.4144506692913383
20
-3.4869168897637794
11
5.4144506692913383
21
-3.6192003543307085
0
LINE
8
BLACK
6
CONTINUOUS
10
5.4144506692913383
20
-3.6192003543307085
11
5.4141624015748029
21
-3.6198963385826772
0
LINE
8
BLACK
6
CONTINUOUS
10
5.4141624015748029
20
-3.6198963385826772
11
5.4134664173228346
21
-3.6201846062992127
0
LINE
8
BLACK
6
CONTINUOUS
10
5.4134664173228346
20
-3.6201846062992127
11
5.3386632677165355
21
-3.6201846062992127
0
LINE
8
BLACK
6
CONTINUOUS
10
5.3386632677165355
20
-3.6201846062992127
11
5.3379672834645664
21
-3.6198963385826772
0
LINE
8
BLACK
6
CONTINUOUS
10
5.3379672834645664
20
-3.6198963385826772
11
5.3376790157480309
21
-3.6192003543307085
0
LINE
8
BLACK
6
CONTINUOUS
10
5.3376790157480309
20
-3.6192003543307085
11
5.3376790157480309
21
-3.4869168897637794
0
LINE
8
BLACK
6
CONTINUOUS
10
5.3376790157480309
20
-3.4869168897637794
11
5.3379672834645664
21
-3.4862209055118107
0
LINE
8
BLACK
6
CONTINUOUS
10
5.3379672834645664
20
-3.4862209055118107
11
5.3386632677165355
21
-3.4859326377952753
0
LINE
8
BLACK
6
CONTINUOUS
10
5.3386632677165355
20
-3.4859326377952753
11
5.4134664173228346
21
-3.4859326377952753
0
LINE
8
BLACK
6
CONTINUOUS
10
5.3396475196850393
20
-3.4879011417322836
11
5.3396475196850393
21
-3.6182161023622048
0
LINE
8
BLACK
6
CONTINUOUS
10
5.3396475196850393
20
-3.6182161023622048
11
5.4124821653543309
21
-3.6182161023622048
0
LINE
8
BLACK
6
CONTINUOUS
10
5.4124821653543309
20
-3.6182161023622048
11
5.4124821653543309
21
-3.4879011417322836
0
LINE
8
BLACK
6
CONTINUOUS
10
5.4124821653543309
20
-3.4879011417322836
11
5.3396475196850393
21
-3.4879011417322836
0
LINE
8
BLACK
6
CONTINUOUS
10
5.9884664173228348
20
-3.4859326377952753
11
5.9891624015748031
21
-3.4862209055118107
0
LINE
8
BLACK
6
CONTINUOUS
10
5.9891624015748031
20
-3.4862209055118107
11
5.9894506692913385
21
-3.4869168897637794
0
LINE
8
BLACK
6
CONTINUOUS
10
5.9894506692913385
20
-3.4869168897637794
11
5.9894506692913385
21
-3.6192003543307085
0
LINE
8
BLACK
6
CONTINUOUS
10
5.9894506692913385
20
-3.6192003543307085
11
5.9891624015748031
21
-3.6198963385826772
0
LINE
8
BLACK
6
CONTINUOUS
10
5.9891624015748031
20
-3.6198963385826772
11
5.9884664173228348
21
-3.6201846062992127
0
LINE
8
BLACK
6
CONTINUOUS
10
5.9884664173228348
20
-3.6201846062992127
11
5.9136632677165357
21
-3.6201846062992127
0
LINE
8
BLACK
6
CONTINUOUS
10
5.9136632677165357
20
-3.6201846062992127
11
5.9129672834645666
21
-3.6198963385826772
0
LINE
8
BLACK
6
CONTINUOUS
10
5.9129672834645666
20
-3.6198963385826772
11
5.9126790157480311
21
-3.6192003543307085
0
LINE
8
BLACK
6
CONTINUOUS
10
5.9126790157480311
20
-3.6192003543307085
11
5.9126790157480311
21
-3.4869168897637794
0
LINE
8
BLACK
6
CONTINUOUS
10
5.9126790157480311
20
-3.4869168897637794
11
5.9129672834645666
21
-3.4862209055118107
0
LINE
8
BLACK
6
CONTINUOUS
10
5.9129672834645666
20
-3.4862209055118107
11
5.9136632677165357
21
-3.4859326377952753
0
LINE
8
BLACK
6
CONTINUOUS
10
5.9136632677165357
20
-3.4859326377952753
11
5.9884664173228348
21
-3.4859326377952753
0
LINE
8
BLACK
6
CONTINUOUS
10
5.9146475196850394
20
-3.4879011417322836
11
5.9146475196850394
21
-3.6182161023622048
0
LINE
8
BLACK
6
CONTINUOUS
10
5.9146475196850394
20
-3.6182161023622048
11
5.9874821653543302
21
-3.6182161023622048
0
LINE
8
BLACK
6
CONTINUOUS
10
5.9874821653543302
20
-3.6182161023622048
11
5.9874821653543302
21
-3.4879011417322836
0
LINE
8
BLACK
6
CONTINUOUS
10
5.9874821653543302
20
-3.4879011417322836
11
5.9146475196850394
21
-3.4879011417322836
0
LINE
8
BLACK
6
CONTINUOUS
10
6.1434664173228342
20
-3.4834326377952753
11
6.1441624015748033
21
-3.4837209055118108
0
LINE
8
BLACK
6
CONTINUOUS
10
6.1441624015748033
20
-3.4837209055118108
11
6.1444506692913388
21
-3.4844168897637795
0
LINE
8
BLACK
6
CONTINUOUS
10
6.1444506692913388
20
-3.4844168897637795
11
6.1444506692913388
21
-3.6167003543307086
0
LINE
8
BLACK
6
CONTINUOUS
10
6.1444506692913388
20
-3.6167003543307086
11
6.1441624015748033
21
-3.6173963385826773
0
LINE
8
BLACK
6
CONTINUOUS
10
6.1441624015748033
20
-3.6173963385826773
11
6.1434664173228342
21
-3.6176846062992127
0
LINE
8
BLACK
6
CONTINUOUS
10
6.1434664173228342
20
-3.6176846062992127
11
6.0686632677165351
21
-3.6176846062992127
0
LINE
8
BLACK
6
CONTINUOUS
10
6.0686632677165351
20
-3.6176846062992127
11
6.0679672834645668
21
-3.6173963385826773
0
LINE
8
BLACK
6
CONTINUOUS
10
6.0679672834645668
20
-3.6173963385826773
11
6.0676790157480314
21
-3.6167003543307086
0
LINE
8
BLACK
6
CONTINUOUS
10
6.0676790157480314
20
-3.6167003543307086
11
6.0676790157480314
21
-3.4844168897637795
0
LINE
8
BLACK
6
CONTINUOUS
10
6.0676790157480314
20
-3.4844168897637795
11
6.0679672834645668
21
-3.4837209055118108
0
LINE
8
BLACK
6
CONTINUOUS
10
6.0679672834645668
20
-3.4837209055118108
11
6.0686632677165351
21
-3.4834326377952753
0
LINE
8
BLACK
6
CONTINUOUS
10
6.0686632677165351
20
-3.4834326377952753
11
6.1434664173228342
21
-3.4834326377952753
0
LINE
8
BLACK
6
CONTINUOUS
10
6.0696475196850388
20
-3.4854011417322832
11
6.0696475196850388
21
-3.6157161023622044
0
LINE
8
BLACK
6
CONTINUOUS
10
6.0696475196850388
20
-3.6157161023622044
11
6.1424821653543304
21
-3.6157161023622044
0
LINE
8
BLACK
6
CONTINUOUS
10
6.1424821653543304
20
-3.6157161023622044
11
6.1424821653543304
21
-3.4854011417322832
0
LINE
8
BLACK
6
CONTINUOUS
10
6.1424821653543304
20
-3.4854011417322832
11
6.0696475196850388
21
-3.4854011417322832
  0
ENDSEC
  0
EOF
