  0
SECTION
  2
HEADER
  9
$ANGBASE
  50
0.0
  9
$ANGDIR
  70
1
  9
$MEASUREMENT
  70
0
  0
ENDSEC
  0
SECTION
  2
TABLES
  0
TABLE
  2
LTYPE
  70
4
  0
LTYPE
  5
40F
  2
CONTINUOUS
  70
0
  3
Solid line
  72
65
  73
0
  40
0.0
  0
LTYPE
  5
410
  2
DASHDOT
 70
0
  3
Dash Dot ____ _ ____ _
 72
65
 73
4
 40
2.0
 49
1.25
 49
-0.25
 49
0.25
 49
-0.25
  0
LTYPE
  5
411
  2
DASHED
 70
0
  3
Dashed __ __ __ __ __
 72
65
 73
2
 40
0.75
 49
0.5
 49
-0.25
  0
LTYPE
  5
43B
  2
DOTTED
 70
0
  3
Dotted .  .  .  .
 72
65
 73
2
 40
0.2
 49
0.0
 49
-0.2
  0
ENDTAB
  0
TABLE
  2
STYLE
  70
4
  0
STYLE
  2
KICAD
  70
0
  40
0
  41
1
  42
1
  50
0
  71
0
  3
isocp.shx
  0
STYLE
  2
KICADB
  70
0
  40
0
  41
1
  42
1
  50
0
  71
0
  3
isocp.shx
  0
STYLE
  2
KICADI
  70
0
  40
0
  41
1
  42
1
  50
15
  71
0
  3
isocp.shx
  0
STYLE
  2
KICADBI
  70
0
  40
0
  41
1
  42
1
  50
15
  71
0
  3
isocp.shx
  0
ENDTAB
  0
TABLE
  2
LAYER
  70
1
  0
LAYER
  2
BLACK
  70
0
  62
7
  6
CONTINUOUS
  0
ENDTAB
  0
ENDSEC
  0
SECTION
  2
ENTITIES
0
LINE
8
BLACK
6
CONTINUOUS
10
6.6255924015748029
20
-4.7584523228346454
11
6.5665372834645668
21
-4.7584523228346454
0
LINE
8
BLACK
6
CONTINUOUS
10
6.5665372834645668
20
-4.7584523228346454
11
6.5665372834645668
21
-4.7210507480314963
0
LINE
8
BLACK
6
CONTINUOUS
10
6.5665372834645668
20
-4.7210507480314963
11
6.6255924015748029
21
-4.7210507480314963
0
LINE
8
BLACK
6
CONTINUOUS
10
6.6255924015748029
20
-4.7210507480314963
11
6.6255924015748029
21
-4.7584523228346454
0
LINE
8
BLACK
6
CONTINUOUS
10
6.7655924015748026
20
-4.7584523228346454
11
6.7065372834645665
21
-4.7584523228346454
0
LINE
8
BLACK
6
CONTINUOUS
10
6.7065372834645665
20
-4.7584523228346454
11
6.7065372834645665
21
-4.7210507480314963
0
LINE
8
BLACK
6
CONTINUOUS
10
6.7065372834645665
20
-4.7210507480314963
11
6.7655924015748026
21
-4.7210507480314963
0
LINE
8
BLACK
6
CONTINUOUS
10
6.7655924015748026
20
-4.7210507480314963
11
6.7655924015748026
21
-4.7584523228346454
0
LINE
8
BLACK
6
CONTINUOUS
10
6.6255924015748029
20
-4.5950664960629917
11
6.5665372834645668
21
-4.5950664960629917
0
LINE
8
BLACK
6
CONTINUOUS
10
6.5665372834645668
20
-4.5950664960629917
11
6.5665372834645668
21
-4.5576649212598426
0
LINE
8
BLACK
6
CONTINUOUS
10
6.5665372834645668
20
-4.5576649212598426
11
6.6255924015748029
21
-4.5576649212598426
0
LINE
8
BLACK
6
CONTINUOUS
10
6.6255924015748029
20
-4.5576649212598426
11
6.6255924015748029
21
-4.5950664960629917
0
LINE
8
BLACK
6
CONTINUOUS
10
6.7655924015748026
20
-4.5950664960629917
11
6.7065372834645665
21
-4.5950664960629917
0
LINE
8
BLACK
6
CONTINUOUS
10
6.7065372834645665
20
-4.5950664960629917
11
6.7065372834645665
21
-4.5576649212598426
0
LINE
8
BLACK
6
CONTINUOUS
10
6.7065372834645665
20
-4.5576649212598426
11
6.7655924015748026
21
-4.5576649212598426
0
LINE
8
BLACK
6
CONTINUOUS
10
6.7655924015748026
20
-4.5576649212598426
11
6.7655924015748026
21
-4.5950664960629917
0
LINE
8
BLACK
6
CONTINUOUS
10
6.757547952755905
20
-4.484555866141732
11
6.7607411023622044
21
-4.4866894488188978
0
LINE
8
BLACK
6
CONTINUOUS
10
6.7607411023622044
20
-4.4866894488188978
11
6.7628746850393702
21
-4.4898825984251971
0
LINE
8
BLACK
6
CONTINUOUS
10
6.7628746850393702
20
-4.4898825984251971
11
6.7636238976377951
21
-4.4936491732283468
0
LINE
8
BLACK
6
CONTINUOUS
10
6.7636238976377951
20
-4.4936491732283468
11
6.7636238976377951
21
-4.5143184645669292
0
LINE
8
BLACK
6
CONTINUOUS
10
6.7636238976377951
20
-4.5143184645669292
11
6.7628746850393702
21
-4.5180850393700789
0
LINE
8
BLACK
6
CONTINUOUS
10
6.7628746850393702
20
-4.5180850393700789
11
6.7607411023622044
21
-4.5212781889763782
0
LINE
8
BLACK
6
CONTINUOUS
10
6.7607411023622044
20
-4.5212781889763782
11
6.757547952755905
21
-4.5234117716535431
0
LINE
8
BLACK
6
CONTINUOUS
10
6.757547952755905
20
-4.5234117716535431
11
6.7537813779527553
21
-4.5241609842519681
0
LINE
8
BLACK
6
CONTINUOUS
10
6.7537813779527553
20
-4.5241609842519681
11
6.7183483070866137
21
-4.5241609842519681
0
LINE
8
BLACK
6
CONTINUOUS
10
6.7183483070866137
20
-4.5241609842519681
11
6.714581732283464
21
-4.5234117716535431
0
LINE
8
BLACK
6
CONTINUOUS
10
6.714581732283464
20
-4.5234117716535431
11
6.7113885826771655
21
-4.5212781889763782
0
LINE
8
BLACK
6
CONTINUOUS
10
6.7113885826771655
20
-4.5212781889763782
11
6.7092549999999997
21
-4.5180850393700789
0
LINE
8
BLACK
6
CONTINUOUS
10
6.7092549999999997
20
-4.5180850393700789
11
6.7085057874015748
21
-4.5143184645669292
0
LINE
8
BLACK
6
CONTINUOUS
10
6.7085057874015748
20
-4.5143184645669292
11
6.7085057874015748
21
-4.4936491732283468
0
LINE
8
BLACK
6
CONTINUOUS
10
6.7085057874015748
20
-4.4936491732283468
11
6.7092549999999997
21
-4.4898825984251971
0
LINE
8
BLACK
6
CONTINUOUS
10
6.7092549999999997
20
-4.4898825984251971
11
6.7113885826771655
21
-4.4866894488188978
0
LINE
8
BLACK
6
CONTINUOUS
10
6.7113885826771655
20
-4.4866894488188978
11
6.714581732283464
21
-4.484555866141732
0
LINE
8
BLACK
6
CONTINUOUS
10
6.714581732283464
20
-4.484555866141732
11
6.7183483070866137
21
-4.483806653543307
0
LINE
8
BLACK
6
CONTINUOUS
10
6.7183483070866137
20
-4.483806653543307
11
6.7537813779527553
21
-4.483806653543307
0
LINE
8
BLACK
6
CONTINUOUS
10
6.7537813779527553
20
-4.483806653543307
11
6.757547952755905
21
-4.484555866141732
0
LINE
8
BLACK
6
CONTINUOUS
10
6.6175479527559053
20
-4.4820558661417325
11
6.6207411023622047
21
-4.4841894488188974
0
LINE
8
BLACK
6
CONTINUOUS
10
6.6207411023622047
20
-4.4841894488188974
11
6.6228746850393696
21
-4.4873825984251967
0
LINE
8
BLACK
6
CONTINUOUS
10
6.6228746850393696
20
-4.4873825984251967
11
6.6236238976377955
21
-4.4911491732283464
0
LINE
8
BLACK
6
CONTINUOUS
10
6.6236238976377955
20
-4.4911491732283464
11
6.6236238976377955
21
-4.5118184645669288
0
LINE
8
BLACK
6
CONTINUOUS
10
6.6236238976377955
20
-4.5118184645669288
11
6.6228746850393696
21
-4.5155850393700785
0
LINE
8
BLACK
6
CONTINUOUS
10
6.6228746850393696
20
-4.5155850393700785
11
6.6207411023622047
21
-4.5187781889763778
0
LINE
8
BLACK
6
CONTINUOUS
10
6.6207411023622047
20
-4.5187781889763778
11
6.6175479527559053
21
-4.5209117716535436
0
LINE
8
BLACK
6
CONTINUOUS
10
6.6175479527559053
20
-4.5209117716535436
11
6.6137813779527557
21
-4.5216609842519686
0
LINE
8
BLACK
6
CONTINUOUS
10
6.6137813779527557
20
-4.5216609842519686
11
6.578348307086614
21
-4.5216609842519686
0
LINE
8
BLACK
6
CONTINUOUS
10
6.578348307086614
20
-4.5216609842519686
11
6.5745817322834643
21
-4.5209117716535436
0
LINE
8
BLACK
6
CONTINUOUS
10
6.5745817322834643
20
-4.5209117716535436
11
6.571388582677165
21
-4.5187781889763778
0
LINE
8
BLACK
6
CONTINUOUS
10
6.571388582677165
20
-4.5187781889763778
11
6.5692550000000001
21
-4.5155850393700785
0
LINE
8
BLACK
6
CONTINUOUS
10
6.5692550000000001
20
-4.5155850393700785
11
6.5685057874015751
21
-4.5118184645669288
0
LINE
8
BLACK
6
CONTINUOUS
10
6.5685057874015751
20
-4.5118184645669288
11
6.5685057874015751
21
-4.4911491732283464
0
LINE
8
BLACK
6
CONTINUOUS
10
6.5685057874015751
20
-4.4911491732283464
11
6.5692550000000001
21
-4.4873825984251967
0
LINE
8
BLACK
6
CONTINUOUS
10
6.5692550000000001
20
-4.4873825984251967
11
6.571388582677165
21
-4.4841894488188974
0
LINE
8
BLACK
6
CONTINUOUS
10
6.571388582677165
20
-4.4841894488188974
11
6.5745817322834643
21
-4.4820558661417325
0
LINE
8
BLACK
6
CONTINUOUS
10
6.5745817322834643
20
-4.4820558661417325
11
6.578348307086614
21
-4.4813066535433066
0
LINE
8
BLACK
6
CONTINUOUS
10
6.578348307086614
20
-4.4813066535433066
11
6.6137813779527557
21
-4.4813066535433066
0
LINE
8
BLACK
6
CONTINUOUS
10
6.6137813779527557
20
-4.4813066535433066
11
6.6175479527559053
21
-4.4820558661417325
0
LINE
8
BLACK
6
CONTINUOUS
10
6.757547952755905
20
-4.4127054724409449
11
6.7607411023622044
21
-4.4148390551181098
0
LINE
8
BLACK
6
CONTINUOUS
10
6.7607411023622044
20
-4.4148390551181098
11
6.7628746850393702
21
-4.4180322047244092
0
LINE
8
BLACK
6
CONTINUOUS
10
6.7628746850393702
20
-4.4180322047244092
11
6.7636238976377951
21
-4.4217987795275588
0
LINE
8
BLACK
6
CONTINUOUS
10
6.7636238976377951
20
-4.4217987795275588
11
6.7636238976377951
21
-4.4424680708661413
0
LINE
8
BLACK
6
CONTINUOUS
10
6.7636238976377951
20
-4.4424680708661413
11
6.7628746850393702
21
-4.4462346456692909
0
LINE
8
BLACK
6
CONTINUOUS
10
6.7628746850393702
20
-4.4462346456692909
11
6.7607411023622044
21
-4.4494277952755903
0
LINE
8
BLACK
6
CONTINUOUS
10
6.7607411023622044
20
-4.4494277952755903
11
6.757547952755905
21
-4.4515613779527561
0
LINE
8
BLACK
6
CONTINUOUS
10
6.757547952755905
20
-4.4515613779527561
11
6.7537813779527553
21
-4.4523105905511811
0
LINE
8
BLACK
6
CONTINUOUS
10
6.7537813779527553
20
-4.4523105905511811
11
6.7183483070866137
21
-4.4523105905511811
0
LINE
8
BLACK
6
CONTINUOUS
10
6.7183483070866137
20
-4.4523105905511811
11
6.714581732283464
21
-4.4515613779527561
0
LINE
8
BLACK
6
CONTINUOUS
10
6.714581732283464
20
-4.4515613779527561
11
6.7113885826771655
21
-4.4494277952755903
0
LINE
8
BLACK
6
CONTINUOUS
10
6.7113885826771655
20
-4.4494277952755903
11
6.7092549999999997
21
-4.4462346456692909
0
LINE
8
BLACK
6
CONTINUOUS
10
6.7092549999999997
20
-4.4462346456692909
11
6.7085057874015748
21
-4.4424680708661413
0
LINE
8
BLACK
6
CONTINUOUS
10
6.7085057874015748
20
-4.4424680708661413
11
6.7085057874015748
21
-4.4217987795275588
0
LINE
8
BLACK
6
CONTINUOUS
10
6.7085057874015748
20
-4.4217987795275588
11
6.7092549999999997
21
-4.4180322047244092
0
LINE
8
BLACK
6
CONTINUOUS
10
6.7092549999999997
20
-4.4180322047244092
11
6.7113885826771655
21
-4.4148390551181098
0
LINE
8
BLACK
6
CONTINUOUS
10
6.7113885826771655
20
-4.4148390551181098
11
6.714581732283464
21
-4.4127054724409449
0
LINE
8
BLACK
6
CONTINUOUS
10
6.714581732283464
20
-4.4127054724409449
11
6.7183483070866137
21
-4.4119562598425199
0
LINE
8
BLACK
6
CONTINUOUS
10
6.7183483070866137
20
-4.4119562598425199
11
6.7537813779527553
21
-4.4119562598425199
0
LINE
8
BLACK
6
CONTINUOUS
10
6.7537813779527553
20
-4.4119562598425199
11
6.757547952755905
21
-4.4127054724409449
0
LINE
8
BLACK
6
CONTINUOUS
10
6.6175479527559053
20
-4.4102054724409445
11
6.6207411023622047
21
-4.4123390551181103
0
LINE
8
BLACK
6
CONTINUOUS
10
6.6207411023622047
20
-4.4123390551181103
11
6.6228746850393696
21
-4.4155322047244097
0
LINE
8
BLACK
6
CONTINUOUS
10
6.6228746850393696
20
-4.4155322047244097
11
6.6236238976377955
21
-4.4192987795275593
0
LINE
8
BLACK
6
CONTINUOUS
10
6.6236238976377955
20
-4.4192987795275593
11
6.6236238976377955
21
-4.4399680708661418
0
LINE
8
BLACK
6
CONTINUOUS
10
6.6236238976377955
20
-4.4399680708661418
11
6.6228746850393696
21
-4.4437346456692914
0
LINE
8
BLACK
6
CONTINUOUS
10
6.6228746850393696
20
-4.4437346456692914
11
6.6207411023622047
21
-4.4469277952755908
0
LINE
8
BLACK
6
CONTINUOUS
10
6.6207411023622047
20
-4.4469277952755908
11
6.6175479527559053
21
-4.4490613779527557
0
LINE
8
BLACK
6
CONTINUOUS
10
6.6175479527559053
20
-4.4490613779527557
11
6.6137813779527557
21
-4.4498105905511807
0
LINE
8
BLACK
6
CONTINUOUS
10
6.6137813779527557
20
-4.4498105905511807
11
6.578348307086614
21
-4.4498105905511807
0
LINE
8
BLACK
6
CONTINUOUS
10
6.578348307086614
20
-4.4498105905511807
11
6.5745817322834643
21
-4.4490613779527557
0
LINE
8
BLACK
6
CONTINUOUS
10
6.5745817322834643
20
-4.4490613779527557
11
6.571388582677165
21
-4.4469277952755908
0
LINE
8
BLACK
6
CONTINUOUS
10
6.571388582677165
20
-4.4469277952755908
11
6.5692550000000001
21
-4.4437346456692914
0
LINE
8
BLACK
6
CONTINUOUS
10
6.5692550000000001
20
-4.4437346456692914
11
6.5685057874015751
21
-4.4399680708661418
0
LINE
8
BLACK
6
CONTINUOUS
10
6.5685057874015751
20
-4.4399680708661418
11
6.5685057874015751
21
-4.4192987795275593
0
LINE
8
BLACK
6
CONTINUOUS
10
6.5685057874015751
20
-4.4192987795275593
11
6.5692550000000001
21
-4.4155322047244097
0
LINE
8
BLACK
6
CONTINUOUS
10
6.5692550000000001
20
-4.4155322047244097
11
6.571388582677165
21
-4.4123390551181103
0
LINE
8
BLACK
6
CONTINUOUS
10
6.571388582677165
20
-4.4123390551181103
11
6.5745817322834643
21
-4.4102054724409445
0
LINE
8
BLACK
6
CONTINUOUS
10
6.5745817322834643
20
-4.4102054724409445
11
6.578348307086614
21
-4.4094562598425195
0
LINE
8
BLACK
6
CONTINUOUS
10
6.578348307086614
20
-4.4094562598425195
11
6.6137813779527557
21
-4.4094562598425195
0
LINE
8
BLACK
6
CONTINUOUS
10
6.6137813779527557
20
-4.4094562598425195
11
6.6175479527559053
21
-4.4102054724409445
0
LINE
8
BLACK
6
CONTINUOUS
10
5.3225479527559054
20
-4.3695558661417317
11
5.3257411023622048
21
-4.3716894488188975
0
LINE
8
BLACK
6
CONTINUOUS
10
5.3257411023622048
20
-4.3716894488188975
11
5.3278746850393697
21
-4.3748825984251969
0
LINE
8
BLACK
6
CONTINUOUS
10
5.3278746850393697
20
-4.3748825984251969
11
5.3286238976377955
21
-4.3786491732283466
0
LINE
8
BLACK
6
CONTINUOUS
10
5.3286238976377955
20
-4.3786491732283466
11
5.3286238976377955
21
-4.399318464566929
0
LINE
8
BLACK
6
CONTINUOUS
10
5.3286238976377955
20
-4.399318464566929
11
5.3278746850393697
21
-4.4030850393700787
0
LINE
8
BLACK
6
CONTINUOUS
10
5.3278746850393697
20
-4.4030850393700787
11
5.3257411023622048
21
-4.406278188976378
0
LINE
8
BLACK
6
CONTINUOUS
10
5.3257411023622048
20
-4.406278188976378
11
5.3225479527559054
21
-4.4084117716535429
0
LINE
8
BLACK
6
CONTINUOUS
10
5.3225479527559054
20
-4.4084117716535429
11
5.3187813779527557
21
-4.4091609842519688
0
LINE
8
BLACK
6
CONTINUOUS
10
5.3187813779527557
20
-4.4091609842519688
11
5.2833483070866141
21
-4.4091609842519688
0
LINE
8
BLACK
6
CONTINUOUS
10
5.2833483070866141
20
-4.4091609842519688
11
5.2795817322834644
21
-4.4084117716535429
0
LINE
8
BLACK
6
CONTINUOUS
10
5.2795817322834644
20
-4.4084117716535429
11
5.276388582677165
21
-4.406278188976378
0
LINE
8
BLACK
6
CONTINUOUS
10
5.276388582677165
20
-4.406278188976378
11
5.2742550000000001
21
-4.4030850393700787
0
LINE
8
BLACK
6
CONTINUOUS
10
5.2742550000000001
20
-4.4030850393700787
11
5.2735057874015743
21
-4.399318464566929
0
LINE
8
BLACK
6
CONTINUOUS
10
5.2735057874015743
20
-4.399318464566929
11
5.2735057874015743
21
-4.3786491732283466
0
LINE
8
BLACK
6
CONTINUOUS
10
5.2735057874015743
20
-4.3786491732283466
11
5.2742550000000001
21
-4.3748825984251969
0
LINE
8
BLACK
6
CONTINUOUS
10
5.2742550000000001
20
-4.3748825984251969
11
5.276388582677165
21
-4.3716894488188975
0
LINE
8
BLACK
6
CONTINUOUS
10
5.276388582677165
20
-4.3716894488188975
11
5.2795817322834644
21
-4.3695558661417317
0
LINE
8
BLACK
6
CONTINUOUS
10
5.2795817322834644
20
-4.3695558661417317
11
5.2833483070866141
21
-4.3688066535433068
0
LINE
8
BLACK
6
CONTINUOUS
10
5.2833483070866141
20
-4.3688066535433068
11
5.3187813779527557
21
-4.3688066535433068
0
LINE
8
BLACK
6
CONTINUOUS
10
5.3187813779527557
20
-4.3688066535433068
11
5.3225479527559054
21
-4.3695558661417317
0
LINE
8
BLACK
6
CONTINUOUS
10
5.4225479527559051
20
-4.3695558661417317
11
5.4257411023622044
21
-4.3716894488188975
0
LINE
8
BLACK
6
CONTINUOUS
10
5.4257411023622044
20
-4.3716894488188975
11
5.4278746850393702
21
-4.3748825984251969
0
LINE
8
BLACK
6
CONTINUOUS
10
5.4278746850393702
20
-4.3748825984251969
11
5.4286238976377952
21
-4.3786491732283466
0
LINE
8
BLACK
6
CONTINUOUS
10
5.4286238976377952
20
-4.3786491732283466
11
5.4286238976377952
21
-4.399318464566929
0
LINE
8
BLACK
6
CONTINUOUS
10
5.4286238976377952
20
-4.399318464566929
11
5.4278746850393702
21
-4.4030850393700787
0
LINE
8
BLACK
6
CONTINUOUS
10
5.4278746850393702
20
-4.4030850393700787
11
5.4257411023622044
21
-4.406278188976378
0
LINE
8
BLACK
6
CONTINUOUS
10
5.4257411023622044
20
-4.406278188976378
11
5.4225479527559051
21
-4.4084117716535429
0
LINE
8
BLACK
6
CONTINUOUS
10
5.4225479527559051
20
-4.4084117716535429
11
5.4187813779527554
21
-4.4091609842519688
0
LINE
8
BLACK
6
CONTINUOUS
10
5.4187813779527554
20
-4.4091609842519688
11
5.3833483070866137
21
-4.4091609842519688
0
LINE
8
BLACK
6
CONTINUOUS
10
5.3833483070866137
20
-4.4091609842519688
11
5.379581732283464
21
-4.4084117716535429
0
LINE
8
BLACK
6
CONTINUOUS
10
5.379581732283464
20
-4.4084117716535429
11
5.3763885826771656
21
-4.406278188976378
0
LINE
8
BLACK
6
CONTINUOUS
10
5.3763885826771656
20
-4.406278188976378
11
5.3742549999999998
21
-4.4030850393700787
0
LINE
8
BLACK
6
CONTINUOUS
10
5.3742549999999998
20
-4.4030850393700787
11
5.3735057874015748
21
-4.399318464566929
0
LINE
8
BLACK
6
CONTINUOUS
10
5.3735057874015748
20
-4.399318464566929
11
5.3735057874015748
21
-4.3786491732283466
0
LINE
8
BLACK
6
CONTINUOUS
10
5.3735057874015748
20
-4.3786491732283466
11
5.3742549999999998
21
-4.3748825984251969
0
LINE
8
BLACK
6
CONTINUOUS
10
5.3742549999999998
20
-4.3748825984251969
11
5.3763885826771656
21
-4.3716894488188975
0
LINE
8
BLACK
6
CONTINUOUS
10
5.3763885826771656
20
-4.3716894488188975
11
5.379581732283464
21
-4.3695558661417317
0
LINE
8
BLACK
6
CONTINUOUS
10
5.379581732283464
20
-4.3695558661417317
11
5.3833483070866137
21
-4.3688066535433068
0
LINE
8
BLACK
6
CONTINUOUS
10
5.3833483070866137
20
-4.3688066535433068
11
5.4187813779527554
21
-4.3688066535433068
0
LINE
8
BLACK
6
CONTINUOUS
10
5.4187813779527554
20
-4.3688066535433068
11
5.4225479527559051
21
-4.3695558661417317
0
LINE
8
BLACK
6
CONTINUOUS
10
5.9225479527559051
20
-4.3695558661417317
11
5.9257411023622044
21
-4.3716894488188975
0
LINE
8
BLACK
6
CONTINUOUS
10
5.9257411023622044
20
-4.3716894488188975
11
5.9278746850393702
21
-4.3748825984251969
0
LINE
8
BLACK
6
CONTINUOUS
10
5.9278746850393702
20
-4.3748825984251969
11
5.9286238976377952
21
-4.3786491732283466
0
LINE
8
BLACK
6
CONTINUOUS
10
5.9286238976377952
20
-4.3786491732283466
11
5.9286238976377952
21
-4.399318464566929
0
LINE
8
BLACK
6
CONTINUOUS
10
5.9286238976377952
20
-4.399318464566929
11
5.9278746850393702
21
-4.4030850393700787
0
LINE
8
BLACK
6
CONTINUOUS
10
5.9278746850393702
20
-4.4030850393700787
11
5.9257411023622044
21
-4.406278188976378
0
LINE
8
BLACK
6
CONTINUOUS
10
5.9257411023622044
20
-4.406278188976378
11
5.9225479527559051
21
-4.4084117716535429
0
LINE
8
BLACK
6
CONTINUOUS
10
5.9225479527559051
20
-4.4084117716535429
11
5.9187813779527554
21
-4.4091609842519688
0
LINE
8
BLACK
6
CONTINUOUS
10
5.9187813779527554
20
-4.4091609842519688
11
5.8833483070866137
21
-4.4091609842519688
0
LINE
8
BLACK
6
CONTINUOUS
10
5.8833483070866137
20
-4.4091609842519688
11
5.879581732283464
21
-4.4084117716535429
0
LINE
8
BLACK
6
CONTINUOUS
10
5.879581732283464
20
-4.4084117716535429
11
5.8763885826771656
21
-4.406278188976378
0
LINE
8
BLACK
6
CONTINUOUS
10
5.8763885826771656
20
-4.406278188976378
11
5.8742549999999998
21
-4.4030850393700787
0
LINE
8
BLACK
6
CONTINUOUS
10
5.8742549999999998
20
-4.4030850393700787
11
5.8735057874015748
21
-4.399318464566929
0
LINE
8
BLACK
6
CONTINUOUS
10
5.8735057874015748
20
-4.399318464566929
11
5.8735057874015748
21
-4.3786491732283466
0
LINE
8
BLACK
6
CONTINUOUS
10
5.8735057874015748
20
-4.3786491732283466
11
5.8742549999999998
21
-4.3748825984251969
0
LINE
8
BLACK
6
CONTINUOUS
10
5.8742549999999998
20
-4.3748825984251969
11
5.8763885826771656
21
-4.3716894488188975
0
LINE
8
BLACK
6
CONTINUOUS
10
5.8763885826771656
20
-4.3716894488188975
11
5.879581732283464
21
-4.3695558661417317
0
LINE
8
BLACK
6
CONTINUOUS
10
5.879581732283464
20
-4.3695558661417317
11
5.8833483070866137
21
-4.3688066535433068
0
LINE
8
BLACK
6
CONTINUOUS
10
5.8833483070866137
20
-4.3688066535433068
11
5.9187813779527554
21
-4.3688066535433068
0
LINE
8
BLACK
6
CONTINUOUS
10
5.9187813779527554
20
-4.3688066535433068
11
5.9225479527559051
21
-4.3695558661417317
0
LINE
8
BLACK
6
CONTINUOUS
10
6.0225479527559056
20
-4.3695558661417317
11
6.0257411023622049
21
-4.3716894488188975
0
LINE
8
BLACK
6
CONTINUOUS
10
6.0257411023622049
20
-4.3716894488188975
11
6.0278746850393699
21
-4.3748825984251969
0
LINE
8
BLACK
6
CONTINUOUS
10
6.0278746850393699
20
-4.3748825984251969
11
6.0286238976377948
21
-4.3786491732283466
0
LINE
8
BLACK
6
CONTINUOUS
10
6.0286238976377948
20
-4.3786491732283466
11
6.0286238976377948
21
-4.399318464566929
0
LINE
8
BLACK
6
CONTINUOUS
10
6.0286238976377948
20
-4.399318464566929
11
6.0278746850393699
21
-4.4030850393700787
0
LINE
8
BLACK
6
CONTINUOUS
10
6.0278746850393699
20
-4.4030850393700787
11
6.0257411023622049
21
-4.406278188976378
0
LINE
8
BLACK
6
CONTINUOUS
10
6.0257411023622049
20
-4.406278188976378
11
6.0225479527559056
21
-4.4084117716535429
0
LINE
8
BLACK
6
CONTINUOUS
10
6.0225479527559056
20
-4.4084117716535429
11
6.0187813779527559
21
-4.4091609842519688
0
LINE
8
BLACK
6
CONTINUOUS
10
6.0187813779527559
20
-4.4091609842519688
11
5.9833483070866142
21
-4.4091609842519688
0
LINE
8
BLACK
6
CONTINUOUS
10
5.9833483070866142
20
-4.4091609842519688
11
5.9795817322834646
21
-4.4084117716535429
0
LINE
8
BLACK
6
CONTINUOUS
10
5.9795817322834646
20
-4.4084117716535429
11
5.9763885826771652
21
-4.406278188976378
0
LINE
8
BLACK
6
CONTINUOUS
10
5.9763885826771652
20
-4.406278188976378
11
5.9742549999999994
21
-4.4030850393700787
0
LINE
8
BLACK
6
CONTINUOUS
10
5.9742549999999994
20
-4.4030850393700787
11
5.9735057874015745
21
-4.399318464566929
0
LINE
8
BLACK
6
CONTINUOUS
10
5.9735057874015745
20
-4.399318464566929
11
5.9735057874015745
21
-4.3786491732283466
0
LINE
8
BLACK
6
CONTINUOUS
10
5.9735057874015745
20
-4.3786491732283466
11
5.9742549999999994
21
-4.3748825984251969
0
LINE
8
BLACK
6
CONTINUOUS
10
5.9742549999999994
20
-4.3748825984251969
11
5.9763885826771652
21
-4.3716894488188975
0
LINE
8
BLACK
6
CONTINUOUS
10
5.9763885826771652
20
-4.3716894488188975
11
5.9795817322834646
21
-4.3695558661417317
0
LINE
8
BLACK
6
CONTINUOUS
10
5.9795817322834646
20
-4.3695558661417317
11
5.9833483070866142
21
-4.3688066535433068
0
LINE
8
BLACK
6
CONTINUOUS
10
5.9833483070866142
20
-4.3688066535433068
11
6.0187813779527559
21
-4.3688066535433068
0
LINE
8
BLACK
6
CONTINUOUS
10
6.0187813779527559
20
-4.3688066535433068
11
6.0225479527559056
21
-4.3695558661417317
0
LINE
8
BLACK
6
CONTINUOUS
10
6.1225479527559052
20
-4.3695558661417317
11
6.1257411023622046
21
-4.3716894488188975
0
LINE
8
BLACK
6
CONTINUOUS
10
6.1257411023622046
20
-4.3716894488188975
11
6.1278746850393695
21
-4.3748825984251969
0
LINE
8
BLACK
6
CONTINUOUS
10
6.1278746850393695
20
-4.3748825984251969
11
6.1286238976377954
21
-4.3786491732283466
0
LINE
8
BLACK
6
CONTINUOUS
10
6.1286238976377954
20
-4.3786491732283466
11
6.1286238976377954
21
-4.399318464566929
0
LINE
8
BLACK
6
CONTINUOUS
10
6.1286238976377954
20
-4.399318464566929
11
6.1278746850393695
21
-4.4030850393700787
0
LINE
8
BLACK
6
CONTINUOUS
10
6.1278746850393695
20
-4.4030850393700787
11
6.1257411023622046
21
-4.406278188976378
0
LINE
8
BLACK
6
CONTINUOUS
10
6.1257411023622046
20
-4.406278188976378
11
6.1225479527559052
21
-4.4084117716535429
0
LINE
8
BLACK
6
CONTINUOUS
10
6.1225479527559052
20
-4.4084117716535429
11
6.1187813779527556
21
-4.4091609842519688
0
LINE
8
BLACK
6
CONTINUOUS
10
6.1187813779527556
20
-4.4091609842519688
11
6.0833483070866139
21
-4.4091609842519688
0
LINE
8
BLACK
6
CONTINUOUS
10
6.0833483070866139
20
-4.4091609842519688
11
6.0795817322834642
21
-4.4084117716535429
0
LINE
8
BLACK
6
CONTINUOUS
10
6.0795817322834642
20
-4.4084117716535429
11
6.0763885826771649
21
-4.406278188976378
0
LINE
8
BLACK
6
CONTINUOUS
10
6.0763885826771649
20
-4.406278188976378
11
6.074255
21
-4.4030850393700787
0
LINE
8
BLACK
6
CONTINUOUS
10
6.074255
20
-4.4030850393700787
11
6.073505787401575
21
-4.399318464566929
0
LINE
8
BLACK
6
CONTINUOUS
10
6.073505787401575
20
-4.399318464566929
11
6.073505787401575
21
-4.3786491732283466
0
LINE
8
BLACK
6
CONTINUOUS
10
6.073505787401575
20
-4.3786491732283466
11
6.074255
21
-4.3748825984251969
0
LINE
8
BLACK
6
CONTINUOUS
10
6.074255
20
-4.3748825984251969
11
6.0763885826771649
21
-4.3716894488188975
0
LINE
8
BLACK
6
CONTINUOUS
10
6.0763885826771649
20
-4.3716894488188975
11
6.0795817322834642
21
-4.3695558661417317
0
LINE
8
BLACK
6
CONTINUOUS
10
6.0795817322834642
20
-4.3695558661417317
11
6.0833483070866139
21
-4.3688066535433068
0
LINE
8
BLACK
6
CONTINUOUS
10
6.0833483070866139
20
-4.3688066535433068
11
6.1187813779527556
21
-4.3688066535433068
0
LINE
8
BLACK
6
CONTINUOUS
10
6.1187813779527556
20
-4.3688066535433068
11
6.1225479527559052
21
-4.3695558661417317
0
LINE
8
BLACK
6
CONTINUOUS
10
6.2225479527559058
20
-4.3695558661417317
11
6.2257411023622042
21
-4.3716894488188975
0
LINE
8
BLACK
6
CONTINUOUS
10
6.2257411023622042
20
-4.3716894488188975
11
6.22787468503937
21
-4.3748825984251969
0
LINE
8
BLACK
6
CONTINUOUS
10
6.22787468503937
20
-4.3748825984251969
11
6.228623897637795
21
-4.3786491732283466
0
LINE
8
BLACK
6
CONTINUOUS
10
6.228623897637795
20
-4.3786491732283466
11
6.228623897637795
21
-4.399318464566929
0
LINE
8
BLACK
6
CONTINUOUS
10
6.228623897637795
20
-4.399318464566929
11
6.22787468503937
21
-4.4030850393700787
0
LINE
8
BLACK
6
CONTINUOUS
10
6.22787468503937
20
-4.4030850393700787
11
6.2257411023622042
21
-4.406278188976378
0
LINE
8
BLACK
6
CONTINUOUS
10
6.2257411023622042
20
-4.406278188976378
11
6.2225479527559058
21
-4.4084117716535429
0
LINE
8
BLACK
6
CONTINUOUS
10
6.2225479527559058
20
-4.4084117716535429
11
6.2187813779527561
21
-4.4091609842519688
0
LINE
8
BLACK
6
CONTINUOUS
10
6.2187813779527561
20
-4.4091609842519688
11
6.1833483070866144
21
-4.4091609842519688
0
LINE
8
BLACK
6
CONTINUOUS
10
6.1833483070866144
20
-4.4091609842519688
11
6.1795817322834647
21
-4.4084117716535429
0
LINE
8
BLACK
6
CONTINUOUS
10
6.1795817322834647
20
-4.4084117716535429
11
6.1763885826771654
21
-4.406278188976378
0
LINE
8
BLACK
6
CONTINUOUS
10
6.1763885826771654
20
-4.406278188976378
11
6.1742549999999996
21
-4.4030850393700787
0
LINE
8
BLACK
6
CONTINUOUS
10
6.1742549999999996
20
-4.4030850393700787
11
6.1735057874015746
21
-4.399318464566929
0
LINE
8
BLACK
6
CONTINUOUS
10
6.1735057874015746
20
-4.399318464566929
11
6.1735057874015746
21
-4.3786491732283466
0
LINE
8
BLACK
6
CONTINUOUS
10
6.1735057874015746
20
-4.3786491732283466
11
6.1742549999999996
21
-4.3748825984251969
0
LINE
8
BLACK
6
CONTINUOUS
10
6.1742549999999996
20
-4.3748825984251969
11
6.1763885826771654
21
-4.3716894488188975
0
LINE
8
BLACK
6
CONTINUOUS
10
6.1763885826771654
20
-4.3716894488188975
11
6.1795817322834647
21
-4.3695558661417317
0
LINE
8
BLACK
6
CONTINUOUS
10
6.1795817322834647
20
-4.3695558661417317
11
6.1833483070866144
21
-4.3688066535433068
0
LINE
8
BLACK
6
CONTINUOUS
10
6.1833483070866144
20
-4.3688066535433068
11
6.2187813779527561
21
-4.3688066535433068
0
LINE
8
BLACK
6
CONTINUOUS
10
6.2187813779527561
20
-4.3688066535433068
11
6.2225479527559058
21
-4.3695558661417317
0
LINE
8
BLACK
6
CONTINUOUS
10
6.3285648425196852
20
-4.3830586220472441
11
6.2735648425196846
21
-4.3830586220472441
0
LINE
8
BLACK
6
CONTINUOUS
10
6.2735648425196846
20
-4.3830586220472441
11
6.2735648425196846
21
-4.3480586220472439
0
LINE
8
BLACK
6
CONTINUOUS
10
6.2735648425196846
20
-4.3480586220472439
11
6.3285648425196852
21
-4.3480586220472439
0
LINE
8
BLACK
6
CONTINUOUS
10
6.3285648425196852
20
-4.3480586220472439
11
6.3285648425196852
21
-4.3830586220472441
0
LINE
8
BLACK
6
CONTINUOUS
10
6.544411299212598
20
-4.3712082283464566
11
6.5089782283464563
21
-4.3712082283464566
0
LINE
8
BLACK
6
CONTINUOUS
10
6.5089782283464563
20
-4.3712082283464566
11
6.5089782283464563
21
-4.3397121653543307
0
LINE
8
BLACK
6
CONTINUOUS
10
6.5089782283464563
20
-4.3397121653543307
11
6.544411299212598
21
-4.3397121653543307
0
LINE
8
BLACK
6
CONTINUOUS
10
6.544411299212598
20
-4.3397121653543307
11
6.544411299212598
21
-4.3712082283464566
0
LINE
8
BLACK
6
CONTINUOUS
10
6.6944112992125984
20
-4.3712082283464566
11
6.6589782283464567
21
-4.3712082283464566
0
LINE
8
BLACK
6
CONTINUOUS
10
6.6589782283464567
20
-4.3712082283464566
11
6.6589782283464567
21
-4.3397121653543307
0
LINE
8
BLACK
6
CONTINUOUS
10
6.6589782283464567
20
-4.3397121653543307
11
6.6944112992125984
21
-4.3397121653543307
0
LINE
8
BLACK
6
CONTINUOUS
10
6.6944112992125984
20
-4.3397121653543307
11
6.6944112992125984
21
-4.3712082283464566
0
LINE
8
BLACK
6
CONTINUOUS
10
5.3225479527559054
20
-4.2977054724409447
11
5.3257411023622048
21
-4.2998390551181105
0
LINE
8
BLACK
6
CONTINUOUS
10
5.3257411023622048
20
-4.2998390551181105
11
5.3278746850393697
21
-4.3030322047244089
0
LINE
8
BLACK
6
CONTINUOUS
10
5.3278746850393697
20
-4.3030322047244089
11
5.3286238976377955
21
-4.3067987795275586
0
LINE
8
BLACK
6
CONTINUOUS
10
5.3286238976377955
20
-4.3067987795275586
11
5.3286238976377955
21
-4.3274680708661419
0
LINE
8
BLACK
6
CONTINUOUS
10
5.3286238976377955
20
-4.3274680708661419
11
5.3278746850393697
21
-4.3312346456692916
0
LINE
8
BLACK
6
CONTINUOUS
10
5.3278746850393697
20
-4.3312346456692916
11
5.3257411023622048
21
-4.3344277952755901
0
LINE
8
BLACK
6
CONTINUOUS
10
5.3257411023622048
20
-4.3344277952755901
11
5.3225479527559054
21
-4.3365613779527559
0
LINE
8
BLACK
6
CONTINUOUS
10
5.3225479527559054
20
-4.3365613779527559
11
5.3187813779527557
21
-4.3373105905511808
0
LINE
8
BLACK
6
CONTINUOUS
10
5.3187813779527557
20
-4.3373105905511808
11
5.2833483070866141
21
-4.3373105905511808
0
LINE
8
BLACK
6
CONTINUOUS
10
5.2833483070866141
20
-4.3373105905511808
11
5.2795817322834644
21
-4.3365613779527559
0
LINE
8
BLACK
6
CONTINUOUS
10
5.2795817322834644
20
-4.3365613779527559
11
5.276388582677165
21
-4.3344277952755901
0
LINE
8
BLACK
6
CONTINUOUS
10
5.276388582677165
20
-4.3344277952755901
11
5.2742550000000001
21
-4.3312346456692916
0
LINE
8
BLACK
6
CONTINUOUS
10
5.2742550000000001
20
-4.3312346456692916
11
5.2735057874015743
21
-4.3274680708661419
0
LINE
8
BLACK
6
CONTINUOUS
10
5.2735057874015743
20
-4.3274680708661419
11
5.2735057874015743
21
-4.3067987795275586
0
LINE
8
BLACK
6
CONTINUOUS
10
5.2735057874015743
20
-4.3067987795275586
11
5.2742550000000001
21
-4.3030322047244089
0
LINE
8
BLACK
6
CONTINUOUS
10
5.2742550000000001
20
-4.3030322047244089
11
5.276388582677165
21
-4.2998390551181105
0
LINE
8
BLACK
6
CONTINUOUS
10
5.276388582677165
20
-4.2998390551181105
11
5.2795817322834644
21
-4.2977054724409447
0
LINE
8
BLACK
6
CONTINUOUS
10
5.2795817322834644
20
-4.2977054724409447
11
5.2833483070866141
21
-4.2969562598425197
0
LINE
8
BLACK
6
CONTINUOUS
10
5.2833483070866141
20
-4.2969562598425197
11
5.3187813779527557
21
-4.2969562598425197
0
LINE
8
BLACK
6
CONTINUOUS
10
5.3187813779527557
20
-4.2969562598425197
11
5.3225479527559054
21
-4.2977054724409447
0
LINE
8
BLACK
6
CONTINUOUS
10
5.4225479527559051
20
-4.2977054724409447
11
5.4257411023622044
21
-4.2998390551181105
0
LINE
8
BLACK
6
CONTINUOUS
10
5.4257411023622044
20
-4.2998390551181105
11
5.4278746850393702
21
-4.3030322047244089
0
LINE
8
BLACK
6
CONTINUOUS
10
5.4278746850393702
20
-4.3030322047244089
11
5.4286238976377952
21
-4.3067987795275586
0
LINE
8
BLACK
6
CONTINUOUS
10
5.4286238976377952
20
-4.3067987795275586
11
5.4286238976377952
21
-4.3274680708661419
0
LINE
8
BLACK
6
CONTINUOUS
10
5.4286238976377952
20
-4.3274680708661419
11
5.4278746850393702
21
-4.3312346456692916
0
LINE
8
BLACK
6
CONTINUOUS
10
5.4278746850393702
20
-4.3312346456692916
11
5.4257411023622044
21
-4.3344277952755901
0
LINE
8
BLACK
6
CONTINUOUS
10
5.4257411023622044
20
-4.3344277952755901
11
5.4225479527559051
21
-4.3365613779527559
0
LINE
8
BLACK
6
CONTINUOUS
10
5.4225479527559051
20
-4.3365613779527559
11
5.4187813779527554
21
-4.3373105905511808
0
LINE
8
BLACK
6
CONTINUOUS
10
5.4187813779527554
20
-4.3373105905511808
11
5.3833483070866137
21
-4.3373105905511808
0
LINE
8
BLACK
6
CONTINUOUS
10
5.3833483070866137
20
-4.3373105905511808
11
5.379581732283464
21
-4.3365613779527559
0
LINE
8
BLACK
6
CONTINUOUS
10
5.379581732283464
20
-4.3365613779527559
11
5.3763885826771656
21
-4.3344277952755901
0
LINE
8
BLACK
6
CONTINUOUS
10
5.3763885826771656
20
-4.3344277952755901
11
5.3742549999999998
21
-4.3312346456692916
0
LINE
8
BLACK
6
CONTINUOUS
10
5.3742549999999998
20
-4.3312346456692916
11
5.3735057874015748
21
-4.3274680708661419
0
LINE
8
BLACK
6
CONTINUOUS
10
5.3735057874015748
20
-4.3274680708661419
11
5.3735057874015748
21
-4.3067987795275586
0
LINE
8
BLACK
6
CONTINUOUS
10
5.3735057874015748
20
-4.3067987795275586
11
5.3742549999999998
21
-4.3030322047244089
0
LINE
8
BLACK
6
CONTINUOUS
10
5.3742549999999998
20
-4.3030322047244089
11
5.3763885826771656
21
-4.2998390551181105
0
LINE
8
BLACK
6
CONTINUOUS
10
5.3763885826771656
20
-4.2998390551181105
11
5.379581732283464
21
-4.2977054724409447
0
LINE
8
BLACK
6
CONTINUOUS
10
5.379581732283464
20
-4.2977054724409447
11
5.3833483070866137
21
-4.2969562598425197
0
LINE
8
BLACK
6
CONTINUOUS
10
5.3833483070866137
20
-4.2969562598425197
11
5.4187813779527554
21
-4.2969562598425197
0
LINE
8
BLACK
6
CONTINUOUS
10
5.4187813779527554
20
-4.2969562598425197
11
5.4225479527559051
21
-4.2977054724409447
0
LINE
8
BLACK
6
CONTINUOUS
10
5.9225479527559051
20
-4.2977054724409447
11
5.9257411023622044
21
-4.2998390551181105
0
LINE
8
BLACK
6
CONTINUOUS
10
5.9257411023622044
20
-4.2998390551181105
11
5.9278746850393702
21
-4.3030322047244089
0
LINE
8
BLACK
6
CONTINUOUS
10
5.9278746850393702
20
-4.3030322047244089
11
5.9286238976377952
21
-4.3067987795275586
0
LINE
8
BLACK
6
CONTINUOUS
10
5.9286238976377952
20
-4.3067987795275586
11
5.9286238976377952
21
-4.3274680708661419
0
LINE
8
BLACK
6
CONTINUOUS
10
5.9286238976377952
20
-4.3274680708661419
11
5.9278746850393702
21
-4.3312346456692916
0
LINE
8
BLACK
6
CONTINUOUS
10
5.9278746850393702
20
-4.3312346456692916
11
5.9257411023622044
21
-4.3344277952755901
0
LINE
8
BLACK
6
CONTINUOUS
10
5.9257411023622044
20
-4.3344277952755901
11
5.9225479527559051
21
-4.3365613779527559
0
LINE
8
BLACK
6
CONTINUOUS
10
5.9225479527559051
20
-4.3365613779527559
11
5.9187813779527554
21
-4.3373105905511808
0
LINE
8
BLACK
6
CONTINUOUS
10
5.9187813779527554
20
-4.3373105905511808
11
5.8833483070866137
21
-4.3373105905511808
0
LINE
8
BLACK
6
CONTINUOUS
10
5.8833483070866137
20
-4.3373105905511808
11
5.879581732283464
21
-4.3365613779527559
0
LINE
8
BLACK
6
CONTINUOUS
10
5.879581732283464
20
-4.3365613779527559
11
5.8763885826771656
21
-4.3344277952755901
0
LINE
8
BLACK
6
CONTINUOUS
10
5.8763885826771656
20
-4.3344277952755901
11
5.8742549999999998
21
-4.3312346456692916
0
LINE
8
BLACK
6
CONTINUOUS
10
5.8742549999999998
20
-4.3312346456692916
11
5.8735057874015748
21
-4.3274680708661419
0
LINE
8
BLACK
6
CONTINUOUS
10
5.8735057874015748
20
-4.3274680708661419
11
5.8735057874015748
21
-4.3067987795275586
0
LINE
8
BLACK
6
CONTINUOUS
10
5.8735057874015748
20
-4.3067987795275586
11
5.8742549999999998
21
-4.3030322047244089
0
LINE
8
BLACK
6
CONTINUOUS
10
5.8742549999999998
20
-4.3030322047244089
11
5.8763885826771656
21
-4.2998390551181105
0
LINE
8
BLACK
6
CONTINUOUS
10
5.8763885826771656
20
-4.2998390551181105
11
5.879581732283464
21
-4.2977054724409447
0
LINE
8
BLACK
6
CONTINUOUS
10
5.879581732283464
20
-4.2977054724409447
11
5.8833483070866137
21
-4.2969562598425197
0
LINE
8
BLACK
6
CONTINUOUS
10
5.8833483070866137
20
-4.2969562598425197
11
5.9187813779527554
21
-4.2969562598425197
0
LINE
8
BLACK
6
CONTINUOUS
10
5.9187813779527554
20
-4.2969562598425197
11
5.9225479527559051
21
-4.2977054724409447
0
LINE
8
BLACK
6
CONTINUOUS
10
6.0225479527559056
20
-4.2977054724409447
11
6.0257411023622049
21
-4.2998390551181105
0
LINE
8
BLACK
6
CONTINUOUS
10
6.0257411023622049
20
-4.2998390551181105
11
6.0278746850393699
21
-4.3030322047244089
0
LINE
8
BLACK
6
CONTINUOUS
10
6.0278746850393699
20
-4.3030322047244089
11
6.0286238976377948
21
-4.3067987795275586
0
LINE
8
BLACK
6
CONTINUOUS
10
6.0286238976377948
20
-4.3067987795275586
11
6.0286238976377948
21
-4.3274680708661419
0
LINE
8
BLACK
6
CONTINUOUS
10
6.0286238976377948
20
-4.3274680708661419
11
6.0278746850393699
21
-4.3312346456692916
0
LINE
8
BLACK
6
CONTINUOUS
10
6.0278746850393699
20
-4.3312346456692916
11
6.0257411023622049
21
-4.3344277952755901
0
LINE
8
BLACK
6
CONTINUOUS
10
6.0257411023622049
20
-4.3344277952755901
11
6.0225479527559056
21
-4.3365613779527559
0
LINE
8
BLACK
6
CONTINUOUS
10
6.0225479527559056
20
-4.3365613779527559
11
6.0187813779527559
21
-4.3373105905511808
0
LINE
8
BLACK
6
CONTINUOUS
10
6.0187813779527559
20
-4.3373105905511808
11
5.9833483070866142
21
-4.3373105905511808
0
LINE
8
BLACK
6
CONTINUOUS
10
5.9833483070866142
20
-4.3373105905511808
11
5.9795817322834646
21
-4.3365613779527559
0
LINE
8
BLACK
6
CONTINUOUS
10
5.9795817322834646
20
-4.3365613779527559
11
5.9763885826771652
21
-4.3344277952755901
0
LINE
8
BLACK
6
CONTINUOUS
10
5.9763885826771652
20
-4.3344277952755901
11
5.9742549999999994
21
-4.3312346456692916
0
LINE
8
BLACK
6
CONTINUOUS
10
5.9742549999999994
20
-4.3312346456692916
11
5.9735057874015745
21
-4.3274680708661419
0
LINE
8
BLACK
6
CONTINUOUS
10
5.9735057874015745
20
-4.3274680708661419
11
5.9735057874015745
21
-4.3067987795275586
0
LINE
8
BLACK
6
CONTINUOUS
10
5.9735057874015745
20
-4.3067987795275586
11
5.9742549999999994
21
-4.3030322047244089
0
LINE
8
BLACK
6
CONTINUOUS
10
5.9742549999999994
20
-4.3030322047244089
11
5.9763885826771652
21
-4.2998390551181105
0
LINE
8
BLACK
6
CONTINUOUS
10
5.9763885826771652
20
-4.2998390551181105
11
5.9795817322834646
21
-4.2977054724409447
0
LINE
8
BLACK
6
CONTINUOUS
10
5.9795817322834646
20
-4.2977054724409447
11
5.9833483070866142
21
-4.2969562598425197
0
LINE
8
BLACK
6
CONTINUOUS
10
5.9833483070866142
20
-4.2969562598425197
11
6.0187813779527559
21
-4.2969562598425197
0
LINE
8
BLACK
6
CONTINUOUS
10
6.0187813779527559
20
-4.2969562598425197
11
6.0225479527559056
21
-4.2977054724409447
0
LINE
8
BLACK
6
CONTINUOUS
10
6.1225479527559052
20
-4.2977054724409447
11
6.1257411023622046
21
-4.2998390551181105
0
LINE
8
BLACK
6
CONTINUOUS
10
6.1257411023622046
20
-4.2998390551181105
11
6.1278746850393695
21
-4.3030322047244089
0
LINE
8
BLACK
6
CONTINUOUS
10
6.1278746850393695
20
-4.3030322047244089
11
6.1286238976377954
21
-4.3067987795275586
0
LINE
8
BLACK
6
CONTINUOUS
10
6.1286238976377954
20
-4.3067987795275586
11
6.1286238976377954
21
-4.3274680708661419
0
LINE
8
BLACK
6
CONTINUOUS
10
6.1286238976377954
20
-4.3274680708661419
11
6.1278746850393695
21
-4.3312346456692916
0
LINE
8
BLACK
6
CONTINUOUS
10
6.1278746850393695
20
-4.3312346456692916
11
6.1257411023622046
21
-4.3344277952755901
0
LINE
8
BLACK
6
CONTINUOUS
10
6.1257411023622046
20
-4.3344277952755901
11
6.1225479527559052
21
-4.3365613779527559
0
LINE
8
BLACK
6
CONTINUOUS
10
6.1225479527559052
20
-4.3365613779527559
11
6.1187813779527556
21
-4.3373105905511808
0
LINE
8
BLACK
6
CONTINUOUS
10
6.1187813779527556
20
-4.3373105905511808
11
6.0833483070866139
21
-4.3373105905511808
0
LINE
8
BLACK
6
CONTINUOUS
10
6.0833483070866139
20
-4.3373105905511808
11
6.0795817322834642
21
-4.3365613779527559
0
LINE
8
BLACK
6
CONTINUOUS
10
6.0795817322834642
20
-4.3365613779527559
11
6.0763885826771649
21
-4.3344277952755901
0
LINE
8
BLACK
6
CONTINUOUS
10
6.0763885826771649
20
-4.3344277952755901
11
6.074255
21
-4.3312346456692916
0
LINE
8
BLACK
6
CONTINUOUS
10
6.074255
20
-4.3312346456692916
11
6.073505787401575
21
-4.3274680708661419
0
LINE
8
BLACK
6
CONTINUOUS
10
6.073505787401575
20
-4.3274680708661419
11
6.073505787401575
21
-4.3067987795275586
0
LINE
8
BLACK
6
CONTINUOUS
10
6.073505787401575
20
-4.3067987795275586
11
6.074255
21
-4.3030322047244089
0
LINE
8
BLACK
6
CONTINUOUS
10
6.074255
20
-4.3030322047244089
11
6.0763885826771649
21
-4.2998390551181105
0
LINE
8
BLACK
6
CONTINUOUS
10
6.0763885826771649
20
-4.2998390551181105
11
6.0795817322834642
21
-4.2977054724409447
0
LINE
8
BLACK
6
CONTINUOUS
10
6.0795817322834642
20
-4.2977054724409447
11
6.0833483070866139
21
-4.2969562598425197
0
LINE
8
BLACK
6
CONTINUOUS
10
6.0833483070866139
20
-4.2969562598425197
11
6.1187813779527556
21
-4.2969562598425197
0
LINE
8
BLACK
6
CONTINUOUS
10
6.1187813779527556
20
-4.2969562598425197
11
6.1225479527559052
21
-4.2977054724409447
0
LINE
8
BLACK
6
CONTINUOUS
10
6.2225479527559058
20
-4.2977054724409447
11
6.2257411023622042
21
-4.2998390551181105
0
LINE
8
BLACK
6
CONTINUOUS
10
6.2257411023622042
20
-4.2998390551181105
11
6.22787468503937
21
-4.3030322047244089
0
LINE
8
BLACK
6
CONTINUOUS
10
6.22787468503937
20
-4.3030322047244089
11
6.228623897637795
21
-4.3067987795275586
0
LINE
8
BLACK
6
CONTINUOUS
10
6.228623897637795
20
-4.3067987795275586
11
6.228623897637795
21
-4.3274680708661419
0
LINE
8
BLACK
6
CONTINUOUS
10
6.228623897637795
20
-4.3274680708661419
11
6.22787468503937
21
-4.3312346456692916
0
LINE
8
BLACK
6
CONTINUOUS
10
6.22787468503937
20
-4.3312346456692916
11
6.2257411023622042
21
-4.3344277952755901
0
LINE
8
BLACK
6
CONTINUOUS
10
6.2257411023622042
20
-4.3344277952755901
11
6.2225479527559058
21
-4.3365613779527559
0
LINE
8
BLACK
6
CONTINUOUS
10
6.2225479527559058
20
-4.3365613779527559
11
6.2187813779527561
21
-4.3373105905511808
0
LINE
8
BLACK
6
CONTINUOUS
10
6.2187813779527561
20
-4.3373105905511808
11
6.1833483070866144
21
-4.3373105905511808
0
LINE
8
BLACK
6
CONTINUOUS
10
6.1833483070866144
20
-4.3373105905511808
11
6.1795817322834647
21
-4.3365613779527559
0
LINE
8
BLACK
6
CONTINUOUS
10
6.1795817322834647
20
-4.3365613779527559
11
6.1763885826771654
21
-4.3344277952755901
0
LINE
8
BLACK
6
CONTINUOUS
10
6.1763885826771654
20
-4.3344277952755901
11
6.1742549999999996
21
-4.3312346456692916
0
LINE
8
BLACK
6
CONTINUOUS
10
6.1742549999999996
20
-4.3312346456692916
11
6.1735057874015746
21
-4.3274680708661419
0
LINE
8
BLACK
6
CONTINUOUS
10
6.1735057874015746
20
-4.3274680708661419
11
6.1735057874015746
21
-4.3067987795275586
0
LINE
8
BLACK
6
CONTINUOUS
10
6.1735057874015746
20
-4.3067987795275586
11
6.1742549999999996
21
-4.3030322047244089
0
LINE
8
BLACK
6
CONTINUOUS
10
6.1742549999999996
20
-4.3030322047244089
11
6.1763885826771654
21
-4.2998390551181105
0
LINE
8
BLACK
6
CONTINUOUS
10
6.1763885826771654
20
-4.2998390551181105
11
6.1795817322834647
21
-4.2977054724409447
0
LINE
8
BLACK
6
CONTINUOUS
10
6.1795817322834647
20
-4.2977054724409447
11
6.1833483070866144
21
-4.2969562598425197
0
LINE
8
BLACK
6
CONTINUOUS
10
6.1833483070866144
20
-4.2969562598425197
11
6.2187813779527561
21
-4.2969562598425197
0
LINE
8
BLACK
6
CONTINUOUS
10
6.2187813779527561
20
-4.2969562598425197
11
6.2225479527559058
21
-4.2977054724409447
0
LINE
8
BLACK
6
CONTINUOUS
10
6.6231514566929128
20
-4.3338066535433066
11
6.5877183858267712
21
-4.3338066535433066
0
LINE
8
BLACK
6
CONTINUOUS
10
6.5877183858267712
20
-4.3338066535433066
11
6.5877183858267712
21
-4.3023105905511807
0
LINE
8
BLACK
6
CONTINUOUS
10
6.5877183858267712
20
-4.3023105905511807
11
6.6231514566929128
21
-4.3023105905511807
0
LINE
8
BLACK
6
CONTINUOUS
10
6.6231514566929128
20
-4.3023105905511807
11
6.6231514566929128
21
-4.3338066535433066
0
LINE
8
BLACK
6
CONTINUOUS
10
6.7731514566929132
20
-4.3338066535433066
11
6.7377183858267715
21
-4.3338066535433066
0
LINE
8
BLACK
6
CONTINUOUS
10
6.7377183858267715
20
-4.3338066535433066
11
6.7377183858267715
21
-4.3023105905511807
0
LINE
8
BLACK
6
CONTINUOUS
10
6.7377183858267715
20
-4.3023105905511807
11
6.7731514566929132
21
-4.3023105905511807
0
LINE
8
BLACK
6
CONTINUOUS
10
6.7731514566929132
20
-4.3023105905511807
11
6.7731514566929132
21
-4.3338066535433066
0
LINE
8
BLACK
6
CONTINUOUS
10
6.3285648425196852
20
-4.3080586220472439
11
6.2735648425196846
21
-4.3080586220472439
0
LINE
8
BLACK
6
CONTINUOUS
10
6.2735648425196846
20
-4.3080586220472439
11
6.2735648425196846
21
-4.2730586220472437
0
LINE
8
BLACK
6
CONTINUOUS
10
6.2735648425196846
20
-4.2730586220472437
11
6.3285648425196852
21
-4.2730586220472437
0
LINE
8
BLACK
6
CONTINUOUS
10
6.3285648425196852
20
-4.2730586220472437
11
6.3285648425196852
21
-4.3080586220472439
0
LINE
8
BLACK
6
CONTINUOUS
10
6.544411299212598
20
-4.2964050787401575
11
6.5089782283464563
21
-4.2964050787401575
0
LINE
8
BLACK
6
CONTINUOUS
10
6.5089782283464563
20
-4.2964050787401575
11
6.5089782283464563
21
-4.2649090157480316
0
LINE
8
BLACK
6
CONTINUOUS
10
6.5089782283464563
20
-4.2649090157480316
11
6.544411299212598
21
-4.2649090157480316
0
LINE
8
BLACK
6
CONTINUOUS
10
6.544411299212598
20
-4.2649090157480316
11
6.544411299212598
21
-4.2964050787401575
0
LINE
8
BLACK
6
CONTINUOUS
10
6.6944112992125984
20
-4.2964050787401575
11
6.6589782283464567
21
-4.2964050787401575
0
LINE
8
BLACK
6
CONTINUOUS
10
6.6589782283464567
20
-4.2964050787401575
11
6.6589782283464567
21
-4.2649090157480316
0
LINE
8
BLACK
6
CONTINUOUS
10
6.6589782283464567
20
-4.2649090157480316
11
6.6944112992125984
21
-4.2649090157480316
0
LINE
8
BLACK
6
CONTINUOUS
10
6.6944112992125984
20
-4.2649090157480316
11
6.6944112992125984
21
-4.2964050787401575
0
LINE
8
BLACK
6
CONTINUOUS
10
6.1635648425196852
20
-4.2580586220472441
11
6.1085648425196846
21
-4.2580586220472441
0
LINE
8
BLACK
6
CONTINUOUS
10
6.1085648425196846
20
-4.2580586220472441
11
6.1085648425196846
21
-4.2230586220472439
0
LINE
8
BLACK
6
CONTINUOUS
10
6.1085648425196846
20
-4.2230586220472439
11
6.1635648425196852
21
-4.2230586220472439
0
LINE
8
BLACK
6
CONTINUOUS
10
6.1635648425196852
20
-4.2230586220472439
11
6.1635648425196852
21
-4.2580586220472441
0
LINE
8
BLACK
6
CONTINUOUS
10
6.2435648425196852
20
-4.2580586220472441
11
6.1885648425196846
21
-4.2580586220472441
0
LINE
8
BLACK
6
CONTINUOUS
10
6.1885648425196846
20
-4.2580586220472441
11
6.1885648425196846
21
-4.2230586220472439
0
LINE
8
BLACK
6
CONTINUOUS
10
6.1885648425196846
20
-4.2230586220472439
11
6.2435648425196852
21
-4.2230586220472439
0
LINE
8
BLACK
6
CONTINUOUS
10
6.2435648425196852
20
-4.2230586220472439
11
6.2435648425196852
21
-4.2580586220472441
0
LINE
8
BLACK
6
CONTINUOUS
10
6.0835648425196851
20
-4.2555586220472437
11
6.0285648425196845
21
-4.2555586220472437
0
LINE
8
BLACK
6
CONTINUOUS
10
6.0285648425196845
20
-4.2555586220472437
11
6.0285648425196845
21
-4.2205586220472444
0
LINE
8
BLACK
6
CONTINUOUS
10
6.0285648425196845
20
-4.2205586220472444
11
6.0835648425196851
21
-4.2205586220472444
0
LINE
8
BLACK
6
CONTINUOUS
10
6.0835648425196851
20
-4.2205586220472444
11
6.0835648425196851
21
-4.2555586220472437
0
LINE
8
BLACK
6
CONTINUOUS
10
6.3567408661417319
20
-4.1582295275590546
11
6.3599340157480313
21
-4.1603631102362204
0
LINE
8
BLACK
6
CONTINUOUS
10
6.3599340157480313
20
-4.1603631102362204
11
6.3620675984251971
21
-4.1635562598425198
0
LINE
8
BLACK
6
CONTINUOUS
10
6.3620675984251971
20
-4.1635562598425198
11
6.3628168110236221
21
-4.1673228346456694
0
LINE
8
BLACK
6
CONTINUOUS
10
6.3628168110236221
20
-4.1673228346456694
11
6.3628168110236221
21
-4.2027559055118111
0
LINE
8
BLACK
6
CONTINUOUS
10
6.3628168110236221
20
-4.2027559055118111
11
6.3620675984251971
21
-4.2065224803149608
0
LINE
8
BLACK
6
CONTINUOUS
10
6.3620675984251971
20
-4.2065224803149608
11
6.3599340157480313
21
-4.2097156299212601
0
LINE
8
BLACK
6
CONTINUOUS
10
6.3599340157480313
20
-4.2097156299212601
11
6.3567408661417319
21
-4.211849212598425
0
LINE
8
BLACK
6
CONTINUOUS
10
6.3567408661417319
20
-4.211849212598425
11
6.3529742913385823
21
-4.21259842519685
0
LINE
8
BLACK
6
CONTINUOUS
10
6.3529742913385823
20
-4.21259842519685
11
6.3323049999999999
21
-4.21259842519685
0
LINE
8
BLACK
6
CONTINUOUS
10
6.3323049999999999
20
-4.21259842519685
11
6.3285384251968502
21
-4.211849212598425
0
LINE
8
BLACK
6
CONTINUOUS
10
6.3285384251968502
20
-4.211849212598425
11
6.3253452755905508
21
-4.2097156299212601
0
LINE
8
BLACK
6
CONTINUOUS
10
6.3253452755905508
20
-4.2097156299212601
11
6.3232116929133859
21
-4.2065224803149608
0
LINE
8
BLACK
6
CONTINUOUS
10
6.3232116929133859
20
-4.2065224803149608
11
6.3224624803149601
21
-4.2027559055118111
0
LINE
8
BLACK
6
CONTINUOUS
10
6.3224624803149601
20
-4.2027559055118111
11
6.3224624803149601
21
-4.1673228346456694
0
LINE
8
BLACK
6
CONTINUOUS
10
6.3224624803149601
20
-4.1673228346456694
11
6.3232116929133859
21
-4.1635562598425198
0
LINE
8
BLACK
6
CONTINUOUS
10
6.3232116929133859
20
-4.1635562598425198
11
6.3253452755905508
21
-4.1603631102362204
0
LINE
8
BLACK
6
CONTINUOUS
10
6.3253452755905508
20
-4.1603631102362204
11
6.3285384251968502
21
-4.1582295275590546
0
LINE
8
BLACK
6
CONTINUOUS
10
6.3285384251968502
20
-4.1582295275590546
11
6.3323049999999999
21
-4.1574803149606296
0
LINE
8
BLACK
6
CONTINUOUS
10
6.3323049999999999
20
-4.1574803149606296
11
6.3529742913385823
21
-4.1574803149606296
0
LINE
8
BLACK
6
CONTINUOUS
10
6.3529742913385823
20
-4.1574803149606296
11
6.3567408661417319
21
-4.1582295275590546
0
LINE
8
BLACK
6
CONTINUOUS
10
6.4285912598425199
20
-4.1582295275590546
11
6.4317844094488184
21
-4.1603631102362204
0
LINE
8
BLACK
6
CONTINUOUS
10
6.4317844094488184
20
-4.1603631102362204
11
6.4339179921259841
21
-4.1635562598425198
0
LINE
8
BLACK
6
CONTINUOUS
10
6.4339179921259841
20
-4.1635562598425198
11
6.4346672047244091
21
-4.1673228346456694
0
LINE
8
BLACK
6
CONTINUOUS
10
6.4346672047244091
20
-4.1673228346456694
11
6.4346672047244091
21
-4.2027559055118111
0
LINE
8
BLACK
6
CONTINUOUS
10
6.4346672047244091
20
-4.2027559055118111
11
6.4339179921259841
21
-4.2065224803149608
0
LINE
8
BLACK
6
CONTINUOUS
10
6.4339179921259841
20
-4.2065224803149608
11
6.4317844094488184
21
-4.2097156299212601
0
LINE
8
BLACK
6
CONTINUOUS
10
6.4317844094488184
20
-4.2097156299212601
11
6.4285912598425199
21
-4.211849212598425
0
LINE
8
BLACK
6
CONTINUOUS
10
6.4285912598425199
20
-4.211849212598425
11
6.4248246850393702
21
-4.21259842519685
0
LINE
8
BLACK
6
CONTINUOUS
10
6.4248246850393702
20
-4.21259842519685
11
6.4041553937007869
21
-4.21259842519685
0
LINE
8
BLACK
6
CONTINUOUS
10
6.4041553937007869
20
-4.21259842519685
11
6.4003888188976372
21
-4.211849212598425
0
LINE
8
BLACK
6
CONTINUOUS
10
6.4003888188976372
20
-4.211849212598425
11
6.3971956692913388
21
-4.2097156299212601
0
LINE
8
BLACK
6
CONTINUOUS
10
6.3971956692913388
20
-4.2097156299212601
11
6.395062086614173
21
-4.2065224803149608
0
LINE
8
BLACK
6
CONTINUOUS
10
6.395062086614173
20
-4.2065224803149608
11
6.394312874015748
21
-4.2027559055118111
0
LINE
8
BLACK
6
CONTINUOUS
10
6.394312874015748
20
-4.2027559055118111
11
6.394312874015748
21
-4.1673228346456694
0
LINE
8
BLACK
6
CONTINUOUS
10
6.394312874015748
20
-4.1673228346456694
11
6.395062086614173
21
-4.1635562598425198
0
LINE
8
BLACK
6
CONTINUOUS
10
6.395062086614173
20
-4.1635562598425198
11
6.3971956692913388
21
-4.1603631102362204
0
LINE
8
BLACK
6
CONTINUOUS
10
6.3971956692913388
20
-4.1603631102362204
11
6.4003888188976372
21
-4.1582295275590546
0
LINE
8
BLACK
6
CONTINUOUS
10
6.4003888188976372
20
-4.1582295275590546
11
6.4041553937007869
21
-4.1574803149606296
0
LINE
8
BLACK
6
CONTINUOUS
10
6.4041553937007869
20
-4.1574803149606296
11
6.4248246850393702
21
-4.1574803149606296
0
LINE
8
BLACK
6
CONTINUOUS
10
6.4248246850393702
20
-4.1574803149606296
11
6.4285912598425199
21
-4.1582295275590546
0
LINE
8
BLACK
6
CONTINUOUS
10
6.1635648425196852
20
-4.1830586220472439
11
6.1085648425196846
21
-4.1830586220472439
0
LINE
8
BLACK
6
CONTINUOUS
10
6.1085648425196846
20
-4.1830586220472439
11
6.1085648425196846
21
-4.1480586220472437
0
LINE
8
BLACK
6
CONTINUOUS
10
6.1085648425196846
20
-4.1480586220472437
11
6.1635648425196852
21
-4.1480586220472437
0
LINE
8
BLACK
6
CONTINUOUS
10
6.1635648425196852
20
-4.1480586220472437
11
6.1635648425196852
21
-4.1830586220472439
0
LINE
8
BLACK
6
CONTINUOUS
10
6.2435648425196852
20
-4.1830586220472439
11
6.1885648425196846
21
-4.1830586220472439
0
LINE
8
BLACK
6
CONTINUOUS
10
6.1885648425196846
20
-4.1830586220472439
11
6.1885648425196846
21
-4.1480586220472437
0
LINE
8
BLACK
6
CONTINUOUS
10
6.1885648425196846
20
-4.1480586220472437
11
6.2435648425196852
21
-4.1480586220472437
0
LINE
8
BLACK
6
CONTINUOUS
10
6.2435648425196852
20
-4.1480586220472437
11
6.2435648425196852
21
-4.1830586220472439
0
LINE
8
BLACK
6
CONTINUOUS
10
6.0835648425196851
20
-4.1805586220472444
11
6.0285648425196845
21
-4.1805586220472444
0
LINE
8
BLACK
6
CONTINUOUS
10
6.0285648425196845
20
-4.1805586220472444
11
6.0285648425196845
21
-4.1455586220472442
0
LINE
8
BLACK
6
CONTINUOUS
10
6.0285648425196845
20
-4.1455586220472442
11
6.0835648425196851
21
-4.1455586220472442
0
LINE
8
BLACK
6
CONTINUOUS
10
6.0835648425196851
20
-4.1455586220472442
11
6.0835648425196851
21
-4.1805586220472444
0
LINE
8
BLACK
6
CONTINUOUS
10
5.2110648425196846
20
-4.1630586220472443
11
5.1310648425196845
21
-4.1630586220472443
0
LINE
8
BLACK
6
CONTINUOUS
10
5.1310648425196845
20
-4.1630586220472443
11
5.1310648425196845
21
-4.1230586220472443
0
LINE
8
BLACK
6
CONTINUOUS
10
5.1310648425196845
20
-4.1230586220472443
11
5.2110648425196846
21
-4.1230586220472443
0
LINE
8
BLACK
6
CONTINUOUS
10
5.2110648425196846
20
-4.1230586220472443
11
5.2110648425196846
21
-4.1630586220472443
0
LINE
8
BLACK
6
CONTINUOUS
10
5.4710648425196853
20
-4.1250586220472441
11
5.3910648425196852
21
-4.1250586220472441
0
LINE
8
BLACK
6
CONTINUOUS
10
5.3910648425196852
20
-4.1250586220472441
11
5.3910648425196852
21
-3.9810586220472439
0
LINE
8
BLACK
6
CONTINUOUS
10
5.3910648425196852
20
-3.9810586220472439
11
5.4710648425196853
21
-3.9810586220472439
0
LINE
8
BLACK
6
CONTINUOUS
10
5.4710648425196853
20
-3.9810586220472439
11
5.4710648425196853
21
-4.1250586220472441
0
LINE
8
BLACK
6
CONTINUOUS
10
5.5535648425196849
20
-4.1105586220472441
11
5.4985648425196851
21
-4.1105586220472441
0
LINE
8
BLACK
6
CONTINUOUS
10
5.4985648425196851
20
-4.1105586220472441
11
5.4985648425196851
21
-4.075558622047244
0
LINE
8
BLACK
6
CONTINUOUS
10
5.4985648425196851
20
-4.075558622047244
11
5.5535648425196849
21
-4.075558622047244
0
LINE
8
BLACK
6
CONTINUOUS
10
5.5535648425196849
20
-4.075558622047244
11
5.5535648425196849
21
-4.1105586220472441
0
LINE
8
BLACK
6
CONTINUOUS
10
5.0785648425196852
20
-4.1080586220472437
11
5.0235648425196846
21
-4.1080586220472437
0
LINE
8
BLACK
6
CONTINUOUS
10
5.0235648425196846
20
-4.1080586220472437
11
5.0235648425196846
21
-4.0730586220472436
0
LINE
8
BLACK
6
CONTINUOUS
10
5.0235648425196846
20
-4.0730586220472436
11
5.0785648425196852
21
-4.0730586220472436
0
LINE
8
BLACK
6
CONTINUOUS
10
5.0785648425196852
20
-4.0730586220472436
11
5.0785648425196852
21
-4.1080586220472437
0
LINE
8
BLACK
6
CONTINUOUS
10
6.4085648425196853
20
-4.0990586220472442
11
6.3535648425196847
21
-4.0990586220472442
0
LINE
8
BLACK
6
CONTINUOUS
10
6.3535648425196847
20
-4.0990586220472442
11
6.3535648425196847
21
-4.0640586220472441
0
LINE
8
BLACK
6
CONTINUOUS
10
6.3535648425196847
20
-4.0640586220472441
11
6.4085648425196853
21
-4.0640586220472441
0
LINE
8
BLACK
6
CONTINUOUS
10
6.4085648425196853
20
-4.0640586220472441
11
6.4085648425196853
21
-4.0990586220472442
0
LINE
8
BLACK
6
CONTINUOUS
10
6.6085648425196846
20
-4.0990586220472442
11
6.5535648425196849
21
-4.0990586220472442
0
LINE
8
BLACK
6
CONTINUOUS
10
6.5535648425196849
20
-4.0990586220472442
11
6.5535648425196849
21
-4.0640586220472441
0
LINE
8
BLACK
6
CONTINUOUS
10
6.5535648425196849
20
-4.0640586220472441
11
6.6085648425196846
21
-4.0640586220472441
0
LINE
8
BLACK
6
CONTINUOUS
10
6.6085648425196846
20
-4.0640586220472441
11
6.6085648425196846
21
-4.0990586220472442
0
LINE
8
BLACK
6
CONTINUOUS
10
6.7585648425196849
20
-4.0990586220472442
11
6.7035648425196852
21
-4.0990586220472442
0
LINE
8
BLACK
6
CONTINUOUS
10
6.7035648425196852
20
-4.0990586220472442
11
6.7035648425196852
21
-4.0640586220472441
0
LINE
8
BLACK
6
CONTINUOUS
10
6.7035648425196852
20
-4.0640586220472441
11
6.7585648425196849
21
-4.0640586220472441
0
LINE
8
BLACK
6
CONTINUOUS
10
6.7585648425196849
20
-4.0640586220472441
11
6.7585648425196849
21
-4.0990586220472442
0
LINE
8
BLACK
6
CONTINUOUS
10
5.8650970472440944
20
-4.0623010629921259
11
5.8658953149606301
21
-4.0628344488188972
0
LINE
8
BLACK
6
CONTINUOUS
10
5.8658953149606301
20
-4.0628344488188972
11
5.8664287007874014
21
-4.0636327165354329
0
LINE
8
BLACK
6
CONTINUOUS
10
5.8664287007874014
20
-4.0636327165354329
11
5.866616023622047
21
-4.0645743700787405
0
LINE
8
BLACK
6
CONTINUOUS
10
5.866616023622047
20
-4.0645743700787405
11
5.866616023622047
21
-4.0931176771653544
0
LINE
8
BLACK
6
CONTINUOUS
10
5.866616023622047
20
-4.0931176771653544
11
5.8664287007874014
21
-4.094059330708661
0
LINE
8
BLACK
6
CONTINUOUS
10
5.8664287007874014
20
-4.094059330708661
11
5.8658953149606301
21
-4.0948575984251967
0
LINE
8
BLACK
6
CONTINUOUS
10
5.8658953149606301
20
-4.0948575984251967
11
5.8650970472440944
21
-4.095390984251968
0
LINE
8
BLACK
6
CONTINUOUS
10
5.8650970472440944
20
-4.095390984251968
11
5.8641553937007869
21
-4.0955783070866145
0
LINE
8
BLACK
6
CONTINUOUS
10
5.8641553937007869
20
-4.0955783070866145
11
5.8592341338582674
21
-4.0955783070866145
0
LINE
8
BLACK
6
CONTINUOUS
10
5.8592341338582674
20
-4.0955783070866145
11
5.8582924803149607
21
-4.095390984251968
0
LINE
8
BLACK
6
CONTINUOUS
10
5.8582924803149607
20
-4.095390984251968
11
5.8574942125984251
21
-4.0948575984251967
0
LINE
8
BLACK
6
CONTINUOUS
10
5.8574942125984251
20
-4.0948575984251967
11
5.8569608267716537
21
-4.094059330708661
0
LINE
8
BLACK
6
CONTINUOUS
10
5.8569608267716537
20
-4.094059330708661
11
5.8567735039370081
21
-4.0931176771653544
0
LINE
8
BLACK
6
CONTINUOUS
10
5.8567735039370081
20
-4.0931176771653544
11
5.8567735039370081
21
-4.0645743700787405
0
LINE
8
BLACK
6
CONTINUOUS
10
5.8567735039370081
20
-4.0645743700787405
11
5.8569608267716537
21
-4.0636327165354329
0
LINE
8
BLACK
6
CONTINUOUS
10
5.8569608267716537
20
-4.0636327165354329
11
5.8574942125984251
21
-4.0628344488188972
0
LINE
8
BLACK
6
CONTINUOUS
10
5.8574942125984251
20
-4.0628344488188972
11
5.8582924803149607
21
-4.0623010629921259
0
LINE
8
BLACK
6
CONTINUOUS
10
5.8582924803149607
20
-4.0623010629921259
11
5.8592341338582674
21
-4.0621137401574803
0
LINE
8
BLACK
6
CONTINUOUS
10
5.8592341338582674
20
-4.0621137401574803
11
5.8641553937007869
21
-4.0621137401574803
0
LINE
8
BLACK
6
CONTINUOUS
10
5.8641553937007869
20
-4.0621137401574803
11
5.8650970472440944
21
-4.0623010629921259
0
LINE
8
BLACK
6
CONTINUOUS
10
5.8847820866141731
20
-4.0623010629921259
11
5.8855803543307088
21
-4.0628344488188972
0
LINE
8
BLACK
6
CONTINUOUS
10
5.8855803543307088
20
-4.0628344488188972
11
5.8861137401574801
21
-4.0636327165354329
0
LINE
8
BLACK
6
CONTINUOUS
10
5.8861137401574801
20
-4.0636327165354329
11
5.8863010629921257
21
-4.0645743700787405
0
LINE
8
BLACK
6
CONTINUOUS
10
5.8863010629921257
20
-4.0645743700787405
11
5.8863010629921257
21
-4.0931176771653544
0
LINE
8
BLACK
6
CONTINUOUS
10
5.8863010629921257
20
-4.0931176771653544
11
5.8861137401574801
21
-4.094059330708661
0
LINE
8
BLACK
6
CONTINUOUS
10
5.8861137401574801
20
-4.094059330708661
11
5.8855803543307088
21
-4.0948575984251967
0
LINE
8
BLACK
6
CONTINUOUS
10
5.8855803543307088
20
-4.0948575984251967
11
5.8847820866141731
21
-4.095390984251968
0
LINE
8
BLACK
6
CONTINUOUS
10
5.8847820866141731
20
-4.095390984251968
11
5.8838404330708656
21
-4.0955783070866145
0
LINE
8
BLACK
6
CONTINUOUS
10
5.8838404330708656
20
-4.0955783070866145
11
5.8789191732283461
21
-4.0955783070866145
0
LINE
8
BLACK
6
CONTINUOUS
10
5.8789191732283461
20
-4.0955783070866145
11
5.8779775196850395
21
-4.095390984251968
0
LINE
8
BLACK
6
CONTINUOUS
10
5.8779775196850395
20
-4.095390984251968
11
5.8771792519685038
21
-4.0948575984251967
0
LINE
8
BLACK
6
CONTINUOUS
10
5.8771792519685038
20
-4.0948575984251967
11
5.8766458661417325
21
-4.094059330708661
0
LINE
8
BLACK
6
CONTINUOUS
10
5.8766458661417325
20
-4.094059330708661
11
5.8764585433070868
21
-4.0931176771653544
0
LINE
8
BLACK
6
CONTINUOUS
10
5.8764585433070868
20
-4.0931176771653544
11
5.8764585433070868
21
-4.0645743700787405
0
LINE
8
BLACK
6
CONTINUOUS
10
5.8764585433070868
20
-4.0645743700787405
11
5.8766458661417325
21
-4.0636327165354329
0
LINE
8
BLACK
6
CONTINUOUS
10
5.8766458661417325
20
-4.0636327165354329
11
5.8771792519685038
21
-4.0628344488188972
0
LINE
8
BLACK
6
CONTINUOUS
10
5.8771792519685038
20
-4.0628344488188972
11
5.8779775196850395
21
-4.0623010629921259
0
LINE
8
BLACK
6
CONTINUOUS
10
5.8779775196850395
20
-4.0623010629921259
11
5.8789191732283461
21
-4.0621137401574803
0
LINE
8
BLACK
6
CONTINUOUS
10
5.8789191732283461
20
-4.0621137401574803
11
5.8838404330708656
21
-4.0621137401574803
0
LINE
8
BLACK
6
CONTINUOUS
10
5.8838404330708656
20
-4.0621137401574803
11
5.8847820866141731
21
-4.0623010629921259
0
LINE
8
BLACK
6
CONTINUOUS
10
5.9044671259842518
20
-4.0623010629921259
11
5.9052653937007875
21
-4.0628344488188972
0
LINE
8
BLACK
6
CONTINUOUS
10
5.9052653937007875
20
-4.0628344488188972
11
5.9057987795275588
21
-4.0636327165354329
0
LINE
8
BLACK
6
CONTINUOUS
10
5.9057987795275588
20
-4.0636327165354329
11
5.9059861023622044
21
-4.0645743700787405
0
LINE
8
BLACK
6
CONTINUOUS
10
5.9059861023622044
20
-4.0645743700787405
11
5.9059861023622044
21
-4.0931176771653544
0
LINE
8
BLACK
6
CONTINUOUS
10
5.9059861023622044
20
-4.0931176771653544
11
5.9057987795275588
21
-4.094059330708661
0
LINE
8
BLACK
6
CONTINUOUS
10
5.9057987795275588
20
-4.094059330708661
11
5.9052653937007875
21
-4.0948575984251967
0
LINE
8
BLACK
6
CONTINUOUS
10
5.9052653937007875
20
-4.0948575984251967
11
5.9044671259842518
21
-4.095390984251968
0
LINE
8
BLACK
6
CONTINUOUS
10
5.9044671259842518
20
-4.095390984251968
11
5.9035254724409452
21
-4.0955783070866145
0
LINE
8
BLACK
6
CONTINUOUS
10
5.9035254724409452
20
-4.0955783070866145
11
5.8986042125984248
21
-4.0955783070866145
0
LINE
8
BLACK
6
CONTINUOUS
10
5.8986042125984248
20
-4.0955783070866145
11
5.8976625590551182
21
-4.095390984251968
0
LINE
8
BLACK
6
CONTINUOUS
10
5.8976625590551182
20
-4.095390984251968
11
5.8968642913385825
21
-4.0948575984251967
0
LINE
8
BLACK
6
CONTINUOUS
10
5.8968642913385825
20
-4.0948575984251967
11
5.8963309055118112
21
-4.094059330708661
0
LINE
8
BLACK
6
CONTINUOUS
10
5.8963309055118112
20
-4.094059330708661
11
5.8961435826771655
21
-4.0931176771653544
0
LINE
8
BLACK
6
CONTINUOUS
10
5.8961435826771655
20
-4.0931176771653544
11
5.8961435826771655
21
-4.0645743700787405
0
LINE
8
BLACK
6
CONTINUOUS
10
5.8961435826771655
20
-4.0645743700787405
11
5.8963309055118112
21
-4.0636327165354329
0
LINE
8
BLACK
6
CONTINUOUS
10
5.8963309055118112
20
-4.0636327165354329
11
5.8968642913385825
21
-4.0628344488188972
0
LINE
8
BLACK
6
CONTINUOUS
10
5.8968642913385825
20
-4.0628344488188972
11
5.8976625590551182
21
-4.0623010629921259
0
LINE
8
BLACK
6
CONTINUOUS
10
5.8976625590551182
20
-4.0623010629921259
11
5.8986042125984248
21
-4.0621137401574803
0
LINE
8
BLACK
6
CONTINUOUS
10
5.8986042125984248
20
-4.0621137401574803
11
5.9035254724409452
21
-4.0621137401574803
0
LINE
8
BLACK
6
CONTINUOUS
10
5.9035254724409452
20
-4.0621137401574803
11
5.9044671259842518
21
-4.0623010629921259
0
LINE
8
BLACK
6
CONTINUOUS
10
5.9241521653543305
20
-4.0623010629921259
11
5.9249504330708662
21
-4.0628344488188972
0
LINE
8
BLACK
6
CONTINUOUS
10
5.9249504330708662
20
-4.0628344488188972
11
5.9254838188976375
21
-4.0636327165354329
0
LINE
8
BLACK
6
CONTINUOUS
10
5.9254838188976375
20
-4.0636327165354329
11
5.9256711417322832
21
-4.0645743700787405
0
LINE
8
BLACK
6
CONTINUOUS
10
5.9256711417322832
20
-4.0645743700787405
11
5.9256711417322832
21
-4.0931176771653544
0
LINE
8
BLACK
6
CONTINUOUS
10
5.9256711417322832
20
-4.0931176771653544
11
5.9254838188976375
21
-4.094059330708661
0
LINE
8
BLACK
6
CONTINUOUS
10
5.9254838188976375
20
-4.094059330708661
11
5.9249504330708662
21
-4.0948575984251967
0
LINE
8
BLACK
6
CONTINUOUS
10
5.9249504330708662
20
-4.0948575984251967
11
5.9241521653543305
21
-4.095390984251968
0
LINE
8
BLACK
6
CONTINUOUS
10
5.9241521653543305
20
-4.095390984251968
11
5.9232105118110239
21
-4.0955783070866145
0
LINE
8
BLACK
6
CONTINUOUS
10
5.9232105118110239
20
-4.0955783070866145
11
5.9182892519685035
21
-4.0955783070866145
0
LINE
8
BLACK
6
CONTINUOUS
10
5.9182892519685035
20
-4.0955783070866145
11
5.9173475984251969
21
-4.095390984251968
0
LINE
8
BLACK
6
CONTINUOUS
10
5.9173475984251969
20
-4.095390984251968
11
5.9165493307086612
21
-4.0948575984251967
0
LINE
8
BLACK
6
CONTINUOUS
10
5.9165493307086612
20
-4.0948575984251967
11
5.9160159448818899
21
-4.094059330708661
0
LINE
8
BLACK
6
CONTINUOUS
10
5.9160159448818899
20
-4.094059330708661
11
5.9158286220472442
21
-4.0931176771653544
0
LINE
8
BLACK
6
CONTINUOUS
10
5.9158286220472442
20
-4.0931176771653544
11
5.9158286220472442
21
-4.0645743700787405
0
LINE
8
BLACK
6
CONTINUOUS
10
5.9158286220472442
20
-4.0645743700787405
11
5.9160159448818899
21
-4.0636327165354329
0
LINE
8
BLACK
6
CONTINUOUS
10
5.9160159448818899
20
-4.0636327165354329
11
5.9165493307086612
21
-4.0628344488188972
0
LINE
8
BLACK
6
CONTINUOUS
10
5.9165493307086612
20
-4.0628344488188972
11
5.9173475984251969
21
-4.0623010629921259
0
LINE
8
BLACK
6
CONTINUOUS
10
5.9173475984251969
20
-4.0623010629921259
11
5.9182892519685035
21
-4.0621137401574803
0
LINE
8
BLACK
6
CONTINUOUS
10
5.9182892519685035
20
-4.0621137401574803
11
5.9232105118110239
21
-4.0621137401574803
0
LINE
8
BLACK
6
CONTINUOUS
10
5.9232105118110239
20
-4.0621137401574803
11
5.9241521653543305
21
-4.0623010629921259
0
LINE
8
BLACK
6
CONTINUOUS
10
5.9438372047244092
20
-4.0623010629921259
11
5.9446354724409449
21
-4.0628344488188972
0
LINE
8
BLACK
6
CONTINUOUS
10
5.9446354724409449
20
-4.0628344488188972
11
5.9451688582677162
21
-4.0636327165354329
0
LINE
8
BLACK
6
CONTINUOUS
10
5.9451688582677162
20
-4.0636327165354329
11
5.9453561811023619
21
-4.0645743700787405
0
LINE
8
BLACK
6
CONTINUOUS
10
5.9453561811023619
20
-4.0645743700787405
11
5.9453561811023619
21
-4.0931176771653544
0
LINE
8
BLACK
6
CONTINUOUS
10
5.9453561811023619
20
-4.0931176771653544
11
5.9451688582677162
21
-4.094059330708661
0
LINE
8
BLACK
6
CONTINUOUS
10
5.9451688582677162
20
-4.094059330708661
11
5.9446354724409449
21
-4.0948575984251967
0
LINE
8
BLACK
6
CONTINUOUS
10
5.9446354724409449
20
-4.0948575984251967
11
5.9438372047244092
21
-4.095390984251968
0
LINE
8
BLACK
6
CONTINUOUS
10
5.9438372047244092
20
-4.095390984251968
11
5.9428955511811026
21
-4.0955783070866145
0
LINE
8
BLACK
6
CONTINUOUS
10
5.9428955511811026
20
-4.0955783070866145
11
5.9379742913385822
21
-4.0955783070866145
0
LINE
8
BLACK
6
CONTINUOUS
10
5.9379742913385822
20
-4.0955783070866145
11
5.9370326377952756
21
-4.095390984251968
0
LINE
8
BLACK
6
CONTINUOUS
10
5.9370326377952756
20
-4.095390984251968
11
5.9362343700787399
21
-4.0948575984251967
0
LINE
8
BLACK
6
CONTINUOUS
10
5.9362343700787399
20
-4.0948575984251967
11
5.9357009842519686
21
-4.094059330708661
0
LINE
8
BLACK
6
CONTINUOUS
10
5.9357009842519686
20
-4.094059330708661
11
5.935513661417323
21
-4.0931176771653544
0
LINE
8
BLACK
6
CONTINUOUS
10
5.935513661417323
20
-4.0931176771653544
11
5.935513661417323
21
-4.0645743700787405
0
LINE
8
BLACK
6
CONTINUOUS
10
5.935513661417323
20
-4.0645743700787405
11
5.9357009842519686
21
-4.0636327165354329
0
LINE
8
BLACK
6
CONTINUOUS
10
5.9357009842519686
20
-4.0636327165354329
11
5.9362343700787399
21
-4.0628344488188972
0
LINE
8
BLACK
6
CONTINUOUS
10
5.9362343700787399
20
-4.0628344488188972
11
5.9370326377952756
21
-4.0623010629921259
0
LINE
8
BLACK
6
CONTINUOUS
10
5.9370326377952756
20
-4.0623010629921259
11
5.9379742913385822
21
-4.0621137401574803
0
LINE
8
BLACK
6
CONTINUOUS
10
5.9379742913385822
20
-4.0621137401574803
11
5.9428955511811026
21
-4.0621137401574803
0
LINE
8
BLACK
6
CONTINUOUS
10
5.9428955511811026
20
-4.0621137401574803
11
5.9438372047244092
21
-4.0623010629921259
0
LINE
8
BLACK
6
CONTINUOUS
10
6.3193704330708664
20
-4.0533204724409444
11
6.3221644488188975
21
-4.0551873622047241
0
LINE
8
BLACK
6
CONTINUOUS
10
6.3221644488188975
20
-4.0551873622047241
11
6.3240313385826772
21
-4.057981377952756
0
LINE
8
BLACK
6
CONTINUOUS
10
6.3240313385826772
20
-4.057981377952756
11
6.3246868897637798
21
-4.0612771259842519
0
LINE
8
BLACK
6
CONTINUOUS
10
6.3246868897637798
20
-4.0612771259842519
11
6.3246868897637798
21
-4.0785015354330705
0
LINE
8
BLACK
6
CONTINUOUS
10
6.3246868897637798
20
-4.0785015354330705
11
6.3240313385826772
21
-4.0817972834645673
0
LINE
8
BLACK
6
CONTINUOUS
10
6.3240313385826772
20
-4.0817972834645673
11
6.3221644488188975
21
-4.0845912992125983
0
LINE
8
BLACK
6
CONTINUOUS
10
6.3221644488188975
20
-4.0845912992125983
11
6.3193704330708664
21
-4.086458188976378
0
LINE
8
BLACK
6
CONTINUOUS
10
6.3193704330708664
20
-4.086458188976378
11
6.3160746850393696
21
-4.0871137401574806
0
LINE
8
BLACK
6
CONTINUOUS
10
6.3160746850393696
20
-4.0871137401574806
11
6.2860550000000002
21
-4.0871137401574806
0
LINE
8
BLACK
6
CONTINUOUS
10
6.2860550000000002
20
-4.0871137401574806
11
6.2827592519685034
21
-4.086458188976378
0
LINE
8
BLACK
6
CONTINUOUS
10
6.2827592519685034
20
-4.086458188976378
11
6.2799652362204723
21
-4.0845912992125983
0
LINE
8
BLACK
6
CONTINUOUS
10
6.2799652362204723
20
-4.0845912992125983
11
6.2780983464566926
21
-4.0817972834645673
0
LINE
8
BLACK
6
CONTINUOUS
10
6.2780983464566926
20
-4.0817972834645673
11
6.27744279527559
21
-4.0785015354330705
0
LINE
8
BLACK
6
CONTINUOUS
10
6.27744279527559
20
-4.0785015354330705
11
6.27744279527559
21
-4.0612771259842519
0
LINE
8
BLACK
6
CONTINUOUS
10
6.27744279527559
20
-4.0612771259842519
11
6.2780983464566926
21
-4.057981377952756
0
LINE
8
BLACK
6
CONTINUOUS
10
6.2780983464566926
20
-4.057981377952756
11
6.2799652362204723
21
-4.0551873622047241
0
LINE
8
BLACK
6
CONTINUOUS
10
6.2799652362204723
20
-4.0551873622047241
11
6.2827592519685034
21
-4.0533204724409444
0
LINE
8
BLACK
6
CONTINUOUS
10
6.2827592519685034
20
-4.0533204724409444
11
6.2860550000000002
21
-4.0526649212598427
0
LINE
8
BLACK
6
CONTINUOUS
10
6.2860550000000002
20
-4.0526649212598427
11
6.3160746850393696
21
-4.0526649212598427
0
LINE
8
BLACK
6
CONTINUOUS
10
6.3160746850393696
20
-4.0526649212598427
11
6.3193704330708664
21
-4.0533204724409444
0
LINE
8
BLACK
6
CONTINUOUS
10
5.2110648425196846
20
-4.0730586220472436
11
5.1310648425196845
21
-4.0730586220472436
0
LINE
8
BLACK
6
CONTINUOUS
10
5.1310648425196845
20
-4.0730586220472436
11
5.1310648425196845
21
-4.0330586220472444
0
LINE
8
BLACK
6
CONTINUOUS
10
5.1310648425196845
20
-4.0330586220472444
11
5.2110648425196846
21
-4.0330586220472444
0
LINE
8
BLACK
6
CONTINUOUS
10
5.2110648425196846
20
-4.0330586220472444
11
5.2110648425196846
21
-4.0730586220472436
0
LINE
8
BLACK
6
CONTINUOUS
10
5.8916424409448815
20
-4.0071542913385825
11
5.8948355905511809
21
-4.0092878740157483
0
LINE
8
BLACK
6
CONTINUOUS
10
5.8948355905511809
20
-4.0092878740157483
11
5.8969691732283467
21
-4.0124810236220467
0
LINE
8
BLACK
6
CONTINUOUS
10
5.8969691732283467
20
-4.0124810236220467
11
5.8977183858267717
21
-4.0162475984251964
0
LINE
8
BLACK
6
CONTINUOUS
10
5.8977183858267717
20
-4.0162475984251964
11
5.8977183858267717
21
-4.0410507480314957
0
LINE
8
BLACK
6
CONTINUOUS
10
5.8977183858267717
20
-4.0410507480314957
11
5.8969691732283467
21
-4.0448173228346453
0
LINE
8
BLACK
6
CONTINUOUS
10
5.8969691732283467
20
-4.0448173228346453
11
5.8948355905511809
21
-4.0480104724409447
0
LINE
8
BLACK
6
CONTINUOUS
10
5.8948355905511809
20
-4.0480104724409447
11
5.8916424409448815
21
-4.0501440551181105
0
LINE
8
BLACK
6
CONTINUOUS
10
5.8916424409448815
20
-4.0501440551181105
11
5.8878758661417319
21
-4.0508932677165355
0
LINE
8
BLACK
6
CONTINUOUS
10
5.8878758661417319
20
-4.0508932677165355
11
5.8630727165354326
21
-4.0508932677165355
0
LINE
8
BLACK
6
CONTINUOUS
10
5.8630727165354326
20
-4.0508932677165355
11
5.8593061417322829
21
-4.0501440551181105
0
LINE
8
BLACK
6
CONTINUOUS
10
5.8593061417322829
20
-4.0501440551181105
11
5.8561129921259845
21
-4.0480104724409447
0
LINE
8
BLACK
6
CONTINUOUS
10
5.8561129921259845
20
-4.0480104724409447
11
5.8539794094488187
21
-4.0448173228346453
0
LINE
8
BLACK
6
CONTINUOUS
10
5.8539794094488187
20
-4.0448173228346453
11
5.8532301968503937
21
-4.0410507480314957
0
LINE
8
BLACK
6
CONTINUOUS
10
5.8532301968503937
20
-4.0410507480314957
11
5.8532301968503937
21
-4.0162475984251964
0
LINE
8
BLACK
6
CONTINUOUS
10
5.8532301968503937
20
-4.0162475984251964
11
5.8539794094488187
21
-4.0124810236220467
0
LINE
8
BLACK
6
CONTINUOUS
10
5.8539794094488187
20
-4.0124810236220467
11
5.8561129921259845
21
-4.0092878740157483
0
LINE
8
BLACK
6
CONTINUOUS
10
5.8561129921259845
20
-4.0092878740157483
11
5.8593061417322829
21
-4.0071542913385825
0
LINE
8
BLACK
6
CONTINUOUS
10
5.8593061417322829
20
-4.0071542913385825
11
5.8630727165354326
21
-4.0064050787401575
0
LINE
8
BLACK
6
CONTINUOUS
10
5.8630727165354326
20
-4.0064050787401575
11
5.8878758661417319
21
-4.0064050787401575
0
LINE
8
BLACK
6
CONTINUOUS
10
5.8878758661417319
20
-4.0064050787401575
11
5.8916424409448815
21
-4.0071542913385825
0
LINE
8
BLACK
6
CONTINUOUS
10
5.9428235433070862
20
-4.0071542913385825
11
5.9460166929133855
21
-4.0092878740157483
0
LINE
8
BLACK
6
CONTINUOUS
10
5.9460166929133855
20
-4.0092878740157483
11
5.9481502755905513
21
-4.0124810236220467
0
LINE
8
BLACK
6
CONTINUOUS
10
5.9481502755905513
20
-4.0124810236220467
11
5.9488994881889763
21
-4.0162475984251964
0
LINE
8
BLACK
6
CONTINUOUS
10
5.9488994881889763
20
-4.0162475984251964
11
5.9488994881889763
21
-4.0410507480314957
0
LINE
8
BLACK
6
CONTINUOUS
10
5.9488994881889763
20
-4.0410507480314957
11
5.9481502755905513
21
-4.0448173228346453
0
LINE
8
BLACK
6
CONTINUOUS
10
5.9481502755905513
20
-4.0448173228346453
11
5.9460166929133855
21
-4.0480104724409447
0
LINE
8
BLACK
6
CONTINUOUS
10
5.9460166929133855
20
-4.0480104724409447
11
5.9428235433070862
21
-4.0501440551181105
0
LINE
8
BLACK
6
CONTINUOUS
10
5.9428235433070862
20
-4.0501440551181105
11
5.9390569685039365
21
-4.0508932677165355
0
LINE
8
BLACK
6
CONTINUOUS
10
5.9390569685039365
20
-4.0508932677165355
11
5.9142538188976372
21
-4.0508932677165355
0
LINE
8
BLACK
6
CONTINUOUS
10
5.9142538188976372
20
-4.0508932677165355
11
5.9104872440944884
21
-4.0501440551181105
0
LINE
8
BLACK
6
CONTINUOUS
10
5.9104872440944884
20
-4.0501440551181105
11
5.9072940944881891
21
-4.0480104724409447
0
LINE
8
BLACK
6
CONTINUOUS
10
5.9072940944881891
20
-4.0480104724409447
11
5.9051605118110233
21
-4.0448173228346453
0
LINE
8
BLACK
6
CONTINUOUS
10
5.9051605118110233
20
-4.0448173228346453
11
5.9044112992125983
21
-4.0410507480314957
0
LINE
8
BLACK
6
CONTINUOUS
10
5.9044112992125983
20
-4.0410507480314957
11
5.9044112992125983
21
-4.0162475984251964
0
LINE
8
BLACK
6
CONTINUOUS
10
5.9044112992125983
20
-4.0162475984251964
11
5.9051605118110233
21
-4.0124810236220467
0
LINE
8
BLACK
6
CONTINUOUS
10
5.9051605118110233
20
-4.0124810236220467
11
5.9072940944881891
21
-4.0092878740157483
0
LINE
8
BLACK
6
CONTINUOUS
10
5.9072940944881891
20
-4.0092878740157483
11
5.9104872440944884
21
-4.0071542913385825
0
LINE
8
BLACK
6
CONTINUOUS
10
5.9104872440944884
20
-4.0071542913385825
11
5.9142538188976372
21
-4.0064050787401575
0
LINE
8
BLACK
6
CONTINUOUS
10
5.9142538188976372
20
-4.0064050787401575
11
5.9390569685039365
21
-4.0064050787401575
0
LINE
8
BLACK
6
CONTINUOUS
10
5.9390569685039365
20
-4.0064050787401575
11
5.9428235433070862
21
-4.0071542913385825
0
LINE
8
BLACK
6
CONTINUOUS
10
5.8404907480314963
20
-4.0376947637795277
11
5.8412890157480311
21
-4.0382281496062991
0
LINE
8
BLACK
6
CONTINUOUS
10
5.8412890157480311
20
-4.0382281496062991
11
5.8418224015748033
21
-4.0390264173228347
0
LINE
8
BLACK
6
CONTINUOUS
10
5.8418224015748033
20
-4.0390264173228347
11
5.8420097244094489
21
-4.0399680708661414
0
LINE
8
BLACK
6
CONTINUOUS
10
5.8420097244094489
20
-4.0399680708661414
11
5.8420097244094489
21
-4.0448893307086617
0
LINE
8
BLACK
6
CONTINUOUS
10
5.8420097244094489
20
-4.0448893307086617
11
5.8418224015748033
21
-4.0458309842519684
0
LINE
8
BLACK
6
CONTINUOUS
10
5.8418224015748033
20
-4.0458309842519684
11
5.8412890157480311
21
-4.0466292519685041
0
LINE
8
BLACK
6
CONTINUOUS
10
5.8412890157480311
20
-4.0466292519685041
11
5.8404907480314963
21
-4.0471626377952754
0
LINE
8
BLACK
6
CONTINUOUS
10
5.8404907480314963
20
-4.0471626377952754
11
5.8395490944881887
21
-4.047349960629921
0
LINE
8
BLACK
6
CONTINUOUS
10
5.8395490944881887
20
-4.047349960629921
11
5.8110057874015748
21
-4.047349960629921
0
LINE
8
BLACK
6
CONTINUOUS
10
5.8110057874015748
20
-4.047349960629921
11
5.8100641338582673
21
-4.0471626377952754
0
LINE
8
BLACK
6
CONTINUOUS
10
5.8100641338582673
20
-4.0471626377952754
11
5.8092658661417325
21
-4.0466292519685041
0
LINE
8
BLACK
6
CONTINUOUS
10
5.8092658661417325
20
-4.0466292519685041
11
5.8087324803149603
21
-4.0458309842519684
0
LINE
8
BLACK
6
CONTINUOUS
10
5.8087324803149603
20
-4.0458309842519684
11
5.8085451574803146
21
-4.0448893307086617
0
LINE
8
BLACK
6
CONTINUOUS
10
5.8085451574803146
20
-4.0448893307086617
11
5.8085451574803146
21
-4.0399680708661414
0
LINE
8
BLACK
6
CONTINUOUS
10
5.8085451574803146
20
-4.0399680708661414
11
5.8087324803149603
21
-4.0390264173228347
0
LINE
8
BLACK
6
CONTINUOUS
10
5.8087324803149603
20
-4.0390264173228347
11
5.8092658661417325
21
-4.0382281496062991
0
LINE
8
BLACK
6
CONTINUOUS
10
5.8092658661417325
20
-4.0382281496062991
11
5.8100641338582673
21
-4.0376947637795277
0
LINE
8
BLACK
6
CONTINUOUS
10
5.8100641338582673
20
-4.0376947637795277
11
5.8110057874015748
21
-4.0375074409448821
0
LINE
8
BLACK
6
CONTINUOUS
10
5.8110057874015748
20
-4.0375074409448821
11
5.8395490944881887
21
-4.0375074409448821
0
LINE
8
BLACK
6
CONTINUOUS
10
5.8395490944881887
20
-4.0375074409448821
11
5.8404907480314963
21
-4.0376947637795277
0
LINE
8
BLACK
6
CONTINUOUS
10
5.9920655511811018
20
-4.0376947637795277
11
5.9928638188976375
21
-4.0382281496062991
0
LINE
8
BLACK
6
CONTINUOUS
10
5.9928638188976375
20
-4.0382281496062991
11
5.9933972047244097
21
-4.0390264173228347
0
LINE
8
BLACK
6
CONTINUOUS
10
5.9933972047244097
20
-4.0390264173228347
11
5.9935845275590554
21
-4.0399680708661414
0
LINE
8
BLACK
6
CONTINUOUS
10
5.9935845275590554
20
-4.0399680708661414
11
5.9935845275590554
21
-4.0448893307086617
0
LINE
8
BLACK
6
CONTINUOUS
10
5.9935845275590554
20
-4.0448893307086617
11
5.9933972047244097
21
-4.0458309842519684
0
LINE
8
BLACK
6
CONTINUOUS
10
5.9933972047244097
20
-4.0458309842519684
11
5.9928638188976375
21
-4.0466292519685041
0
LINE
8
BLACK
6
CONTINUOUS
10
5.9928638188976375
20
-4.0466292519685041
11
5.9920655511811018
21
-4.0471626377952754
0
LINE
8
BLACK
6
CONTINUOUS
10
5.9920655511811018
20
-4.0471626377952754
11
5.9911238976377952
21
-4.047349960629921
0
LINE
8
BLACK
6
CONTINUOUS
10
5.9911238976377952
20
-4.047349960629921
11
5.9625805905511813
21
-4.047349960629921
0
LINE
8
BLACK
6
CONTINUOUS
10
5.9625805905511813
20
-4.047349960629921
11
5.9616389370078737
21
-4.0471626377952754
0
LINE
8
BLACK
6
CONTINUOUS
10
5.9616389370078737
20
-4.0471626377952754
11
5.960840669291338
21
-4.0466292519685041
0
LINE
8
BLACK
6
CONTINUOUS
10
5.960840669291338
20
-4.0466292519685041
11
5.9603072834645667
21
-4.0458309842519684
0
LINE
8
BLACK
6
CONTINUOUS
10
5.9603072834645667
20
-4.0458309842519684
11
5.9601199606299211
21
-4.0448893307086617
0
LINE
8
BLACK
6
CONTINUOUS
10
5.9601199606299211
20
-4.0448893307086617
11
5.9601199606299211
21
-4.0399680708661414
0
LINE
8
BLACK
6
CONTINUOUS
10
5.9601199606299211
20
-4.0399680708661414
11
5.9603072834645667
21
-4.0390264173228347
0
LINE
8
BLACK
6
CONTINUOUS
10
5.9603072834645667
20
-4.0390264173228347
11
5.960840669291338
21
-4.0382281496062991
0
LINE
8
BLACK
6
CONTINUOUS
10
5.960840669291338
20
-4.0382281496062991
11
5.9616389370078737
21
-4.0376947637795277
0
LINE
8
BLACK
6
CONTINUOUS
10
5.9616389370078737
20
-4.0376947637795277
11
5.9625805905511813
21
-4.0375074409448821
0
LINE
8
BLACK
6
CONTINUOUS
10
5.9625805905511813
20
-4.0375074409448821
11
5.9911238976377952
21
-4.0375074409448821
0
LINE
8
BLACK
6
CONTINUOUS
10
5.9911238976377952
20
-4.0375074409448821
11
5.9920655511811018
21
-4.0376947637795277
0
LINE
8
BLACK
6
CONTINUOUS
10
5.5535648425196849
20
-4.0355586220472439
11
5.4985648425196851
21
-4.0355586220472439
0
LINE
8
BLACK
6
CONTINUOUS
10
5.4985648425196851
20
-4.0355586220472439
11
5.4985648425196851
21
-4.0005586220472438
0
LINE
8
BLACK
6
CONTINUOUS
10
5.4985648425196851
20
-4.0005586220472438
11
5.5535648425196849
21
-4.0005586220472438
0
LINE
8
BLACK
6
CONTINUOUS
10
5.5535648425196849
20
-4.0005586220472438
11
5.5535648425196849
21
-4.0355586220472439
0
LINE
8
BLACK
6
CONTINUOUS
10
5.0785648425196852
20
-4.0330586220472444
11
5.0235648425196846
21
-4.0330586220472444
0
LINE
8
BLACK
6
CONTINUOUS
10
5.0235648425196846
20
-4.0330586220472444
11
5.0235648425196846
21
-3.9980586220472438
0
LINE
8
BLACK
6
CONTINUOUS
10
5.0235648425196846
20
-3.9980586220472438
11
5.0785648425196852
21
-3.9980586220472438
0
LINE
8
BLACK
6
CONTINUOUS
10
5.0785648425196852
20
-3.9980586220472438
11
5.0785648425196852
21
-4.0330586220472444
0
LINE
8
BLACK
6
CONTINUOUS
10
5.8404907480314963
20
-4.018009724409449
11
5.8412890157480311
21
-4.0185431102362204
0
LINE
8
BLACK
6
CONTINUOUS
10
5.8412890157480311
20
-4.0185431102362204
11
5.8418224015748033
21
-4.019341377952756
0
LINE
8
BLACK
6
CONTINUOUS
10
5.8418224015748033
20
-4.019341377952756
11
5.8420097244094489
21
-4.0202830314960627
0
LINE
8
BLACK
6
CONTINUOUS
10
5.8420097244094489
20
-4.0202830314960627
11
5.8420097244094489
21
-4.0252042913385822
0
LINE
8
BLACK
6
CONTINUOUS
10
5.8420097244094489
20
-4.0252042913385822
11
5.8418224015748033
21
-4.0261459448818897
0
LINE
8
BLACK
6
CONTINUOUS
10
5.8418224015748033
20
-4.0261459448818897
11
5.8412890157480311
21
-4.0269442125984254
0
LINE
8
BLACK
6
CONTINUOUS
10
5.8412890157480311
20
-4.0269442125984254
11
5.8404907480314963
21
-4.0274775984251967
0
LINE
8
BLACK
6
CONTINUOUS
10
5.8404907480314963
20
-4.0274775984251967
11
5.8395490944881887
21
-4.0276649212598423
0
LINE
8
BLACK
6
CONTINUOUS
10
5.8395490944881887
20
-4.0276649212598423
11
5.8110057874015748
21
-4.0276649212598423
0
LINE
8
BLACK
6
CONTINUOUS
10
5.8110057874015748
20
-4.0276649212598423
11
5.8100641338582673
21
-4.0274775984251967
0
LINE
8
BLACK
6
CONTINUOUS
10
5.8100641338582673
20
-4.0274775984251967
11
5.8092658661417325
21
-4.0269442125984254
0
LINE
8
BLACK
6
CONTINUOUS
10
5.8092658661417325
20
-4.0269442125984254
11
5.8087324803149603
21
-4.0261459448818897
0
LINE
8
BLACK
6
CONTINUOUS
10
5.8087324803149603
20
-4.0261459448818897
11
5.8085451574803146
21
-4.0252042913385822
0
LINE
8
BLACK
6
CONTINUOUS
10
5.8085451574803146
20
-4.0252042913385822
11
5.8085451574803146
21
-4.0202830314960627
0
LINE
8
BLACK
6
CONTINUOUS
10
5.8085451574803146
20
-4.0202830314960627
11
5.8087324803149603
21
-4.019341377952756
0
LINE
8
BLACK
6
CONTINUOUS
10
5.8087324803149603
20
-4.019341377952756
11
5.8092658661417325
21
-4.0185431102362204
0
LINE
8
BLACK
6
CONTINUOUS
10
5.8092658661417325
20
-4.0185431102362204
11
5.8100641338582673
21
-4.018009724409449
0
LINE
8
BLACK
6
CONTINUOUS
10
5.8100641338582673
20
-4.018009724409449
11
5.8110057874015748
21
-4.0178224015748034
0
LINE
8
BLACK
6
CONTINUOUS
10
5.8110057874015748
20
-4.0178224015748034
11
5.8395490944881887
21
-4.0178224015748034
0
LINE
8
BLACK
6
CONTINUOUS
10
5.8395490944881887
20
-4.0178224015748034
11
5.8404907480314963
21
-4.018009724409449
0
LINE
8
BLACK
6
CONTINUOUS
10
5.9920655511811018
20
-4.018009724409449
11
5.9928638188976375
21
-4.0185431102362204
0
LINE
8
BLACK
6
CONTINUOUS
10
5.9928638188976375
20
-4.0185431102362204
11
5.9933972047244097
21
-4.019341377952756
0
LINE
8
BLACK
6
CONTINUOUS
10
5.9933972047244097
20
-4.019341377952756
11
5.9935845275590554
21
-4.0202830314960627
0
LINE
8
BLACK
6
CONTINUOUS
10
5.9935845275590554
20
-4.0202830314960627
11
5.9935845275590554
21
-4.0252042913385822
0
LINE
8
BLACK
6
CONTINUOUS
10
5.9935845275590554
20
-4.0252042913385822
11
5.9933972047244097
21
-4.0261459448818897
0
LINE
8
BLACK
6
CONTINUOUS
10
5.9933972047244097
20
-4.0261459448818897
11
5.9928638188976375
21
-4.0269442125984254
0
LINE
8
BLACK
6
CONTINUOUS
10
5.9928638188976375
20
-4.0269442125984254
11
5.9920655511811018
21
-4.0274775984251967
0
LINE
8
BLACK
6
CONTINUOUS
10
5.9920655511811018
20
-4.0274775984251967
11
5.9911238976377952
21
-4.0276649212598423
0
LINE
8
BLACK
6
CONTINUOUS
10
5.9911238976377952
20
-4.0276649212598423
11
5.9625805905511813
21
-4.0276649212598423
0
LINE
8
BLACK
6
CONTINUOUS
10
5.9625805905511813
20
-4.0276649212598423
11
5.9616389370078737
21
-4.0274775984251967
0
LINE
8
BLACK
6
CONTINUOUS
10
5.9616389370078737
20
-4.0274775984251967
11
5.960840669291338
21
-4.0269442125984254
0
LINE
8
BLACK
6
CONTINUOUS
10
5.960840669291338
20
-4.0269442125984254
11
5.9603072834645667
21
-4.0261459448818897
0
LINE
8
BLACK
6
CONTINUOUS
10
5.9603072834645667
20
-4.0261459448818897
11
5.9601199606299211
21
-4.0252042913385822
0
LINE
8
BLACK
6
CONTINUOUS
10
5.9601199606299211
20
-4.0252042913385822
11
5.9601199606299211
21
-4.0202830314960627
0
LINE
8
BLACK
6
CONTINUOUS
10
5.9601199606299211
20
-4.0202830314960627
11
5.9603072834645667
21
-4.019341377952756
0
LINE
8
BLACK
6
CONTINUOUS
10
5.9603072834645667
20
-4.019341377952756
11
5.960840669291338
21
-4.0185431102362204
0
LINE
8
BLACK
6
CONTINUOUS
10
5.960840669291338
20
-4.0185431102362204
11
5.9616389370078737
21
-4.018009724409449
0
LINE
8
BLACK
6
CONTINUOUS
10
5.9616389370078737
20
-4.018009724409449
11
5.9625805905511813
21
-4.0178224015748034
0
LINE
8
BLACK
6
CONTINUOUS
10
5.9625805905511813
20
-4.0178224015748034
11
5.9911238976377952
21
-4.0178224015748034
0
LINE
8
BLACK
6
CONTINUOUS
10
5.9911238976377952
20
-4.0178224015748034
11
5.9920655511811018
21
-4.018009724409449
0
LINE
8
BLACK
6
CONTINUOUS
10
6.4085648425196853
20
-4.0240586220472441
11
6.3535648425196847
21
-4.0240586220472441
0
LINE
8
BLACK
6
CONTINUOUS
10
6.3535648425196847
20
-4.0240586220472441
11
6.3535648425196847
21
-3.9890586220472439
0
LINE
8
BLACK
6
CONTINUOUS
10
6.3535648425196847
20
-3.9890586220472439
11
6.4085648425196853
21
-3.9890586220472439
0
LINE
8
BLACK
6
CONTINUOUS
10
6.4085648425196853
20
-3.9890586220472439
11
6.4085648425196853
21
-4.0240586220472441
0
LINE
8
BLACK
6
CONTINUOUS
10
6.6085648425196846
20
-4.0240586220472441
11
6.5535648425196849
21
-4.0240586220472441
0
LINE
8
BLACK
6
CONTINUOUS
10
6.5535648425196849
20
-4.0240586220472441
11
6.5535648425196849
21
-3.9890586220472439
0
LINE
8
BLACK
6
CONTINUOUS
10
6.5535648425196849
20
-3.9890586220472439
11
6.6085648425196846
21
-3.9890586220472439
0
LINE
8
BLACK
6
CONTINUOUS
10
6.6085648425196846
20
-3.9890586220472439
11
6.6085648425196846
21
-4.0240586220472441
0
LINE
8
BLACK
6
CONTINUOUS
10
6.7585648425196849
20
-4.0240586220472441
11
6.7035648425196852
21
-4.0240586220472441
0
LINE
8
BLACK
6
CONTINUOUS
10
6.7035648425196852
20
-4.0240586220472441
11
6.7035648425196852
21
-3.9890586220472439
0
LINE
8
BLACK
6
CONTINUOUS
10
6.7035648425196852
20
-3.9890586220472439
11
6.7585648425196849
21
-3.9890586220472439
0
LINE
8
BLACK
6
CONTINUOUS
10
6.7585648425196849
20
-3.9890586220472439
11
6.7585648425196849
21
-4.0240586220472441
0
LINE
8
BLACK
6
CONTINUOUS
10
6.2235322047244095
20
-3.9715243700787402
11
6.2267253543307088
21
-3.9736579527559055
0
LINE
8
BLACK
6
CONTINUOUS
10
6.2267253543307088
20
-3.9736579527559055
11
6.2288589370078737
21
-3.9768511023622048
0
LINE
8
BLACK
6
CONTINUOUS
10
6.2288589370078737
20
-3.9768511023622048
11
6.2296081496062987
21
-3.9806176771653541
0
LINE
8
BLACK
6
CONTINUOUS
10
6.2296081496062987
20
-3.9806176771653541
11
6.2296081496062987
21
-4.0003027165354332
0
LINE
8
BLACK
6
CONTINUOUS
10
6.2296081496062987
20
-4.0003027165354332
11
6.2288589370078737
21
-4.0040692913385829
0
LINE
8
BLACK
6
CONTINUOUS
10
6.2288589370078737
20
-4.0040692913385829
11
6.2267253543307088
21
-4.0072624409448814
0
LINE
8
BLACK
6
CONTINUOUS
10
6.2267253543307088
20
-4.0072624409448814
11
6.2235322047244095
21
-4.0093960236220472
0
LINE
8
BLACK
6
CONTINUOUS
10
6.2235322047244095
20
-4.0093960236220472
11
6.2197656299212598
21
-4.0101452362204721
0
LINE
8
BLACK
6
CONTINUOUS
10
6.2197656299212598
20
-4.0101452362204721
11
6.1823640551181098
21
-4.0101452362204721
0
LINE
8
BLACK
6
CONTINUOUS
10
6.1823640551181098
20
-4.0101452362204721
11
6.1785974803149601
21
-4.0093960236220472
0
LINE
8
BLACK
6
CONTINUOUS
10
6.1785974803149601
20
-4.0093960236220472
11
6.1754043307086617
21
-4.0072624409448814
0
LINE
8
BLACK
6
CONTINUOUS
10
6.1754043307086617
20
-4.0072624409448814
11
6.1732707480314959
21
-4.0040692913385829
0
LINE
8
BLACK
6
CONTINUOUS
10
6.1732707480314959
20
-4.0040692913385829
11
6.1725215354330709
21
-4.0003027165354332
0
LINE
8
BLACK
6
CONTINUOUS
10
6.1725215354330709
20
-4.0003027165354332
11
6.1725215354330709
21
-3.9806176771653541
0
LINE
8
BLACK
6
CONTINUOUS
10
6.1725215354330709
20
-3.9806176771653541
11
6.1732707480314959
21
-3.9768511023622048
0
LINE
8
BLACK
6
CONTINUOUS
10
6.1732707480314959
20
-3.9768511023622048
11
6.1754043307086617
21
-3.9736579527559055
0
LINE
8
BLACK
6
CONTINUOUS
10
6.1754043307086617
20
-3.9736579527559055
11
6.1785974803149601
21
-3.9715243700787402
0
LINE
8
BLACK
6
CONTINUOUS
10
6.1785974803149601
20
-3.9715243700787402
11
6.1823640551181098
21
-3.9707751574803147
0
LINE
8
BLACK
6
CONTINUOUS
10
6.1823640551181098
20
-3.9707751574803147
11
6.2197656299212598
21
-3.9707751574803147
0
LINE
8
BLACK
6
CONTINUOUS
10
6.2197656299212598
20
-3.9707751574803147
11
6.2235322047244095
21
-3.9715243700787402
0
LINE
8
BLACK
6
CONTINUOUS
10
5.8404907480314963
20
-3.9983246850393699
11
5.8412890157480311
21
-3.9988580708661416
0
LINE
8
BLACK
6
CONTINUOUS
10
5.8412890157480311
20
-3.9988580708661416
11
5.8418224015748033
21
-3.9996563385826769
0
LINE
8
BLACK
6
CONTINUOUS
10
5.8418224015748033
20
-3.9996563385826769
11
5.8420097244094489
21
-4.000597992125984
0
LINE
8
BLACK
6
CONTINUOUS
10
5.8420097244094489
20
-4.000597992125984
11
5.8420097244094489
21
-4.0055192519685034
0
LINE
8
BLACK
6
CONTINUOUS
10
5.8420097244094489
20
-4.0055192519685034
11
5.8418224015748033
21
-4.006460905511811
0
LINE
8
BLACK
6
CONTINUOUS
10
5.8418224015748033
20
-4.006460905511811
11
5.8412890157480311
21
-4.0072591732283467
0
LINE
8
BLACK
6
CONTINUOUS
10
5.8412890157480311
20
-4.0072591732283467
11
5.8404907480314963
21
-4.007792559055118
0
LINE
8
BLACK
6
CONTINUOUS
10
5.8404907480314963
20
-4.007792559055118
11
5.8395490944881887
21
-4.0079798818897636
0
LINE
8
BLACK
6
CONTINUOUS
10
5.8395490944881887
20
-4.0079798818897636
11
5.8110057874015748
21
-4.0079798818897636
0
LINE
8
BLACK
6
CONTINUOUS
10
5.8110057874015748
20
-4.0079798818897636
11
5.8100641338582673
21
-4.007792559055118
0
LINE
8
BLACK
6
CONTINUOUS
10
5.8100641338582673
20
-4.007792559055118
11
5.8092658661417325
21
-4.0072591732283467
0
LINE
8
BLACK
6
CONTINUOUS
10
5.8092658661417325
20
-4.0072591732283467
11
5.8087324803149603
21
-4.006460905511811
0
LINE
8
BLACK
6
CONTINUOUS
10
5.8087324803149603
20
-4.006460905511811
11
5.8085451574803146
21
-4.0055192519685034
0
LINE
8
BLACK
6
CONTINUOUS
10
5.8085451574803146
20
-4.0055192519685034
11
5.8085451574803146
21
-4.000597992125984
0
LINE
8
BLACK
6
CONTINUOUS
10
5.8085451574803146
20
-4.000597992125984
11
5.8087324803149603
21
-3.9996563385826769
0
LINE
8
BLACK
6
CONTINUOUS
10
5.8087324803149603
20
-3.9996563385826769
11
5.8092658661417325
21
-3.9988580708661416
0
LINE
8
BLACK
6
CONTINUOUS
10
5.8092658661417325
20
-3.9988580708661416
11
5.8100641338582673
21
-3.9983246850393699
0
LINE
8
BLACK
6
CONTINUOUS
10
5.8100641338582673
20
-3.9983246850393699
11
5.8110057874015748
21
-3.9981373622047243
0
LINE
8
BLACK
6
CONTINUOUS
10
5.8110057874015748
20
-3.9981373622047243
11
5.8395490944881887
21
-3.9981373622047243
0
LINE
8
BLACK
6
CONTINUOUS
10
5.8395490944881887
20
-3.9981373622047243
11
5.8404907480314963
21
-3.9983246850393699
0
LINE
8
BLACK
6
CONTINUOUS
10
5.9920655511811018
20
-3.9983246850393699
11
5.9928638188976375
21
-3.9988580708661416
0
LINE
8
BLACK
6
CONTINUOUS
10
5.9928638188976375
20
-3.9988580708661416
11
5.9933972047244097
21
-3.9996563385826769
0
LINE
8
BLACK
6
CONTINUOUS
10
5.9933972047244097
20
-3.9996563385826769
11
5.9935845275590554
21
-4.000597992125984
0
LINE
8
BLACK
6
CONTINUOUS
10
5.9935845275590554
20
-4.000597992125984
11
5.9935845275590554
21
-4.0055192519685034
0
LINE
8
BLACK
6
CONTINUOUS
10
5.9935845275590554
20
-4.0055192519685034
11
5.9933972047244097
21
-4.006460905511811
0
LINE
8
BLACK
6
CONTINUOUS
10
5.9933972047244097
20
-4.006460905511811
11
5.9928638188976375
21
-4.0072591732283467
0
LINE
8
BLACK
6
CONTINUOUS
10
5.9928638188976375
20
-4.0072591732283467
11
5.9920655511811018
21
-4.007792559055118
0
LINE
8
BLACK
6
CONTINUOUS
10
5.9920655511811018
20
-4.007792559055118
11
5.9911238976377952
21
-4.0079798818897636
0
LINE
8
BLACK
6
CONTINUOUS
10
5.9911238976377952
20
-4.0079798818897636
11
5.9625805905511813
21
-4.0079798818897636
0
LINE
8
BLACK
6
CONTINUOUS
10
5.9625805905511813
20
-4.0079798818897636
11
5.9616389370078737
21
-4.007792559055118
0
LINE
8
BLACK
6
CONTINUOUS
10
5.9616389370078737
20
-4.007792559055118
11
5.960840669291338
21
-4.0072591732283467
0
LINE
8
BLACK
6
CONTINUOUS
10
5.960840669291338
20
-4.0072591732283467
11
5.9603072834645667
21
-4.006460905511811
0
LINE
8
BLACK
6
CONTINUOUS
10
5.9603072834645667
20
-4.006460905511811
11
5.9601199606299211
21
-4.0055192519685034
0
LINE
8
BLACK
6
CONTINUOUS
10
5.9601199606299211
20
-4.0055192519685034
11
5.9601199606299211
21
-4.000597992125984
0
LINE
8
BLACK
6
CONTINUOUS
10
5.9601199606299211
20
-4.000597992125984
11
5.9603072834645667
21
-3.9996563385826769
0
LINE
8
BLACK
6
CONTINUOUS
10
5.9603072834645667
20
-3.9996563385826769
11
5.960840669291338
21
-3.9988580708661416
0
LINE
8
BLACK
6
CONTINUOUS
10
5.960840669291338
20
-3.9988580708661416
11
5.9616389370078737
21
-3.9983246850393699
0
LINE
8
BLACK
6
CONTINUOUS
10
5.9616389370078737
20
-3.9983246850393699
11
5.9625805905511813
21
-3.9981373622047243
0
LINE
8
BLACK
6
CONTINUOUS
10
5.9625805905511813
20
-3.9981373622047243
11
5.9911238976377952
21
-3.9981373622047243
0
LINE
8
BLACK
6
CONTINUOUS
10
5.9911238976377952
20
-3.9981373622047243
11
5.9920655511811018
21
-3.9983246850393699
0
LINE
8
BLACK
6
CONTINUOUS
10
6.3193704330708664
20
-3.9696590551181101
11
6.3221644488188975
21
-3.9715259448818898
0
LINE
8
BLACK
6
CONTINUOUS
10
6.3221644488188975
20
-3.9715259448818898
11
6.3240313385826772
21
-3.9743199606299213
0
LINE
8
BLACK
6
CONTINUOUS
10
6.3240313385826772
20
-3.9743199606299213
11
6.3246868897637798
21
-3.9776157086614172
0
LINE
8
BLACK
6
CONTINUOUS
10
6.3246868897637798
20
-3.9776157086614172
11
6.3246868897637798
21
-3.9948401181102362
0
LINE
8
BLACK
6
CONTINUOUS
10
6.3246868897637798
20
-3.9948401181102362
11
6.3240313385826772
21
-3.9981358661417321
0
LINE
8
BLACK
6
CONTINUOUS
10
6.3240313385826772
20
-3.9981358661417321
11
6.3221644488188975
21
-4.0009298818897641
0
LINE
8
BLACK
6
CONTINUOUS
10
6.3221644488188975
20
-4.0009298818897641
11
6.3193704330708664
21
-4.0027967716535429
0
LINE
8
BLACK
6
CONTINUOUS
10
6.3193704330708664
20
-4.0027967716535429
11
6.3160746850393696
21
-4.0034523228346455
0
LINE
8
BLACK
6
CONTINUOUS
10
6.3160746850393696
20
-4.0034523228346455
11
6.2860550000000002
21
-4.0034523228346455
0
LINE
8
BLACK
6
CONTINUOUS
10
6.2860550000000002
20
-4.0034523228346455
11
6.2827592519685034
21
-4.0027967716535429
0
LINE
8
BLACK
6
CONTINUOUS
10
6.2827592519685034
20
-4.0027967716535429
11
6.2799652362204723
21
-4.0009298818897641
0
LINE
8
BLACK
6
CONTINUOUS
10
6.2799652362204723
20
-4.0009298818897641
11
6.2780983464566926
21
-3.9981358661417321
0
LINE
8
BLACK
6
CONTINUOUS
10
6.2780983464566926
20
-3.9981358661417321
11
6.27744279527559
21
-3.9948401181102362
0
LINE
8
BLACK
6
CONTINUOUS
10
6.27744279527559
20
-3.9948401181102362
11
6.27744279527559
21
-3.9776157086614172
0
LINE
8
BLACK
6
CONTINUOUS
10
6.27744279527559
20
-3.9776157086614172
11
6.2780983464566926
21
-3.9743199606299213
0
LINE
8
BLACK
6
CONTINUOUS
10
6.2780983464566926
20
-3.9743199606299213
11
6.2799652362204723
21
-3.9715259448818898
0
LINE
8
BLACK
6
CONTINUOUS
10
6.2799652362204723
20
-3.9715259448818898
11
6.2827592519685034
21
-3.9696590551181101
0
LINE
8
BLACK
6
CONTINUOUS
10
6.2827592519685034
20
-3.9696590551181101
11
6.2860550000000002
21
-3.969003503937008
0
LINE
8
BLACK
6
CONTINUOUS
10
6.2860550000000002
20
-3.969003503937008
11
6.3160746850393696
21
-3.969003503937008
0
LINE
8
BLACK
6
CONTINUOUS
10
6.3160746850393696
20
-3.969003503937008
11
6.3193704330708664
21
-3.9696590551181101
0
LINE
8
BLACK
6
CONTINUOUS
10
5.8916424409448815
20
-3.9559731889763778
11
5.8948355905511809
21
-3.9581067716535432
0
LINE
8
BLACK
6
CONTINUOUS
10
5.8948355905511809
20
-3.9581067716535432
11
5.8969691732283467
21
-3.9612999212598425
0
LINE
8
BLACK
6
CONTINUOUS
10
5.8969691732283467
20
-3.9612999212598425
11
5.8977183858267717
21
-3.9650664960629922
0
LINE
8
BLACK
6
CONTINUOUS
10
5.8977183858267717
20
-3.9650664960629922
11
5.8977183858267717
21
-3.989869645669291
0
LINE
8
BLACK
6
CONTINUOUS
10
5.8977183858267717
20
-3.989869645669291
11
5.8969691732283467
21
-3.9936362204724407
0
LINE
8
BLACK
6
CONTINUOUS
10
5.8969691732283467
20
-3.9936362204724407
11
5.8948355905511809
21
-3.9968293700787401
0
LINE
8
BLACK
6
CONTINUOUS
10
5.8948355905511809
20
-3.9968293700787401
11
5.8916424409448815
21
-3.9989629527559054
0
LINE
8
BLACK
6
CONTINUOUS
10
5.8916424409448815
20
-3.9989629527559054
11
5.8878758661417319
21
-3.9997121653543308
0
LINE
8
BLACK
6
CONTINUOUS
10
5.8878758661417319
20
-3.9997121653543308
11
5.8630727165354326
21
-3.9997121653543308
0
LINE
8
BLACK
6
CONTINUOUS
10
5.8630727165354326
20
-3.9997121653543308
11
5.8593061417322829
21
-3.9989629527559054
0
LINE
8
BLACK
6
CONTINUOUS
10
5.8593061417322829
20
-3.9989629527559054
11
5.8561129921259845
21
-3.9968293700787401
0
LINE
8
BLACK
6
CONTINUOUS
10
5.8561129921259845
20
-3.9968293700787401
11
5.8539794094488187
21
-3.9936362204724407
0
LINE
8
BLACK
6
CONTINUOUS
10
5.8539794094488187
20
-3.9936362204724407
11
5.8532301968503937
21
-3.989869645669291
0
LINE
8
BLACK
6
CONTINUOUS
10
5.8532301968503937
20
-3.989869645669291
11
5.8532301968503937
21
-3.9650664960629922
0
LINE
8
BLACK
6
CONTINUOUS
10
5.8532301968503937
20
-3.9650664960629922
11
5.8539794094488187
21
-3.9612999212598425
0
LINE
8
BLACK
6
CONTINUOUS
10
5.8539794094488187
20
-3.9612999212598425
11
5.8561129921259845
21
-3.9581067716535432
0
LINE
8
BLACK
6
CONTINUOUS
10
5.8561129921259845
20
-3.9581067716535432
11
5.8593061417322829
21
-3.9559731889763778
0
LINE
8
BLACK
6
CONTINUOUS
10
5.8593061417322829
20
-3.9559731889763778
11
5.8630727165354326
21
-3.9552239763779529
0
LINE
8
BLACK
6
CONTINUOUS
10
5.8630727165354326
20
-3.9552239763779529
11
5.8878758661417319
21
-3.9552239763779529
0
LINE
8
BLACK
6
CONTINUOUS
10
5.8878758661417319
20
-3.9552239763779529
11
5.8916424409448815
21
-3.9559731889763778
0
LINE
8
BLACK
6
CONTINUOUS
10
5.9428235433070862
20
-3.9559731889763778
11
5.9460166929133855
21
-3.9581067716535432
0
LINE
8
BLACK
6
CONTINUOUS
10
5.9460166929133855
20
-3.9581067716535432
11
5.9481502755905513
21
-3.9612999212598425
0
LINE
8
BLACK
6
CONTINUOUS
10
5.9481502755905513
20
-3.9612999212598425
11
5.9488994881889763
21
-3.9650664960629922
0
LINE
8
BLACK
6
CONTINUOUS
10
5.9488994881889763
20
-3.9650664960629922
11
5.9488994881889763
21
-3.989869645669291
0
LINE
8
BLACK
6
CONTINUOUS
10
5.9488994881889763
20
-3.989869645669291
11
5.9481502755905513
21
-3.9936362204724407
0
LINE
8
BLACK
6
CONTINUOUS
10
5.9481502755905513
20
-3.9936362204724407
11
5.9460166929133855
21
-3.9968293700787401
0
LINE
8
BLACK
6
CONTINUOUS
10
5.9460166929133855
20
-3.9968293700787401
11
5.9428235433070862
21
-3.9989629527559054
0
LINE
8
BLACK
6
CONTINUOUS
10
5.9428235433070862
20
-3.9989629527559054
11
5.9390569685039365
21
-3.9997121653543308
0
LINE
8
BLACK
6
CONTINUOUS
10
5.9390569685039365
20
-3.9997121653543308
11
5.9142538188976372
21
-3.9997121653543308
0
LINE
8
BLACK
6
CONTINUOUS
10
5.9142538188976372
20
-3.9997121653543308
11
5.9104872440944884
21
-3.9989629527559054
0
LINE
8
BLACK
6
CONTINUOUS
10
5.9104872440944884
20
-3.9989629527559054
11
5.9072940944881891
21
-3.9968293700787401
0
LINE
8
BLACK
6
CONTINUOUS
10
5.9072940944881891
20
-3.9968293700787401
11
5.9051605118110233
21
-3.9936362204724407
0
LINE
8
BLACK
6
CONTINUOUS
10
5.9051605118110233
20
-3.9936362204724407
11
5.9044112992125983
21
-3.989869645669291
0
LINE
8
BLACK
6
CONTINUOUS
10
5.9044112992125983
20
-3.989869645669291
11
5.9044112992125983
21
-3.9650664960629922
0
LINE
8
BLACK
6
CONTINUOUS
10
5.9044112992125983
20
-3.9650664960629922
11
5.9051605118110233
21
-3.9612999212598425
0
LINE
8
BLACK
6
CONTINUOUS
10
5.9051605118110233
20
-3.9612999212598425
11
5.9072940944881891
21
-3.9581067716535432
0
LINE
8
BLACK
6
CONTINUOUS
10
5.9072940944881891
20
-3.9581067716535432
11
5.9104872440944884
21
-3.9559731889763778
0
LINE
8
BLACK
6
CONTINUOUS
10
5.9104872440944884
20
-3.9559731889763778
11
5.9142538188976372
21
-3.9552239763779529
0
LINE
8
BLACK
6
CONTINUOUS
10
5.9142538188976372
20
-3.9552239763779529
11
5.9390569685039365
21
-3.9552239763779529
0
LINE
8
BLACK
6
CONTINUOUS
10
5.9390569685039365
20
-3.9552239763779529
11
5.9428235433070862
21
-3.9559731889763778
0
LINE
8
BLACK
6
CONTINUOUS
10
5.8404907480314963
20
-3.9786396456692912
11
5.8412890157480311
21
-3.9791730314960629
0
LINE
8
BLACK
6
CONTINUOUS
10
5.8412890157480311
20
-3.9791730314960629
11
5.8418224015748033
21
-3.9799712992125982
0
LINE
8
BLACK
6
CONTINUOUS
10
5.8418224015748033
20
-3.9799712992125982
11
5.8420097244094489
21
-3.9809129527559053
0
LINE
8
BLACK
6
CONTINUOUS
10
5.8420097244094489
20
-3.9809129527559053
11
5.8420097244094489
21
-3.9858342125984252
0
LINE
8
BLACK
6
CONTINUOUS
10
5.8420097244094489
20
-3.9858342125984252
11
5.8418224015748033
21
-3.9867758661417323
0
LINE
8
BLACK
6
CONTINUOUS
10
5.8418224015748033
20
-3.9867758661417323
11
5.8412890157480311
21
-3.9875741338582675
0
LINE
8
BLACK
6
CONTINUOUS
10
5.8412890157480311
20
-3.9875741338582675
11
5.8404907480314963
21
-3.9881075196850393
0
LINE
8
BLACK
6
CONTINUOUS
10
5.8404907480314963
20
-3.9881075196850393
11
5.8395490944881887
21
-3.9882948425196849
0
LINE
8
BLACK
6
CONTINUOUS
10
5.8395490944881887
20
-3.9882948425196849
11
5.8110057874015748
21
-3.9882948425196849
0
LINE
8
BLACK
6
CONTINUOUS
10
5.8110057874015748
20
-3.9882948425196849
11
5.8100641338582673
21
-3.9881075196850393
0
LINE
8
BLACK
6
CONTINUOUS
10
5.8100641338582673
20
-3.9881075196850393
11
5.8092658661417325
21
-3.9875741338582675
0
LINE
8
BLACK
6
CONTINUOUS
10
5.8092658661417325
20
-3.9875741338582675
11
5.8087324803149603
21
-3.9867758661417323
0
LINE
8
BLACK
6
CONTINUOUS
10
5.8087324803149603
20
-3.9867758661417323
11
5.8085451574803146
21
-3.9858342125984252
0
LINE
8
BLACK
6
CONTINUOUS
10
5.8085451574803146
20
-3.9858342125984252
11
5.8085451574803146
21
-3.9809129527559053
0
LINE
8
BLACK
6
CONTINUOUS
10
5.8085451574803146
20
-3.9809129527559053
11
5.8087324803149603
21
-3.9799712992125982
0
LINE
8
BLACK
6
CONTINUOUS
10
5.8087324803149603
20
-3.9799712992125982
11
5.8092658661417325
21
-3.9791730314960629
0
LINE
8
BLACK
6
CONTINUOUS
10
5.8092658661417325
20
-3.9791730314960629
11
5.8100641338582673
21
-3.9786396456692912
0
LINE
8
BLACK
6
CONTINUOUS
10
5.8100641338582673
20
-3.9786396456692912
11
5.8110057874015748
21
-3.9784523228346456
0
LINE
8
BLACK
6
CONTINUOUS
10
5.8110057874015748
20
-3.9784523228346456
11
5.8395490944881887
21
-3.9784523228346456
0
LINE
8
BLACK
6
CONTINUOUS
10
5.8395490944881887
20
-3.9784523228346456
11
5.8404907480314963
21
-3.9786396456692912
0
LINE
8
BLACK
6
CONTINUOUS
10
5.9920655511811018
20
-3.9786396456692912
11
5.9928638188976375
21
-3.9791730314960629
0
LINE
8
BLACK
6
CONTINUOUS
10
5.9928638188976375
20
-3.9791730314960629
11
5.9933972047244097
21
-3.9799712992125982
0
LINE
8
BLACK
6
CONTINUOUS
10
5.9933972047244097
20
-3.9799712992125982
11
5.9935845275590554
21
-3.9809129527559053
0
LINE
8
BLACK
6
CONTINUOUS
10
5.9935845275590554
20
-3.9809129527559053
11
5.9935845275590554
21
-3.9858342125984252
0
LINE
8
BLACK
6
CONTINUOUS
10
5.9935845275590554
20
-3.9858342125984252
11
5.9933972047244097
21
-3.9867758661417323
0
LINE
8
BLACK
6
CONTINUOUS
10
5.9933972047244097
20
-3.9867758661417323
11
5.9928638188976375
21
-3.9875741338582675
0
LINE
8
BLACK
6
CONTINUOUS
10
5.9928638188976375
20
-3.9875741338582675
11
5.9920655511811018
21
-3.9881075196850393
0
LINE
8
BLACK
6
CONTINUOUS
10
5.9920655511811018
20
-3.9881075196850393
11
5.9911238976377952
21
-3.9882948425196849
0
LINE
8
BLACK
6
CONTINUOUS
10
5.9911238976377952
20
-3.9882948425196849
11
5.9625805905511813
21
-3.9882948425196849
0
LINE
8
BLACK
6
CONTINUOUS
10
5.9625805905511813
20
-3.9882948425196849
11
5.9616389370078737
21
-3.9881075196850393
0
LINE
8
BLACK
6
CONTINUOUS
10
5.9616389370078737
20
-3.9881075196850393
11
5.960840669291338
21
-3.9875741338582675
0
LINE
8
BLACK
6
CONTINUOUS
10
5.960840669291338
20
-3.9875741338582675
11
5.9603072834645667
21
-3.9867758661417323
0
LINE
8
BLACK
6
CONTINUOUS
10
5.9603072834645667
20
-3.9867758661417323
11
5.9601199606299211
21
-3.9858342125984252
0
LINE
8
BLACK
6
CONTINUOUS
10
5.9601199606299211
20
-3.9858342125984252
11
5.9601199606299211
21
-3.9809129527559053
0
LINE
8
BLACK
6
CONTINUOUS
10
5.9601199606299211
20
-3.9809129527559053
11
5.9603072834645667
21
-3.9799712992125982
0
LINE
8
BLACK
6
CONTINUOUS
10
5.9603072834645667
20
-3.9799712992125982
11
5.960840669291338
21
-3.9791730314960629
0
LINE
8
BLACK
6
CONTINUOUS
10
5.960840669291338
20
-3.9791730314960629
11
5.9616389370078737
21
-3.9786396456692912
0
LINE
8
BLACK
6
CONTINUOUS
10
5.9616389370078737
20
-3.9786396456692912
11
5.9625805905511813
21
-3.9784523228346456
0
LINE
8
BLACK
6
CONTINUOUS
10
5.9625805905511813
20
-3.9784523228346456
11
5.9911238976377952
21
-3.9784523228346456
0
LINE
8
BLACK
6
CONTINUOUS
10
5.9911238976377952
20
-3.9784523228346456
11
5.9920655511811018
21
-3.9786396456692912
0
LINE
8
BLACK
6
CONTINUOUS
10
5.2110648425196846
20
-3.9830586220472441
11
5.1310648425196845
21
-3.9830586220472441
0
LINE
8
BLACK
6
CONTINUOUS
10
5.1310648425196845
20
-3.9830586220472441
11
5.1310648425196845
21
-3.9430586220472441
0
LINE
8
BLACK
6
CONTINUOUS
10
5.1310648425196845
20
-3.9430586220472441
11
5.2110648425196846
21
-3.9430586220472441
0
LINE
8
BLACK
6
CONTINUOUS
10
5.2110648425196846
20
-3.9430586220472441
11
5.2110648425196846
21
-3.9830586220472441
0
LINE
8
BLACK
6
CONTINUOUS
10
5.8404907480314963
20
-3.9589546062992125
11
5.8412890157480311
21
-3.9594879921259842
0
LINE
8
BLACK
6
CONTINUOUS
10
5.8412890157480311
20
-3.9594879921259842
11
5.8418224015748033
21
-3.9602862598425195
0
LINE
8
BLACK
6
CONTINUOUS
10
5.8418224015748033
20
-3.9602862598425195
11
5.8420097244094489
21
-3.9612279133858266
0
LINE
8
BLACK
6
CONTINUOUS
10
5.8420097244094489
20
-3.9612279133858266
11
5.8420097244094489
21
-3.9661491732283465
0
LINE
8
BLACK
6
CONTINUOUS
10
5.8420097244094489
20
-3.9661491732283465
11
5.8418224015748033
21
-3.9670908267716536
0
LINE
8
BLACK
6
CONTINUOUS
10
5.8418224015748033
20
-3.9670908267716536
11
5.8412890157480311
21
-3.9678890944881888
0
LINE
8
BLACK
6
CONTINUOUS
10
5.8412890157480311
20
-3.9678890944881888
11
5.8404907480314963
21
-3.9684224803149606
0
LINE
8
BLACK
6
CONTINUOUS
10
5.8404907480314963
20
-3.9684224803149606
11
5.8395490944881887
21
-3.9686098031496062
0
LINE
8
BLACK
6
CONTINUOUS
10
5.8395490944881887
20
-3.9686098031496062
11
5.8110057874015748
21
-3.9686098031496062
0
LINE
8
BLACK
6
CONTINUOUS
10
5.8110057874015748
20
-3.9686098031496062
11
5.8100641338582673
21
-3.9684224803149606
0
LINE
8
BLACK
6
CONTINUOUS
10
5.8100641338582673
20
-3.9684224803149606
11
5.8092658661417325
21
-3.9678890944881888
0
LINE
8
BLACK
6
CONTINUOUS
10
5.8092658661417325
20
-3.9678890944881888
11
5.8087324803149603
21
-3.9670908267716536
0
LINE
8
BLACK
6
CONTINUOUS
10
5.8087324803149603
20
-3.9670908267716536
11
5.8085451574803146
21
-3.9661491732283465
0
LINE
8
BLACK
6
CONTINUOUS
10
5.8085451574803146
20
-3.9661491732283465
11
5.8085451574803146
21
-3.9612279133858266
0
LINE
8
BLACK
6
CONTINUOUS
10
5.8085451574803146
20
-3.9612279133858266
11
5.8087324803149603
21
-3.9602862598425195
0
LINE
8
BLACK
6
CONTINUOUS
10
5.8087324803149603
20
-3.9602862598425195
11
5.8092658661417325
21
-3.9594879921259842
0
LINE
8
BLACK
6
CONTINUOUS
10
5.8092658661417325
20
-3.9594879921259842
11
5.8100641338582673
21
-3.9589546062992125
0
LINE
8
BLACK
6
CONTINUOUS
10
5.8100641338582673
20
-3.9589546062992125
11
5.8110057874015748
21
-3.9587672834645669
0
LINE
8
BLACK
6
CONTINUOUS
10
5.8110057874015748
20
-3.9587672834645669
11
5.8395490944881887
21
-3.9587672834645669
0
LINE
8
BLACK
6
CONTINUOUS
10
5.8395490944881887
20
-3.9587672834645669
11
5.8404907480314963
21
-3.9589546062992125
0
LINE
8
BLACK
6
CONTINUOUS
10
5.9920655511811018
20
-3.9589546062992125
11
5.9928638188976375
21
-3.9594879921259842
0
LINE
8
BLACK
6
CONTINUOUS
10
5.9928638188976375
20
-3.9594879921259842
11
5.9933972047244097
21
-3.9602862598425195
0
LINE
8
BLACK
6
CONTINUOUS
10
5.9933972047244097
20
-3.9602862598425195
11
5.9935845275590554
21
-3.9612279133858266
0
LINE
8
BLACK
6
CONTINUOUS
10
5.9935845275590554
20
-3.9612279133858266
11
5.9935845275590554
21
-3.9661491732283465
0
LINE
8
BLACK
6
CONTINUOUS
10
5.9935845275590554
20
-3.9661491732283465
11
5.9933972047244097
21
-3.9670908267716536
0
LINE
8
BLACK
6
CONTINUOUS
10
5.9933972047244097
20
-3.9670908267716536
11
5.9928638188976375
21
-3.9678890944881888
0
LINE
8
BLACK
6
CONTINUOUS
10
5.9928638188976375
20
-3.9678890944881888
11
5.9920655511811018
21
-3.9684224803149606
0
LINE
8
BLACK
6
CONTINUOUS
10
5.9920655511811018
20
-3.9684224803149606
11
5.9911238976377952
21
-3.9686098031496062
0
LINE
8
BLACK
6
CONTINUOUS
10
5.9911238976377952
20
-3.9686098031496062
11
5.9625805905511813
21
-3.9686098031496062
0
LINE
8
BLACK
6
CONTINUOUS
10
5.9625805905511813
20
-3.9686098031496062
11
5.9616389370078737
21
-3.9684224803149606
0
LINE
8
BLACK
6
CONTINUOUS
10
5.9616389370078737
20
-3.9684224803149606
11
5.960840669291338
21
-3.9678890944881888
0
LINE
8
BLACK
6
CONTINUOUS
10
5.960840669291338
20
-3.9678890944881888
11
5.9603072834645667
21
-3.9670908267716536
0
LINE
8
BLACK
6
CONTINUOUS
10
5.9603072834645667
20
-3.9670908267716536
11
5.9601199606299211
21
-3.9661491732283465
0
LINE
8
BLACK
6
CONTINUOUS
10
5.9601199606299211
20
-3.9661491732283465
11
5.9601199606299211
21
-3.9612279133858266
0
LINE
8
BLACK
6
CONTINUOUS
10
5.9601199606299211
20
-3.9612279133858266
11
5.9603072834645667
21
-3.9602862598425195
0
LINE
8
BLACK
6
CONTINUOUS
10
5.9603072834645667
20
-3.9602862598425195
11
5.960840669291338
21
-3.9594879921259842
0
LINE
8
BLACK
6
CONTINUOUS
10
5.960840669291338
20
-3.9594879921259842
11
5.9616389370078737
21
-3.9589546062992125
0
LINE
8
BLACK
6
CONTINUOUS
10
5.9616389370078737
20
-3.9589546062992125
11
5.9625805905511813
21
-3.9587672834645669
0
LINE
8
BLACK
6
CONTINUOUS
10
5.9625805905511813
20
-3.9587672834645669
11
5.9911238976377952
21
-3.9587672834645669
0
LINE
8
BLACK
6
CONTINUOUS
10
5.9911238976377952
20
-3.9587672834645669
11
5.9920655511811018
21
-3.9589546062992125
0
LINE
8
BLACK
6
CONTINUOUS
10
6.7542408661417319
20
-3.891248779527559
11
6.7574340157480313
21
-3.8933823622047243
0
LINE
8
BLACK
6
CONTINUOUS
10
6.7574340157480313
20
-3.8933823622047243
11
6.7595675984251971
21
-3.8965755118110237
0
LINE
8
BLACK
6
CONTINUOUS
10
6.7595675984251971
20
-3.8965755118110237
11
6.760316811023622
21
-3.9003420866141729
0
LINE
8
BLACK
6
CONTINUOUS
10
6.760316811023622
20
-3.9003420866141729
11
6.760316811023622
21
-3.935775157480315
0
LINE
8
BLACK
6
CONTINUOUS
10
6.760316811023622
20
-3.935775157480315
11
6.7595675984251971
21
-3.9395417322834643
0
LINE
8
BLACK
6
CONTINUOUS
10
6.7595675984251971
20
-3.9395417322834643
11
6.7574340157480313
21
-3.9427348818897636
0
LINE
8
BLACK
6
CONTINUOUS
10
6.7574340157480313
20
-3.9427348818897636
11
6.7542408661417319
21
-3.944868464566929
0
LINE
8
BLACK
6
CONTINUOUS
10
6.7542408661417319
20
-3.944868464566929
11
6.7504742913385822
21
-3.9456176771653544
0
LINE
8
BLACK
6
CONTINUOUS
10
6.7504742913385822
20
-3.9456176771653544
11
6.7298049999999998
21
-3.9456176771653544
0
LINE
8
BLACK
6
CONTINUOUS
10
6.7298049999999998
20
-3.9456176771653544
11
6.7260384251968501
21
-3.944868464566929
0
LINE
8
BLACK
6
CONTINUOUS
10
6.7260384251968501
20
-3.944868464566929
11
6.7228452755905508
21
-3.9427348818897636
0
LINE
8
BLACK
6
CONTINUOUS
10
6.7228452755905508
20
-3.9427348818897636
11
6.7207116929133859
21
-3.9395417322834643
0
LINE
8
BLACK
6
CONTINUOUS
10
6.7207116929133859
20
-3.9395417322834643
11
6.7199624803149609
21
-3.935775157480315
0
LINE
8
BLACK
6
CONTINUOUS
10
6.7199624803149609
20
-3.935775157480315
11
6.7199624803149609
21
-3.9003420866141729
0
LINE
8
BLACK
6
CONTINUOUS
10
6.7199624803149609
20
-3.9003420866141729
11
6.7207116929133859
21
-3.8965755118110237
0
LINE
8
BLACK
6
CONTINUOUS
10
6.7207116929133859
20
-3.8965755118110237
11
6.7228452755905508
21
-3.8933823622047243
0
LINE
8
BLACK
6
CONTINUOUS
10
6.7228452755905508
20
-3.8933823622047243
11
6.7260384251968501
21
-3.891248779527559
0
LINE
8
BLACK
6
CONTINUOUS
10
6.7260384251968501
20
-3.891248779527559
11
6.7298049999999998
21
-3.8904995669291336
0
LINE
8
BLACK
6
CONTINUOUS
10
6.7298049999999998
20
-3.8904995669291336
11
6.7504742913385822
21
-3.8904995669291336
0
LINE
8
BLACK
6
CONTINUOUS
10
6.7504742913385822
20
-3.8904995669291336
11
6.7542408661417319
21
-3.891248779527559
0
LINE
8
BLACK
6
CONTINUOUS
10
6.8260912598425199
20
-3.891248779527559
11
6.8292844094488183
21
-3.8933823622047243
0
LINE
8
BLACK
6
CONTINUOUS
10
6.8292844094488183
20
-3.8933823622047243
11
6.8314179921259841
21
-3.8965755118110237
0
LINE
8
BLACK
6
CONTINUOUS
10
6.8314179921259841
20
-3.8965755118110237
11
6.8321672047244091
21
-3.9003420866141729
0
LINE
8
BLACK
6
CONTINUOUS
10
6.8321672047244091
20
-3.9003420866141729
11
6.8321672047244091
21
-3.935775157480315
0
LINE
8
BLACK
6
CONTINUOUS
10
6.8321672047244091
20
-3.935775157480315
11
6.8314179921259841
21
-3.9395417322834643
0
LINE
8
BLACK
6
CONTINUOUS
10
6.8314179921259841
20
-3.9395417322834643
11
6.8292844094488183
21
-3.9427348818897636
0
LINE
8
BLACK
6
CONTINUOUS
10
6.8292844094488183
20
-3.9427348818897636
11
6.8260912598425199
21
-3.944868464566929
0
LINE
8
BLACK
6
CONTINUOUS
10
6.8260912598425199
20
-3.944868464566929
11
6.8223246850393702
21
-3.9456176771653544
0
LINE
8
BLACK
6
CONTINUOUS
10
6.8223246850393702
20
-3.9456176771653544
11
6.8016553937007869
21
-3.9456176771653544
0
LINE
8
BLACK
6
CONTINUOUS
10
6.8016553937007869
20
-3.9456176771653544
11
6.7978888188976381
21
-3.944868464566929
0
LINE
8
BLACK
6
CONTINUOUS
10
6.7978888188976381
20
-3.944868464566929
11
6.7946956692913387
21
-3.9427348818897636
0
LINE
8
BLACK
6
CONTINUOUS
10
6.7946956692913387
20
-3.9427348818897636
11
6.7925620866141729
21
-3.9395417322834643
0
LINE
8
BLACK
6
CONTINUOUS
10
6.7925620866141729
20
-3.9395417322834643
11
6.791812874015748
21
-3.935775157480315
0
LINE
8
BLACK
6
CONTINUOUS
10
6.791812874015748
20
-3.935775157480315
11
6.791812874015748
21
-3.9003420866141729
0
LINE
8
BLACK
6
CONTINUOUS
10
6.791812874015748
20
-3.9003420866141729
11
6.7925620866141729
21
-3.8965755118110237
0
LINE
8
BLACK
6
CONTINUOUS
10
6.7925620866141729
20
-3.8965755118110237
11
6.7946956692913387
21
-3.8933823622047243
0
LINE
8
BLACK
6
CONTINUOUS
10
6.7946956692913387
20
-3.8933823622047243
11
6.7978888188976381
21
-3.891248779527559
0
LINE
8
BLACK
6
CONTINUOUS
10
6.7978888188976381
20
-3.891248779527559
11
6.8016553937007869
21
-3.8904995669291336
0
LINE
8
BLACK
6
CONTINUOUS
10
6.8016553937007869
20
-3.8904995669291336
11
6.8223246850393702
21
-3.8904995669291336
0
LINE
8
BLACK
6
CONTINUOUS
10
6.8223246850393702
20
-3.8904995669291336
11
6.8260912598425199
21
-3.891248779527559
0
LINE
8
BLACK
6
CONTINUOUS
10
5.8650970472440944
20
-3.9107262598425194
11
5.8658953149606301
21
-3.9112596456692912
0
LINE
8
BLACK
6
CONTINUOUS
10
5.8658953149606301
20
-3.9112596456692912
11
5.8664287007874014
21
-3.9120579133858269
0
LINE
8
BLACK
6
CONTINUOUS
10
5.8664287007874014
20
-3.9120579133858269
11
5.866616023622047
21
-3.912999566929134
0
LINE
8
BLACK
6
CONTINUOUS
10
5.866616023622047
20
-3.912999566929134
11
5.866616023622047
21
-3.9415428740157479
0
LINE
8
BLACK
6
CONTINUOUS
10
5.866616023622047
20
-3.9415428740157479
11
5.8664287007874014
21
-3.942484527559055
0
LINE
8
BLACK
6
CONTINUOUS
10
5.8664287007874014
20
-3.942484527559055
11
5.8658953149606301
21
-3.9432827952755907
0
LINE
8
BLACK
6
CONTINUOUS
10
5.8658953149606301
20
-3.9432827952755907
11
5.8650970472440944
21
-3.943816181102362
0
LINE
8
BLACK
6
CONTINUOUS
10
5.8650970472440944
20
-3.943816181102362
11
5.8641553937007869
21
-3.9440035039370076
0
LINE
8
BLACK
6
CONTINUOUS
10
5.8641553937007869
20
-3.9440035039370076
11
5.8592341338582674
21
-3.9440035039370076
0
LINE
8
BLACK
6
CONTINUOUS
10
5.8592341338582674
20
-3.9440035039370076
11
5.8582924803149607
21
-3.943816181102362
0
LINE
8
BLACK
6
CONTINUOUS
10
5.8582924803149607
20
-3.943816181102362
11
5.8574942125984251
21
-3.9432827952755907
0
LINE
8
BLACK
6
CONTINUOUS
10
5.8574942125984251
20
-3.9432827952755907
11
5.8569608267716537
21
-3.942484527559055
0
LINE
8
BLACK
6
CONTINUOUS
10
5.8569608267716537
20
-3.942484527559055
11
5.8567735039370081
21
-3.9415428740157479
0
LINE
8
BLACK
6
CONTINUOUS
10
5.8567735039370081
20
-3.9415428740157479
11
5.8567735039370081
21
-3.912999566929134
0
LINE
8
BLACK
6
CONTINUOUS
10
5.8567735039370081
20
-3.912999566929134
11
5.8569608267716537
21
-3.9120579133858269
0
LINE
8
BLACK
6
CONTINUOUS
10
5.8569608267716537
20
-3.9120579133858269
11
5.8574942125984251
21
-3.9112596456692912
0
LINE
8
BLACK
6
CONTINUOUS
10
5.8574942125984251
20
-3.9112596456692912
11
5.8582924803149607
21
-3.9107262598425194
0
LINE
8
BLACK
6
CONTINUOUS
10
5.8582924803149607
20
-3.9107262598425194
11
5.8592341338582674
21
-3.9105389370078738
0
LINE
8
BLACK
6
CONTINUOUS
10
5.8592341338582674
20
-3.9105389370078738
11
5.8641553937007869
21
-3.9105389370078738
0
LINE
8
BLACK
6
CONTINUOUS
10
5.8641553937007869
20
-3.9105389370078738
11
5.8650970472440944
21
-3.9107262598425194
0
LINE
8
BLACK
6
CONTINUOUS
10
5.8847820866141731
20
-3.9107262598425194
11
5.8855803543307088
21
-3.9112596456692912
0
LINE
8
BLACK
6
CONTINUOUS
10
5.8855803543307088
20
-3.9112596456692912
11
5.8861137401574801
21
-3.9120579133858269
0
LINE
8
BLACK
6
CONTINUOUS
10
5.8861137401574801
20
-3.9120579133858269
11
5.8863010629921257
21
-3.912999566929134
0
LINE
8
BLACK
6
CONTINUOUS
10
5.8863010629921257
20
-3.912999566929134
11
5.8863010629921257
21
-3.9415428740157479
0
LINE
8
BLACK
6
CONTINUOUS
10
5.8863010629921257
20
-3.9415428740157479
11
5.8861137401574801
21
-3.942484527559055
0
LINE
8
BLACK
6
CONTINUOUS
10
5.8861137401574801
20
-3.942484527559055
11
5.8855803543307088
21
-3.9432827952755907
0
LINE
8
BLACK
6
CONTINUOUS
10
5.8855803543307088
20
-3.9432827952755907
11
5.8847820866141731
21
-3.943816181102362
0
LINE
8
BLACK
6
CONTINUOUS
10
5.8847820866141731
20
-3.943816181102362
11
5.8838404330708656
21
-3.9440035039370076
0
LINE
8
BLACK
6
CONTINUOUS
10
5.8838404330708656
20
-3.9440035039370076
11
5.8789191732283461
21
-3.9440035039370076
0
LINE
8
BLACK
6
CONTINUOUS
10
5.8789191732283461
20
-3.9440035039370076
11
5.8779775196850395
21
-3.943816181102362
0
LINE
8
BLACK
6
CONTINUOUS
10
5.8779775196850395
20
-3.943816181102362
11
5.8771792519685038
21
-3.9432827952755907
0
LINE
8
BLACK
6
CONTINUOUS
10
5.8771792519685038
20
-3.9432827952755907
11
5.8766458661417325
21
-3.942484527559055
0
LINE
8
BLACK
6
CONTINUOUS
10
5.8766458661417325
20
-3.942484527559055
11
5.8764585433070868
21
-3.9415428740157479
0
LINE
8
BLACK
6
CONTINUOUS
10
5.8764585433070868
20
-3.9415428740157479
11
5.8764585433070868
21
-3.912999566929134
0
LINE
8
BLACK
6
CONTINUOUS
10
5.8764585433070868
20
-3.912999566929134
11
5.8766458661417325
21
-3.9120579133858269
0
LINE
8
BLACK
6
CONTINUOUS
10
5.8766458661417325
20
-3.9120579133858269
11
5.8771792519685038
21
-3.9112596456692912
0
LINE
8
BLACK
6
CONTINUOUS
10
5.8771792519685038
20
-3.9112596456692912
11
5.8779775196850395
21
-3.9107262598425194
0
LINE
8
BLACK
6
CONTINUOUS
10
5.8779775196850395
20
-3.9107262598425194
11
5.8789191732283461
21
-3.9105389370078738
0
LINE
8
BLACK
6
CONTINUOUS
10
5.8789191732283461
20
-3.9105389370078738
11
5.8838404330708656
21
-3.9105389370078738
0
LINE
8
BLACK
6
CONTINUOUS
10
5.8838404330708656
20
-3.9105389370078738
11
5.8847820866141731
21
-3.9107262598425194
0
LINE
8
BLACK
6
CONTINUOUS
10
5.9044671259842518
20
-3.9107262598425194
11
5.9052653937007875
21
-3.9112596456692912
0
LINE
8
BLACK
6
CONTINUOUS
10
5.9052653937007875
20
-3.9112596456692912
11
5.9057987795275588
21
-3.9120579133858269
0
LINE
8
BLACK
6
CONTINUOUS
10
5.9057987795275588
20
-3.9120579133858269
11
5.9059861023622044
21
-3.912999566929134
0
LINE
8
BLACK
6
CONTINUOUS
10
5.9059861023622044
20
-3.912999566929134
11
5.9059861023622044
21
-3.9415428740157479
0
LINE
8
BLACK
6
CONTINUOUS
10
5.9059861023622044
20
-3.9415428740157479
11
5.9057987795275588
21
-3.942484527559055
0
LINE
8
BLACK
6
CONTINUOUS
10
5.9057987795275588
20
-3.942484527559055
11
5.9052653937007875
21
-3.9432827952755907
0
LINE
8
BLACK
6
CONTINUOUS
10
5.9052653937007875
20
-3.9432827952755907
11
5.9044671259842518
21
-3.943816181102362
0
LINE
8
BLACK
6
CONTINUOUS
10
5.9044671259842518
20
-3.943816181102362
11
5.9035254724409452
21
-3.9440035039370076
0
LINE
8
BLACK
6
CONTINUOUS
10
5.9035254724409452
20
-3.9440035039370076
11
5.8986042125984248
21
-3.9440035039370076
0
LINE
8
BLACK
6
CONTINUOUS
10
5.8986042125984248
20
-3.9440035039370076
11
5.8976625590551182
21
-3.943816181102362
0
LINE
8
BLACK
6
CONTINUOUS
10
5.8976625590551182
20
-3.943816181102362
11
5.8968642913385825
21
-3.9432827952755907
0
LINE
8
BLACK
6
CONTINUOUS
10
5.8968642913385825
20
-3.9432827952755907
11
5.8963309055118112
21
-3.942484527559055
0
LINE
8
BLACK
6
CONTINUOUS
10
5.8963309055118112
20
-3.942484527559055
11
5.8961435826771655
21
-3.9415428740157479
0
LINE
8
BLACK
6
CONTINUOUS
10
5.8961435826771655
20
-3.9415428740157479
11
5.8961435826771655
21
-3.912999566929134
0
LINE
8
BLACK
6
CONTINUOUS
10
5.8961435826771655
20
-3.912999566929134
11
5.8963309055118112
21
-3.9120579133858269
0
LINE
8
BLACK
6
CONTINUOUS
10
5.8963309055118112
20
-3.9120579133858269
11
5.8968642913385825
21
-3.9112596456692912
0
LINE
8
BLACK
6
CONTINUOUS
10
5.8968642913385825
20
-3.9112596456692912
11
5.8976625590551182
21
-3.9107262598425194
0
LINE
8
BLACK
6
CONTINUOUS
10
5.8976625590551182
20
-3.9107262598425194
11
5.8986042125984248
21
-3.9105389370078738
0
LINE
8
BLACK
6
CONTINUOUS
10
5.8986042125984248
20
-3.9105389370078738
11
5.9035254724409452
21
-3.9105389370078738
0
LINE
8
BLACK
6
CONTINUOUS
10
5.9035254724409452
20
-3.9105389370078738
11
5.9044671259842518
21
-3.9107262598425194
0
LINE
8
BLACK
6
CONTINUOUS
10
5.9241521653543305
20
-3.9107262598425194
11
5.9249504330708662
21
-3.9112596456692912
0
LINE
8
BLACK
6
CONTINUOUS
10
5.9249504330708662
20
-3.9112596456692912
11
5.9254838188976375
21
-3.9120579133858269
0
LINE
8
BLACK
6
CONTINUOUS
10
5.9254838188976375
20
-3.9120579133858269
11
5.9256711417322832
21
-3.912999566929134
0
LINE
8
BLACK
6
CONTINUOUS
10
5.9256711417322832
20
-3.912999566929134
11
5.9256711417322832
21
-3.9415428740157479
0
LINE
8
BLACK
6
CONTINUOUS
10
5.9256711417322832
20
-3.9415428740157479
11
5.9254838188976375
21
-3.942484527559055
0
LINE
8
BLACK
6
CONTINUOUS
10
5.9254838188976375
20
-3.942484527559055
11
5.9249504330708662
21
-3.9432827952755907
0
LINE
8
BLACK
6
CONTINUOUS
10
5.9249504330708662
20
-3.9432827952755907
11
5.9241521653543305
21
-3.943816181102362
0
LINE
8
BLACK
6
CONTINUOUS
10
5.9241521653543305
20
-3.943816181102362
11
5.9232105118110239
21
-3.9440035039370076
0
LINE
8
BLACK
6
CONTINUOUS
10
5.9232105118110239
20
-3.9440035039370076
11
5.9182892519685035
21
-3.9440035039370076
0
LINE
8
BLACK
6
CONTINUOUS
10
5.9182892519685035
20
-3.9440035039370076
11
5.9173475984251969
21
-3.943816181102362
0
LINE
8
BLACK
6
CONTINUOUS
10
5.9173475984251969
20
-3.943816181102362
11
5.9165493307086612
21
-3.9432827952755907
0
LINE
8
BLACK
6
CONTINUOUS
10
5.9165493307086612
20
-3.9432827952755907
11
5.9160159448818899
21
-3.942484527559055
0
LINE
8
BLACK
6
CONTINUOUS
10
5.9160159448818899
20
-3.942484527559055
11
5.9158286220472442
21
-3.9415428740157479
0
LINE
8
BLACK
6
CONTINUOUS
10
5.9158286220472442
20
-3.9415428740157479
11
5.9158286220472442
21
-3.912999566929134
0
LINE
8
BLACK
6
CONTINUOUS
10
5.9158286220472442
20
-3.912999566929134
11
5.9160159448818899
21
-3.9120579133858269
0
LINE
8
BLACK
6
CONTINUOUS
10
5.9160159448818899
20
-3.9120579133858269
11
5.9165493307086612
21
-3.9112596456692912
0
LINE
8
BLACK
6
CONTINUOUS
10
5.9165493307086612
20
-3.9112596456692912
11
5.9173475984251969
21
-3.9107262598425194
0
LINE
8
BLACK
6
CONTINUOUS
10
5.9173475984251969
20
-3.9107262598425194
11
5.9182892519685035
21
-3.9105389370078738
0
LINE
8
BLACK
6
CONTINUOUS
10
5.9182892519685035
20
-3.9105389370078738
11
5.9232105118110239
21
-3.9105389370078738
0
LINE
8
BLACK
6
CONTINUOUS
10
5.9232105118110239
20
-3.9105389370078738
11
5.9241521653543305
21
-3.9107262598425194
0
LINE
8
BLACK
6
CONTINUOUS
10
5.9438372047244092
20
-3.9107262598425194
11
5.9446354724409449
21
-3.9112596456692912
0
LINE
8
BLACK
6
CONTINUOUS
10
5.9446354724409449
20
-3.9112596456692912
11
5.9451688582677162
21
-3.9120579133858269
0
LINE
8
BLACK
6
CONTINUOUS
10
5.9451688582677162
20
-3.9120579133858269
11
5.9453561811023619
21
-3.912999566929134
0
LINE
8
BLACK
6
CONTINUOUS
10
5.9453561811023619
20
-3.912999566929134
11
5.9453561811023619
21
-3.9415428740157479
0
LINE
8
BLACK
6
CONTINUOUS
10
5.9453561811023619
20
-3.9415428740157479
11
5.9451688582677162
21
-3.942484527559055
0
LINE
8
BLACK
6
CONTINUOUS
10
5.9451688582677162
20
-3.942484527559055
11
5.9446354724409449
21
-3.9432827952755907
0
LINE
8
BLACK
6
CONTINUOUS
10
5.9446354724409449
20
-3.9432827952755907
11
5.9438372047244092
21
-3.943816181102362
0
LINE
8
BLACK
6
CONTINUOUS
10
5.9438372047244092
20
-3.943816181102362
11
5.9428955511811026
21
-3.9440035039370076
0
LINE
8
BLACK
6
CONTINUOUS
10
5.9428955511811026
20
-3.9440035039370076
11
5.9379742913385822
21
-3.9440035039370076
0
LINE
8
BLACK
6
CONTINUOUS
10
5.9379742913385822
20
-3.9440035039370076
11
5.9370326377952756
21
-3.943816181102362
0
LINE
8
BLACK
6
CONTINUOUS
10
5.9370326377952756
20
-3.943816181102362
11
5.9362343700787399
21
-3.9432827952755907
0
LINE
8
BLACK
6
CONTINUOUS
10
5.9362343700787399
20
-3.9432827952755907
11
5.9357009842519686
21
-3.942484527559055
0
LINE
8
BLACK
6
CONTINUOUS
10
5.9357009842519686
20
-3.942484527559055
11
5.935513661417323
21
-3.9415428740157479
0
LINE
8
BLACK
6
CONTINUOUS
10
5.935513661417323
20
-3.9415428740157479
11
5.935513661417323
21
-3.912999566929134
0
LINE
8
BLACK
6
CONTINUOUS
10
5.935513661417323
20
-3.912999566929134
11
5.9357009842519686
21
-3.9120579133858269
0
LINE
8
BLACK
6
CONTINUOUS
10
5.9357009842519686
20
-3.9120579133858269
11
5.9362343700787399
21
-3.9112596456692912
0
LINE
8
BLACK
6
CONTINUOUS
10
5.9362343700787399
20
-3.9112596456692912
11
5.9370326377952756
21
-3.9107262598425194
0
LINE
8
BLACK
6
CONTINUOUS
10
5.9370326377952756
20
-3.9107262598425194
11
5.9379742913385822
21
-3.9105389370078738
0
LINE
8
BLACK
6
CONTINUOUS
10
5.9379742913385822
20
-3.9105389370078738
11
5.9428955511811026
21
-3.9105389370078738
0
LINE
8
BLACK
6
CONTINUOUS
10
5.9428955511811026
20
-3.9105389370078738
11
5.9438372047244092
21
-3.9107262598425194
0
LINE
8
BLACK
6
CONTINUOUS
10
6.3011420866141732
20
-3.8960921259842518
11
6.3039361023622043
21
-3.8979590157480315
0
LINE
8
BLACK
6
CONTINUOUS
10
6.3039361023622043
20
-3.8979590157480315
11
6.3058029921259839
21
-3.900753031496063
0
LINE
8
BLACK
6
CONTINUOUS
10
6.3058029921259839
20
-3.900753031496063
11
6.3064585433070866
21
-3.9040487795275589
0
LINE
8
BLACK
6
CONTINUOUS
10
6.3064585433070866
20
-3.9040487795275589
11
6.3064585433070866
21
-3.9340684645669288
0
LINE
8
BLACK
6
CONTINUOUS
10
6.3064585433070866
20
-3.9340684645669288
11
6.3058029921259839
21
-3.9373642125984252
0
LINE
8
BLACK
6
CONTINUOUS
10
6.3058029921259839
20
-3.9373642125984252
11
6.3039361023622043
21
-3.9401582283464567
0
LINE
8
BLACK
6
CONTINUOUS
10
6.3039361023622043
20
-3.9401582283464567
11
6.3011420866141732
21
-3.9420251181102359
0
LINE
8
BLACK
6
CONTINUOUS
10
6.3011420866141732
20
-3.9420251181102359
11
6.2978463385826773
21
-3.9426806692913385
0
LINE
8
BLACK
6
CONTINUOUS
10
6.2978463385826773
20
-3.9426806692913385
11
6.2806219291338579
21
-3.9426806692913385
0
LINE
8
BLACK
6
CONTINUOUS
10
6.2806219291338579
20
-3.9426806692913385
11
6.277326181102362
21
-3.9420251181102359
0
LINE
8
BLACK
6
CONTINUOUS
10
6.277326181102362
20
-3.9420251181102359
11
6.2745321653543309
21
-3.9401582283464567
0
LINE
8
BLACK
6
CONTINUOUS
10
6.2745321653543309
20
-3.9401582283464567
11
6.2726652755905512
21
-3.9373642125984252
0
LINE
8
BLACK
6
CONTINUOUS
10
6.2726652755905512
20
-3.9373642125984252
11
6.2720097244094486
21
-3.9340684645669288
0
LINE
8
BLACK
6
CONTINUOUS
10
6.2720097244094486
20
-3.9340684645669288
11
6.2720097244094486
21
-3.9040487795275589
0
LINE
8
BLACK
6
CONTINUOUS
10
6.2720097244094486
20
-3.9040487795275589
11
6.2726652755905512
21
-3.900753031496063
0
LINE
8
BLACK
6
CONTINUOUS
10
6.2726652755905512
20
-3.900753031496063
11
6.2745321653543309
21
-3.8979590157480315
0
LINE
8
BLACK
6
CONTINUOUS
10
6.2745321653543309
20
-3.8979590157480315
11
6.277326181102362
21
-3.8960921259842518
0
LINE
8
BLACK
6
CONTINUOUS
10
6.277326181102362
20
-3.8960921259842518
11
6.2806219291338579
21
-3.8954365748031496
0
LINE
8
BLACK
6
CONTINUOUS
10
6.2806219291338579
20
-3.8954365748031496
11
6.2978463385826773
21
-3.8954365748031496
0
LINE
8
BLACK
6
CONTINUOUS
10
6.2978463385826773
20
-3.8954365748031496
11
6.3011420866141732
21
-3.8960921259842518
0
LINE
8
BLACK
6
CONTINUOUS
10
6.3848035039370075
20
-3.8960921259842518
11
6.3875975196850394
21
-3.8979590157480315
0
LINE
8
BLACK
6
CONTINUOUS
10
6.3875975196850394
20
-3.8979590157480315
11
6.3894644094488191
21
-3.900753031496063
0
LINE
8
BLACK
6
CONTINUOUS
10
6.3894644094488191
20
-3.900753031496063
11
6.3901199606299208
21
-3.9040487795275589
0
LINE
8
BLACK
6
CONTINUOUS
10
6.3901199606299208
20
-3.9040487795275589
11
6.3901199606299208
21
-3.9340684645669288
0
LINE
8
BLACK
6
CONTINUOUS
10
6.3901199606299208
20
-3.9340684645669288
11
6.3894644094488191
21
-3.9373642125984252
0
LINE
8
BLACK
6
CONTINUOUS
10
6.3894644094488191
20
-3.9373642125984252
11
6.3875975196850394
21
-3.9401582283464567
0
LINE
8
BLACK
6
CONTINUOUS
10
6.3875975196850394
20
-3.9401582283464567
11
6.3848035039370075
21
-3.9420251181102359
0
LINE
8
BLACK
6
CONTINUOUS
10
6.3848035039370075
20
-3.9420251181102359
11
6.3815077559055116
21
-3.9426806692913385
0
LINE
8
BLACK
6
CONTINUOUS
10
6.3815077559055116
20
-3.9426806692913385
11
6.364283346456693
21
-3.9426806692913385
0
LINE
8
BLACK
6
CONTINUOUS
10
6.364283346456693
20
-3.9426806692913385
11
6.3609875984251971
21
-3.9420251181102359
0
LINE
8
BLACK
6
CONTINUOUS
10
6.3609875984251971
20
-3.9420251181102359
11
6.3581935826771652
21
-3.9401582283464567
0
LINE
8
BLACK
6
CONTINUOUS
10
6.3581935826771652
20
-3.9401582283464567
11
6.3563266929133855
21
-3.9373642125984252
0
LINE
8
BLACK
6
CONTINUOUS
10
6.3563266929133855
20
-3.9373642125984252
11
6.3556711417322838
21
-3.9340684645669288
0
LINE
8
BLACK
6
CONTINUOUS
10
6.3556711417322838
20
-3.9340684645669288
11
6.3556711417322838
21
-3.9040487795275589
0
LINE
8
BLACK
6
CONTINUOUS
10
6.3556711417322838
20
-3.9040487795275589
11
6.3563266929133855
21
-3.900753031496063
0
LINE
8
BLACK
6
CONTINUOUS
10
6.3563266929133855
20
-3.900753031496063
11
6.3581935826771652
21
-3.8979590157480315
0
LINE
8
BLACK
6
CONTINUOUS
10
6.3581935826771652
20
-3.8979590157480315
11
6.3609875984251971
21
-3.8960921259842518
0
LINE
8
BLACK
6
CONTINUOUS
10
6.3609875984251971
20
-3.8960921259842518
11
6.364283346456693
21
-3.8954365748031496
0
LINE
8
BLACK
6
CONTINUOUS
10
6.364283346456693
20
-3.8954365748031496
11
6.3815077559055116
21
-3.8954365748031496
0
LINE
8
BLACK
6
CONTINUOUS
10
6.3815077559055116
20
-3.8954365748031496
11
6.3848035039370075
21
-3.8960921259842518
0
LINE
8
BLACK
6
CONTINUOUS
10
6.4511420866141727
20
-3.8960921259842518
11
6.4539361023622046
21
-3.8979590157480315
0
LINE
8
BLACK
6
CONTINUOUS
10
6.4539361023622046
20
-3.8979590157480315
11
6.4558029921259843
21
-3.900753031496063
0
LINE
8
BLACK
6
CONTINUOUS
10
6.4558029921259843
20
-3.900753031496063
11
6.4564585433070869
21
-3.9040487795275589
0
LINE
8
BLACK
6
CONTINUOUS
10
6.4564585433070869
20
-3.9040487795275589
11
6.4564585433070869
21
-3.9340684645669288
0
LINE
8
BLACK
6
CONTINUOUS
10
6.4564585433070869
20
-3.9340684645669288
11
6.4558029921259843
21
-3.9373642125984252
0
LINE
8
BLACK
6
CONTINUOUS
10
6.4558029921259843
20
-3.9373642125984252
11
6.4539361023622046
21
-3.9401582283464567
0
LINE
8
BLACK
6
CONTINUOUS
10
6.4539361023622046
20
-3.9401582283464567
11
6.4511420866141727
21
-3.9420251181102359
0
LINE
8
BLACK
6
CONTINUOUS
10
6.4511420866141727
20
-3.9420251181102359
11
6.4478463385826768
21
-3.9426806692913385
0
LINE
8
BLACK
6
CONTINUOUS
10
6.4478463385826768
20
-3.9426806692913385
11
6.4306219291338582
21
-3.9426806692913385
0
LINE
8
BLACK
6
CONTINUOUS
10
6.4306219291338582
20
-3.9426806692913385
11
6.4273261811023623
21
-3.9420251181102359
0
LINE
8
BLACK
6
CONTINUOUS
10
6.4273261811023623
20
-3.9420251181102359
11
6.4245321653543304
21
-3.9401582283464567
0
LINE
8
BLACK
6
CONTINUOUS
10
6.4245321653543304
20
-3.9401582283464567
11
6.4226652755905507
21
-3.9373642125984252
0
LINE
8
BLACK
6
CONTINUOUS
10
6.4226652755905507
20
-3.9373642125984252
11
6.4220097244094489
21
-3.9340684645669288
0
LINE
8
BLACK
6
CONTINUOUS
10
6.4220097244094489
20
-3.9340684645669288
11
6.4220097244094489
21
-3.9040487795275589
0
LINE
8
BLACK
6
CONTINUOUS
10
6.4220097244094489
20
-3.9040487795275589
11
6.4226652755905507
21
-3.900753031496063
0
LINE
8
BLACK
6
CONTINUOUS
10
6.4226652755905507
20
-3.900753031496063
11
6.4245321653543304
21
-3.8979590157480315
0
LINE
8
BLACK
6
CONTINUOUS
10
6.4245321653543304
20
-3.8979590157480315
11
6.4273261811023623
21
-3.8960921259842518
0
LINE
8
BLACK
6
CONTINUOUS
10
6.4273261811023623
20
-3.8960921259842518
11
6.4306219291338582
21
-3.8954365748031496
0
LINE
8
BLACK
6
CONTINUOUS
10
6.4306219291338582
20
-3.8954365748031496
11
6.4478463385826768
21
-3.8954365748031496
0
LINE
8
BLACK
6
CONTINUOUS
10
6.4478463385826768
20
-3.8954365748031496
11
6.4511420866141727
21
-3.8960921259842518
0
LINE
8
BLACK
6
CONTINUOUS
10
6.5348035039370078
20
-3.8960921259842518
11
6.5375975196850389
21
-3.8979590157480315
0
LINE
8
BLACK
6
CONTINUOUS
10
6.5375975196850389
20
-3.8979590157480315
11
6.5394644094488186
21
-3.900753031496063
0
LINE
8
BLACK
6
CONTINUOUS
10
6.5394644094488186
20
-3.900753031496063
11
6.5401199606299212
21
-3.9040487795275589
0
LINE
8
BLACK
6
CONTINUOUS
10
6.5401199606299212
20
-3.9040487795275589
11
6.5401199606299212
21
-3.9340684645669288
0
LINE
8
BLACK
6
CONTINUOUS
10
6.5401199606299212
20
-3.9340684645669288
11
6.5394644094488186
21
-3.9373642125984252
0
LINE
8
BLACK
6
CONTINUOUS
10
6.5394644094488186
20
-3.9373642125984252
11
6.5375975196850389
21
-3.9401582283464567
0
LINE
8
BLACK
6
CONTINUOUS
10
6.5375975196850389
20
-3.9401582283464567
11
6.5348035039370078
21
-3.9420251181102359
0
LINE
8
BLACK
6
CONTINUOUS
10
6.5348035039370078
20
-3.9420251181102359
11
6.5315077559055119
21
-3.9426806692913385
0
LINE
8
BLACK
6
CONTINUOUS
10
6.5315077559055119
20
-3.9426806692913385
11
6.5142833464566925
21
-3.9426806692913385
0
LINE
8
BLACK
6
CONTINUOUS
10
6.5142833464566925
20
-3.9426806692913385
11
6.5109875984251966
21
-3.9420251181102359
0
LINE
8
BLACK
6
CONTINUOUS
10
6.5109875984251966
20
-3.9420251181102359
11
6.5081935826771655
21
-3.9401582283464567
0
LINE
8
BLACK
6
CONTINUOUS
10
6.5081935826771655
20
-3.9401582283464567
11
6.5063266929133858
21
-3.9373642125984252
0
LINE
8
BLACK
6
CONTINUOUS
10
6.5063266929133858
20
-3.9373642125984252
11
6.5056711417322832
21
-3.9340684645669288
0
LINE
8
BLACK
6
CONTINUOUS
10
6.5056711417322832
20
-3.9340684645669288
11
6.5056711417322832
21
-3.9040487795275589
0
LINE
8
BLACK
6
CONTINUOUS
10
6.5056711417322832
20
-3.9040487795275589
11
6.5063266929133858
21
-3.900753031496063
0
LINE
8
BLACK
6
CONTINUOUS
10
6.5063266929133858
20
-3.900753031496063
11
6.5081935826771655
21
-3.8979590157480315
0
LINE
8
BLACK
6
CONTINUOUS
10
6.5081935826771655
20
-3.8979590157480315
11
6.5109875984251966
21
-3.8960921259842518
0
LINE
8
BLACK
6
CONTINUOUS
10
6.5109875984251966
20
-3.8960921259842518
11
6.5142833464566925
21
-3.8954365748031496
0
LINE
8
BLACK
6
CONTINUOUS
10
6.5142833464566925
20
-3.8954365748031496
11
6.5315077559055119
21
-3.8954365748031496
0
LINE
8
BLACK
6
CONTINUOUS
10
6.5315077559055119
20
-3.8954365748031496
11
6.5348035039370078
21
-3.8960921259842518
0
LINE
8
BLACK
6
CONTINUOUS
10
6.601142086614173
20
-3.8960921259842518
11
6.603936102362205
21
-3.8979590157480315
0
LINE
8
BLACK
6
CONTINUOUS
10
6.603936102362205
20
-3.8979590157480315
11
6.6058029921259838
21
-3.900753031496063
0
LINE
8
BLACK
6
CONTINUOUS
10
6.6058029921259838
20
-3.900753031496063
11
6.6064585433070864
21
-3.9040487795275589
0
LINE
8
BLACK
6
CONTINUOUS
10
6.6064585433070864
20
-3.9040487795275589
11
6.6064585433070864
21
-3.9340684645669288
0
LINE
8
BLACK
6
CONTINUOUS
10
6.6064585433070864
20
-3.9340684645669288
11
6.6058029921259838
21
-3.9373642125984252
0
LINE
8
BLACK
6
CONTINUOUS
10
6.6058029921259838
20
-3.9373642125984252
11
6.603936102362205
21
-3.9401582283464567
0
LINE
8
BLACK
6
CONTINUOUS
10
6.603936102362205
20
-3.9401582283464567
11
6.601142086614173
21
-3.9420251181102359
0
LINE
8
BLACK
6
CONTINUOUS
10
6.601142086614173
20
-3.9420251181102359
11
6.5978463385826771
21
-3.9426806692913385
0
LINE
8
BLACK
6
CONTINUOUS
10
6.5978463385826771
20
-3.9426806692913385
11
6.5806219291338577
21
-3.9426806692913385
0
LINE
8
BLACK
6
CONTINUOUS
10
6.5806219291338577
20
-3.9426806692913385
11
6.5773261811023618
21
-3.9420251181102359
0
LINE
8
BLACK
6
CONTINUOUS
10
6.5773261811023618
20
-3.9420251181102359
11
6.5745321653543307
21
-3.9401582283464567
0
LINE
8
BLACK
6
CONTINUOUS
10
6.5745321653543307
20
-3.9401582283464567
11
6.572665275590551
21
-3.9373642125984252
0
LINE
8
BLACK
6
CONTINUOUS
10
6.572665275590551
20
-3.9373642125984252
11
6.5720097244094484
21
-3.9340684645669288
0
LINE
8
BLACK
6
CONTINUOUS
10
6.5720097244094484
20
-3.9340684645669288
11
6.5720097244094484
21
-3.9040487795275589
0
LINE
8
BLACK
6
CONTINUOUS
10
6.5720097244094484
20
-3.9040487795275589
11
6.572665275590551
21
-3.900753031496063
0
LINE
8
BLACK
6
CONTINUOUS
10
6.572665275590551
20
-3.900753031496063
11
6.5745321653543307
21
-3.8979590157480315
0
LINE
8
BLACK
6
CONTINUOUS
10
6.5745321653543307
20
-3.8979590157480315
11
6.5773261811023618
21
-3.8960921259842518
0
LINE
8
BLACK
6
CONTINUOUS
10
6.5773261811023618
20
-3.8960921259842518
11
6.5806219291338577
21
-3.8954365748031496
0
LINE
8
BLACK
6
CONTINUOUS
10
6.5806219291338577
20
-3.8954365748031496
11
6.5978463385826771
21
-3.8954365748031496
0
LINE
8
BLACK
6
CONTINUOUS
10
6.5978463385826771
20
-3.8954365748031496
11
6.601142086614173
21
-3.8960921259842518
0
LINE
8
BLACK
6
CONTINUOUS
10
6.6848035039370073
20
-3.8960921259842518
11
6.6875975196850392
21
-3.8979590157480315
0
LINE
8
BLACK
6
CONTINUOUS
10
6.6875975196850392
20
-3.8979590157480315
11
6.6894644094488189
21
-3.900753031496063
0
LINE
8
BLACK
6
CONTINUOUS
10
6.6894644094488189
20
-3.900753031496063
11
6.6901199606299215
21
-3.9040487795275589
0
LINE
8
BLACK
6
CONTINUOUS
10
6.6901199606299215
20
-3.9040487795275589
11
6.6901199606299215
21
-3.9340684645669288
0
LINE
8
BLACK
6
CONTINUOUS
10
6.6901199606299215
20
-3.9340684645669288
11
6.6894644094488189
21
-3.9373642125984252
0
LINE
8
BLACK
6
CONTINUOUS
10
6.6894644094488189
20
-3.9373642125984252
11
6.6875975196850392
21
-3.9401582283464567
0
LINE
8
BLACK
6
CONTINUOUS
10
6.6875975196850392
20
-3.9401582283464567
11
6.6848035039370073
21
-3.9420251181102359
0
LINE
8
BLACK
6
CONTINUOUS
10
6.6848035039370073
20
-3.9420251181102359
11
6.6815077559055114
21
-3.9426806692913385
0
LINE
8
BLACK
6
CONTINUOUS
10
6.6815077559055114
20
-3.9426806692913385
11
6.6642833464566928
21
-3.9426806692913385
0
LINE
8
BLACK
6
CONTINUOUS
10
6.6642833464566928
20
-3.9426806692913385
11
6.6609875984251969
21
-3.9420251181102359
0
LINE
8
BLACK
6
CONTINUOUS
10
6.6609875984251969
20
-3.9420251181102359
11
6.658193582677165
21
-3.9401582283464567
0
LINE
8
BLACK
6
CONTINUOUS
10
6.658193582677165
20
-3.9401582283464567
11
6.6563266929133853
21
-3.9373642125984252
0
LINE
8
BLACK
6
CONTINUOUS
10
6.6563266929133853
20
-3.9373642125984252
11
6.6556711417322836
21
-3.9340684645669288
0
LINE
8
BLACK
6
CONTINUOUS
10
6.6556711417322836
20
-3.9340684645669288
11
6.6556711417322836
21
-3.9040487795275589
0
LINE
8
BLACK
6
CONTINUOUS
10
6.6556711417322836
20
-3.9040487795275589
11
6.6563266929133853
21
-3.900753031496063
0
LINE
8
BLACK
6
CONTINUOUS
10
6.6563266929133853
20
-3.900753031496063
11
6.658193582677165
21
-3.8979590157480315
0
LINE
8
BLACK
6
CONTINUOUS
10
6.658193582677165
20
-3.8979590157480315
11
6.6609875984251969
21
-3.8960921259842518
0
LINE
8
BLACK
6
CONTINUOUS
10
6.6609875984251969
20
-3.8960921259842518
11
6.6642833464566928
21
-3.8954365748031496
0
LINE
8
BLACK
6
CONTINUOUS
10
6.6642833464566928
20
-3.8954365748031496
11
6.6815077559055114
21
-3.8954365748031496
0
LINE
8
BLACK
6
CONTINUOUS
10
6.6815077559055114
20
-3.8954365748031496
11
6.6848035039370073
21
-3.8960921259842518
0
LINE
8
BLACK
6
CONTINUOUS
10
6.2235322047244095
20
-3.8967212204724411
11
6.2267253543307088
21
-3.8988548031496064
0
LINE
8
BLACK
6
CONTINUOUS
10
6.2267253543307088
20
-3.8988548031496064
11
6.2288589370078737
21
-3.9020479527559053
0
LINE
8
BLACK
6
CONTINUOUS
10
6.2288589370078737
20
-3.9020479527559053
11
6.2296081496062987
21
-3.905814527559055
0
LINE
8
BLACK
6
CONTINUOUS
10
6.2296081496062987
20
-3.905814527559055
11
6.2296081496062987
21
-3.9254995669291337
0
LINE
8
BLACK
6
CONTINUOUS
10
6.2296081496062987
20
-3.9254995669291337
11
6.2288589370078737
21
-3.9292661417322834
0
LINE
8
BLACK
6
CONTINUOUS
10
6.2288589370078737
20
-3.9292661417322834
11
6.2267253543307088
21
-3.9324592913385827
0
LINE
8
BLACK
6
CONTINUOUS
10
6.2267253543307088
20
-3.9324592913385827
11
6.2235322047244095
21
-3.9345928740157481
0
LINE
8
BLACK
6
CONTINUOUS
10
6.2235322047244095
20
-3.9345928740157481
11
6.2197656299212598
21
-3.9353420866141731
0
LINE
8
BLACK
6
CONTINUOUS
10
6.2197656299212598
20
-3.9353420866141731
11
6.1823640551181098
21
-3.9353420866141731
0
LINE
8
BLACK
6
CONTINUOUS
10
6.1823640551181098
20
-3.9353420866141731
11
6.1785974803149601
21
-3.9345928740157481
0
LINE
8
BLACK
6
CONTINUOUS
10
6.1785974803149601
20
-3.9345928740157481
11
6.1754043307086617
21
-3.9324592913385827
0
LINE
8
BLACK
6
CONTINUOUS
10
6.1754043307086617
20
-3.9324592913385827
11
6.1732707480314959
21
-3.9292661417322834
0
LINE
8
BLACK
6
CONTINUOUS
10
6.1732707480314959
20
-3.9292661417322834
11
6.1725215354330709
21
-3.9254995669291337
0
LINE
8
BLACK
6
CONTINUOUS
10
6.1725215354330709
20
-3.9254995669291337
11
6.1725215354330709
21
-3.905814527559055
0
LINE
8
BLACK
6
CONTINUOUS
10
6.1725215354330709
20
-3.905814527559055
11
6.1732707480314959
21
-3.9020479527559053
0
LINE
8
BLACK
6
CONTINUOUS
10
6.1732707480314959
20
-3.9020479527559053
11
6.1754043307086617
21
-3.8988548031496064
0
LINE
8
BLACK
6
CONTINUOUS
10
6.1754043307086617
20
-3.8988548031496064
11
6.1785974803149601
21
-3.8967212204724411
0
LINE
8
BLACK
6
CONTINUOUS
10
6.1785974803149601
20
-3.8967212204724411
11
6.1823640551181098
21
-3.8959720078740157
0
LINE
8
BLACK
6
CONTINUOUS
10
6.1823640551181098
20
-3.8959720078740157
11
6.2197656299212598
21
-3.8959720078740157
0
LINE
8
BLACK
6
CONTINUOUS
10
6.2197656299212598
20
-3.8959720078740157
11
6.2235322047244095
21
-3.8967212204724411
0
LINE
8
BLACK
6
CONTINUOUS
10
5.2585648425196849
20
-3.8755586220472442
11
5.2235648425196848
21
-3.8755586220472442
0
LINE
8
BLACK
6
CONTINUOUS
10
5.2235648425196848
20
-3.8755586220472442
11
5.2235648425196848
21
-3.8205586220472441
0
LINE
8
BLACK
6
CONTINUOUS
10
5.2235648425196848
20
-3.8205586220472441
11
5.2585648425196849
21
-3.8205586220472441
0
LINE
8
BLACK
6
CONTINUOUS
10
5.2585648425196849
20
-3.8205586220472441
11
5.2585648425196849
21
-3.8755586220472442
0
LINE
8
BLACK
6
CONTINUOUS
10
5.3335648425196851
20
-3.8755586220472442
11
5.298564842519685
21
-3.8755586220472442
0
LINE
8
BLACK
6
CONTINUOUS
10
5.298564842519685
20
-3.8755586220472442
11
5.298564842519685
21
-3.8205586220472441
0
LINE
8
BLACK
6
CONTINUOUS
10
5.298564842519685
20
-3.8205586220472441
11
5.3335648425196851
21
-3.8205586220472441
0
LINE
8
BLACK
6
CONTINUOUS
10
5.3335648425196851
20
-3.8205586220472441
11
5.3335648425196851
21
-3.8755586220472442
0
LINE
8
BLACK
6
CONTINUOUS
10
5.1845294094488183
20
-3.8475468110236219
11
5.1176002755905508
21
-3.8475468110236219
0
LINE
8
BLACK
6
CONTINUOUS
10
5.1176002755905508
20
-3.8475468110236219
11
5.1176002755905508
21
-3.7963657086614173
0
LINE
8
BLACK
6
CONTINUOUS
10
5.1176002755905508
20
-3.7963657086614173
11
5.1845294094488183
21
-3.7963657086614173
0
LINE
8
BLACK
6
CONTINUOUS
10
5.1845294094488183
20
-3.7963657086614173
11
5.1845294094488183
21
-3.8475468110236219
0
LINE
8
BLACK
6
CONTINUOUS
10
6.7292408661417324
20
-3.7512487795275589
11
6.7324340157480309
21
-3.7533823622047242
0
LINE
8
BLACK
6
CONTINUOUS
10
6.7324340157480309
20
-3.7533823622047242
11
6.7345675984251967
21
-3.7565755118110236
0
LINE
8
BLACK
6
CONTINUOUS
10
6.7345675984251967
20
-3.7565755118110236
11
6.7353168110236217
21
-3.7603420866141732
0
LINE
8
BLACK
6
CONTINUOUS
10
6.7353168110236217
20
-3.7603420866141732
11
6.7353168110236217
21
-3.7957751574803149
0
LINE
8
BLACK
6
CONTINUOUS
10
6.7353168110236217
20
-3.7957751574803149
11
6.7345675984251967
21
-3.7995417322834646
0
LINE
8
BLACK
6
CONTINUOUS
10
6.7345675984251967
20
-3.7995417322834646
11
6.7324340157480309
21
-3.8027348818897635
0
LINE
8
BLACK
6
CONTINUOUS
10
6.7324340157480309
20
-3.8027348818897635
11
6.7292408661417324
21
-3.8048684645669288
0
LINE
8
BLACK
6
CONTINUOUS
10
6.7292408661417324
20
-3.8048684645669288
11
6.7254742913385828
21
-3.8056176771653543
0
LINE
8
BLACK
6
CONTINUOUS
10
6.7254742913385828
20
-3.8056176771653543
11
6.7048049999999995
21
-3.8056176771653543
0
LINE
8
BLACK
6
CONTINUOUS
10
6.7048049999999995
20
-3.8056176771653543
11
6.7010384251968507
21
-3.8048684645669288
0
LINE
8
BLACK
6
CONTINUOUS
10
6.7010384251968507
20
-3.8048684645669288
11
6.6978452755905513
21
-3.8027348818897635
0
LINE
8
BLACK
6
CONTINUOUS
10
6.6978452755905513
20
-3.8027348818897635
11
6.6957116929133855
21
-3.7995417322834646
0
LINE
8
BLACK
6
CONTINUOUS
10
6.6957116929133855
20
-3.7995417322834646
11
6.6949624803149606
21
-3.7957751574803149
0
LINE
8
BLACK
6
CONTINUOUS
10
6.6949624803149606
20
-3.7957751574803149
11
6.6949624803149606
21
-3.7603420866141732
0
LINE
8
BLACK
6
CONTINUOUS
10
6.6949624803149606
20
-3.7603420866141732
11
6.6957116929133855
21
-3.7565755118110236
0
LINE
8
BLACK
6
CONTINUOUS
10
6.6957116929133855
20
-3.7565755118110236
11
6.6978452755905513
21
-3.7533823622047242
0
LINE
8
BLACK
6
CONTINUOUS
10
6.6978452755905513
20
-3.7533823622047242
11
6.7010384251968507
21
-3.7512487795275589
0
LINE
8
BLACK
6
CONTINUOUS
10
6.7010384251968507
20
-3.7512487795275589
11
6.7048049999999995
21
-3.7504995669291339
0
LINE
8
BLACK
6
CONTINUOUS
10
6.7048049999999995
20
-3.7504995669291339
11
6.7254742913385828
21
-3.7504995669291339
0
LINE
8
BLACK
6
CONTINUOUS
10
6.7254742913385828
20
-3.7504995669291339
11
6.7292408661417324
21
-3.7512487795275589
0
LINE
8
BLACK
6
CONTINUOUS
10
6.8010912598425195
20
-3.7512487795275589
11
6.8042844094488188
21
-3.7533823622047242
0
LINE
8
BLACK
6
CONTINUOUS
10
6.8042844094488188
20
-3.7533823622047242
11
6.8064179921259838
21
-3.7565755118110236
0
LINE
8
BLACK
6
CONTINUOUS
10
6.8064179921259838
20
-3.7565755118110236
11
6.8071672047244096
21
-3.7603420866141732
0
LINE
8
BLACK
6
CONTINUOUS
10
6.8071672047244096
20
-3.7603420866141732
11
6.8071672047244096
21
-3.7957751574803149
0
LINE
8
BLACK
6
CONTINUOUS
10
6.8071672047244096
20
-3.7957751574803149
11
6.8064179921259838
21
-3.7995417322834646
0
LINE
8
BLACK
6
CONTINUOUS
10
6.8064179921259838
20
-3.7995417322834646
11
6.8042844094488188
21
-3.8027348818897635
0
LINE
8
BLACK
6
CONTINUOUS
10
6.8042844094488188
20
-3.8027348818897635
11
6.8010912598425195
21
-3.8048684645669288
0
LINE
8
BLACK
6
CONTINUOUS
10
6.8010912598425195
20
-3.8048684645669288
11
6.7973246850393698
21
-3.8056176771653543
0
LINE
8
BLACK
6
CONTINUOUS
10
6.7973246850393698
20
-3.8056176771653543
11
6.7766553937007874
21
-3.8056176771653543
0
LINE
8
BLACK
6
CONTINUOUS
10
6.7766553937007874
20
-3.8056176771653543
11
6.7728888188976377
21
-3.8048684645669288
0
LINE
8
BLACK
6
CONTINUOUS
10
6.7728888188976377
20
-3.8048684645669288
11
6.7696956692913384
21
-3.8027348818897635
0
LINE
8
BLACK
6
CONTINUOUS
10
6.7696956692913384
20
-3.8027348818897635
11
6.7675620866141735
21
-3.7995417322834646
0
LINE
8
BLACK
6
CONTINUOUS
10
6.7675620866141735
20
-3.7995417322834646
11
6.7668128740157476
21
-3.7957751574803149
0
LINE
8
BLACK
6
CONTINUOUS
10
6.7668128740157476
20
-3.7957751574803149
11
6.7668128740157476
21
-3.7603420866141732
0
LINE
8
BLACK
6
CONTINUOUS
10
6.7668128740157476
20
-3.7603420866141732
11
6.7675620866141735
21
-3.7565755118110236
0
LINE
8
BLACK
6
CONTINUOUS
10
6.7675620866141735
20
-3.7565755118110236
11
6.7696956692913384
21
-3.7533823622047242
0
LINE
8
BLACK
6
CONTINUOUS
10
6.7696956692913384
20
-3.7533823622047242
11
6.7728888188976377
21
-3.7512487795275589
0
LINE
8
BLACK
6
CONTINUOUS
10
6.7728888188976377
20
-3.7512487795275589
11
6.7766553937007874
21
-3.7504995669291339
0
LINE
8
BLACK
6
CONTINUOUS
10
6.7766553937007874
20
-3.7504995669291339
11
6.7973246850393698
21
-3.7504995669291339
0
LINE
8
BLACK
6
CONTINUOUS
10
6.7973246850393698
20
-3.7504995669291339
11
6.8010912598425195
21
-3.7512487795275589
0
LINE
8
BLACK
6
CONTINUOUS
10
6.2810648425196849
20
-3.8055586220472439
11
6.2460648425196847
21
-3.8055586220472439
0
LINE
8
BLACK
6
CONTINUOUS
10
6.2460648425196847
20
-3.8055586220472439
11
6.2460648425196847
21
-3.7505586220472442
0
LINE
8
BLACK
6
CONTINUOUS
10
6.2460648425196847
20
-3.7505586220472442
11
6.2810648425196849
21
-3.7505586220472442
0
LINE
8
BLACK
6
CONTINUOUS
10
6.2810648425196849
20
-3.7505586220472442
11
6.2810648425196849
21
-3.8055586220472439
0
LINE
8
BLACK
6
CONTINUOUS
10
6.3560648425196851
20
-3.8055586220472439
11
6.3210648425196849
21
-3.8055586220472439
0
LINE
8
BLACK
6
CONTINUOUS
10
6.3210648425196849
20
-3.8055586220472439
11
6.3210648425196849
21
-3.7505586220472442
0
LINE
8
BLACK
6
CONTINUOUS
10
6.3210648425196849
20
-3.7505586220472442
11
6.3560648425196851
21
-3.7505586220472442
0
LINE
8
BLACK
6
CONTINUOUS
10
6.3560648425196851
20
-3.7505586220472442
11
6.3560648425196851
21
-3.8055586220472439
0
LINE
8
BLACK
6
CONTINUOUS
10
6.4211420866141733
20
-3.7550921259842518
11
6.4239361023622044
21
-3.7569590157480315
0
LINE
8
BLACK
6
CONTINUOUS
10
6.4239361023622044
20
-3.7569590157480315
11
6.425802992125984
21
-3.759753031496063
0
LINE
8
BLACK
6
CONTINUOUS
10
6.425802992125984
20
-3.759753031496063
11
6.4264585433070867
21
-3.7630487795275589
0
LINE
8
BLACK
6
CONTINUOUS
10
6.4264585433070867
20
-3.7630487795275589
11
6.4264585433070867
21
-3.7930684645669293
0
LINE
8
BLACK
6
CONTINUOUS
10
6.4264585433070867
20
-3.7930684645669293
11
6.425802992125984
21
-3.7963642125984252
0
LINE
8
BLACK
6
CONTINUOUS
10
6.425802992125984
20
-3.7963642125984252
11
6.4239361023622044
21
-3.7991582283464567
0
LINE
8
BLACK
6
CONTINUOUS
10
6.4239361023622044
20
-3.7991582283464567
11
6.4211420866141733
21
-3.8010251181102364
0
LINE
8
BLACK
6
CONTINUOUS
10
6.4211420866141733
20
-3.8010251181102364
11
6.4178463385826774
21
-3.8016806692913385
0
LINE
8
BLACK
6
CONTINUOUS
10
6.4178463385826774
20
-3.8016806692913385
11
6.400621929133858
21
-3.8016806692913385
0
LINE
8
BLACK
6
CONTINUOUS
10
6.400621929133858
20
-3.8016806692913385
11
6.3973261811023621
21
-3.8010251181102364
0
LINE
8
BLACK
6
CONTINUOUS
10
6.3973261811023621
20
-3.8010251181102364
11
6.394532165354331
21
-3.7991582283464567
0
LINE
8
BLACK
6
CONTINUOUS
10
6.394532165354331
20
-3.7991582283464567
11
6.3926652755905513
21
-3.7963642125984252
0
LINE
8
BLACK
6
CONTINUOUS
10
6.3926652755905513
20
-3.7963642125984252
11
6.3920097244094487
21
-3.7930684645669293
0
LINE
8
BLACK
6
CONTINUOUS
10
6.3920097244094487
20
-3.7930684645669293
11
6.3920097244094487
21
-3.7630487795275589
0
LINE
8
BLACK
6
CONTINUOUS
10
6.3920097244094487
20
-3.7630487795275589
11
6.3926652755905513
21
-3.759753031496063
0
LINE
8
BLACK
6
CONTINUOUS
10
6.3926652755905513
20
-3.759753031496063
11
6.394532165354331
21
-3.7569590157480315
0
LINE
8
BLACK
6
CONTINUOUS
10
6.394532165354331
20
-3.7569590157480315
11
6.3973261811023621
21
-3.7550921259842518
0
LINE
8
BLACK
6
CONTINUOUS
10
6.3973261811023621
20
-3.7550921259842518
11
6.400621929133858
21
-3.7544365748031496
0
LINE
8
BLACK
6
CONTINUOUS
10
6.400621929133858
20
-3.7544365748031496
11
6.4178463385826774
21
-3.7544365748031496
0
LINE
8
BLACK
6
CONTINUOUS
10
6.4178463385826774
20
-3.7544365748031496
11
6.4211420866141733
21
-3.7550921259842518
0
LINE
8
BLACK
6
CONTINUOUS
10
6.5048035039370076
20
-3.7550921259842518
11
6.5075975196850395
21
-3.7569590157480315
0
LINE
8
BLACK
6
CONTINUOUS
10
6.5075975196850395
20
-3.7569590157480315
11
6.5094644094488183
21
-3.759753031496063
0
LINE
8
BLACK
6
CONTINUOUS
10
6.5094644094488183
20
-3.759753031496063
11
6.5101199606299209
21
-3.7630487795275589
0
LINE
8
BLACK
6
CONTINUOUS
10
6.5101199606299209
20
-3.7630487795275589
11
6.5101199606299209
21
-3.7930684645669293
0
LINE
8
BLACK
6
CONTINUOUS
10
6.5101199606299209
20
-3.7930684645669293
11
6.5094644094488183
21
-3.7963642125984252
0
LINE
8
BLACK
6
CONTINUOUS
10
6.5094644094488183
20
-3.7963642125984252
11
6.5075975196850395
21
-3.7991582283464567
0
LINE
8
BLACK
6
CONTINUOUS
10
6.5075975196850395
20
-3.7991582283464567
11
6.5048035039370076
21
-3.8010251181102364
0
LINE
8
BLACK
6
CONTINUOUS
10
6.5048035039370076
20
-3.8010251181102364
11
6.5015077559055117
21
-3.8016806692913385
0
LINE
8
BLACK
6
CONTINUOUS
10
6.5015077559055117
20
-3.8016806692913385
11
6.4842833464566931
21
-3.8016806692913385
0
LINE
8
BLACK
6
CONTINUOUS
10
6.4842833464566931
20
-3.8016806692913385
11
6.4809875984251963
21
-3.8010251181102364
0
LINE
8
BLACK
6
CONTINUOUS
10
6.4809875984251963
20
-3.8010251181102364
11
6.4781935826771653
21
-3.7991582283464567
0
LINE
8
BLACK
6
CONTINUOUS
10
6.4781935826771653
20
-3.7991582283464567
11
6.4763266929133856
21
-3.7963642125984252
0
LINE
8
BLACK
6
CONTINUOUS
10
6.4763266929133856
20
-3.7963642125984252
11
6.475671141732283
21
-3.7930684645669293
0
LINE
8
BLACK
6
CONTINUOUS
10
6.475671141732283
20
-3.7930684645669293
11
6.475671141732283
21
-3.7630487795275589
0
LINE
8
BLACK
6
CONTINUOUS
10
6.475671141732283
20
-3.7630487795275589
11
6.4763266929133856
21
-3.759753031496063
0
LINE
8
BLACK
6
CONTINUOUS
10
6.4763266929133856
20
-3.759753031496063
11
6.4781935826771653
21
-3.7569590157480315
0
LINE
8
BLACK
6
CONTINUOUS
10
6.4781935826771653
20
-3.7569590157480315
11
6.4809875984251963
21
-3.7550921259842518
0
LINE
8
BLACK
6
CONTINUOUS
10
6.4809875984251963
20
-3.7550921259842518
11
6.4842833464566931
21
-3.7544365748031496
0
LINE
8
BLACK
6
CONTINUOUS
10
6.4842833464566931
20
-3.7544365748031496
11
6.5015077559055117
21
-3.7544365748031496
0
LINE
8
BLACK
6
CONTINUOUS
10
6.5015077559055117
20
-3.7544365748031496
11
6.5048035039370076
21
-3.7550921259842518
0
LINE
8
BLACK
6
CONTINUOUS
10
6.5711420866141728
20
-3.7550921259842518
11
6.5739361023622047
21
-3.7569590157480315
0
LINE
8
BLACK
6
CONTINUOUS
10
6.5739361023622047
20
-3.7569590157480315
11
6.5758029921259844
21
-3.759753031496063
0
LINE
8
BLACK
6
CONTINUOUS
10
6.5758029921259844
20
-3.759753031496063
11
6.5764585433070861
21
-3.7630487795275589
0
LINE
8
BLACK
6
CONTINUOUS
10
6.5764585433070861
20
-3.7630487795275589
11
6.5764585433070861
21
-3.7930684645669293
0
LINE
8
BLACK
6
CONTINUOUS
10
6.5764585433070861
20
-3.7930684645669293
11
6.5758029921259844
21
-3.7963642125984252
0
LINE
8
BLACK
6
CONTINUOUS
10
6.5758029921259844
20
-3.7963642125984252
11
6.5739361023622047
21
-3.7991582283464567
0
LINE
8
BLACK
6
CONTINUOUS
10
6.5739361023622047
20
-3.7991582283464567
11
6.5711420866141728
21
-3.8010251181102364
0
LINE
8
BLACK
6
CONTINUOUS
10
6.5711420866141728
20
-3.8010251181102364
11
6.5678463385826769
21
-3.8016806692913385
0
LINE
8
BLACK
6
CONTINUOUS
10
6.5678463385826769
20
-3.8016806692913385
11
6.5506219291338583
21
-3.8016806692913385
0
LINE
8
BLACK
6
CONTINUOUS
10
6.5506219291338583
20
-3.8016806692913385
11
6.5473261811023624
21
-3.8010251181102364
0
LINE
8
BLACK
6
CONTINUOUS
10
6.5473261811023624
20
-3.8010251181102364
11
6.5445321653543305
21
-3.7991582283464567
0
LINE
8
BLACK
6
CONTINUOUS
10
6.5445321653543305
20
-3.7991582283464567
11
6.5426652755905508
21
-3.7963642125984252
0
LINE
8
BLACK
6
CONTINUOUS
10
6.5426652755905508
20
-3.7963642125984252
11
6.5420097244094491
21
-3.7930684645669293
0
LINE
8
BLACK
6
CONTINUOUS
10
6.5420097244094491
20
-3.7930684645669293
11
6.5420097244094491
21
-3.7630487795275589
0
LINE
8
BLACK
6
CONTINUOUS
10
6.5420097244094491
20
-3.7630487795275589
11
6.5426652755905508
21
-3.759753031496063
0
LINE
8
BLACK
6
CONTINUOUS
10
6.5426652755905508
20
-3.759753031496063
11
6.5445321653543305
21
-3.7569590157480315
0
LINE
8
BLACK
6
CONTINUOUS
10
6.5445321653543305
20
-3.7569590157480315
11
6.5473261811023624
21
-3.7550921259842518
0
LINE
8
BLACK
6
CONTINUOUS
10
6.5473261811023624
20
-3.7550921259842518
11
6.5506219291338583
21
-3.7544365748031496
0
LINE
8
BLACK
6
CONTINUOUS
10
6.5506219291338583
20
-3.7544365748031496
11
6.5678463385826769
21
-3.7544365748031496
0
LINE
8
BLACK
6
CONTINUOUS
10
6.5678463385826769
20
-3.7544365748031496
11
6.5711420866141728
21
-3.7550921259842518
0
LINE
8
BLACK
6
CONTINUOUS
10
6.6548035039370079
20
-3.7550921259842518
11
6.657597519685039
21
-3.7569590157480315
0
LINE
8
BLACK
6
CONTINUOUS
10
6.657597519685039
20
-3.7569590157480315
11
6.6594644094488187
21
-3.759753031496063
0
LINE
8
BLACK
6
CONTINUOUS
10
6.6594644094488187
20
-3.759753031496063
11
6.6601199606299213
21
-3.7630487795275589
0
LINE
8
BLACK
6
CONTINUOUS
10
6.6601199606299213
20
-3.7630487795275589
11
6.6601199606299213
21
-3.7930684645669293
0
LINE
8
BLACK
6
CONTINUOUS
10
6.6601199606299213
20
-3.7930684645669293
11
6.6594644094488187
21
-3.7963642125984252
0
LINE
8
BLACK
6
CONTINUOUS
10
6.6594644094488187
20
-3.7963642125984252
11
6.657597519685039
21
-3.7991582283464567
0
LINE
8
BLACK
6
CONTINUOUS
10
6.657597519685039
20
-3.7991582283464567
11
6.6548035039370079
21
-3.8010251181102364
0
LINE
8
BLACK
6
CONTINUOUS
10
6.6548035039370079
20
-3.8010251181102364
11
6.651507755905512
21
-3.8016806692913385
0
LINE
8
BLACK
6
CONTINUOUS
10
6.651507755905512
20
-3.8016806692913385
11
6.6342833464566926
21
-3.8016806692913385
0
LINE
8
BLACK
6
CONTINUOUS
10
6.6342833464566926
20
-3.8016806692913385
11
6.6309875984251967
21
-3.8010251181102364
0
LINE
8
BLACK
6
CONTINUOUS
10
6.6309875984251967
20
-3.8010251181102364
11
6.6281935826771656
21
-3.7991582283464567
0
LINE
8
BLACK
6
CONTINUOUS
10
6.6281935826771656
20
-3.7991582283464567
11
6.6263266929133859
21
-3.7963642125984252
0
LINE
8
BLACK
6
CONTINUOUS
10
6.6263266929133859
20
-3.7963642125984252
11
6.6256711417322833
21
-3.7930684645669293
0
LINE
8
BLACK
6
CONTINUOUS
10
6.6256711417322833
20
-3.7930684645669293
11
6.6256711417322833
21
-3.7630487795275589
0
LINE
8
BLACK
6
CONTINUOUS
10
6.6256711417322833
20
-3.7630487795275589
11
6.6263266929133859
21
-3.759753031496063
0
LINE
8
BLACK
6
CONTINUOUS
10
6.6263266929133859
20
-3.759753031496063
11
6.6281935826771656
21
-3.7569590157480315
0
LINE
8
BLACK
6
CONTINUOUS
10
6.6281935826771656
20
-3.7569590157480315
11
6.6309875984251967
21
-3.7550921259842518
0
LINE
8
BLACK
6
CONTINUOUS
10
6.6309875984251967
20
-3.7550921259842518
11
6.6342833464566926
21
-3.7544365748031496
0
LINE
8
BLACK
6
CONTINUOUS
10
6.6342833464566926
20
-3.7544365748031496
11
6.651507755905512
21
-3.7544365748031496
0
LINE
8
BLACK
6
CONTINUOUS
10
6.651507755905512
20
-3.7544365748031496
11
6.6548035039370079
21
-3.7550921259842518
0
LINE
8
BLACK
6
CONTINUOUS
10
5.9077577559055117
20
-3.7961688582677167
11
5.8368916141732283
21
-3.7961688582677167
0
LINE
8
BLACK
6
CONTINUOUS
10
5.8368916141732283
20
-3.7961688582677167
11
5.8368916141732283
21
-3.7489247637795273
0
LINE
8
BLACK
6
CONTINUOUS
10
5.8368916141732283
20
-3.7489247637795273
11
5.9077577559055117
21
-3.7489247637795273
0
LINE
8
BLACK
6
CONTINUOUS
10
5.9077577559055117
20
-3.7489247637795273
11
5.9077577559055117
21
-3.7961688582677167
0
LINE
8
BLACK
6
CONTINUOUS
10
6.0652380708661413
20
-3.7961688582677167
11
5.994371929133858
21
-3.7961688582677167
0
LINE
8
BLACK
6
CONTINUOUS
10
5.994371929133858
20
-3.7961688582677167
11
5.994371929133858
21
-3.7489247637795273
0
LINE
8
BLACK
6
CONTINUOUS
10
5.994371929133858
20
-3.7489247637795273
11
6.0652380708661413
21
-3.7489247637795273
0
LINE
8
BLACK
6
CONTINUOUS
10
6.0652380708661413
20
-3.7489247637795273
11
6.0652380708661413
21
-3.7961688582677167
0
LINE
8
BLACK
6
CONTINUOUS
10
5.2585648425196849
20
-3.7955586220472441
11
5.2235648425196848
21
-3.7955586220472441
0
LINE
8
BLACK
6
CONTINUOUS
10
5.2235648425196848
20
-3.7955586220472441
11
5.2235648425196848
21
-3.740558622047244
0
LINE
8
BLACK
6
CONTINUOUS
10
5.2235648425196848
20
-3.740558622047244
11
5.2585648425196849
21
-3.740558622047244
0
LINE
8
BLACK
6
CONTINUOUS
10
5.2585648425196849
20
-3.740558622047244
11
5.2585648425196849
21
-3.7955586220472441
0
LINE
8
BLACK
6
CONTINUOUS
10
5.3335648425196851
20
-3.7955586220472441
11
5.298564842519685
21
-3.7955586220472441
0
LINE
8
BLACK
6
CONTINUOUS
10
5.298564842519685
20
-3.7955586220472441
11
5.298564842519685
21
-3.740558622047244
0
LINE
8
BLACK
6
CONTINUOUS
10
5.298564842519685
20
-3.740558622047244
11
5.3335648425196851
21
-3.740558622047244
0
LINE
8
BLACK
6
CONTINUOUS
10
5.3335648425196851
20
-3.740558622047244
11
5.3335648425196851
21
-3.7955586220472441
0
LINE
8
BLACK
6
CONTINUOUS
10
6.1943704330708664
20
-3.7533204724409446
11
6.1971644488188975
21
-3.7551873622047243
0
LINE
8
BLACK
6
CONTINUOUS
10
6.1971644488188975
20
-3.7551873622047243
11
6.1990313385826772
21
-3.7579813779527558
0
LINE
8
BLACK
6
CONTINUOUS
10
6.1990313385826772
20
-3.7579813779527558
11
6.1996868897637798
21
-3.7612771259842517
0
LINE
8
BLACK
6
CONTINUOUS
10
6.1996868897637798
20
-3.7612771259842517
11
6.1996868897637798
21
-3.7785015354330707
0
LINE
8
BLACK
6
CONTINUOUS
10
6.1996868897637798
20
-3.7785015354330707
11
6.1990313385826772
21
-3.781797283464567
0
LINE
8
BLACK
6
CONTINUOUS
10
6.1990313385826772
20
-3.781797283464567
11
6.1971644488188975
21
-3.7845912992125985
0
LINE
8
BLACK
6
CONTINUOUS
10
6.1971644488188975
20
-3.7845912992125985
11
6.1943704330708664
21
-3.7864581889763778
0
LINE
8
BLACK
6
CONTINUOUS
10
6.1943704330708664
20
-3.7864581889763778
11
6.1910746850393696
21
-3.7871137401574804
0
LINE
8
BLACK
6
CONTINUOUS
10
6.1910746850393696
20
-3.7871137401574804
11
6.1610550000000002
21
-3.7871137401574804
0
LINE
8
BLACK
6
CONTINUOUS
10
6.1610550000000002
20
-3.7871137401574804
11
6.1577592519685034
21
-3.7864581889763778
0
LINE
8
BLACK
6
CONTINUOUS
10
6.1577592519685034
20
-3.7864581889763778
11
6.1549652362204723
21
-3.7845912992125985
0
LINE
8
BLACK
6
CONTINUOUS
10
6.1549652362204723
20
-3.7845912992125985
11
6.1530983464566926
21
-3.781797283464567
0
LINE
8
BLACK
6
CONTINUOUS
10
6.1530983464566926
20
-3.781797283464567
11
6.15244279527559
21
-3.7785015354330707
0
LINE
8
BLACK
6
CONTINUOUS
10
6.15244279527559
20
-3.7785015354330707
11
6.15244279527559
21
-3.7612771259842517
0
LINE
8
BLACK
6
CONTINUOUS
10
6.15244279527559
20
-3.7612771259842517
11
6.1530983464566926
21
-3.7579813779527558
0
LINE
8
BLACK
6
CONTINUOUS
10
6.1530983464566926
20
-3.7579813779527558
11
6.1549652362204723
21
-3.7551873622047243
0
LINE
8
BLACK
6
CONTINUOUS
10
6.1549652362204723
20
-3.7551873622047243
11
6.1577592519685034
21
-3.7533204724409446
0
LINE
8
BLACK
6
CONTINUOUS
10
6.1577592519685034
20
-3.7533204724409446
11
6.1610550000000002
21
-3.7526649212598424
0
LINE
8
BLACK
6
CONTINUOUS
10
6.1610550000000002
20
-3.7526649212598424
11
6.1910746850393696
21
-3.7526649212598424
0
LINE
8
BLACK
6
CONTINUOUS
10
6.1910746850393696
20
-3.7526649212598424
11
6.1943704330708664
21
-3.7533204724409446
0
LINE
8
BLACK
6
CONTINUOUS
10
5.1845294094488183
20
-3.7097515354330706
11
5.1176002755905508
21
-3.7097515354330706
0
LINE
8
BLACK
6
CONTINUOUS
10
5.1176002755905508
20
-3.7097515354330706
11
5.1176002755905508
21
-3.6585704330708659
0
LINE
8
BLACK
6
CONTINUOUS
10
5.1176002755905508
20
-3.6585704330708659
11
5.1845294094488183
21
-3.6585704330708659
0
LINE
8
BLACK
6
CONTINUOUS
10
5.1845294094488183
20
-3.6585704330708659
11
5.1845294094488183
21
-3.7097515354330706
0
LINE
8
BLACK
6
CONTINUOUS
10
6.4535648425196852
20
-3.7080586220472438
11
6.3985648425196846
21
-3.7080586220472438
0
LINE
8
BLACK
6
CONTINUOUS
10
6.3985648425196846
20
-3.7080586220472438
11
6.3985648425196846
21
-3.6730586220472441
0
LINE
8
BLACK
6
CONTINUOUS
10
6.3985648425196846
20
-3.6730586220472441
11
6.4535648425196852
21
-3.6730586220472441
0
LINE
8
BLACK
6
CONTINUOUS
10
6.4535648425196852
20
-3.6730586220472441
11
6.4535648425196852
21
-3.7080586220472438
0
LINE
8
BLACK
6
CONTINUOUS
10
6.5785648425196852
20
-3.7080586220472438
11
6.5235648425196846
21
-3.7080586220472438
0
LINE
8
BLACK
6
CONTINUOUS
10
6.5235648425196846
20
-3.7080586220472438
11
6.5235648425196846
21
-3.6730586220472441
0
LINE
8
BLACK
6
CONTINUOUS
10
6.5235648425196846
20
-3.6730586220472441
11
6.5785648425196852
21
-3.6730586220472441
0
LINE
8
BLACK
6
CONTINUOUS
10
6.5785648425196852
20
-3.6730586220472441
11
6.5785648425196852
21
-3.7080586220472438
0
LINE
8
BLACK
6
CONTINUOUS
10
6.7035648425196852
20
-3.7080586220472438
11
6.6485648425196846
21
-3.7080586220472438
0
LINE
8
BLACK
6
CONTINUOUS
10
6.6485648425196846
20
-3.7080586220472438
11
6.6485648425196846
21
-3.6730586220472441
0
LINE
8
BLACK
6
CONTINUOUS
10
6.6485648425196846
20
-3.6730586220472441
11
6.7035648425196852
21
-3.6730586220472441
0
LINE
8
BLACK
6
CONTINUOUS
10
6.7035648425196852
20
-3.6730586220472441
11
6.7035648425196852
21
-3.7080586220472438
0
LINE
8
BLACK
6
CONTINUOUS
10
6.1943704330708664
20
-3.6696590551181103
11
6.1971644488188975
21
-3.6715259448818895
0
LINE
8
BLACK
6
CONTINUOUS
10
6.1971644488188975
20
-3.6715259448818895
11
6.1990313385826772
21
-3.6743199606299211
0
LINE
8
BLACK
6
CONTINUOUS
10
6.1990313385826772
20
-3.6743199606299211
11
6.1996868897637798
21
-3.6776157086614174
0
LINE
8
BLACK
6
CONTINUOUS
10
6.1996868897637798
20
-3.6776157086614174
11
6.1996868897637798
21
-3.6948401181102359
0
LINE
8
BLACK
6
CONTINUOUS
10
6.1996868897637798
20
-3.6948401181102359
11
6.1990313385826772
21
-3.6981358661417323
0
LINE
8
BLACK
6
CONTINUOUS
10
6.1990313385826772
20
-3.6981358661417323
11
6.1971644488188975
21
-3.7009298818897638
0
LINE
8
BLACK
6
CONTINUOUS
10
6.1971644488188975
20
-3.7009298818897638
11
6.1943704330708664
21
-3.702796771653543
0
LINE
8
BLACK
6
CONTINUOUS
10
6.1943704330708664
20
-3.702796771653543
11
6.1910746850393696
21
-3.7034523228346456
0
LINE
8
BLACK
6
CONTINUOUS
10
6.1910746850393696
20
-3.7034523228346456
11
6.1610550000000002
21
-3.7034523228346456
0
LINE
8
BLACK
6
CONTINUOUS
10
6.1610550000000002
20
-3.7034523228346456
11
6.1577592519685034
21
-3.702796771653543
0
LINE
8
BLACK
6
CONTINUOUS
10
6.1577592519685034
20
-3.702796771653543
11
6.1549652362204723
21
-3.7009298818897638
0
LINE
8
BLACK
6
CONTINUOUS
10
6.1549652362204723
20
-3.7009298818897638
11
6.1530983464566926
21
-3.6981358661417323
0
LINE
8
BLACK
6
CONTINUOUS
10
6.1530983464566926
20
-3.6981358661417323
11
6.15244279527559
21
-3.6948401181102359
0
LINE
8
BLACK
6
CONTINUOUS
10
6.15244279527559
20
-3.6948401181102359
11
6.15244279527559
21
-3.6776157086614174
0
LINE
8
BLACK
6
CONTINUOUS
10
6.15244279527559
20
-3.6776157086614174
11
6.1530983464566926
21
-3.6743199606299211
0
LINE
8
BLACK
6
CONTINUOUS
10
6.1530983464566926
20
-3.6743199606299211
11
6.1549652362204723
21
-3.6715259448818895
0
LINE
8
BLACK
6
CONTINUOUS
10
6.1549652362204723
20
-3.6715259448818895
11
6.1577592519685034
21
-3.6696590551181103
0
LINE
8
BLACK
6
CONTINUOUS
10
6.1577592519685034
20
-3.6696590551181103
11
6.1610550000000002
21
-3.6690035039370077
0
LINE
8
BLACK
6
CONTINUOUS
10
6.1610550000000002
20
-3.6690035039370077
11
6.1910746850393696
21
-3.6690035039370077
0
LINE
8
BLACK
6
CONTINUOUS
10
6.1910746850393696
20
-3.6690035039370077
11
6.1943704330708664
21
-3.6696590551181103
0
LINE
8
BLACK
6
CONTINUOUS
10
5.9077577559055117
20
-3.7016806692913384
11
5.8368916141732283
21
-3.7016806692913384
0
LINE
8
BLACK
6
CONTINUOUS
10
5.8368916141732283
20
-3.7016806692913384
11
5.8368916141732283
21
-3.6544365748031495
0
LINE
8
BLACK
6
CONTINUOUS
10
5.8368916141732283
20
-3.6544365748031495
11
5.9077577559055117
21
-3.6544365748031495
0
LINE
8
BLACK
6
CONTINUOUS
10
5.9077577559055117
20
-3.6544365748031495
11
5.9077577559055117
21
-3.7016806692913384
0
LINE
8
BLACK
6
CONTINUOUS
10
6.0652380708661413
20
-3.7016806692913384
11
5.994371929133858
21
-3.7016806692913384
0
LINE
8
BLACK
6
CONTINUOUS
10
5.994371929133858
20
-3.7016806692913384
11
5.994371929133858
21
-3.6544365748031495
0
LINE
8
BLACK
6
CONTINUOUS
10
5.994371929133858
20
-3.6544365748031495
11
6.0652380708661413
21
-3.6544365748031495
0
LINE
8
BLACK
6
CONTINUOUS
10
6.0652380708661413
20
-3.6544365748031495
11
6.0652380708661413
21
-3.7016806692913384
0
LINE
8
BLACK
6
CONTINUOUS
10
6.2711420866141729
20
-3.6550921259842517
11
6.2739361023622049
21
-3.6569590157480314
0
LINE
8
BLACK
6
CONTINUOUS
10
6.2739361023622049
20
-3.6569590157480314
11
6.2758029921259837
21
-3.6597530314960629
0
LINE
8
BLACK
6
CONTINUOUS
10
6.2758029921259837
20
-3.6597530314960629
11
6.2764585433070863
21
-3.6630487795275588
0
LINE
8
BLACK
6
CONTINUOUS
10
6.2764585433070863
20
-3.6630487795275588
11
6.2764585433070863
21
-3.6930684645669292
0
LINE
8
BLACK
6
CONTINUOUS
10
6.2764585433070863
20
-3.6930684645669292
11
6.2758029921259837
21
-3.6963642125984251
0
LINE
8
BLACK
6
CONTINUOUS
10
6.2758029921259837
20
-3.6963642125984251
11
6.2739361023622049
21
-3.6991582283464566
0
LINE
8
BLACK
6
CONTINUOUS
10
6.2739361023622049
20
-3.6991582283464566
11
6.2711420866141729
21
-3.7010251181102363
0
LINE
8
BLACK
6
CONTINUOUS
10
6.2711420866141729
20
-3.7010251181102363
11
6.267846338582677
21
-3.7016806692913384
0
LINE
8
BLACK
6
CONTINUOUS
10
6.267846338582677
20
-3.7016806692913384
11
6.2506219291338585
21
-3.7016806692913384
0
LINE
8
BLACK
6
CONTINUOUS
10
6.2506219291338585
20
-3.7016806692913384
11
6.2473261811023617
21
-3.7010251181102363
0
LINE
8
BLACK
6
CONTINUOUS
10
6.2473261811023617
20
-3.7010251181102363
11
6.2445321653543306
21
-3.6991582283464566
0
LINE
8
BLACK
6
CONTINUOUS
10
6.2445321653543306
20
-3.6991582283464566
11
6.242665275590551
21
-3.6963642125984251
0
LINE
8
BLACK
6
CONTINUOUS
10
6.242665275590551
20
-3.6963642125984251
11
6.2420097244094483
21
-3.6930684645669292
0
LINE
8
BLACK
6
CONTINUOUS
10
6.2420097244094483
20
-3.6930684645669292
11
6.2420097244094483
21
-3.6630487795275588
0
LINE
8
BLACK
6
CONTINUOUS
10
6.2420097244094483
20
-3.6630487795275588
11
6.242665275590551
21
-3.6597530314960629
0
LINE
8
BLACK
6
CONTINUOUS
10
6.242665275590551
20
-3.6597530314960629
11
6.2445321653543306
21
-3.6569590157480314
0
LINE
8
BLACK
6
CONTINUOUS
10
6.2445321653543306
20
-3.6569590157480314
11
6.2473261811023617
21
-3.6550921259842517
0
LINE
8
BLACK
6
CONTINUOUS
10
6.2473261811023617
20
-3.6550921259842517
11
6.2506219291338585
21
-3.6544365748031495
0
LINE
8
BLACK
6
CONTINUOUS
10
6.2506219291338585
20
-3.6544365748031495
11
6.267846338582677
21
-3.6544365748031495
0
LINE
8
BLACK
6
CONTINUOUS
10
6.267846338582677
20
-3.6544365748031495
11
6.2711420866141729
21
-3.6550921259842517
0
LINE
8
BLACK
6
CONTINUOUS
10
6.3548035039370081
20
-3.6550921259842517
11
6.3575975196850392
21
-3.6569590157480314
0
LINE
8
BLACK
6
CONTINUOUS
10
6.3575975196850392
20
-3.6569590157480314
11
6.3594644094488189
21
-3.6597530314960629
0
LINE
8
BLACK
6
CONTINUOUS
10
6.3594644094488189
20
-3.6597530314960629
11
6.3601199606299215
21
-3.6630487795275588
0
LINE
8
BLACK
6
CONTINUOUS
10
6.3601199606299215
20
-3.6630487795275588
11
6.3601199606299215
21
-3.6930684645669292
0
LINE
8
BLACK
6
CONTINUOUS
10
6.3601199606299215
20
-3.6930684645669292
11
6.3594644094488189
21
-3.6963642125984251
0
LINE
8
BLACK
6
CONTINUOUS
10
6.3594644094488189
20
-3.6963642125984251
11
6.3575975196850392
21
-3.6991582283464566
0
LINE
8
BLACK
6
CONTINUOUS
10
6.3575975196850392
20
-3.6991582283464566
11
6.3548035039370081
21
-3.7010251181102363
0
LINE
8
BLACK
6
CONTINUOUS
10
6.3548035039370081
20
-3.7010251181102363
11
6.3515077559055113
21
-3.7016806692913384
0
LINE
8
BLACK
6
CONTINUOUS
10
6.3515077559055113
20
-3.7016806692913384
11
6.3342833464566928
21
-3.7016806692913384
0
LINE
8
BLACK
6
CONTINUOUS
10
6.3342833464566928
20
-3.7016806692913384
11
6.3309875984251969
21
-3.7010251181102363
0
LINE
8
BLACK
6
CONTINUOUS
10
6.3309875984251969
20
-3.7010251181102363
11
6.3281935826771649
21
-3.6991582283464566
0
LINE
8
BLACK
6
CONTINUOUS
10
6.3281935826771649
20
-3.6991582283464566
11
6.3263266929133861
21
-3.6963642125984251
0
LINE
8
BLACK
6
CONTINUOUS
10
6.3263266929133861
20
-3.6963642125984251
11
6.3256711417322835
21
-3.6930684645669292
0
LINE
8
BLACK
6
CONTINUOUS
10
6.3256711417322835
20
-3.6930684645669292
11
6.3256711417322835
21
-3.6630487795275588
0
LINE
8
BLACK
6
CONTINUOUS
10
6.3256711417322835
20
-3.6630487795275588
11
6.3263266929133861
21
-3.6597530314960629
0
LINE
8
BLACK
6
CONTINUOUS
10
6.3263266929133861
20
-3.6597530314960629
11
6.3281935826771649
21
-3.6569590157480314
0
LINE
8
BLACK
6
CONTINUOUS
10
6.3281935826771649
20
-3.6569590157480314
11
6.3309875984251969
21
-3.6550921259842517
0
LINE
8
BLACK
6
CONTINUOUS
10
6.3309875984251969
20
-3.6550921259842517
11
6.3342833464566928
21
-3.6544365748031495
0
LINE
8
BLACK
6
CONTINUOUS
10
6.3342833464566928
20
-3.6544365748031495
11
6.3515077559055113
21
-3.6544365748031495
0
LINE
8
BLACK
6
CONTINUOUS
10
6.3515077559055113
20
-3.6544365748031495
11
6.3548035039370081
21
-3.6550921259842517
0
LINE
8
BLACK
6
CONTINUOUS
10
6.4535648425196852
20
-3.6330586220472441
11
6.3985648425196846
21
-3.6330586220472441
0
LINE
8
BLACK
6
CONTINUOUS
10
6.3985648425196846
20
-3.6330586220472441
11
6.3985648425196846
21
-3.5980586220472439
0
LINE
8
BLACK
6
CONTINUOUS
10
6.3985648425196846
20
-3.5980586220472439
11
6.4535648425196852
21
-3.5980586220472439
0
LINE
8
BLACK
6
CONTINUOUS
10
6.4535648425196852
20
-3.5980586220472439
11
6.4535648425196852
21
-3.6330586220472441
0
LINE
8
BLACK
6
CONTINUOUS
10
6.5785648425196852
20
-3.6330586220472441
11
6.5235648425196846
21
-3.6330586220472441
0
LINE
8
BLACK
6
CONTINUOUS
10
6.5235648425196846
20
-3.6330586220472441
11
6.5235648425196846
21
-3.5980586220472439
0
LINE
8
BLACK
6
CONTINUOUS
10
6.5235648425196846
20
-3.5980586220472439
11
6.5785648425196852
21
-3.5980586220472439
0
LINE
8
BLACK
6
CONTINUOUS
10
6.5785648425196852
20
-3.5980586220472439
11
6.5785648425196852
21
-3.6330586220472441
0
LINE
8
BLACK
6
CONTINUOUS
10
6.7035648425196852
20
-3.6330586220472441
11
6.6485648425196846
21
-3.6330586220472441
0
LINE
8
BLACK
6
CONTINUOUS
10
6.6485648425196846
20
-3.6330586220472441
11
6.6485648425196846
21
-3.5980586220472439
0
LINE
8
BLACK
6
CONTINUOUS
10
6.6485648425196846
20
-3.5980586220472439
11
6.7035648425196852
21
-3.5980586220472439
0
LINE
8
BLACK
6
CONTINUOUS
10
6.7035648425196852
20
-3.5980586220472439
11
6.7035648425196852
21
-3.6330586220472441
0
LINE
8
BLACK
6
CONTINUOUS
10
6.2935648425196851
20
-3.6105586220472441
11
6.2385648425196845
21
-3.6105586220472441
0
LINE
8
BLACK
6
CONTINUOUS
10
6.2385648425196845
20
-3.6105586220472441
11
6.2385648425196845
21
-3.575558622047244
0
LINE
8
BLACK
6
CONTINUOUS
10
6.2385648425196845
20
-3.575558622047244
11
6.2935648425196851
21
-3.575558622047244
0
LINE
8
BLACK
6
CONTINUOUS
10
6.2935648425196851
20
-3.575558622047244
11
6.2935648425196851
21
-3.6105586220472441
0
LINE
8
BLACK
6
CONTINUOUS
10
5.2975479527559051
20
-3.5695558661417324
11
5.3007411023622044
21
-3.5716894488188977
0
LINE
8
BLACK
6
CONTINUOUS
10
5.3007411023622044
20
-3.5716894488188977
11
5.3028746850393702
21
-3.5748825984251966
0
LINE
8
BLACK
6
CONTINUOUS
10
5.3028746850393702
20
-3.5748825984251966
11
5.3036238976377952
21
-3.5786491732283463
0
LINE
8
BLACK
6
CONTINUOUS
10
5.3036238976377952
20
-3.5786491732283463
11
5.3036238976377952
21
-3.5993184645669292
0
LINE
8
BLACK
6
CONTINUOUS
10
5.3036238976377952
20
-3.5993184645669292
11
5.3028746850393702
21
-3.6030850393700788
0
LINE
8
BLACK
6
CONTINUOUS
10
5.3028746850393702
20
-3.6030850393700788
11
5.3007411023622044
21
-3.6062781889763778
0
LINE
8
BLACK
6
CONTINUOUS
10
5.3007411023622044
20
-3.6062781889763778
11
5.2975479527559051
21
-3.6084117716535431
0
LINE
8
BLACK
6
CONTINUOUS
10
5.2975479527559051
20
-3.6084117716535431
11
5.2937813779527554
21
-3.6091609842519685
0
LINE
8
BLACK
6
CONTINUOUS
10
5.2937813779527554
20
-3.6091609842519685
11
5.2583483070866137
21
-3.6091609842519685
0
LINE
8
BLACK
6
CONTINUOUS
10
5.2583483070866137
20
-3.6091609842519685
11
5.254581732283464
21
-3.6084117716535431
0
LINE
8
BLACK
6
CONTINUOUS
10
5.254581732283464
20
-3.6084117716535431
11
5.2513885826771656
21
-3.6062781889763778
0
LINE
8
BLACK
6
CONTINUOUS
10
5.2513885826771656
20
-3.6062781889763778
11
5.2492549999999998
21
-3.6030850393700788
0
LINE
8
BLACK
6
CONTINUOUS
10
5.2492549999999998
20
-3.6030850393700788
11
5.2485057874015748
21
-3.5993184645669292
0
LINE
8
BLACK
6
CONTINUOUS
10
5.2485057874015748
20
-3.5993184645669292
11
5.2485057874015748
21
-3.5786491732283463
0
LINE
8
BLACK
6
CONTINUOUS
10
5.2485057874015748
20
-3.5786491732283463
11
5.2492549999999998
21
-3.5748825984251966
0
LINE
8
BLACK
6
CONTINUOUS
10
5.2492549999999998
20
-3.5748825984251966
11
5.2513885826771656
21
-3.5716894488188977
0
LINE
8
BLACK
6
CONTINUOUS
10
5.2513885826771656
20
-3.5716894488188977
11
5.254581732283464
21
-3.5695558661417324
0
LINE
8
BLACK
6
CONTINUOUS
10
5.254581732283464
20
-3.5695558661417324
11
5.2583483070866137
21
-3.568806653543307
0
LINE
8
BLACK
6
CONTINUOUS
10
5.2583483070866137
20
-3.568806653543307
11
5.2937813779527554
21
-3.568806653543307
0
LINE
8
BLACK
6
CONTINUOUS
10
5.2937813779527554
20
-3.568806653543307
11
5.2975479527559051
21
-3.5695558661417324
0
LINE
8
BLACK
6
CONTINUOUS
10
5.3975479527559056
20
-3.5695558661417324
11
5.4007411023622049
21
-3.5716894488188977
0
LINE
8
BLACK
6
CONTINUOUS
10
5.4007411023622049
20
-3.5716894488188977
11
5.4028746850393699
21
-3.5748825984251966
0
LINE
8
BLACK
6
CONTINUOUS
10
5.4028746850393699
20
-3.5748825984251966
11
5.4036238976377948
21
-3.5786491732283463
0
LINE
8
BLACK
6
CONTINUOUS
10
5.4036238976377948
20
-3.5786491732283463
11
5.4036238976377948
21
-3.5993184645669292
0
LINE
8
BLACK
6
CONTINUOUS
10
5.4036238976377948
20
-3.5993184645669292
11
5.4028746850393699
21
-3.6030850393700788
0
LINE
8
BLACK
6
CONTINUOUS
10
5.4028746850393699
20
-3.6030850393700788
11
5.4007411023622049
21
-3.6062781889763778
0
LINE
8
BLACK
6
CONTINUOUS
10
5.4007411023622049
20
-3.6062781889763778
11
5.3975479527559056
21
-3.6084117716535431
0
LINE
8
BLACK
6
CONTINUOUS
10
5.3975479527559056
20
-3.6084117716535431
11
5.3937813779527559
21
-3.6091609842519685
0
LINE
8
BLACK
6
CONTINUOUS
10
5.3937813779527559
20
-3.6091609842519685
11
5.3583483070866142
21
-3.6091609842519685
0
LINE
8
BLACK
6
CONTINUOUS
10
5.3583483070866142
20
-3.6091609842519685
11
5.3545817322834646
21
-3.6084117716535431
0
LINE
8
BLACK
6
CONTINUOUS
10
5.3545817322834646
20
-3.6084117716535431
11
5.3513885826771652
21
-3.6062781889763778
0
LINE
8
BLACK
6
CONTINUOUS
10
5.3513885826771652
20
-3.6062781889763778
11
5.3492550000000003
21
-3.6030850393700788
0
LINE
8
BLACK
6
CONTINUOUS
10
5.3492550000000003
20
-3.6030850393700788
11
5.3485057874015745
21
-3.5993184645669292
0
LINE
8
BLACK
6
CONTINUOUS
10
5.3485057874015745
20
-3.5993184645669292
11
5.3485057874015745
21
-3.5786491732283463
0
LINE
8
BLACK
6
CONTINUOUS
10
5.3485057874015745
20
-3.5786491732283463
11
5.3492550000000003
21
-3.5748825984251966
0
LINE
8
BLACK
6
CONTINUOUS
10
5.3492550000000003
20
-3.5748825984251966
11
5.3513885826771652
21
-3.5716894488188977
0
LINE
8
BLACK
6
CONTINUOUS
10
5.3513885826771652
20
-3.5716894488188977
11
5.3545817322834646
21
-3.5695558661417324
0
LINE
8
BLACK
6
CONTINUOUS
10
5.3545817322834646
20
-3.5695558661417324
11
5.3583483070866142
21
-3.568806653543307
0
LINE
8
BLACK
6
CONTINUOUS
10
5.3583483070866142
20
-3.568806653543307
11
5.3937813779527559
21
-3.568806653543307
0
LINE
8
BLACK
6
CONTINUOUS
10
5.3937813779527559
20
-3.568806653543307
11
5.3975479527559056
21
-3.5695558661417324
0
LINE
8
BLACK
6
CONTINUOUS
10
5.9725479527559058
20
-3.5695558661417324
11
5.9757411023622042
21
-3.5716894488188977
0
LINE
8
BLACK
6
CONTINUOUS
10
5.9757411023622042
20
-3.5716894488188977
11
5.97787468503937
21
-3.5748825984251966
0
LINE
8
BLACK
6
CONTINUOUS
10
5.97787468503937
20
-3.5748825984251966
11
5.978623897637795
21
-3.5786491732283463
0
LINE
8
BLACK
6
CONTINUOUS
10
5.978623897637795
20
-3.5786491732283463
11
5.978623897637795
21
-3.5993184645669292
0
LINE
8
BLACK
6
CONTINUOUS
10
5.978623897637795
20
-3.5993184645669292
11
5.97787468503937
21
-3.6030850393700788
0
LINE
8
BLACK
6
CONTINUOUS
10
5.97787468503937
20
-3.6030850393700788
11
5.9757411023622042
21
-3.6062781889763778
0
LINE
8
BLACK
6
CONTINUOUS
10
5.9757411023622042
20
-3.6062781889763778
11
5.9725479527559058
21
-3.6084117716535431
0
LINE
8
BLACK
6
CONTINUOUS
10
5.9725479527559058
20
-3.6084117716535431
11
5.9687813779527561
21
-3.6091609842519685
0
LINE
8
BLACK
6
CONTINUOUS
10
5.9687813779527561
20
-3.6091609842519685
11
5.9333483070866144
21
-3.6091609842519685
0
LINE
8
BLACK
6
CONTINUOUS
10
5.9333483070866144
20
-3.6091609842519685
11
5.9295817322834647
21
-3.6084117716535431
0
LINE
8
BLACK
6
CONTINUOUS
10
5.9295817322834647
20
-3.6084117716535431
11
5.9263885826771654
21
-3.6062781889763778
0
LINE
8
BLACK
6
CONTINUOUS
10
5.9263885826771654
20
-3.6062781889763778
11
5.9242549999999996
21
-3.6030850393700788
0
LINE
8
BLACK
6
CONTINUOUS
10
5.9242549999999996
20
-3.6030850393700788
11
5.9235057874015746
21
-3.5993184645669292
0
LINE
8
BLACK
6
CONTINUOUS
10
5.9235057874015746
20
-3.5993184645669292
11
5.9235057874015746
21
-3.5786491732283463
0
LINE
8
BLACK
6
CONTINUOUS
10
5.9235057874015746
20
-3.5786491732283463
11
5.9242549999999996
21
-3.5748825984251966
0
LINE
8
BLACK
6
CONTINUOUS
10
5.9242549999999996
20
-3.5748825984251966
11
5.9263885826771654
21
-3.5716894488188977
0
LINE
8
BLACK
6
CONTINUOUS
10
5.9263885826771654
20
-3.5716894488188977
11
5.9295817322834647
21
-3.5695558661417324
0
LINE
8
BLACK
6
CONTINUOUS
10
5.9295817322834647
20
-3.5695558661417324
11
5.9333483070866144
21
-3.568806653543307
0
LINE
8
BLACK
6
CONTINUOUS
10
5.9333483070866144
20
-3.568806653543307
11
5.9687813779527561
21
-3.568806653543307
0
LINE
8
BLACK
6
CONTINUOUS
10
5.9687813779527561
20
-3.568806653543307
11
5.9725479527559058
21
-3.5695558661417324
0
LINE
8
BLACK
6
CONTINUOUS
10
6.1275479527559051
20
-3.5670558661417324
11
6.1307411023622045
21
-3.5691894488188978
0
LINE
8
BLACK
6
CONTINUOUS
10
6.1307411023622045
20
-3.5691894488188978
11
6.1328746850393703
21
-3.5723825984251967
0
LINE
8
BLACK
6
CONTINUOUS
10
6.1328746850393703
20
-3.5723825984251967
11
6.1336238976377953
21
-3.5761491732283464
0
LINE
8
BLACK
6
CONTINUOUS
10
6.1336238976377953
20
-3.5761491732283464
11
6.1336238976377953
21
-3.5968184645669292
0
LINE
8
BLACK
6
CONTINUOUS
10
6.1336238976377953
20
-3.5968184645669292
11
6.1328746850393703
21
-3.6005850393700785
0
LINE
8
BLACK
6
CONTINUOUS
10
6.1328746850393703
20
-3.6005850393700785
11
6.1307411023622045
21
-3.6037781889763778
0
LINE
8
BLACK
6
CONTINUOUS
10
6.1307411023622045
20
-3.6037781889763778
11
6.1275479527559051
21
-3.6059117716535432
0
LINE
8
BLACK
6
CONTINUOUS
10
6.1275479527559051
20
-3.6059117716535432
11
6.1237813779527555
21
-3.6066609842519686
0
LINE
8
BLACK
6
CONTINUOUS
10
6.1237813779527555
20
-3.6066609842519686
11
6.0883483070866138
21
-3.6066609842519686
0
LINE
8
BLACK
6
CONTINUOUS
10
6.0883483070866138
20
-3.6066609842519686
11
6.0845817322834641
21
-3.6059117716535432
0
LINE
8
BLACK
6
CONTINUOUS
10
6.0845817322834641
20
-3.6059117716535432
11
6.0813885826771656
21
-3.6037781889763778
0
LINE
8
BLACK
6
CONTINUOUS
10
6.0813885826771656
20
-3.6037781889763778
11
6.0792549999999999
21
-3.6005850393700785
0
LINE
8
BLACK
6
CONTINUOUS
10
6.0792549999999999
20
-3.6005850393700785
11
6.0785057874015749
21
-3.5968184645669292
0
LINE
8
BLACK
6
CONTINUOUS
10
6.0785057874015749
20
-3.5968184645669292
11
6.0785057874015749
21
-3.5761491732283464
0
LINE
8
BLACK
6
CONTINUOUS
10
6.0785057874015749
20
-3.5761491732283464
11
6.0792549999999999
21
-3.5723825984251967
0
LINE
8
BLACK
6
CONTINUOUS
10
6.0792549999999999
20
-3.5723825984251967
11
6.0813885826771656
21
-3.5691894488188978
0
LINE
8
BLACK
6
CONTINUOUS
10
6.0813885826771656
20
-3.5691894488188978
11
6.0845817322834641
21
-3.5670558661417324
0
LINE
8
BLACK
6
CONTINUOUS
10
6.0845817322834641
20
-3.5670558661417324
11
6.0883483070866138
21
-3.566306653543307
0
LINE
8
BLACK
6
CONTINUOUS
10
6.0883483070866138
20
-3.566306653543307
11
6.1237813779527555
21
-3.566306653543307
0
LINE
8
BLACK
6
CONTINUOUS
10
6.1237813779527555
20
-3.566306653543307
11
6.1275479527559051
21
-3.5670558661417324
0
LINE
8
BLACK
6
CONTINUOUS
10
5.2975479527559051
20
-3.4977054724409449
11
5.3007411023622044
21
-3.4998390551181102
0
LINE
8
BLACK
6
CONTINUOUS
10
5.3007411023622044
20
-3.4998390551181102
11
5.3028746850393702
21
-3.5030322047244096
0
LINE
8
BLACK
6
CONTINUOUS
10
5.3028746850393702
20
-3.5030322047244096
11
5.3036238976377952
21
-3.5067987795275588
0
LINE
8
BLACK
6
CONTINUOUS
10
5.3036238976377952
20
-3.5067987795275588
11
5.3036238976377952
21
-3.5274680708661417
0
LINE
8
BLACK
6
CONTINUOUS
10
5.3036238976377952
20
-3.5274680708661417
11
5.3028746850393702
21
-3.5312346456692913
0
LINE
8
BLACK
6
CONTINUOUS
10
5.3028746850393702
20
-3.5312346456692913
11
5.3007411023622044
21
-3.5344277952755903
0
LINE
8
BLACK
6
CONTINUOUS
10
5.3007411023622044
20
-3.5344277952755903
11
5.2975479527559051
21
-3.536561377952756
0
LINE
8
BLACK
6
CONTINUOUS
10
5.2975479527559051
20
-3.536561377952756
11
5.2937813779527554
21
-3.537310590551181
0
LINE
8
BLACK
6
CONTINUOUS
10
5.2937813779527554
20
-3.537310590551181
11
5.2583483070866137
21
-3.537310590551181
0
LINE
8
BLACK
6
CONTINUOUS
10
5.2583483070866137
20
-3.537310590551181
11
5.254581732283464
21
-3.536561377952756
0
LINE
8
BLACK
6
CONTINUOUS
10
5.254581732283464
20
-3.536561377952756
11
5.2513885826771656
21
-3.5344277952755903
0
LINE
8
BLACK
6
CONTINUOUS
10
5.2513885826771656
20
-3.5344277952755903
11
5.2492549999999998
21
-3.5312346456692913
0
LINE
8
BLACK
6
CONTINUOUS
10
5.2492549999999998
20
-3.5312346456692913
11
5.2485057874015748
21
-3.5274680708661417
0
LINE
8
BLACK
6
CONTINUOUS
10
5.2485057874015748
20
-3.5274680708661417
11
5.2485057874015748
21
-3.5067987795275588
0
LINE
8
BLACK
6
CONTINUOUS
10
5.2485057874015748
20
-3.5067987795275588
11
5.2492549999999998
21
-3.5030322047244096
0
LINE
8
BLACK
6
CONTINUOUS
10
5.2492549999999998
20
-3.5030322047244096
11
5.2513885826771656
21
-3.4998390551181102
0
LINE
8
BLACK
6
CONTINUOUS
10
5.2513885826771656
20
-3.4998390551181102
11
5.254581732283464
21
-3.4977054724409449
0
LINE
8
BLACK
6
CONTINUOUS
10
5.254581732283464
20
-3.4977054724409449
11
5.2583483070866137
21
-3.4969562598425195
0
LINE
8
BLACK
6
CONTINUOUS
10
5.2583483070866137
20
-3.4969562598425195
11
5.2937813779527554
21
-3.4969562598425195
0
LINE
8
BLACK
6
CONTINUOUS
10
5.2937813779527554
20
-3.4969562598425195
11
5.2975479527559051
21
-3.4977054724409449
0
LINE
8
BLACK
6
CONTINUOUS
10
5.3975479527559056
20
-3.4977054724409449
11
5.4007411023622049
21
-3.4998390551181102
0
LINE
8
BLACK
6
CONTINUOUS
10
5.4007411023622049
20
-3.4998390551181102
11
5.4028746850393699
21
-3.5030322047244096
0
LINE
8
BLACK
6
CONTINUOUS
10
5.4028746850393699
20
-3.5030322047244096
11
5.4036238976377948
21
-3.5067987795275588
0
LINE
8
BLACK
6
CONTINUOUS
10
5.4036238976377948
20
-3.5067987795275588
11
5.4036238976377948
21
-3.5274680708661417
0
LINE
8
BLACK
6
CONTINUOUS
10
5.4036238976377948
20
-3.5274680708661417
11
5.4028746850393699
21
-3.5312346456692913
0
LINE
8
BLACK
6
CONTINUOUS
10
5.4028746850393699
20
-3.5312346456692913
11
5.4007411023622049
21
-3.5344277952755903
0
LINE
8
BLACK
6
CONTINUOUS
10
5.4007411023622049
20
-3.5344277952755903
11
5.3975479527559056
21
-3.536561377952756
0
LINE
8
BLACK
6
CONTINUOUS
10
5.3975479527559056
20
-3.536561377952756
11
5.3937813779527559
21
-3.537310590551181
0
LINE
8
BLACK
6
CONTINUOUS
10
5.3937813779527559
20
-3.537310590551181
11
5.3583483070866142
21
-3.537310590551181
0
LINE
8
BLACK
6
CONTINUOUS
10
5.3583483070866142
20
-3.537310590551181
11
5.3545817322834646
21
-3.536561377952756
0
LINE
8
BLACK
6
CONTINUOUS
10
5.3545817322834646
20
-3.536561377952756
11
5.3513885826771652
21
-3.5344277952755903
0
LINE
8
BLACK
6
CONTINUOUS
10
5.3513885826771652
20
-3.5344277952755903
11
5.3492550000000003
21
-3.5312346456692913
0
LINE
8
BLACK
6
CONTINUOUS
10
5.3492550000000003
20
-3.5312346456692913
11
5.3485057874015745
21
-3.5274680708661417
0
LINE
8
BLACK
6
CONTINUOUS
10
5.3485057874015745
20
-3.5274680708661417
11
5.3485057874015745
21
-3.5067987795275588
0
LINE
8
BLACK
6
CONTINUOUS
10
5.3485057874015745
20
-3.5067987795275588
11
5.3492550000000003
21
-3.5030322047244096
0
LINE
8
BLACK
6
CONTINUOUS
10
5.3492550000000003
20
-3.5030322047244096
11
5.3513885826771652
21
-3.4998390551181102
0
LINE
8
BLACK
6
CONTINUOUS
10
5.3513885826771652
20
-3.4998390551181102
11
5.3545817322834646
21
-3.4977054724409449
0
LINE
8
BLACK
6
CONTINUOUS
10
5.3545817322834646
20
-3.4977054724409449
11
5.3583483070866142
21
-3.4969562598425195
0
LINE
8
BLACK
6
CONTINUOUS
10
5.3583483070866142
20
-3.4969562598425195
11
5.3937813779527559
21
-3.4969562598425195
0
LINE
8
BLACK
6
CONTINUOUS
10
5.3937813779527559
20
-3.4969562598425195
11
5.3975479527559056
21
-3.4977054724409449
0
LINE
8
BLACK
6
CONTINUOUS
10
5.9725479527559058
20
-3.4977054724409449
11
5.9757411023622042
21
-3.4998390551181102
0
LINE
8
BLACK
6
CONTINUOUS
10
5.9757411023622042
20
-3.4998390551181102
11
5.97787468503937
21
-3.5030322047244096
0
LINE
8
BLACK
6
CONTINUOUS
10
5.97787468503937
20
-3.5030322047244096
11
5.978623897637795
21
-3.5067987795275588
0
LINE
8
BLACK
6
CONTINUOUS
10
5.978623897637795
20
-3.5067987795275588
11
5.978623897637795
21
-3.5274680708661417
0
LINE
8
BLACK
6
CONTINUOUS
10
5.978623897637795
20
-3.5274680708661417
11
5.97787468503937
21
-3.5312346456692913
0
LINE
8
BLACK
6
CONTINUOUS
10
5.97787468503937
20
-3.5312346456692913
11
5.9757411023622042
21
-3.5344277952755903
0
LINE
8
BLACK
6
CONTINUOUS
10
5.9757411023622042
20
-3.5344277952755903
11
5.9725479527559058
21
-3.536561377952756
0
LINE
8
BLACK
6
CONTINUOUS
10
5.9725479527559058
20
-3.536561377952756
11
5.9687813779527561
21
-3.537310590551181
0
LINE
8
BLACK
6
CONTINUOUS
10
5.9687813779527561
20
-3.537310590551181
11
5.9333483070866144
21
-3.537310590551181
0
LINE
8
BLACK
6
CONTINUOUS
10
5.9333483070866144
20
-3.537310590551181
11
5.9295817322834647
21
-3.536561377952756
0
LINE
8
BLACK
6
CONTINUOUS
10
5.9295817322834647
20
-3.536561377952756
11
5.9263885826771654
21
-3.5344277952755903
0
LINE
8
BLACK
6
CONTINUOUS
10
5.9263885826771654
20
-3.5344277952755903
11
5.9242549999999996
21
-3.5312346456692913
0
LINE
8
BLACK
6
CONTINUOUS
10
5.9242549999999996
20
-3.5312346456692913
11
5.9235057874015746
21
-3.5274680708661417
0
LINE
8
BLACK
6
CONTINUOUS
10
5.9235057874015746
20
-3.5274680708661417
11
5.9235057874015746
21
-3.5067987795275588
0
LINE
8
BLACK
6
CONTINUOUS
10
5.9235057874015746
20
-3.5067987795275588
11
5.9242549999999996
21
-3.5030322047244096
0
LINE
8
BLACK
6
CONTINUOUS
10
5.9242549999999996
20
-3.5030322047244096
11
5.9263885826771654
21
-3.4998390551181102
0
LINE
8
BLACK
6
CONTINUOUS
10
5.9263885826771654
20
-3.4998390551181102
11
5.9295817322834647
21
-3.4977054724409449
0
LINE
8
BLACK
6
CONTINUOUS
10
5.9295817322834647
20
-3.4977054724409449
11
5.9333483070866144
21
-3.4969562598425195
0
LINE
8
BLACK
6
CONTINUOUS
10
5.9333483070866144
20
-3.4969562598425195
11
5.9687813779527561
21
-3.4969562598425195
0
LINE
8
BLACK
6
CONTINUOUS
10
5.9687813779527561
20
-3.4969562598425195
11
5.9725479527559058
21
-3.4977054724409449
0
LINE
8
BLACK
6
CONTINUOUS
10
6.2935648425196851
20
-3.5355586220472439
11
6.2385648425196845
21
-3.5355586220472439
0
LINE
8
BLACK
6
CONTINUOUS
10
6.2385648425196845
20
-3.5355586220472439
11
6.2385648425196845
21
-3.5005586220472442
0
LINE
8
BLACK
6
CONTINUOUS
10
6.2385648425196845
20
-3.5005586220472442
11
6.2935648425196851
21
-3.5005586220472442
0
LINE
8
BLACK
6
CONTINUOUS
10
6.2935648425196851
20
-3.5005586220472442
11
6.2935648425196851
21
-3.5355586220472439
0
LINE
8
BLACK
6
CONTINUOUS
10
6.1275479527559051
20
-3.4952054724409449
11
6.1307411023622045
21
-3.4973390551181103
0
LINE
8
BLACK
6
CONTINUOUS
10
6.1307411023622045
20
-3.4973390551181103
11
6.1328746850393703
21
-3.5005322047244092
0
LINE
8
BLACK
6
CONTINUOUS
10
6.1328746850393703
20
-3.5005322047244092
11
6.1336238976377953
21
-3.5042987795275589
0
LINE
8
BLACK
6
CONTINUOUS
10
6.1336238976377953
20
-3.5042987795275589
11
6.1336238976377953
21
-3.5249680708661417
0
LINE
8
BLACK
6
CONTINUOUS
10
6.1336238976377953
20
-3.5249680708661417
11
6.1328746850393703
21
-3.5287346456692914
0
LINE
8
BLACK
6
CONTINUOUS
10
6.1328746850393703
20
-3.5287346456692914
11
6.1307411023622045
21
-3.5319277952755903
0
LINE
8
BLACK
6
CONTINUOUS
10
6.1307411023622045
20
-3.5319277952755903
11
6.1275479527559051
21
-3.5340613779527557
0
LINE
8
BLACK
6
CONTINUOUS
10
6.1275479527559051
20
-3.5340613779527557
11
6.1237813779527555
21
-3.5348105905511811
0
LINE
8
BLACK
6
CONTINUOUS
10
6.1237813779527555
20
-3.5348105905511811
11
6.0883483070866138
21
-3.5348105905511811
0
LINE
8
BLACK
6
CONTINUOUS
10
6.0883483070866138
20
-3.5348105905511811
11
6.0845817322834641
21
-3.5340613779527557
0
LINE
8
BLACK
6
CONTINUOUS
10
6.0845817322834641
20
-3.5340613779527557
11
6.0813885826771656
21
-3.5319277952755903
0
LINE
8
BLACK
6
CONTINUOUS
10
6.0813885826771656
20
-3.5319277952755903
11
6.0792549999999999
21
-3.5287346456692914
0
LINE
8
BLACK
6
CONTINUOUS
10
6.0792549999999999
20
-3.5287346456692914
11
6.0785057874015749
21
-3.5249680708661417
0
LINE
8
BLACK
6
CONTINUOUS
10
6.0785057874015749
20
-3.5249680708661417
11
6.0785057874015749
21
-3.5042987795275589
0
LINE
8
BLACK
6
CONTINUOUS
10
6.0785057874015749
20
-3.5042987795275589
11
6.0792549999999999
21
-3.5005322047244092
0
LINE
8
BLACK
6
CONTINUOUS
10
6.0792549999999999
20
-3.5005322047244092
11
6.0813885826771656
21
-3.4973390551181103
0
LINE
8
BLACK
6
CONTINUOUS
10
6.0813885826771656
20
-3.4973390551181103
11
6.0845817322834641
21
-3.4952054724409449
0
LINE
8
BLACK
6
CONTINUOUS
10
6.0845817322834641
20
-3.4952054724409449
11
6.0883483070866138
21
-3.4944562598425195
0
LINE
8
BLACK
6
CONTINUOUS
10
6.0883483070866138
20
-3.4944562598425195
11
6.1237813779527555
21
-3.4944562598425195
0
LINE
8
BLACK
6
CONTINUOUS
10
6.1237813779527555
20
-3.4944562598425195
11
6.1275479527559051
21
-3.4952054724409449
  0
ENDSEC
  0
EOF
