<?xml version='1.0' encoding='ASCII' standalone='yes'?>
<svg xmlns:svg="http://www.w3.org/2000/svg" xmlns="http://www.w3.org/2000/svg" xmlns:xlink="http://www.w3.org/1999/xlink" version="1.1" width="297.0022mm" height="210.0072mm" viewBox="0.0000 0.0000 297.0022 210.0072">
<title>SVG Image created as ISM03-F_Fab.svg date 2024/07/13 22:37:45 </title>
  <desc>Image generated by PCBNEW </desc>
<g style="fill:#848484; fill-opacity:1.0000;stroke:#848484; stroke-opacity:1.0000; stroke-linecap:round; stroke-linejoin:round;" transform="translate(0 0) scale(1 1)">
</g>
<g style="fill:#848484; fill-opacity:0.0;  stroke:#848484; stroke-width:0.0000; stroke-opacity:1;  stroke-linecap:round; stroke-linejoin:round;">
</g>
<g style="fill:#848484; fill-opacity:0.0;  stroke:#848484; stroke-width:0.7820; stroke-opacity:1;  stroke-linecap:round; stroke-linejoin:round;">
<text x="254.3824" y="75.2135" textLength="12.3718" font-size="8.8278" lengthAdjust="spacingAndGlyphs" text-anchor="middle" opacity="0">J3</text>
<g class="stroked-text"><desc>J3</desc>
<path d="M252.1754 68.3045 L252.1754 73.0337 "/>
<path d="M252.1754 73.0337 L251.8602 73.9795 "/>
<path d="M251.8602 73.9795 L251.2296 74.6101 "/>
<path d="M251.2296 74.6101 L250.2838 74.9253 "/>
<path d="M250.2838 74.9253 L249.6532 74.9253 "/>
<path d="M254.6977 68.3045 L258.7963 68.3045 "/>
<path d="M258.7963 68.3045 L256.5893 70.8267 "/>
<path d="M256.5893 70.8267 L257.5352 70.8267 "/>
<path d="M257.5352 70.8267 L258.1657 71.1420 "/>
<path d="M258.1657 71.1420 L258.4810 71.4573 "/>
<path d="M258.4810 71.4573 L258.7963 72.0878 "/>
<path d="M258.7963 72.0878 L258.7963 73.6642 "/>
<path d="M258.7963 73.6642 L258.4810 74.2948 "/>
<path d="M258.4810 74.2948 L258.1657 74.6101 "/>
<path d="M258.1657 74.6101 L257.5352 74.9253 "/>
<path d="M257.5352 74.9253 L255.6435 74.9253 "/>
<path d="M255.6435 74.9253 L255.0129 74.6101 "/>
<path d="M255.0129 74.6101 L254.6977 74.2948 "/>
</g><text x="254.3824" y="131.4905" textLength="12.3718" font-size="8.8278" lengthAdjust="spacingAndGlyphs" text-anchor="middle" opacity="0">J2</text>
<g class="stroked-text"><desc>J2</desc>
<path d="M252.1754 124.5815 L252.1754 129.3107 "/>
<path d="M252.1754 129.3107 L251.8602 130.2565 "/>
<path d="M251.8602 130.2565 L251.2296 130.8871 "/>
<path d="M251.2296 130.8871 L250.2838 131.2023 "/>
<path d="M250.2838 131.2023 L249.6532 131.2023 "/>
<path d="M255.0129 125.2121 L255.3282 124.8968 "/>
<path d="M255.3282 124.8968 L255.9588 124.5815 "/>
<path d="M255.9588 124.5815 L257.5352 124.5815 "/>
<path d="M257.5352 124.5815 L258.1657 124.8968 "/>
<path d="M258.1657 124.8968 L258.4810 125.2121 "/>
<path d="M258.4810 125.2121 L258.7963 125.8426 "/>
<path d="M258.7963 125.8426 L258.7963 126.4732 "/>
<path d="M258.7963 126.4732 L258.4810 127.4190 "/>
<path d="M258.4810 127.4190 L254.6977 131.2023 "/>
<path d="M254.6977 131.2023 L258.7963 131.2023 "/>
</g><text x="204.9163" y="32.6583" transform="scale(-1 1) translate(-409.832511 0)" textLength="6.5166" font-size="6.9510" lengthAdjust="spacingAndGlyphs" text-anchor="middle" opacity="0">K</text>
<g class="stroked-text"><desc>K</desc>
<path d="M206.2816 32.4228 L206.2816 27.2096 "/>
<path d="M203.3026 32.4228 L205.5369 29.4438 "/>
<path d="M203.3026 27.2096 L206.2816 30.1885 "/>
</g><text x="204.9163" y="14.1200" transform="scale(-1 1) translate(-409.832501 0)" textLength="6.5166" font-size="6.9510" lengthAdjust="spacingAndGlyphs" text-anchor="middle" opacity="0">K</text>
<g class="stroked-text"><desc>K</desc>
<path d="M206.2816 13.8845 L206.2816 8.6712 "/>
<path d="M203.3026 13.8845 L205.5369 10.9055 "/>
<path d="M203.3026 8.6712 L206.2816 11.6502 "/>
</g><path d="M111.2316 191.0039 L111.2316 164.5206 "/>
<path d="M124.4732 191.0039 L111.2316 191.0039 "/>
<path d="M111.2316 164.5206 L124.4732 164.5206 "/>
<path d="M124.4732 164.5206 L124.4732 191.0039 "/>
<path d="M-30.3130 52.0406 L-3.8297 52.0406 "/>
<path d="M-30.3130 91.7655 L-30.3130 52.0406 "/>
<path d="M-3.8297 52.0406 L-3.8297 91.7655 "/>
<path d="M-3.8297 91.7655 L-30.3130 91.7655 "/>
<path d="M-30.3130 120.2351 L-3.8297 120.2351 "/>
<path d="M-30.3130 159.9600 L-30.3130 120.2351 "/>
<path d="M-3.8297 120.2351 L-3.8297 159.9600 "/>
<path d="M-3.8297 159.9600 L-30.3130 159.9600 "/>
<path d="M65.7408 124.8661 L39.2575 124.8661 "/>
<path d="M65.7408 111.6244 L65.7408 124.8661 "/>
<path d="M39.2575 124.8661 L39.2575 111.6244 "/>
<path d="M39.2575 111.6244 L65.7408 111.6244 "/>
<path d="M64.2238 90.6985 L37.7405 90.6985 "/>
<path d="M64.2238 77.4568 L64.2238 90.6985 "/>
<path d="M37.7405 90.6985 L37.7405 77.4568 "/>
<path d="M37.7405 77.4568 L64.2238 77.4568 "/>
<path d="M39.2575 124.8661 L65.7408 124.8661 "/>
<path d="M39.2575 138.1077 L39.2575 124.8661 "/>
<path d="M65.7408 124.8661 L65.7408 138.1077 "/>
<path d="M65.7408 138.1077 L39.2575 138.1077 "/>
<path d="M97.9900 191.0039 L97.9900 164.5206 "/>
<path d="M111.2316 191.0039 L97.9900 191.0039 "/>
<path d="M97.9900 164.5206 L111.2316 164.5206 "/>
<path d="M111.2316 164.5206 L111.2316 191.0039 "/>
<path d="M84.7483 191.0039 L84.7483 164.5206 "/>
<path d="M97.9900 191.0039 L84.7483 191.0039 "/>
<path d="M84.7483 164.5206 L97.9900 164.5206 "/>
<path d="M97.9900 164.5206 L97.9900 191.0039 "/>
</g>
<g style="fill:#848484; fill-opacity:0.0;  stroke:#848484; stroke-width:0.5213; stroke-opacity:1;  stroke-linecap:round; stroke-linejoin:round;">
<circle cx="42.5679" cy="25.5537" r="15.6384"/> 
<circle cx="254.4343" cy="25.5537" r="15.6384"/> 
<circle cx="42.5679" cy="184.4535" r="15.6384"/> 
<circle cx="254.4343" cy="184.4535" r="15.6384"/> 
</g>
<g style="fill:#848484; fill-opacity:0.0;  stroke:#848484; stroke-width:0.7820; stroke-opacity:1;  stroke-linecap:round; stroke-linejoin:round;">
<path d="M236.1360 53.6567 L236.1360 90.1494 "/>
<path d="M236.1360 82.4860 L243.7995 82.4860 "/>
<path d="M236.1360 90.1494 L272.6287 90.1494 "/>
<path d="M238.4820 56.0027 L238.4820 61.3202 "/>
<path d="M238.4820 87.8035 L238.4820 82.4860 "/>
<path d="M243.7995 53.6567 L243.7995 61.3202 "/>
<path d="M243.7995 56.0027 L238.4820 56.0027 "/>
<path d="M243.7995 61.3202 L236.1360 61.3202 "/>
<path d="M243.7995 82.4860 L243.7995 90.1494 "/>
<path d="M243.7995 87.8035 L238.4820 87.8035 "/>
<path d="M264.9653 53.6567 L264.9653 61.3202 "/>
<path d="M264.9653 61.3202 L272.6287 61.3202 "/>
<path d="M264.9653 82.4860 L272.6287 82.4860 "/>
<path d="M264.9653 87.8035 L270.2828 87.8035 "/>
<path d="M264.9653 90.1494 L264.9653 82.4860 "/>
<path d="M270.2828 56.0027 L264.9653 56.0027 "/>
<path d="M270.2828 56.0027 L270.2828 61.3202 "/>
<path d="M270.2828 87.8035 L270.2828 82.4860 "/>
<path d="M272.6287 53.6567 L236.1360 53.6567 "/>
<path d="M272.6287 90.1494 L272.6287 53.6567 "/>
<circle cx="254.3824" cy="71.9031" r="11.2752"/> 
<path d="M55.8096 78.5203 L29.3263 78.5203 "/>
<path d="M55.8096 65.2787 L55.8096 78.5203 "/>
<path d="M29.3263 78.5203 L29.3263 65.2787 "/>
<path d="M29.3263 65.2787 L55.8096 65.2787 "/>
<path d="M72.1687 32.1781 L72.1687 5.6948 "/>
<path d="M85.4104 32.1781 L72.1687 32.1781 "/>
<path d="M72.1687 5.6948 L85.4104 5.6948 "/>
<path d="M85.4104 5.6948 L85.4104 32.1781 "/>
<path d="M55.8096 62.8910 L29.3263 62.8910 "/>
<path d="M55.8096 49.6493 L55.8096 62.8910 "/>
<path d="M29.3263 62.8910 L29.3263 49.6493 "/>
<path d="M29.3263 49.6493 L55.8096 49.6493 "/>
<path d="M61.3184 103.9401 L34.8351 103.9401 "/>
<path d="M61.3184 90.6985 L61.3184 103.9401 "/>
<path d="M34.8351 103.9401 L34.8351 90.6985 "/>
<path d="M34.8351 90.6985 L61.3184 90.6985 "/>
<path d="M85.4104 32.1781 L85.4104 5.6948 "/>
<path d="M98.6520 32.1781 L85.4104 32.1781 "/>
<path d="M85.4104 5.6948 L98.6520 5.6948 "/>
<path d="M98.6520 5.6948 L98.6520 32.1781 "/>
<path d="M236.1360 109.9337 L236.1360 146.4264 "/>
<path d="M236.1360 138.7630 L243.7995 138.7630 "/>
<path d="M236.1360 146.4264 L272.6287 146.4264 "/>
<path d="M238.4820 112.2797 L238.4820 117.5972 "/>
<path d="M238.4820 144.0805 L238.4820 138.7630 "/>
<path d="M243.7995 109.9337 L243.7995 117.5972 "/>
<path d="M243.7995 112.2797 L238.4820 112.2797 "/>
<path d="M243.7995 117.5972 L236.1360 117.5972 "/>
<path d="M243.7995 138.7630 L243.7995 146.4264 "/>
<path d="M243.7995 144.0805 L238.4820 144.0805 "/>
<path d="M264.9653 109.9337 L264.9653 117.5972 "/>
<path d="M264.9653 117.5972 L272.6287 117.5972 "/>
<path d="M264.9653 138.7630 L272.6287 138.7630 "/>
<path d="M264.9653 144.0805 L270.2828 144.0805 "/>
<path d="M264.9653 146.4264 L264.9653 138.7630 "/>
<path d="M270.2828 112.2797 L264.9653 112.2797 "/>
<path d="M270.2828 112.2797 L270.2828 117.5972 "/>
<path d="M270.2828 144.0805 L270.2828 138.7630 "/>
<path d="M272.6287 109.9337 L236.1360 109.9337 "/>
<path d="M272.6287 146.4264 L272.6287 109.9337 "/>
<circle cx="254.3824" cy="128.1801" r="11.2752"/> 
<path d="M111.8937 35.0835 L111.8937 8.6002 "/>
<path d="M125.1353 35.0835 L111.8937 35.0835 "/>
<path d="M111.8937 8.6002 L125.1353 8.6002 "/>
<path d="M125.1353 8.6002 L125.1353 35.0835 "/>
<g>
</g>
<g>
</g>
<g>
</g>
<g>
</g>
<g>
</g>
<g>
</g>
<g>
</g>
<g>
</g>
<g>
</g>
<g>
</g>
<g>
</g>
<g>
</g>
<g>
</g>
<g>
</g>
<g>
</g>
<g>
</g>
<g>
</g>
<g>
</g>
<g>
</g>
<g>
</g>
<g>
</g>
<g>
</g>
<g>
</g>
<g>
</g>
<g>
</g>
<g>
</g>
<g>
</g>
<g>
</g>
<g>
</g>
<g>
</g>
<g>
</g>
<g>
</g>
<g>
</g>
<g>
</g>
<g>
</g>
<g>
</g>
<g>
</g>
<g>
</g>
<g>
</g>
<g>
</g>
<g>
</g>
<g>
</g>
<g>
</g>
<g>
</g>
<g>
</g>
<g>
</g>
<g>
</g>
<g>
</g>
<g>
</g>
<g>
</g>
<g>
</g>
<g>
</g>
<g>
</g>
<g>
</g>
<g>
</g>
<g>
</g>
<g>
</g>
<g>
</g>
<g>
</g>
<g>
</g>
<g>
</g>
<g>
</g>
<g>
</g>
<g>
</g>
<g>
</g>
<g>
</g>
<g>
</g>
<g>
</g>
<g>
</g>
<g>
</g>
<g>
</g>
<g>
</g>
<g>
</g>
<g>
</g>
<g>
</g>
<g>
</g>
<g>
</g>
<g>
</g>
</g> 
<svg:g><svg:g><svg:title>SVG Image created as ISM03-Edge_Cuts.svg date 2024/07/13 22:37:45 </svg:title>
  <svg:desc>Image generated by PCBNEW </svg:desc>
<svg:g style="fill:#C2C200; fill-opacity:1.0000;stroke:#C2C200; stroke-opacity:1.0000; stroke-linecap:round; stroke-linejoin:round;" transform="translate(0 0) scale(1 1)">
</svg:g>
<svg:g style="fill:#C2C200; fill-opacity:0.0;  stroke:#C2C200; stroke-width:0.0000; stroke-opacity:1;  stroke-linecap:round; stroke-linejoin:round;">
</svg:g>
<svg:g style="fill:#C2C200; fill-opacity:0.0;  stroke:#C2C200; stroke-width:0.7820; stroke-opacity:1;  stroke-linecap:round; stroke-linejoin:round;">
<svg:path style="fill:#C2C200; fill-opacity:0.0;  stroke:#C2C200; stroke-width:0.7820; stroke-opacity:1;  stroke-linecap:round; stroke-linejoin:round;fill:none" d="M 17.4088,0.3946 279.5934,0.3946 279.5934,209.6126 17.4088,209.6126 Z"/> 
<svg:g>
</svg:g>
<svg:g>
</svg:g>
<svg:g>
</svg:g>
<svg:g>
</svg:g>
<svg:g>
</svg:g>
<svg:g>
</svg:g>
<svg:g>
</svg:g>
<svg:g>
</svg:g>
<svg:g>
</svg:g>
<svg:g>
</svg:g>
<svg:g>
</svg:g>
<svg:g>
</svg:g>
<svg:g>
</svg:g>
<svg:g>
</svg:g>
<svg:g>
</svg:g>
<svg:g>
</svg:g>
<svg:g>
</svg:g>
<svg:g>
</svg:g>
<svg:g>
</svg:g>
<svg:g>
</svg:g>
<svg:g>
</svg:g>
<svg:g>
</svg:g>
<svg:g>
</svg:g>
<svg:g>
</svg:g>
<svg:g>
</svg:g>
<svg:g>
</svg:g>
<svg:g>
</svg:g>
<svg:g>
</svg:g>
<svg:g>
</svg:g>
<svg:g>
</svg:g>
<svg:g>
</svg:g>
<svg:g>
</svg:g>
<svg:g>
</svg:g>
<svg:g>
</svg:g>
<svg:g>
</svg:g>
<svg:g>
</svg:g>
<svg:g>
</svg:g>
<svg:g>
</svg:g>
<svg:g>
</svg:g>
<svg:g>
</svg:g>
<svg:g>
</svg:g>
<svg:g>
</svg:g>
<svg:g>
</svg:g>
<svg:g>
</svg:g>
<svg:g>
</svg:g>
<svg:g>
</svg:g>
<svg:g>
</svg:g>
<svg:g>
</svg:g>
<svg:g>
</svg:g>
<svg:g>
</svg:g>
<svg:g>
</svg:g>
<svg:g>
</svg:g>
<svg:g>
</svg:g>
<svg:g>
</svg:g>
<svg:g>
</svg:g>
<svg:g>
</svg:g>
<svg:g>
</svg:g>
<svg:g>
</svg:g>
<svg:g>
</svg:g>
<svg:g>
</svg:g>
<svg:g>
</svg:g>
<svg:g>
</svg:g>
<svg:g>
</svg:g>
<svg:g>
</svg:g>
<svg:g>
</svg:g>
<svg:g>
</svg:g>
<svg:g>
</svg:g>
<svg:g>
</svg:g>
<svg:g>
</svg:g>
<svg:g>
</svg:g>
<svg:g>
</svg:g>
<svg:g>
</svg:g>
<svg:g>
</svg:g>
<svg:g>
</svg:g>
<svg:g>
</svg:g>
<svg:g>
</svg:g>
<svg:g>
</svg:g>
<svg:g>
</svg:g>
</svg:g> 
</svg:g></svg:g></svg>
