<?xml version='1.0' encoding='ASCII' standalone='yes'?>
<svg xmlns:svg="http://www.w3.org/2000/svg" xmlns="http://www.w3.org/2000/svg" xmlns:xlink="http://www.w3.org/1999/xlink" version="1.1" width="297.0022mm" height="210.0072mm" viewBox="0.0000 0.0000 297.0022 210.0072">
<title>SVG Image created as ISM03-F_Fab.svg date 2024/07/24 16:15:02 </title>
  <desc>Image generated by PCBNEW </desc>
<g style="fill:#848484; fill-opacity:1.0000;stroke:#848484; stroke-opacity:1.0000; stroke-linecap:round; stroke-linejoin:round;" transform="translate(0 0) scale(1 1)">
</g>
<g style="fill:none;  stroke:#848484; stroke-width:0.7820; stroke-opacity:1;  stroke-linecap:round; stroke-linejoin:round;">
<text x="254.4343" y="80.3706" textLength="12.3718" font-size="8.8278" lengthAdjust="spacingAndGlyphs" text-anchor="middle" opacity="0">J3</text>
<g class="stroked-text"><desc>J3</desc>
<path d="M252.2273 73.4616 L252.2273 78.1907 "/>
<path d="M252.2273 78.1907 L251.9121 79.1366 "/>
<path d="M251.9121 79.1366 L251.2815 79.7671 "/>
<path d="M251.2815 79.7671 L250.3357 80.0824 "/>
<path d="M250.3357 80.0824 L249.7051 80.0824 "/>
<path d="M254.7495 73.4616 L258.8482 73.4616 "/>
<path d="M258.8482 73.4616 L256.6412 75.9838 "/>
<path d="M256.6412 75.9838 L257.5870 75.9838 "/>
<path d="M257.5870 75.9838 L258.2176 76.2991 "/>
<path d="M258.2176 76.2991 L258.5329 76.6144 "/>
<path d="M258.5329 76.6144 L258.8482 77.2449 "/>
<path d="M258.8482 77.2449 L258.8482 78.8213 "/>
<path d="M258.8482 78.8213 L258.5329 79.4518 "/>
<path d="M258.5329 79.4518 L258.2176 79.7671 "/>
<path d="M258.2176 79.7671 L257.5870 80.0824 "/>
<path d="M257.5870 80.0824 L255.6954 80.0824 "/>
<path d="M255.6954 80.0824 L255.0648 79.7671 "/>
<path d="M255.0648 79.7671 L254.7495 79.4518 "/>
</g><text x="254.4343" y="136.2575" textLength="12.3718" font-size="8.8278" lengthAdjust="spacingAndGlyphs" text-anchor="middle" opacity="0">J2</text>
<g class="stroked-text"><desc>J2</desc>
<path d="M252.2273 129.3485 L252.2273 134.0776 "/>
<path d="M252.2273 134.0776 L251.9121 135.0235 "/>
<path d="M251.9121 135.0235 L251.2815 135.6540 "/>
<path d="M251.2815 135.6540 L250.3357 135.9693 "/>
<path d="M250.3357 135.9693 L249.7051 135.9693 "/>
<path d="M255.0648 129.9790 L255.3801 129.6638 "/>
<path d="M255.3801 129.6638 L256.0107 129.3485 "/>
<path d="M256.0107 129.3485 L257.5870 129.3485 "/>
<path d="M257.5870 129.3485 L258.2176 129.6638 "/>
<path d="M258.2176 129.6638 L258.5329 129.9790 "/>
<path d="M258.5329 129.9790 L258.8482 130.6096 "/>
<path d="M258.8482 130.6096 L258.8482 131.2401 "/>
<path d="M258.8482 131.2401 L258.5329 132.1860 "/>
<path d="M258.5329 132.1860 L254.7495 135.9693 "/>
<path d="M254.7495 135.9693 L258.8482 135.9693 "/>
</g><text x="205.0429" y="35.4433" transform="scale(-1 1) translate(-410.085865 0)" textLength="6.5166" font-size="6.9510" lengthAdjust="spacingAndGlyphs" text-anchor="middle" opacity="0">K</text>
<g class="stroked-text"><desc>K</desc>
<path d="M206.4083 35.2077 L206.4083 29.9945 "/>
<path d="M203.4293 35.2077 L205.6636 32.2287 "/>
<path d="M203.4293 29.9945 L206.4083 32.9735 "/>
</g><text x="204.9163" y="14.1200" transform="scale(-1 1) translate(-409.832501 0)" textLength="6.5166" font-size="6.9510" lengthAdjust="spacingAndGlyphs" text-anchor="middle" opacity="0">K</text>
<g class="stroked-text"><desc>K</desc>
<path d="M206.2816 13.8845 L206.2816 8.6712 "/>
<path d="M203.3026 13.8845 L205.5369 10.9055 "/>
<path d="M203.3026 8.6712 L206.2816 11.6502 "/>
</g><path d="M29.3263 144.7285 L55.8096 144.7285 "/>
<path d="M29.3263 157.9702 L29.3263 144.7285 "/>
<path d="M55.8096 144.7285 L55.8096 157.9702 "/>
<path d="M55.8096 157.9702 L29.3263 157.9702 "/>
<path d="M90.2379 152.6735 L116.7212 152.6735 "/>
<path d="M90.2379 192.3985 L90.2379 152.6735 "/>
<path d="M116.7212 152.6735 L116.7212 192.3985 "/>
<path d="M116.7212 192.3985 L90.2379 192.3985 "/>
<path d="M188.4909 155.8515 L214.9742 155.8515 "/>
<path d="M188.4909 195.5765 L188.4909 155.8515 "/>
<path d="M214.9742 155.8515 L214.9742 195.5765 "/>
<path d="M214.9742 195.5765 L188.4909 195.5765 "/>
<path d="M29.3263 91.7620 L55.8096 91.7620 "/>
<path d="M29.3263 105.0036 L29.3263 91.7620 "/>
<path d="M55.8096 91.7620 L55.8096 105.0036 "/>
<path d="M55.8096 105.0036 L29.3263 105.0036 "/>
<path d="M29.3263 65.2787 L55.8096 65.2787 "/>
<path d="M29.3263 78.5203 L29.3263 65.2787 "/>
<path d="M55.8096 65.2787 L55.8096 78.5203 "/>
<path d="M55.8096 78.5203 L29.3263 78.5203 "/>
<path d="M29.3263 105.0036 L55.8096 105.0036 "/>
<path d="M29.3263 118.2452 L29.3263 105.0036 "/>
<path d="M55.8096 105.0036 L55.8096 118.2452 "/>
<path d="M55.8096 118.2452 L29.3263 118.2452 "/>
<path d="M29.3263 131.4869 L55.8096 131.4869 "/>
<path d="M29.3263 144.7285 L29.3263 131.4869 "/>
<path d="M55.8096 131.4869 L55.8096 144.7285 "/>
<path d="M55.8096 144.7285 L29.3263 144.7285 "/>
<path d="M29.3263 118.2452 L55.8096 118.2452 "/>
<path d="M29.3263 131.4869 L29.3263 118.2452 "/>
<path d="M55.8096 118.2452 L55.8096 131.4869 "/>
<path d="M55.8096 131.4869 L29.3263 131.4869 "/>
</g>
<g style="fill:none;  stroke:#848484; stroke-width:0.5213; stroke-opacity:1;  stroke-linecap:round; stroke-linejoin:round;">
<circle cx="42.5679" cy="25.5537" r="15.6384"/> 
<circle cx="254.4343" cy="25.5537" r="15.6384"/> 
<circle cx="42.5679" cy="184.4535" r="15.6384"/> 
<circle cx="254.4343" cy="184.4535" r="15.6384"/> 
</g>
<g style="fill:none;  stroke:#848484; stroke-width:0.7820; stroke-opacity:1;  stroke-linecap:round; stroke-linejoin:round;">
<path d="M236.1879 58.8138 L236.1879 95.3065 "/>
<path d="M236.1879 87.6430 L243.8514 87.6430 "/>
<path d="M236.1879 95.3065 L272.6806 95.3065 "/>
<path d="M238.5339 61.1597 L238.5339 66.4773 "/>
<path d="M238.5339 92.9605 L238.5339 87.6430 "/>
<path d="M243.8514 58.8138 L243.8514 66.4773 "/>
<path d="M243.8514 61.1597 L238.5339 61.1597 "/>
<path d="M243.8514 66.4773 L236.1879 66.4773 "/>
<path d="M243.8514 87.6430 L243.8514 95.3065 "/>
<path d="M243.8514 92.9605 L238.5339 92.9605 "/>
<path d="M265.0172 58.8138 L265.0172 66.4773 "/>
<path d="M265.0172 66.4773 L272.6806 66.4773 "/>
<path d="M265.0172 87.6430 L272.6806 87.6430 "/>
<path d="M265.0172 92.9605 L270.3347 92.9605 "/>
<path d="M265.0172 95.3065 L265.0172 87.6430 "/>
<path d="M270.3347 61.1597 L265.0172 61.1597 "/>
<path d="M270.3347 61.1597 L270.3347 66.4773 "/>
<path d="M270.3347 92.9605 L270.3347 87.6430 "/>
<path d="M272.6806 58.8138 L236.1879 58.8138 "/>
<path d="M272.6806 95.3065 L272.6806 58.8138 "/>
<circle cx="254.4343" cy="77.0601" r="11.2752"/> 
<path d="M82.2929 11.6500 L95.5345 11.6500 "/>
<path d="M82.2929 38.1333 L82.2929 11.6500 "/>
<path d="M95.5345 11.6500 L95.5345 38.1333 "/>
<path d="M95.5345 38.1333 L82.2929 38.1333 "/>
<path d="M29.3263 52.0370 L55.8096 52.0370 "/>
<path d="M29.3263 65.2787 L29.3263 52.0370 "/>
<path d="M55.8096 52.0370 L55.8096 65.2787 "/>
<path d="M55.8096 65.2787 L29.3263 65.2787 "/>
<path d="M29.3263 78.5203 L55.8096 78.5203 "/>
<path d="M29.3263 91.7620 L29.3263 78.5203 "/>
<path d="M55.8096 78.5203 L55.8096 91.7620 "/>
<path d="M55.8096 91.7620 L29.3263 91.7620 "/>
<path d="M95.5345 11.6500 L108.7762 11.6500 "/>
<path d="M95.5345 38.1333 L95.5345 11.6500 "/>
<path d="M108.7762 11.6500 L108.7762 38.1333 "/>
<path d="M108.7762 38.1333 L95.5345 38.1333 "/>
<path d="M236.1879 114.7007 L236.1879 151.1934 "/>
<path d="M236.1879 143.5299 L243.8514 143.5299 "/>
<path d="M236.1879 151.1934 L272.6806 151.1934 "/>
<path d="M238.5339 117.0467 L238.5339 122.3642 "/>
<path d="M238.5339 148.8475 L238.5339 143.5299 "/>
<path d="M243.8514 114.7007 L243.8514 122.3642 "/>
<path d="M243.8514 117.0467 L238.5339 117.0467 "/>
<path d="M243.8514 122.3642 L236.1879 122.3642 "/>
<path d="M243.8514 143.5299 L243.8514 151.1934 "/>
<path d="M243.8514 148.8475 L238.5339 148.8475 "/>
<path d="M265.0172 114.7007 L265.0172 122.3642 "/>
<path d="M265.0172 122.3642 L272.6806 122.3642 "/>
<path d="M265.0172 143.5299 L272.6806 143.5299 "/>
<path d="M265.0172 148.8475 L270.3347 148.8475 "/>
<path d="M265.0172 151.1934 L265.0172 143.5299 "/>
<path d="M270.3347 117.0467 L265.0172 117.0467 "/>
<path d="M270.3347 117.0467 L270.3347 122.3642 "/>
<path d="M270.3347 148.8475 L270.3347 143.5299 "/>
<path d="M272.6806 114.7007 L236.1879 114.7007 "/>
<path d="M272.6806 151.1934 L272.6806 114.7007 "/>
<circle cx="254.4343" cy="132.9471" r="11.2752"/> 
<path d="M69.0512 11.6500 L82.2929 11.6500 "/>
<path d="M69.0512 38.1333 L69.0512 11.6500 "/>
<path d="M82.2929 11.6500 L82.2929 38.1333 "/>
<path d="M82.2929 38.1333 L69.0512 38.1333 "/>
<path d="M108.7762 11.6500 L122.0178 11.6500 "/>
<path d="M108.7762 38.1333 L108.7762 11.6500 "/>
<path d="M122.0178 11.6500 L122.0178 38.1333 "/>
<path d="M122.0178 38.1333 L108.7762 38.1333 "/>
<path d="M122.0178 11.6464 L135.2595 11.6464 "/>
<path d="M122.0178 38.1297 L122.0178 11.6464 "/>
<path d="M135.2595 11.6464 L135.2595 38.1297 "/>
<path d="M135.2595 38.1297 L122.0178 38.1297 "/>
</g> 
<svg:g><svg:g><svg:title>SVG Image created as ISM03-Edge_Cuts.svg date 2024/07/24 16:15:02 </svg:title>
  <svg:desc>Image generated by PCBNEW </svg:desc>
<svg:g style="fill:#C2C200; fill-opacity:1.0000;stroke:#C2C200; stroke-opacity:1.0000; stroke-linecap:round; stroke-linejoin:round;" transform="translate(0 0) scale(1 1)">
<svg:path style="fill:none;  stroke:#C2C200; stroke-width:0.7820; stroke-opacity:1;  stroke-linecap:round; stroke-linejoin:round;fill:none" d="M 17.4088,0.3946 279.5934,0.3946 279.5934,209.6126 17.4088,209.6126 Z"/> 
</svg:g> 
</svg:g></svg:g></svg>
