<?xml version='1.0' encoding='ASCII' standalone='yes'?>
<svg xmlns:svg="http://www.w3.org/2000/svg" xmlns="http://www.w3.org/2000/svg" xmlns:xlink="http://www.w3.org/1999/xlink" version="1.1" width="297.0022mm" height="210.0072mm" viewBox="0.0000 0.0000 297.0022 210.0072">
<title>SVG Image created as ISM03-F_Fab.svg date 2024/07/12 23:59:18 </title>
  <desc>Image generated by PCBNEW </desc>
<g style="fill:#848484; fill-opacity:1.0000;stroke:#848484; stroke-opacity:1.0000; stroke-linecap:round; stroke-linejoin:round;" transform="translate(0 0) scale(1 1)">
</g>
<g style="fill:#848484; fill-opacity:0.0;  stroke:#848484; stroke-width:0.0000; stroke-opacity:1;  stroke-linecap:round; stroke-linejoin:round;">
</g>
<g style="fill:#848484; fill-opacity:0.0;  stroke:#848484; stroke-width:0.7351; stroke-opacity:1;  stroke-linecap:round; stroke-linejoin:round;">
<text x="272.9821" y="76.9954" textLength="11.6304" font-size="8.2987" lengthAdjust="spacingAndGlyphs" text-anchor="middle" opacity="0">J3</text>
<g class="stroked-text"><desc>J3</desc>
<path d="M270.9075 70.5004 L270.9075 74.9462 "/>
<path d="M270.9075 74.9462 L270.6111 75.8353 "/>
<path d="M270.6111 75.8353 L270.0183 76.4281 "/>
<path d="M270.0183 76.4281 L269.1292 76.7245 "/>
<path d="M269.1292 76.7245 L268.5364 76.7245 "/>
<path d="M273.2785 70.5004 L277.1315 70.5004 "/>
<path d="M277.1315 70.5004 L275.0568 72.8715 "/>
<path d="M275.0568 72.8715 L275.9460 72.8715 "/>
<path d="M275.9460 72.8715 L276.5387 73.1679 "/>
<path d="M276.5387 73.1679 L276.8351 73.4643 "/>
<path d="M276.8351 73.4643 L277.1315 74.0570 "/>
<path d="M277.1315 74.0570 L277.1315 75.5389 "/>
<path d="M277.1315 75.5389 L276.8351 76.1317 "/>
<path d="M276.8351 76.1317 L276.5387 76.4281 "/>
<path d="M276.5387 76.4281 L275.9460 76.7245 "/>
<path d="M275.9460 76.7245 L274.1677 76.7245 "/>
<path d="M274.1677 76.7245 L273.5749 76.4281 "/>
<path d="M273.5749 76.4281 L273.2785 76.1317 "/>
</g><text x="272.9821" y="129.8998" textLength="11.6304" font-size="8.2987" lengthAdjust="spacingAndGlyphs" text-anchor="middle" opacity="0">J2</text>
<g class="stroked-text"><desc>J2</desc>
<path d="M270.9075 123.4049 L270.9075 127.8506 "/>
<path d="M270.9075 127.8506 L270.6111 128.7398 "/>
<path d="M270.6111 128.7398 L270.0183 129.3325 "/>
<path d="M270.0183 129.3325 L269.1292 129.6289 "/>
<path d="M269.1292 129.6289 L268.5364 129.6289 "/>
<path d="M273.5749 123.9976 L273.8713 123.7012 "/>
<path d="M273.8713 123.7012 L274.4641 123.4049 "/>
<path d="M274.4641 123.4049 L275.9460 123.4049 "/>
<path d="M275.9460 123.4049 L276.5387 123.7012 "/>
<path d="M276.5387 123.7012 L276.8351 123.9976 "/>
<path d="M276.8351 123.9976 L277.1315 124.5904 "/>
<path d="M277.1315 124.5904 L277.1315 125.1832 "/>
<path d="M277.1315 125.1832 L276.8351 126.0723 "/>
<path d="M276.8351 126.0723 L273.2785 129.6289 "/>
<path d="M273.2785 129.6289 L277.1315 129.6289 "/>
</g><text x="186.2319" y="239.1506" textLength="38.5649" font-size="6.5344" lengthAdjust="spacingAndGlyphs" text-anchor="middle" opacity="0">74279204</text>
<g class="stroked-text"><desc>74279204</desc>
<path d="M168.2621 234.0283 L171.5294 234.0283 "/>
<path d="M171.5294 234.0283 L169.4290 238.9292 "/>
<path d="M175.4967 235.6620 L175.4967 238.9292 "/>
<path d="M174.3298 233.7950 L173.1630 237.2956 "/>
<path d="M173.1630 237.2956 L176.1968 237.2956 "/>
<path d="M177.8304 234.4951 L178.0638 234.2617 "/>
<path d="M178.0638 234.2617 L178.5306 234.0283 "/>
<path d="M178.5306 234.0283 L179.6974 234.0283 "/>
<path d="M179.6974 234.0283 L180.1642 234.2617 "/>
<path d="M180.1642 234.2617 L180.3975 234.4951 "/>
<path d="M180.3975 234.4951 L180.6309 234.9618 "/>
<path d="M180.6309 234.9618 L180.6309 235.4286 "/>
<path d="M180.6309 235.4286 L180.3975 236.1287 "/>
<path d="M180.3975 236.1287 L177.5971 238.9292 "/>
<path d="M177.5971 238.9292 L180.6309 238.9292 "/>
<path d="M182.2645 234.0283 L185.5317 234.0283 "/>
<path d="M185.5317 234.0283 L183.4314 238.9292 "/>
<path d="M187.6321 238.9292 L188.5656 238.9292 "/>
<path d="M188.5656 238.9292 L189.0323 238.6958 "/>
<path d="M189.0323 238.6958 L189.2657 238.4624 "/>
<path d="M189.2657 238.4624 L189.7324 237.7623 "/>
<path d="M189.7324 237.7623 L189.9658 236.8288 "/>
<path d="M189.9658 236.8288 L189.9658 234.9618 "/>
<path d="M189.9658 234.9618 L189.7324 234.4951 "/>
<path d="M189.7324 234.4951 L189.4991 234.2617 "/>
<path d="M189.4991 234.2617 L189.0323 234.0283 "/>
<path d="M189.0323 234.0283 L188.0988 234.0283 "/>
<path d="M188.0988 234.0283 L187.6321 234.2617 "/>
<path d="M187.6321 234.2617 L187.3987 234.4951 "/>
<path d="M187.3987 234.4951 L187.1653 234.9618 "/>
<path d="M187.1653 234.9618 L187.1653 236.1287 "/>
<path d="M187.1653 236.1287 L187.3987 236.5954 "/>
<path d="M187.3987 236.5954 L187.6321 236.8288 "/>
<path d="M187.6321 236.8288 L188.0988 237.0622 "/>
<path d="M188.0988 237.0622 L189.0323 237.0622 "/>
<path d="M189.0323 237.0622 L189.4991 236.8288 "/>
<path d="M189.4991 236.8288 L189.7324 236.5954 "/>
<path d="M189.7324 236.5954 L189.9658 236.1287 "/>
<path d="M191.8328 234.4951 L192.0662 234.2617 "/>
<path d="M192.0662 234.2617 L192.5329 234.0283 "/>
<path d="M192.5329 234.0283 L193.6998 234.0283 "/>
<path d="M193.6998 234.0283 L194.1665 234.2617 "/>
<path d="M194.1665 234.2617 L194.3999 234.4951 "/>
<path d="M194.3999 234.4951 L194.6333 234.9618 "/>
<path d="M194.6333 234.9618 L194.6333 235.4286 "/>
<path d="M194.6333 235.4286 L194.3999 236.1287 "/>
<path d="M194.3999 236.1287 L191.5994 238.9292 "/>
<path d="M191.5994 238.9292 L194.6333 238.9292 "/>
<path d="M197.6671 234.0283 L198.1339 234.0283 "/>
<path d="M198.1339 234.0283 L198.6006 234.2617 "/>
<path d="M198.6006 234.2617 L198.8340 234.4951 "/>
<path d="M198.8340 234.4951 L199.0674 234.9618 "/>
<path d="M199.0674 234.9618 L199.3007 235.8953 "/>
<path d="M199.3007 235.8953 L199.3007 237.0622 "/>
<path d="M199.3007 237.0622 L199.0674 237.9957 "/>
<path d="M199.0674 237.9957 L198.8340 238.4624 "/>
<path d="M198.8340 238.4624 L198.6006 238.6958 "/>
<path d="M198.6006 238.6958 L198.1339 238.9292 "/>
<path d="M198.1339 238.9292 L197.6671 238.9292 "/>
<path d="M197.6671 238.9292 L197.2004 238.6958 "/>
<path d="M197.2004 238.6958 L196.9670 238.4624 "/>
<path d="M196.9670 238.4624 L196.7336 237.9957 "/>
<path d="M196.7336 237.9957 L196.5003 237.0622 "/>
<path d="M196.5003 237.0622 L196.5003 235.8953 "/>
<path d="M196.5003 235.8953 L196.7336 234.9618 "/>
<path d="M196.7336 234.9618 L196.9670 234.4951 "/>
<path d="M196.9670 234.4951 L197.2004 234.2617 "/>
<path d="M197.2004 234.2617 L197.6671 234.0283 "/>
<path d="M203.5014 235.6620 L203.5014 238.9292 "/>
<path d="M202.3346 233.7950 L201.1677 237.2956 "/>
<path d="M201.1677 237.2956 L204.2016 237.2956 "/>
</g></g>
<g style="fill:#848484; fill-opacity:0.0;  stroke:#848484; stroke-width:0.3921; stroke-opacity:1;  stroke-linecap:round; stroke-linejoin:round;">
<text x="186.2319" y="230.3291" textLength="7.3372" font-size="3.2672" lengthAdjust="spacingAndGlyphs" text-anchor="middle" opacity="0">L11</text>
<g class="stroked-text"><desc>L11</desc>
<path d="M184.6566 230.2171 L183.4897 230.2171 "/>
<path d="M183.4897 230.2171 L183.4897 227.7667 "/>
<path d="M186.7569 230.2171 L185.3567 230.2171 "/>
<path d="M186.0568 230.2171 L186.0568 227.7667 "/>
<path d="M186.0568 227.7667 L185.8235 228.1168 "/>
<path d="M185.8235 228.1168 L185.5901 228.3501 "/>
<path d="M185.5901 228.3501 L185.3567 228.4668 "/>
<path d="M189.0907 230.2171 L187.6904 230.2171 "/>
<path d="M188.3906 230.2171 L188.3906 227.7667 "/>
<path d="M188.3906 227.7667 L188.1572 228.1168 "/>
<path d="M188.1572 228.1168 L187.9238 228.3501 "/>
<path d="M187.9238 228.3501 L187.6904 228.4668 "/>
</g></g>
<g style="fill:#848484; fill-opacity:0.0;  stroke:#848484; stroke-width:0.7351; stroke-opacity:1;  stroke-linecap:round; stroke-linejoin:round;">
<g transform="rotate(-90.000000 219.2063 173.4682)">
<text x="219.2063" y="175.9186" textLength="6.1260" font-size="6.5344" lengthAdjust="spacingAndGlyphs" text-anchor="middle" opacity="0">K</text>
</g>
<g class="stroked-text"><desc>K</desc>
<path d="M221.4353 174.7517 L216.5345 174.7517 "/>
<path d="M221.4353 171.9512 L218.6348 174.0516 "/>
<path d="M216.5345 171.9512 L219.3350 174.7517 "/>
</g><g transform="rotate(-90.000000 236.6337 173.4682)">
<text x="236.6337" y="175.9186" textLength="6.1260" font-size="6.5344" lengthAdjust="spacingAndGlyphs" text-anchor="middle" opacity="0">K</text>
</g>
<g class="stroked-text"><desc>K</desc>
<path d="M238.8627 174.7517 L233.9618 174.7517 "/>
<path d="M238.8627 171.9512 L236.0622 174.0516 "/>
<path d="M233.9618 171.9512 L236.7623 174.7517 "/>
</g><path d="M164.0612 179.6922 L164.0612 154.7960 "/>
<path d="M176.5093 179.6922 L164.0612 179.6922 "/>
<path d="M164.0612 154.7960 L176.5093 154.7960 "/>
<path d="M176.5093 154.7960 L176.5093 179.6922 "/>
<path d="M5.3479 55.2112 L30.2441 55.2112 "/>
<path d="M5.3479 92.5555 L5.3479 55.2112 "/>
<path d="M30.2441 55.2112 L30.2441 92.5555 "/>
<path d="M30.2441 92.5555 L5.3479 92.5555 "/>
<path d="M5.3479 119.3189 L30.2441 119.3189 "/>
<path d="M5.3479 156.6632 L5.3479 119.3189 "/>
<path d="M30.2441 119.3189 L30.2441 156.6632 "/>
<path d="M30.2441 156.6632 L5.3479 156.6632 "/>
<path d="M76.9245 154.7960 L76.9245 179.6922 "/>
<path d="M64.4764 154.7960 L76.9245 154.7960 "/>
<path d="M76.9245 179.6922 L64.4764 179.6922 "/>
<path d="M64.4764 179.6922 L64.4764 154.7960 "/>
<path d="M64.4764 154.7960 L64.4764 179.6922 "/>
<path d="M52.0283 154.7960 L64.4764 154.7960 "/>
<path d="M64.4764 179.6922 L52.0283 179.6922 "/>
<path d="M52.0283 179.6922 L52.0283 154.7960 "/>
<path d="M126.7169 179.6922 L126.7169 154.7960 "/>
<path d="M139.1650 179.6922 L126.7169 179.6922 "/>
<path d="M126.7169 154.7960 L139.1650 154.7960 "/>
<path d="M139.1650 154.7960 L139.1650 179.6922 "/>
<path d="M151.6131 179.6922 L151.6131 154.7960 "/>
<path d="M164.0612 179.6922 L151.6131 179.6922 "/>
<path d="M151.6131 154.7960 L164.0612 154.7960 "/>
<path d="M164.0612 154.7960 L164.0612 179.6922 "/>
<path d="M139.1650 179.6922 L139.1650 154.7960 "/>
<path d="M151.6131 179.6922 L139.1650 179.6922 "/>
<path d="M139.1650 154.7960 L151.6131 154.7960 "/>
<path d="M151.6131 154.7960 L151.6131 179.6922 "/>
<path d="M255.8292 56.7304 L255.8292 91.0362 "/>
<path d="M255.8292 91.0362 L290.1350 91.0362 "/>
<path d="M290.1350 56.7304 L255.8292 56.7304 "/>
<path d="M290.1350 91.0362 L290.1350 56.7304 "/>
<circle cx="272.9821" cy="73.8833" r="10.5995"/> 
<path d="M101.8207 179.6922 L101.8207 154.7960 "/>
<path d="M114.2688 179.6922 L101.8207 179.6922 "/>
<path d="M101.8207 154.7960 L114.2688 154.7960 "/>
<path d="M114.2688 154.7960 L114.2688 179.6922 "/>
<path d="M136.0530 36.5390 L136.0530 11.6428 "/>
<path d="M148.5011 36.5390 L136.0530 36.5390 "/>
<path d="M136.0530 11.6428 L148.5011 11.6428 "/>
<path d="M148.5011 11.6428 L148.5011 36.5390 "/>
<path d="M61.3644 36.5390 L61.3644 11.6428 "/>
<path d="M73.8125 36.5390 L61.3644 36.5390 "/>
<path d="M61.3644 11.6428 L73.8125 11.6428 "/>
<path d="M73.8125 11.6428 L73.8125 36.5390 "/>
<path d="M48.9163 36.5390 L48.9163 11.6428 "/>
<path d="M61.3644 36.5390 L48.9163 36.5390 "/>
<path d="M48.9163 11.6428 L61.3644 11.6428 "/>
<path d="M61.3644 11.6428 L61.3644 36.5390 "/>
<path d="M148.5011 36.5390 L148.5011 11.6428 "/>
<path d="M160.9492 36.5390 L148.5011 36.5390 "/>
<path d="M148.5011 11.6428 L160.9492 11.6428 "/>
<path d="M160.9492 11.6428 L160.9492 36.5390 "/>
<path d="M255.8292 109.6349 L255.8292 143.9407 "/>
<path d="M255.8292 143.9407 L290.1350 143.9407 "/>
<path d="M290.1350 109.6349 L255.8292 109.6349 "/>
<path d="M290.1350 143.9407 L290.1350 109.6349 "/>
<circle cx="272.9821" cy="126.7878" r="10.5995"/> 
</g>
<g style="fill:#848484; fill-opacity:0.0;  stroke:#848484; stroke-width:0.4901; stroke-opacity:1;  stroke-linecap:round; stroke-linejoin:round;">
<path d="M181.3310 226.8985 L191.1327 226.8985 "/>
<path d="M181.3310 231.3093 L181.3310 226.8985 "/>
<path d="M191.1327 226.8985 L191.1327 231.3093 "/>
<path d="M191.1327 231.3093 L181.3310 231.3093 "/>
<g>
</g>
<g>
</g>
<g>
</g>
<g>
</g>
<g>
</g>
<g>
</g>
<g>
</g>
<g>
</g>
<g>
</g>
<g>
</g>
<g>
</g>
<g>
</g>
<g>
</g>
<g>
</g>
<g>
</g>
<g>
</g>
<g>
</g>
<g>
</g>
<g>
</g>
<g>
</g>
<g>
</g>
<g>
</g>
<g>
</g>
<g>
</g>
<g>
</g>
<g>
</g>
<g>
</g>
<g>
</g>
<g>
</g>
<g>
</g>
<g>
</g>
<g>
</g>
<g>
</g>
<g>
</g>
<g>
</g>
<g>
</g>
<g>
</g>
<g>
</g>
<g>
</g>
<g>
</g>
<g>
</g>
<g>
</g>
<g>
</g>
<g>
</g>
<g>
</g>
<g>
</g>
<g>
</g>
<g>
</g>
<g>
</g>
<g>
</g>
<g>
</g>
<g>
</g>
<g>
</g>
<g>
</g>
<g>
</g>
<g>
</g>
<g>
</g>
<g>
</g>
<g>
</g>
<g>
</g>
<g>
</g>
<g>
</g>
<g>
</g>
<g>
</g>
<g>
</g>
<g>
</g>
<g>
</g>
<g>
</g>
<g>
</g>
<g>
</g>
<g>
</g>
<g>
</g>
<g>
</g>
</g> 
<svg:g><svg:g><svg:title>SVG Image created as ISM03-Edge_Cuts.svg date 2024/07/12 23:59:18 </svg:title>
  <svg:desc>Image generated by PCBNEW </svg:desc>
<svg:g style="fill:#C2C200; fill-opacity:1.0000;stroke:#C2C200; stroke-opacity:1.0000; stroke-linecap:round; stroke-linejoin:round;" transform="translate(0 0) scale(1 1)">
</svg:g>
<svg:g style="fill:#C2C200; fill-opacity:0.0;  stroke:#C2C200; stroke-width:0.0000; stroke-opacity:1;  stroke-linecap:round; stroke-linejoin:round;">
</svg:g>
<svg:g style="fill:#C2C200; fill-opacity:0.0;  stroke:#C2C200; stroke-width:0.7351; stroke-opacity:1;  stroke-linecap:round; stroke-linejoin:round;">
<svg:path d="M296.6335 203.3436 L296.6335 6.6636 "/>
<svg:path d="M0.3687 6.6636 L296.6335 6.6636 "/>
<svg:path d="M0.3687 203.3436 L0.3687 6.6636 "/>
<svg:path d="M0.3687 203.3436 L296.6335 203.3436 "/>
<svg:g>
</svg:g>
<svg:g>
</svg:g>
<svg:g>
</svg:g>
<svg:g>
</svg:g>
<svg:g>
</svg:g>
<svg:g>
</svg:g>
<svg:g>
</svg:g>
<svg:g>
</svg:g>
<svg:g>
</svg:g>
<svg:g>
</svg:g>
<svg:g>
</svg:g>
<svg:g>
</svg:g>
<svg:g>
</svg:g>
<svg:g>
</svg:g>
<svg:g>
</svg:g>
<svg:g>
</svg:g>
<svg:g>
</svg:g>
<svg:g>
</svg:g>
<svg:g>
</svg:g>
<svg:g>
</svg:g>
<svg:g>
</svg:g>
<svg:g>
</svg:g>
<svg:g>
</svg:g>
<svg:g>
</svg:g>
<svg:g>
</svg:g>
<svg:g>
</svg:g>
<svg:g>
</svg:g>
<svg:g>
</svg:g>
<svg:g>
</svg:g>
<svg:g>
</svg:g>
<svg:g>
</svg:g>
<svg:g>
</svg:g>
<svg:g>
</svg:g>
<svg:g>
</svg:g>
<svg:g>
</svg:g>
<svg:g>
</svg:g>
<svg:g>
</svg:g>
<svg:g>
</svg:g>
<svg:g>
</svg:g>
<svg:g>
</svg:g>
<svg:g>
</svg:g>
<svg:g>
</svg:g>
<svg:g>
</svg:g>
<svg:g>
</svg:g>
<svg:g>
</svg:g>
<svg:g>
</svg:g>
<svg:g>
</svg:g>
<svg:g>
</svg:g>
<svg:g>
</svg:g>
<svg:g>
</svg:g>
<svg:g>
</svg:g>
<svg:g>
</svg:g>
<svg:g>
</svg:g>
<svg:g>
</svg:g>
<svg:g>
</svg:g>
<svg:g>
</svg:g>
<svg:g>
</svg:g>
<svg:g>
</svg:g>
<svg:g>
</svg:g>
<svg:g>
</svg:g>
<svg:g>
</svg:g>
<svg:g>
</svg:g>
<svg:g>
</svg:g>
<svg:g>
</svg:g>
<svg:g>
</svg:g>
<svg:g>
</svg:g>
<svg:g>
</svg:g>
<svg:g>
</svg:g>
<svg:g>
</svg:g>
<svg:g>
</svg:g>
<svg:g>
</svg:g>
<svg:g>
</svg:g>
<svg:g>
</svg:g>
</svg:g> 
</svg:g></svg:g></svg>
