%TF.GenerationSoftware,KiCad,Pcbnew,8.0.3+1*%
%TF.CreationDate,2024-07-15T12:56:35+00:00*%
%TF.ProjectId,ISM03,49534d30-332e-46b6-9963-61645f706362,rev?*%
%TF.SameCoordinates,Original*%
%TF.FileFunction,Legend,Top*%
%TF.FilePolarity,Positive*%
%FSLAX46Y46*%
G04 Gerber Fmt 4.6, Leading zero omitted, Abs format (unit mm)*
G04 Created by KiCad (PCBNEW 8.0.3+1) date 2024-07-15 12:56:35*
%MOMM*%
%LPD*%
G01*
G04 APERTURE LIST*
%ADD10C,0.300000*%
%ADD11C,0.150000*%
G04 APERTURE END LIST*
D10*
X17085851Y35086229D02*
X15785851Y35086229D01*
X15785851Y35086229D02*
X15785851Y35581467D01*
X15785851Y35581467D02*
X15847756Y35705277D01*
X15847756Y35705277D02*
X15909661Y35767182D01*
X15909661Y35767182D02*
X16033470Y35829086D01*
X16033470Y35829086D02*
X16219185Y35829086D01*
X16219185Y35829086D02*
X16342994Y35767182D01*
X16342994Y35767182D02*
X16404899Y35705277D01*
X16404899Y35705277D02*
X16466804Y35581467D01*
X16466804Y35581467D02*
X16466804Y35086229D01*
X17085851Y37067182D02*
X17085851Y36324325D01*
X17085851Y36695753D02*
X15785851Y36695753D01*
X15785851Y36695753D02*
X15971566Y36571944D01*
X15971566Y36571944D02*
X16095375Y36448134D01*
X16095375Y36448134D02*
X16157280Y36324325D01*
X16962042Y37624324D02*
X17023947Y37686229D01*
X17023947Y37686229D02*
X17085851Y37624324D01*
X17085851Y37624324D02*
X17023947Y37562420D01*
X17023947Y37562420D02*
X16962042Y37624324D01*
X16962042Y37624324D02*
X17085851Y37624324D01*
X15785851Y38800515D02*
X15785851Y38552896D01*
X15785851Y38552896D02*
X15847756Y38429087D01*
X15847756Y38429087D02*
X15909661Y38367182D01*
X15909661Y38367182D02*
X16095375Y38243372D01*
X16095375Y38243372D02*
X16342994Y38181468D01*
X16342994Y38181468D02*
X16838232Y38181468D01*
X16838232Y38181468D02*
X16962042Y38243372D01*
X16962042Y38243372D02*
X17023947Y38305277D01*
X17023947Y38305277D02*
X17085851Y38429087D01*
X17085851Y38429087D02*
X17085851Y38676706D01*
X17085851Y38676706D02*
X17023947Y38800515D01*
X17023947Y38800515D02*
X16962042Y38862420D01*
X16962042Y38862420D02*
X16838232Y38924325D01*
X16838232Y38924325D02*
X16528708Y38924325D01*
X16528708Y38924325D02*
X16404899Y38862420D01*
X16404899Y38862420D02*
X16342994Y38800515D01*
X16342994Y38800515D02*
X16281089Y38676706D01*
X16281089Y38676706D02*
X16281089Y38429087D01*
X16281089Y38429087D02*
X16342994Y38305277D01*
X16342994Y38305277D02*
X16404899Y38243372D01*
X16404899Y38243372D02*
X16528708Y38181468D01*
X19625851Y35086229D02*
X18325851Y35086229D01*
X18325851Y35086229D02*
X18325851Y35581467D01*
X18325851Y35581467D02*
X18387756Y35705277D01*
X18387756Y35705277D02*
X18449661Y35767182D01*
X18449661Y35767182D02*
X18573470Y35829086D01*
X18573470Y35829086D02*
X18759185Y35829086D01*
X18759185Y35829086D02*
X18882994Y35767182D01*
X18882994Y35767182D02*
X18944899Y35705277D01*
X18944899Y35705277D02*
X19006804Y35581467D01*
X19006804Y35581467D02*
X19006804Y35086229D01*
X19625851Y37067182D02*
X19625851Y36324325D01*
X19625851Y36695753D02*
X18325851Y36695753D01*
X18325851Y36695753D02*
X18511566Y36571944D01*
X18511566Y36571944D02*
X18635375Y36448134D01*
X18635375Y36448134D02*
X18697280Y36324325D01*
X19502042Y37624324D02*
X19563947Y37686229D01*
X19563947Y37686229D02*
X19625851Y37624324D01*
X19625851Y37624324D02*
X19563947Y37562420D01*
X19563947Y37562420D02*
X19502042Y37624324D01*
X19502042Y37624324D02*
X19625851Y37624324D01*
X18325851Y38862420D02*
X18325851Y38243372D01*
X18325851Y38243372D02*
X18944899Y38181468D01*
X18944899Y38181468D02*
X18882994Y38243372D01*
X18882994Y38243372D02*
X18821089Y38367182D01*
X18821089Y38367182D02*
X18821089Y38676706D01*
X18821089Y38676706D02*
X18882994Y38800515D01*
X18882994Y38800515D02*
X18944899Y38862420D01*
X18944899Y38862420D02*
X19068708Y38924325D01*
X19068708Y38924325D02*
X19378232Y38924325D01*
X19378232Y38924325D02*
X19502042Y38862420D01*
X19502042Y38862420D02*
X19563947Y38800515D01*
X19563947Y38800515D02*
X19625851Y38676706D01*
X19625851Y38676706D02*
X19625851Y38367182D01*
X19625851Y38367182D02*
X19563947Y38243372D01*
X19563947Y38243372D02*
X19502042Y38181468D01*
X22165851Y35086229D02*
X20865851Y35086229D01*
X20865851Y35086229D02*
X20865851Y35581467D01*
X20865851Y35581467D02*
X20927756Y35705277D01*
X20927756Y35705277D02*
X20989661Y35767182D01*
X20989661Y35767182D02*
X21113470Y35829086D01*
X21113470Y35829086D02*
X21299185Y35829086D01*
X21299185Y35829086D02*
X21422994Y35767182D01*
X21422994Y35767182D02*
X21484899Y35705277D01*
X21484899Y35705277D02*
X21546804Y35581467D01*
X21546804Y35581467D02*
X21546804Y35086229D01*
X22165851Y37067182D02*
X22165851Y36324325D01*
X22165851Y36695753D02*
X20865851Y36695753D01*
X20865851Y36695753D02*
X21051566Y36571944D01*
X21051566Y36571944D02*
X21175375Y36448134D01*
X21175375Y36448134D02*
X21237280Y36324325D01*
X22042042Y37624324D02*
X22103947Y37686229D01*
X22103947Y37686229D02*
X22165851Y37624324D01*
X22165851Y37624324D02*
X22103947Y37562420D01*
X22103947Y37562420D02*
X22042042Y37624324D01*
X22042042Y37624324D02*
X22165851Y37624324D01*
X21299185Y38800515D02*
X22165851Y38800515D01*
X20803947Y38490991D02*
X21732518Y38181468D01*
X21732518Y38181468D02*
X21732518Y38986229D01*
X23467756Y36324325D02*
X23405851Y36200515D01*
X23405851Y36200515D02*
X23405851Y36014801D01*
X23405851Y36014801D02*
X23467756Y35829087D01*
X23467756Y35829087D02*
X23591566Y35705277D01*
X23591566Y35705277D02*
X23715375Y35643372D01*
X23715375Y35643372D02*
X23962994Y35581468D01*
X23962994Y35581468D02*
X24148708Y35581468D01*
X24148708Y35581468D02*
X24396327Y35643372D01*
X24396327Y35643372D02*
X24520137Y35705277D01*
X24520137Y35705277D02*
X24643947Y35829087D01*
X24643947Y35829087D02*
X24705851Y36014801D01*
X24705851Y36014801D02*
X24705851Y36138610D01*
X24705851Y36138610D02*
X24643947Y36324325D01*
X24643947Y36324325D02*
X24582042Y36386229D01*
X24582042Y36386229D02*
X24148708Y36386229D01*
X24148708Y36386229D02*
X24148708Y36138610D01*
X24705851Y36943372D02*
X23405851Y36943372D01*
X23405851Y36943372D02*
X23405851Y37438610D01*
X23405851Y37438610D02*
X23467756Y37562420D01*
X23467756Y37562420D02*
X23529661Y37624325D01*
X23529661Y37624325D02*
X23653470Y37686229D01*
X23653470Y37686229D02*
X23839185Y37686229D01*
X23839185Y37686229D02*
X23962994Y37624325D01*
X23962994Y37624325D02*
X24024899Y37562420D01*
X24024899Y37562420D02*
X24086804Y37438610D01*
X24086804Y37438610D02*
X24086804Y36943372D01*
X23529661Y38181468D02*
X23467756Y38243372D01*
X23467756Y38243372D02*
X23405851Y38367182D01*
X23405851Y38367182D02*
X23405851Y38676706D01*
X23405851Y38676706D02*
X23467756Y38800515D01*
X23467756Y38800515D02*
X23529661Y38862420D01*
X23529661Y38862420D02*
X23653470Y38924325D01*
X23653470Y38924325D02*
X23777280Y38924325D01*
X23777280Y38924325D02*
X23962994Y38862420D01*
X23962994Y38862420D02*
X24705851Y38119563D01*
X24705851Y38119563D02*
X24705851Y38924325D01*
X26007756Y36324325D02*
X25945851Y36200515D01*
X25945851Y36200515D02*
X25945851Y36014801D01*
X25945851Y36014801D02*
X26007756Y35829087D01*
X26007756Y35829087D02*
X26131566Y35705277D01*
X26131566Y35705277D02*
X26255375Y35643372D01*
X26255375Y35643372D02*
X26502994Y35581468D01*
X26502994Y35581468D02*
X26688708Y35581468D01*
X26688708Y35581468D02*
X26936327Y35643372D01*
X26936327Y35643372D02*
X27060137Y35705277D01*
X27060137Y35705277D02*
X27183947Y35829087D01*
X27183947Y35829087D02*
X27245851Y36014801D01*
X27245851Y36014801D02*
X27245851Y36138610D01*
X27245851Y36138610D02*
X27183947Y36324325D01*
X27183947Y36324325D02*
X27122042Y36386229D01*
X27122042Y36386229D02*
X26688708Y36386229D01*
X26688708Y36386229D02*
X26688708Y36138610D01*
X27245851Y36943372D02*
X25945851Y36943372D01*
X25945851Y36943372D02*
X25945851Y37438610D01*
X25945851Y37438610D02*
X26007756Y37562420D01*
X26007756Y37562420D02*
X26069661Y37624325D01*
X26069661Y37624325D02*
X26193470Y37686229D01*
X26193470Y37686229D02*
X26379185Y37686229D01*
X26379185Y37686229D02*
X26502994Y37624325D01*
X26502994Y37624325D02*
X26564899Y37562420D01*
X26564899Y37562420D02*
X26626804Y37438610D01*
X26626804Y37438610D02*
X26626804Y36943372D01*
X25945851Y38119563D02*
X25945851Y38924325D01*
X25945851Y38924325D02*
X26441089Y38490991D01*
X26441089Y38490991D02*
X26441089Y38676706D01*
X26441089Y38676706D02*
X26502994Y38800515D01*
X26502994Y38800515D02*
X26564899Y38862420D01*
X26564899Y38862420D02*
X26688708Y38924325D01*
X26688708Y38924325D02*
X26998232Y38924325D01*
X26998232Y38924325D02*
X27122042Y38862420D01*
X27122042Y38862420D02*
X27183947Y38800515D01*
X27183947Y38800515D02*
X27245851Y38676706D01*
X27245851Y38676706D02*
X27245851Y38305277D01*
X27245851Y38305277D02*
X27183947Y38181468D01*
X27183947Y38181468D02*
X27122042Y38119563D01*
X16482756Y6990515D02*
X16420851Y6866705D01*
X16420851Y6866705D02*
X16420851Y6680991D01*
X16420851Y6680991D02*
X16482756Y6495277D01*
X16482756Y6495277D02*
X16606566Y6371467D01*
X16606566Y6371467D02*
X16730375Y6309562D01*
X16730375Y6309562D02*
X16977994Y6247658D01*
X16977994Y6247658D02*
X17163708Y6247658D01*
X17163708Y6247658D02*
X17411327Y6309562D01*
X17411327Y6309562D02*
X17535137Y6371467D01*
X17535137Y6371467D02*
X17658947Y6495277D01*
X17658947Y6495277D02*
X17720851Y6680991D01*
X17720851Y6680991D02*
X17720851Y6804800D01*
X17720851Y6804800D02*
X17658947Y6990515D01*
X17658947Y6990515D02*
X17597042Y7052419D01*
X17597042Y7052419D02*
X17163708Y7052419D01*
X17163708Y7052419D02*
X17163708Y6804800D01*
X17720851Y7609562D02*
X16420851Y7609562D01*
X16420851Y7609562D02*
X17720851Y8352419D01*
X17720851Y8352419D02*
X16420851Y8352419D01*
X17720851Y8971467D02*
X16420851Y8971467D01*
X16420851Y8971467D02*
X16420851Y9280991D01*
X16420851Y9280991D02*
X16482756Y9466705D01*
X16482756Y9466705D02*
X16606566Y9590515D01*
X16606566Y9590515D02*
X16730375Y9652420D01*
X16730375Y9652420D02*
X16977994Y9714324D01*
X16977994Y9714324D02*
X17163708Y9714324D01*
X17163708Y9714324D02*
X17411327Y9652420D01*
X17411327Y9652420D02*
X17535137Y9590515D01*
X17535137Y9590515D02*
X17658947Y9466705D01*
X17658947Y9466705D02*
X17720851Y9280991D01*
X17720851Y9280991D02*
X17720851Y8971467D01*
X20260851Y5876229D02*
X18960851Y5876229D01*
X18960851Y5876229D02*
X18960851Y6371467D01*
X18960851Y6371467D02*
X19022756Y6495277D01*
X19022756Y6495277D02*
X19084661Y6557182D01*
X19084661Y6557182D02*
X19208470Y6619086D01*
X19208470Y6619086D02*
X19394185Y6619086D01*
X19394185Y6619086D02*
X19517994Y6557182D01*
X19517994Y6557182D02*
X19579899Y6495277D01*
X19579899Y6495277D02*
X19641804Y6371467D01*
X19641804Y6371467D02*
X19641804Y5876229D01*
X18960851Y7423848D02*
X18960851Y7547658D01*
X18960851Y7547658D02*
X19022756Y7671467D01*
X19022756Y7671467D02*
X19084661Y7733372D01*
X19084661Y7733372D02*
X19208470Y7795277D01*
X19208470Y7795277D02*
X19456089Y7857182D01*
X19456089Y7857182D02*
X19765613Y7857182D01*
X19765613Y7857182D02*
X20013232Y7795277D01*
X20013232Y7795277D02*
X20137042Y7733372D01*
X20137042Y7733372D02*
X20198947Y7671467D01*
X20198947Y7671467D02*
X20260851Y7547658D01*
X20260851Y7547658D02*
X20260851Y7423848D01*
X20260851Y7423848D02*
X20198947Y7300039D01*
X20198947Y7300039D02*
X20137042Y7238134D01*
X20137042Y7238134D02*
X20013232Y7176229D01*
X20013232Y7176229D02*
X19765613Y7114325D01*
X19765613Y7114325D02*
X19456089Y7114325D01*
X19456089Y7114325D02*
X19208470Y7176229D01*
X19208470Y7176229D02*
X19084661Y7238134D01*
X19084661Y7238134D02*
X19022756Y7300039D01*
X19022756Y7300039D02*
X18960851Y7423848D01*
X20137042Y8414324D02*
X20198947Y8476229D01*
X20198947Y8476229D02*
X20260851Y8414324D01*
X20260851Y8414324D02*
X20198947Y8352420D01*
X20198947Y8352420D02*
X20137042Y8414324D01*
X20137042Y8414324D02*
X20260851Y8414324D01*
X18960851Y9590515D02*
X18960851Y9342896D01*
X18960851Y9342896D02*
X19022756Y9219087D01*
X19022756Y9219087D02*
X19084661Y9157182D01*
X19084661Y9157182D02*
X19270375Y9033372D01*
X19270375Y9033372D02*
X19517994Y8971468D01*
X19517994Y8971468D02*
X20013232Y8971468D01*
X20013232Y8971468D02*
X20137042Y9033372D01*
X20137042Y9033372D02*
X20198947Y9095277D01*
X20198947Y9095277D02*
X20260851Y9219087D01*
X20260851Y9219087D02*
X20260851Y9466706D01*
X20260851Y9466706D02*
X20198947Y9590515D01*
X20198947Y9590515D02*
X20137042Y9652420D01*
X20137042Y9652420D02*
X20013232Y9714325D01*
X20013232Y9714325D02*
X19703708Y9714325D01*
X19703708Y9714325D02*
X19579899Y9652420D01*
X19579899Y9652420D02*
X19517994Y9590515D01*
X19517994Y9590515D02*
X19456089Y9466706D01*
X19456089Y9466706D02*
X19456089Y9219087D01*
X19456089Y9219087D02*
X19517994Y9095277D01*
X19517994Y9095277D02*
X19579899Y9033372D01*
X19579899Y9033372D02*
X19703708Y8971468D01*
X21934185Y5628610D02*
X21934185Y6557181D01*
X21377042Y6000038D02*
X23048470Y5628610D01*
X22491327Y6433371D02*
X22491327Y5504800D01*
X23048470Y6061943D02*
X21377042Y6433371D01*
X22800851Y6990514D02*
X21500851Y6990514D01*
X22800851Y8352419D02*
X22181804Y7919086D01*
X22800851Y7609562D02*
X21500851Y7609562D01*
X21500851Y7609562D02*
X21500851Y8104800D01*
X21500851Y8104800D02*
X21562756Y8228610D01*
X21562756Y8228610D02*
X21624661Y8290515D01*
X21624661Y8290515D02*
X21748470Y8352419D01*
X21748470Y8352419D02*
X21934185Y8352419D01*
X21934185Y8352419D02*
X22057994Y8290515D01*
X22057994Y8290515D02*
X22119899Y8228610D01*
X22119899Y8228610D02*
X22181804Y8104800D01*
X22181804Y8104800D02*
X22181804Y7609562D01*
X22924661Y9776229D02*
X22862756Y9652419D01*
X22862756Y9652419D02*
X22738947Y9528610D01*
X22738947Y9528610D02*
X22553232Y9342896D01*
X22553232Y9342896D02*
X22491327Y9219086D01*
X22491327Y9219086D02*
X22491327Y9095277D01*
X22800851Y9157181D02*
X22738947Y9033372D01*
X22738947Y9033372D02*
X22615137Y8909562D01*
X22615137Y8909562D02*
X22367518Y8847658D01*
X22367518Y8847658D02*
X21934185Y8847658D01*
X21934185Y8847658D02*
X21686566Y8909562D01*
X21686566Y8909562D02*
X21562756Y9033372D01*
X21562756Y9033372D02*
X21500851Y9157181D01*
X21500851Y9157181D02*
X21500851Y9404800D01*
X21500851Y9404800D02*
X21562756Y9528610D01*
X21562756Y9528610D02*
X21686566Y9652419D01*
X21686566Y9652419D02*
X21934185Y9714324D01*
X21934185Y9714324D02*
X22367518Y9714324D01*
X22367518Y9714324D02*
X22615137Y9652419D01*
X22615137Y9652419D02*
X22738947Y9528610D01*
X22738947Y9528610D02*
X22800851Y9404800D01*
X22800851Y9404800D02*
X22800851Y9157181D01*
X24102756Y7114325D02*
X24040851Y6990515D01*
X24040851Y6990515D02*
X24040851Y6804801D01*
X24040851Y6804801D02*
X24102756Y6619087D01*
X24102756Y6619087D02*
X24226566Y6495277D01*
X24226566Y6495277D02*
X24350375Y6433372D01*
X24350375Y6433372D02*
X24597994Y6371468D01*
X24597994Y6371468D02*
X24783708Y6371468D01*
X24783708Y6371468D02*
X25031327Y6433372D01*
X25031327Y6433372D02*
X25155137Y6495277D01*
X25155137Y6495277D02*
X25278947Y6619087D01*
X25278947Y6619087D02*
X25340851Y6804801D01*
X25340851Y6804801D02*
X25340851Y6928610D01*
X25340851Y6928610D02*
X25278947Y7114325D01*
X25278947Y7114325D02*
X25217042Y7176229D01*
X25217042Y7176229D02*
X24783708Y7176229D01*
X24783708Y7176229D02*
X24783708Y6928610D01*
X25340851Y7733372D02*
X24040851Y7733372D01*
X24040851Y7733372D02*
X24040851Y8228610D01*
X24040851Y8228610D02*
X24102756Y8352420D01*
X24102756Y8352420D02*
X24164661Y8414325D01*
X24164661Y8414325D02*
X24288470Y8476229D01*
X24288470Y8476229D02*
X24474185Y8476229D01*
X24474185Y8476229D02*
X24597994Y8414325D01*
X24597994Y8414325D02*
X24659899Y8352420D01*
X24659899Y8352420D02*
X24721804Y8228610D01*
X24721804Y8228610D02*
X24721804Y7733372D01*
X25340851Y9714325D02*
X25340851Y8971468D01*
X25340851Y9342896D02*
X24040851Y9342896D01*
X24040851Y9342896D02*
X24226566Y9219087D01*
X24226566Y9219087D02*
X24350375Y9095277D01*
X24350375Y9095277D02*
X24412280Y8971468D01*
X30420851Y16609324D02*
X29801804Y16175991D01*
X30420851Y15866467D02*
X29120851Y15866467D01*
X29120851Y15866467D02*
X29120851Y16361705D01*
X29120851Y16361705D02*
X29182756Y16485515D01*
X29182756Y16485515D02*
X29244661Y16547420D01*
X29244661Y16547420D02*
X29368470Y16609324D01*
X29368470Y16609324D02*
X29554185Y16609324D01*
X29554185Y16609324D02*
X29677994Y16547420D01*
X29677994Y16547420D02*
X29739899Y16485515D01*
X29739899Y16485515D02*
X29801804Y16361705D01*
X29801804Y16361705D02*
X29801804Y15866467D01*
X30049423Y17104563D02*
X30049423Y17723610D01*
X30420851Y16980753D02*
X29120851Y17414086D01*
X29120851Y17414086D02*
X30420851Y17847420D01*
X30420851Y18280753D02*
X29120851Y18280753D01*
X29120851Y18280753D02*
X30049423Y18714087D01*
X30049423Y18714087D02*
X29120851Y19147420D01*
X29120851Y19147420D02*
X30420851Y19147420D01*
X30420851Y19766467D02*
X29120851Y19766467D01*
X29120851Y19766467D02*
X29120851Y20261705D01*
X29120851Y20261705D02*
X29182756Y20385515D01*
X29182756Y20385515D02*
X29244661Y20447420D01*
X29244661Y20447420D02*
X29368470Y20509324D01*
X29368470Y20509324D02*
X29554185Y20509324D01*
X29554185Y20509324D02*
X29677994Y20447420D01*
X29677994Y20447420D02*
X29739899Y20385515D01*
X29739899Y20385515D02*
X29801804Y20261705D01*
X29801804Y20261705D02*
X29801804Y19766467D01*
X26642756Y7114325D02*
X26580851Y6990515D01*
X26580851Y6990515D02*
X26580851Y6804801D01*
X26580851Y6804801D02*
X26642756Y6619087D01*
X26642756Y6619087D02*
X26766566Y6495277D01*
X26766566Y6495277D02*
X26890375Y6433372D01*
X26890375Y6433372D02*
X27137994Y6371468D01*
X27137994Y6371468D02*
X27323708Y6371468D01*
X27323708Y6371468D02*
X27571327Y6433372D01*
X27571327Y6433372D02*
X27695137Y6495277D01*
X27695137Y6495277D02*
X27818947Y6619087D01*
X27818947Y6619087D02*
X27880851Y6804801D01*
X27880851Y6804801D02*
X27880851Y6928610D01*
X27880851Y6928610D02*
X27818947Y7114325D01*
X27818947Y7114325D02*
X27757042Y7176229D01*
X27757042Y7176229D02*
X27323708Y7176229D01*
X27323708Y7176229D02*
X27323708Y6928610D01*
X27880851Y7733372D02*
X26580851Y7733372D01*
X26580851Y7733372D02*
X26580851Y8228610D01*
X26580851Y8228610D02*
X26642756Y8352420D01*
X26642756Y8352420D02*
X26704661Y8414325D01*
X26704661Y8414325D02*
X26828470Y8476229D01*
X26828470Y8476229D02*
X27014185Y8476229D01*
X27014185Y8476229D02*
X27137994Y8414325D01*
X27137994Y8414325D02*
X27199899Y8352420D01*
X27199899Y8352420D02*
X27261804Y8228610D01*
X27261804Y8228610D02*
X27261804Y7733372D01*
X26580851Y9280991D02*
X26580851Y9404801D01*
X26580851Y9404801D02*
X26642756Y9528610D01*
X26642756Y9528610D02*
X26704661Y9590515D01*
X26704661Y9590515D02*
X26828470Y9652420D01*
X26828470Y9652420D02*
X27076089Y9714325D01*
X27076089Y9714325D02*
X27385613Y9714325D01*
X27385613Y9714325D02*
X27633232Y9652420D01*
X27633232Y9652420D02*
X27757042Y9590515D01*
X27757042Y9590515D02*
X27818947Y9528610D01*
X27818947Y9528610D02*
X27880851Y9404801D01*
X27880851Y9404801D02*
X27880851Y9280991D01*
X27880851Y9280991D02*
X27818947Y9157182D01*
X27818947Y9157182D02*
X27757042Y9095277D01*
X27757042Y9095277D02*
X27633232Y9033372D01*
X27633232Y9033372D02*
X27385613Y8971468D01*
X27385613Y8971468D02*
X27076089Y8971468D01*
X27076089Y8971468D02*
X26828470Y9033372D01*
X26828470Y9033372D02*
X26704661Y9095277D01*
X26704661Y9095277D02*
X26642756Y9157182D01*
X26642756Y9157182D02*
X26580851Y9280991D01*
X36770851Y13496229D02*
X35470851Y13496229D01*
X35470851Y13496229D02*
X35470851Y13991467D01*
X35470851Y13991467D02*
X35532756Y14115277D01*
X35532756Y14115277D02*
X35594661Y14177182D01*
X35594661Y14177182D02*
X35718470Y14239086D01*
X35718470Y14239086D02*
X35904185Y14239086D01*
X35904185Y14239086D02*
X36027994Y14177182D01*
X36027994Y14177182D02*
X36089899Y14115277D01*
X36089899Y14115277D02*
X36151804Y13991467D01*
X36151804Y13991467D02*
X36151804Y13496229D01*
X36770851Y15477182D02*
X36770851Y14734325D01*
X36770851Y15105753D02*
X35470851Y15105753D01*
X35470851Y15105753D02*
X35656566Y14981944D01*
X35656566Y14981944D02*
X35780375Y14858134D01*
X35780375Y14858134D02*
X35842280Y14734325D01*
X36647042Y16034324D02*
X36708947Y16096229D01*
X36708947Y16096229D02*
X36770851Y16034324D01*
X36770851Y16034324D02*
X36708947Y15972420D01*
X36708947Y15972420D02*
X36647042Y16034324D01*
X36647042Y16034324D02*
X36770851Y16034324D01*
X35904185Y17210515D02*
X36770851Y17210515D01*
X35408947Y16900991D02*
X36337518Y16591468D01*
X36337518Y16591468D02*
X36337518Y17396229D01*
X34230851Y13496229D02*
X32930851Y13496229D01*
X32930851Y13496229D02*
X32930851Y13991467D01*
X32930851Y13991467D02*
X32992756Y14115277D01*
X32992756Y14115277D02*
X33054661Y14177182D01*
X33054661Y14177182D02*
X33178470Y14239086D01*
X33178470Y14239086D02*
X33364185Y14239086D01*
X33364185Y14239086D02*
X33487994Y14177182D01*
X33487994Y14177182D02*
X33549899Y14115277D01*
X33549899Y14115277D02*
X33611804Y13991467D01*
X33611804Y13991467D02*
X33611804Y13496229D01*
X34230851Y15477182D02*
X34230851Y14734325D01*
X34230851Y15105753D02*
X32930851Y15105753D01*
X32930851Y15105753D02*
X33116566Y14981944D01*
X33116566Y14981944D02*
X33240375Y14858134D01*
X33240375Y14858134D02*
X33302280Y14734325D01*
X34107042Y16034324D02*
X34168947Y16096229D01*
X34168947Y16096229D02*
X34230851Y16034324D01*
X34230851Y16034324D02*
X34168947Y15972420D01*
X34168947Y15972420D02*
X34107042Y16034324D01*
X34107042Y16034324D02*
X34230851Y16034324D01*
X32930851Y17272420D02*
X32930851Y16653372D01*
X32930851Y16653372D02*
X33549899Y16591468D01*
X33549899Y16591468D02*
X33487994Y16653372D01*
X33487994Y16653372D02*
X33426089Y16777182D01*
X33426089Y16777182D02*
X33426089Y17086706D01*
X33426089Y17086706D02*
X33487994Y17210515D01*
X33487994Y17210515D02*
X33549899Y17272420D01*
X33549899Y17272420D02*
X33673708Y17334325D01*
X33673708Y17334325D02*
X33983232Y17334325D01*
X33983232Y17334325D02*
X34107042Y17272420D01*
X34107042Y17272420D02*
X34168947Y17210515D01*
X34168947Y17210515D02*
X34230851Y17086706D01*
X34230851Y17086706D02*
X34230851Y16777182D01*
X34230851Y16777182D02*
X34168947Y16653372D01*
X34168947Y16653372D02*
X34107042Y16591468D01*
X33952333Y6017507D02*
X33333285Y6017507D01*
X33333285Y6017507D02*
X33333285Y7317507D01*
X34385666Y6698459D02*
X34819000Y6698459D01*
X35004714Y6017507D02*
X34385666Y6017507D01*
X34385666Y6017507D02*
X34385666Y7317507D01*
X34385666Y7317507D02*
X35004714Y7317507D01*
X35561856Y6017507D02*
X35561856Y7317507D01*
X35561856Y7317507D02*
X35871380Y7317507D01*
X35871380Y7317507D02*
X36057094Y7255602D01*
X36057094Y7255602D02*
X36180904Y7131792D01*
X36180904Y7131792D02*
X36242809Y7007983D01*
X36242809Y7007983D02*
X36304713Y6760364D01*
X36304713Y6760364D02*
X36304713Y6574650D01*
X36304713Y6574650D02*
X36242809Y6327031D01*
X36242809Y6327031D02*
X36180904Y6203221D01*
X36180904Y6203221D02*
X36057094Y6079411D01*
X36057094Y6079411D02*
X35871380Y6017507D01*
X35871380Y6017507D02*
X35561856Y6017507D01*
X3877851Y27354073D02*
X2577851Y27354073D01*
X3877851Y27973121D02*
X2577851Y27973121D01*
X2577851Y27973121D02*
X3877851Y28715978D01*
X3877851Y28715978D02*
X2577851Y28715978D01*
X2577851Y30944550D02*
X2577851Y30325502D01*
X2577851Y30325502D02*
X3196899Y30263598D01*
X3196899Y30263598D02*
X3134994Y30325502D01*
X3134994Y30325502D02*
X3073089Y30449312D01*
X3073089Y30449312D02*
X3073089Y30758836D01*
X3073089Y30758836D02*
X3134994Y30882645D01*
X3134994Y30882645D02*
X3196899Y30944550D01*
X3196899Y30944550D02*
X3320708Y31006455D01*
X3320708Y31006455D02*
X3630232Y31006455D01*
X3630232Y31006455D02*
X3754042Y30944550D01*
X3754042Y30944550D02*
X3815947Y30882645D01*
X3815947Y30882645D02*
X3877851Y30758836D01*
X3877851Y30758836D02*
X3877851Y30449312D01*
X3877851Y30449312D02*
X3815947Y30325502D01*
X3815947Y30325502D02*
X3754042Y30263598D01*
X3382613Y31563597D02*
X3382613Y32554073D01*
X3877851Y33854074D02*
X3877851Y33111217D01*
X3877851Y33482645D02*
X2577851Y33482645D01*
X2577851Y33482645D02*
X2763566Y33358836D01*
X2763566Y33358836D02*
X2887375Y33235026D01*
X2887375Y33235026D02*
X2949280Y33111217D01*
X2577851Y34658835D02*
X2577851Y34782645D01*
X2577851Y34782645D02*
X2639756Y34906454D01*
X2639756Y34906454D02*
X2701661Y34968359D01*
X2701661Y34968359D02*
X2825470Y35030264D01*
X2825470Y35030264D02*
X3073089Y35092169D01*
X3073089Y35092169D02*
X3382613Y35092169D01*
X3382613Y35092169D02*
X3630232Y35030264D01*
X3630232Y35030264D02*
X3754042Y34968359D01*
X3754042Y34968359D02*
X3815947Y34906454D01*
X3815947Y34906454D02*
X3877851Y34782645D01*
X3877851Y34782645D02*
X3877851Y34658835D01*
X3877851Y34658835D02*
X3815947Y34535026D01*
X3815947Y34535026D02*
X3754042Y34473121D01*
X3754042Y34473121D02*
X3630232Y34411216D01*
X3630232Y34411216D02*
X3382613Y34349312D01*
X3382613Y34349312D02*
X3073089Y34349312D01*
X3073089Y34349312D02*
X2825470Y34411216D01*
X2825470Y34411216D02*
X2701661Y34473121D01*
X2701661Y34473121D02*
X2639756Y34535026D01*
X2639756Y34535026D02*
X2577851Y34658835D01*
X2577851Y35463597D02*
X3877851Y35896930D01*
X3877851Y35896930D02*
X2577851Y36330264D01*
X2323851Y15204835D02*
X2323851Y15452454D01*
X2323851Y15452454D02*
X2385756Y15576264D01*
X2385756Y15576264D02*
X2509566Y15700073D01*
X2509566Y15700073D02*
X2757185Y15761978D01*
X2757185Y15761978D02*
X3190518Y15761978D01*
X3190518Y15761978D02*
X3438137Y15700073D01*
X3438137Y15700073D02*
X3561947Y15576264D01*
X3561947Y15576264D02*
X3623851Y15452454D01*
X3623851Y15452454D02*
X3623851Y15204835D01*
X3623851Y15204835D02*
X3561947Y15081026D01*
X3561947Y15081026D02*
X3438137Y14957216D01*
X3438137Y14957216D02*
X3190518Y14895312D01*
X3190518Y14895312D02*
X2757185Y14895312D01*
X2757185Y14895312D02*
X2509566Y14957216D01*
X2509566Y14957216D02*
X2385756Y15081026D01*
X2385756Y15081026D02*
X2323851Y15204835D01*
X2323851Y16319121D02*
X3376232Y16319121D01*
X3376232Y16319121D02*
X3500042Y16381026D01*
X3500042Y16381026D02*
X3561947Y16442931D01*
X3561947Y16442931D02*
X3623851Y16566740D01*
X3623851Y16566740D02*
X3623851Y16814359D01*
X3623851Y16814359D02*
X3561947Y16938169D01*
X3561947Y16938169D02*
X3500042Y17000074D01*
X3500042Y17000074D02*
X3376232Y17061978D01*
X3376232Y17061978D02*
X2323851Y17061978D01*
X2323851Y17495312D02*
X2323851Y18238169D01*
X3623851Y17866741D02*
X2323851Y17866741D01*
X2323851Y19538169D02*
X2323851Y20342931D01*
X2323851Y20342931D02*
X2819089Y19909597D01*
X2819089Y19909597D02*
X2819089Y20095312D01*
X2819089Y20095312D02*
X2880994Y20219121D01*
X2880994Y20219121D02*
X2942899Y20281026D01*
X2942899Y20281026D02*
X3066708Y20342931D01*
X3066708Y20342931D02*
X3376232Y20342931D01*
X3376232Y20342931D02*
X3500042Y20281026D01*
X3500042Y20281026D02*
X3561947Y20219121D01*
X3561947Y20219121D02*
X3623851Y20095312D01*
X3623851Y20095312D02*
X3623851Y19723883D01*
X3623851Y19723883D02*
X3561947Y19600074D01*
X3561947Y19600074D02*
X3500042Y19538169D01*
X2323851Y20714359D02*
X3623851Y21147692D01*
X3623851Y21147692D02*
X2323851Y21581026D01*
X2323851Y21890550D02*
X2323851Y22695312D01*
X2323851Y22695312D02*
X2819089Y22261978D01*
X2819089Y22261978D02*
X2819089Y22447693D01*
X2819089Y22447693D02*
X2880994Y22571502D01*
X2880994Y22571502D02*
X2942899Y22633407D01*
X2942899Y22633407D02*
X3066708Y22695312D01*
X3066708Y22695312D02*
X3376232Y22695312D01*
X3376232Y22695312D02*
X3500042Y22633407D01*
X3500042Y22633407D02*
X3561947Y22571502D01*
X3561947Y22571502D02*
X3623851Y22447693D01*
X3623851Y22447693D02*
X3623851Y22076264D01*
X3623851Y22076264D02*
X3561947Y21952455D01*
X3561947Y21952455D02*
X3500042Y21890550D01*
X46041851Y31786645D02*
X45422804Y31353312D01*
X46041851Y31043788D02*
X44741851Y31043788D01*
X44741851Y31043788D02*
X44741851Y31539026D01*
X44741851Y31539026D02*
X44803756Y31662836D01*
X44803756Y31662836D02*
X44865661Y31724741D01*
X44865661Y31724741D02*
X44989470Y31786645D01*
X44989470Y31786645D02*
X45175185Y31786645D01*
X45175185Y31786645D02*
X45298994Y31724741D01*
X45298994Y31724741D02*
X45360899Y31662836D01*
X45360899Y31662836D02*
X45422804Y31539026D01*
X45422804Y31539026D02*
X45422804Y31043788D01*
X44741851Y32219979D02*
X46041851Y33086645D01*
X44741851Y33086645D02*
X46041851Y32219979D01*
X44741851Y20090836D02*
X44741851Y20833693D01*
X46041851Y20462265D02*
X44741851Y20462265D01*
X44741851Y21143217D02*
X46041851Y22009883D01*
X44741851Y22009883D02*
X46041851Y21143217D01*
X32923190Y26498983D02*
X32923190Y27998983D01*
X33566048Y26570411D02*
X33780334Y26498983D01*
X33780334Y26498983D02*
X34137476Y26498983D01*
X34137476Y26498983D02*
X34280334Y26570411D01*
X34280334Y26570411D02*
X34351762Y26641840D01*
X34351762Y26641840D02*
X34423191Y26784697D01*
X34423191Y26784697D02*
X34423191Y26927554D01*
X34423191Y26927554D02*
X34351762Y27070411D01*
X34351762Y27070411D02*
X34280334Y27141840D01*
X34280334Y27141840D02*
X34137476Y27213269D01*
X34137476Y27213269D02*
X33851762Y27284697D01*
X33851762Y27284697D02*
X33708905Y27356126D01*
X33708905Y27356126D02*
X33637476Y27427554D01*
X33637476Y27427554D02*
X33566048Y27570411D01*
X33566048Y27570411D02*
X33566048Y27713269D01*
X33566048Y27713269D02*
X33637476Y27856126D01*
X33637476Y27856126D02*
X33708905Y27927554D01*
X33708905Y27927554D02*
X33851762Y27998983D01*
X33851762Y27998983D02*
X34208905Y27998983D01*
X34208905Y27998983D02*
X34423191Y27927554D01*
X35066047Y26498983D02*
X35066047Y27998983D01*
X35066047Y27998983D02*
X35566047Y26927554D01*
X35566047Y26927554D02*
X36066047Y27998983D01*
X36066047Y27998983D02*
X36066047Y26498983D01*
X37066048Y27998983D02*
X37208905Y27998983D01*
X37208905Y27998983D02*
X37351762Y27927554D01*
X37351762Y27927554D02*
X37423191Y27856126D01*
X37423191Y27856126D02*
X37494619Y27713269D01*
X37494619Y27713269D02*
X37566048Y27427554D01*
X37566048Y27427554D02*
X37566048Y27070411D01*
X37566048Y27070411D02*
X37494619Y26784697D01*
X37494619Y26784697D02*
X37423191Y26641840D01*
X37423191Y26641840D02*
X37351762Y26570411D01*
X37351762Y26570411D02*
X37208905Y26498983D01*
X37208905Y26498983D02*
X37066048Y26498983D01*
X37066048Y26498983D02*
X36923191Y26570411D01*
X36923191Y26570411D02*
X36851762Y26641840D01*
X36851762Y26641840D02*
X36780333Y26784697D01*
X36780333Y26784697D02*
X36708905Y27070411D01*
X36708905Y27070411D02*
X36708905Y27427554D01*
X36708905Y27427554D02*
X36780333Y27713269D01*
X36780333Y27713269D02*
X36851762Y27856126D01*
X36851762Y27856126D02*
X36923191Y27927554D01*
X36923191Y27927554D02*
X37066048Y27998983D01*
X38066047Y27998983D02*
X38994619Y27998983D01*
X38994619Y27998983D02*
X38494619Y27427554D01*
X38494619Y27427554D02*
X38708904Y27427554D01*
X38708904Y27427554D02*
X38851762Y27356126D01*
X38851762Y27356126D02*
X38923190Y27284697D01*
X38923190Y27284697D02*
X38994619Y27141840D01*
X38994619Y27141840D02*
X38994619Y26784697D01*
X38994619Y26784697D02*
X38923190Y26641840D01*
X38923190Y26641840D02*
X38851762Y26570411D01*
X38851762Y26570411D02*
X38708904Y26498983D01*
X38708904Y26498983D02*
X38280333Y26498983D01*
X38280333Y26498983D02*
X38137476Y26570411D01*
X38137476Y26570411D02*
X38066047Y26641840D01*
X39566047Y26927554D02*
X40280333Y26927554D01*
X39423190Y26498983D02*
X39923190Y27998983D01*
X39923190Y27998983D02*
X40423190Y26498983D01*
X39328619Y40556126D02*
X39400047Y40627554D01*
X39400047Y40627554D02*
X39542905Y40698983D01*
X39542905Y40698983D02*
X39900047Y40698983D01*
X39900047Y40698983D02*
X40042905Y40627554D01*
X40042905Y40627554D02*
X40114333Y40556126D01*
X40114333Y40556126D02*
X40185762Y40413269D01*
X40185762Y40413269D02*
X40185762Y40270411D01*
X40185762Y40270411D02*
X40114333Y40056126D01*
X40114333Y40056126D02*
X39257190Y39198983D01*
X39257190Y39198983D02*
X40185762Y39198983D01*
X41114333Y40698983D02*
X41257190Y40698983D01*
X41257190Y40698983D02*
X41400047Y40627554D01*
X41400047Y40627554D02*
X41471476Y40556126D01*
X41471476Y40556126D02*
X41542904Y40413269D01*
X41542904Y40413269D02*
X41614333Y40127554D01*
X41614333Y40127554D02*
X41614333Y39770411D01*
X41614333Y39770411D02*
X41542904Y39484697D01*
X41542904Y39484697D02*
X41471476Y39341840D01*
X41471476Y39341840D02*
X41400047Y39270411D01*
X41400047Y39270411D02*
X41257190Y39198983D01*
X41257190Y39198983D02*
X41114333Y39198983D01*
X41114333Y39198983D02*
X40971476Y39270411D01*
X40971476Y39270411D02*
X40900047Y39341840D01*
X40900047Y39341840D02*
X40828618Y39484697D01*
X40828618Y39484697D02*
X40757190Y39770411D01*
X40757190Y39770411D02*
X40757190Y40127554D01*
X40757190Y40127554D02*
X40828618Y40413269D01*
X40828618Y40413269D02*
X40900047Y40556126D01*
X40900047Y40556126D02*
X40971476Y40627554D01*
X40971476Y40627554D02*
X41114333Y40698983D01*
X42185761Y40556126D02*
X42257189Y40627554D01*
X42257189Y40627554D02*
X42400047Y40698983D01*
X42400047Y40698983D02*
X42757189Y40698983D01*
X42757189Y40698983D02*
X42900047Y40627554D01*
X42900047Y40627554D02*
X42971475Y40556126D01*
X42971475Y40556126D02*
X43042904Y40413269D01*
X43042904Y40413269D02*
X43042904Y40270411D01*
X43042904Y40270411D02*
X42971475Y40056126D01*
X42971475Y40056126D02*
X42114332Y39198983D01*
X42114332Y39198983D02*
X43042904Y39198983D01*
X44328618Y40198983D02*
X44328618Y39198983D01*
X43971475Y40770411D02*
X43614332Y39698983D01*
X43614332Y39698983D02*
X44542903Y39698983D01*
X39007189Y41992983D02*
X39007189Y43492983D01*
X39150047Y42564411D02*
X39578618Y41992983D01*
X39578618Y42992983D02*
X39007189Y42421554D01*
X40864333Y41992983D02*
X40864333Y42778697D01*
X40864333Y42778697D02*
X40792904Y42921554D01*
X40792904Y42921554D02*
X40650047Y42992983D01*
X40650047Y42992983D02*
X40364333Y42992983D01*
X40364333Y42992983D02*
X40221475Y42921554D01*
X40864333Y42064411D02*
X40721475Y41992983D01*
X40721475Y41992983D02*
X40364333Y41992983D01*
X40364333Y41992983D02*
X40221475Y42064411D01*
X40221475Y42064411D02*
X40150047Y42207269D01*
X40150047Y42207269D02*
X40150047Y42350126D01*
X40150047Y42350126D02*
X40221475Y42492983D01*
X40221475Y42492983D02*
X40364333Y42564411D01*
X40364333Y42564411D02*
X40721475Y42564411D01*
X40721475Y42564411D02*
X40864333Y42635840D01*
X41578618Y41992983D02*
X41578618Y43492983D01*
X41721476Y42564411D02*
X42150047Y41992983D01*
X42150047Y42992983D02*
X41578618Y42421554D01*
X43007190Y41992983D02*
X42864333Y42064411D01*
X42864333Y42064411D02*
X42792904Y42207269D01*
X42792904Y42207269D02*
X42792904Y43492983D01*
X43578618Y41992983D02*
X43578618Y42992983D01*
X43578618Y43492983D02*
X43507190Y43421554D01*
X43507190Y43421554D02*
X43578618Y43350126D01*
X43578618Y43350126D02*
X43650047Y43421554D01*
X43650047Y43421554D02*
X43578618Y43492983D01*
X43578618Y43492983D02*
X43578618Y43350126D01*
X44292904Y41992983D02*
X44292904Y43492983D01*
X44435762Y42564411D02*
X44864333Y41992983D01*
X44864333Y42992983D02*
X44292904Y42421554D01*
X32458903Y28784983D02*
X32458903Y30284983D01*
X32458903Y30284983D02*
X32958903Y29213554D01*
X32958903Y29213554D02*
X33458903Y30284983D01*
X33458903Y30284983D02*
X33458903Y28784983D01*
X34887475Y28784983D02*
X34173189Y28784983D01*
X34173189Y28784983D02*
X34173189Y30284983D01*
X35316047Y29213554D02*
X36030333Y29213554D01*
X35173190Y28784983D02*
X35673190Y30284983D01*
X35673190Y30284983D02*
X36173190Y28784983D01*
X37173189Y29570697D02*
X37387475Y29499269D01*
X37387475Y29499269D02*
X37458904Y29427840D01*
X37458904Y29427840D02*
X37530332Y29284983D01*
X37530332Y29284983D02*
X37530332Y29070697D01*
X37530332Y29070697D02*
X37458904Y28927840D01*
X37458904Y28927840D02*
X37387475Y28856411D01*
X37387475Y28856411D02*
X37244618Y28784983D01*
X37244618Y28784983D02*
X36673189Y28784983D01*
X36673189Y28784983D02*
X36673189Y30284983D01*
X36673189Y30284983D02*
X37173189Y30284983D01*
X37173189Y30284983D02*
X37316047Y30213554D01*
X37316047Y30213554D02*
X37387475Y30142126D01*
X37387475Y30142126D02*
X37458904Y29999269D01*
X37458904Y29999269D02*
X37458904Y29856411D01*
X37458904Y29856411D02*
X37387475Y29713554D01*
X37387475Y29713554D02*
X37316047Y29642126D01*
X37316047Y29642126D02*
X37173189Y29570697D01*
X37173189Y29570697D02*
X36673189Y29570697D01*
X38173189Y28927840D02*
X38244618Y28856411D01*
X38244618Y28856411D02*
X38173189Y28784983D01*
X38173189Y28784983D02*
X38101761Y28856411D01*
X38101761Y28856411D02*
X38173189Y28927840D01*
X38173189Y28927840D02*
X38173189Y28784983D01*
X39530333Y28856411D02*
X39387475Y28784983D01*
X39387475Y28784983D02*
X39101761Y28784983D01*
X39101761Y28784983D02*
X38958904Y28856411D01*
X38958904Y28856411D02*
X38887475Y28927840D01*
X38887475Y28927840D02*
X38816047Y29070697D01*
X38816047Y29070697D02*
X38816047Y29499269D01*
X38816047Y29499269D02*
X38887475Y29642126D01*
X38887475Y29642126D02*
X38958904Y29713554D01*
X38958904Y29713554D02*
X39101761Y29784983D01*
X39101761Y29784983D02*
X39387475Y29784983D01*
X39387475Y29784983D02*
X39530333Y29713554D01*
X40030332Y29784983D02*
X40816047Y29784983D01*
X40816047Y29784983D02*
X40030332Y28784983D01*
X40030332Y28784983D02*
X40816047Y28784983D01*
D11*
X50290047Y37663183D02*
X50290047Y36591754D01*
X50290047Y36591754D02*
X50218618Y36377469D01*
X50218618Y36377469D02*
X50075761Y36234611D01*
X50075761Y36234611D02*
X49861475Y36163183D01*
X49861475Y36163183D02*
X49718618Y36163183D01*
X50861475Y37663183D02*
X51790047Y37663183D01*
X51790047Y37663183D02*
X51290047Y37091754D01*
X51290047Y37091754D02*
X51504332Y37091754D01*
X51504332Y37091754D02*
X51647190Y37020326D01*
X51647190Y37020326D02*
X51718618Y36948897D01*
X51718618Y36948897D02*
X51790047Y36806040D01*
X51790047Y36806040D02*
X51790047Y36448897D01*
X51790047Y36448897D02*
X51718618Y36306040D01*
X51718618Y36306040D02*
X51647190Y36234611D01*
X51647190Y36234611D02*
X51504332Y36163183D01*
X51504332Y36163183D02*
X51075761Y36163183D01*
X51075761Y36163183D02*
X50932904Y36234611D01*
X50932904Y36234611D02*
X50861475Y36306040D01*
X50290047Y26868183D02*
X50290047Y25796754D01*
X50290047Y25796754D02*
X50218618Y25582469D01*
X50218618Y25582469D02*
X50075761Y25439611D01*
X50075761Y25439611D02*
X49861475Y25368183D01*
X49861475Y25368183D02*
X49718618Y25368183D01*
X50932904Y26725326D02*
X51004332Y26796754D01*
X51004332Y26796754D02*
X51147190Y26868183D01*
X51147190Y26868183D02*
X51504332Y26868183D01*
X51504332Y26868183D02*
X51647190Y26796754D01*
X51647190Y26796754D02*
X51718618Y26725326D01*
X51718618Y26725326D02*
X51790047Y26582469D01*
X51790047Y26582469D02*
X51790047Y26439611D01*
X51790047Y26439611D02*
X51718618Y26225326D01*
X51718618Y26225326D02*
X50861475Y25368183D01*
X50861475Y25368183D02*
X51790047Y25368183D01*
%TO.C,J17*%
X7620000Y17780000D02*
X12700000Y17780000D01*
X7620000Y15494000D02*
X7620000Y17780000D01*
X12700000Y17780000D02*
X12700000Y15494000D01*
%TO.C,J1*%
X19304000Y16256000D02*
X24384000Y16256000D01*
X19304000Y8636000D02*
X19304000Y16256000D01*
X24384000Y16256000D02*
X24384000Y8636000D01*
X24384000Y8636000D02*
X19304000Y8636000D01*
%TO.C,J4*%
X38150800Y15646400D02*
X43230800Y15646400D01*
X38150800Y8026400D02*
X38150800Y15646400D01*
X43230800Y15646400D02*
X43230800Y8026400D01*
X43230800Y8026400D02*
X38150800Y8026400D01*
%TO.C,J13*%
X7620000Y27940000D02*
X12700000Y27940000D01*
X7620000Y25654000D02*
X7620000Y27940000D01*
X12700000Y27940000D02*
X12700000Y25654000D01*
%TO.C,J14*%
X7620000Y33020000D02*
X12700000Y33020000D01*
X7620000Y30734000D02*
X7620000Y33020000D01*
X12700000Y33020000D02*
X12700000Y30734000D01*
%TO.C,J19*%
X7620000Y25400000D02*
X12700000Y25400000D01*
X7620000Y23114000D02*
X7620000Y25400000D01*
X12700000Y25400000D02*
X12700000Y23114000D01*
%TO.C,J20*%
X7620000Y20320000D02*
X12700000Y20320000D01*
X7620000Y18034000D02*
X7620000Y20320000D01*
X12700000Y20320000D02*
X12700000Y18034000D01*
%TO.C,J21*%
X7620000Y22860000D02*
X12700000Y22860000D01*
X7620000Y20574000D02*
X7620000Y22860000D01*
X12700000Y22860000D02*
X12700000Y20574000D01*
%TO.C,J3*%
X47290047Y32765311D02*
X47290047Y30733311D01*
X49774047Y28274711D02*
X51806047Y28274711D01*
X51806047Y35249311D02*
X49774047Y35249311D01*
X54290047Y30733311D02*
X54290047Y32765311D01*
%TO.C,J22*%
X18034000Y43307000D02*
X20320000Y43307000D01*
X20320000Y43307000D02*
X20320000Y38227000D01*
X20320000Y38227000D02*
X18034000Y38227000D01*
%TO.C,J16*%
X7620000Y35560000D02*
X12700000Y35560000D01*
X7620000Y33274000D02*
X7620000Y35560000D01*
X12700000Y35560000D02*
X12700000Y33274000D01*
%TO.C,J15*%
X7620000Y30480000D02*
X12700000Y30480000D01*
X7620000Y28194000D02*
X7620000Y30480000D01*
X12700000Y30480000D02*
X12700000Y28194000D01*
%TO.C,J23*%
X20574000Y43307000D02*
X22860000Y43307000D01*
X22860000Y43307000D02*
X22860000Y38227000D01*
X22860000Y38227000D02*
X20574000Y38227000D01*
%TO.C,J2*%
X47290047Y21970311D02*
X47290047Y19938311D01*
X49774047Y17479711D02*
X51806047Y17479711D01*
X51806047Y24454311D02*
X49774047Y24454311D01*
X54290047Y19938311D02*
X54290047Y21970311D01*
%TO.C,J6*%
X15494000Y43307000D02*
X17780000Y43307000D01*
X17780000Y43307000D02*
X17780000Y38227000D01*
X17780000Y38227000D02*
X15494000Y38227000D01*
%TO.C,J7*%
X23114000Y43307000D02*
X25400000Y43307000D01*
X25400000Y43307000D02*
X25400000Y38227000D01*
X25400000Y38227000D02*
X23114000Y38227000D01*
%TO.C,J5*%
X25654000Y43307689D02*
X27940000Y43307689D01*
X27940000Y43307689D02*
X27940000Y38227689D01*
X27940000Y38227689D02*
X25654000Y38227689D01*
%TD*%
M02*
