%TF.GenerationSoftware,KiCad,Pcbnew,8.0.3+1*%
%TF.CreationDate,2024-07-26T09:11:27+00:00*%
%TF.ProjectId,ISM03,49534d30-332e-46b6-9963-61645f706362,rev?*%
%TF.SameCoordinates,Original*%
%TF.FileFunction,Legend,Bot*%
%TF.FilePolarity,Positive*%
%FSLAX46Y46*%
G04 Gerber Fmt 4.6, Leading zero omitted, Abs format (unit mm)*
G04 Created by KiCad (PCBNEW 8.0.3+1) date 2024-07-26 09:11:27*
%MOMM*%
%LPD*%
G01*
G04 APERTURE LIST*
%ADD10C,0.150000*%
%ADD11C,0.120000*%
G04 APERTURE END LIST*
D10*
X18575257Y23522781D02*
X18908590Y23998972D01*
X19146685Y23522781D02*
X19146685Y24522781D01*
X19146685Y24522781D02*
X18765733Y24522781D01*
X18765733Y24522781D02*
X18670495Y24475162D01*
X18670495Y24475162D02*
X18622876Y24427543D01*
X18622876Y24427543D02*
X18575257Y24332305D01*
X18575257Y24332305D02*
X18575257Y24189448D01*
X18575257Y24189448D02*
X18622876Y24094210D01*
X18622876Y24094210D02*
X18670495Y24046591D01*
X18670495Y24046591D02*
X18765733Y23998972D01*
X18765733Y23998972D02*
X19146685Y23998972D01*
X17622876Y23522781D02*
X18194304Y23522781D01*
X17908590Y23522781D02*
X17908590Y24522781D01*
X17908590Y24522781D02*
X18003828Y24379924D01*
X18003828Y24379924D02*
X18099066Y24284686D01*
X18099066Y24284686D02*
X18194304Y24237067D01*
X16718114Y24522781D02*
X17194304Y24522781D01*
X17194304Y24522781D02*
X17241923Y24046591D01*
X17241923Y24046591D02*
X17194304Y24094210D01*
X17194304Y24094210D02*
X17099066Y24141829D01*
X17099066Y24141829D02*
X16860971Y24141829D01*
X16860971Y24141829D02*
X16765733Y24094210D01*
X16765733Y24094210D02*
X16718114Y24046591D01*
X16718114Y24046591D02*
X16670495Y23951353D01*
X16670495Y23951353D02*
X16670495Y23713258D01*
X16670495Y23713258D02*
X16718114Y23618020D01*
X16718114Y23618020D02*
X16765733Y23570400D01*
X16765733Y23570400D02*
X16860971Y23522781D01*
X16860971Y23522781D02*
X17099066Y23522781D01*
X17099066Y23522781D02*
X17194304Y23570400D01*
X17194304Y23570400D02*
X17241923Y23618020D01*
X17625219Y22080458D02*
X17149028Y22413791D01*
X17625219Y22651886D02*
X16625219Y22651886D01*
X16625219Y22651886D02*
X16625219Y22270934D01*
X16625219Y22270934D02*
X16672838Y22175696D01*
X16672838Y22175696D02*
X16720457Y22128077D01*
X16720457Y22128077D02*
X16815695Y22080458D01*
X16815695Y22080458D02*
X16958552Y22080458D01*
X16958552Y22080458D02*
X17053790Y22128077D01*
X17053790Y22128077D02*
X17101409Y22175696D01*
X17101409Y22175696D02*
X17149028Y22270934D01*
X17149028Y22270934D02*
X17149028Y22651886D01*
X17625219Y21128077D02*
X17625219Y21699505D01*
X17625219Y21413791D02*
X16625219Y21413791D01*
X16625219Y21413791D02*
X16768076Y21509029D01*
X16768076Y21509029D02*
X16863314Y21604267D01*
X16863314Y21604267D02*
X16910933Y21699505D01*
X16625219Y20794743D02*
X16625219Y20128077D01*
X16625219Y20128077D02*
X17625219Y20556648D01*
X31394304Y7784181D02*
X31394304Y6974658D01*
X31394304Y6974658D02*
X31346685Y6879420D01*
X31346685Y6879420D02*
X31299066Y6831800D01*
X31299066Y6831800D02*
X31203828Y6784181D01*
X31203828Y6784181D02*
X31013352Y6784181D01*
X31013352Y6784181D02*
X30918114Y6831800D01*
X30918114Y6831800D02*
X30870495Y6879420D01*
X30870495Y6879420D02*
X30822876Y6974658D01*
X30822876Y6974658D02*
X30822876Y7784181D01*
X29822876Y6784181D02*
X30394304Y6784181D01*
X30108590Y6784181D02*
X30108590Y7784181D01*
X30108590Y7784181D02*
X30203828Y7641324D01*
X30203828Y7641324D02*
X30299066Y7546086D01*
X30299066Y7546086D02*
X30394304Y7498467D01*
X34588438Y36229143D02*
X34683676Y36276762D01*
X34683676Y36276762D02*
X34778914Y36372000D01*
X34778914Y36372000D02*
X34921771Y36514858D01*
X34921771Y36514858D02*
X35017009Y36562477D01*
X35017009Y36562477D02*
X35112247Y36562477D01*
X35064628Y36324381D02*
X35159866Y36372000D01*
X35159866Y36372000D02*
X35255104Y36467239D01*
X35255104Y36467239D02*
X35302723Y36657715D01*
X35302723Y36657715D02*
X35302723Y36991048D01*
X35302723Y36991048D02*
X35255104Y37181524D01*
X35255104Y37181524D02*
X35159866Y37276762D01*
X35159866Y37276762D02*
X35064628Y37324381D01*
X35064628Y37324381D02*
X34874152Y37324381D01*
X34874152Y37324381D02*
X34778914Y37276762D01*
X34778914Y37276762D02*
X34683676Y37181524D01*
X34683676Y37181524D02*
X34636057Y36991048D01*
X34636057Y36991048D02*
X34636057Y36657715D01*
X34636057Y36657715D02*
X34683676Y36467239D01*
X34683676Y36467239D02*
X34778914Y36372000D01*
X34778914Y36372000D02*
X34874152Y36324381D01*
X34874152Y36324381D02*
X35064628Y36324381D01*
X33683676Y36324381D02*
X34255104Y36324381D01*
X33969390Y36324381D02*
X33969390Y37324381D01*
X33969390Y37324381D02*
X34064628Y37181524D01*
X34064628Y37181524D02*
X34159866Y37086286D01*
X34159866Y37086286D02*
X34255104Y37038667D01*
X23746619Y36964858D02*
X23270428Y37298191D01*
X23746619Y37536286D02*
X22746619Y37536286D01*
X22746619Y37536286D02*
X22746619Y37155334D01*
X22746619Y37155334D02*
X22794238Y37060096D01*
X22794238Y37060096D02*
X22841857Y37012477D01*
X22841857Y37012477D02*
X22937095Y36964858D01*
X22937095Y36964858D02*
X23079952Y36964858D01*
X23079952Y36964858D02*
X23175190Y37012477D01*
X23175190Y37012477D02*
X23222809Y37060096D01*
X23222809Y37060096D02*
X23270428Y37155334D01*
X23270428Y37155334D02*
X23270428Y37536286D01*
X23746619Y36012477D02*
X23746619Y36583905D01*
X23746619Y36298191D02*
X22746619Y36298191D01*
X22746619Y36298191D02*
X22889476Y36393429D01*
X22889476Y36393429D02*
X22984714Y36488667D01*
X22984714Y36488667D02*
X23032333Y36583905D01*
X23746619Y35536286D02*
X23746619Y35345810D01*
X23746619Y35345810D02*
X23699000Y35250572D01*
X23699000Y35250572D02*
X23651380Y35202953D01*
X23651380Y35202953D02*
X23508523Y35107715D01*
X23508523Y35107715D02*
X23318047Y35060096D01*
X23318047Y35060096D02*
X22937095Y35060096D01*
X22937095Y35060096D02*
X22841857Y35107715D01*
X22841857Y35107715D02*
X22794238Y35155334D01*
X22794238Y35155334D02*
X22746619Y35250572D01*
X22746619Y35250572D02*
X22746619Y35441048D01*
X22746619Y35441048D02*
X22794238Y35536286D01*
X22794238Y35536286D02*
X22841857Y35583905D01*
X22841857Y35583905D02*
X22937095Y35631524D01*
X22937095Y35631524D02*
X23175190Y35631524D01*
X23175190Y35631524D02*
X23270428Y35583905D01*
X23270428Y35583905D02*
X23318047Y35536286D01*
X23318047Y35536286D02*
X23365666Y35441048D01*
X23365666Y35441048D02*
X23365666Y35250572D01*
X23365666Y35250572D02*
X23318047Y35155334D01*
X23318047Y35155334D02*
X23270428Y35107715D01*
X23270428Y35107715D02*
X23175190Y35060096D01*
X34664638Y34628943D02*
X34759876Y34676562D01*
X34759876Y34676562D02*
X34855114Y34771800D01*
X34855114Y34771800D02*
X34997971Y34914658D01*
X34997971Y34914658D02*
X35093209Y34962277D01*
X35093209Y34962277D02*
X35188447Y34962277D01*
X35140828Y34724181D02*
X35236066Y34771800D01*
X35236066Y34771800D02*
X35331304Y34867039D01*
X35331304Y34867039D02*
X35378923Y35057515D01*
X35378923Y35057515D02*
X35378923Y35390848D01*
X35378923Y35390848D02*
X35331304Y35581324D01*
X35331304Y35581324D02*
X35236066Y35676562D01*
X35236066Y35676562D02*
X35140828Y35724181D01*
X35140828Y35724181D02*
X34950352Y35724181D01*
X34950352Y35724181D02*
X34855114Y35676562D01*
X34855114Y35676562D02*
X34759876Y35581324D01*
X34759876Y35581324D02*
X34712257Y35390848D01*
X34712257Y35390848D02*
X34712257Y35057515D01*
X34712257Y35057515D02*
X34759876Y34867039D01*
X34759876Y34867039D02*
X34855114Y34771800D01*
X34855114Y34771800D02*
X34950352Y34724181D01*
X34950352Y34724181D02*
X35140828Y34724181D01*
X34331304Y35628943D02*
X34283685Y35676562D01*
X34283685Y35676562D02*
X34188447Y35724181D01*
X34188447Y35724181D02*
X33950352Y35724181D01*
X33950352Y35724181D02*
X33855114Y35676562D01*
X33855114Y35676562D02*
X33807495Y35628943D01*
X33807495Y35628943D02*
X33759876Y35533705D01*
X33759876Y35533705D02*
X33759876Y35438467D01*
X33759876Y35438467D02*
X33807495Y35295610D01*
X33807495Y35295610D02*
X34378923Y34724181D01*
X34378923Y34724181D02*
X33759876Y34724181D01*
X24591180Y7354867D02*
X24638800Y7402486D01*
X24638800Y7402486D02*
X24686419Y7545343D01*
X24686419Y7545343D02*
X24686419Y7640581D01*
X24686419Y7640581D02*
X24638800Y7783438D01*
X24638800Y7783438D02*
X24543561Y7878676D01*
X24543561Y7878676D02*
X24448323Y7926295D01*
X24448323Y7926295D02*
X24257847Y7973914D01*
X24257847Y7973914D02*
X24114990Y7973914D01*
X24114990Y7973914D02*
X23924514Y7926295D01*
X23924514Y7926295D02*
X23829276Y7878676D01*
X23829276Y7878676D02*
X23734038Y7783438D01*
X23734038Y7783438D02*
X23686419Y7640581D01*
X23686419Y7640581D02*
X23686419Y7545343D01*
X23686419Y7545343D02*
X23734038Y7402486D01*
X23734038Y7402486D02*
X23781657Y7354867D01*
X24686419Y6402486D02*
X24686419Y6973914D01*
X24686419Y6688200D02*
X23686419Y6688200D01*
X23686419Y6688200D02*
X23829276Y6783438D01*
X23829276Y6783438D02*
X23924514Y6878676D01*
X23924514Y6878676D02*
X23972133Y6973914D01*
X25073780Y13527067D02*
X25121400Y13574686D01*
X25121400Y13574686D02*
X25169019Y13717543D01*
X25169019Y13717543D02*
X25169019Y13812781D01*
X25169019Y13812781D02*
X25121400Y13955638D01*
X25121400Y13955638D02*
X25026161Y14050876D01*
X25026161Y14050876D02*
X24930923Y14098495D01*
X24930923Y14098495D02*
X24740447Y14146114D01*
X24740447Y14146114D02*
X24597590Y14146114D01*
X24597590Y14146114D02*
X24407114Y14098495D01*
X24407114Y14098495D02*
X24311876Y14050876D01*
X24311876Y14050876D02*
X24216638Y13955638D01*
X24216638Y13955638D02*
X24169019Y13812781D01*
X24169019Y13812781D02*
X24169019Y13717543D01*
X24169019Y13717543D02*
X24216638Y13574686D01*
X24216638Y13574686D02*
X24264257Y13527067D01*
X24169019Y13193733D02*
X24169019Y12574686D01*
X24169019Y12574686D02*
X24549971Y12908019D01*
X24549971Y12908019D02*
X24549971Y12765162D01*
X24549971Y12765162D02*
X24597590Y12669924D01*
X24597590Y12669924D02*
X24645209Y12622305D01*
X24645209Y12622305D02*
X24740447Y12574686D01*
X24740447Y12574686D02*
X24978542Y12574686D01*
X24978542Y12574686D02*
X25073780Y12622305D01*
X25073780Y12622305D02*
X25121400Y12669924D01*
X25121400Y12669924D02*
X25169019Y12765162D01*
X25169019Y12765162D02*
X25169019Y13050876D01*
X25169019Y13050876D02*
X25121400Y13146114D01*
X25121400Y13146114D02*
X25073780Y13193733D01*
X32602466Y15972620D02*
X32650085Y15925000D01*
X32650085Y15925000D02*
X32792942Y15877381D01*
X32792942Y15877381D02*
X32888180Y15877381D01*
X32888180Y15877381D02*
X33031037Y15925000D01*
X33031037Y15925000D02*
X33126275Y16020239D01*
X33126275Y16020239D02*
X33173894Y16115477D01*
X33173894Y16115477D02*
X33221513Y16305953D01*
X33221513Y16305953D02*
X33221513Y16448810D01*
X33221513Y16448810D02*
X33173894Y16639286D01*
X33173894Y16639286D02*
X33126275Y16734524D01*
X33126275Y16734524D02*
X33031037Y16829762D01*
X33031037Y16829762D02*
X32888180Y16877381D01*
X32888180Y16877381D02*
X32792942Y16877381D01*
X32792942Y16877381D02*
X32650085Y16829762D01*
X32650085Y16829762D02*
X32602466Y16782143D01*
X31697704Y16877381D02*
X32173894Y16877381D01*
X32173894Y16877381D02*
X32221513Y16401191D01*
X32221513Y16401191D02*
X32173894Y16448810D01*
X32173894Y16448810D02*
X32078656Y16496429D01*
X32078656Y16496429D02*
X31840561Y16496429D01*
X31840561Y16496429D02*
X31745323Y16448810D01*
X31745323Y16448810D02*
X31697704Y16401191D01*
X31697704Y16401191D02*
X31650085Y16305953D01*
X31650085Y16305953D02*
X31650085Y16067858D01*
X31650085Y16067858D02*
X31697704Y15972620D01*
X31697704Y15972620D02*
X31745323Y15925000D01*
X31745323Y15925000D02*
X31840561Y15877381D01*
X31840561Y15877381D02*
X32078656Y15877381D01*
X32078656Y15877381D02*
X32173894Y15925000D01*
X32173894Y15925000D02*
X32221513Y15972620D01*
X21085980Y18448258D02*
X21133600Y18495877D01*
X21133600Y18495877D02*
X21181219Y18638734D01*
X21181219Y18638734D02*
X21181219Y18733972D01*
X21181219Y18733972D02*
X21133600Y18876829D01*
X21133600Y18876829D02*
X21038361Y18972067D01*
X21038361Y18972067D02*
X20943123Y19019686D01*
X20943123Y19019686D02*
X20752647Y19067305D01*
X20752647Y19067305D02*
X20609790Y19067305D01*
X20609790Y19067305D02*
X20419314Y19019686D01*
X20419314Y19019686D02*
X20324076Y18972067D01*
X20324076Y18972067D02*
X20228838Y18876829D01*
X20228838Y18876829D02*
X20181219Y18733972D01*
X20181219Y18733972D02*
X20181219Y18638734D01*
X20181219Y18638734D02*
X20228838Y18495877D01*
X20228838Y18495877D02*
X20276457Y18448258D01*
X21181219Y17495877D02*
X21181219Y18067305D01*
X21181219Y17781591D02*
X20181219Y17781591D01*
X20181219Y17781591D02*
X20324076Y17876829D01*
X20324076Y17876829D02*
X20419314Y17972067D01*
X20419314Y17972067D02*
X20466933Y18067305D01*
X20181219Y16591115D02*
X20181219Y17067305D01*
X20181219Y17067305D02*
X20657409Y17114924D01*
X20657409Y17114924D02*
X20609790Y17067305D01*
X20609790Y17067305D02*
X20562171Y16972067D01*
X20562171Y16972067D02*
X20562171Y16733972D01*
X20562171Y16733972D02*
X20609790Y16638734D01*
X20609790Y16638734D02*
X20657409Y16591115D01*
X20657409Y16591115D02*
X20752647Y16543496D01*
X20752647Y16543496D02*
X20990742Y16543496D01*
X20990742Y16543496D02*
X21085980Y16591115D01*
X21085980Y16591115D02*
X21133600Y16638734D01*
X21133600Y16638734D02*
X21181219Y16733972D01*
X21181219Y16733972D02*
X21181219Y16972067D01*
X21181219Y16972067D02*
X21133600Y17067305D01*
X21133600Y17067305D02*
X21085980Y17114924D01*
X14972819Y11152095D02*
X13972819Y11152095D01*
X13972819Y11152095D02*
X13972819Y10914000D01*
X13972819Y10914000D02*
X14020438Y10771143D01*
X14020438Y10771143D02*
X14115676Y10675905D01*
X14115676Y10675905D02*
X14210914Y10628286D01*
X14210914Y10628286D02*
X14401390Y10580667D01*
X14401390Y10580667D02*
X14544247Y10580667D01*
X14544247Y10580667D02*
X14734723Y10628286D01*
X14734723Y10628286D02*
X14829961Y10675905D01*
X14829961Y10675905D02*
X14925200Y10771143D01*
X14925200Y10771143D02*
X14972819Y10914000D01*
X14972819Y10914000D02*
X14972819Y11152095D01*
X14972819Y9628286D02*
X14972819Y10199714D01*
X14972819Y9914000D02*
X13972819Y9914000D01*
X13972819Y9914000D02*
X14115676Y10009238D01*
X14115676Y10009238D02*
X14210914Y10104476D01*
X14210914Y10104476D02*
X14258533Y10199714D01*
X25219819Y23306067D02*
X25219819Y23782257D01*
X25219819Y23782257D02*
X24219819Y23782257D01*
X24648390Y22829876D02*
X24600771Y22925114D01*
X24600771Y22925114D02*
X24553152Y22972733D01*
X24553152Y22972733D02*
X24457914Y23020352D01*
X24457914Y23020352D02*
X24410295Y23020352D01*
X24410295Y23020352D02*
X24315057Y22972733D01*
X24315057Y22972733D02*
X24267438Y22925114D01*
X24267438Y22925114D02*
X24219819Y22829876D01*
X24219819Y22829876D02*
X24219819Y22639400D01*
X24219819Y22639400D02*
X24267438Y22544162D01*
X24267438Y22544162D02*
X24315057Y22496543D01*
X24315057Y22496543D02*
X24410295Y22448924D01*
X24410295Y22448924D02*
X24457914Y22448924D01*
X24457914Y22448924D02*
X24553152Y22496543D01*
X24553152Y22496543D02*
X24600771Y22544162D01*
X24600771Y22544162D02*
X24648390Y22639400D01*
X24648390Y22639400D02*
X24648390Y22829876D01*
X24648390Y22829876D02*
X24696009Y22925114D01*
X24696009Y22925114D02*
X24743628Y22972733D01*
X24743628Y22972733D02*
X24838866Y23020352D01*
X24838866Y23020352D02*
X25029342Y23020352D01*
X25029342Y23020352D02*
X25124580Y22972733D01*
X25124580Y22972733D02*
X25172200Y22925114D01*
X25172200Y22925114D02*
X25219819Y22829876D01*
X25219819Y22829876D02*
X25219819Y22639400D01*
X25219819Y22639400D02*
X25172200Y22544162D01*
X25172200Y22544162D02*
X25124580Y22496543D01*
X25124580Y22496543D02*
X25029342Y22448924D01*
X25029342Y22448924D02*
X24838866Y22448924D01*
X24838866Y22448924D02*
X24743628Y22496543D01*
X24743628Y22496543D02*
X24696009Y22544162D01*
X24696009Y22544162D02*
X24648390Y22639400D01*
X32941419Y22137667D02*
X32465228Y22471000D01*
X32941419Y22709095D02*
X31941419Y22709095D01*
X31941419Y22709095D02*
X31941419Y22328143D01*
X31941419Y22328143D02*
X31989038Y22232905D01*
X31989038Y22232905D02*
X32036657Y22185286D01*
X32036657Y22185286D02*
X32131895Y22137667D01*
X32131895Y22137667D02*
X32274752Y22137667D01*
X32274752Y22137667D02*
X32369990Y22185286D01*
X32369990Y22185286D02*
X32417609Y22232905D01*
X32417609Y22232905D02*
X32465228Y22328143D01*
X32465228Y22328143D02*
X32465228Y22709095D01*
X32941419Y21185286D02*
X32941419Y21756714D01*
X32941419Y21471000D02*
X31941419Y21471000D01*
X31941419Y21471000D02*
X32084276Y21566238D01*
X32084276Y21566238D02*
X32179514Y21661476D01*
X32179514Y21661476D02*
X32227133Y21756714D01*
X17514866Y26113581D02*
X17848199Y26589772D01*
X18086294Y26113581D02*
X18086294Y27113581D01*
X18086294Y27113581D02*
X17705342Y27113581D01*
X17705342Y27113581D02*
X17610104Y27065962D01*
X17610104Y27065962D02*
X17562485Y27018343D01*
X17562485Y27018343D02*
X17514866Y26923105D01*
X17514866Y26923105D02*
X17514866Y26780248D01*
X17514866Y26780248D02*
X17562485Y26685010D01*
X17562485Y26685010D02*
X17610104Y26637391D01*
X17610104Y26637391D02*
X17705342Y26589772D01*
X17705342Y26589772D02*
X18086294Y26589772D01*
X17038675Y26113581D02*
X16848199Y26113581D01*
X16848199Y26113581D02*
X16752961Y26161200D01*
X16752961Y26161200D02*
X16705342Y26208820D01*
X16705342Y26208820D02*
X16610104Y26351677D01*
X16610104Y26351677D02*
X16562485Y26542153D01*
X16562485Y26542153D02*
X16562485Y26923105D01*
X16562485Y26923105D02*
X16610104Y27018343D01*
X16610104Y27018343D02*
X16657723Y27065962D01*
X16657723Y27065962D02*
X16752961Y27113581D01*
X16752961Y27113581D02*
X16943437Y27113581D01*
X16943437Y27113581D02*
X17038675Y27065962D01*
X17038675Y27065962D02*
X17086294Y27018343D01*
X17086294Y27018343D02*
X17133913Y26923105D01*
X17133913Y26923105D02*
X17133913Y26685010D01*
X17133913Y26685010D02*
X17086294Y26589772D01*
X17086294Y26589772D02*
X17038675Y26542153D01*
X17038675Y26542153D02*
X16943437Y26494534D01*
X16943437Y26494534D02*
X16752961Y26494534D01*
X16752961Y26494534D02*
X16657723Y26542153D01*
X16657723Y26542153D02*
X16610104Y26589772D01*
X16610104Y26589772D02*
X16562485Y26685010D01*
X17396619Y32418258D02*
X16920428Y32751591D01*
X17396619Y32989686D02*
X16396619Y32989686D01*
X16396619Y32989686D02*
X16396619Y32608734D01*
X16396619Y32608734D02*
X16444238Y32513496D01*
X16444238Y32513496D02*
X16491857Y32465877D01*
X16491857Y32465877D02*
X16587095Y32418258D01*
X16587095Y32418258D02*
X16729952Y32418258D01*
X16729952Y32418258D02*
X16825190Y32465877D01*
X16825190Y32465877D02*
X16872809Y32513496D01*
X16872809Y32513496D02*
X16920428Y32608734D01*
X16920428Y32608734D02*
X16920428Y32989686D01*
X17396619Y31465877D02*
X17396619Y32037305D01*
X17396619Y31751591D02*
X16396619Y31751591D01*
X16396619Y31751591D02*
X16539476Y31846829D01*
X16539476Y31846829D02*
X16634714Y31942067D01*
X16634714Y31942067D02*
X16682333Y32037305D01*
X16396619Y30846829D02*
X16396619Y30751591D01*
X16396619Y30751591D02*
X16444238Y30656353D01*
X16444238Y30656353D02*
X16491857Y30608734D01*
X16491857Y30608734D02*
X16587095Y30561115D01*
X16587095Y30561115D02*
X16777571Y30513496D01*
X16777571Y30513496D02*
X17015666Y30513496D01*
X17015666Y30513496D02*
X17206142Y30561115D01*
X17206142Y30561115D02*
X17301380Y30608734D01*
X17301380Y30608734D02*
X17349000Y30656353D01*
X17349000Y30656353D02*
X17396619Y30751591D01*
X17396619Y30751591D02*
X17396619Y30846829D01*
X17396619Y30846829D02*
X17349000Y30942067D01*
X17349000Y30942067D02*
X17301380Y30989686D01*
X17301380Y30989686D02*
X17206142Y31037305D01*
X17206142Y31037305D02*
X17015666Y31084924D01*
X17015666Y31084924D02*
X16777571Y31084924D01*
X16777571Y31084924D02*
X16587095Y31037305D01*
X16587095Y31037305D02*
X16491857Y30989686D01*
X16491857Y30989686D02*
X16444238Y30942067D01*
X16444238Y30942067D02*
X16396619Y30846829D01*
X23045657Y22659181D02*
X23378990Y23135372D01*
X23617085Y22659181D02*
X23617085Y23659181D01*
X23617085Y23659181D02*
X23236133Y23659181D01*
X23236133Y23659181D02*
X23140895Y23611562D01*
X23140895Y23611562D02*
X23093276Y23563943D01*
X23093276Y23563943D02*
X23045657Y23468705D01*
X23045657Y23468705D02*
X23045657Y23325848D01*
X23045657Y23325848D02*
X23093276Y23230610D01*
X23093276Y23230610D02*
X23140895Y23182991D01*
X23140895Y23182991D02*
X23236133Y23135372D01*
X23236133Y23135372D02*
X23617085Y23135372D01*
X22093276Y22659181D02*
X22664704Y22659181D01*
X22378990Y22659181D02*
X22378990Y23659181D01*
X22378990Y23659181D02*
X22474228Y23516324D01*
X22474228Y23516324D02*
X22569466Y23421086D01*
X22569466Y23421086D02*
X22664704Y23373467D01*
X21759942Y23659181D02*
X21140895Y23659181D01*
X21140895Y23659181D02*
X21474228Y23278229D01*
X21474228Y23278229D02*
X21331371Y23278229D01*
X21331371Y23278229D02*
X21236133Y23230610D01*
X21236133Y23230610D02*
X21188514Y23182991D01*
X21188514Y23182991D02*
X21140895Y23087753D01*
X21140895Y23087753D02*
X21140895Y22849658D01*
X21140895Y22849658D02*
X21188514Y22754420D01*
X21188514Y22754420D02*
X21236133Y22706800D01*
X21236133Y22706800D02*
X21331371Y22659181D01*
X21331371Y22659181D02*
X21617085Y22659181D01*
X21617085Y22659181D02*
X21712323Y22706800D01*
X21712323Y22706800D02*
X21759942Y22754420D01*
X15400257Y16791781D02*
X15733590Y17267972D01*
X15971685Y16791781D02*
X15971685Y17791781D01*
X15971685Y17791781D02*
X15590733Y17791781D01*
X15590733Y17791781D02*
X15495495Y17744162D01*
X15495495Y17744162D02*
X15447876Y17696543D01*
X15447876Y17696543D02*
X15400257Y17601305D01*
X15400257Y17601305D02*
X15400257Y17458448D01*
X15400257Y17458448D02*
X15447876Y17363210D01*
X15447876Y17363210D02*
X15495495Y17315591D01*
X15495495Y17315591D02*
X15590733Y17267972D01*
X15590733Y17267972D02*
X15971685Y17267972D01*
X14447876Y16791781D02*
X15019304Y16791781D01*
X14733590Y16791781D02*
X14733590Y17791781D01*
X14733590Y17791781D02*
X14828828Y17648924D01*
X14828828Y17648924D02*
X14924066Y17553686D01*
X14924066Y17553686D02*
X15019304Y17506067D01*
X13590733Y17791781D02*
X13781209Y17791781D01*
X13781209Y17791781D02*
X13876447Y17744162D01*
X13876447Y17744162D02*
X13924066Y17696543D01*
X13924066Y17696543D02*
X14019304Y17553686D01*
X14019304Y17553686D02*
X14066923Y17363210D01*
X14066923Y17363210D02*
X14066923Y16982258D01*
X14066923Y16982258D02*
X14019304Y16887020D01*
X14019304Y16887020D02*
X13971685Y16839400D01*
X13971685Y16839400D02*
X13876447Y16791781D01*
X13876447Y16791781D02*
X13685971Y16791781D01*
X13685971Y16791781D02*
X13590733Y16839400D01*
X13590733Y16839400D02*
X13543114Y16887020D01*
X13543114Y16887020D02*
X13495495Y16982258D01*
X13495495Y16982258D02*
X13495495Y17220353D01*
X13495495Y17220353D02*
X13543114Y17315591D01*
X13543114Y17315591D02*
X13590733Y17363210D01*
X13590733Y17363210D02*
X13685971Y17410829D01*
X13685971Y17410829D02*
X13876447Y17410829D01*
X13876447Y17410829D02*
X13971685Y17363210D01*
X13971685Y17363210D02*
X14019304Y17315591D01*
X14019304Y17315591D02*
X14066923Y17220353D01*
X39073057Y41048781D02*
X39406390Y41524972D01*
X39644485Y41048781D02*
X39644485Y42048781D01*
X39644485Y42048781D02*
X39263533Y42048781D01*
X39263533Y42048781D02*
X39168295Y42001162D01*
X39168295Y42001162D02*
X39120676Y41953543D01*
X39120676Y41953543D02*
X39073057Y41858305D01*
X39073057Y41858305D02*
X39073057Y41715448D01*
X39073057Y41715448D02*
X39120676Y41620210D01*
X39120676Y41620210D02*
X39168295Y41572591D01*
X39168295Y41572591D02*
X39263533Y41524972D01*
X39263533Y41524972D02*
X39644485Y41524972D01*
X38692104Y41953543D02*
X38644485Y42001162D01*
X38644485Y42001162D02*
X38549247Y42048781D01*
X38549247Y42048781D02*
X38311152Y42048781D01*
X38311152Y42048781D02*
X38215914Y42001162D01*
X38215914Y42001162D02*
X38168295Y41953543D01*
X38168295Y41953543D02*
X38120676Y41858305D01*
X38120676Y41858305D02*
X38120676Y41763067D01*
X38120676Y41763067D02*
X38168295Y41620210D01*
X38168295Y41620210D02*
X38739723Y41048781D01*
X38739723Y41048781D02*
X38120676Y41048781D01*
X37739723Y41953543D02*
X37692104Y42001162D01*
X37692104Y42001162D02*
X37596866Y42048781D01*
X37596866Y42048781D02*
X37358771Y42048781D01*
X37358771Y42048781D02*
X37263533Y42001162D01*
X37263533Y42001162D02*
X37215914Y41953543D01*
X37215914Y41953543D02*
X37168295Y41858305D01*
X37168295Y41858305D02*
X37168295Y41763067D01*
X37168295Y41763067D02*
X37215914Y41620210D01*
X37215914Y41620210D02*
X37787342Y41048781D01*
X37787342Y41048781D02*
X37168295Y41048781D01*
X39352457Y36857781D02*
X39685790Y37333972D01*
X39923885Y36857781D02*
X39923885Y37857781D01*
X39923885Y37857781D02*
X39542933Y37857781D01*
X39542933Y37857781D02*
X39447695Y37810162D01*
X39447695Y37810162D02*
X39400076Y37762543D01*
X39400076Y37762543D02*
X39352457Y37667305D01*
X39352457Y37667305D02*
X39352457Y37524448D01*
X39352457Y37524448D02*
X39400076Y37429210D01*
X39400076Y37429210D02*
X39447695Y37381591D01*
X39447695Y37381591D02*
X39542933Y37333972D01*
X39542933Y37333972D02*
X39923885Y37333972D01*
X38971504Y37762543D02*
X38923885Y37810162D01*
X38923885Y37810162D02*
X38828647Y37857781D01*
X38828647Y37857781D02*
X38590552Y37857781D01*
X38590552Y37857781D02*
X38495314Y37810162D01*
X38495314Y37810162D02*
X38447695Y37762543D01*
X38447695Y37762543D02*
X38400076Y37667305D01*
X38400076Y37667305D02*
X38400076Y37572067D01*
X38400076Y37572067D02*
X38447695Y37429210D01*
X38447695Y37429210D02*
X39019123Y36857781D01*
X39019123Y36857781D02*
X38400076Y36857781D01*
X38066742Y37857781D02*
X37447695Y37857781D01*
X37447695Y37857781D02*
X37781028Y37476829D01*
X37781028Y37476829D02*
X37638171Y37476829D01*
X37638171Y37476829D02*
X37542933Y37429210D01*
X37542933Y37429210D02*
X37495314Y37381591D01*
X37495314Y37381591D02*
X37447695Y37286353D01*
X37447695Y37286353D02*
X37447695Y37048258D01*
X37447695Y37048258D02*
X37495314Y36953020D01*
X37495314Y36953020D02*
X37542933Y36905400D01*
X37542933Y36905400D02*
X37638171Y36857781D01*
X37638171Y36857781D02*
X37923885Y36857781D01*
X37923885Y36857781D02*
X38019123Y36905400D01*
X38019123Y36905400D02*
X38066742Y36953020D01*
X23346580Y18219658D02*
X23394200Y18267277D01*
X23394200Y18267277D02*
X23441819Y18410134D01*
X23441819Y18410134D02*
X23441819Y18505372D01*
X23441819Y18505372D02*
X23394200Y18648229D01*
X23394200Y18648229D02*
X23298961Y18743467D01*
X23298961Y18743467D02*
X23203723Y18791086D01*
X23203723Y18791086D02*
X23013247Y18838705D01*
X23013247Y18838705D02*
X22870390Y18838705D01*
X22870390Y18838705D02*
X22679914Y18791086D01*
X22679914Y18791086D02*
X22584676Y18743467D01*
X22584676Y18743467D02*
X22489438Y18648229D01*
X22489438Y18648229D02*
X22441819Y18505372D01*
X22441819Y18505372D02*
X22441819Y18410134D01*
X22441819Y18410134D02*
X22489438Y18267277D01*
X22489438Y18267277D02*
X22537057Y18219658D01*
X22537057Y17838705D02*
X22489438Y17791086D01*
X22489438Y17791086D02*
X22441819Y17695848D01*
X22441819Y17695848D02*
X22441819Y17457753D01*
X22441819Y17457753D02*
X22489438Y17362515D01*
X22489438Y17362515D02*
X22537057Y17314896D01*
X22537057Y17314896D02*
X22632295Y17267277D01*
X22632295Y17267277D02*
X22727533Y17267277D01*
X22727533Y17267277D02*
X22870390Y17314896D01*
X22870390Y17314896D02*
X23441819Y17886324D01*
X23441819Y17886324D02*
X23441819Y17267277D01*
X22441819Y16648229D02*
X22441819Y16552991D01*
X22441819Y16552991D02*
X22489438Y16457753D01*
X22489438Y16457753D02*
X22537057Y16410134D01*
X22537057Y16410134D02*
X22632295Y16362515D01*
X22632295Y16362515D02*
X22822771Y16314896D01*
X22822771Y16314896D02*
X23060866Y16314896D01*
X23060866Y16314896D02*
X23251342Y16362515D01*
X23251342Y16362515D02*
X23346580Y16410134D01*
X23346580Y16410134D02*
X23394200Y16457753D01*
X23394200Y16457753D02*
X23441819Y16552991D01*
X23441819Y16552991D02*
X23441819Y16648229D01*
X23441819Y16648229D02*
X23394200Y16743467D01*
X23394200Y16743467D02*
X23346580Y16791086D01*
X23346580Y16791086D02*
X23251342Y16838705D01*
X23251342Y16838705D02*
X23060866Y16886324D01*
X23060866Y16886324D02*
X22822771Y16886324D01*
X22822771Y16886324D02*
X22632295Y16838705D01*
X22632295Y16838705D02*
X22537057Y16791086D01*
X22537057Y16791086D02*
X22489438Y16743467D01*
X22489438Y16743467D02*
X22441819Y16648229D01*
X31707057Y20163620D02*
X31754676Y20116000D01*
X31754676Y20116000D02*
X31897533Y20068381D01*
X31897533Y20068381D02*
X31992771Y20068381D01*
X31992771Y20068381D02*
X32135628Y20116000D01*
X32135628Y20116000D02*
X32230866Y20211239D01*
X32230866Y20211239D02*
X32278485Y20306477D01*
X32278485Y20306477D02*
X32326104Y20496953D01*
X32326104Y20496953D02*
X32326104Y20639810D01*
X32326104Y20639810D02*
X32278485Y20830286D01*
X32278485Y20830286D02*
X32230866Y20925524D01*
X32230866Y20925524D02*
X32135628Y21020762D01*
X32135628Y21020762D02*
X31992771Y21068381D01*
X31992771Y21068381D02*
X31897533Y21068381D01*
X31897533Y21068381D02*
X31754676Y21020762D01*
X31754676Y21020762D02*
X31707057Y20973143D01*
X30754676Y20068381D02*
X31326104Y20068381D01*
X31040390Y20068381D02*
X31040390Y21068381D01*
X31040390Y21068381D02*
X31135628Y20925524D01*
X31135628Y20925524D02*
X31230866Y20830286D01*
X31230866Y20830286D02*
X31326104Y20782667D01*
X30421342Y21068381D02*
X29754676Y21068381D01*
X29754676Y21068381D02*
X30183247Y20068381D01*
X38825466Y6371420D02*
X38873085Y6323800D01*
X38873085Y6323800D02*
X39015942Y6276181D01*
X39015942Y6276181D02*
X39111180Y6276181D01*
X39111180Y6276181D02*
X39254037Y6323800D01*
X39254037Y6323800D02*
X39349275Y6419039D01*
X39349275Y6419039D02*
X39396894Y6514277D01*
X39396894Y6514277D02*
X39444513Y6704753D01*
X39444513Y6704753D02*
X39444513Y6847610D01*
X39444513Y6847610D02*
X39396894Y7038086D01*
X39396894Y7038086D02*
X39349275Y7133324D01*
X39349275Y7133324D02*
X39254037Y7228562D01*
X39254037Y7228562D02*
X39111180Y7276181D01*
X39111180Y7276181D02*
X39015942Y7276181D01*
X39015942Y7276181D02*
X38873085Y7228562D01*
X38873085Y7228562D02*
X38825466Y7180943D01*
X38444513Y7180943D02*
X38396894Y7228562D01*
X38396894Y7228562D02*
X38301656Y7276181D01*
X38301656Y7276181D02*
X38063561Y7276181D01*
X38063561Y7276181D02*
X37968323Y7228562D01*
X37968323Y7228562D02*
X37920704Y7180943D01*
X37920704Y7180943D02*
X37873085Y7085705D01*
X37873085Y7085705D02*
X37873085Y6990467D01*
X37873085Y6990467D02*
X37920704Y6847610D01*
X37920704Y6847610D02*
X38492132Y6276181D01*
X38492132Y6276181D02*
X37873085Y6276181D01*
X17854819Y36964858D02*
X17378628Y37298191D01*
X17854819Y37536286D02*
X16854819Y37536286D01*
X16854819Y37536286D02*
X16854819Y37155334D01*
X16854819Y37155334D02*
X16902438Y37060096D01*
X16902438Y37060096D02*
X16950057Y37012477D01*
X16950057Y37012477D02*
X17045295Y36964858D01*
X17045295Y36964858D02*
X17188152Y36964858D01*
X17188152Y36964858D02*
X17283390Y37012477D01*
X17283390Y37012477D02*
X17331009Y37060096D01*
X17331009Y37060096D02*
X17378628Y37155334D01*
X17378628Y37155334D02*
X17378628Y37536286D01*
X17854819Y36012477D02*
X17854819Y36583905D01*
X17854819Y36298191D02*
X16854819Y36298191D01*
X16854819Y36298191D02*
X16997676Y36393429D01*
X16997676Y36393429D02*
X17092914Y36488667D01*
X17092914Y36488667D02*
X17140533Y36583905D01*
X17283390Y35441048D02*
X17235771Y35536286D01*
X17235771Y35536286D02*
X17188152Y35583905D01*
X17188152Y35583905D02*
X17092914Y35631524D01*
X17092914Y35631524D02*
X17045295Y35631524D01*
X17045295Y35631524D02*
X16950057Y35583905D01*
X16950057Y35583905D02*
X16902438Y35536286D01*
X16902438Y35536286D02*
X16854819Y35441048D01*
X16854819Y35441048D02*
X16854819Y35250572D01*
X16854819Y35250572D02*
X16902438Y35155334D01*
X16902438Y35155334D02*
X16950057Y35107715D01*
X16950057Y35107715D02*
X17045295Y35060096D01*
X17045295Y35060096D02*
X17092914Y35060096D01*
X17092914Y35060096D02*
X17188152Y35107715D01*
X17188152Y35107715D02*
X17235771Y35155334D01*
X17235771Y35155334D02*
X17283390Y35250572D01*
X17283390Y35250572D02*
X17283390Y35441048D01*
X17283390Y35441048D02*
X17331009Y35536286D01*
X17331009Y35536286D02*
X17378628Y35583905D01*
X17378628Y35583905D02*
X17473866Y35631524D01*
X17473866Y35631524D02*
X17664342Y35631524D01*
X17664342Y35631524D02*
X17759580Y35583905D01*
X17759580Y35583905D02*
X17807200Y35536286D01*
X17807200Y35536286D02*
X17854819Y35441048D01*
X17854819Y35441048D02*
X17854819Y35250572D01*
X17854819Y35250572D02*
X17807200Y35155334D01*
X17807200Y35155334D02*
X17759580Y35107715D01*
X17759580Y35107715D02*
X17664342Y35060096D01*
X17664342Y35060096D02*
X17473866Y35060096D01*
X17473866Y35060096D02*
X17378628Y35107715D01*
X17378628Y35107715D02*
X17331009Y35155334D01*
X17331009Y35155334D02*
X17283390Y35250572D01*
X18473657Y28526581D02*
X18806990Y29002772D01*
X19045085Y28526581D02*
X19045085Y29526581D01*
X19045085Y29526581D02*
X18664133Y29526581D01*
X18664133Y29526581D02*
X18568895Y29478962D01*
X18568895Y29478962D02*
X18521276Y29431343D01*
X18521276Y29431343D02*
X18473657Y29336105D01*
X18473657Y29336105D02*
X18473657Y29193248D01*
X18473657Y29193248D02*
X18521276Y29098010D01*
X18521276Y29098010D02*
X18568895Y29050391D01*
X18568895Y29050391D02*
X18664133Y29002772D01*
X18664133Y29002772D02*
X19045085Y29002772D01*
X17521276Y28526581D02*
X18092704Y28526581D01*
X17806990Y28526581D02*
X17806990Y29526581D01*
X17806990Y29526581D02*
X17902228Y29383724D01*
X17902228Y29383724D02*
X17997466Y29288486D01*
X17997466Y29288486D02*
X18092704Y29240867D01*
X16568895Y28526581D02*
X17140323Y28526581D01*
X16854609Y28526581D02*
X16854609Y29526581D01*
X16854609Y29526581D02*
X16949847Y29383724D01*
X16949847Y29383724D02*
X17045085Y29288486D01*
X17045085Y29288486D02*
X17140323Y29240867D01*
X15603457Y35587781D02*
X15936790Y36063972D01*
X16174885Y35587781D02*
X16174885Y36587781D01*
X16174885Y36587781D02*
X15793933Y36587781D01*
X15793933Y36587781D02*
X15698695Y36540162D01*
X15698695Y36540162D02*
X15651076Y36492543D01*
X15651076Y36492543D02*
X15603457Y36397305D01*
X15603457Y36397305D02*
X15603457Y36254448D01*
X15603457Y36254448D02*
X15651076Y36159210D01*
X15651076Y36159210D02*
X15698695Y36111591D01*
X15698695Y36111591D02*
X15793933Y36063972D01*
X15793933Y36063972D02*
X16174885Y36063972D01*
X14651076Y35587781D02*
X15222504Y35587781D01*
X14936790Y35587781D02*
X14936790Y36587781D01*
X14936790Y36587781D02*
X15032028Y36444924D01*
X15032028Y36444924D02*
X15127266Y36349686D01*
X15127266Y36349686D02*
X15222504Y36302067D01*
X14270123Y36492543D02*
X14222504Y36540162D01*
X14222504Y36540162D02*
X14127266Y36587781D01*
X14127266Y36587781D02*
X13889171Y36587781D01*
X13889171Y36587781D02*
X13793933Y36540162D01*
X13793933Y36540162D02*
X13746314Y36492543D01*
X13746314Y36492543D02*
X13698695Y36397305D01*
X13698695Y36397305D02*
X13698695Y36302067D01*
X13698695Y36302067D02*
X13746314Y36159210D01*
X13746314Y36159210D02*
X14317742Y35587781D01*
X14317742Y35587781D02*
X13698695Y35587781D01*
X25241190Y33650972D02*
X25241190Y33174781D01*
X25574523Y34174781D02*
X25241190Y33650972D01*
X25241190Y33650972D02*
X24907857Y34174781D01*
X24622142Y34079543D02*
X24574523Y34127162D01*
X24574523Y34127162D02*
X24479285Y34174781D01*
X24479285Y34174781D02*
X24241190Y34174781D01*
X24241190Y34174781D02*
X24145952Y34127162D01*
X24145952Y34127162D02*
X24098333Y34079543D01*
X24098333Y34079543D02*
X24050714Y33984305D01*
X24050714Y33984305D02*
X24050714Y33889067D01*
X24050714Y33889067D02*
X24098333Y33746210D01*
X24098333Y33746210D02*
X24669761Y33174781D01*
X24669761Y33174781D02*
X24050714Y33174781D01*
X18454019Y27914505D02*
X19263542Y27914505D01*
X19263542Y27914505D02*
X19358780Y27866886D01*
X19358780Y27866886D02*
X19406400Y27819267D01*
X19406400Y27819267D02*
X19454019Y27724029D01*
X19454019Y27724029D02*
X19454019Y27533553D01*
X19454019Y27533553D02*
X19406400Y27438315D01*
X19406400Y27438315D02*
X19358780Y27390696D01*
X19358780Y27390696D02*
X19263542Y27343077D01*
X19263542Y27343077D02*
X18454019Y27343077D01*
X18549257Y26914505D02*
X18501638Y26866886D01*
X18501638Y26866886D02*
X18454019Y26771648D01*
X18454019Y26771648D02*
X18454019Y26533553D01*
X18454019Y26533553D02*
X18501638Y26438315D01*
X18501638Y26438315D02*
X18549257Y26390696D01*
X18549257Y26390696D02*
X18644495Y26343077D01*
X18644495Y26343077D02*
X18739733Y26343077D01*
X18739733Y26343077D02*
X18882590Y26390696D01*
X18882590Y26390696D02*
X19454019Y26962124D01*
X19454019Y26962124D02*
X19454019Y26343077D01*
X32983466Y23421181D02*
X33459656Y23421181D01*
X33459656Y23421181D02*
X33459656Y24421181D01*
X32745370Y24421181D02*
X32078704Y24421181D01*
X32078704Y24421181D02*
X32507275Y23421181D01*
X32297666Y31371381D02*
X32773856Y31371381D01*
X32773856Y31371381D02*
X32773856Y32371381D01*
X31916713Y31371381D02*
X31726237Y31371381D01*
X31726237Y31371381D02*
X31630999Y31419000D01*
X31630999Y31419000D02*
X31583380Y31466620D01*
X31583380Y31466620D02*
X31488142Y31609477D01*
X31488142Y31609477D02*
X31440523Y31799953D01*
X31440523Y31799953D02*
X31440523Y32180905D01*
X31440523Y32180905D02*
X31488142Y32276143D01*
X31488142Y32276143D02*
X31535761Y32323762D01*
X31535761Y32323762D02*
X31630999Y32371381D01*
X31630999Y32371381D02*
X31821475Y32371381D01*
X31821475Y32371381D02*
X31916713Y32323762D01*
X31916713Y32323762D02*
X31964332Y32276143D01*
X31964332Y32276143D02*
X32011951Y32180905D01*
X32011951Y32180905D02*
X32011951Y31942810D01*
X32011951Y31942810D02*
X31964332Y31847572D01*
X31964332Y31847572D02*
X31916713Y31799953D01*
X31916713Y31799953D02*
X31821475Y31752334D01*
X31821475Y31752334D02*
X31630999Y31752334D01*
X31630999Y31752334D02*
X31535761Y31799953D01*
X31535761Y31799953D02*
X31488142Y31847572D01*
X31488142Y31847572D02*
X31440523Y31942810D01*
X37911066Y26545981D02*
X38387256Y26545981D01*
X38387256Y26545981D02*
X38387256Y27545981D01*
X37101542Y27545981D02*
X37577732Y27545981D01*
X37577732Y27545981D02*
X37625351Y27069791D01*
X37625351Y27069791D02*
X37577732Y27117410D01*
X37577732Y27117410D02*
X37482494Y27165029D01*
X37482494Y27165029D02*
X37244399Y27165029D01*
X37244399Y27165029D02*
X37149161Y27117410D01*
X37149161Y27117410D02*
X37101542Y27069791D01*
X37101542Y27069791D02*
X37053923Y26974553D01*
X37053923Y26974553D02*
X37053923Y26736458D01*
X37053923Y26736458D02*
X37101542Y26641220D01*
X37101542Y26641220D02*
X37149161Y26593600D01*
X37149161Y26593600D02*
X37244399Y26545981D01*
X37244399Y26545981D02*
X37482494Y26545981D01*
X37482494Y26545981D02*
X37577732Y26593600D01*
X37577732Y26593600D02*
X37625351Y26641220D01*
X26011747Y26575810D02*
X26348464Y26239093D01*
X26348464Y26239093D02*
X27055571Y26946199D01*
X25405655Y27181902D02*
X25809716Y26777841D01*
X25607685Y26979871D02*
X26314792Y27686978D01*
X26314792Y27686978D02*
X26281120Y27518619D01*
X26281120Y27518619D02*
X26281120Y27383932D01*
X26281120Y27383932D02*
X26314792Y27282917D01*
X25675029Y28326741D02*
X25607685Y28394085D01*
X25607685Y28394085D02*
X25506670Y28427757D01*
X25506670Y28427757D02*
X25439327Y28427757D01*
X25439327Y28427757D02*
X25338311Y28394085D01*
X25338311Y28394085D02*
X25169953Y28293070D01*
X25169953Y28293070D02*
X25001594Y28124711D01*
X25001594Y28124711D02*
X24900579Y27956352D01*
X24900579Y27956352D02*
X24866907Y27855337D01*
X24866907Y27855337D02*
X24866907Y27787993D01*
X24866907Y27787993D02*
X24900579Y27686978D01*
X24900579Y27686978D02*
X24967922Y27619635D01*
X24967922Y27619635D02*
X25068937Y27585963D01*
X25068937Y27585963D02*
X25136281Y27585963D01*
X25136281Y27585963D02*
X25237296Y27619635D01*
X25237296Y27619635D02*
X25405655Y27720650D01*
X25405655Y27720650D02*
X25574014Y27889009D01*
X25574014Y27889009D02*
X25675029Y28057367D01*
X25675029Y28057367D02*
X25708701Y28158383D01*
X25708701Y28158383D02*
X25708701Y28225726D01*
X25708701Y28225726D02*
X25675029Y28326741D01*
X39742112Y22748989D02*
X39809456Y22748989D01*
X39809456Y22748989D02*
X39944143Y22816333D01*
X39944143Y22816333D02*
X40011486Y22883676D01*
X40011486Y22883676D02*
X40078830Y23018363D01*
X40078830Y23018363D02*
X40078830Y23153050D01*
X40078830Y23153050D02*
X40045158Y23254065D01*
X40045158Y23254065D02*
X39944143Y23422424D01*
X39944143Y23422424D02*
X39843128Y23523439D01*
X39843128Y23523439D02*
X39674769Y23624455D01*
X39674769Y23624455D02*
X39573754Y23658126D01*
X39573754Y23658126D02*
X39439067Y23658126D01*
X39439067Y23658126D02*
X39304380Y23590783D01*
X39304380Y23590783D02*
X39237036Y23523439D01*
X39237036Y23523439D02*
X39169693Y23388752D01*
X39169693Y23388752D02*
X39169693Y23321409D01*
X38866647Y23153050D02*
X38395242Y22681646D01*
X38395242Y22681646D02*
X39405395Y22277585D01*
X35386180Y21680467D02*
X35433800Y21728086D01*
X35433800Y21728086D02*
X35481419Y21870943D01*
X35481419Y21870943D02*
X35481419Y21966181D01*
X35481419Y21966181D02*
X35433800Y22109038D01*
X35433800Y22109038D02*
X35338561Y22204276D01*
X35338561Y22204276D02*
X35243323Y22251895D01*
X35243323Y22251895D02*
X35052847Y22299514D01*
X35052847Y22299514D02*
X34909990Y22299514D01*
X34909990Y22299514D02*
X34719514Y22251895D01*
X34719514Y22251895D02*
X34624276Y22204276D01*
X34624276Y22204276D02*
X34529038Y22109038D01*
X34529038Y22109038D02*
X34481419Y21966181D01*
X34481419Y21966181D02*
X34481419Y21870943D01*
X34481419Y21870943D02*
X34529038Y21728086D01*
X34529038Y21728086D02*
X34576657Y21680467D01*
X35481419Y21204276D02*
X35481419Y21013800D01*
X35481419Y21013800D02*
X35433800Y20918562D01*
X35433800Y20918562D02*
X35386180Y20870943D01*
X35386180Y20870943D02*
X35243323Y20775705D01*
X35243323Y20775705D02*
X35052847Y20728086D01*
X35052847Y20728086D02*
X34671895Y20728086D01*
X34671895Y20728086D02*
X34576657Y20775705D01*
X34576657Y20775705D02*
X34529038Y20823324D01*
X34529038Y20823324D02*
X34481419Y20918562D01*
X34481419Y20918562D02*
X34481419Y21109038D01*
X34481419Y21109038D02*
X34529038Y21204276D01*
X34529038Y21204276D02*
X34576657Y21251895D01*
X34576657Y21251895D02*
X34671895Y21299514D01*
X34671895Y21299514D02*
X34909990Y21299514D01*
X34909990Y21299514D02*
X35005228Y21251895D01*
X35005228Y21251895D02*
X35052847Y21204276D01*
X35052847Y21204276D02*
X35100466Y21109038D01*
X35100466Y21109038D02*
X35100466Y20918562D01*
X35100466Y20918562D02*
X35052847Y20823324D01*
X35052847Y20823324D02*
X35005228Y20775705D01*
X35005228Y20775705D02*
X34909990Y20728086D01*
X29294057Y33270020D02*
X29341676Y33222400D01*
X29341676Y33222400D02*
X29484533Y33174781D01*
X29484533Y33174781D02*
X29579771Y33174781D01*
X29579771Y33174781D02*
X29722628Y33222400D01*
X29722628Y33222400D02*
X29817866Y33317639D01*
X29817866Y33317639D02*
X29865485Y33412877D01*
X29865485Y33412877D02*
X29913104Y33603353D01*
X29913104Y33603353D02*
X29913104Y33746210D01*
X29913104Y33746210D02*
X29865485Y33936686D01*
X29865485Y33936686D02*
X29817866Y34031924D01*
X29817866Y34031924D02*
X29722628Y34127162D01*
X29722628Y34127162D02*
X29579771Y34174781D01*
X29579771Y34174781D02*
X29484533Y34174781D01*
X29484533Y34174781D02*
X29341676Y34127162D01*
X29341676Y34127162D02*
X29294057Y34079543D01*
X28341676Y33174781D02*
X28913104Y33174781D01*
X28627390Y33174781D02*
X28627390Y34174781D01*
X28627390Y34174781D02*
X28722628Y34031924D01*
X28722628Y34031924D02*
X28817866Y33936686D01*
X28817866Y33936686D02*
X28913104Y33889067D01*
X28008342Y34174781D02*
X27389295Y34174781D01*
X27389295Y34174781D02*
X27722628Y33793829D01*
X27722628Y33793829D02*
X27579771Y33793829D01*
X27579771Y33793829D02*
X27484533Y33746210D01*
X27484533Y33746210D02*
X27436914Y33698591D01*
X27436914Y33698591D02*
X27389295Y33603353D01*
X27389295Y33603353D02*
X27389295Y33365258D01*
X27389295Y33365258D02*
X27436914Y33270020D01*
X27436914Y33270020D02*
X27484533Y33222400D01*
X27484533Y33222400D02*
X27579771Y33174781D01*
X27579771Y33174781D02*
X27865485Y33174781D01*
X27865485Y33174781D02*
X27960723Y33222400D01*
X27960723Y33222400D02*
X28008342Y33270020D01*
X30781906Y22735370D02*
X30781906Y22668026D01*
X30781906Y22668026D02*
X30849250Y22533339D01*
X30849250Y22533339D02*
X30916593Y22465996D01*
X30916593Y22465996D02*
X31051280Y22398652D01*
X31051280Y22398652D02*
X31185967Y22398652D01*
X31185967Y22398652D02*
X31286982Y22432324D01*
X31286982Y22432324D02*
X31455341Y22533339D01*
X31455341Y22533339D02*
X31556356Y22634354D01*
X31556356Y22634354D02*
X31657372Y22802713D01*
X31657372Y22802713D02*
X31691043Y22903728D01*
X31691043Y22903728D02*
X31691043Y23038415D01*
X31691043Y23038415D02*
X31623700Y23173102D01*
X31623700Y23173102D02*
X31556356Y23240446D01*
X31556356Y23240446D02*
X31421669Y23307789D01*
X31421669Y23307789D02*
X31354326Y23307789D01*
X30041128Y23341461D02*
X30445189Y22937400D01*
X30243158Y23139431D02*
X30950265Y23846537D01*
X30950265Y23846537D02*
X30916593Y23678179D01*
X30916593Y23678179D02*
X30916593Y23543492D01*
X30916593Y23543492D02*
X30950265Y23442476D01*
X29367692Y24014896D02*
X29771753Y23610835D01*
X29569723Y23812866D02*
X30276830Y24519973D01*
X30276830Y24519973D02*
X30243158Y24351614D01*
X30243158Y24351614D02*
X30243158Y24216927D01*
X30243158Y24216927D02*
X30276830Y24115912D01*
X44898312Y17999189D02*
X44965656Y17999189D01*
X44965656Y17999189D02*
X45100343Y18066533D01*
X45100343Y18066533D02*
X45167686Y18133876D01*
X45167686Y18133876D02*
X45235030Y18268563D01*
X45235030Y18268563D02*
X45235030Y18403250D01*
X45235030Y18403250D02*
X45201358Y18504265D01*
X45201358Y18504265D02*
X45100343Y18672624D01*
X45100343Y18672624D02*
X44999328Y18773639D01*
X44999328Y18773639D02*
X44830969Y18874655D01*
X44830969Y18874655D02*
X44729954Y18908326D01*
X44729954Y18908326D02*
X44595267Y18908326D01*
X44595267Y18908326D02*
X44460580Y18840983D01*
X44460580Y18840983D02*
X44393236Y18773639D01*
X44393236Y18773639D02*
X44325893Y18638952D01*
X44325893Y18638952D02*
X44325893Y18571609D01*
X43888160Y17797159D02*
X44359564Y17325754D01*
X43787145Y18234891D02*
X44460580Y17898174D01*
X44460580Y17898174D02*
X44022847Y17460441D01*
X34932857Y27097820D02*
X34980476Y27050200D01*
X34980476Y27050200D02*
X35123333Y27002581D01*
X35123333Y27002581D02*
X35218571Y27002581D01*
X35218571Y27002581D02*
X35361428Y27050200D01*
X35361428Y27050200D02*
X35456666Y27145439D01*
X35456666Y27145439D02*
X35504285Y27240677D01*
X35504285Y27240677D02*
X35551904Y27431153D01*
X35551904Y27431153D02*
X35551904Y27574010D01*
X35551904Y27574010D02*
X35504285Y27764486D01*
X35504285Y27764486D02*
X35456666Y27859724D01*
X35456666Y27859724D02*
X35361428Y27954962D01*
X35361428Y27954962D02*
X35218571Y28002581D01*
X35218571Y28002581D02*
X35123333Y28002581D01*
X35123333Y28002581D02*
X34980476Y27954962D01*
X34980476Y27954962D02*
X34932857Y27907343D01*
X33980476Y27002581D02*
X34551904Y27002581D01*
X34266190Y27002581D02*
X34266190Y28002581D01*
X34266190Y28002581D02*
X34361428Y27859724D01*
X34361428Y27859724D02*
X34456666Y27764486D01*
X34456666Y27764486D02*
X34551904Y27716867D01*
X33599523Y27907343D02*
X33551904Y27954962D01*
X33551904Y27954962D02*
X33456666Y28002581D01*
X33456666Y28002581D02*
X33218571Y28002581D01*
X33218571Y28002581D02*
X33123333Y27954962D01*
X33123333Y27954962D02*
X33075714Y27907343D01*
X33075714Y27907343D02*
X33028095Y27812105D01*
X33028095Y27812105D02*
X33028095Y27716867D01*
X33028095Y27716867D02*
X33075714Y27574010D01*
X33075714Y27574010D02*
X33647142Y27002581D01*
X33647142Y27002581D02*
X33028095Y27002581D01*
X35396466Y32025420D02*
X35444085Y31977800D01*
X35444085Y31977800D02*
X35586942Y31930181D01*
X35586942Y31930181D02*
X35682180Y31930181D01*
X35682180Y31930181D02*
X35825037Y31977800D01*
X35825037Y31977800D02*
X35920275Y32073039D01*
X35920275Y32073039D02*
X35967894Y32168277D01*
X35967894Y32168277D02*
X36015513Y32358753D01*
X36015513Y32358753D02*
X36015513Y32501610D01*
X36015513Y32501610D02*
X35967894Y32692086D01*
X35967894Y32692086D02*
X35920275Y32787324D01*
X35920275Y32787324D02*
X35825037Y32882562D01*
X35825037Y32882562D02*
X35682180Y32930181D01*
X35682180Y32930181D02*
X35586942Y32930181D01*
X35586942Y32930181D02*
X35444085Y32882562D01*
X35444085Y32882562D02*
X35396466Y32834943D01*
X34539323Y32930181D02*
X34729799Y32930181D01*
X34729799Y32930181D02*
X34825037Y32882562D01*
X34825037Y32882562D02*
X34872656Y32834943D01*
X34872656Y32834943D02*
X34967894Y32692086D01*
X34967894Y32692086D02*
X35015513Y32501610D01*
X35015513Y32501610D02*
X35015513Y32120658D01*
X35015513Y32120658D02*
X34967894Y32025420D01*
X34967894Y32025420D02*
X34920275Y31977800D01*
X34920275Y31977800D02*
X34825037Y31930181D01*
X34825037Y31930181D02*
X34634561Y31930181D01*
X34634561Y31930181D02*
X34539323Y31977800D01*
X34539323Y31977800D02*
X34491704Y32025420D01*
X34491704Y32025420D02*
X34444085Y32120658D01*
X34444085Y32120658D02*
X34444085Y32358753D01*
X34444085Y32358753D02*
X34491704Y32453991D01*
X34491704Y32453991D02*
X34539323Y32501610D01*
X34539323Y32501610D02*
X34634561Y32549229D01*
X34634561Y32549229D02*
X34825037Y32549229D01*
X34825037Y32549229D02*
X34920275Y32501610D01*
X34920275Y32501610D02*
X34967894Y32453991D01*
X34967894Y32453991D02*
X35015513Y32358753D01*
X43484246Y23080944D02*
X43820963Y22744226D01*
X43820963Y22744226D02*
X44528070Y23451333D01*
X44022994Y23956410D02*
X43585261Y24394142D01*
X43585261Y24394142D02*
X43551589Y23889066D01*
X43551589Y23889066D02*
X43450574Y23990081D01*
X43450574Y23990081D02*
X43349559Y24023753D01*
X43349559Y24023753D02*
X43282215Y24023753D01*
X43282215Y24023753D02*
X43181200Y23990081D01*
X43181200Y23990081D02*
X43012841Y23821723D01*
X43012841Y23821723D02*
X42979169Y23720707D01*
X42979169Y23720707D02*
X42979169Y23653364D01*
X42979169Y23653364D02*
X43012841Y23552349D01*
X43012841Y23552349D02*
X43214872Y23350318D01*
X43214872Y23350318D02*
X43315887Y23316646D01*
X43315887Y23316646D02*
X43383230Y23316646D01*
X46242266Y21262181D02*
X46718456Y21262181D01*
X46718456Y21262181D02*
X46718456Y22262181D01*
X45385123Y21262181D02*
X45956551Y21262181D01*
X45670837Y21262181D02*
X45670837Y22262181D01*
X45670837Y22262181D02*
X45766075Y22119324D01*
X45766075Y22119324D02*
X45861313Y22024086D01*
X45861313Y22024086D02*
X45956551Y21976467D01*
X18926980Y18422858D02*
X18974600Y18470477D01*
X18974600Y18470477D02*
X19022219Y18613334D01*
X19022219Y18613334D02*
X19022219Y18708572D01*
X19022219Y18708572D02*
X18974600Y18851429D01*
X18974600Y18851429D02*
X18879361Y18946667D01*
X18879361Y18946667D02*
X18784123Y18994286D01*
X18784123Y18994286D02*
X18593647Y19041905D01*
X18593647Y19041905D02*
X18450790Y19041905D01*
X18450790Y19041905D02*
X18260314Y18994286D01*
X18260314Y18994286D02*
X18165076Y18946667D01*
X18165076Y18946667D02*
X18069838Y18851429D01*
X18069838Y18851429D02*
X18022219Y18708572D01*
X18022219Y18708572D02*
X18022219Y18613334D01*
X18022219Y18613334D02*
X18069838Y18470477D01*
X18069838Y18470477D02*
X18117457Y18422858D01*
X19022219Y17470477D02*
X19022219Y18041905D01*
X19022219Y17756191D02*
X18022219Y17756191D01*
X18022219Y17756191D02*
X18165076Y17851429D01*
X18165076Y17851429D02*
X18260314Y17946667D01*
X18260314Y17946667D02*
X18307933Y18041905D01*
X19022219Y16994286D02*
X19022219Y16803810D01*
X19022219Y16803810D02*
X18974600Y16708572D01*
X18974600Y16708572D02*
X18926980Y16660953D01*
X18926980Y16660953D02*
X18784123Y16565715D01*
X18784123Y16565715D02*
X18593647Y16518096D01*
X18593647Y16518096D02*
X18212695Y16518096D01*
X18212695Y16518096D02*
X18117457Y16565715D01*
X18117457Y16565715D02*
X18069838Y16613334D01*
X18069838Y16613334D02*
X18022219Y16708572D01*
X18022219Y16708572D02*
X18022219Y16899048D01*
X18022219Y16899048D02*
X18069838Y16994286D01*
X18069838Y16994286D02*
X18117457Y17041905D01*
X18117457Y17041905D02*
X18212695Y17089524D01*
X18212695Y17089524D02*
X18450790Y17089524D01*
X18450790Y17089524D02*
X18546028Y17041905D01*
X18546028Y17041905D02*
X18593647Y16994286D01*
X18593647Y16994286D02*
X18641266Y16899048D01*
X18641266Y16899048D02*
X18641266Y16708572D01*
X18641266Y16708572D02*
X18593647Y16613334D01*
X18593647Y16613334D02*
X18546028Y16565715D01*
X18546028Y16565715D02*
X18450790Y16518096D01*
X25474819Y36539467D02*
X24998628Y36872800D01*
X25474819Y37110895D02*
X24474819Y37110895D01*
X24474819Y37110895D02*
X24474819Y36729943D01*
X24474819Y36729943D02*
X24522438Y36634705D01*
X24522438Y36634705D02*
X24570057Y36587086D01*
X24570057Y36587086D02*
X24665295Y36539467D01*
X24665295Y36539467D02*
X24808152Y36539467D01*
X24808152Y36539467D02*
X24903390Y36587086D01*
X24903390Y36587086D02*
X24951009Y36634705D01*
X24951009Y36634705D02*
X24998628Y36729943D01*
X24998628Y36729943D02*
X24998628Y37110895D01*
X24808152Y35682324D02*
X25474819Y35682324D01*
X24427200Y35920419D02*
X25141485Y36158514D01*
X25141485Y36158514D02*
X25141485Y35539467D01*
X27598666Y43258581D02*
X27931999Y43734772D01*
X28170094Y43258581D02*
X28170094Y44258581D01*
X28170094Y44258581D02*
X27789142Y44258581D01*
X27789142Y44258581D02*
X27693904Y44210962D01*
X27693904Y44210962D02*
X27646285Y44163343D01*
X27646285Y44163343D02*
X27598666Y44068105D01*
X27598666Y44068105D02*
X27598666Y43925248D01*
X27598666Y43925248D02*
X27646285Y43830010D01*
X27646285Y43830010D02*
X27693904Y43782391D01*
X27693904Y43782391D02*
X27789142Y43734772D01*
X27789142Y43734772D02*
X28170094Y43734772D01*
X27217713Y44163343D02*
X27170094Y44210962D01*
X27170094Y44210962D02*
X27074856Y44258581D01*
X27074856Y44258581D02*
X26836761Y44258581D01*
X26836761Y44258581D02*
X26741523Y44210962D01*
X26741523Y44210962D02*
X26693904Y44163343D01*
X26693904Y44163343D02*
X26646285Y44068105D01*
X26646285Y44068105D02*
X26646285Y43972867D01*
X26646285Y43972867D02*
X26693904Y43830010D01*
X26693904Y43830010D02*
X27265332Y43258581D01*
X27265332Y43258581D02*
X26646285Y43258581D01*
X30824466Y34978181D02*
X31157799Y35454372D01*
X31395894Y34978181D02*
X31395894Y35978181D01*
X31395894Y35978181D02*
X31014942Y35978181D01*
X31014942Y35978181D02*
X30919704Y35930562D01*
X30919704Y35930562D02*
X30872085Y35882943D01*
X30872085Y35882943D02*
X30824466Y35787705D01*
X30824466Y35787705D02*
X30824466Y35644848D01*
X30824466Y35644848D02*
X30872085Y35549610D01*
X30872085Y35549610D02*
X30919704Y35501991D01*
X30919704Y35501991D02*
X31014942Y35454372D01*
X31014942Y35454372D02*
X31395894Y35454372D01*
X29919704Y35978181D02*
X30395894Y35978181D01*
X30395894Y35978181D02*
X30443513Y35501991D01*
X30443513Y35501991D02*
X30395894Y35549610D01*
X30395894Y35549610D02*
X30300656Y35597229D01*
X30300656Y35597229D02*
X30062561Y35597229D01*
X30062561Y35597229D02*
X29967323Y35549610D01*
X29967323Y35549610D02*
X29919704Y35501991D01*
X29919704Y35501991D02*
X29872085Y35406753D01*
X29872085Y35406753D02*
X29872085Y35168658D01*
X29872085Y35168658D02*
X29919704Y35073420D01*
X29919704Y35073420D02*
X29967323Y35025800D01*
X29967323Y35025800D02*
X30062561Y34978181D01*
X30062561Y34978181D02*
X30300656Y34978181D01*
X30300656Y34978181D02*
X30395894Y35025800D01*
X30395894Y35025800D02*
X30443513Y35073420D01*
X30392666Y38281181D02*
X30725999Y38757372D01*
X30964094Y38281181D02*
X30964094Y39281181D01*
X30964094Y39281181D02*
X30583142Y39281181D01*
X30583142Y39281181D02*
X30487904Y39233562D01*
X30487904Y39233562D02*
X30440285Y39185943D01*
X30440285Y39185943D02*
X30392666Y39090705D01*
X30392666Y39090705D02*
X30392666Y38947848D01*
X30392666Y38947848D02*
X30440285Y38852610D01*
X30440285Y38852610D02*
X30487904Y38804991D01*
X30487904Y38804991D02*
X30583142Y38757372D01*
X30583142Y38757372D02*
X30964094Y38757372D01*
X30059332Y39281181D02*
X29440285Y39281181D01*
X29440285Y39281181D02*
X29773618Y38900229D01*
X29773618Y38900229D02*
X29630761Y38900229D01*
X29630761Y38900229D02*
X29535523Y38852610D01*
X29535523Y38852610D02*
X29487904Y38804991D01*
X29487904Y38804991D02*
X29440285Y38709753D01*
X29440285Y38709753D02*
X29440285Y38471658D01*
X29440285Y38471658D02*
X29487904Y38376420D01*
X29487904Y38376420D02*
X29535523Y38328800D01*
X29535523Y38328800D02*
X29630761Y38281181D01*
X29630761Y38281181D02*
X29916475Y38281181D01*
X29916475Y38281181D02*
X30011713Y38328800D01*
X30011713Y38328800D02*
X30059332Y38376420D01*
X31732457Y18468181D02*
X32208647Y18468181D01*
X32208647Y18468181D02*
X32208647Y19468181D01*
X30875314Y18468181D02*
X31446742Y18468181D01*
X31161028Y18468181D02*
X31161028Y19468181D01*
X31161028Y19468181D02*
X31256266Y19325324D01*
X31256266Y19325324D02*
X31351504Y19230086D01*
X31351504Y19230086D02*
X31446742Y19182467D01*
X29922933Y18468181D02*
X30494361Y18468181D01*
X30208647Y18468181D02*
X30208647Y19468181D01*
X30208647Y19468181D02*
X30303885Y19325324D01*
X30303885Y19325324D02*
X30399123Y19230086D01*
X30399123Y19230086D02*
X30494361Y19182467D01*
D11*
%TO.C,R15*%
X14959064Y24865000D02*
X14504936Y24865000D01*
X14959064Y23395000D02*
X14504936Y23395000D01*
%TO.C,R17*%
X14959064Y22325000D02*
X14504936Y22325000D01*
X14959064Y20855000D02*
X14504936Y20855000D01*
%TO.C,U1*%
X29840000Y15361299D02*
X33600000Y15361299D01*
X29840000Y14101299D02*
X29840000Y15361299D01*
X29840000Y9801299D02*
X29840000Y8541299D01*
X29840000Y8541299D02*
X33600000Y8541299D01*
X34880000Y15261299D02*
X34640000Y15591299D01*
X35120000Y15591299D01*
X34880000Y15261299D01*
G36*
X34880000Y15261299D02*
G01*
X34640000Y15591299D01*
X35120000Y15591299D01*
X34880000Y15261299D01*
G37*
%TO.C,Q1*%
X34047500Y44486000D02*
X34697500Y44486000D01*
X34047500Y41366000D02*
X34697500Y41366000D01*
X35347500Y44486000D02*
X34697500Y44486000D01*
X35347500Y41366000D02*
X34697500Y41366000D01*
X33775000Y41086000D02*
X33295000Y41086000D01*
X33535000Y41416000D01*
X33775000Y41086000D01*
G36*
X33775000Y41086000D02*
G01*
X33295000Y41086000D01*
X33535000Y41416000D01*
X33775000Y41086000D01*
G37*
%TO.C,R19*%
X20855000Y36094936D02*
X20855000Y36549064D01*
X22325000Y36094936D02*
X22325000Y36549064D01*
%TO.C,Q2*%
X34047500Y40930000D02*
X34697500Y40930000D01*
X34047500Y37810000D02*
X34697500Y37810000D01*
X35347500Y40930000D02*
X34697500Y40930000D01*
X35347500Y37810000D02*
X34697500Y37810000D01*
X33775000Y37530000D02*
X33295000Y37530000D01*
X33535000Y37860000D01*
X33775000Y37530000D01*
G36*
X33775000Y37530000D02*
G01*
X33295000Y37530000D01*
X33535000Y37860000D01*
X33775000Y37530000D01*
G37*
%TO.C,C1*%
X25223800Y8120748D02*
X25223800Y8643252D01*
X26693800Y8120748D02*
X26693800Y8643252D01*
%TO.C,C3*%
X25452400Y13403252D02*
X25452400Y12880748D01*
X26922400Y13403252D02*
X26922400Y12880748D01*
%TO.C,C5*%
X30055452Y17549800D02*
X29532948Y17549800D01*
X30055452Y16079800D02*
X29532948Y16079800D01*
%TO.C,C15*%
X19991400Y20744548D02*
X19991400Y21267052D01*
X21461400Y20744548D02*
X21461400Y21267052D01*
%TO.C,D1*%
X15368000Y8414000D02*
X15368000Y13924000D01*
X18668000Y13924000D02*
X15368000Y13924000D01*
X18668000Y8414000D02*
X18668000Y13924000D01*
%TO.C,L8*%
X25627400Y24910622D02*
X25627400Y24111378D01*
X26747400Y24910622D02*
X26747400Y24111378D01*
%TO.C,R1*%
X27789200Y22248864D02*
X27789200Y21794736D01*
X29259200Y22248864D02*
X29259200Y21794736D01*
%TO.C,R9*%
X14959064Y27405000D02*
X14504936Y27405000D01*
X14959064Y25935000D02*
X14504936Y25935000D01*
%TO.C,R10*%
X14959064Y32485000D02*
X14504936Y32485000D01*
X14959064Y31015000D02*
X14504936Y31015000D01*
%TO.C,R13*%
X21998000Y21232864D02*
X21998000Y20778736D01*
X23468000Y21232864D02*
X23468000Y20778736D01*
%TO.C,R16*%
X14959064Y19785000D02*
X14504936Y19785000D01*
X14959064Y18315000D02*
X14504936Y18315000D01*
%TO.C,R22*%
X38280436Y44119000D02*
X38734564Y44119000D01*
X38280436Y42649000D02*
X38734564Y42649000D01*
%TO.C,R23*%
X38406336Y40054200D02*
X38860464Y40054200D01*
X38406336Y38584200D02*
X38860464Y38584200D01*
%TO.C,C20*%
X24030000Y18179148D02*
X24030000Y18701652D01*
X25500000Y18179148D02*
X25500000Y18701652D01*
%TO.C,C17*%
X25737452Y22071000D02*
X25214948Y22071000D01*
X25737452Y20601000D02*
X25214948Y20601000D01*
%TO.C,C2*%
X36075252Y7948600D02*
X35552748Y7948600D01*
X36075252Y6478600D02*
X35552748Y6478600D01*
%TO.C,R18*%
X18315000Y36094936D02*
X18315000Y36549064D01*
X19785000Y36094936D02*
X19785000Y36549064D01*
%TO.C,R11*%
X14959064Y29945000D02*
X14504936Y29945000D01*
X14959064Y28475000D02*
X14504936Y28475000D01*
%TO.C,R12*%
X14959064Y35025000D02*
X14504936Y35025000D01*
X14959064Y33555000D02*
X14504936Y33555000D01*
%TO.C,Y2*%
X17975600Y31731000D02*
X17975600Y32531000D01*
X19775600Y33931000D02*
X21575600Y33931000D01*
X21575600Y30331000D02*
X19775600Y30331000D01*
X21575600Y30091000D02*
X21575600Y30331000D01*
X23375600Y32531000D02*
X23375600Y31731000D01*
X23375600Y31731000D02*
X23775600Y31731000D01*
%TO.C,U2*%
X20105047Y28222000D02*
X20830047Y28222000D01*
X20105047Y27497000D02*
X20105047Y28222000D01*
X20105047Y24727000D02*
X20105047Y24002000D01*
X20105047Y24002000D02*
X20830047Y24002000D01*
X24025047Y28222000D02*
X23600047Y28222000D01*
X24325047Y27982000D02*
X24325047Y27497000D01*
X24325047Y24727000D02*
X24325047Y24002000D01*
X24325047Y24002000D02*
X23600047Y24002000D01*
X24325047Y28222000D02*
X24085047Y28552000D01*
X24565047Y28552000D01*
X24325047Y28222000D01*
G36*
X24325047Y28222000D02*
G01*
X24085047Y28552000D01*
X24565047Y28552000D01*
X24325047Y28222000D01*
G37*
%TO.C,L7*%
X31807578Y26061600D02*
X32606822Y26061600D01*
X31807578Y24941600D02*
X32606822Y24941600D01*
%TO.C,L9*%
X30639178Y30887600D02*
X31438422Y30887600D01*
X30639178Y29767600D02*
X31438422Y29767600D01*
%TO.C,L5*%
X37344778Y26010800D02*
X38144022Y26010800D01*
X37344778Y24890800D02*
X38144022Y24890800D01*
%TO.C,L10*%
X26861396Y27769445D02*
X26296245Y28334596D01*
X27653355Y28561404D02*
X27088204Y29126555D01*
%TO.C,C7*%
X40711410Y25799657D02*
X40341943Y25430190D01*
X41750857Y24760210D02*
X41381390Y24390743D01*
%TO.C,C9*%
X34240800Y24224348D02*
X34240800Y24746852D01*
X35710800Y24224348D02*
X35710800Y24746852D01*
%TO.C,C13*%
X27459000Y31477852D02*
X27459000Y30955348D01*
X28929000Y31477852D02*
X28929000Y30955348D01*
%TO.C,C11*%
X28988652Y26236600D02*
X28466148Y26236600D01*
X28988652Y24766600D02*
X28466148Y24766600D01*
%TO.C,C4*%
X43008943Y20273990D02*
X43378410Y20643457D01*
X44048390Y19234543D02*
X44417857Y19604010D01*
%TO.C,C12*%
X31376252Y29132200D02*
X30853748Y29132200D01*
X31376252Y27662200D02*
X30853748Y27662200D01*
%TO.C,C6*%
X35033852Y31265800D02*
X34511348Y31265800D01*
X35033852Y29795800D02*
X34511348Y29795800D01*
%TO.C,L3*%
X41688645Y22416396D02*
X42253796Y21851245D01*
X42480604Y23208355D02*
X43045755Y22643204D01*
%TO.C,L1*%
X46889936Y20775600D02*
X47344064Y20775600D01*
X46889936Y19305600D02*
X47344064Y19305600D01*
%TO.C,C19*%
X17959400Y20744548D02*
X17959400Y21267052D01*
X19429400Y20744548D02*
X19429400Y21267052D01*
%TO.C,R4*%
X25935000Y36145736D02*
X25935000Y36599864D01*
X27405000Y36145736D02*
X27405000Y36599864D01*
%TO.C,R2*%
X30453064Y43915000D02*
X29998936Y43915000D01*
X30453064Y42445000D02*
X29998936Y42445000D01*
%TO.C,R5*%
X29363936Y37895200D02*
X29818064Y37895200D01*
X29363936Y36425200D02*
X29818064Y36425200D01*
%TO.C,R3*%
X30453064Y41121000D02*
X29998936Y41121000D01*
X30453064Y39651000D02*
X29998936Y39651000D01*
%TO.C,L11*%
X28187222Y19864000D02*
X27387978Y19864000D01*
X28187222Y18744000D02*
X27387978Y18744000D01*
%TD*%
M02*
