M48
; DRILL file {KiCad 7.0.11+1} date Sat Jul 13 22:37:04 2024
; FORMAT={3:3/ absolute / metric / suppress leading zeros}
; #@! TF.CreationDate,2024-07-13T22:37:04+00:00
; #@! TF.GenerationSoftware,Kicad,Pcbnew,7.0.11+1
; #@! TF.FileFunction,Plated,1,2,PTH
FMAT,2
METRIC,TZ
; #@! TA.AperFunction,Plated,PTH,ComponentDrill
T1C0.200
; #@! TA.AperFunction,Plated,PTH,ViaDrill
T2C0.400
; #@! TA.AperFunction,Plated,PTH,ComponentDrill
T3C0.889
; #@! TA.AperFunction,Plated,PTH,ComponentDrill
T4C1.500
; #@! TA.AperFunction,Plated,PTH,ComponentDrill
T5C1.700
; #@! TA.AperFunction,Plated,PTH,ComponentDrill
T6C3.000
%
G90
G05
T1
X21165Y27162
X21165Y25062
X23265Y27162
X23265Y25062
T2
X-2550Y26415
X-2550Y24383
X2784Y17271
X3038Y36321
X4562Y17271
X4562Y15493
X4562Y13715
X4816Y11683
X5324Y9651
X6086Y33781
X8372Y23875
X12690Y27177
X15484Y33781
X15738Y7111
X17008Y8635
X17770Y33781
X18786Y8635
X20818Y8635
X22596Y8635
X24474Y7888
X25744Y18048
X26506Y12206
X26506Y10428
X26506Y8141
X26660Y29463
X26914Y24584
X26914Y23621
X27153Y27192
X28184Y26415
X28438Y24129
X29200Y37591
X29200Y36575
X29454Y38861
X30074Y30113
X30470Y24637
X30470Y23621
X31486Y40385
X31613Y30098
X33010Y30098
X33264Y40385
X33518Y38861
X33518Y37591
X34407Y11747
X34534Y29971
X36058Y29971
X36566Y37591
X36731Y24040
X36820Y25653
X37836Y29971
X38344Y37591
X39106Y21589
X39614Y29971
X40122Y37591
X40630Y21589
X41392Y29971
X41900Y37591
X42154Y21589
X42916Y29971
X43678Y21589
X43932Y37591
X43932Y36067
X43932Y34543
X43932Y33527
X44440Y29971
X45456Y29971
X45456Y24891
X45456Y23621
X45456Y21843
X45456Y20319
X45710Y35559
X45710Y16001
X45964Y33527
X46218Y13969
X46980Y37083
X47742Y15493
X50028Y15493
X52314Y26415
X52314Y15493
X54092Y15493
X54346Y26415
T3
X-2550Y34289
X-2550Y31749
X-2550Y29209
X-2550Y21208
X-2550Y18668
X-2550Y16128
X-10Y34289
X-10Y31749
X-10Y29209
X-10Y21208
X-10Y18668
X-10Y16128
X8890Y34748
X8890Y31750
X9947Y26874
X10504Y29414
X10795Y22860
X10795Y20320
X11430Y34748
X11430Y31750
X12487Y26874
X13044Y29414
X13335Y22860
X13335Y20320
X14568Y43130
X14568Y40590
X17108Y43179
X17108Y40639
X19521Y12714
X19521Y10174
X19648Y43179
X19648Y40639
X22061Y12714
X22061Y10174
X22188Y42622
X22188Y40082
X24601Y12714
X24601Y10174
X24728Y42622
X24728Y40082
T4
X50790Y31749
X50790Y20954
T5
X48250Y34289
X48250Y29209
X48250Y23494
X48250Y18414
X53330Y34289
X53330Y29209
X53330Y23494
X53330Y18414
T6
X10160Y40640
X10160Y10160
X50800Y40640
X50800Y10160
M30
