%TF.GenerationSoftware,KiCad,Pcbnew,8.0.3+1*%
%TF.CreationDate,2024-07-24T14:18:47+00:00*%
%TF.ProjectId,ISM03,49534d30-332e-46b6-9963-61645f706362,rev?*%
%TF.SameCoordinates,Original*%
%TF.FileFunction,Legend,Top*%
%TF.FilePolarity,Positive*%
%FSLAX46Y46*%
G04 Gerber Fmt 4.6, Leading zero omitted, Abs format (unit mm)*
G04 Created by KiCad (PCBNEW 8.0.3+1) date 2024-07-24 14:18:47*
%MOMM*%
%LPD*%
G01*
G04 APERTURE LIST*
%ADD10C,0.300000*%
%ADD11C,0.150000*%
G04 APERTURE END LIST*
D10*
X17222804Y34129633D02*
X17222804Y33510585D01*
X17222804Y33510585D02*
X15922804Y33510585D01*
X16541852Y34562966D02*
X16541852Y34996300D01*
X17222804Y35182014D02*
X17222804Y34562966D01*
X17222804Y34562966D02*
X15922804Y34562966D01*
X15922804Y34562966D02*
X15922804Y35182014D01*
X17222804Y35739156D02*
X15922804Y35739156D01*
X15922804Y35739156D02*
X15922804Y36048680D01*
X15922804Y36048680D02*
X15984709Y36234394D01*
X15984709Y36234394D02*
X16108519Y36358204D01*
X16108519Y36358204D02*
X16232328Y36420109D01*
X16232328Y36420109D02*
X16479947Y36482013D01*
X16479947Y36482013D02*
X16665661Y36482013D01*
X16665661Y36482013D02*
X16913280Y36420109D01*
X16913280Y36420109D02*
X17037090Y36358204D01*
X17037090Y36358204D02*
X17160900Y36234394D01*
X17160900Y36234394D02*
X17222804Y36048680D01*
X17222804Y36048680D02*
X17222804Y35739156D01*
X17222804Y37782013D02*
X16603757Y37348680D01*
X17222804Y37039156D02*
X15922804Y37039156D01*
X15922804Y37039156D02*
X15922804Y37534394D01*
X15922804Y37534394D02*
X15984709Y37658204D01*
X15984709Y37658204D02*
X16046614Y37720109D01*
X16046614Y37720109D02*
X16170423Y37782013D01*
X16170423Y37782013D02*
X16356138Y37782013D01*
X16356138Y37782013D02*
X16479947Y37720109D01*
X16479947Y37720109D02*
X16541852Y37658204D01*
X16541852Y37658204D02*
X16603757Y37534394D01*
X16603757Y37534394D02*
X16603757Y37039156D01*
X24842804Y34129633D02*
X24842804Y33510585D01*
X24842804Y33510585D02*
X23542804Y33510585D01*
X24161852Y34562966D02*
X24161852Y34996300D01*
X24842804Y35182014D02*
X24842804Y34562966D01*
X24842804Y34562966D02*
X23542804Y34562966D01*
X23542804Y34562966D02*
X23542804Y35182014D01*
X24842804Y35739156D02*
X23542804Y35739156D01*
X23542804Y35739156D02*
X23542804Y36048680D01*
X23542804Y36048680D02*
X23604709Y36234394D01*
X23604709Y36234394D02*
X23728519Y36358204D01*
X23728519Y36358204D02*
X23852328Y36420109D01*
X23852328Y36420109D02*
X24099947Y36482013D01*
X24099947Y36482013D02*
X24285661Y36482013D01*
X24285661Y36482013D02*
X24533280Y36420109D01*
X24533280Y36420109D02*
X24657090Y36358204D01*
X24657090Y36358204D02*
X24780900Y36234394D01*
X24780900Y36234394D02*
X24842804Y36048680D01*
X24842804Y36048680D02*
X24842804Y35739156D01*
X23604709Y37720109D02*
X23542804Y37596299D01*
X23542804Y37596299D02*
X23542804Y37410585D01*
X23542804Y37410585D02*
X23604709Y37224871D01*
X23604709Y37224871D02*
X23728519Y37101061D01*
X23728519Y37101061D02*
X23852328Y37039156D01*
X23852328Y37039156D02*
X24099947Y36977252D01*
X24099947Y36977252D02*
X24285661Y36977252D01*
X24285661Y36977252D02*
X24533280Y37039156D01*
X24533280Y37039156D02*
X24657090Y37101061D01*
X24657090Y37101061D02*
X24780900Y37224871D01*
X24780900Y37224871D02*
X24842804Y37410585D01*
X24842804Y37410585D02*
X24842804Y37534394D01*
X24842804Y37534394D02*
X24780900Y37720109D01*
X24780900Y37720109D02*
X24718995Y37782013D01*
X24718995Y37782013D02*
X24285661Y37782013D01*
X24285661Y37782013D02*
X24285661Y37534394D01*
X27320900Y34377941D02*
X27382804Y34563655D01*
X27382804Y34563655D02*
X27382804Y34873179D01*
X27382804Y34873179D02*
X27320900Y34996988D01*
X27320900Y34996988D02*
X27258995Y35058893D01*
X27258995Y35058893D02*
X27135185Y35120798D01*
X27135185Y35120798D02*
X27011376Y35120798D01*
X27011376Y35120798D02*
X26887566Y35058893D01*
X26887566Y35058893D02*
X26825661Y34996988D01*
X26825661Y34996988D02*
X26763757Y34873179D01*
X26763757Y34873179D02*
X26701852Y34625560D01*
X26701852Y34625560D02*
X26639947Y34501750D01*
X26639947Y34501750D02*
X26578042Y34439845D01*
X26578042Y34439845D02*
X26454233Y34377941D01*
X26454233Y34377941D02*
X26330423Y34377941D01*
X26330423Y34377941D02*
X26206614Y34439845D01*
X26206614Y34439845D02*
X26144709Y34501750D01*
X26144709Y34501750D02*
X26082804Y34625560D01*
X26082804Y34625560D02*
X26082804Y34935083D01*
X26082804Y34935083D02*
X26144709Y35120798D01*
X27382804Y35677940D02*
X26082804Y35677940D01*
X26082804Y35677940D02*
X26082804Y35987464D01*
X26082804Y35987464D02*
X26144709Y36173178D01*
X26144709Y36173178D02*
X26268519Y36296988D01*
X26268519Y36296988D02*
X26392328Y36358893D01*
X26392328Y36358893D02*
X26639947Y36420797D01*
X26639947Y36420797D02*
X26825661Y36420797D01*
X26825661Y36420797D02*
X27073280Y36358893D01*
X27073280Y36358893D02*
X27197090Y36296988D01*
X27197090Y36296988D02*
X27320900Y36173178D01*
X27320900Y36173178D02*
X27382804Y35987464D01*
X27382804Y35987464D02*
X27382804Y35677940D01*
X27382804Y36977940D02*
X26082804Y36977940D01*
X26082804Y36977940D02*
X27382804Y37720797D01*
X27382804Y37720797D02*
X26082804Y37720797D01*
X18524709Y33201061D02*
X18462804Y33077251D01*
X18462804Y33077251D02*
X18462804Y32891537D01*
X18462804Y32891537D02*
X18524709Y32705823D01*
X18524709Y32705823D02*
X18648519Y32582013D01*
X18648519Y32582013D02*
X18772328Y32520108D01*
X18772328Y32520108D02*
X19019947Y32458204D01*
X19019947Y32458204D02*
X19205661Y32458204D01*
X19205661Y32458204D02*
X19453280Y32520108D01*
X19453280Y32520108D02*
X19577090Y32582013D01*
X19577090Y32582013D02*
X19700900Y32705823D01*
X19700900Y32705823D02*
X19762804Y32891537D01*
X19762804Y32891537D02*
X19762804Y33015346D01*
X19762804Y33015346D02*
X19700900Y33201061D01*
X19700900Y33201061D02*
X19638995Y33262965D01*
X19638995Y33262965D02*
X19205661Y33262965D01*
X19205661Y33262965D02*
X19205661Y33015346D01*
X19762804Y33820108D02*
X18462804Y33820108D01*
X18462804Y33820108D02*
X18462804Y34315346D01*
X18462804Y34315346D02*
X18524709Y34439156D01*
X18524709Y34439156D02*
X18586614Y34501061D01*
X18586614Y34501061D02*
X18710423Y34562965D01*
X18710423Y34562965D02*
X18896138Y34562965D01*
X18896138Y34562965D02*
X19019947Y34501061D01*
X19019947Y34501061D02*
X19081852Y34439156D01*
X19081852Y34439156D02*
X19143757Y34315346D01*
X19143757Y34315346D02*
X19143757Y33820108D01*
X19762804Y35120108D02*
X18462804Y35120108D01*
X18462804Y35986775D02*
X18462804Y36234394D01*
X18462804Y36234394D02*
X18524709Y36358204D01*
X18524709Y36358204D02*
X18648519Y36482013D01*
X18648519Y36482013D02*
X18896138Y36543918D01*
X18896138Y36543918D02*
X19329471Y36543918D01*
X19329471Y36543918D02*
X19577090Y36482013D01*
X19577090Y36482013D02*
X19700900Y36358204D01*
X19700900Y36358204D02*
X19762804Y36234394D01*
X19762804Y36234394D02*
X19762804Y35986775D01*
X19762804Y35986775D02*
X19700900Y35862966D01*
X19700900Y35862966D02*
X19577090Y35739156D01*
X19577090Y35739156D02*
X19329471Y35677252D01*
X19329471Y35677252D02*
X18896138Y35677252D01*
X18896138Y35677252D02*
X18648519Y35739156D01*
X18648519Y35739156D02*
X18524709Y35862966D01*
X18524709Y35862966D02*
X18462804Y35986775D01*
X18586614Y37039157D02*
X18524709Y37101061D01*
X18524709Y37101061D02*
X18462804Y37224871D01*
X18462804Y37224871D02*
X18462804Y37534395D01*
X18462804Y37534395D02*
X18524709Y37658204D01*
X18524709Y37658204D02*
X18586614Y37720109D01*
X18586614Y37720109D02*
X18710423Y37782014D01*
X18710423Y37782014D02*
X18834233Y37782014D01*
X18834233Y37782014D02*
X19019947Y37720109D01*
X19019947Y37720109D02*
X19762804Y36977252D01*
X19762804Y36977252D02*
X19762804Y37782014D01*
X21064709Y33201061D02*
X21002804Y33077251D01*
X21002804Y33077251D02*
X21002804Y32891537D01*
X21002804Y32891537D02*
X21064709Y32705823D01*
X21064709Y32705823D02*
X21188519Y32582013D01*
X21188519Y32582013D02*
X21312328Y32520108D01*
X21312328Y32520108D02*
X21559947Y32458204D01*
X21559947Y32458204D02*
X21745661Y32458204D01*
X21745661Y32458204D02*
X21993280Y32520108D01*
X21993280Y32520108D02*
X22117090Y32582013D01*
X22117090Y32582013D02*
X22240900Y32705823D01*
X22240900Y32705823D02*
X22302804Y32891537D01*
X22302804Y32891537D02*
X22302804Y33015346D01*
X22302804Y33015346D02*
X22240900Y33201061D01*
X22240900Y33201061D02*
X22178995Y33262965D01*
X22178995Y33262965D02*
X21745661Y33262965D01*
X21745661Y33262965D02*
X21745661Y33015346D01*
X22302804Y33820108D02*
X21002804Y33820108D01*
X21002804Y33820108D02*
X21002804Y34315346D01*
X21002804Y34315346D02*
X21064709Y34439156D01*
X21064709Y34439156D02*
X21126614Y34501061D01*
X21126614Y34501061D02*
X21250423Y34562965D01*
X21250423Y34562965D02*
X21436138Y34562965D01*
X21436138Y34562965D02*
X21559947Y34501061D01*
X21559947Y34501061D02*
X21621852Y34439156D01*
X21621852Y34439156D02*
X21683757Y34315346D01*
X21683757Y34315346D02*
X21683757Y33820108D01*
X22302804Y35120108D02*
X21002804Y35120108D01*
X21002804Y35986775D02*
X21002804Y36234394D01*
X21002804Y36234394D02*
X21064709Y36358204D01*
X21064709Y36358204D02*
X21188519Y36482013D01*
X21188519Y36482013D02*
X21436138Y36543918D01*
X21436138Y36543918D02*
X21869471Y36543918D01*
X21869471Y36543918D02*
X22117090Y36482013D01*
X22117090Y36482013D02*
X22240900Y36358204D01*
X22240900Y36358204D02*
X22302804Y36234394D01*
X22302804Y36234394D02*
X22302804Y35986775D01*
X22302804Y35986775D02*
X22240900Y35862966D01*
X22240900Y35862966D02*
X22117090Y35739156D01*
X22117090Y35739156D02*
X21869471Y35677252D01*
X21869471Y35677252D02*
X21436138Y35677252D01*
X21436138Y35677252D02*
X21188519Y35739156D01*
X21188519Y35739156D02*
X21064709Y35862966D01*
X21064709Y35862966D02*
X21002804Y35986775D01*
X21002804Y36977252D02*
X21002804Y37782014D01*
X21002804Y37782014D02*
X21498042Y37348680D01*
X21498042Y37348680D02*
X21498042Y37534395D01*
X21498042Y37534395D02*
X21559947Y37658204D01*
X21559947Y37658204D02*
X21621852Y37720109D01*
X21621852Y37720109D02*
X21745661Y37782014D01*
X21745661Y37782014D02*
X22055185Y37782014D01*
X22055185Y37782014D02*
X22178995Y37720109D01*
X22178995Y37720109D02*
X22240900Y37658204D01*
X22240900Y37658204D02*
X22302804Y37534395D01*
X22302804Y37534395D02*
X22302804Y37162966D01*
X22302804Y37162966D02*
X22240900Y37039157D01*
X22240900Y37039157D02*
X22178995Y36977252D01*
X13396851Y28457500D02*
X13582565Y28395596D01*
X13582565Y28395596D02*
X13892089Y28395596D01*
X13892089Y28395596D02*
X14015898Y28457500D01*
X14015898Y28457500D02*
X14077803Y28519405D01*
X14077803Y28519405D02*
X14139708Y28643215D01*
X14139708Y28643215D02*
X14139708Y28767024D01*
X14139708Y28767024D02*
X14077803Y28890834D01*
X14077803Y28890834D02*
X14015898Y28952739D01*
X14015898Y28952739D02*
X13892089Y29014643D01*
X13892089Y29014643D02*
X13644470Y29076548D01*
X13644470Y29076548D02*
X13520660Y29138453D01*
X13520660Y29138453D02*
X13458755Y29200358D01*
X13458755Y29200358D02*
X13396851Y29324167D01*
X13396851Y29324167D02*
X13396851Y29447977D01*
X13396851Y29447977D02*
X13458755Y29571786D01*
X13458755Y29571786D02*
X13520660Y29633691D01*
X13520660Y29633691D02*
X13644470Y29695596D01*
X13644470Y29695596D02*
X13953993Y29695596D01*
X13953993Y29695596D02*
X14139708Y29633691D01*
X14696850Y28395596D02*
X14696850Y29695596D01*
X14696850Y29695596D02*
X15006374Y29695596D01*
X15006374Y29695596D02*
X15192088Y29633691D01*
X15192088Y29633691D02*
X15315898Y29509881D01*
X15315898Y29509881D02*
X15377803Y29386072D01*
X15377803Y29386072D02*
X15439707Y29138453D01*
X15439707Y29138453D02*
X15439707Y28952739D01*
X15439707Y28952739D02*
X15377803Y28705120D01*
X15377803Y28705120D02*
X15315898Y28581310D01*
X15315898Y28581310D02*
X15192088Y28457500D01*
X15192088Y28457500D02*
X15006374Y28395596D01*
X15006374Y28395596D02*
X14696850Y28395596D01*
X16244469Y29695596D02*
X16492088Y29695596D01*
X16492088Y29695596D02*
X16615898Y29633691D01*
X16615898Y29633691D02*
X16739707Y29509881D01*
X16739707Y29509881D02*
X16801612Y29262262D01*
X16801612Y29262262D02*
X16801612Y28828929D01*
X16801612Y28828929D02*
X16739707Y28581310D01*
X16739707Y28581310D02*
X16615898Y28457500D01*
X16615898Y28457500D02*
X16492088Y28395596D01*
X16492088Y28395596D02*
X16244469Y28395596D01*
X16244469Y28395596D02*
X16120660Y28457500D01*
X16120660Y28457500D02*
X15996850Y28581310D01*
X15996850Y28581310D02*
X15934946Y28828929D01*
X15934946Y28828929D02*
X15934946Y29262262D01*
X15934946Y29262262D02*
X15996850Y29509881D01*
X15996850Y29509881D02*
X16120660Y29633691D01*
X16120660Y29633691D02*
X16244469Y29695596D01*
X13295375Y26069900D02*
X13481089Y26007996D01*
X13481089Y26007996D02*
X13790613Y26007996D01*
X13790613Y26007996D02*
X13914422Y26069900D01*
X13914422Y26069900D02*
X13976327Y26131805D01*
X13976327Y26131805D02*
X14038232Y26255615D01*
X14038232Y26255615D02*
X14038232Y26379424D01*
X14038232Y26379424D02*
X13976327Y26503234D01*
X13976327Y26503234D02*
X13914422Y26565139D01*
X13914422Y26565139D02*
X13790613Y26627043D01*
X13790613Y26627043D02*
X13542994Y26688948D01*
X13542994Y26688948D02*
X13419184Y26750853D01*
X13419184Y26750853D02*
X13357279Y26812758D01*
X13357279Y26812758D02*
X13295375Y26936567D01*
X13295375Y26936567D02*
X13295375Y27060377D01*
X13295375Y27060377D02*
X13357279Y27184186D01*
X13357279Y27184186D02*
X13419184Y27246091D01*
X13419184Y27246091D02*
X13542994Y27307996D01*
X13542994Y27307996D02*
X13852517Y27307996D01*
X13852517Y27307996D02*
X14038232Y27246091D01*
X15338231Y26131805D02*
X15276327Y26069900D01*
X15276327Y26069900D02*
X15090612Y26007996D01*
X15090612Y26007996D02*
X14966803Y26007996D01*
X14966803Y26007996D02*
X14781089Y26069900D01*
X14781089Y26069900D02*
X14657279Y26193710D01*
X14657279Y26193710D02*
X14595374Y26317520D01*
X14595374Y26317520D02*
X14533470Y26565139D01*
X14533470Y26565139D02*
X14533470Y26750853D01*
X14533470Y26750853D02*
X14595374Y26998472D01*
X14595374Y26998472D02*
X14657279Y27122281D01*
X14657279Y27122281D02*
X14781089Y27246091D01*
X14781089Y27246091D02*
X14966803Y27307996D01*
X14966803Y27307996D02*
X15090612Y27307996D01*
X15090612Y27307996D02*
X15276327Y27246091D01*
X15276327Y27246091D02*
X15338231Y27184186D01*
X16514422Y26007996D02*
X15895374Y26007996D01*
X15895374Y26007996D02*
X15895374Y27307996D01*
X16947755Y26007996D02*
X16947755Y27307996D01*
X17690612Y26007996D02*
X17133470Y26750853D01*
X17690612Y27307996D02*
X16947755Y26565139D01*
X13427098Y24309262D02*
X14355669Y24309262D01*
X13798526Y24866405D02*
X13427098Y23194977D01*
X14231859Y23752120D02*
X13303288Y23752120D01*
X13860431Y23194977D02*
X14231859Y24866405D01*
X14789002Y23442596D02*
X14789002Y24742596D01*
X16150907Y23442596D02*
X15717574Y24061643D01*
X15408050Y23442596D02*
X15408050Y24742596D01*
X15408050Y24742596D02*
X15903288Y24742596D01*
X15903288Y24742596D02*
X16027098Y24680691D01*
X16027098Y24680691D02*
X16089003Y24618786D01*
X16089003Y24618786D02*
X16150907Y24494977D01*
X16150907Y24494977D02*
X16150907Y24309262D01*
X16150907Y24309262D02*
X16089003Y24185453D01*
X16089003Y24185453D02*
X16027098Y24123548D01*
X16027098Y24123548D02*
X15903288Y24061643D01*
X15903288Y24061643D02*
X15408050Y24061643D01*
X17574717Y23318786D02*
X17450907Y23380691D01*
X17450907Y23380691D02*
X17327098Y23504500D01*
X17327098Y23504500D02*
X17141384Y23690215D01*
X17141384Y23690215D02*
X17017574Y23752120D01*
X17017574Y23752120D02*
X16893765Y23752120D01*
X16955669Y23442596D02*
X16831860Y23504500D01*
X16831860Y23504500D02*
X16708050Y23628310D01*
X16708050Y23628310D02*
X16646146Y23875929D01*
X16646146Y23875929D02*
X16646146Y24309262D01*
X16646146Y24309262D02*
X16708050Y24556881D01*
X16708050Y24556881D02*
X16831860Y24680691D01*
X16831860Y24680691D02*
X16955669Y24742596D01*
X16955669Y24742596D02*
X17203288Y24742596D01*
X17203288Y24742596D02*
X17327098Y24680691D01*
X17327098Y24680691D02*
X17450907Y24556881D01*
X17450907Y24556881D02*
X17512812Y24309262D01*
X17512812Y24309262D02*
X17512812Y23875929D01*
X17512812Y23875929D02*
X17450907Y23628310D01*
X17450907Y23628310D02*
X17327098Y23504500D01*
X17327098Y23504500D02*
X17203288Y23442596D01*
X17203288Y23442596D02*
X16955669Y23442596D01*
X13897060Y22216891D02*
X13773250Y22278796D01*
X13773250Y22278796D02*
X13587536Y22278796D01*
X13587536Y22278796D02*
X13401822Y22216891D01*
X13401822Y22216891D02*
X13278012Y22093081D01*
X13278012Y22093081D02*
X13216107Y21969272D01*
X13216107Y21969272D02*
X13154203Y21721653D01*
X13154203Y21721653D02*
X13154203Y21535939D01*
X13154203Y21535939D02*
X13216107Y21288320D01*
X13216107Y21288320D02*
X13278012Y21164510D01*
X13278012Y21164510D02*
X13401822Y21040700D01*
X13401822Y21040700D02*
X13587536Y20978796D01*
X13587536Y20978796D02*
X13711345Y20978796D01*
X13711345Y20978796D02*
X13897060Y21040700D01*
X13897060Y21040700D02*
X13958964Y21102605D01*
X13958964Y21102605D02*
X13958964Y21535939D01*
X13958964Y21535939D02*
X13711345Y21535939D01*
X14516107Y20978796D02*
X14516107Y22278796D01*
X14516107Y22278796D02*
X15011345Y22278796D01*
X15011345Y22278796D02*
X15135155Y22216891D01*
X15135155Y22216891D02*
X15197060Y22154986D01*
X15197060Y22154986D02*
X15258964Y22031177D01*
X15258964Y22031177D02*
X15258964Y21845462D01*
X15258964Y21845462D02*
X15197060Y21721653D01*
X15197060Y21721653D02*
X15135155Y21659748D01*
X15135155Y21659748D02*
X15011345Y21597843D01*
X15011345Y21597843D02*
X14516107Y21597843D01*
X15816107Y20978796D02*
X15816107Y22278796D01*
X16682774Y22278796D02*
X16930393Y22278796D01*
X16930393Y22278796D02*
X17054203Y22216891D01*
X17054203Y22216891D02*
X17178012Y22093081D01*
X17178012Y22093081D02*
X17239917Y21845462D01*
X17239917Y21845462D02*
X17239917Y21412129D01*
X17239917Y21412129D02*
X17178012Y21164510D01*
X17178012Y21164510D02*
X17054203Y21040700D01*
X17054203Y21040700D02*
X16930393Y20978796D01*
X16930393Y20978796D02*
X16682774Y20978796D01*
X16682774Y20978796D02*
X16558965Y21040700D01*
X16558965Y21040700D02*
X16435155Y21164510D01*
X16435155Y21164510D02*
X16373251Y21412129D01*
X16373251Y21412129D02*
X16373251Y21845462D01*
X16373251Y21845462D02*
X16435155Y22093081D01*
X16435155Y22093081D02*
X16558965Y22216891D01*
X16558965Y22216891D02*
X16682774Y22278796D01*
X18478013Y20978796D02*
X17735156Y20978796D01*
X18106584Y20978796D02*
X18106584Y22278796D01*
X18106584Y22278796D02*
X17982775Y22093081D01*
X17982775Y22093081D02*
X17858965Y21969272D01*
X17858965Y21969272D02*
X17735156Y21907367D01*
X14044612Y15847996D02*
X13611279Y16467043D01*
X13301755Y15847996D02*
X13301755Y17147996D01*
X13301755Y17147996D02*
X13796993Y17147996D01*
X13796993Y17147996D02*
X13920803Y17086091D01*
X13920803Y17086091D02*
X13982708Y17024186D01*
X13982708Y17024186D02*
X14044612Y16900377D01*
X14044612Y16900377D02*
X14044612Y16714662D01*
X14044612Y16714662D02*
X13982708Y16590853D01*
X13982708Y16590853D02*
X13920803Y16528948D01*
X13920803Y16528948D02*
X13796993Y16467043D01*
X13796993Y16467043D02*
X13301755Y16467043D01*
X14539851Y16219424D02*
X15158898Y16219424D01*
X14416041Y15847996D02*
X14849374Y17147996D01*
X14849374Y17147996D02*
X15282708Y15847996D01*
X15716041Y15847996D02*
X15716041Y17147996D01*
X15716041Y17147996D02*
X16149375Y16219424D01*
X16149375Y16219424D02*
X16582708Y17147996D01*
X16582708Y17147996D02*
X16582708Y15847996D01*
X17201755Y15847996D02*
X17201755Y17147996D01*
X17201755Y17147996D02*
X17696993Y17147996D01*
X17696993Y17147996D02*
X17820803Y17086091D01*
X17820803Y17086091D02*
X17882708Y17024186D01*
X17882708Y17024186D02*
X17944612Y16900377D01*
X17944612Y16900377D02*
X17944612Y16714662D01*
X17944612Y16714662D02*
X17882708Y16590853D01*
X17882708Y16590853D02*
X17820803Y16528948D01*
X17820803Y16528948D02*
X17696993Y16467043D01*
X17696993Y16467043D02*
X17201755Y16467043D01*
X13897060Y19626091D02*
X13773250Y19687996D01*
X13773250Y19687996D02*
X13587536Y19687996D01*
X13587536Y19687996D02*
X13401822Y19626091D01*
X13401822Y19626091D02*
X13278012Y19502281D01*
X13278012Y19502281D02*
X13216107Y19378472D01*
X13216107Y19378472D02*
X13154203Y19130853D01*
X13154203Y19130853D02*
X13154203Y18945139D01*
X13154203Y18945139D02*
X13216107Y18697520D01*
X13216107Y18697520D02*
X13278012Y18573710D01*
X13278012Y18573710D02*
X13401822Y18449900D01*
X13401822Y18449900D02*
X13587536Y18387996D01*
X13587536Y18387996D02*
X13711345Y18387996D01*
X13711345Y18387996D02*
X13897060Y18449900D01*
X13897060Y18449900D02*
X13958964Y18511805D01*
X13958964Y18511805D02*
X13958964Y18945139D01*
X13958964Y18945139D02*
X13711345Y18945139D01*
X14516107Y18387996D02*
X14516107Y19687996D01*
X14516107Y19687996D02*
X15011345Y19687996D01*
X15011345Y19687996D02*
X15135155Y19626091D01*
X15135155Y19626091D02*
X15197060Y19564186D01*
X15197060Y19564186D02*
X15258964Y19440377D01*
X15258964Y19440377D02*
X15258964Y19254662D01*
X15258964Y19254662D02*
X15197060Y19130853D01*
X15197060Y19130853D02*
X15135155Y19068948D01*
X15135155Y19068948D02*
X15011345Y19007043D01*
X15011345Y19007043D02*
X14516107Y19007043D01*
X15816107Y18387996D02*
X15816107Y19687996D01*
X16682774Y19687996D02*
X16930393Y19687996D01*
X16930393Y19687996D02*
X17054203Y19626091D01*
X17054203Y19626091D02*
X17178012Y19502281D01*
X17178012Y19502281D02*
X17239917Y19254662D01*
X17239917Y19254662D02*
X17239917Y18821329D01*
X17239917Y18821329D02*
X17178012Y18573710D01*
X17178012Y18573710D02*
X17054203Y18449900D01*
X17054203Y18449900D02*
X16930393Y18387996D01*
X16930393Y18387996D02*
X16682774Y18387996D01*
X16682774Y18387996D02*
X16558965Y18449900D01*
X16558965Y18449900D02*
X16435155Y18573710D01*
X16435155Y18573710D02*
X16373251Y18821329D01*
X16373251Y18821329D02*
X16373251Y19254662D01*
X16373251Y19254662D02*
X16435155Y19502281D01*
X16435155Y19502281D02*
X16558965Y19626091D01*
X16558965Y19626091D02*
X16682774Y19687996D01*
X18044679Y19687996D02*
X18168489Y19687996D01*
X18168489Y19687996D02*
X18292298Y19626091D01*
X18292298Y19626091D02*
X18354203Y19564186D01*
X18354203Y19564186D02*
X18416108Y19440377D01*
X18416108Y19440377D02*
X18478013Y19192758D01*
X18478013Y19192758D02*
X18478013Y18883234D01*
X18478013Y18883234D02*
X18416108Y18635615D01*
X18416108Y18635615D02*
X18354203Y18511805D01*
X18354203Y18511805D02*
X18292298Y18449900D01*
X18292298Y18449900D02*
X18168489Y18387996D01*
X18168489Y18387996D02*
X18044679Y18387996D01*
X18044679Y18387996D02*
X17920870Y18449900D01*
X17920870Y18449900D02*
X17858965Y18511805D01*
X17858965Y18511805D02*
X17797060Y18635615D01*
X17797060Y18635615D02*
X17735156Y18883234D01*
X17735156Y18883234D02*
X17735156Y19192758D01*
X17735156Y19192758D02*
X17797060Y19440377D01*
X17797060Y19440377D02*
X17858965Y19564186D01*
X17858965Y19564186D02*
X17920870Y19626091D01*
X17920870Y19626091D02*
X18044679Y19687996D01*
X26443004Y7669762D02*
X25143004Y7669762D01*
X26443004Y8288810D02*
X25143004Y8288810D01*
X25143004Y8288810D02*
X26443004Y9031667D01*
X26443004Y9031667D02*
X25143004Y9031667D01*
X25143004Y11260239D02*
X25143004Y10641191D01*
X25143004Y10641191D02*
X25762052Y10579287D01*
X25762052Y10579287D02*
X25700147Y10641191D01*
X25700147Y10641191D02*
X25638242Y10765001D01*
X25638242Y10765001D02*
X25638242Y11074525D01*
X25638242Y11074525D02*
X25700147Y11198334D01*
X25700147Y11198334D02*
X25762052Y11260239D01*
X25762052Y11260239D02*
X25885861Y11322144D01*
X25885861Y11322144D02*
X26195385Y11322144D01*
X26195385Y11322144D02*
X26319195Y11260239D01*
X26319195Y11260239D02*
X26381100Y11198334D01*
X26381100Y11198334D02*
X26443004Y11074525D01*
X26443004Y11074525D02*
X26443004Y10765001D01*
X26443004Y10765001D02*
X26381100Y10641191D01*
X26381100Y10641191D02*
X26319195Y10579287D01*
X25947766Y11879286D02*
X25947766Y12869762D01*
X26443004Y14169763D02*
X26443004Y13426906D01*
X26443004Y13798334D02*
X25143004Y13798334D01*
X25143004Y13798334D02*
X25328719Y13674525D01*
X25328719Y13674525D02*
X25452528Y13550715D01*
X25452528Y13550715D02*
X25514433Y13426906D01*
X25143004Y14974524D02*
X25143004Y15098334D01*
X25143004Y15098334D02*
X25204909Y15222143D01*
X25204909Y15222143D02*
X25266814Y15284048D01*
X25266814Y15284048D02*
X25390623Y15345953D01*
X25390623Y15345953D02*
X25638242Y15407858D01*
X25638242Y15407858D02*
X25947766Y15407858D01*
X25947766Y15407858D02*
X26195385Y15345953D01*
X26195385Y15345953D02*
X26319195Y15284048D01*
X26319195Y15284048D02*
X26381100Y15222143D01*
X26381100Y15222143D02*
X26443004Y15098334D01*
X26443004Y15098334D02*
X26443004Y14974524D01*
X26443004Y14974524D02*
X26381100Y14850715D01*
X26381100Y14850715D02*
X26319195Y14788810D01*
X26319195Y14788810D02*
X26195385Y14726905D01*
X26195385Y14726905D02*
X25947766Y14665001D01*
X25947766Y14665001D02*
X25638242Y14665001D01*
X25638242Y14665001D02*
X25390623Y14726905D01*
X25390623Y14726905D02*
X25266814Y14788810D01*
X25266814Y14788810D02*
X25204909Y14850715D01*
X25204909Y14850715D02*
X25143004Y14974524D01*
X25143004Y15779286D02*
X26443004Y16212619D01*
X26443004Y16212619D02*
X25143004Y16645953D01*
X43989804Y8195124D02*
X43989804Y8442743D01*
X43989804Y8442743D02*
X44051709Y8566553D01*
X44051709Y8566553D02*
X44175519Y8690362D01*
X44175519Y8690362D02*
X44423138Y8752267D01*
X44423138Y8752267D02*
X44856471Y8752267D01*
X44856471Y8752267D02*
X45104090Y8690362D01*
X45104090Y8690362D02*
X45227900Y8566553D01*
X45227900Y8566553D02*
X45289804Y8442743D01*
X45289804Y8442743D02*
X45289804Y8195124D01*
X45289804Y8195124D02*
X45227900Y8071315D01*
X45227900Y8071315D02*
X45104090Y7947505D01*
X45104090Y7947505D02*
X44856471Y7885601D01*
X44856471Y7885601D02*
X44423138Y7885601D01*
X44423138Y7885601D02*
X44175519Y7947505D01*
X44175519Y7947505D02*
X44051709Y8071315D01*
X44051709Y8071315D02*
X43989804Y8195124D01*
X43989804Y9309410D02*
X45042185Y9309410D01*
X45042185Y9309410D02*
X45165995Y9371315D01*
X45165995Y9371315D02*
X45227900Y9433220D01*
X45227900Y9433220D02*
X45289804Y9557029D01*
X45289804Y9557029D02*
X45289804Y9804648D01*
X45289804Y9804648D02*
X45227900Y9928458D01*
X45227900Y9928458D02*
X45165995Y9990363D01*
X45165995Y9990363D02*
X45042185Y10052267D01*
X45042185Y10052267D02*
X43989804Y10052267D01*
X43989804Y10485601D02*
X43989804Y11228458D01*
X45289804Y10857030D02*
X43989804Y10857030D01*
X43989804Y12528458D02*
X43989804Y13333220D01*
X43989804Y13333220D02*
X44485042Y12899886D01*
X44485042Y12899886D02*
X44485042Y13085601D01*
X44485042Y13085601D02*
X44546947Y13209410D01*
X44546947Y13209410D02*
X44608852Y13271315D01*
X44608852Y13271315D02*
X44732661Y13333220D01*
X44732661Y13333220D02*
X45042185Y13333220D01*
X45042185Y13333220D02*
X45165995Y13271315D01*
X45165995Y13271315D02*
X45227900Y13209410D01*
X45227900Y13209410D02*
X45289804Y13085601D01*
X45289804Y13085601D02*
X45289804Y12714172D01*
X45289804Y12714172D02*
X45227900Y12590363D01*
X45227900Y12590363D02*
X45165995Y12528458D01*
X43989804Y13704648D02*
X45289804Y14137981D01*
X45289804Y14137981D02*
X43989804Y14571315D01*
X43989804Y14880839D02*
X43989804Y15685601D01*
X43989804Y15685601D02*
X44485042Y15252267D01*
X44485042Y15252267D02*
X44485042Y15437982D01*
X44485042Y15437982D02*
X44546947Y15561791D01*
X44546947Y15561791D02*
X44608852Y15623696D01*
X44608852Y15623696D02*
X44732661Y15685601D01*
X44732661Y15685601D02*
X45042185Y15685601D01*
X45042185Y15685601D02*
X45165995Y15623696D01*
X45165995Y15623696D02*
X45227900Y15561791D01*
X45227900Y15561791D02*
X45289804Y15437982D01*
X45289804Y15437982D02*
X45289804Y15066553D01*
X45289804Y15066553D02*
X45227900Y14942744D01*
X45227900Y14942744D02*
X45165995Y14880839D01*
X46483604Y30568134D02*
X45864557Y30134801D01*
X46483604Y29825277D02*
X45183604Y29825277D01*
X45183604Y29825277D02*
X45183604Y30320515D01*
X45183604Y30320515D02*
X45245509Y30444325D01*
X45245509Y30444325D02*
X45307414Y30506230D01*
X45307414Y30506230D02*
X45431223Y30568134D01*
X45431223Y30568134D02*
X45616938Y30568134D01*
X45616938Y30568134D02*
X45740747Y30506230D01*
X45740747Y30506230D02*
X45802652Y30444325D01*
X45802652Y30444325D02*
X45864557Y30320515D01*
X45864557Y30320515D02*
X45864557Y29825277D01*
X45183604Y31001468D02*
X46483604Y31868134D01*
X45183604Y31868134D02*
X46483604Y31001468D01*
X45158204Y18973925D02*
X45158204Y19716782D01*
X46458204Y19345354D02*
X45158204Y19345354D01*
X45158204Y20026306D02*
X46458204Y20892972D01*
X45158204Y20892972D02*
X46458204Y20026306D01*
X20766543Y22740472D02*
X20766543Y24240472D01*
X21409401Y22811900D02*
X21623687Y22740472D01*
X21623687Y22740472D02*
X21980829Y22740472D01*
X21980829Y22740472D02*
X22123687Y22811900D01*
X22123687Y22811900D02*
X22195115Y22883329D01*
X22195115Y22883329D02*
X22266544Y23026186D01*
X22266544Y23026186D02*
X22266544Y23169043D01*
X22266544Y23169043D02*
X22195115Y23311900D01*
X22195115Y23311900D02*
X22123687Y23383329D01*
X22123687Y23383329D02*
X21980829Y23454758D01*
X21980829Y23454758D02*
X21695115Y23526186D01*
X21695115Y23526186D02*
X21552258Y23597615D01*
X21552258Y23597615D02*
X21480829Y23669043D01*
X21480829Y23669043D02*
X21409401Y23811900D01*
X21409401Y23811900D02*
X21409401Y23954758D01*
X21409401Y23954758D02*
X21480829Y24097615D01*
X21480829Y24097615D02*
X21552258Y24169043D01*
X21552258Y24169043D02*
X21695115Y24240472D01*
X21695115Y24240472D02*
X22052258Y24240472D01*
X22052258Y24240472D02*
X22266544Y24169043D01*
X22909400Y22740472D02*
X22909400Y24240472D01*
X22909400Y24240472D02*
X23409400Y23169043D01*
X23409400Y23169043D02*
X23909400Y24240472D01*
X23909400Y24240472D02*
X23909400Y22740472D01*
X24909401Y24240472D02*
X25052258Y24240472D01*
X25052258Y24240472D02*
X25195115Y24169043D01*
X25195115Y24169043D02*
X25266544Y24097615D01*
X25266544Y24097615D02*
X25337972Y23954758D01*
X25337972Y23954758D02*
X25409401Y23669043D01*
X25409401Y23669043D02*
X25409401Y23311900D01*
X25409401Y23311900D02*
X25337972Y23026186D01*
X25337972Y23026186D02*
X25266544Y22883329D01*
X25266544Y22883329D02*
X25195115Y22811900D01*
X25195115Y22811900D02*
X25052258Y22740472D01*
X25052258Y22740472D02*
X24909401Y22740472D01*
X24909401Y22740472D02*
X24766544Y22811900D01*
X24766544Y22811900D02*
X24695115Y22883329D01*
X24695115Y22883329D02*
X24623686Y23026186D01*
X24623686Y23026186D02*
X24552258Y23311900D01*
X24552258Y23311900D02*
X24552258Y23669043D01*
X24552258Y23669043D02*
X24623686Y23954758D01*
X24623686Y23954758D02*
X24695115Y24097615D01*
X24695115Y24097615D02*
X24766544Y24169043D01*
X24766544Y24169043D02*
X24909401Y24240472D01*
X25909400Y24240472D02*
X26837972Y24240472D01*
X26837972Y24240472D02*
X26337972Y23669043D01*
X26337972Y23669043D02*
X26552257Y23669043D01*
X26552257Y23669043D02*
X26695115Y23597615D01*
X26695115Y23597615D02*
X26766543Y23526186D01*
X26766543Y23526186D02*
X26837972Y23383329D01*
X26837972Y23383329D02*
X26837972Y23026186D01*
X26837972Y23026186D02*
X26766543Y22883329D01*
X26766543Y22883329D02*
X26695115Y22811900D01*
X26695115Y22811900D02*
X26552257Y22740472D01*
X26552257Y22740472D02*
X26123686Y22740472D01*
X26123686Y22740472D02*
X25980829Y22811900D01*
X25980829Y22811900D02*
X25909400Y22883329D01*
X27409400Y23169043D02*
X28123686Y23169043D01*
X27266543Y22740472D02*
X27766543Y24240472D01*
X27766543Y24240472D02*
X28266543Y22740472D01*
X34106172Y19373215D02*
X34177600Y19444643D01*
X34177600Y19444643D02*
X34320458Y19516072D01*
X34320458Y19516072D02*
X34677600Y19516072D01*
X34677600Y19516072D02*
X34820458Y19444643D01*
X34820458Y19444643D02*
X34891886Y19373215D01*
X34891886Y19373215D02*
X34963315Y19230358D01*
X34963315Y19230358D02*
X34963315Y19087500D01*
X34963315Y19087500D02*
X34891886Y18873215D01*
X34891886Y18873215D02*
X34034743Y18016072D01*
X34034743Y18016072D02*
X34963315Y18016072D01*
X35891886Y19516072D02*
X36034743Y19516072D01*
X36034743Y19516072D02*
X36177600Y19444643D01*
X36177600Y19444643D02*
X36249029Y19373215D01*
X36249029Y19373215D02*
X36320457Y19230358D01*
X36320457Y19230358D02*
X36391886Y18944643D01*
X36391886Y18944643D02*
X36391886Y18587500D01*
X36391886Y18587500D02*
X36320457Y18301786D01*
X36320457Y18301786D02*
X36249029Y18158929D01*
X36249029Y18158929D02*
X36177600Y18087500D01*
X36177600Y18087500D02*
X36034743Y18016072D01*
X36034743Y18016072D02*
X35891886Y18016072D01*
X35891886Y18016072D02*
X35749029Y18087500D01*
X35749029Y18087500D02*
X35677600Y18158929D01*
X35677600Y18158929D02*
X35606171Y18301786D01*
X35606171Y18301786D02*
X35534743Y18587500D01*
X35534743Y18587500D02*
X35534743Y18944643D01*
X35534743Y18944643D02*
X35606171Y19230358D01*
X35606171Y19230358D02*
X35677600Y19373215D01*
X35677600Y19373215D02*
X35749029Y19444643D01*
X35749029Y19444643D02*
X35891886Y19516072D01*
X36963314Y19373215D02*
X37034742Y19444643D01*
X37034742Y19444643D02*
X37177600Y19516072D01*
X37177600Y19516072D02*
X37534742Y19516072D01*
X37534742Y19516072D02*
X37677600Y19444643D01*
X37677600Y19444643D02*
X37749028Y19373215D01*
X37749028Y19373215D02*
X37820457Y19230358D01*
X37820457Y19230358D02*
X37820457Y19087500D01*
X37820457Y19087500D02*
X37749028Y18873215D01*
X37749028Y18873215D02*
X36891885Y18016072D01*
X36891885Y18016072D02*
X37820457Y18016072D01*
X39106171Y19016072D02*
X39106171Y18016072D01*
X38749028Y19587500D02*
X38391885Y18516072D01*
X38391885Y18516072D02*
X39320456Y18516072D01*
X33733942Y20251272D02*
X33733942Y21751272D01*
X33876800Y20822700D02*
X34305371Y20251272D01*
X34305371Y21251272D02*
X33733942Y20679843D01*
X35591086Y20251272D02*
X35591086Y21036986D01*
X35591086Y21036986D02*
X35519657Y21179843D01*
X35519657Y21179843D02*
X35376800Y21251272D01*
X35376800Y21251272D02*
X35091086Y21251272D01*
X35091086Y21251272D02*
X34948228Y21179843D01*
X35591086Y20322700D02*
X35448228Y20251272D01*
X35448228Y20251272D02*
X35091086Y20251272D01*
X35091086Y20251272D02*
X34948228Y20322700D01*
X34948228Y20322700D02*
X34876800Y20465558D01*
X34876800Y20465558D02*
X34876800Y20608415D01*
X34876800Y20608415D02*
X34948228Y20751272D01*
X34948228Y20751272D02*
X35091086Y20822700D01*
X35091086Y20822700D02*
X35448228Y20822700D01*
X35448228Y20822700D02*
X35591086Y20894129D01*
X36305371Y20251272D02*
X36305371Y21751272D01*
X36448229Y20822700D02*
X36876800Y20251272D01*
X36876800Y21251272D02*
X36305371Y20679843D01*
X37733943Y20251272D02*
X37591086Y20322700D01*
X37591086Y20322700D02*
X37519657Y20465558D01*
X37519657Y20465558D02*
X37519657Y21751272D01*
X38305371Y20251272D02*
X38305371Y21251272D01*
X38305371Y21751272D02*
X38233943Y21679843D01*
X38233943Y21679843D02*
X38305371Y21608415D01*
X38305371Y21608415D02*
X38376800Y21679843D01*
X38376800Y21679843D02*
X38305371Y21751272D01*
X38305371Y21751272D02*
X38305371Y21608415D01*
X39019657Y20251272D02*
X39019657Y21751272D01*
X39162515Y20822700D02*
X39591086Y20251272D01*
X39591086Y21251272D02*
X39019657Y20679843D01*
X19870456Y25102672D02*
X19870456Y26602672D01*
X19870456Y26602672D02*
X20370456Y25531243D01*
X20370456Y25531243D02*
X20870456Y26602672D01*
X20870456Y26602672D02*
X20870456Y25102672D01*
X22299028Y25102672D02*
X21584742Y25102672D01*
X21584742Y25102672D02*
X21584742Y26602672D01*
X22727600Y25531243D02*
X23441886Y25531243D01*
X22584743Y25102672D02*
X23084743Y26602672D01*
X23084743Y26602672D02*
X23584743Y25102672D01*
X24584742Y25888386D02*
X24799028Y25816958D01*
X24799028Y25816958D02*
X24870457Y25745529D01*
X24870457Y25745529D02*
X24941885Y25602672D01*
X24941885Y25602672D02*
X24941885Y25388386D01*
X24941885Y25388386D02*
X24870457Y25245529D01*
X24870457Y25245529D02*
X24799028Y25174100D01*
X24799028Y25174100D02*
X24656171Y25102672D01*
X24656171Y25102672D02*
X24084742Y25102672D01*
X24084742Y25102672D02*
X24084742Y26602672D01*
X24084742Y26602672D02*
X24584742Y26602672D01*
X24584742Y26602672D02*
X24727600Y26531243D01*
X24727600Y26531243D02*
X24799028Y26459815D01*
X24799028Y26459815D02*
X24870457Y26316958D01*
X24870457Y26316958D02*
X24870457Y26174100D01*
X24870457Y26174100D02*
X24799028Y26031243D01*
X24799028Y26031243D02*
X24727600Y25959815D01*
X24727600Y25959815D02*
X24584742Y25888386D01*
X24584742Y25888386D02*
X24084742Y25888386D01*
X25584742Y25245529D02*
X25656171Y25174100D01*
X25656171Y25174100D02*
X25584742Y25102672D01*
X25584742Y25102672D02*
X25513314Y25174100D01*
X25513314Y25174100D02*
X25584742Y25245529D01*
X25584742Y25245529D02*
X25584742Y25102672D01*
X26941886Y25174100D02*
X26799028Y25102672D01*
X26799028Y25102672D02*
X26513314Y25102672D01*
X26513314Y25102672D02*
X26370457Y25174100D01*
X26370457Y25174100D02*
X26299028Y25245529D01*
X26299028Y25245529D02*
X26227600Y25388386D01*
X26227600Y25388386D02*
X26227600Y25816958D01*
X26227600Y25816958D02*
X26299028Y25959815D01*
X26299028Y25959815D02*
X26370457Y26031243D01*
X26370457Y26031243D02*
X26513314Y26102672D01*
X26513314Y26102672D02*
X26799028Y26102672D01*
X26799028Y26102672D02*
X26941886Y26031243D01*
X27441885Y26102672D02*
X28227600Y26102672D01*
X28227600Y26102672D02*
X27441885Y25102672D01*
X27441885Y25102672D02*
X28227600Y25102672D01*
X37380832Y38479396D02*
X36761784Y38479396D01*
X36761784Y38479396D02*
X36761784Y39779396D01*
X37814165Y39160348D02*
X38247499Y39160348D01*
X38433213Y38479396D02*
X37814165Y38479396D01*
X37814165Y38479396D02*
X37814165Y39779396D01*
X37814165Y39779396D02*
X38433213Y39779396D01*
X38990355Y38479396D02*
X38990355Y39779396D01*
X38990355Y39779396D02*
X39299879Y39779396D01*
X39299879Y39779396D02*
X39485593Y39717491D01*
X39485593Y39717491D02*
X39609403Y39593681D01*
X39609403Y39593681D02*
X39671308Y39469872D01*
X39671308Y39469872D02*
X39733212Y39222253D01*
X39733212Y39222253D02*
X39733212Y39036539D01*
X39733212Y39036539D02*
X39671308Y38788920D01*
X39671308Y38788920D02*
X39609403Y38665110D01*
X39609403Y38665110D02*
X39485593Y38541300D01*
X39485593Y38541300D02*
X39299879Y38479396D01*
X39299879Y38479396D02*
X38990355Y38479396D01*
X40971308Y39717491D02*
X40847498Y39779396D01*
X40847498Y39779396D02*
X40661784Y39779396D01*
X40661784Y39779396D02*
X40476070Y39717491D01*
X40476070Y39717491D02*
X40352260Y39593681D01*
X40352260Y39593681D02*
X40290355Y39469872D01*
X40290355Y39469872D02*
X40228451Y39222253D01*
X40228451Y39222253D02*
X40228451Y39036539D01*
X40228451Y39036539D02*
X40290355Y38788920D01*
X40290355Y38788920D02*
X40352260Y38665110D01*
X40352260Y38665110D02*
X40476070Y38541300D01*
X40476070Y38541300D02*
X40661784Y38479396D01*
X40661784Y38479396D02*
X40785593Y38479396D01*
X40785593Y38479396D02*
X40971308Y38541300D01*
X40971308Y38541300D02*
X41033212Y38603205D01*
X41033212Y38603205D02*
X41033212Y39036539D01*
X41033212Y39036539D02*
X40785593Y39036539D01*
X37457032Y42644996D02*
X36837984Y42644996D01*
X36837984Y42644996D02*
X36837984Y43944996D01*
X37890365Y43325948D02*
X38323699Y43325948D01*
X38509413Y42644996D02*
X37890365Y42644996D01*
X37890365Y42644996D02*
X37890365Y43944996D01*
X37890365Y43944996D02*
X38509413Y43944996D01*
X39066555Y42644996D02*
X39066555Y43944996D01*
X39066555Y43944996D02*
X39376079Y43944996D01*
X39376079Y43944996D02*
X39561793Y43883091D01*
X39561793Y43883091D02*
X39685603Y43759281D01*
X39685603Y43759281D02*
X39747508Y43635472D01*
X39747508Y43635472D02*
X39809412Y43387853D01*
X39809412Y43387853D02*
X39809412Y43202139D01*
X39809412Y43202139D02*
X39747508Y42954520D01*
X39747508Y42954520D02*
X39685603Y42830710D01*
X39685603Y42830710D02*
X39561793Y42706900D01*
X39561793Y42706900D02*
X39376079Y42644996D01*
X39376079Y42644996D02*
X39066555Y42644996D01*
X41109412Y42644996D02*
X40676079Y43264043D01*
X40366555Y42644996D02*
X40366555Y43944996D01*
X40366555Y43944996D02*
X40861793Y43944996D01*
X40861793Y43944996D02*
X40985603Y43883091D01*
X40985603Y43883091D02*
X41047508Y43821186D01*
X41047508Y43821186D02*
X41109412Y43697377D01*
X41109412Y43697377D02*
X41109412Y43511662D01*
X41109412Y43511662D02*
X41047508Y43387853D01*
X41047508Y43387853D02*
X40985603Y43325948D01*
X40985603Y43325948D02*
X40861793Y43264043D01*
X40861793Y43264043D02*
X40366555Y43264043D01*
X13428508Y31073700D02*
X13614222Y31011796D01*
X13614222Y31011796D02*
X13923746Y31011796D01*
X13923746Y31011796D02*
X14047555Y31073700D01*
X14047555Y31073700D02*
X14109460Y31135605D01*
X14109460Y31135605D02*
X14171365Y31259415D01*
X14171365Y31259415D02*
X14171365Y31383224D01*
X14171365Y31383224D02*
X14109460Y31507034D01*
X14109460Y31507034D02*
X14047555Y31568939D01*
X14047555Y31568939D02*
X13923746Y31630843D01*
X13923746Y31630843D02*
X13676127Y31692748D01*
X13676127Y31692748D02*
X13552317Y31754653D01*
X13552317Y31754653D02*
X13490412Y31816558D01*
X13490412Y31816558D02*
X13428508Y31940367D01*
X13428508Y31940367D02*
X13428508Y32064177D01*
X13428508Y32064177D02*
X13490412Y32187986D01*
X13490412Y32187986D02*
X13552317Y32249891D01*
X13552317Y32249891D02*
X13676127Y32311796D01*
X13676127Y32311796D02*
X13985650Y32311796D01*
X13985650Y32311796D02*
X14171365Y32249891D01*
X14728507Y31011796D02*
X14728507Y32311796D01*
X14728507Y32311796D02*
X15038031Y32311796D01*
X15038031Y32311796D02*
X15223745Y32249891D01*
X15223745Y32249891D02*
X15347555Y32126081D01*
X15347555Y32126081D02*
X15409460Y32002272D01*
X15409460Y32002272D02*
X15471364Y31754653D01*
X15471364Y31754653D02*
X15471364Y31568939D01*
X15471364Y31568939D02*
X15409460Y31321320D01*
X15409460Y31321320D02*
X15347555Y31197510D01*
X15347555Y31197510D02*
X15223745Y31073700D01*
X15223745Y31073700D02*
X15038031Y31011796D01*
X15038031Y31011796D02*
X14728507Y31011796D01*
X16028507Y31011796D02*
X16028507Y32311796D01*
X13943138Y33231186D02*
X13943138Y34159757D01*
X13385995Y33602614D02*
X15057423Y33231186D01*
X14500280Y34035947D02*
X14500280Y33107376D01*
X15057423Y33664519D02*
X13385995Y34035947D01*
X14747900Y34531186D02*
X14809804Y34716900D01*
X14809804Y34716900D02*
X14809804Y35026424D01*
X14809804Y35026424D02*
X14747900Y35150233D01*
X14747900Y35150233D02*
X14685995Y35212138D01*
X14685995Y35212138D02*
X14562185Y35274043D01*
X14562185Y35274043D02*
X14438376Y35274043D01*
X14438376Y35274043D02*
X14314566Y35212138D01*
X14314566Y35212138D02*
X14252661Y35150233D01*
X14252661Y35150233D02*
X14190757Y35026424D01*
X14190757Y35026424D02*
X14128852Y34778805D01*
X14128852Y34778805D02*
X14066947Y34654995D01*
X14066947Y34654995D02*
X14005042Y34593090D01*
X14005042Y34593090D02*
X13881233Y34531186D01*
X13881233Y34531186D02*
X13757423Y34531186D01*
X13757423Y34531186D02*
X13633614Y34593090D01*
X13633614Y34593090D02*
X13571709Y34654995D01*
X13571709Y34654995D02*
X13509804Y34778805D01*
X13509804Y34778805D02*
X13509804Y35088328D01*
X13509804Y35088328D02*
X13571709Y35274043D01*
X14128852Y35831185D02*
X14128852Y36264519D01*
X14809804Y36450233D02*
X14809804Y35831185D01*
X14809804Y35831185D02*
X13509804Y35831185D01*
X13509804Y35831185D02*
X13509804Y36450233D01*
X14809804Y37626423D02*
X14809804Y37007375D01*
X14809804Y37007375D02*
X13509804Y37007375D01*
D11*
X50062328Y35288601D02*
X51133757Y35288601D01*
X51133757Y35288601D02*
X51348042Y35217172D01*
X51348042Y35217172D02*
X51490900Y35074315D01*
X51490900Y35074315D02*
X51562328Y34860029D01*
X51562328Y34860029D02*
X51562328Y34717172D01*
X50062328Y35860029D02*
X50062328Y36788601D01*
X50062328Y36788601D02*
X50633757Y36288601D01*
X50633757Y36288601D02*
X50633757Y36502886D01*
X50633757Y36502886D02*
X50705185Y36645743D01*
X50705185Y36645743D02*
X50776614Y36717172D01*
X50776614Y36717172D02*
X50919471Y36788601D01*
X50919471Y36788601D02*
X51276614Y36788601D01*
X51276614Y36788601D02*
X51419471Y36717172D01*
X51419471Y36717172D02*
X51490900Y36645743D01*
X51490900Y36645743D02*
X51562328Y36502886D01*
X51562328Y36502886D02*
X51562328Y36074315D01*
X51562328Y36074315D02*
X51490900Y35931458D01*
X51490900Y35931458D02*
X51419471Y35860029D01*
X49996081Y14587604D02*
X51067510Y14587604D01*
X51067510Y14587604D02*
X51281795Y14516175D01*
X51281795Y14516175D02*
X51424653Y14373318D01*
X51424653Y14373318D02*
X51496081Y14159032D01*
X51496081Y14159032D02*
X51496081Y14016175D01*
X50138938Y15230461D02*
X50067510Y15301889D01*
X50067510Y15301889D02*
X49996081Y15444746D01*
X49996081Y15444746D02*
X49996081Y15801889D01*
X49996081Y15801889D02*
X50067510Y15944746D01*
X50067510Y15944746D02*
X50138938Y16016175D01*
X50138938Y16016175D02*
X50281795Y16087604D01*
X50281795Y16087604D02*
X50424653Y16087604D01*
X50424653Y16087604D02*
X50638938Y16016175D01*
X50638938Y16016175D02*
X51496081Y15159032D01*
X51496081Y15159032D02*
X51496081Y16087604D01*
%TO.C,J17*%
X7620000Y17780000D02*
X12700000Y17780000D01*
X7620000Y15494000D02*
X7620000Y17780000D01*
X12700000Y17780000D02*
X12700000Y15494000D01*
%TO.C,J1*%
X19304000Y16256000D02*
X24384000Y16256000D01*
X19304000Y8636000D02*
X19304000Y16256000D01*
X24384000Y16256000D02*
X24384000Y8636000D01*
X24384000Y8636000D02*
X19304000Y8636000D01*
%TO.C,J4*%
X38150800Y15646400D02*
X43230800Y15646400D01*
X38150800Y8026400D02*
X38150800Y15646400D01*
X43230800Y15646400D02*
X43230800Y8026400D01*
X43230800Y8026400D02*
X38150800Y8026400D01*
%TO.C,J13*%
X7620000Y27940000D02*
X12700000Y27940000D01*
X7620000Y25654000D02*
X7620000Y27940000D01*
X12700000Y27940000D02*
X12700000Y25654000D01*
%TO.C,J14*%
X7620000Y33020000D02*
X12700000Y33020000D01*
X7620000Y30734000D02*
X7620000Y33020000D01*
X12700000Y33020000D02*
X12700000Y30734000D01*
%TO.C,J19*%
X7620000Y25400000D02*
X12700000Y25400000D01*
X7620000Y23114000D02*
X7620000Y25400000D01*
X12700000Y25400000D02*
X12700000Y23114000D01*
%TO.C,J20*%
X7620000Y20320000D02*
X12700000Y20320000D01*
X7620000Y18034000D02*
X7620000Y20320000D01*
X12700000Y20320000D02*
X12700000Y18034000D01*
%TO.C,J21*%
X7620000Y22860000D02*
X12700000Y22860000D01*
X7620000Y20574000D02*
X7620000Y22860000D01*
X12700000Y22860000D02*
X12700000Y20574000D01*
%TO.C,J3*%
X47300000Y31776087D02*
X47300000Y29744087D01*
X49784000Y27285487D02*
X51816000Y27285487D01*
X51816000Y34260087D02*
X49784000Y34260087D01*
X54300000Y29744087D02*
X54300000Y31776087D01*
%TO.C,J22*%
X18034000Y43307000D02*
X20320000Y43307000D01*
X20320000Y43307000D02*
X20320000Y38227000D01*
X20320000Y38227000D02*
X18034000Y38227000D01*
%TO.C,J16*%
X7620000Y35560000D02*
X12700000Y35560000D01*
X7620000Y33274000D02*
X7620000Y35560000D01*
X12700000Y35560000D02*
X12700000Y33274000D01*
%TO.C,J15*%
X7620000Y30480000D02*
X12700000Y30480000D01*
X7620000Y28194000D02*
X7620000Y30480000D01*
X12700000Y30480000D02*
X12700000Y28194000D01*
%TO.C,J23*%
X20574000Y43307000D02*
X22860000Y43307000D01*
X22860000Y43307000D02*
X22860000Y38227000D01*
X22860000Y38227000D02*
X20574000Y38227000D01*
%TO.C,J2*%
X47300000Y21055914D02*
X47300000Y19023914D01*
X49784000Y16565314D02*
X51816000Y16565314D01*
X51816000Y23539914D02*
X49784000Y23539914D01*
X54300000Y19023914D02*
X54300000Y21055914D01*
%TO.C,J6*%
X15494000Y43307000D02*
X17780000Y43307000D01*
X17780000Y43307000D02*
X17780000Y38227000D01*
X17780000Y38227000D02*
X15494000Y38227000D01*
%TO.C,J7*%
X23114000Y43307000D02*
X25400000Y43307000D01*
X25400000Y43307000D02*
X25400000Y38227000D01*
X25400000Y38227000D02*
X23114000Y38227000D01*
%TO.C,J5*%
X25654000Y43307689D02*
X27940000Y43307689D01*
X27940000Y43307689D02*
X27940000Y38227689D01*
X27940000Y38227689D02*
X25654000Y38227689D01*
%TD*%
M02*
