M48
; DRILL file {KiCad 8.0.3+1} date 2024-07-15T18:43:40+0000
; FORMAT={3:3/ absolute / metric / suppress leading zeros}
; #@! TF.CreationDate,2024-07-15T18:43:40+00:00
; #@! TF.GenerationSoftware,Kicad,Pcbnew,8.0.3+1
; #@! TF.FileFunction,Plated,1,2,PTH
FMAT,2
METRIC,TZ
; #@! TA.AperFunction,Plated,PTH,ComponentDrill
T1C0.200
; #@! TA.AperFunction,Plated,PTH,ViaDrill
T2C0.400
; #@! TA.AperFunction,Plated,PTH,ComponentDrill
T3C0.889
; #@! TA.AperFunction,Plated,PTH,ComponentDrill
T4C1.500
; #@! TA.AperFunction,Plated,PTH,ComponentDrill
T5C1.700
; #@! TA.AperFunction,Plated,PTH,ComponentDrill
T6C3.000
%
G90
G05
T1
X21165Y27162
X21165Y25062
X23265Y27162
X23265Y25062
T2
X6086Y33781
X6274Y31013
X6274Y29235
X6274Y27457
X6476Y20584
X6528Y25425
X6604Y16713
X6680Y36195
X7036Y23393
X14935Y15113
X17602Y15088
X18948Y29134
X20828Y33249
X22512Y29405
X25744Y18048
X28372Y11951
X29200Y36575
X29388Y37487
X30118Y38198
X32258Y33655
X32360Y21488
X32893Y36066
X32893Y35103
X33263Y19797
X33264Y40385
X33757Y17526
X33884Y21488
X33909Y26822
X34417Y35611
X34417Y28600
X34787Y16749
X35357Y33884
X35408Y21488
X35433Y26822
X36424Y21488
X36449Y36119
X36449Y35103
X36449Y26822
X36525Y18161
X37135Y33884
X38245Y17185
X38913Y33884
X39323Y22932
X39323Y18263
X40132Y28956
X40221Y22034
X40401Y19340
X40691Y33884
X41478Y20777
X41529Y28956
X42926Y33477
X43434Y15494
X44907Y29642
X44907Y27864
X44907Y26086
X44907Y24562
X45288Y41529
X45710Y16001
X45964Y33527
X46980Y37083
X47742Y15493
X50028Y15493
X52314Y26415
X52314Y15493
X54092Y15493
X54346Y26415
T3
X8890Y24130
X8890Y21590
X8890Y19050
X8890Y16510
X8890Y34290
X8890Y31750
X8890Y29210
X8890Y26670
X11430Y34290
X11430Y31750
X11430Y29210
X11430Y26670
X11430Y24130
X11430Y21590
X11430Y19050
X11430Y16510
X16510Y42037
X16510Y39497
X19050Y42037
X19050Y39497
X20574Y14986
X20574Y12446
X20574Y9906
X21590Y42037
X21590Y39497
X23114Y14986
X23114Y12446
X23114Y9906
X24130Y42037
X24130Y39497
X26670Y42038
X26670Y39498
X39421Y14376
X39421Y11836
X39421Y9296
X41961Y14376
X41961Y11836
X41961Y9296
T4
X50790Y31749
X50790Y20954
T5
X48250Y34289
X48250Y29209
X48250Y23494
X48250Y18414
X53330Y34289
X53330Y29209
X53330Y23494
X53330Y18414
T6
X10160Y40640
X10160Y10160
X50800Y40640
X50800Y10160
M30
