%TF.GenerationSoftware,KiCad,Pcbnew,7.0.11+1*%
%TF.CreationDate,2024-07-13T22:37:04+00:00*%
%TF.ProjectId,ISM03,49534d30-332e-46b6-9963-61645f706362,rev?*%
%TF.SameCoordinates,Original*%
%TF.FileFunction,Copper,L2,Bot*%
%TF.FilePolarity,Positive*%
%FSLAX46Y46*%
G04 Gerber Fmt 4.6, Leading zero omitted, Abs format (unit mm)*
G04 Created by KiCad (PCBNEW 7.0.11+1) date 2024-07-13 22:37:04*
%MOMM*%
%LPD*%
G01*
G04 APERTURE LIST*
G04 Aperture macros list*
%AMRoundRect*
0 Rectangle with rounded corners*
0 $1 Rounding radius*
0 $2 $3 $4 $5 $6 $7 $8 $9 X,Y pos of 4 corners*
0 Add a 4 corners polygon primitive as box body*
4,1,4,$2,$3,$4,$5,$6,$7,$8,$9,$2,$3,0*
0 Add four circle primitives for the rounded corners*
1,1,$1+$1,$2,$3*
1,1,$1+$1,$4,$5*
1,1,$1+$1,$6,$7*
1,1,$1+$1,$8,$9*
0 Add four rect primitives between the rounded corners*
20,1,$1+$1,$2,$3,$4,$5,0*
20,1,$1+$1,$4,$5,$6,$7,0*
20,1,$1+$1,$6,$7,$8,$9,0*
20,1,$1+$1,$8,$9,$2,$3,0*%
%AMFreePoly0*
4,1,25,0.405000,0.748540,0.473851,0.737775,0.540468,0.697134,0.586462,0.634092,0.604830,0.558249,0.592776,0.481149,0.558927,0.388685,0.517726,0.196112,0.503933,-0.000335,0.517820,-0.196775,0.559113,-0.389328,0.593005,-0.481776,0.605097,-0.558870,0.586765,-0.634722,0.540802,-0.697786,0.474204,-0.738459,0.405000,-0.749313,0.405000,-0.750000,0.400623,-0.750000,0.397110,-0.750551,
0.394830,-0.750000,-0.645000,-0.750000,-0.645000,0.750000,0.405000,0.750000,0.405000,0.748540,0.405000,0.748540,$1*%
G04 Aperture macros list end*
%TA.AperFunction,ComponentPad*%
%ADD10R,1.524000X1.524000*%
%TD*%
%TA.AperFunction,ComponentPad*%
%ADD11C,6.000000*%
%TD*%
%TA.AperFunction,ComponentPad*%
%ADD12C,2.500000*%
%TD*%
%TA.AperFunction,ComponentPad*%
%ADD13C,2.700000*%
%TD*%
%TA.AperFunction,SMDPad,CuDef*%
%ADD14RoundRect,0.250000X-0.262500X-0.450000X0.262500X-0.450000X0.262500X0.450000X-0.262500X0.450000X0*%
%TD*%
%TA.AperFunction,SMDPad,CuDef*%
%ADD15RoundRect,0.250000X0.450000X-0.262500X0.450000X0.262500X-0.450000X0.262500X-0.450000X-0.262500X0*%
%TD*%
%TA.AperFunction,SMDPad,CuDef*%
%ADD16R,2.032000X1.016000*%
%TD*%
%TA.AperFunction,SMDPad,CuDef*%
%ADD17R,2.032000X3.657600*%
%TD*%
%TA.AperFunction,SMDPad,CuDef*%
%ADD18RoundRect,0.150000X0.150000X-0.587500X0.150000X0.587500X-0.150000X0.587500X-0.150000X-0.587500X0*%
%TD*%
%TA.AperFunction,SMDPad,CuDef*%
%ADD19FreePoly0,0.000000*%
%TD*%
%TA.AperFunction,SMDPad,CuDef*%
%ADD20FreePoly0,180.000000*%
%TD*%
%TA.AperFunction,SMDPad,CuDef*%
%ADD21RoundRect,0.250000X-0.450000X0.262500X-0.450000X-0.262500X0.450000X-0.262500X0.450000X0.262500X0*%
%TD*%
%TA.AperFunction,SMDPad,CuDef*%
%ADD22RoundRect,0.250000X-0.250000X-0.475000X0.250000X-0.475000X0.250000X0.475000X-0.250000X0.475000X0*%
%TD*%
%TA.AperFunction,SMDPad,CuDef*%
%ADD23RoundRect,0.250000X-0.475000X0.250000X-0.475000X-0.250000X0.475000X-0.250000X0.475000X0.250000X0*%
%TD*%
%TA.AperFunction,SMDPad,CuDef*%
%ADD24RoundRect,0.250000X0.650000X-1.000000X0.650000X1.000000X-0.650000X1.000000X-0.650000X-1.000000X0*%
%TD*%
%TA.AperFunction,SMDPad,CuDef*%
%ADD25RoundRect,0.218750X0.381250X-0.218750X0.381250X0.218750X-0.381250X0.218750X-0.381250X-0.218750X0*%
%TD*%
%TA.AperFunction,SMDPad,CuDef*%
%ADD26RoundRect,0.250000X0.262500X0.450000X-0.262500X0.450000X-0.262500X-0.450000X0.262500X-0.450000X0*%
%TD*%
%TA.AperFunction,SMDPad,CuDef*%
%ADD27R,1.800000X1.200000*%
%TD*%
%TA.AperFunction,SMDPad,CuDef*%
%ADD28RoundRect,0.062500X0.362500X0.062500X-0.362500X0.062500X-0.362500X-0.062500X0.362500X-0.062500X0*%
%TD*%
%TA.AperFunction,SMDPad,CuDef*%
%ADD29RoundRect,0.062500X0.062500X0.362500X-0.062500X0.362500X-0.062500X-0.362500X0.062500X-0.362500X0*%
%TD*%
%TA.AperFunction,HeatsinkPad*%
%ADD30C,0.500000*%
%TD*%
%TA.AperFunction,HeatsinkPad*%
%ADD31R,2.600000X2.600000*%
%TD*%
%TA.AperFunction,SMDPad,CuDef*%
%ADD32RoundRect,0.218750X0.218750X0.381250X-0.218750X0.381250X-0.218750X-0.381250X0.218750X-0.381250X0*%
%TD*%
%TA.AperFunction,SMDPad,CuDef*%
%ADD33RoundRect,0.218750X-0.381250X0.218750X-0.381250X-0.218750X0.381250X-0.218750X0.381250X0.218750X0*%
%TD*%
%TA.AperFunction,SMDPad,CuDef*%
%ADD34RoundRect,0.250000X0.475000X-0.250000X0.475000X0.250000X-0.475000X0.250000X-0.475000X-0.250000X0*%
%TD*%
%TA.AperFunction,SMDPad,CuDef*%
%ADD35RoundRect,0.218750X0.114905X-0.424264X0.424264X-0.114905X-0.114905X0.424264X-0.424264X0.114905X0*%
%TD*%
%TA.AperFunction,ViaPad*%
%ADD36C,0.800000*%
%TD*%
%TA.AperFunction,Conductor*%
%ADD37C,0.200000*%
%TD*%
%TA.AperFunction,Conductor*%
%ADD38C,0.500000*%
%TD*%
%TA.AperFunction,Conductor*%
%ADD39C,0.860506*%
%TD*%
G04 APERTURE END LIST*
D10*
%TO.P,J17,1*%
%TO.N,/TXRAMP*%
X24601000Y10173500D03*
%TO.P,J17,2*%
X24601000Y12713500D03*
%TD*%
%TO.P,J24,1*%
%TO.N,Net-(J24-Pad1)*%
X14568000Y40590000D03*
%TO.P,J24,2*%
%TO.N,/GPIO2*%
X14568000Y43130000D03*
%TD*%
%TO.P,J25,1*%
%TO.N,Net-(J25-Pad1)*%
X22188000Y40082000D03*
%TO.P,J25,2*%
%TO.N,/GPIO3*%
X22188000Y42622000D03*
%TD*%
%TO.P,J1,1,2*%
%TO.N,GND*%
X-2549953Y34289311D03*
%TO.P,J1,2,2*%
X-9953Y34289311D03*
%TO.P,J1,3,4*%
%TO.N,VCC*%
X-2549953Y31749311D03*
%TO.P,J1,4,4*%
X-9953Y31749311D03*
%TO.P,J1,5,6*%
%TO.N,GND*%
X-2549953Y29209311D03*
%TO.P,J1,6,6*%
X-9953Y29209311D03*
%TD*%
%TO.P,J4,1,2*%
%TO.N,GND*%
X-2549953Y21208311D03*
%TO.P,J4,2,2*%
X-9953Y21208311D03*
%TO.P,J4,3,4*%
%TO.N,+3.3V*%
X-2549953Y18668311D03*
%TO.P,J4,4,4*%
X-9953Y18668311D03*
%TO.P,J4,5,6*%
%TO.N,GND*%
X-2549953Y16128311D03*
%TO.P,J4,6,6*%
X-9953Y16128311D03*
%TD*%
%TO.P,J13,1*%
%TO.N,/SCLK*%
X13335000Y22860000D03*
%TO.P,J13,2*%
X10795000Y22860000D03*
%TD*%
%TO.P,J14,1*%
%TO.N,/SDI*%
X13044000Y29414000D03*
%TO.P,J14,2*%
X10504000Y29414000D03*
%TD*%
%TO.P,J19,1*%
%TO.N,/nIRQ*%
X10795000Y20320000D03*
%TO.P,J19,2*%
X13335000Y20320000D03*
%TD*%
%TO.P,J20,1*%
%TO.N,/GPIO0*%
X22061000Y10173500D03*
%TO.P,J20,2*%
X22061000Y12713500D03*
%TD*%
%TO.P,J21,1*%
%TO.N,/GPIO1*%
X19521000Y10173500D03*
%TO.P,J21,2*%
X19521000Y12713500D03*
%TD*%
D11*
%TO.P,M1,1*%
%TO.N,GND*%
X10160000Y40640000D03*
%TD*%
%TO.P,M2,1*%
%TO.N,GND*%
X50800000Y40640000D03*
%TD*%
%TO.P,M3,1*%
%TO.N,GND*%
X10160000Y10160000D03*
%TD*%
%TO.P,M4,1*%
%TO.N,GND*%
X50800000Y10160000D03*
%TD*%
D12*
%TO.P,J3,1*%
%TO.N,Net-(J3-Pad1)*%
X50790047Y31749311D03*
D13*
%TO.P,J3,2*%
%TO.N,GND*%
X48250047Y34289311D03*
X48250047Y29209311D03*
X53330047Y34289311D03*
X53330047Y29209311D03*
%TD*%
D10*
%TO.P,J26,1*%
%TO.N,GND*%
X11430000Y31750000D03*
%TO.P,J26,2*%
X8890000Y31750000D03*
%TD*%
%TO.P,J22,1*%
%TO.N,/GPIO2*%
X17108000Y40639311D03*
%TO.P,J22,2*%
X17108000Y43179311D03*
%TD*%
%TO.P,J16,1*%
%TO.N,/nSEL*%
X11430000Y34748000D03*
%TO.P,J16,2*%
X8890000Y34748000D03*
%TD*%
%TO.P,J15,1*%
%TO.N,/SDO*%
X12486689Y26874000D03*
%TO.P,J15,2*%
X9946689Y26874000D03*
%TD*%
%TO.P,J23,1*%
%TO.N,/GPIO3*%
X19648000Y40639311D03*
%TO.P,J23,2*%
X19648000Y43179311D03*
%TD*%
D12*
%TO.P,J2,1*%
%TO.N,Net-(J2-Pad1)*%
X50790047Y20954311D03*
D13*
%TO.P,J2,2*%
%TO.N,GND*%
X48250047Y23494311D03*
X48250047Y18414311D03*
X53330047Y23494311D03*
X53330047Y18414311D03*
%TD*%
D10*
%TO.P,J5,1*%
%TO.N,/SDN*%
X24728000Y40082000D03*
%TO.P,J5,2*%
X24728000Y42622000D03*
%TD*%
D14*
%TO.P,R15,1*%
%TO.N,/nIRQ*%
X15941500Y20320000D03*
%TO.P,R15,2*%
%TO.N,Net-(U2-~{IRQ})*%
X17766500Y20320000D03*
%TD*%
D15*
%TO.P,R17,1*%
%TO.N,/GPIO1*%
X19521000Y14976000D03*
%TO.P,R17,2*%
%TO.N,Net-(U2-GPIO1)*%
X19521000Y16801000D03*
%TD*%
D16*
%TO.P,U1,1,GND*%
%TO.N,GND*%
X31967000Y8395500D03*
%TO.P,U1,2,OUT*%
%TO.N,+3.3V*%
X31967000Y10681500D03*
%TO.P,U1,3,IN*%
%TO.N,VCC*%
X31967000Y12967500D03*
D17*
%TO.P,U1,4,OUT*%
%TO.N,+3.3V*%
X38571000Y10681500D03*
%TD*%
D18*
%TO.P,Q1,1,B*%
%TO.N,Net-(Q1-B)*%
X35647500Y41938500D03*
%TO.P,Q1,2,E*%
%TO.N,GND*%
X33747500Y41938500D03*
%TO.P,Q1,3,C*%
%TO.N,Net-(Q1-C)*%
X34697500Y43813500D03*
%TD*%
D19*
%TO.P,D3,1,K*%
%TO.N,Net-(D3-K)*%
X41428501Y39828000D03*
D20*
%TO.P,D3,2,A*%
%TO.N,+3.3V*%
X45238501Y39828000D03*
%TD*%
D19*
%TO.P,D2,1,K*%
%TO.N,Net-(D2-K)*%
X41428500Y43384000D03*
D20*
%TO.P,D2,2,A*%
%TO.N,+3.3V*%
X45238500Y43384000D03*
%TD*%
D21*
%TO.P,R19,1*%
%TO.N,/GPIO3*%
X19648000Y38376811D03*
%TO.P,R19,2*%
%TO.N,Net-(U2-GPIO3)*%
X19648000Y36551811D03*
%TD*%
D18*
%TO.P,Q2,1,B*%
%TO.N,Net-(Q2-B)*%
X35647500Y38128500D03*
%TO.P,Q2,2,E*%
%TO.N,GND*%
X33747500Y38128500D03*
%TO.P,Q2,3,C*%
%TO.N,Net-(Q2-C)*%
X34697500Y40003500D03*
%TD*%
D22*
%TO.P,C1,1*%
%TO.N,VCC*%
X5453547Y29971311D03*
%TO.P,C1,2*%
%TO.N,GND*%
X7353547Y29971311D03*
%TD*%
D23*
%TO.P,C3,1*%
%TO.N,+3.3V*%
X40984000Y11568000D03*
%TO.P,C3,2*%
%TO.N,GND*%
X40984000Y9668000D03*
%TD*%
%TO.P,C5,1*%
%TO.N,+3.3V*%
X43270000Y11314000D03*
%TO.P,C5,2*%
%TO.N,GND*%
X43270000Y9414000D03*
%TD*%
%TO.P,C15,1*%
%TO.N,Net-(C15-Pad1)*%
X22188000Y21982000D03*
%TO.P,C15,2*%
%TO.N,GND*%
X22188000Y20082000D03*
%TD*%
D24*
%TO.P,D1,1,K*%
%TO.N,VCC*%
X3165047Y30384311D03*
%TO.P,D1,2,A*%
%TO.N,GND*%
X3165047Y34384311D03*
%TD*%
D25*
%TO.P,L8,1*%
%TO.N,Net-(L8-Pad1)*%
X32375047Y24336811D03*
%TO.P,L8,2*%
%TO.N,Net-(U2-TX)*%
X32375047Y26461811D03*
%TD*%
D26*
%TO.P,R1,1*%
%TO.N,+3.3V*%
X35256047Y21412000D03*
%TO.P,R1,2*%
%TO.N,Net-(L8-Pad1)*%
X33431047Y21412000D03*
%TD*%
D14*
%TO.P,R9,1*%
%TO.N,/SCLK*%
X15941500Y22860000D03*
%TO.P,R9,2*%
%TO.N,Net-(U2-SCLK)*%
X17766500Y22860000D03*
%TD*%
%TO.P,R10,1*%
%TO.N,/SDI*%
X15306500Y29414000D03*
%TO.P,R10,2*%
%TO.N,Net-(U2-SDI)*%
X17131500Y29414000D03*
%TD*%
D15*
%TO.P,R13,1*%
%TO.N,/TXRAMP*%
X24601000Y14976000D03*
%TO.P,R13,2*%
%TO.N,Net-(U2-TXRAMP)*%
X24601000Y16801000D03*
%TD*%
%TO.P,R16,1*%
%TO.N,/GPIO0*%
X22061000Y14976000D03*
%TO.P,R16,2*%
%TO.N,Net-(U2-GPIO0)*%
X22061000Y16801000D03*
%TD*%
D26*
%TO.P,R22,1*%
%TO.N,Net-(D2-K)*%
X39420000Y43384000D03*
%TO.P,R22,2*%
%TO.N,Net-(Q1-C)*%
X37595000Y43384000D03*
%TD*%
%TO.P,R23,1*%
%TO.N,Net-(D3-K)*%
X39356500Y39828000D03*
%TO.P,R23,2*%
%TO.N,Net-(Q2-C)*%
X37531500Y39828000D03*
%TD*%
D23*
%TO.P,C20,1*%
%TO.N,Net-(C15-Pad1)*%
X28792000Y21982000D03*
%TO.P,C20,2*%
%TO.N,GND*%
X28792000Y20082000D03*
%TD*%
%TO.P,C17,1*%
%TO.N,Net-(C15-Pad1)*%
X24728000Y21982000D03*
%TO.P,C17,2*%
%TO.N,GND*%
X24728000Y20082000D03*
%TD*%
D22*
%TO.P,C2,1*%
%TO.N,VCC*%
X5453547Y32003311D03*
%TO.P,C2,2*%
%TO.N,GND*%
X7353547Y32003311D03*
%TD*%
D21*
%TO.P,R18,1*%
%TO.N,/GPIO2*%
X17108000Y38376811D03*
%TO.P,R18,2*%
%TO.N,Net-(U2-GPIO2)*%
X17108000Y36551811D03*
%TD*%
D14*
%TO.P,R11,1*%
%TO.N,/SDO*%
X15597500Y25400000D03*
%TO.P,R11,2*%
%TO.N,/P0.1_1*%
X17422500Y25400000D03*
%TD*%
%TO.P,R12,1*%
%TO.N,/nSEL*%
X14749189Y31954000D03*
%TO.P,R12,2*%
%TO.N,Net-(U2-~{SEL})*%
X16574189Y31954000D03*
%TD*%
D27*
%TO.P,Y2,1,1*%
%TO.N,Net-(U2-XIN)*%
X23654600Y30931800D03*
%TO.P,Y2,2,2*%
%TO.N,GND*%
X19654600Y30931800D03*
%TO.P,Y2,3,3*%
%TO.N,Net-(U2-XOUT)*%
X19654600Y33331800D03*
%TO.P,Y2,4,4*%
%TO.N,GND*%
X23654600Y33331800D03*
%TD*%
D28*
%TO.P,U2,1,SDN*%
%TO.N,Net-(U2-SDN)*%
X24140047Y27112000D03*
%TO.P,U2,2,RXp*%
%TO.N,Net-(U2-RXp)*%
X24140047Y26612000D03*
%TO.P,U2,3,RXn*%
%TO.N,Net-(U2-RXn)*%
X24140047Y26112000D03*
%TO.P,U2,4,TX*%
%TO.N,Net-(U2-TX)*%
X24140047Y25612000D03*
%TO.P,U2,5,NC*%
%TO.N,unconnected-(U2-NC-Pad5)*%
X24140047Y25112000D03*
D29*
%TO.P,U2,6,VDD*%
%TO.N,Net-(C15-Pad1)*%
X23215047Y24187000D03*
%TO.P,U2,7,TXRAMP*%
%TO.N,Net-(U2-TXRAMP)*%
X22715047Y24187000D03*
%TO.P,U2,8,VDD*%
%TO.N,Net-(C15-Pad1)*%
X22215047Y24187000D03*
%TO.P,U2,9,GPIO0*%
%TO.N,Net-(U2-GPIO0)*%
X21715047Y24187000D03*
%TO.P,U2,10,GPIO1*%
%TO.N,Net-(U2-GPIO1)*%
X21215047Y24187000D03*
D28*
%TO.P,U2,11,~{IRQ}*%
%TO.N,Net-(U2-~{IRQ})*%
X20290047Y25112000D03*
%TO.P,U2,12,SCLK*%
%TO.N,Net-(U2-SCLK)*%
X20290047Y25612000D03*
%TO.P,U2,13,SDO*%
%TO.N,/P0.1_1*%
X20290047Y26112000D03*
%TO.P,U2,14,SDI*%
%TO.N,Net-(U2-SDI)*%
X20290047Y26612000D03*
%TO.P,U2,15,~{SEL}*%
%TO.N,Net-(U2-~{SEL})*%
X20290047Y27112000D03*
D29*
%TO.P,U2,16,XOUT*%
%TO.N,Net-(U2-XOUT)*%
X21215047Y28037000D03*
%TO.P,U2,17,XIN*%
%TO.N,Net-(U2-XIN)*%
X21715047Y28037000D03*
%TO.P,U2,18,GND*%
%TO.N,GND*%
X22215047Y28037000D03*
%TO.P,U2,19,GPIO2*%
%TO.N,Net-(U2-GPIO2)*%
X22715047Y28037000D03*
%TO.P,U2,20,GPIO3*%
%TO.N,Net-(U2-GPIO3)*%
X23215047Y28037000D03*
D30*
%TO.P,U2,21,GND*%
%TO.N,GND*%
X23265047Y25062000D03*
X23265047Y27162000D03*
D31*
X22215047Y26112000D03*
D30*
X21165047Y25062000D03*
X21165047Y27162000D03*
%TD*%
D32*
%TO.P,L7,1*%
%TO.N,Net-(C9-Pad1)*%
X34199547Y28167911D03*
%TO.P,L7,2*%
%TO.N,Net-(C11-Pad2)*%
X32074547Y28167911D03*
%TD*%
%TO.P,L6,1*%
%TO.N,Net-(C8-Pad1)*%
X37247547Y31749311D03*
%TO.P,L6,2*%
%TO.N,Net-(C10-Pad1)*%
X35122547Y31749311D03*
%TD*%
%TO.P,L9,1*%
%TO.N,Net-(C10-Pad1)*%
X33437547Y34289311D03*
%TO.P,L9,2*%
%TO.N,Net-(U2-RXp)*%
X31312547Y34289311D03*
%TD*%
%TO.P,L5,1*%
%TO.N,Net-(C7-Pad1)*%
X38009547Y28167911D03*
%TO.P,L5,2*%
%TO.N,Net-(C9-Pad1)*%
X35884547Y28167911D03*
%TD*%
D33*
%TO.P,L10,1*%
%TO.N,Net-(U2-RXp)*%
X29200047Y34081811D03*
%TO.P,L10,2*%
%TO.N,Net-(U2-RXn)*%
X29200047Y31956811D03*
%TD*%
D23*
%TO.P,C7,1*%
%TO.N,Net-(C7-Pad1)*%
X39487047Y25942911D03*
%TO.P,C7,2*%
%TO.N,GND*%
X39487047Y24042911D03*
%TD*%
%TO.P,C9,1*%
%TO.N,Net-(C9-Pad1)*%
X34407047Y25942911D03*
%TO.P,C9,2*%
%TO.N,GND*%
X34407047Y24042911D03*
%TD*%
D34*
%TO.P,C13,1*%
%TO.N,Net-(U2-RXp)*%
X31486047Y36450811D03*
%TO.P,C13,2*%
%TO.N,GND*%
X31486047Y38350811D03*
%TD*%
%TO.P,C10,1*%
%TO.N,Net-(C10-Pad1)*%
X35550047Y33974311D03*
%TO.P,C10,2*%
%TO.N,GND*%
X35550047Y35874311D03*
%TD*%
%TO.P,C11,1*%
%TO.N,Net-(U2-TX)*%
X29835047Y26354311D03*
%TO.P,C11,2*%
%TO.N,Net-(C11-Pad2)*%
X29835047Y28254311D03*
%TD*%
D23*
%TO.P,C4,1*%
%TO.N,Net-(C4-Pad1)*%
X43297047Y25942911D03*
%TO.P,C4,2*%
%TO.N,GND*%
X43297047Y24042911D03*
%TD*%
D22*
%TO.P,C12,1*%
%TO.N,Net-(U2-RXn)*%
X31425047Y31749311D03*
%TO.P,C12,2*%
%TO.N,Net-(C10-Pad1)*%
X33325047Y31749311D03*
%TD*%
D34*
%TO.P,C6,1*%
%TO.N,Net-(C6-Pad1)*%
X41900047Y33974311D03*
%TO.P,C6,2*%
%TO.N,GND*%
X41900047Y35874311D03*
%TD*%
%TO.P,C8,1*%
%TO.N,Net-(C8-Pad1)*%
X38725047Y33974311D03*
%TO.P,C8,2*%
%TO.N,GND*%
X38725047Y35874311D03*
%TD*%
D32*
%TO.P,L3,1*%
%TO.N,Net-(C4-Pad1)*%
X41819547Y28167911D03*
%TO.P,L3,2*%
%TO.N,Net-(C7-Pad1)*%
X39694547Y28167911D03*
%TD*%
%TO.P,L4,1*%
%TO.N,Net-(C6-Pad1)*%
X41057547Y31749311D03*
%TO.P,L4,2*%
%TO.N,Net-(C8-Pad1)*%
X38932547Y31749311D03*
%TD*%
D26*
%TO.P,L1,1*%
%TO.N,Net-(J2-Pad1)*%
X45352547Y28193311D03*
%TO.P,L1,2*%
%TO.N,Net-(C4-Pad1)*%
X43527547Y28193311D03*
%TD*%
%TO.P,L2,1*%
%TO.N,Net-(J3-Pad1)*%
X44717547Y31749311D03*
%TO.P,L2,2*%
%TO.N,Net-(C6-Pad1)*%
X42892547Y31749311D03*
%TD*%
D23*
%TO.P,C19,1*%
%TO.N,Net-(C15-Pad1)*%
X26760000Y21982000D03*
%TO.P,C19,2*%
%TO.N,GND*%
X26760000Y20082000D03*
%TD*%
D21*
%TO.P,R4,1*%
%TO.N,/SDN*%
X25998000Y34644500D03*
%TO.P,R4,2*%
%TO.N,Net-(U2-SDN)*%
X25998000Y32819500D03*
%TD*%
D14*
%TO.P,R2,1*%
%TO.N,Net-(J24-Pad1)*%
X29911500Y43638000D03*
%TO.P,R2,2*%
%TO.N,Net-(Q1-B)*%
X31736500Y43638000D03*
%TD*%
D26*
%TO.P,R5,1*%
%TO.N,GND*%
X26910500Y37542000D03*
%TO.P,R5,2*%
%TO.N,/SDN*%
X25085500Y37542000D03*
%TD*%
D14*
%TO.P,R3,1*%
%TO.N,Net-(J25-Pad1)*%
X29911500Y41606000D03*
%TO.P,R3,2*%
%TO.N,Net-(Q2-B)*%
X31736500Y41606000D03*
%TD*%
D35*
%TO.P,L11,1,1*%
%TO.N,Net-(C15-Pad1)*%
X34898699Y17740699D03*
%TO.P,L11,2,2*%
%TO.N,+3.3V*%
X36401301Y19243301D03*
%TD*%
D36*
%TO.N,GND*%
X4562047Y15493311D03*
X46980047Y37083311D03*
X45456047Y24891311D03*
X54092047Y15493311D03*
X25744000Y18047500D03*
X50028047Y15493311D03*
X31486047Y40385311D03*
X33518047Y37591311D03*
X40122047Y37591311D03*
X5324047Y9651311D03*
X15738047Y7111311D03*
X29200047Y36575311D03*
X28184047Y26415311D03*
X44440047Y29971311D03*
X26914047Y24584311D03*
X36058047Y29971311D03*
X46218047Y13969311D03*
X45964047Y33527311D03*
X4816047Y11683311D03*
X45456047Y21843311D03*
X42154047Y21589311D03*
X41392047Y29971311D03*
X45710047Y35559311D03*
X15484047Y33781311D03*
X47742047Y15493311D03*
X36731147Y24040411D03*
X26506000Y8141500D03*
X34534047Y29971311D03*
X3038047Y36321311D03*
X8372047Y23875311D03*
X37836047Y29971311D03*
X52314047Y15493311D03*
X26914047Y23621311D03*
X43932047Y36067311D03*
X40630047Y21589311D03*
X28438047Y24129311D03*
X27153371Y27191987D03*
X29200047Y37591311D03*
X17770047Y33781311D03*
X43932047Y33527311D03*
X41900047Y37591311D03*
X20818047Y8635311D03*
X38344047Y37591311D03*
X-2549953Y24383311D03*
X31613047Y30098311D03*
X4562047Y17271311D03*
X43932047Y34543311D03*
X33264047Y40385311D03*
X39106047Y21589311D03*
X43932047Y37591311D03*
X26506000Y10427500D03*
X-2549953Y26415311D03*
X45456047Y23621311D03*
X45456047Y20319311D03*
X42916047Y29971311D03*
X26660047Y29463311D03*
X30470047Y23621311D03*
X45710047Y16001311D03*
X36566047Y37591311D03*
X52314047Y26415311D03*
X2784047Y17271311D03*
X54346047Y26415311D03*
X4562047Y13715311D03*
X17008047Y8635311D03*
X18786047Y8635311D03*
X22596047Y8635311D03*
X33518047Y38861311D03*
X43678047Y21589311D03*
X30470047Y24637311D03*
X36820047Y25653311D03*
X34407047Y11746811D03*
X39614047Y29971311D03*
X29454047Y38861311D03*
X26506000Y12205500D03*
X45456047Y29971311D03*
X30074371Y30112987D03*
X33010047Y30098311D03*
X24474000Y7887500D03*
X6086047Y33781311D03*
%TO.N,/SDO*%
X12690047Y27177311D03*
%TD*%
D37*
%TO.N,GND*%
X30074371Y30112987D02*
X30186695Y30225311D01*
D38*
X45710047Y35559311D02*
X45710047Y35813311D01*
D39*
%TO.N,Net-(C4-Pad1)*%
X43462147Y28167911D02*
X43487547Y28193311D01*
X43297047Y28002811D02*
X43487547Y28193311D01*
X43297047Y25945411D02*
X43297047Y28002811D01*
X41709547Y28167911D02*
X43462147Y28167911D01*
%TO.N,Net-(C6-Pad1)*%
X41900047Y33971811D02*
X41900047Y31749311D01*
X41900047Y31749311D02*
X40947547Y31749311D01*
X42852547Y31749311D02*
X41900047Y31749311D01*
%TO.N,Net-(C7-Pad1)*%
X39487047Y25945411D02*
X39487047Y27850411D01*
X37899547Y28167911D02*
X39804547Y28167911D01*
X39487047Y27850411D02*
X39804547Y28167911D01*
%TO.N,Net-(C8-Pad1)*%
X39042547Y31749311D02*
X39042547Y33654311D01*
X39042547Y33654311D02*
X38725047Y33971811D01*
X37137547Y31749311D02*
X39042547Y31749311D01*
%TO.N,Net-(C9-Pad1)*%
X34407047Y25945411D02*
X34407047Y27850411D01*
X34089547Y28167911D02*
X35994547Y28167911D01*
X34407047Y27850411D02*
X34089547Y28167911D01*
%TO.N,Net-(C10-Pad1)*%
X35550047Y33971811D02*
X35550047Y32066811D01*
X35550047Y33971811D02*
X33645047Y33971811D01*
X35550047Y32066811D02*
X35232547Y31749311D01*
X35232547Y31749311D02*
X33327547Y31749311D01*
X33645047Y33971811D02*
X33327547Y34289311D01*
%TO.N,Net-(C11-Pad2)*%
X29835047Y28256811D02*
X32095647Y28256811D01*
X32095647Y28256811D02*
X32184547Y28167911D01*
D37*
%TO.N,Net-(U2-TX)*%
X29581047Y26351811D02*
X29835047Y26351811D01*
D39*
X32375047Y26351811D02*
X29835047Y26351811D01*
%TO.N,Net-(J2-Pad1)*%
X45697347Y27446551D02*
X45392547Y28193311D01*
X50764647Y24467131D02*
X50690987Y24909091D01*
X47091807Y26285771D02*
X47526147Y26224811D01*
X46685407Y26476271D02*
X47091807Y26285771D01*
X50764647Y24467131D02*
X50790047Y23819431D01*
X49779127Y25930171D02*
X48989187Y26118131D01*
X47526147Y26224811D02*
X47963027Y26209571D01*
X50690987Y24909091D02*
X50505567Y25315491D01*
X45958967Y27096031D02*
X45697347Y27446551D01*
X50790047Y20954311D02*
X50790047Y23819431D01*
X46289167Y26758211D02*
X45958967Y27096031D01*
X50203307Y25681251D02*
X49779127Y25930171D01*
X47963027Y26209571D02*
X48989187Y26118131D01*
X50505567Y25315491D02*
X50203307Y25681251D01*
X46685407Y26476271D02*
X46289167Y26758211D01*
%TO.N,Net-(J3-Pad1)*%
X44757547Y31749311D02*
X46662547Y31749311D01*
X50790047Y31749311D02*
X46662547Y31749311D01*
%TO.N,Net-(U2-RXp)*%
X30470047Y34289311D02*
X29517547Y34289311D01*
X31486047Y34352811D02*
X31422547Y34289311D01*
D37*
X28333907Y33372371D02*
X29200047Y33971811D01*
D39*
X29517547Y34289311D02*
X29200047Y33971811D01*
D37*
X28946047Y33971811D02*
X29200047Y33971811D01*
D39*
X31486047Y36448311D02*
X31486047Y34352811D01*
X31422547Y34289311D02*
X30470047Y34289311D01*
%TO.N,Net-(U2-RXn)*%
X31105047Y32066811D02*
X31422547Y31749311D01*
X29200047Y32066811D02*
X31105047Y32066811D01*
D38*
%TO.N,Net-(L8-Pad1)*%
X32375047Y22097311D02*
X33391047Y21081311D01*
X32375047Y24446811D02*
X32375047Y22097311D01*
%TD*%
%TA.AperFunction,Conductor*%
%TO.N,GND*%
G36*
X49374488Y25275299D02*
G01*
X49485253Y25248943D01*
X49519850Y25235038D01*
X49626409Y25172506D01*
X49703003Y25127558D01*
X49736358Y25099153D01*
X49870196Y24937199D01*
X49887703Y24909235D01*
X49979144Y24708815D01*
X49988796Y24677230D01*
X49990559Y24666653D01*
X49982029Y24596171D01*
X49936748Y24541489D01*
X49869092Y24519969D01*
X49800541Y24538442D01*
X49765406Y24570428D01*
X49731142Y24616198D01*
X49003239Y23888295D01*
X48957731Y23974133D01*
X48838038Y24115046D01*
X48690852Y24226934D01*
X48644776Y24248251D01*
X49371933Y24975408D01*
X49269816Y25051852D01*
X49227269Y25108688D01*
X49222205Y25179503D01*
X49256230Y25241816D01*
X49318542Y25275841D01*
X49374488Y25275299D01*
G37*
%TD.AperFunction*%
%TA.AperFunction,Conductor*%
G36*
X22285932Y27560194D02*
G01*
X22328244Y27511362D01*
X22353032Y27460656D01*
X22353035Y27460652D01*
X22438695Y27374992D01*
X22438696Y27374992D01*
X22438700Y27374988D01*
X22441858Y27373444D01*
X22445422Y27370188D01*
X22447197Y27368921D01*
X22447043Y27368707D01*
X22494272Y27325562D01*
X22512480Y27256939D01*
X22511731Y27246139D01*
X22502251Y27162001D01*
X22521377Y26992260D01*
X22577791Y26831037D01*
X22577793Y26831033D01*
X22578847Y26829356D01*
X22878999Y27129508D01*
X23165047Y27129508D01*
X23203244Y27076935D01*
X23249209Y27062000D01*
X23280885Y27062000D01*
X23326850Y27076935D01*
X23365047Y27129508D01*
X23365047Y27194492D01*
X23326850Y27247065D01*
X23280885Y27262000D01*
X23249209Y27262000D01*
X23203244Y27247065D01*
X23165047Y27194492D01*
X23165047Y27129508D01*
X22878999Y27129508D01*
X23024111Y27274620D01*
X23086424Y27308645D01*
X23113538Y27310534D01*
X23113538Y27311500D01*
X23118097Y27311501D01*
X23118098Y27311500D01*
X23288546Y27311501D01*
X23356667Y27291499D01*
X23403160Y27237844D01*
X23414547Y27185502D01*
X23414548Y27010494D01*
X23412410Y27010494D01*
X23399062Y26949601D01*
X23377667Y26921069D01*
X23265048Y26808448D01*
X23265047Y26808447D01*
X22932400Y26475802D01*
X22934079Y26474746D01*
X22934082Y26474745D01*
X23095306Y26418331D01*
X23265049Y26399205D01*
X23282875Y26401213D01*
X23352808Y26388966D01*
X23405017Y26340854D01*
X23422927Y26272154D01*
X23421670Y26257841D01*
X23414547Y26208953D01*
X23414547Y26015052D01*
X23421670Y25966157D01*
X23411696Y25895864D01*
X23365302Y25842123D01*
X23297218Y25821995D01*
X23282880Y25822787D01*
X23265048Y25824796D01*
X23095306Y25805670D01*
X22934083Y25749256D01*
X22934082Y25749255D01*
X22932401Y25748199D01*
X23265047Y25415554D01*
X23265047Y25415553D01*
X23377666Y25302934D01*
X23411692Y25240622D01*
X23413620Y25213507D01*
X23414547Y25213507D01*
X23414547Y25038500D01*
X23394545Y24970379D01*
X23340889Y24923886D01*
X23288548Y24912500D01*
X23113541Y24912499D01*
X23113540Y24914625D01*
X23052600Y24928011D01*
X23024114Y24949381D01*
X22943987Y25029508D01*
X23165047Y25029508D01*
X23203244Y24976935D01*
X23249209Y24962000D01*
X23280885Y24962000D01*
X23326850Y24976935D01*
X23365047Y25029508D01*
X23365047Y25094492D01*
X23326850Y25147065D01*
X23280885Y25162000D01*
X23249209Y25162000D01*
X23203244Y25147065D01*
X23165047Y25094492D01*
X23165047Y25029508D01*
X22943987Y25029508D01*
X22578848Y25394647D01*
X22577792Y25392965D01*
X22577791Y25392964D01*
X22521377Y25231741D01*
X22502251Y25061999D01*
X22504260Y25044167D01*
X22492010Y24974235D01*
X22443896Y24922028D01*
X22375195Y24904120D01*
X22360887Y24905377D01*
X22359500Y24905579D01*
X22311996Y24912500D01*
X22311994Y24912500D01*
X22118097Y24912500D01*
X22069202Y24905377D01*
X21998910Y24915351D01*
X21945169Y24961745D01*
X21925041Y25029829D01*
X21925834Y25044172D01*
X21927842Y25061998D01*
X21908716Y25231741D01*
X21852302Y25392965D01*
X21852301Y25392968D01*
X21851245Y25394646D01*
X21851244Y25394646D01*
X21405979Y24949381D01*
X21343667Y24915356D01*
X21316554Y24913393D01*
X21316554Y24912500D01*
X21141546Y24912500D01*
X21073425Y24932502D01*
X21026932Y24986158D01*
X21017501Y25029508D01*
X21065047Y25029508D01*
X21103244Y24976935D01*
X21149209Y24962000D01*
X21180885Y24962000D01*
X21226850Y24976935D01*
X21265047Y25029508D01*
X21265047Y25094492D01*
X21226850Y25147065D01*
X21180885Y25162000D01*
X21149209Y25162000D01*
X21103244Y25147065D01*
X21065047Y25094492D01*
X21065047Y25029508D01*
X21017501Y25029508D01*
X21015546Y25038496D01*
X21015546Y25208948D01*
X21015546Y25208949D01*
X21015546Y25213507D01*
X21017753Y25213507D01*
X21030875Y25274115D01*
X21052427Y25302934D01*
X21165047Y25415553D01*
X21497692Y25748199D01*
X21497691Y25748200D01*
X21496014Y25749254D01*
X21496010Y25749256D01*
X21334787Y25805670D01*
X21165044Y25824796D01*
X21147212Y25822787D01*
X21077280Y25835038D01*
X21025073Y25883151D01*
X21007166Y25951852D01*
X21008424Y25966162D01*
X21009384Y25972747D01*
X21015547Y26015051D01*
X21015546Y26208948D01*
X21008423Y26257844D01*
X21018396Y26328135D01*
X21064789Y26381877D01*
X21132873Y26402006D01*
X21147217Y26401213D01*
X21165044Y26399205D01*
X21334787Y26418331D01*
X21496010Y26474744D01*
X21497691Y26475802D01*
X21497691Y26475803D01*
X21165047Y26808446D01*
X21165047Y26808447D01*
X21052428Y26921066D01*
X21018402Y26983378D01*
X21016476Y27010492D01*
X21015547Y27010491D01*
X21015547Y27096870D01*
X21015547Y27129508D01*
X21065047Y27129508D01*
X21103244Y27076935D01*
X21149209Y27062000D01*
X21180885Y27062000D01*
X21226850Y27076935D01*
X21265047Y27129508D01*
X21265047Y27194492D01*
X21226850Y27247065D01*
X21180885Y27262000D01*
X21149209Y27262000D01*
X21103244Y27247065D01*
X21065047Y27194492D01*
X21065047Y27129508D01*
X21015547Y27129508D01*
X21015546Y27185501D01*
X21035548Y27253621D01*
X21089203Y27300114D01*
X21141541Y27311501D01*
X21311995Y27311501D01*
X21316554Y27311501D01*
X21316554Y27309288D01*
X21377137Y27296185D01*
X21405979Y27274620D01*
X21851243Y26829356D01*
X21851245Y26829356D01*
X21852303Y26831037D01*
X21908716Y26992260D01*
X21927842Y27162000D01*
X21918362Y27246138D01*
X21930611Y27316070D01*
X21978723Y27368278D01*
X21988224Y27373439D01*
X21991394Y27374988D01*
X22077059Y27460653D01*
X22077059Y27460654D01*
X22077061Y27460656D01*
X22101850Y27511362D01*
X22149737Y27563777D01*
X22218361Y27581980D01*
X22285932Y27560194D01*
G37*
%TD.AperFunction*%
%TA.AperFunction,Conductor*%
G36*
X11011553Y31914228D02*
G01*
X10981736Y31783593D01*
X10991749Y31649972D01*
X11040703Y31525240D01*
X11064021Y31496000D01*
X9256618Y31496000D01*
X9308447Y31585772D01*
X9338264Y31716407D01*
X9328251Y31850028D01*
X9279297Y31974760D01*
X9255979Y32004000D01*
X11063382Y32004000D01*
X11011553Y31914228D01*
G37*
%TD.AperFunction*%
%TA.AperFunction,Conductor*%
G36*
X55557621Y45435498D02*
G01*
X55604114Y45381842D01*
X55615500Y45329500D01*
X55615500Y5470500D01*
X55595498Y5402379D01*
X55541842Y5355886D01*
X55489500Y5344500D01*
X5470500Y5344500D01*
X5402379Y5364502D01*
X5355886Y5418158D01*
X5344500Y5470500D01*
X5344500Y8807841D01*
X37254500Y8807841D01*
X37254501Y8807834D01*
X37257414Y8782710D01*
X37257416Y8782706D01*
X37302793Y8679935D01*
X37382232Y8600496D01*
X37382234Y8600495D01*
X37382235Y8600494D01*
X37485009Y8555115D01*
X37510135Y8552200D01*
X39631864Y8552201D01*
X39656991Y8555115D01*
X39759765Y8600494D01*
X39839206Y8679935D01*
X39884585Y8782709D01*
X39887500Y8807835D01*
X39887499Y10851823D01*
X39907501Y10919942D01*
X39961157Y10966435D01*
X40031431Y10976539D01*
X40096011Y10947045D01*
X40113897Y10927954D01*
X40116078Y10925078D01*
X40236654Y10833642D01*
X40236658Y10833639D01*
X40377435Y10778123D01*
X40377434Y10778123D01*
X40405394Y10774766D01*
X40465898Y10767500D01*
X40465901Y10767500D01*
X41502099Y10767500D01*
X41502102Y10767500D01*
X41590564Y10778123D01*
X41731342Y10833639D01*
X41851922Y10925078D01*
X41943361Y11045658D01*
X41998877Y11186436D01*
X41998876Y11186436D01*
X42001285Y11192542D01*
X42044883Y11248575D01*
X42111854Y11272143D01*
X42180935Y11255761D01*
X42230193Y11204633D01*
X42244500Y11146318D01*
X42244500Y11020895D01*
X42255122Y10932436D01*
X42310638Y10791659D01*
X42310641Y10791655D01*
X42402077Y10671078D01*
X42522654Y10579642D01*
X42522658Y10579639D01*
X42663435Y10524123D01*
X42663434Y10524123D01*
X42691394Y10520766D01*
X42751898Y10513500D01*
X42751901Y10513500D01*
X43788099Y10513500D01*
X43788102Y10513500D01*
X43876564Y10524123D01*
X44017342Y10579639D01*
X44137922Y10671078D01*
X44229361Y10791658D01*
X44284877Y10932436D01*
X44295500Y11020898D01*
X44295500Y11607102D01*
X44284877Y11695564D01*
X44283405Y11699296D01*
X44229361Y11836342D01*
X44229358Y11836346D01*
X44137922Y11956923D01*
X44017345Y12048359D01*
X44017341Y12048362D01*
X43876564Y12103878D01*
X43876565Y12103878D01*
X43788105Y12114500D01*
X43788102Y12114500D01*
X42751898Y12114500D01*
X42751894Y12114500D01*
X42663435Y12103878D01*
X42522658Y12048362D01*
X42522654Y12048359D01*
X42402077Y11956923D01*
X42310641Y11836346D01*
X42310638Y11836342D01*
X42252715Y11689459D01*
X42209117Y11633426D01*
X42142146Y11609858D01*
X42073065Y11626240D01*
X42023807Y11677368D01*
X42009500Y11735683D01*
X42009500Y11861099D01*
X42009500Y11861102D01*
X41998877Y11949564D01*
X41995975Y11956922D01*
X41943361Y12090342D01*
X41943358Y12090346D01*
X41851922Y12210923D01*
X41731345Y12302359D01*
X41731341Y12302362D01*
X41590564Y12357878D01*
X41590565Y12357878D01*
X41502105Y12368500D01*
X41502102Y12368500D01*
X40465898Y12368500D01*
X40465894Y12368500D01*
X40377435Y12357878D01*
X40236658Y12302362D01*
X40236654Y12302359D01*
X40116076Y12210922D01*
X40113893Y12208042D01*
X40111227Y12206073D01*
X40109983Y12204828D01*
X40109796Y12205015D01*
X40056793Y12165851D01*
X39985947Y12161229D01*
X39923848Y12195643D01*
X39890213Y12258167D01*
X39887499Y12284180D01*
X39887499Y12555160D01*
X39887499Y12555164D01*
X39884585Y12580291D01*
X39839206Y12683065D01*
X39839206Y12683066D01*
X39759767Y12762505D01*
X39759765Y12762506D01*
X39656989Y12807886D01*
X39656990Y12807886D01*
X39631868Y12810800D01*
X37510140Y12810800D01*
X37510133Y12810799D01*
X37485009Y12807886D01*
X37485005Y12807884D01*
X37382234Y12762507D01*
X37302795Y12683068D01*
X37302794Y12683066D01*
X37257414Y12580291D01*
X37254500Y12555171D01*
X37254500Y8807841D01*
X5344500Y8807841D01*
X5344500Y9366641D01*
X18458500Y9366641D01*
X18458501Y9366634D01*
X18461414Y9341510D01*
X18461416Y9341506D01*
X18506793Y9238735D01*
X18586232Y9159296D01*
X18586234Y9159295D01*
X18586235Y9159294D01*
X18689009Y9113915D01*
X18714135Y9111000D01*
X20327864Y9111001D01*
X20352991Y9113915D01*
X20455765Y9159294D01*
X20535206Y9238735D01*
X20580585Y9341509D01*
X20583500Y9366635D01*
X20583500Y9366641D01*
X20998500Y9366641D01*
X20998501Y9366634D01*
X21001414Y9341510D01*
X21001416Y9341506D01*
X21046793Y9238735D01*
X21126232Y9159296D01*
X21126234Y9159295D01*
X21126235Y9159294D01*
X21229009Y9113915D01*
X21254135Y9111000D01*
X22867864Y9111001D01*
X22892991Y9113915D01*
X22995765Y9159294D01*
X23075206Y9238735D01*
X23120585Y9341509D01*
X23123500Y9366635D01*
X23123500Y9366641D01*
X23538500Y9366641D01*
X23538501Y9366634D01*
X23541414Y9341510D01*
X23541416Y9341506D01*
X23586793Y9238735D01*
X23666232Y9159296D01*
X23666234Y9159295D01*
X23666235Y9159294D01*
X23769009Y9113915D01*
X23794135Y9111000D01*
X25407864Y9111001D01*
X25432991Y9113915D01*
X25535765Y9159294D01*
X25615206Y9238735D01*
X25660585Y9341509D01*
X25663500Y9366635D01*
X25663500Y10128641D01*
X30650500Y10128641D01*
X30650501Y10128634D01*
X30653414Y10103510D01*
X30653416Y10103506D01*
X30698793Y10000735D01*
X30778232Y9921296D01*
X30778234Y9921295D01*
X30778235Y9921294D01*
X30881009Y9875915D01*
X30906135Y9873000D01*
X33027864Y9873001D01*
X33052991Y9875915D01*
X33155765Y9921294D01*
X33235206Y10000735D01*
X33280585Y10103509D01*
X33283500Y10128635D01*
X33283499Y11234364D01*
X33280585Y11259491D01*
X33235206Y11362265D01*
X33235206Y11362266D01*
X33155767Y11441705D01*
X33155765Y11441706D01*
X33052989Y11487086D01*
X33052990Y11487086D01*
X33027868Y11490000D01*
X30906140Y11490000D01*
X30906133Y11489999D01*
X30881009Y11487086D01*
X30881005Y11487084D01*
X30778234Y11441707D01*
X30698795Y11362268D01*
X30698794Y11362266D01*
X30653414Y11259491D01*
X30650500Y11234371D01*
X30650500Y10128641D01*
X25663500Y10128641D01*
X25663499Y10980364D01*
X25660585Y11005491D01*
X25615206Y11108265D01*
X25615206Y11108266D01*
X25535767Y11187705D01*
X25535765Y11187706D01*
X25432989Y11233086D01*
X25432990Y11233086D01*
X25407868Y11236000D01*
X23794140Y11236000D01*
X23794133Y11235999D01*
X23769009Y11233086D01*
X23769005Y11233084D01*
X23666234Y11187707D01*
X23586795Y11108268D01*
X23586794Y11108266D01*
X23541414Y11005491D01*
X23538500Y10980371D01*
X23538500Y9366641D01*
X23123500Y9366641D01*
X23123499Y10980364D01*
X23120585Y11005491D01*
X23075206Y11108265D01*
X23075206Y11108266D01*
X22995767Y11187705D01*
X22995765Y11187706D01*
X22892989Y11233086D01*
X22892990Y11233086D01*
X22867868Y11236000D01*
X21254140Y11236000D01*
X21254133Y11235999D01*
X21229009Y11233086D01*
X21229005Y11233084D01*
X21126234Y11187707D01*
X21046795Y11108268D01*
X21046794Y11108266D01*
X21001414Y11005491D01*
X20998500Y10980371D01*
X20998500Y9366641D01*
X20583500Y9366641D01*
X20583499Y10980364D01*
X20580585Y11005491D01*
X20535206Y11108265D01*
X20535206Y11108266D01*
X20455767Y11187705D01*
X20455765Y11187706D01*
X20352989Y11233086D01*
X20352990Y11233086D01*
X20327868Y11236000D01*
X18714140Y11236000D01*
X18714133Y11235999D01*
X18689009Y11233086D01*
X18689005Y11233084D01*
X18586234Y11187707D01*
X18506795Y11108268D01*
X18506794Y11108266D01*
X18461414Y11005491D01*
X18458500Y10980371D01*
X18458500Y9366641D01*
X5344500Y9366641D01*
X5344500Y11906641D01*
X18458500Y11906641D01*
X18458501Y11906634D01*
X18461414Y11881510D01*
X18461416Y11881506D01*
X18506793Y11778735D01*
X18586232Y11699296D01*
X18586234Y11699295D01*
X18586235Y11699294D01*
X18689009Y11653915D01*
X18714135Y11651000D01*
X20327864Y11651001D01*
X20352991Y11653915D01*
X20455765Y11699294D01*
X20535206Y11778735D01*
X20580585Y11881509D01*
X20583500Y11906635D01*
X20583500Y11906641D01*
X20998500Y11906641D01*
X20998501Y11906634D01*
X21001414Y11881510D01*
X21001416Y11881506D01*
X21046793Y11778735D01*
X21126232Y11699296D01*
X21126234Y11699295D01*
X21126235Y11699294D01*
X21229009Y11653915D01*
X21254135Y11651000D01*
X22867864Y11651001D01*
X22892991Y11653915D01*
X22995765Y11699294D01*
X23075206Y11778735D01*
X23120585Y11881509D01*
X23123500Y11906635D01*
X23123500Y11906641D01*
X23538500Y11906641D01*
X23538501Y11906634D01*
X23541414Y11881510D01*
X23541416Y11881506D01*
X23586793Y11778735D01*
X23666232Y11699296D01*
X23666234Y11699295D01*
X23666235Y11699294D01*
X23769009Y11653915D01*
X23794135Y11651000D01*
X25407864Y11651001D01*
X25432991Y11653915D01*
X25535765Y11699294D01*
X25615206Y11778735D01*
X25660585Y11881509D01*
X25663500Y11906635D01*
X25663500Y12414641D01*
X30650500Y12414641D01*
X30650501Y12414634D01*
X30653414Y12389510D01*
X30653416Y12389506D01*
X30698793Y12286735D01*
X30778232Y12207296D01*
X30778234Y12207295D01*
X30778235Y12207294D01*
X30881009Y12161915D01*
X30906135Y12159000D01*
X33027864Y12159001D01*
X33052991Y12161915D01*
X33155765Y12207294D01*
X33235206Y12286735D01*
X33280585Y12389509D01*
X33283500Y12414635D01*
X33283499Y13520364D01*
X33280585Y13545491D01*
X33235206Y13648265D01*
X33235206Y13648266D01*
X33155767Y13727705D01*
X33155765Y13727706D01*
X33052989Y13773086D01*
X33052990Y13773086D01*
X33027868Y13776000D01*
X30906140Y13776000D01*
X30906133Y13775999D01*
X30881009Y13773086D01*
X30881005Y13773084D01*
X30778234Y13727707D01*
X30698795Y13648268D01*
X30698794Y13648266D01*
X30653414Y13545491D01*
X30650500Y13520371D01*
X30650500Y12414641D01*
X25663500Y12414641D01*
X25663499Y13520364D01*
X25660585Y13545491D01*
X25615206Y13648265D01*
X25615206Y13648266D01*
X25535767Y13727705D01*
X25535765Y13727706D01*
X25432989Y13773086D01*
X25432990Y13773086D01*
X25407868Y13776000D01*
X23794140Y13776000D01*
X23794133Y13775999D01*
X23769009Y13773086D01*
X23769005Y13773084D01*
X23666234Y13727707D01*
X23586795Y13648268D01*
X23586794Y13648266D01*
X23541414Y13545491D01*
X23538500Y13520371D01*
X23538500Y11906641D01*
X23123500Y11906641D01*
X23123499Y13520364D01*
X23120585Y13545491D01*
X23075206Y13648265D01*
X23075206Y13648266D01*
X22995767Y13727705D01*
X22995765Y13727706D01*
X22892989Y13773086D01*
X22892990Y13773086D01*
X22867868Y13776000D01*
X21254140Y13776000D01*
X21254133Y13775999D01*
X21229009Y13773086D01*
X21229005Y13773084D01*
X21126234Y13727707D01*
X21046795Y13648268D01*
X21046794Y13648266D01*
X21001414Y13545491D01*
X20998500Y13520371D01*
X20998500Y11906641D01*
X20583500Y11906641D01*
X20583499Y13520364D01*
X20580585Y13545491D01*
X20535206Y13648265D01*
X20535206Y13648266D01*
X20455767Y13727705D01*
X20455765Y13727706D01*
X20352989Y13773086D01*
X20352990Y13773086D01*
X20327868Y13776000D01*
X18714140Y13776000D01*
X18714133Y13775999D01*
X18689009Y13773086D01*
X18689005Y13773084D01*
X18586234Y13727707D01*
X18506795Y13648268D01*
X18506794Y13648266D01*
X18461414Y13545491D01*
X18458500Y13520371D01*
X18458500Y11906641D01*
X5344500Y11906641D01*
X5344500Y14670395D01*
X18520500Y14670395D01*
X18531122Y14581936D01*
X18586638Y14441159D01*
X18586641Y14441155D01*
X18678077Y14320578D01*
X18798654Y14229142D01*
X18798658Y14229139D01*
X18939435Y14173623D01*
X18939434Y14173623D01*
X18967394Y14170266D01*
X19027898Y14163000D01*
X19027901Y14163000D01*
X20014099Y14163000D01*
X20014102Y14163000D01*
X20102564Y14173623D01*
X20243342Y14229139D01*
X20363922Y14320578D01*
X20455361Y14441158D01*
X20510877Y14581936D01*
X20521500Y14670395D01*
X21060500Y14670395D01*
X21071122Y14581936D01*
X21126638Y14441159D01*
X21126641Y14441155D01*
X21218077Y14320578D01*
X21338654Y14229142D01*
X21338658Y14229139D01*
X21479435Y14173623D01*
X21479434Y14173623D01*
X21507394Y14170266D01*
X21567898Y14163000D01*
X21567901Y14163000D01*
X22554099Y14163000D01*
X22554102Y14163000D01*
X22642564Y14173623D01*
X22783342Y14229139D01*
X22903922Y14320578D01*
X22995361Y14441158D01*
X23050877Y14581936D01*
X23061500Y14670395D01*
X23600500Y14670395D01*
X23611122Y14581936D01*
X23666638Y14441159D01*
X23666641Y14441155D01*
X23758077Y14320578D01*
X23878654Y14229142D01*
X23878658Y14229139D01*
X24019435Y14173623D01*
X24019434Y14173623D01*
X24047394Y14170266D01*
X24107898Y14163000D01*
X24107901Y14163000D01*
X25094099Y14163000D01*
X25094102Y14163000D01*
X25182564Y14173623D01*
X25323342Y14229139D01*
X25443922Y14320578D01*
X25535361Y14441158D01*
X25590877Y14581936D01*
X25601500Y14670398D01*
X25601500Y15281602D01*
X25590877Y15370064D01*
X25535361Y15510842D01*
X25535358Y15510846D01*
X25443922Y15631423D01*
X25323345Y15722859D01*
X25323341Y15722862D01*
X25200548Y15771285D01*
X25144515Y15814883D01*
X25120947Y15881854D01*
X25137328Y15950935D01*
X25188457Y16000193D01*
X25200548Y16005715D01*
X25205163Y16007535D01*
X25323342Y16054139D01*
X25443922Y16145578D01*
X25535361Y16266158D01*
X25590877Y16406936D01*
X25601500Y16495398D01*
X25601500Y17106602D01*
X25590877Y17195064D01*
X25554474Y17287374D01*
X25535361Y17335842D01*
X25535358Y17335846D01*
X25443922Y17456423D01*
X25323345Y17547859D01*
X25323341Y17547862D01*
X25182564Y17603378D01*
X25182565Y17603378D01*
X25094105Y17614000D01*
X25094102Y17614000D01*
X24107898Y17614000D01*
X24107894Y17614000D01*
X24019435Y17603378D01*
X23878658Y17547862D01*
X23878654Y17547859D01*
X23758077Y17456423D01*
X23666641Y17335846D01*
X23666638Y17335842D01*
X23611122Y17195065D01*
X23600500Y17106606D01*
X23600500Y16495395D01*
X23611122Y16406936D01*
X23666638Y16266159D01*
X23666641Y16266155D01*
X23758077Y16145578D01*
X23878654Y16054142D01*
X23878658Y16054139D01*
X24001451Y16005715D01*
X24057484Y15962117D01*
X24081052Y15895146D01*
X24064670Y15826065D01*
X24013542Y15776807D01*
X24001451Y15771285D01*
X23878658Y15722862D01*
X23878654Y15722859D01*
X23758077Y15631423D01*
X23666641Y15510846D01*
X23666638Y15510842D01*
X23611122Y15370065D01*
X23600500Y15281606D01*
X23600500Y14670395D01*
X23061500Y14670395D01*
X23061500Y14670398D01*
X23061500Y15281602D01*
X23050877Y15370064D01*
X22995361Y15510842D01*
X22995358Y15510846D01*
X22903922Y15631423D01*
X22783345Y15722859D01*
X22783341Y15722862D01*
X22660548Y15771285D01*
X22604515Y15814883D01*
X22580947Y15881854D01*
X22597328Y15950935D01*
X22648457Y16000193D01*
X22660548Y16005715D01*
X22665163Y16007535D01*
X22783342Y16054139D01*
X22903922Y16145578D01*
X22995361Y16266158D01*
X23050877Y16406936D01*
X23061500Y16495398D01*
X23061500Y17106602D01*
X23050877Y17195064D01*
X23014474Y17287374D01*
X22995361Y17335842D01*
X22995358Y17335846D01*
X22903922Y17456423D01*
X22783345Y17547859D01*
X22783341Y17547862D01*
X22642564Y17603378D01*
X22642565Y17603378D01*
X22554105Y17614000D01*
X22554102Y17614000D01*
X21567898Y17614000D01*
X21567894Y17614000D01*
X21479435Y17603378D01*
X21338658Y17547862D01*
X21338654Y17547859D01*
X21218077Y17456423D01*
X21126641Y17335846D01*
X21126638Y17335842D01*
X21071122Y17195065D01*
X21060500Y17106606D01*
X21060500Y16495395D01*
X21071122Y16406936D01*
X21126638Y16266159D01*
X21126641Y16266155D01*
X21218077Y16145578D01*
X21338654Y16054142D01*
X21338658Y16054139D01*
X21461451Y16005715D01*
X21517484Y15962117D01*
X21541052Y15895146D01*
X21524670Y15826065D01*
X21473542Y15776807D01*
X21461451Y15771285D01*
X21338658Y15722862D01*
X21338654Y15722859D01*
X21218077Y15631423D01*
X21126641Y15510846D01*
X21126638Y15510842D01*
X21071122Y15370065D01*
X21060500Y15281606D01*
X21060500Y14670395D01*
X20521500Y14670395D01*
X20521500Y14670398D01*
X20521500Y15281602D01*
X20510877Y15370064D01*
X20455361Y15510842D01*
X20455358Y15510846D01*
X20363922Y15631423D01*
X20243345Y15722859D01*
X20243341Y15722862D01*
X20120548Y15771285D01*
X20064515Y15814883D01*
X20040947Y15881854D01*
X20057328Y15950935D01*
X20108457Y16000193D01*
X20120548Y16005715D01*
X20125163Y16007535D01*
X20243342Y16054139D01*
X20363922Y16145578D01*
X20455361Y16266158D01*
X20510877Y16406936D01*
X20521500Y16495398D01*
X20521500Y17106602D01*
X20510877Y17195064D01*
X20474474Y17287374D01*
X20455361Y17335842D01*
X20455358Y17335846D01*
X20363922Y17456423D01*
X20243345Y17547859D01*
X20243341Y17547862D01*
X20102564Y17603378D01*
X20102565Y17603378D01*
X20014105Y17614000D01*
X20014102Y17614000D01*
X19027898Y17614000D01*
X19027894Y17614000D01*
X18939435Y17603378D01*
X18798658Y17547862D01*
X18798654Y17547859D01*
X18678077Y17456423D01*
X18586641Y17335846D01*
X18586638Y17335842D01*
X18531122Y17195065D01*
X18520500Y17106606D01*
X18520500Y16495395D01*
X18531122Y16406936D01*
X18586638Y16266159D01*
X18586641Y16266155D01*
X18678077Y16145578D01*
X18798654Y16054142D01*
X18798658Y16054139D01*
X18921451Y16005715D01*
X18977484Y15962117D01*
X19001052Y15895146D01*
X18984670Y15826065D01*
X18933542Y15776807D01*
X18921451Y15771285D01*
X18798658Y15722862D01*
X18798654Y15722859D01*
X18678077Y15631423D01*
X18586641Y15510846D01*
X18586638Y15510842D01*
X18531122Y15370065D01*
X18520500Y15281606D01*
X18520500Y14670395D01*
X5344500Y14670395D01*
X5344500Y17855601D01*
X33950303Y17855601D01*
X33969738Y17714203D01*
X33969739Y17714197D01*
X33969740Y17714195D01*
X34026607Y17583274D01*
X34078524Y17517184D01*
X34078526Y17517182D01*
X34078530Y17517177D01*
X34675176Y16920531D01*
X34675180Y16920528D01*
X34675184Y16920524D01*
X34741274Y16868607D01*
X34872195Y16811740D01*
X34872200Y16811740D01*
X34872202Y16811739D01*
X35013601Y16792303D01*
X35013604Y16792303D01*
X35013607Y16792303D01*
X35127492Y16807958D01*
X35155013Y16811740D01*
X35285934Y16868607D01*
X35352024Y16920524D01*
X35718874Y17287374D01*
X35770791Y17353464D01*
X35827658Y17484385D01*
X35847095Y17625794D01*
X35847095Y17625798D01*
X35827659Y17767196D01*
X35827658Y17767202D01*
X35827658Y17767203D01*
X35770791Y17898124D01*
X35718874Y17964214D01*
X35718870Y17964218D01*
X35718867Y17964222D01*
X35122221Y18560868D01*
X35122216Y18560872D01*
X35122214Y18560874D01*
X35056124Y18612791D01*
X34925203Y18669658D01*
X34925201Y18669659D01*
X34925195Y18669660D01*
X34783797Y18689095D01*
X34783791Y18689095D01*
X34642392Y18669660D01*
X34642386Y18669659D01*
X34576924Y18641225D01*
X34511464Y18612791D01*
X34511463Y18612790D01*
X34445366Y18560868D01*
X34078530Y18194032D01*
X34078524Y18194024D01*
X34026607Y18127934D01*
X33998173Y18062474D01*
X33969739Y17997012D01*
X33969738Y17997006D01*
X33950303Y17855608D01*
X33950303Y17855601D01*
X5344500Y17855601D01*
X5344500Y19513141D01*
X9732500Y19513141D01*
X9732501Y19513134D01*
X9735414Y19488010D01*
X9735416Y19488006D01*
X9780793Y19385235D01*
X9860232Y19305796D01*
X9860234Y19305795D01*
X9860235Y19305794D01*
X9963009Y19260415D01*
X9988135Y19257500D01*
X11601864Y19257501D01*
X11626991Y19260415D01*
X11729765Y19305794D01*
X11809206Y19385235D01*
X11854585Y19488009D01*
X11857500Y19513135D01*
X11857500Y19513141D01*
X12272500Y19513141D01*
X12272501Y19513134D01*
X12275414Y19488010D01*
X12275416Y19488006D01*
X12320793Y19385235D01*
X12400232Y19305796D01*
X12400234Y19305795D01*
X12400235Y19305794D01*
X12503009Y19260415D01*
X12528135Y19257500D01*
X14141864Y19257501D01*
X14166991Y19260415D01*
X14269765Y19305794D01*
X14349206Y19385235D01*
X14394585Y19488009D01*
X14397500Y19513135D01*
X14397500Y19826895D01*
X15128500Y19826895D01*
X15139122Y19738436D01*
X15194638Y19597659D01*
X15194641Y19597655D01*
X15286077Y19477078D01*
X15406654Y19385642D01*
X15406658Y19385639D01*
X15547435Y19330123D01*
X15547434Y19330123D01*
X15575394Y19326766D01*
X15635898Y19319500D01*
X15635901Y19319500D01*
X16247099Y19319500D01*
X16247102Y19319500D01*
X16335564Y19330123D01*
X16476342Y19385639D01*
X16596922Y19477078D01*
X16688361Y19597658D01*
X16736785Y19720452D01*
X16780383Y19776485D01*
X16847354Y19800053D01*
X16916435Y19783672D01*
X16965693Y19732543D01*
X16971215Y19720452D01*
X17019638Y19597659D01*
X17019641Y19597655D01*
X17111077Y19477078D01*
X17231654Y19385642D01*
X17231658Y19385639D01*
X17372435Y19330123D01*
X17372434Y19330123D01*
X17400394Y19326766D01*
X17460898Y19319500D01*
X17460901Y19319500D01*
X18072099Y19319500D01*
X18072102Y19319500D01*
X18160564Y19330123D01*
X18231770Y19358203D01*
X35452905Y19358203D01*
X35472340Y19216805D01*
X35472341Y19216799D01*
X35472342Y19216797D01*
X35529209Y19085876D01*
X35581126Y19019786D01*
X35581128Y19019784D01*
X35581132Y19019779D01*
X36177778Y18423133D01*
X36177782Y18423130D01*
X36177786Y18423126D01*
X36243876Y18371209D01*
X36374797Y18314342D01*
X36374802Y18314342D01*
X36374804Y18314341D01*
X36516203Y18294905D01*
X36516206Y18294905D01*
X36516209Y18294905D01*
X36630094Y18310560D01*
X36657615Y18314342D01*
X36788536Y18371209D01*
X36854626Y18423126D01*
X37221476Y18789976D01*
X37273393Y18856066D01*
X37330260Y18986987D01*
X37349697Y19128396D01*
X37349697Y19128400D01*
X37330261Y19269798D01*
X37330260Y19269804D01*
X37330260Y19269805D01*
X37273393Y19400726D01*
X37221476Y19466816D01*
X37221472Y19466820D01*
X37221469Y19466824D01*
X36624823Y20063470D01*
X36624818Y20063474D01*
X36624816Y20063476D01*
X36558726Y20115393D01*
X36427805Y20172260D01*
X36427803Y20172261D01*
X36427797Y20172262D01*
X36286399Y20191697D01*
X36286393Y20191697D01*
X36144994Y20172262D01*
X36144988Y20172261D01*
X36079526Y20143827D01*
X36014066Y20115393D01*
X35985650Y20093072D01*
X35947968Y20063470D01*
X35581132Y19696634D01*
X35551530Y19658952D01*
X35529209Y19630536D01*
X35514929Y19597659D01*
X35472341Y19499614D01*
X35472340Y19499608D01*
X35452905Y19358210D01*
X35452905Y19358203D01*
X18231770Y19358203D01*
X18301342Y19385639D01*
X18421922Y19477078D01*
X18513361Y19597658D01*
X18568877Y19738436D01*
X18579500Y19826898D01*
X18579500Y20813102D01*
X18568877Y20901564D01*
X18562042Y20918895D01*
X18513361Y21042342D01*
X18513358Y21042346D01*
X18421922Y21162923D01*
X18301345Y21254359D01*
X18301341Y21254362D01*
X18160564Y21309878D01*
X18160565Y21309878D01*
X18072105Y21320500D01*
X18072102Y21320500D01*
X17460898Y21320500D01*
X17460894Y21320500D01*
X17372435Y21309878D01*
X17231658Y21254362D01*
X17231654Y21254359D01*
X17111077Y21162923D01*
X17019641Y21042346D01*
X17019638Y21042342D01*
X16971215Y20919549D01*
X16927617Y20863516D01*
X16860646Y20839948D01*
X16791565Y20856330D01*
X16742307Y20907458D01*
X16736785Y20919549D01*
X16688361Y21042342D01*
X16688358Y21042346D01*
X16596922Y21162923D01*
X16476345Y21254359D01*
X16476341Y21254362D01*
X16335564Y21309878D01*
X16335565Y21309878D01*
X16247105Y21320500D01*
X16247102Y21320500D01*
X15635898Y21320500D01*
X15635894Y21320500D01*
X15547435Y21309878D01*
X15406658Y21254362D01*
X15406654Y21254359D01*
X15286077Y21162923D01*
X15194641Y21042346D01*
X15194638Y21042342D01*
X15139122Y20901565D01*
X15128500Y20813106D01*
X15128500Y19826895D01*
X14397500Y19826895D01*
X14397499Y21126864D01*
X14394585Y21151991D01*
X14374441Y21197614D01*
X14349206Y21254766D01*
X14269767Y21334205D01*
X14269765Y21334206D01*
X14166989Y21379586D01*
X14166990Y21379586D01*
X14141868Y21382500D01*
X12528140Y21382500D01*
X12528133Y21382499D01*
X12503009Y21379586D01*
X12503005Y21379584D01*
X12400234Y21334207D01*
X12320795Y21254768D01*
X12320794Y21254766D01*
X12275414Y21151991D01*
X12272500Y21126871D01*
X12272500Y19513141D01*
X11857500Y19513141D01*
X11857499Y21126864D01*
X11854585Y21151991D01*
X11834441Y21197614D01*
X11809206Y21254766D01*
X11729767Y21334205D01*
X11729765Y21334206D01*
X11626989Y21379586D01*
X11626990Y21379586D01*
X11601868Y21382500D01*
X9988140Y21382500D01*
X9988133Y21382499D01*
X9963009Y21379586D01*
X9963005Y21379584D01*
X9860234Y21334207D01*
X9780795Y21254768D01*
X9780794Y21254766D01*
X9735414Y21151991D01*
X9732500Y21126871D01*
X9732500Y19513141D01*
X5344500Y19513141D01*
X5344500Y21688895D01*
X21162500Y21688895D01*
X21173122Y21600436D01*
X21228638Y21459659D01*
X21228641Y21459655D01*
X21320077Y21339078D01*
X21440654Y21247642D01*
X21440658Y21247639D01*
X21581435Y21192123D01*
X21581434Y21192123D01*
X21609394Y21188766D01*
X21669898Y21181500D01*
X21669901Y21181500D01*
X22706099Y21181500D01*
X22706102Y21181500D01*
X22794564Y21192123D01*
X22935342Y21247639D01*
X23055922Y21339078D01*
X23147361Y21459658D01*
X23202877Y21600436D01*
X23213500Y21688895D01*
X23702500Y21688895D01*
X23713122Y21600436D01*
X23768638Y21459659D01*
X23768641Y21459655D01*
X23860077Y21339078D01*
X23980654Y21247642D01*
X23980658Y21247639D01*
X24121435Y21192123D01*
X24121434Y21192123D01*
X24149394Y21188766D01*
X24209898Y21181500D01*
X24209901Y21181500D01*
X25246099Y21181500D01*
X25246102Y21181500D01*
X25334564Y21192123D01*
X25475342Y21247639D01*
X25595922Y21339078D01*
X25626640Y21379585D01*
X25643603Y21401954D01*
X25700702Y21444147D01*
X25771547Y21448772D01*
X25833647Y21414360D01*
X25844397Y21401954D01*
X25892077Y21339078D01*
X26012654Y21247642D01*
X26012658Y21247639D01*
X26153435Y21192123D01*
X26153434Y21192123D01*
X26181394Y21188766D01*
X26241898Y21181500D01*
X26241901Y21181500D01*
X27278099Y21181500D01*
X27278102Y21181500D01*
X27366564Y21192123D01*
X27507342Y21247639D01*
X27627922Y21339078D01*
X27658640Y21379585D01*
X27675603Y21401954D01*
X27732702Y21444147D01*
X27803547Y21448772D01*
X27865647Y21414360D01*
X27876397Y21401954D01*
X27924077Y21339078D01*
X28044654Y21247642D01*
X28044658Y21247639D01*
X28185435Y21192123D01*
X28185434Y21192123D01*
X28213394Y21188766D01*
X28273898Y21181500D01*
X28273901Y21181500D01*
X29310099Y21181500D01*
X29310102Y21181500D01*
X29398564Y21192123D01*
X29539342Y21247639D01*
X29659922Y21339078D01*
X29751361Y21459658D01*
X29806877Y21600436D01*
X29817500Y21688898D01*
X29817500Y22275102D01*
X29806877Y22363564D01*
X29805563Y22366895D01*
X29751361Y22504342D01*
X29751358Y22504346D01*
X29659922Y22624923D01*
X29539345Y22716359D01*
X29539341Y22716362D01*
X29398564Y22771878D01*
X29398565Y22771878D01*
X29310105Y22782500D01*
X29310102Y22782500D01*
X28273898Y22782500D01*
X28273894Y22782500D01*
X28185435Y22771878D01*
X28044658Y22716362D01*
X28044654Y22716359D01*
X27924079Y22624924D01*
X27876397Y22562046D01*
X27819298Y22519854D01*
X27748452Y22515229D01*
X27686352Y22549641D01*
X27675603Y22562046D01*
X27627920Y22624924D01*
X27507345Y22716359D01*
X27507341Y22716362D01*
X27366564Y22771878D01*
X27366565Y22771878D01*
X27278105Y22782500D01*
X27278102Y22782500D01*
X26241898Y22782500D01*
X26241894Y22782500D01*
X26153435Y22771878D01*
X26012658Y22716362D01*
X26012654Y22716359D01*
X25892079Y22624924D01*
X25844397Y22562046D01*
X25787298Y22519854D01*
X25716452Y22515229D01*
X25654352Y22549641D01*
X25643603Y22562046D01*
X25595920Y22624924D01*
X25475345Y22716359D01*
X25475341Y22716362D01*
X25334564Y22771878D01*
X25334565Y22771878D01*
X25246105Y22782500D01*
X25246102Y22782500D01*
X24209898Y22782500D01*
X24209894Y22782500D01*
X24121435Y22771878D01*
X23980658Y22716362D01*
X23980654Y22716359D01*
X23860077Y22624923D01*
X23768641Y22504346D01*
X23768638Y22504342D01*
X23713122Y22363565D01*
X23702500Y22275106D01*
X23702500Y21688895D01*
X23213500Y21688895D01*
X23213500Y21688898D01*
X23213500Y22275102D01*
X23202877Y22363564D01*
X23201563Y22366895D01*
X23147361Y22504342D01*
X23147358Y22504346D01*
X23055922Y22624923D01*
X22935345Y22716359D01*
X22935341Y22716362D01*
X22794564Y22771878D01*
X22794565Y22771878D01*
X22706105Y22782500D01*
X22706102Y22782500D01*
X21669898Y22782500D01*
X21669894Y22782500D01*
X21581435Y22771878D01*
X21440658Y22716362D01*
X21440654Y22716359D01*
X21320077Y22624923D01*
X21228641Y22504346D01*
X21228638Y22504342D01*
X21173122Y22363565D01*
X21162500Y22275106D01*
X21162500Y21688895D01*
X5344500Y21688895D01*
X5344500Y22053141D01*
X9732500Y22053141D01*
X9732501Y22053134D01*
X9735414Y22028010D01*
X9735416Y22028006D01*
X9780793Y21925235D01*
X9860232Y21845796D01*
X9860234Y21845795D01*
X9860235Y21845794D01*
X9963009Y21800415D01*
X9988135Y21797500D01*
X11601864Y21797501D01*
X11626991Y21800415D01*
X11729765Y21845794D01*
X11809206Y21925235D01*
X11854585Y22028009D01*
X11857500Y22053135D01*
X11857500Y22053141D01*
X12272500Y22053141D01*
X12272501Y22053134D01*
X12275414Y22028010D01*
X12275416Y22028006D01*
X12320793Y21925235D01*
X12400232Y21845796D01*
X12400234Y21845795D01*
X12400235Y21845794D01*
X12503009Y21800415D01*
X12528135Y21797500D01*
X14141864Y21797501D01*
X14166991Y21800415D01*
X14269765Y21845794D01*
X14349206Y21925235D01*
X14394585Y22028009D01*
X14397500Y22053135D01*
X14397500Y22366895D01*
X15128500Y22366895D01*
X15139122Y22278436D01*
X15194638Y22137659D01*
X15194641Y22137655D01*
X15286077Y22017078D01*
X15406654Y21925642D01*
X15406658Y21925639D01*
X15547435Y21870123D01*
X15547434Y21870123D01*
X15575394Y21866766D01*
X15635898Y21859500D01*
X15635901Y21859500D01*
X16247099Y21859500D01*
X16247102Y21859500D01*
X16335564Y21870123D01*
X16476342Y21925639D01*
X16596922Y22017078D01*
X16688361Y22137658D01*
X16736785Y22260452D01*
X16780383Y22316485D01*
X16847354Y22340053D01*
X16916435Y22323672D01*
X16965693Y22272543D01*
X16971215Y22260452D01*
X17019638Y22137659D01*
X17019641Y22137655D01*
X17111077Y22017078D01*
X17231654Y21925642D01*
X17231658Y21925639D01*
X17372435Y21870123D01*
X17372434Y21870123D01*
X17400394Y21866766D01*
X17460898Y21859500D01*
X17460901Y21859500D01*
X18072099Y21859500D01*
X18072102Y21859500D01*
X18160564Y21870123D01*
X18301342Y21925639D01*
X18421922Y22017078D01*
X18513361Y22137658D01*
X18568877Y22278436D01*
X18579500Y22366898D01*
X18579500Y23353102D01*
X18568877Y23441564D01*
X18566330Y23448022D01*
X18513361Y23582342D01*
X18513358Y23582346D01*
X18421922Y23702923D01*
X18301345Y23794359D01*
X18301341Y23794362D01*
X18160564Y23849878D01*
X18160565Y23849878D01*
X18072105Y23860500D01*
X18072102Y23860500D01*
X17460898Y23860500D01*
X17460894Y23860500D01*
X17372435Y23849878D01*
X17231658Y23794362D01*
X17231654Y23794359D01*
X17111077Y23702923D01*
X17019641Y23582346D01*
X17019638Y23582342D01*
X16971215Y23459549D01*
X16927617Y23403516D01*
X16860646Y23379948D01*
X16791565Y23396330D01*
X16742307Y23447458D01*
X16736785Y23459549D01*
X16688361Y23582342D01*
X16688358Y23582346D01*
X16596922Y23702923D01*
X16476345Y23794359D01*
X16476341Y23794362D01*
X16335564Y23849878D01*
X16335565Y23849878D01*
X16247105Y23860500D01*
X16247102Y23860500D01*
X15635898Y23860500D01*
X15635894Y23860500D01*
X15547435Y23849878D01*
X15406658Y23794362D01*
X15406654Y23794359D01*
X15286077Y23702923D01*
X15194641Y23582346D01*
X15194638Y23582342D01*
X15139122Y23441565D01*
X15128500Y23353106D01*
X15128500Y22366895D01*
X14397500Y22366895D01*
X14397499Y23666864D01*
X14394585Y23691991D01*
X14369633Y23748502D01*
X14349206Y23794766D01*
X14269767Y23874205D01*
X14269765Y23874206D01*
X14166989Y23919586D01*
X14166990Y23919586D01*
X14141868Y23922500D01*
X12528140Y23922500D01*
X12528133Y23922499D01*
X12503009Y23919586D01*
X12503005Y23919584D01*
X12400234Y23874207D01*
X12320795Y23794768D01*
X12320794Y23794766D01*
X12275414Y23691991D01*
X12272500Y23666871D01*
X12272500Y22053141D01*
X11857500Y22053141D01*
X11857499Y23666864D01*
X11854585Y23691991D01*
X11829633Y23748502D01*
X11809206Y23794766D01*
X11729767Y23874205D01*
X11729765Y23874206D01*
X11626989Y23919586D01*
X11626990Y23919586D01*
X11601868Y23922500D01*
X9988140Y23922500D01*
X9988133Y23922499D01*
X9963009Y23919586D01*
X9963005Y23919584D01*
X9860234Y23874207D01*
X9780795Y23794768D01*
X9780794Y23794766D01*
X9735414Y23691991D01*
X9732500Y23666871D01*
X9732500Y22053141D01*
X5344500Y22053141D01*
X5344500Y24906895D01*
X14784500Y24906895D01*
X14795122Y24818436D01*
X14850638Y24677659D01*
X14850641Y24677655D01*
X14942077Y24557078D01*
X15062654Y24465642D01*
X15062658Y24465639D01*
X15203435Y24410123D01*
X15203434Y24410123D01*
X15231394Y24406766D01*
X15291898Y24399500D01*
X15291901Y24399500D01*
X15903099Y24399500D01*
X15903102Y24399500D01*
X15991564Y24410123D01*
X16132342Y24465639D01*
X16252922Y24557078D01*
X16344361Y24677658D01*
X16392785Y24800452D01*
X16436383Y24856485D01*
X16503354Y24880053D01*
X16572435Y24863672D01*
X16621693Y24812543D01*
X16627215Y24800452D01*
X16675638Y24677659D01*
X16675641Y24677655D01*
X16767077Y24557078D01*
X16887654Y24465642D01*
X16887658Y24465639D01*
X17028435Y24410123D01*
X17028434Y24410123D01*
X17056394Y24406766D01*
X17116898Y24399500D01*
X17116901Y24399500D01*
X17728099Y24399500D01*
X17728102Y24399500D01*
X17816564Y24410123D01*
X17957342Y24465639D01*
X18077922Y24557078D01*
X18169361Y24677658D01*
X18224877Y24818436D01*
X18235500Y24906898D01*
X18235500Y25015055D01*
X19564547Y25015055D01*
X19574827Y24944489D01*
X19628032Y24835656D01*
X19628035Y24835652D01*
X19713698Y24749989D01*
X19713700Y24749988D01*
X19822538Y24696780D01*
X19893098Y24686500D01*
X20663547Y24686501D01*
X20731668Y24666499D01*
X20778161Y24612843D01*
X20789547Y24560501D01*
X20789547Y23790055D01*
X20799827Y23719489D01*
X20853032Y23610656D01*
X20853035Y23610652D01*
X20938698Y23524989D01*
X20938700Y23524988D01*
X21047538Y23471780D01*
X21118098Y23461500D01*
X21311995Y23461501D01*
X21382556Y23471780D01*
X21409708Y23485055D01*
X21479691Y23497003D01*
X21520384Y23485055D01*
X21547538Y23471780D01*
X21618098Y23461500D01*
X21811995Y23461501D01*
X21882556Y23471780D01*
X21909708Y23485055D01*
X21979691Y23497003D01*
X22020384Y23485055D01*
X22047538Y23471780D01*
X22118098Y23461500D01*
X22311995Y23461501D01*
X22382556Y23471780D01*
X22409708Y23485055D01*
X22479691Y23497003D01*
X22520384Y23485055D01*
X22547538Y23471780D01*
X22618098Y23461500D01*
X22811995Y23461501D01*
X22882556Y23471780D01*
X22909708Y23485055D01*
X22979691Y23497003D01*
X23020384Y23485055D01*
X23047538Y23471780D01*
X23118098Y23461500D01*
X23311995Y23461501D01*
X23382556Y23471780D01*
X23428648Y23494313D01*
X23491391Y23524986D01*
X23491395Y23524989D01*
X23577058Y23610652D01*
X23577059Y23610653D01*
X23630267Y23719491D01*
X23640547Y23790051D01*
X23640547Y24077406D01*
X31474547Y24077406D01*
X31484567Y23993965D01*
X31536931Y23861181D01*
X31536932Y23861179D01*
X31623180Y23747444D01*
X31736915Y23661196D01*
X31736919Y23661195D01*
X31736923Y23661192D01*
X31744767Y23658099D01*
X31800802Y23614503D01*
X31824371Y23547533D01*
X31824547Y23540883D01*
X31824547Y22108873D01*
X31824474Y22104572D01*
X31822285Y22040484D01*
X31831988Y22000665D01*
X31834396Y21987992D01*
X31839975Y21947398D01*
X31839978Y21947387D01*
X31847056Y21931093D01*
X31853905Y21910729D01*
X31858114Y21893459D01*
X31878201Y21857732D01*
X31883937Y21846183D01*
X31895884Y21818681D01*
X31900267Y21808591D01*
X31900269Y21808589D01*
X31911479Y21794809D01*
X31923566Y21777051D01*
X31932281Y21761552D01*
X31961264Y21732569D01*
X31969901Y21722998D01*
X31995765Y21691207D01*
X31995770Y21691201D01*
X32010289Y21680953D01*
X32026723Y21667110D01*
X32581142Y21112691D01*
X32615168Y21050379D01*
X32618047Y21023596D01*
X32618047Y20918895D01*
X32628669Y20830436D01*
X32684185Y20689659D01*
X32684188Y20689655D01*
X32775624Y20569078D01*
X32896201Y20477642D01*
X32896205Y20477639D01*
X33036982Y20422123D01*
X33036981Y20422123D01*
X33064941Y20418766D01*
X33125445Y20411500D01*
X33125448Y20411500D01*
X33736646Y20411500D01*
X33736649Y20411500D01*
X33825111Y20422123D01*
X33965889Y20477639D01*
X34086469Y20569078D01*
X34177908Y20689658D01*
X34226332Y20812452D01*
X34269930Y20868485D01*
X34336901Y20892053D01*
X34405982Y20875672D01*
X34455240Y20824543D01*
X34460762Y20812452D01*
X34509185Y20689659D01*
X34509188Y20689655D01*
X34600624Y20569078D01*
X34721201Y20477642D01*
X34721205Y20477639D01*
X34861982Y20422123D01*
X34861981Y20422123D01*
X34889941Y20418766D01*
X34950445Y20411500D01*
X34950448Y20411500D01*
X35561646Y20411500D01*
X35561649Y20411500D01*
X35650111Y20422123D01*
X35790889Y20477639D01*
X35911469Y20569078D01*
X36002908Y20689658D01*
X36058424Y20830436D01*
X36069047Y20918898D01*
X36069047Y21905102D01*
X36058424Y21993564D01*
X36058095Y21994398D01*
X36002908Y22134342D01*
X36002905Y22134346D01*
X35911469Y22254923D01*
X35790892Y22346359D01*
X35790888Y22346362D01*
X35650111Y22401878D01*
X35650112Y22401878D01*
X35561652Y22412500D01*
X35561649Y22412500D01*
X34950445Y22412500D01*
X34950441Y22412500D01*
X34861982Y22401878D01*
X34721205Y22346362D01*
X34721201Y22346359D01*
X34600624Y22254923D01*
X34509188Y22134346D01*
X34509185Y22134342D01*
X34460762Y22011549D01*
X34417164Y21955516D01*
X34350193Y21931948D01*
X34281112Y21948330D01*
X34231854Y21999458D01*
X34226332Y22011549D01*
X34177908Y22134342D01*
X34177905Y22134346D01*
X34086469Y22254923D01*
X33965892Y22346359D01*
X33965888Y22346362D01*
X33825111Y22401878D01*
X33825112Y22401878D01*
X33736652Y22412500D01*
X33736649Y22412500D01*
X33125445Y22412500D01*
X33125436Y22412500D01*
X33066568Y22405431D01*
X32996548Y22417169D01*
X32943991Y22464900D01*
X32925547Y22530532D01*
X32925547Y23540883D01*
X32945549Y23609004D01*
X32999205Y23655497D01*
X33005327Y23658099D01*
X33013170Y23661192D01*
X33013171Y23661194D01*
X33013179Y23661196D01*
X33126914Y23747444D01*
X33213162Y23861179D01*
X33265526Y23993965D01*
X33275547Y24077409D01*
X33275547Y24596213D01*
X33266924Y24668015D01*
X33265526Y24679658D01*
X33237791Y24749989D01*
X33213162Y24812443D01*
X33126914Y24926178D01*
X33013179Y25012426D01*
X33013176Y25012427D01*
X33013177Y25012427D01*
X32880393Y25064791D01*
X32880394Y25064791D01*
X32796952Y25074811D01*
X32796949Y25074811D01*
X31953145Y25074811D01*
X31953141Y25074811D01*
X31869700Y25064791D01*
X31736916Y25012427D01*
X31623180Y24926178D01*
X31536931Y24812442D01*
X31484567Y24679658D01*
X31474547Y24596217D01*
X31474547Y24077406D01*
X23640547Y24077406D01*
X23640546Y24560502D01*
X23660548Y24628622D01*
X23714204Y24675115D01*
X23766541Y24686501D01*
X24536995Y24686501D01*
X24607556Y24696780D01*
X24632174Y24708815D01*
X24716391Y24749986D01*
X24716395Y24749989D01*
X24802058Y24835652D01*
X24802059Y24835653D01*
X24855267Y24944491D01*
X24865547Y25015051D01*
X24865546Y25208948D01*
X24855267Y25279509D01*
X24841992Y25306664D01*
X24830044Y25376644D01*
X24841993Y25417340D01*
X24855267Y25444491D01*
X24865547Y25515051D01*
X24865546Y25708948D01*
X24855267Y25779509D01*
X24841992Y25806664D01*
X24830044Y25876644D01*
X24841993Y25917340D01*
X24843268Y25919948D01*
X24855267Y25944491D01*
X24865547Y26015051D01*
X24865547Y26061206D01*
X28809547Y26061206D01*
X28820169Y25972747D01*
X28875685Y25831970D01*
X28875688Y25831966D01*
X28967124Y25711389D01*
X29087701Y25619953D01*
X29087705Y25619950D01*
X29228482Y25564434D01*
X29228481Y25564434D01*
X29249351Y25561928D01*
X29316945Y25553811D01*
X29316948Y25553811D01*
X30353146Y25553811D01*
X30353149Y25553811D01*
X30441611Y25564434D01*
X30524760Y25597224D01*
X30562922Y25612273D01*
X30609146Y25621058D01*
X32417613Y25621058D01*
X32512941Y25632201D01*
X32544718Y25635915D01*
X32705241Y25694340D01*
X32718532Y25703083D01*
X32786437Y25723804D01*
X32787771Y25723811D01*
X32796948Y25723811D01*
X32796949Y25723811D01*
X32880393Y25733832D01*
X33013179Y25786196D01*
X33126914Y25872444D01*
X33155150Y25909679D01*
X33212247Y25951871D01*
X33283093Y25956497D01*
X33345193Y25922086D01*
X33378831Y25859564D01*
X33381547Y25833545D01*
X33381547Y25649806D01*
X33392169Y25561347D01*
X33447685Y25420570D01*
X33447688Y25420566D01*
X33539124Y25299989D01*
X33659701Y25208553D01*
X33659705Y25208550D01*
X33800482Y25153034D01*
X33800481Y25153034D01*
X33828441Y25149677D01*
X33888945Y25142411D01*
X33888948Y25142411D01*
X34925146Y25142411D01*
X34925149Y25142411D01*
X35013611Y25153034D01*
X35154389Y25208550D01*
X35274969Y25299989D01*
X35366408Y25420569D01*
X35421924Y25561347D01*
X35432547Y25649809D01*
X35432547Y26236013D01*
X35421924Y26324475D01*
X35418026Y26334359D01*
X35366408Y26465253D01*
X35366405Y26465257D01*
X35274969Y26585834D01*
X35187666Y26652038D01*
X35145473Y26709137D01*
X35137800Y26752435D01*
X35137800Y27281709D01*
X35157802Y27349830D01*
X35211458Y27396323D01*
X35281732Y27406427D01*
X35339930Y27382109D01*
X35408915Y27329796D01*
X35457760Y27310534D01*
X35541700Y27277432D01*
X35541699Y27277432D01*
X35565116Y27274620D01*
X35625145Y27267411D01*
X35625146Y27267411D01*
X36143948Y27267411D01*
X36143949Y27267411D01*
X36227393Y27277432D01*
X36360179Y27329796D01*
X36473914Y27416044D01*
X36560162Y27529779D01*
X36612526Y27662565D01*
X36622547Y27746009D01*
X36622547Y27760372D01*
X36639428Y27823372D01*
X36647528Y27837402D01*
X36670104Y27876504D01*
X36719098Y28040153D01*
X36724047Y28125132D01*
X37165064Y28125132D01*
X37194727Y27956900D01*
X37224360Y27888205D01*
X37261242Y27802703D01*
X37271547Y27752798D01*
X37271547Y27746006D01*
X37281567Y27662565D01*
X37333931Y27529781D01*
X37333932Y27529779D01*
X37420180Y27416044D01*
X37533915Y27329796D01*
X37582760Y27310534D01*
X37666700Y27277432D01*
X37666699Y27277432D01*
X37690116Y27274620D01*
X37750145Y27267411D01*
X37750146Y27267411D01*
X38268948Y27267411D01*
X38268949Y27267411D01*
X38352393Y27277432D01*
X38485179Y27329796D01*
X38554162Y27382109D01*
X38620525Y27407330D01*
X38689992Y27392669D01*
X38740505Y27342780D01*
X38756294Y27281709D01*
X38756294Y26752435D01*
X38736292Y26684314D01*
X38706428Y26652038D01*
X38619124Y26585834D01*
X38527688Y26465257D01*
X38527685Y26465253D01*
X38472169Y26324476D01*
X38461547Y26236017D01*
X38461547Y25649806D01*
X38472169Y25561347D01*
X38527685Y25420570D01*
X38527688Y25420566D01*
X38619124Y25299989D01*
X38739701Y25208553D01*
X38739705Y25208550D01*
X38880482Y25153034D01*
X38880481Y25153034D01*
X38908441Y25149677D01*
X38968945Y25142411D01*
X38968948Y25142411D01*
X40005146Y25142411D01*
X40005149Y25142411D01*
X40093611Y25153034D01*
X40234389Y25208550D01*
X40354969Y25299989D01*
X40446408Y25420569D01*
X40501924Y25561347D01*
X40512547Y25649809D01*
X40512547Y26236013D01*
X40501924Y26324475D01*
X40498026Y26334359D01*
X40446408Y26465253D01*
X40446405Y26465257D01*
X40354969Y26585834D01*
X40267666Y26652038D01*
X40225473Y26709137D01*
X40217800Y26752435D01*
X40217800Y27303326D01*
X40237802Y27371447D01*
X40267666Y27403724D01*
X40283914Y27416044D01*
X40370162Y27529779D01*
X40422526Y27662565D01*
X40432547Y27746009D01*
X40432547Y27757619D01*
X40444350Y27810865D01*
X40451038Y27825208D01*
X40456101Y27834932D01*
X40480104Y27876504D01*
X40486697Y27898528D01*
X40493208Y27915641D01*
X40502932Y27936491D01*
X40512639Y27983509D01*
X40515330Y27994168D01*
X40529098Y28040153D01*
X40530435Y28063123D01*
X40532823Y28081262D01*
X40537475Y28103789D01*
X40536854Y28125132D01*
X40975064Y28125132D01*
X41004727Y27956900D01*
X41034360Y27888205D01*
X41071242Y27802703D01*
X41081547Y27752798D01*
X41081547Y27746006D01*
X41091567Y27662565D01*
X41143931Y27529781D01*
X41143932Y27529779D01*
X41230180Y27416044D01*
X41343915Y27329796D01*
X41392760Y27310534D01*
X41476700Y27277432D01*
X41476699Y27277432D01*
X41500116Y27274620D01*
X41560145Y27267411D01*
X41560146Y27267411D01*
X42078948Y27267411D01*
X42078949Y27267411D01*
X42162393Y27277432D01*
X42295179Y27329796D01*
X42364162Y27382109D01*
X42430525Y27407330D01*
X42499992Y27392669D01*
X42550505Y27342780D01*
X42566294Y27281709D01*
X42566294Y26752435D01*
X42546292Y26684314D01*
X42516428Y26652038D01*
X42429124Y26585834D01*
X42337688Y26465257D01*
X42337685Y26465253D01*
X42282169Y26324476D01*
X42271547Y26236017D01*
X42271547Y25649806D01*
X42282169Y25561347D01*
X42337685Y25420570D01*
X42337688Y25420566D01*
X42429124Y25299989D01*
X42549701Y25208553D01*
X42549705Y25208550D01*
X42690482Y25153034D01*
X42690481Y25153034D01*
X42718441Y25149677D01*
X42778945Y25142411D01*
X42778948Y25142411D01*
X43815146Y25142411D01*
X43815149Y25142411D01*
X43903611Y25153034D01*
X44044389Y25208550D01*
X44164969Y25299989D01*
X44256408Y25420569D01*
X44311924Y25561347D01*
X44322547Y25649809D01*
X44322547Y26236013D01*
X44311924Y26324475D01*
X44308026Y26334359D01*
X44256408Y26465253D01*
X44256405Y26465257D01*
X44164969Y26585834D01*
X44077666Y26652038D01*
X44035473Y26709137D01*
X44027800Y26752435D01*
X44027800Y27170139D01*
X44047802Y27238260D01*
X44077663Y27270533D01*
X44182969Y27350389D01*
X44274408Y27470969D01*
X44322832Y27593763D01*
X44366430Y27649796D01*
X44433401Y27673364D01*
X44502482Y27656983D01*
X44551740Y27605854D01*
X44557262Y27593763D01*
X44605685Y27470970D01*
X44605688Y27470966D01*
X44697124Y27350389D01*
X44817701Y27258953D01*
X44817705Y27258950D01*
X44965999Y27200470D01*
X44964737Y27197273D01*
X45012297Y27169230D01*
X45034821Y27134091D01*
X45035281Y27134310D01*
X45036863Y27130998D01*
X45037667Y27129541D01*
X45042961Y27118752D01*
X45054821Y27091349D01*
X45060639Y27077908D01*
X45076495Y27056664D01*
X45085856Y27042139D01*
X45098653Y27018930D01*
X45098653Y27018929D01*
X45128559Y26985951D01*
X45136194Y26976679D01*
X45162661Y26941218D01*
X45347728Y26693263D01*
X45354739Y26682819D01*
X45376678Y26646326D01*
X45376687Y26646314D01*
X45431439Y26590299D01*
X45432876Y26588805D01*
X45482058Y26536803D01*
X45486743Y26531850D01*
X45491956Y26527486D01*
X45501185Y26518943D01*
X45750321Y26264059D01*
X45754971Y26259035D01*
X45775149Y26236013D01*
X45795916Y26212319D01*
X45843843Y26178217D01*
X45850063Y26173495D01*
X45895810Y26136467D01*
X45901674Y26133651D01*
X45906731Y26131222D01*
X45925234Y26120304D01*
X46243384Y25893927D01*
X46248683Y25889943D01*
X46297913Y25850856D01*
X46350549Y25826184D01*
X46357653Y25822573D01*
X46408609Y25794598D01*
X46421003Y25791177D01*
X46440944Y25783811D01*
X46716914Y25654449D01*
X46735075Y25644013D01*
X46746524Y25636098D01*
X46746525Y25636098D01*
X46746526Y25636097D01*
X46799670Y25615353D01*
X46807336Y25612064D01*
X46820183Y25606042D01*
X46820192Y25606038D01*
X46840167Y25599375D01*
X46846114Y25597224D01*
X46875527Y25585744D01*
X46905657Y25573982D01*
X46912585Y25573010D01*
X46934951Y25567757D01*
X46941586Y25565543D01*
X47005247Y25559846D01*
X47011496Y25559129D01*
X47370154Y25508790D01*
X47385949Y25505530D01*
X47415310Y25497480D01*
X47455874Y25496066D01*
X47463062Y25495435D01*
X47463071Y25495533D01*
X47466721Y25495236D01*
X47466723Y25495236D01*
X47466730Y25495235D01*
X47504497Y25494364D01*
X47505567Y25494332D01*
X47593595Y25491261D01*
X47660977Y25468896D01*
X47705570Y25413652D01*
X47713217Y25343068D01*
X47681490Y25279555D01*
X47633234Y25247282D01*
X47476232Y25188724D01*
X47242971Y25061354D01*
X47128160Y24975409D01*
X47128159Y24975408D01*
X47854969Y24248598D01*
X47732616Y24174980D01*
X47598389Y24047834D01*
X47494634Y23894806D01*
X47493411Y23891738D01*
X46768950Y24616199D01*
X46768949Y24616198D01*
X46683004Y24501387D01*
X46555634Y24268126D01*
X46462754Y24019105D01*
X46406260Y23759404D01*
X46387301Y23494311D01*
X46406260Y23229219D01*
X46462754Y22969518D01*
X46555634Y22720497D01*
X46683005Y22487235D01*
X46768950Y22372426D01*
X46768950Y22372425D01*
X47496853Y23100329D01*
X47542363Y23014489D01*
X47662056Y22873576D01*
X47809242Y22761688D01*
X47855317Y22740372D01*
X47128160Y22013215D01*
X47242966Y21927272D01*
X47476232Y21799899D01*
X47725253Y21707019D01*
X47984954Y21650525D01*
X48250047Y21631566D01*
X48515139Y21650525D01*
X48774840Y21707019D01*
X49023861Y21799899D01*
X49257128Y21927272D01*
X49304394Y21962655D01*
X49370914Y21987467D01*
X49440288Y21972376D01*
X49490491Y21922175D01*
X49505583Y21852801D01*
X49487337Y21795954D01*
X49404271Y21660403D01*
X49310874Y21434921D01*
X49253901Y21197614D01*
X49248334Y21126871D01*
X49234753Y20954311D01*
X49253901Y20711009D01*
X49310875Y20473699D01*
X49404270Y20248222D01*
X49450818Y20172262D01*
X49487337Y20112670D01*
X49505875Y20044136D01*
X49484419Y19976460D01*
X49429779Y19931127D01*
X49359305Y19922530D01*
X49304395Y19945967D01*
X49257127Y19981351D01*
X49023861Y20108724D01*
X48774840Y20201604D01*
X48515139Y20258098D01*
X48250047Y20277057D01*
X47984954Y20258098D01*
X47725253Y20201604D01*
X47476232Y20108724D01*
X47242971Y19981354D01*
X47128160Y19895409D01*
X47128159Y19895408D01*
X47854969Y19168598D01*
X47732616Y19094980D01*
X47598389Y18967834D01*
X47494634Y18814806D01*
X47493411Y18811738D01*
X46768950Y19536199D01*
X46768949Y19536198D01*
X46683004Y19421387D01*
X46555634Y19188126D01*
X46462754Y18939105D01*
X46406260Y18679404D01*
X46387301Y18414311D01*
X46406260Y18149219D01*
X46462754Y17889518D01*
X46555634Y17640497D01*
X46683005Y17407235D01*
X46768950Y17292426D01*
X46768950Y17292425D01*
X47496853Y18020329D01*
X47542363Y17934489D01*
X47662056Y17793576D01*
X47809242Y17681688D01*
X47855316Y17660372D01*
X47128159Y16933216D01*
X47128160Y16933215D01*
X47242966Y16847272D01*
X47476232Y16719899D01*
X47725253Y16627019D01*
X47984954Y16570525D01*
X48250047Y16551566D01*
X48515139Y16570525D01*
X48774840Y16627019D01*
X49023861Y16719899D01*
X49257123Y16847269D01*
X49371932Y16933216D01*
X49371933Y16933216D01*
X48645124Y17660025D01*
X48767478Y17733642D01*
X48901705Y17860788D01*
X49005460Y18013816D01*
X49006682Y18016885D01*
X49731142Y17292425D01*
X49731142Y17292426D01*
X49817089Y17407235D01*
X49944459Y17640497D01*
X50037339Y17889518D01*
X50093833Y18149219D01*
X50112792Y18414311D01*
X50093833Y18679404D01*
X50037339Y18939105D01*
X49944459Y19188126D01*
X49817086Y19421392D01*
X49781702Y19468660D01*
X49756891Y19535180D01*
X49771982Y19604554D01*
X49822184Y19654756D01*
X49891558Y19669848D01*
X49948402Y19651603D01*
X50083958Y19568534D01*
X50309435Y19475139D01*
X50546745Y19418165D01*
X50790047Y19399017D01*
X51033349Y19418165D01*
X51270659Y19475139D01*
X51496136Y19568534D01*
X51631689Y19651602D01*
X51700221Y19670140D01*
X51767898Y19648684D01*
X51813231Y19594045D01*
X51821828Y19523571D01*
X51798392Y19468661D01*
X51763006Y19421391D01*
X51635634Y19188126D01*
X51542754Y18939105D01*
X51486260Y18679404D01*
X51467301Y18414311D01*
X51486260Y18149219D01*
X51542754Y17889518D01*
X51635634Y17640497D01*
X51763005Y17407235D01*
X51848950Y17292426D01*
X51848950Y17292425D01*
X52576853Y18020329D01*
X52622363Y17934489D01*
X52742056Y17793576D01*
X52889242Y17681688D01*
X52935316Y17660372D01*
X52208159Y16933216D01*
X52208160Y16933215D01*
X52322966Y16847272D01*
X52556232Y16719899D01*
X52805253Y16627019D01*
X53064954Y16570525D01*
X53330047Y16551566D01*
X53595139Y16570525D01*
X53854840Y16627019D01*
X54103861Y16719899D01*
X54337123Y16847269D01*
X54451932Y16933216D01*
X54451933Y16933216D01*
X53725124Y17660025D01*
X53847478Y17733642D01*
X53981705Y17860788D01*
X54085460Y18013816D01*
X54086682Y18016885D01*
X54811142Y17292425D01*
X54811142Y17292426D01*
X54897089Y17407235D01*
X55024459Y17640497D01*
X55117339Y17889518D01*
X55173833Y18149219D01*
X55192792Y18414311D01*
X55173833Y18679404D01*
X55117339Y18939105D01*
X55024459Y19188126D01*
X54897086Y19421392D01*
X54811143Y19536198D01*
X54811142Y19536199D01*
X54083239Y18808296D01*
X54037731Y18894133D01*
X53918038Y19035046D01*
X53770852Y19146934D01*
X53724776Y19168252D01*
X54451933Y19895408D01*
X54337123Y19981353D01*
X54103861Y20108724D01*
X53854840Y20201604D01*
X53595139Y20258098D01*
X53330047Y20277057D01*
X53064954Y20258098D01*
X52805253Y20201604D01*
X52556232Y20108724D01*
X52322967Y19981352D01*
X52275697Y19945966D01*
X52209176Y19921156D01*
X52139803Y19936248D01*
X52089601Y19986451D01*
X52074510Y20055825D01*
X52092757Y20112670D01*
X52129276Y20172262D01*
X52175824Y20248222D01*
X52269219Y20473699D01*
X52326193Y20711009D01*
X52345341Y20954311D01*
X52326193Y21197613D01*
X52269219Y21434923D01*
X52175824Y21660400D01*
X52092755Y21795956D01*
X52074218Y21864486D01*
X52095674Y21932163D01*
X52150313Y21977496D01*
X52220788Y21986093D01*
X52275698Y21962656D01*
X52322966Y21927272D01*
X52556232Y21799899D01*
X52805253Y21707019D01*
X53064954Y21650525D01*
X53330047Y21631566D01*
X53595139Y21650525D01*
X53854840Y21707019D01*
X54103861Y21799899D01*
X54337123Y21927269D01*
X54451932Y22013216D01*
X54451933Y22013216D01*
X53725124Y22740025D01*
X53847478Y22813642D01*
X53981705Y22940788D01*
X54085460Y23093816D01*
X54086682Y23096885D01*
X54811142Y22372425D01*
X54811142Y22372426D01*
X54897089Y22487235D01*
X55024459Y22720497D01*
X55117339Y22969518D01*
X55173833Y23229219D01*
X55192792Y23494311D01*
X55173833Y23759404D01*
X55117339Y24019105D01*
X55024459Y24268126D01*
X54897086Y24501392D01*
X54811143Y24616198D01*
X54811142Y24616199D01*
X54083239Y23888296D01*
X54037731Y23974133D01*
X53918038Y24115046D01*
X53770852Y24226934D01*
X53724776Y24248251D01*
X54451933Y24975408D01*
X54337123Y25061353D01*
X54103861Y25188724D01*
X53854840Y25281604D01*
X53595139Y25338098D01*
X53330047Y25357057D01*
X53064954Y25338098D01*
X52805253Y25281604D01*
X52556232Y25188724D01*
X52322971Y25061354D01*
X52208160Y24975409D01*
X52208159Y24975408D01*
X52934969Y24248598D01*
X52812616Y24174980D01*
X52678389Y24047834D01*
X52574634Y23894806D01*
X52573411Y23891738D01*
X51848950Y24616199D01*
X51848949Y24616198D01*
X51763004Y24501387D01*
X51735799Y24451565D01*
X51685596Y24401364D01*
X51616222Y24386273D01*
X51549702Y24411085D01*
X51507156Y24467921D01*
X51501403Y24495893D01*
X51500705Y24495776D01*
X51493594Y24538442D01*
X51486135Y24583197D01*
X51485948Y24584356D01*
X51481481Y24612843D01*
X51473345Y24664724D01*
X51473340Y24664735D01*
X51473172Y24665341D01*
X51470258Y24678460D01*
X51426108Y24943354D01*
X51425057Y24959818D01*
X51425001Y24959813D01*
X51424421Y24967126D01*
X51424422Y24967133D01*
X51410352Y25038240D01*
X51409671Y25041983D01*
X51408026Y25051852D01*
X51404800Y25071210D01*
X51403236Y25076615D01*
X51400676Y25087147D01*
X51391266Y25134710D01*
X51381914Y25155206D01*
X51375511Y25172489D01*
X51369249Y25194146D01*
X51345392Y25236378D01*
X51340474Y25246035D01*
X51298470Y25338098D01*
X51206584Y25539492D01*
X51201316Y25555043D01*
X51201250Y25555019D01*
X51198796Y25561920D01*
X51198795Y25561928D01*
X51197013Y25565543D01*
X51166681Y25627087D01*
X51165107Y25630402D01*
X51152725Y25657541D01*
X51149886Y25662230D01*
X51144649Y25671789D01*
X51126335Y25708948D01*
X51123276Y25715155D01*
X51108837Y25732628D01*
X51098180Y25747633D01*
X51086447Y25767014D01*
X51052551Y25801478D01*
X51045258Y25809564D01*
X50938099Y25939235D01*
X50798272Y26108438D01*
X50789646Y26120203D01*
X50770241Y26150167D01*
X50745865Y26173493D01*
X50708653Y26209103D01*
X50708615Y26209138D01*
X50705294Y26212319D01*
X50647070Y26268081D01*
X50647067Y26268083D01*
X50647065Y26268085D01*
X50646905Y26268206D01*
X50646819Y26268271D01*
X50573563Y26311260D01*
X50499777Y26354602D01*
X50493897Y26358056D01*
X50493283Y26358371D01*
X50211314Y26523837D01*
X50194007Y26536059D01*
X50183961Y26544504D01*
X50155994Y26558580D01*
X50132293Y26570510D01*
X50125195Y26574374D01*
X50112264Y26581962D01*
X50093691Y26590131D01*
X50087774Y26592919D01*
X50031378Y26621304D01*
X50031369Y26621307D01*
X50023796Y26623109D01*
X50002241Y26630347D01*
X49995120Y26633479D01*
X49995115Y26633480D01*
X49933011Y26644886D01*
X49926605Y26646235D01*
X49195032Y26820307D01*
X49184385Y26823341D01*
X49161282Y26831037D01*
X49139125Y26838419D01*
X49066127Y26844924D01*
X49062575Y26845292D01*
X49001041Y26852539D01*
X48989840Y26853858D01*
X48989839Y26853858D01*
X48982496Y26853865D01*
X48982496Y26854008D01*
X48966557Y26853797D01*
X48104340Y26930628D01*
X48082211Y26934614D01*
X48073865Y26936902D01*
X48011638Y26939074D01*
X48004859Y26939494D01*
X47985508Y26941217D01*
X47985498Y26941218D01*
X47985492Y26941218D01*
X47985488Y26941218D01*
X47985486Y26941218D01*
X47969628Y26940783D01*
X47961784Y26940813D01*
X47596433Y26953557D01*
X47583313Y26954703D01*
X47321123Y26991503D01*
X47285158Y27002191D01*
X47267451Y27010491D01*
X47123620Y27077912D01*
X47065606Y27105106D01*
X47046036Y27116530D01*
X46775251Y27309204D01*
X46758194Y27323794D01*
X46521373Y27566079D01*
X46510504Y27578787D01*
X46377028Y27757619D01*
X46348309Y27796098D01*
X46332630Y27823844D01*
X46196539Y28157268D01*
X46174890Y28210308D01*
X46165547Y28257923D01*
X46165547Y28686410D01*
X46165547Y28686413D01*
X46154924Y28774875D01*
X46154221Y28776657D01*
X46099408Y28915653D01*
X46099405Y28915657D01*
X46007969Y29036234D01*
X45887392Y29127670D01*
X45887388Y29127673D01*
X45746611Y29183189D01*
X45746612Y29183189D01*
X45658152Y29193811D01*
X45658149Y29193811D01*
X45046945Y29193811D01*
X45046941Y29193811D01*
X44958482Y29183189D01*
X44817705Y29127673D01*
X44817701Y29127670D01*
X44697124Y29036234D01*
X44605688Y28915657D01*
X44605685Y28915653D01*
X44557262Y28792860D01*
X44513664Y28736827D01*
X44446693Y28713259D01*
X44377612Y28729641D01*
X44328354Y28780769D01*
X44322832Y28792860D01*
X44274408Y28915653D01*
X44274405Y28915657D01*
X44182969Y29036234D01*
X44062392Y29127670D01*
X44062388Y29127673D01*
X43921611Y29183189D01*
X43921612Y29183189D01*
X43833152Y29193811D01*
X43833149Y29193811D01*
X43221945Y29193811D01*
X43221941Y29193811D01*
X43133482Y29183189D01*
X42992705Y29127673D01*
X42992701Y29127670D01*
X42872124Y29036234D01*
X42805617Y28948530D01*
X42748518Y28906337D01*
X42705220Y28898664D01*
X42479129Y28898664D01*
X42411008Y28918666D01*
X42402996Y28924266D01*
X42318066Y28988670D01*
X42295179Y29006026D01*
X42295177Y29006027D01*
X42162393Y29058391D01*
X42162394Y29058391D01*
X42078952Y29068411D01*
X42078949Y29068411D01*
X41560145Y29068411D01*
X41560141Y29068411D01*
X41476700Y29058391D01*
X41343916Y29006027D01*
X41230180Y28919778D01*
X41143931Y28806042D01*
X41091567Y28673258D01*
X41081547Y28589817D01*
X41081547Y28575451D01*
X41064667Y28512452D01*
X41033989Y28459317D01*
X40984996Y28295668D01*
X40975064Y28125138D01*
X40975064Y28125132D01*
X40536854Y28125132D01*
X40536078Y28151772D01*
X40536238Y28162764D01*
X40539030Y28210690D01*
X40539029Y28210693D01*
X40535036Y28233338D01*
X40533174Y28251557D01*
X40532989Y28257923D01*
X40532506Y28274541D01*
X40520075Y28320931D01*
X40517708Y28331607D01*
X40509367Y28378920D01*
X40500252Y28400051D01*
X40494247Y28417327D01*
X40488294Y28439546D01*
X40465507Y28481808D01*
X40460720Y28491696D01*
X40442851Y28533123D01*
X40432547Y28583027D01*
X40432547Y28589812D01*
X40432547Y28589813D01*
X40422526Y28673257D01*
X40418085Y28684518D01*
X40391387Y28752220D01*
X40370162Y28806043D01*
X40283914Y28919778D01*
X40170179Y29006026D01*
X40170176Y29006027D01*
X40170177Y29006027D01*
X40037393Y29058391D01*
X40037394Y29058391D01*
X39953952Y29068411D01*
X39953949Y29068411D01*
X39435145Y29068411D01*
X39435141Y29068411D01*
X39351700Y29058391D01*
X39218916Y29006027D01*
X39218913Y29006025D01*
X39111098Y28924266D01*
X39044733Y28899043D01*
X39034965Y28898664D01*
X38669129Y28898664D01*
X38601008Y28918666D01*
X38592996Y28924266D01*
X38508066Y28988670D01*
X38485179Y29006026D01*
X38485177Y29006027D01*
X38352393Y29058391D01*
X38352394Y29058391D01*
X38268952Y29068411D01*
X38268949Y29068411D01*
X37750145Y29068411D01*
X37750141Y29068411D01*
X37666700Y29058391D01*
X37533916Y29006027D01*
X37420180Y28919778D01*
X37333931Y28806042D01*
X37281567Y28673258D01*
X37271547Y28589817D01*
X37271547Y28575451D01*
X37254667Y28512452D01*
X37223989Y28459317D01*
X37174996Y28295668D01*
X37165064Y28125138D01*
X37165064Y28125132D01*
X36724047Y28125132D01*
X36729030Y28210690D01*
X36699367Y28378920D01*
X36690363Y28399794D01*
X36632852Y28533120D01*
X36622547Y28583026D01*
X36622547Y28589812D01*
X36622547Y28589813D01*
X36612526Y28673257D01*
X36608085Y28684518D01*
X36581387Y28752220D01*
X36560162Y28806043D01*
X36473914Y28919778D01*
X36360179Y29006026D01*
X36360176Y29006027D01*
X36360177Y29006027D01*
X36227393Y29058391D01*
X36227394Y29058391D01*
X36143952Y29068411D01*
X36143949Y29068411D01*
X35625145Y29068411D01*
X35625141Y29068411D01*
X35541700Y29058391D01*
X35408916Y29006027D01*
X35408913Y29006025D01*
X35301098Y28924266D01*
X35234733Y28899043D01*
X35224965Y28898664D01*
X34859129Y28898664D01*
X34791008Y28918666D01*
X34782996Y28924266D01*
X34698066Y28988670D01*
X34675179Y29006026D01*
X34675177Y29006027D01*
X34542393Y29058391D01*
X34542394Y29058391D01*
X34458952Y29068411D01*
X34458949Y29068411D01*
X33940145Y29068411D01*
X33940141Y29068411D01*
X33856700Y29058391D01*
X33723916Y29006027D01*
X33610180Y28919778D01*
X33523931Y28806042D01*
X33471567Y28673258D01*
X33461547Y28589817D01*
X33461547Y28584792D01*
X33443821Y28524426D01*
X33445443Y28523551D01*
X33441958Y28517089D01*
X33433461Y28495703D01*
X33425489Y28479237D01*
X33413988Y28459316D01*
X33400219Y28413325D01*
X33396612Y28402949D01*
X33378888Y28358334D01*
X33378887Y28358327D01*
X33375553Y28335572D01*
X33371592Y28317707D01*
X33364996Y28295673D01*
X33362204Y28247744D01*
X33361087Y28236815D01*
X33354130Y28189315D01*
X33354130Y28189304D01*
X33356134Y28166388D01*
X33356400Y28148094D01*
X33355064Y28125136D01*
X33355064Y28125132D01*
X33363400Y28077849D01*
X33364834Y28066955D01*
X33369017Y28019141D01*
X33369019Y28019131D01*
X33376250Y27997312D01*
X33380732Y27979558D01*
X33384726Y27956904D01*
X33384727Y27956902D01*
X33403745Y27912811D01*
X33407653Y27902541D01*
X33422750Y27856980D01*
X33434826Y27837402D01*
X33443278Y27821166D01*
X33448627Y27808765D01*
X33451241Y27802707D01*
X33461547Y27752798D01*
X33461547Y27746006D01*
X33471567Y27662565D01*
X33523931Y27529781D01*
X33523932Y27529779D01*
X33610180Y27416044D01*
X33626426Y27403724D01*
X33668620Y27346627D01*
X33676294Y27303326D01*
X33676294Y26752435D01*
X33656292Y26684314D01*
X33626428Y26652038D01*
X33539126Y26585835D01*
X33501944Y26536803D01*
X33444845Y26494611D01*
X33373999Y26489986D01*
X33311899Y26524398D01*
X33278262Y26586921D01*
X33275547Y26612938D01*
X33275547Y26721212D01*
X33275547Y26721213D01*
X33265526Y26804657D01*
X33264736Y26806660D01*
X33221091Y26917336D01*
X33213162Y26937443D01*
X33126914Y27051178D01*
X33013179Y27137426D01*
X33013176Y27137427D01*
X33013177Y27137427D01*
X32880393Y27189791D01*
X32880394Y27189791D01*
X32796952Y27199811D01*
X32796949Y27199811D01*
X32751872Y27199811D01*
X32683751Y27219813D01*
X32637258Y27273469D01*
X32627154Y27343743D01*
X32656648Y27408323D01*
X32662777Y27414906D01*
X32663908Y27416038D01*
X32663910Y27416042D01*
X32663914Y27416044D01*
X32750162Y27529779D01*
X32802526Y27662565D01*
X32812547Y27746009D01*
X32812547Y27751032D01*
X32830273Y27811403D01*
X32828653Y27812276D01*
X32832131Y27818728D01*
X32832136Y27818734D01*
X32895206Y27977490D01*
X32919964Y28146512D01*
X32905076Y28316688D01*
X32905075Y28316691D01*
X32905075Y28316693D01*
X32851344Y28478841D01*
X32851342Y28478844D01*
X32831306Y28511329D01*
X32812547Y28577475D01*
X32812547Y28589812D01*
X32812547Y28589813D01*
X32802526Y28673257D01*
X32798085Y28684518D01*
X32771387Y28752220D01*
X32750162Y28806043D01*
X32663914Y28919778D01*
X32550179Y29006026D01*
X32550176Y29006027D01*
X32550177Y29006027D01*
X32417393Y29058391D01*
X32417394Y29058391D01*
X32333952Y29068411D01*
X32333949Y29068411D01*
X31815145Y29068411D01*
X31815141Y29068411D01*
X31731700Y29058391D01*
X31598914Y29006026D01*
X31594841Y29003735D01*
X31533087Y28987564D01*
X30609146Y28987564D01*
X30562922Y28996349D01*
X30441611Y29044189D01*
X30441612Y29044189D01*
X30353152Y29054811D01*
X30353149Y29054811D01*
X29316945Y29054811D01*
X29316941Y29054811D01*
X29228482Y29044189D01*
X29087705Y28988673D01*
X29087701Y28988670D01*
X28967124Y28897234D01*
X28875688Y28776657D01*
X28875685Y28776653D01*
X28820169Y28635876D01*
X28809547Y28547417D01*
X28809547Y27961206D01*
X28820169Y27872747D01*
X28875685Y27731970D01*
X28875688Y27731966D01*
X28967124Y27611389D01*
X29087701Y27519953D01*
X29087705Y27519950D01*
X29228482Y27464434D01*
X29228481Y27464434D01*
X29256441Y27461077D01*
X29316945Y27453811D01*
X29316948Y27453811D01*
X30353146Y27453811D01*
X30353149Y27453811D01*
X30441611Y27464434D01*
X30575601Y27517274D01*
X30621824Y27526058D01*
X31339171Y27526058D01*
X31407292Y27506056D01*
X31439567Y27476194D01*
X31485180Y27416044D01*
X31598915Y27329796D01*
X31598919Y27329795D01*
X31598920Y27329794D01*
X31609103Y27325778D01*
X31665136Y27282180D01*
X31688703Y27215209D01*
X31672321Y27146128D01*
X31621192Y27096870D01*
X31562878Y27082564D01*
X30621824Y27082564D01*
X30575601Y27091349D01*
X30528473Y27109934D01*
X30441611Y27144189D01*
X30441612Y27144189D01*
X30353152Y27154811D01*
X30353149Y27154811D01*
X29316945Y27154811D01*
X29316941Y27154811D01*
X29228482Y27144189D01*
X29087705Y27088673D01*
X29087701Y27088670D01*
X28967124Y26997234D01*
X28875688Y26876657D01*
X28875685Y26876653D01*
X28820169Y26735876D01*
X28809547Y26647417D01*
X28809547Y26061206D01*
X24865547Y26061206D01*
X24865546Y26208948D01*
X24855267Y26279509D01*
X24841992Y26306664D01*
X24830044Y26376644D01*
X24841993Y26417340D01*
X24855267Y26444491D01*
X24865547Y26515051D01*
X24865546Y26708948D01*
X24855267Y26779509D01*
X24841992Y26806664D01*
X24830044Y26876644D01*
X24841993Y26917340D01*
X24855267Y26944491D01*
X24865547Y27015051D01*
X24865546Y27208948D01*
X24855267Y27279509D01*
X24855266Y27279512D01*
X24802061Y27388345D01*
X24802058Y27388349D01*
X24716395Y27474012D01*
X24716393Y27474013D01*
X24607557Y27527220D01*
X24536999Y27537500D01*
X23766546Y27537500D01*
X23698425Y27557502D01*
X23651932Y27611158D01*
X23640546Y27663496D01*
X23640546Y28433948D01*
X23630267Y28504509D01*
X23626384Y28512452D01*
X23577061Y28613345D01*
X23577058Y28613349D01*
X23491395Y28699012D01*
X23491393Y28699013D01*
X23382557Y28752220D01*
X23359036Y28755647D01*
X23311996Y28762500D01*
X23311994Y28762500D01*
X23118101Y28762500D01*
X23047535Y28752220D01*
X23047534Y28752220D01*
X23020383Y28738946D01*
X22950399Y28726998D01*
X22909711Y28738946D01*
X22882557Y28752220D01*
X22859036Y28755647D01*
X22811996Y28762500D01*
X22811994Y28762500D01*
X22618101Y28762500D01*
X22547535Y28752220D01*
X22438702Y28699015D01*
X22438698Y28699012D01*
X22353035Y28613349D01*
X22353033Y28613346D01*
X22328242Y28562636D01*
X22280353Y28510223D01*
X22211730Y28492021D01*
X22144159Y28513809D01*
X22101849Y28562637D01*
X22077059Y28613347D01*
X22077058Y28613348D01*
X22077058Y28613349D01*
X21991395Y28699012D01*
X21991393Y28699013D01*
X21882557Y28752220D01*
X21859036Y28755647D01*
X21811996Y28762500D01*
X21811994Y28762500D01*
X21618101Y28762500D01*
X21547535Y28752220D01*
X21547534Y28752220D01*
X21520383Y28738946D01*
X21450399Y28726998D01*
X21409711Y28738946D01*
X21382557Y28752220D01*
X21359036Y28755647D01*
X21311996Y28762500D01*
X21311994Y28762500D01*
X21118101Y28762500D01*
X21047535Y28752220D01*
X20938702Y28699015D01*
X20938698Y28699012D01*
X20853035Y28613349D01*
X20853034Y28613347D01*
X20799827Y28504512D01*
X20799827Y28504509D01*
X20789547Y28433953D01*
X20789547Y27663500D01*
X20769545Y27595379D01*
X20715889Y27548886D01*
X20663547Y27537500D01*
X19893101Y27537500D01*
X19822535Y27527220D01*
X19713702Y27474015D01*
X19713698Y27474012D01*
X19628035Y27388349D01*
X19628034Y27388347D01*
X19574827Y27279512D01*
X19574827Y27279509D01*
X19564547Y27208953D01*
X19564547Y27015055D01*
X19574827Y26944489D01*
X19574827Y26944488D01*
X19588101Y26917336D01*
X19600049Y26847352D01*
X19588101Y26806664D01*
X19574827Y26779511D01*
X19564547Y26708953D01*
X19564547Y26515055D01*
X19574827Y26444489D01*
X19574827Y26444488D01*
X19588101Y26417336D01*
X19600049Y26347352D01*
X19588101Y26306664D01*
X19574827Y26279511D01*
X19564547Y26208953D01*
X19564547Y26015055D01*
X19574827Y25944489D01*
X19574827Y25944488D01*
X19588101Y25917336D01*
X19600049Y25847352D01*
X19588101Y25806664D01*
X19574827Y25779511D01*
X19564547Y25708953D01*
X19564547Y25515055D01*
X19574827Y25444489D01*
X19574827Y25444488D01*
X19588101Y25417336D01*
X19600049Y25347352D01*
X19588101Y25306664D01*
X19574827Y25279511D01*
X19564547Y25208953D01*
X19564547Y25015055D01*
X18235500Y25015055D01*
X18235500Y25893102D01*
X18224877Y25981564D01*
X18211671Y26015051D01*
X18169361Y26122342D01*
X18169358Y26122346D01*
X18077922Y26242923D01*
X17957345Y26334359D01*
X17957341Y26334362D01*
X17816564Y26389878D01*
X17816565Y26389878D01*
X17728105Y26400500D01*
X17728102Y26400500D01*
X17116898Y26400500D01*
X17116894Y26400500D01*
X17028435Y26389878D01*
X16887658Y26334362D01*
X16887654Y26334359D01*
X16767077Y26242923D01*
X16675641Y26122346D01*
X16675638Y26122342D01*
X16627215Y25999549D01*
X16583617Y25943516D01*
X16516646Y25919948D01*
X16447565Y25936330D01*
X16398307Y25987458D01*
X16392785Y25999549D01*
X16344361Y26122342D01*
X16344358Y26122346D01*
X16252922Y26242923D01*
X16132345Y26334359D01*
X16132341Y26334362D01*
X15991564Y26389878D01*
X15991565Y26389878D01*
X15903105Y26400500D01*
X15903102Y26400500D01*
X15291898Y26400500D01*
X15291894Y26400500D01*
X15203435Y26389878D01*
X15062658Y26334362D01*
X15062654Y26334359D01*
X14942077Y26242923D01*
X14850641Y26122346D01*
X14850638Y26122342D01*
X14795122Y25981565D01*
X14784500Y25893106D01*
X14784500Y24906895D01*
X5344500Y24906895D01*
X5344500Y26067141D01*
X8884189Y26067141D01*
X8884190Y26067134D01*
X8887103Y26042010D01*
X8887105Y26042006D01*
X8932482Y25939235D01*
X9011921Y25859796D01*
X9011923Y25859795D01*
X9011924Y25859794D01*
X9114698Y25814415D01*
X9139824Y25811500D01*
X10753553Y25811501D01*
X10778680Y25814415D01*
X10881454Y25859794D01*
X10960895Y25939235D01*
X11006274Y26042009D01*
X11009189Y26067135D01*
X11009189Y26067141D01*
X11424189Y26067141D01*
X11424190Y26067134D01*
X11427103Y26042010D01*
X11427105Y26042006D01*
X11472482Y25939235D01*
X11551921Y25859796D01*
X11551923Y25859795D01*
X11551924Y25859794D01*
X11654698Y25814415D01*
X11679824Y25811500D01*
X13293553Y25811501D01*
X13318680Y25814415D01*
X13421454Y25859794D01*
X13500895Y25939235D01*
X13546274Y26042009D01*
X13549189Y26067135D01*
X13549188Y27680864D01*
X13546274Y27705991D01*
X13511145Y27785552D01*
X13500895Y27808766D01*
X13421456Y27888205D01*
X13421454Y27888206D01*
X13318678Y27933586D01*
X13318679Y27933586D01*
X13293557Y27936500D01*
X11679829Y27936500D01*
X11679822Y27936499D01*
X11654698Y27933586D01*
X11654694Y27933584D01*
X11551923Y27888207D01*
X11472484Y27808768D01*
X11472483Y27808766D01*
X11427103Y27705991D01*
X11424189Y27680871D01*
X11424189Y26067141D01*
X11009189Y26067141D01*
X11009188Y27680864D01*
X11006274Y27705991D01*
X10971145Y27785552D01*
X10960895Y27808766D01*
X10881456Y27888205D01*
X10881454Y27888206D01*
X10778678Y27933586D01*
X10778679Y27933586D01*
X10753557Y27936500D01*
X9139829Y27936500D01*
X9139822Y27936499D01*
X9114698Y27933586D01*
X9114694Y27933584D01*
X9011923Y27888207D01*
X8932484Y27808768D01*
X8932483Y27808766D01*
X8887103Y27705991D01*
X8884189Y27680871D01*
X8884189Y26067141D01*
X5344500Y26067141D01*
X5344500Y28819811D01*
X5364502Y28887932D01*
X5418158Y28934425D01*
X5470500Y28945811D01*
X5746646Y28945811D01*
X5746649Y28945811D01*
X5835111Y28956434D01*
X5975889Y29011950D01*
X6096469Y29103389D01*
X6187908Y29223969D01*
X6243424Y29364747D01*
X6254047Y29453209D01*
X6254047Y30489413D01*
X6243424Y30577875D01*
X6224802Y30625096D01*
X6187908Y30718653D01*
X6187905Y30718657D01*
X6096469Y30839234D01*
X6033593Y30886914D01*
X5994807Y30939403D01*
X7620000Y30939403D01*
X7626505Y30878907D01*
X7677555Y30742036D01*
X7677555Y30742035D01*
X7765095Y30625096D01*
X7882034Y30537556D01*
X8018906Y30486506D01*
X8079402Y30480001D01*
X8079415Y30480000D01*
X8636000Y30480000D01*
X8636000Y31385195D01*
X8694960Y31344996D01*
X8823002Y31305500D01*
X8923312Y31305500D01*
X9022499Y31320450D01*
X9143224Y31378588D01*
X9144000Y31379309D01*
X9144000Y30480000D01*
X9354370Y30480000D01*
X9422491Y30459998D01*
X9468984Y30406342D01*
X9479088Y30336068D01*
X9469634Y30303109D01*
X9462493Y30286934D01*
X9444414Y30245990D01*
X9441500Y30220871D01*
X9441500Y28607141D01*
X9441501Y28607134D01*
X9444414Y28582010D01*
X9444416Y28582006D01*
X9489793Y28479235D01*
X9569232Y28399796D01*
X9569234Y28399795D01*
X9569235Y28399794D01*
X9672009Y28354415D01*
X9697135Y28351500D01*
X11310864Y28351501D01*
X11335991Y28354415D01*
X11438765Y28399794D01*
X11518206Y28479235D01*
X11563585Y28582009D01*
X11566500Y28607135D01*
X11566499Y30220864D01*
X11563585Y30245991D01*
X11545504Y30286941D01*
X11538367Y30303106D01*
X11529149Y30373502D01*
X11559454Y30437706D01*
X11619659Y30475334D01*
X11653631Y30480000D01*
X11894370Y30480000D01*
X11962491Y30459998D01*
X12008984Y30406342D01*
X12019088Y30336068D01*
X12009634Y30303109D01*
X12002493Y30286934D01*
X11984414Y30245990D01*
X11981500Y30220871D01*
X11981500Y28607141D01*
X11981501Y28607134D01*
X11984414Y28582010D01*
X11984416Y28582006D01*
X12029793Y28479235D01*
X12109232Y28399796D01*
X12109234Y28399795D01*
X12109235Y28399794D01*
X12212009Y28354415D01*
X12237135Y28351500D01*
X13850864Y28351501D01*
X13875991Y28354415D01*
X13978765Y28399794D01*
X14058206Y28479235D01*
X14103585Y28582009D01*
X14106500Y28607135D01*
X14106500Y28920895D01*
X14493500Y28920895D01*
X14504122Y28832436D01*
X14559638Y28691659D01*
X14559641Y28691655D01*
X14651077Y28571078D01*
X14771654Y28479642D01*
X14771658Y28479639D01*
X14912435Y28424123D01*
X14912434Y28424123D01*
X14940394Y28420766D01*
X15000898Y28413500D01*
X15000901Y28413500D01*
X15612099Y28413500D01*
X15612102Y28413500D01*
X15700564Y28424123D01*
X15841342Y28479639D01*
X15961922Y28571078D01*
X16053361Y28691658D01*
X16101785Y28814452D01*
X16145383Y28870485D01*
X16212354Y28894053D01*
X16281435Y28877672D01*
X16330693Y28826543D01*
X16336215Y28814452D01*
X16384638Y28691659D01*
X16384641Y28691655D01*
X16476077Y28571078D01*
X16596654Y28479642D01*
X16596658Y28479639D01*
X16737435Y28424123D01*
X16737434Y28424123D01*
X16765394Y28420766D01*
X16825898Y28413500D01*
X16825901Y28413500D01*
X17437099Y28413500D01*
X17437102Y28413500D01*
X17525564Y28424123D01*
X17666342Y28479639D01*
X17786922Y28571078D01*
X17878361Y28691658D01*
X17933877Y28832436D01*
X17944500Y28920898D01*
X17944500Y29907102D01*
X17933877Y29995564D01*
X17919784Y30031300D01*
X17878361Y30136342D01*
X17878358Y30136346D01*
X17786922Y30256923D01*
X17747337Y30286941D01*
X22454100Y30286941D01*
X22454101Y30286934D01*
X22457014Y30261810D01*
X22457016Y30261806D01*
X22502393Y30159035D01*
X22581832Y30079596D01*
X22581834Y30079595D01*
X22581835Y30079594D01*
X22684609Y30034215D01*
X22709735Y30031300D01*
X24599464Y30031301D01*
X24624591Y30034215D01*
X24727365Y30079594D01*
X24806806Y30159035D01*
X24852185Y30261809D01*
X24855100Y30286935D01*
X24855099Y31576664D01*
X24852185Y31601791D01*
X24824762Y31663898D01*
X24809967Y31697406D01*
X28299547Y31697406D01*
X28309567Y31613965D01*
X28360343Y31485209D01*
X28361932Y31481179D01*
X28448180Y31367444D01*
X28561915Y31281196D01*
X28625278Y31256209D01*
X28694700Y31228832D01*
X28694699Y31228832D01*
X28721075Y31225665D01*
X28778145Y31218811D01*
X28778146Y31218811D01*
X29621948Y31218811D01*
X29621949Y31218811D01*
X29705393Y31228832D01*
X29838179Y31281196D01*
X29866741Y31302855D01*
X29876763Y31310455D01*
X29943127Y31335679D01*
X29952897Y31336058D01*
X30500182Y31336058D01*
X30568303Y31316056D01*
X30614796Y31262400D01*
X30625283Y31225080D01*
X30635169Y31142747D01*
X30690685Y31001970D01*
X30690688Y31001966D01*
X30782124Y30881389D01*
X30902701Y30789953D01*
X30902705Y30789950D01*
X31043482Y30734434D01*
X31043481Y30734434D01*
X31070014Y30731248D01*
X31131945Y30723811D01*
X31131948Y30723811D01*
X31718146Y30723811D01*
X31718149Y30723811D01*
X31806611Y30734434D01*
X31947389Y30789950D01*
X32067969Y30881389D01*
X32159408Y31001969D01*
X32214924Y31142747D01*
X32225547Y31231206D01*
X32524547Y31231206D01*
X32535169Y31142747D01*
X32590685Y31001970D01*
X32590688Y31001966D01*
X32682124Y30881389D01*
X32802701Y30789953D01*
X32802705Y30789950D01*
X32943482Y30734434D01*
X32943481Y30734434D01*
X32970014Y30731248D01*
X33031945Y30723811D01*
X33031948Y30723811D01*
X33618146Y30723811D01*
X33618149Y30723811D01*
X33706611Y30734434D01*
X33847389Y30789950D01*
X33967969Y30881389D01*
X33987899Y30907670D01*
X34034174Y30968692D01*
X34091273Y31010885D01*
X34134571Y31018558D01*
X34462965Y31018558D01*
X34531086Y30998556D01*
X34539098Y30992956D01*
X34646915Y30911196D01*
X34665863Y30903724D01*
X34779700Y30858832D01*
X34779699Y30858832D01*
X34806075Y30855665D01*
X34863145Y30848811D01*
X34863146Y30848811D01*
X35381948Y30848811D01*
X35381949Y30848811D01*
X35465393Y30858832D01*
X35598179Y30911196D01*
X35711914Y30997444D01*
X35798162Y31111179D01*
X35850526Y31243965D01*
X35857598Y31302856D01*
X35885579Y31368105D01*
X35893594Y31376919D01*
X36022639Y31505964D01*
X36036478Y31517924D01*
X36054934Y31531662D01*
X36085795Y31568442D01*
X36093214Y31576538D01*
X36096864Y31580187D01*
X36115544Y31603814D01*
X36117814Y31606601D01*
X36164739Y31662522D01*
X36164743Y31662531D01*
X36168774Y31668657D01*
X36168865Y31668597D01*
X36172477Y31674266D01*
X36172384Y31674323D01*
X36180092Y31686819D01*
X36181724Y31685813D01*
X36222161Y31731753D01*
X36290435Y31751225D01*
X36358398Y31730694D01*
X36404473Y31676679D01*
X36413541Y31647112D01*
X36432727Y31538302D01*
X36499242Y31384103D01*
X36509547Y31334198D01*
X36509547Y31327406D01*
X36519567Y31243965D01*
X36571931Y31111181D01*
X36571932Y31111179D01*
X36658180Y30997444D01*
X36771915Y30911196D01*
X36790863Y30903724D01*
X36904700Y30858832D01*
X36904699Y30858832D01*
X36931075Y30855665D01*
X36988145Y30848811D01*
X36988146Y30848811D01*
X37506948Y30848811D01*
X37506949Y30848811D01*
X37590393Y30858832D01*
X37723179Y30911196D01*
X37830996Y30992956D01*
X37897361Y31018179D01*
X37907129Y31018558D01*
X38272965Y31018558D01*
X38341086Y30998556D01*
X38349098Y30992956D01*
X38456915Y30911196D01*
X38475863Y30903724D01*
X38589700Y30858832D01*
X38589699Y30858832D01*
X38616075Y30855665D01*
X38673145Y30848811D01*
X38673146Y30848811D01*
X39191948Y30848811D01*
X39191949Y30848811D01*
X39275393Y30858832D01*
X39408179Y30911196D01*
X39521914Y30997444D01*
X39608162Y31111179D01*
X39660526Y31243965D01*
X39670547Y31327409D01*
X39670547Y31341661D01*
X39683927Y31398165D01*
X39684374Y31399056D01*
X39687845Y31405497D01*
X39718104Y31457904D01*
X39721102Y31467922D01*
X39729211Y31488333D01*
X39733905Y31497677D01*
X39747852Y31556529D01*
X39749743Y31563591D01*
X39767098Y31621553D01*
X39767706Y31631996D01*
X39770890Y31653731D01*
X39773300Y31663898D01*
X39773300Y31706532D01*
X40213064Y31706532D01*
X40242727Y31538300D01*
X40268531Y31478482D01*
X40309242Y31384103D01*
X40319547Y31334198D01*
X40319547Y31327406D01*
X40329567Y31243965D01*
X40381931Y31111181D01*
X40381932Y31111179D01*
X40468180Y30997444D01*
X40581915Y30911196D01*
X40600863Y30903724D01*
X40714700Y30858832D01*
X40714699Y30858832D01*
X40741075Y30855665D01*
X40798145Y30848811D01*
X40798146Y30848811D01*
X41316948Y30848811D01*
X41316949Y30848811D01*
X41400393Y30858832D01*
X41533179Y30911196D01*
X41640996Y30992956D01*
X41707361Y31018179D01*
X41717129Y31018558D01*
X41814634Y31018558D01*
X41875111Y31018558D01*
X41882437Y31018345D01*
X41942821Y31014828D01*
X41942822Y31014829D01*
X41942826Y31014828D01*
X41953125Y31016645D01*
X41975004Y31018558D01*
X42089482Y31018558D01*
X42157603Y30998556D01*
X42189876Y30968696D01*
X42233480Y30911196D01*
X42237127Y30906387D01*
X42357701Y30814953D01*
X42357705Y30814950D01*
X42498482Y30759434D01*
X42498481Y30759434D01*
X42526441Y30756077D01*
X42586945Y30748811D01*
X42586948Y30748811D01*
X43198146Y30748811D01*
X43198149Y30748811D01*
X43286611Y30759434D01*
X43427389Y30814950D01*
X43547969Y30906389D01*
X43639408Y31026969D01*
X43687832Y31149763D01*
X43731430Y31205796D01*
X43798401Y31229364D01*
X43867482Y31212983D01*
X43916740Y31161854D01*
X43922262Y31149763D01*
X43970685Y31026970D01*
X43970688Y31026966D01*
X44062124Y30906389D01*
X44182701Y30814953D01*
X44182705Y30814950D01*
X44323482Y30759434D01*
X44323481Y30759434D01*
X44351441Y30756077D01*
X44411945Y30748811D01*
X44411948Y30748811D01*
X45023146Y30748811D01*
X45023149Y30748811D01*
X45111611Y30759434D01*
X45252389Y30814950D01*
X45372969Y30906389D01*
X45420216Y30968694D01*
X45477313Y31010885D01*
X45520612Y31018558D01*
X46577134Y31018558D01*
X47192872Y31018558D01*
X47260993Y30998556D01*
X47307486Y30944900D01*
X47317590Y30874626D01*
X47288096Y30810046D01*
X47253257Y30781970D01*
X47242971Y30776354D01*
X47128160Y30690409D01*
X47128159Y30690408D01*
X47854969Y29963598D01*
X47732616Y29889980D01*
X47598389Y29762834D01*
X47494634Y29609806D01*
X47493411Y29606738D01*
X46768950Y30331199D01*
X46768949Y30331198D01*
X46683004Y30216387D01*
X46555634Y29983126D01*
X46462754Y29734105D01*
X46406260Y29474404D01*
X46387301Y29209311D01*
X46406260Y28944219D01*
X46462754Y28684518D01*
X46555634Y28435497D01*
X46683005Y28202235D01*
X46768950Y28087426D01*
X46768950Y28087425D01*
X47496853Y28815329D01*
X47542363Y28729489D01*
X47662056Y28588576D01*
X47809242Y28476688D01*
X47855316Y28455372D01*
X47128159Y27728216D01*
X47128160Y27728215D01*
X47242966Y27642272D01*
X47476232Y27514899D01*
X47725253Y27422019D01*
X47984954Y27365525D01*
X48250047Y27346566D01*
X48515139Y27365525D01*
X48774840Y27422019D01*
X49023861Y27514899D01*
X49257123Y27642269D01*
X49371932Y27728216D01*
X49371933Y27728216D01*
X48645124Y28455025D01*
X48767478Y28528642D01*
X48901705Y28655788D01*
X49005460Y28808816D01*
X49006682Y28811885D01*
X49731142Y28087425D01*
X49731142Y28087426D01*
X49817089Y28202235D01*
X49944459Y28435497D01*
X50037339Y28684518D01*
X50093833Y28944219D01*
X50112792Y29209311D01*
X50093833Y29474404D01*
X50037339Y29734105D01*
X49944459Y29983126D01*
X49817086Y30216392D01*
X49781702Y30263660D01*
X49756891Y30330180D01*
X49771982Y30399554D01*
X49822184Y30449756D01*
X49891558Y30464848D01*
X49948402Y30446603D01*
X50083958Y30363534D01*
X50309435Y30270139D01*
X50546745Y30213165D01*
X50790047Y30194017D01*
X51033349Y30213165D01*
X51270659Y30270139D01*
X51496136Y30363534D01*
X51631689Y30446602D01*
X51700221Y30465140D01*
X51767898Y30443684D01*
X51813231Y30389045D01*
X51821828Y30318571D01*
X51798392Y30263661D01*
X51763006Y30216391D01*
X51635634Y29983126D01*
X51542754Y29734105D01*
X51486260Y29474404D01*
X51467301Y29209311D01*
X51486260Y28944219D01*
X51542754Y28684518D01*
X51635634Y28435497D01*
X51763005Y28202235D01*
X51848950Y28087426D01*
X51848950Y28087425D01*
X52576853Y28815329D01*
X52622363Y28729489D01*
X52742056Y28588576D01*
X52889242Y28476688D01*
X52935316Y28455372D01*
X52208159Y27728216D01*
X52208160Y27728215D01*
X52322966Y27642272D01*
X52556232Y27514899D01*
X52805253Y27422019D01*
X53064954Y27365525D01*
X53330047Y27346566D01*
X53595139Y27365525D01*
X53854840Y27422019D01*
X54103861Y27514899D01*
X54337123Y27642269D01*
X54451932Y27728216D01*
X54451933Y27728216D01*
X53725124Y28455025D01*
X53847478Y28528642D01*
X53981705Y28655788D01*
X54085460Y28808816D01*
X54086682Y28811885D01*
X54811142Y28087425D01*
X54811142Y28087426D01*
X54897089Y28202235D01*
X55024459Y28435497D01*
X55117339Y28684518D01*
X55173833Y28944219D01*
X55192792Y29209311D01*
X55173833Y29474404D01*
X55117339Y29734105D01*
X55024459Y29983126D01*
X54897086Y30216392D01*
X54811143Y30331198D01*
X54811142Y30331199D01*
X54083239Y29603296D01*
X54037731Y29689133D01*
X53918038Y29830046D01*
X53770852Y29941934D01*
X53724776Y29963252D01*
X54451933Y30690408D01*
X54337123Y30776353D01*
X54103861Y30903724D01*
X53854840Y30996604D01*
X53595139Y31053098D01*
X53330047Y31072057D01*
X53064954Y31053098D01*
X52805253Y30996604D01*
X52556232Y30903724D01*
X52322967Y30776352D01*
X52275697Y30740966D01*
X52209176Y30716156D01*
X52139803Y30731248D01*
X52089601Y30781451D01*
X52074510Y30850825D01*
X52092757Y30907670D01*
X52112211Y30939415D01*
X52175824Y31043222D01*
X52269219Y31268699D01*
X52326193Y31506009D01*
X52345341Y31749311D01*
X52326193Y31992613D01*
X52269219Y32229923D01*
X52175824Y32455400D01*
X52092755Y32590956D01*
X52074218Y32659486D01*
X52095674Y32727163D01*
X52150313Y32772496D01*
X52220788Y32781093D01*
X52275698Y32757656D01*
X52322966Y32722272D01*
X52556232Y32594899D01*
X52805253Y32502019D01*
X53064954Y32445525D01*
X53330047Y32426566D01*
X53595139Y32445525D01*
X53854840Y32502019D01*
X54103861Y32594899D01*
X54337123Y32722269D01*
X54451932Y32808216D01*
X54451933Y32808216D01*
X53725124Y33535025D01*
X53847478Y33608642D01*
X53981705Y33735788D01*
X54085460Y33888816D01*
X54086682Y33891885D01*
X54811142Y33167425D01*
X54811142Y33167426D01*
X54897089Y33282235D01*
X55024459Y33515497D01*
X55117339Y33764518D01*
X55173833Y34024219D01*
X55192792Y34289311D01*
X55173833Y34554404D01*
X55117339Y34814105D01*
X55024459Y35063126D01*
X54897086Y35296392D01*
X54811143Y35411198D01*
X54811142Y35411199D01*
X54083239Y34683296D01*
X54037731Y34769133D01*
X53918038Y34910046D01*
X53770852Y35021934D01*
X53724776Y35043251D01*
X54451933Y35770408D01*
X54337123Y35856353D01*
X54103861Y35983724D01*
X53854840Y36076604D01*
X53595139Y36133098D01*
X53330047Y36152057D01*
X53064954Y36133098D01*
X52805253Y36076604D01*
X52556232Y35983724D01*
X52322971Y35856354D01*
X52208160Y35770409D01*
X52208159Y35770408D01*
X52934969Y35043598D01*
X52812616Y34969980D01*
X52678389Y34842834D01*
X52574634Y34689806D01*
X52573411Y34686738D01*
X51848950Y35411199D01*
X51848949Y35411198D01*
X51763004Y35296387D01*
X51635634Y35063126D01*
X51542754Y34814105D01*
X51486260Y34554404D01*
X51467301Y34289311D01*
X51486260Y34024219D01*
X51542754Y33764518D01*
X51635634Y33515497D01*
X51763007Y33282231D01*
X51798391Y33234963D01*
X51823202Y33168443D01*
X51808111Y33099069D01*
X51757908Y33048866D01*
X51688534Y33033775D01*
X51631689Y33052021D01*
X51496136Y33135088D01*
X51480390Y33141610D01*
X51377003Y33184434D01*
X51270659Y33228483D01*
X51270657Y33228484D01*
X51270656Y33228484D01*
X51098914Y33269716D01*
X51033349Y33285457D01*
X51033350Y33285457D01*
X50790047Y33304605D01*
X50546744Y33285457D01*
X50309437Y33228484D01*
X50083955Y33135087D01*
X49948404Y33052021D01*
X49879871Y33033483D01*
X49812194Y33054940D01*
X49766861Y33109579D01*
X49758265Y33180053D01*
X49781703Y33234964D01*
X49817086Y33282230D01*
X49944459Y33515497D01*
X50037339Y33764518D01*
X50093833Y34024219D01*
X50112792Y34289311D01*
X50093833Y34554404D01*
X50037339Y34814105D01*
X49944459Y35063126D01*
X49817086Y35296392D01*
X49731143Y35411198D01*
X49003239Y34683294D01*
X48957731Y34769133D01*
X48838038Y34910046D01*
X48690852Y35021934D01*
X48644776Y35043251D01*
X49371933Y35770408D01*
X49257123Y35856353D01*
X49023861Y35983724D01*
X48774840Y36076604D01*
X48515139Y36133098D01*
X48250047Y36152057D01*
X47984954Y36133098D01*
X47725253Y36076604D01*
X47476232Y35983724D01*
X47242971Y35856354D01*
X47128160Y35770409D01*
X47128159Y35770408D01*
X47854969Y35043598D01*
X47732616Y34969980D01*
X47598389Y34842834D01*
X47494634Y34689806D01*
X47493411Y34686738D01*
X46768950Y35411199D01*
X46768949Y35411198D01*
X46683004Y35296387D01*
X46555634Y35063126D01*
X46462754Y34814105D01*
X46406260Y34554404D01*
X46387301Y34289311D01*
X46406260Y34024219D01*
X46462754Y33764518D01*
X46555634Y33515497D01*
X46683005Y33282235D01*
X46768950Y33167426D01*
X46768950Y33167425D01*
X47496853Y33895329D01*
X47542363Y33809489D01*
X47662056Y33668576D01*
X47809242Y33556688D01*
X47855317Y33535372D01*
X47128160Y32808215D01*
X47242966Y32722271D01*
X47253257Y32716652D01*
X47303460Y32666449D01*
X47318551Y32597075D01*
X47293740Y32530555D01*
X47236904Y32488008D01*
X47192872Y32480064D01*
X45520612Y32480064D01*
X45452491Y32500066D01*
X45420217Y32529927D01*
X45372969Y32592233D01*
X45372967Y32592235D01*
X45372966Y32592236D01*
X45252392Y32683670D01*
X45252388Y32683673D01*
X45111611Y32739189D01*
X45111612Y32739189D01*
X45023152Y32749811D01*
X45023149Y32749811D01*
X44411945Y32749811D01*
X44411941Y32749811D01*
X44323482Y32739189D01*
X44182705Y32683673D01*
X44182701Y32683670D01*
X44062124Y32592234D01*
X43970688Y32471657D01*
X43970685Y32471653D01*
X43922262Y32348860D01*
X43878664Y32292827D01*
X43811693Y32269259D01*
X43742612Y32285641D01*
X43693354Y32336769D01*
X43687832Y32348860D01*
X43639408Y32471653D01*
X43639405Y32471657D01*
X43547969Y32592234D01*
X43427392Y32683670D01*
X43427388Y32683673D01*
X43286611Y32739189D01*
X43286612Y32739189D01*
X43198152Y32749811D01*
X43198149Y32749811D01*
X42756800Y32749811D01*
X42688679Y32769813D01*
X42642186Y32823469D01*
X42630800Y32875811D01*
X42630800Y33164788D01*
X42650802Y33232909D01*
X42680662Y33265183D01*
X42767969Y33331389D01*
X42859408Y33451969D01*
X42914924Y33592747D01*
X42925547Y33681209D01*
X42925547Y34267413D01*
X42914924Y34355875D01*
X42887799Y34424658D01*
X42859408Y34496653D01*
X42859405Y34496657D01*
X42767969Y34617234D01*
X42647392Y34708670D01*
X42647388Y34708673D01*
X42506611Y34764189D01*
X42506612Y34764189D01*
X42418152Y34774811D01*
X42418149Y34774811D01*
X41381945Y34774811D01*
X41381941Y34774811D01*
X41293482Y34764189D01*
X41152705Y34708673D01*
X41152701Y34708670D01*
X41032124Y34617234D01*
X40940688Y34496657D01*
X40940685Y34496653D01*
X40885169Y34355876D01*
X40874547Y34267417D01*
X40874547Y33681206D01*
X40885169Y33592747D01*
X40940685Y33451970D01*
X40940688Y33451966D01*
X41032122Y33331392D01*
X41032123Y33331391D01*
X41032125Y33331389D01*
X41119429Y33265184D01*
X41161621Y33208087D01*
X41169294Y33164788D01*
X41169294Y32775811D01*
X41149292Y32707690D01*
X41095636Y32661197D01*
X41043294Y32649811D01*
X40798141Y32649811D01*
X40714700Y32639791D01*
X40581916Y32587427D01*
X40468180Y32501178D01*
X40381931Y32387442D01*
X40329567Y32254658D01*
X40319547Y32171217D01*
X40319547Y32156851D01*
X40302667Y32093852D01*
X40271989Y32040717D01*
X40222996Y31877068D01*
X40213064Y31706538D01*
X40213064Y31706532D01*
X39773300Y31706532D01*
X39773300Y31724376D01*
X39773513Y31731702D01*
X39777030Y31792090D01*
X39777029Y31792097D01*
X39775214Y31802393D01*
X39773300Y31824269D01*
X39773300Y33591891D01*
X39774630Y33610151D01*
X39775805Y33618172D01*
X39777964Y33632912D01*
X39773779Y33680750D01*
X39773300Y33691730D01*
X39773300Y33696876D01*
X39769809Y33726738D01*
X39769436Y33730387D01*
X39763075Y33803094D01*
X39761592Y33810277D01*
X39761697Y33810299D01*
X39760240Y33816873D01*
X39760134Y33816847D01*
X39758442Y33823986D01*
X39758144Y33824806D01*
X39757841Y33826525D01*
X39756750Y33831129D01*
X39757017Y33831193D01*
X39750547Y33867895D01*
X39750547Y34267410D01*
X39750547Y34267413D01*
X39739924Y34355875D01*
X39712799Y34424658D01*
X39684408Y34496653D01*
X39684405Y34496657D01*
X39592969Y34617234D01*
X39472392Y34708670D01*
X39472388Y34708673D01*
X39331611Y34764189D01*
X39331612Y34764189D01*
X39243152Y34774811D01*
X39243149Y34774811D01*
X38206945Y34774811D01*
X38206941Y34774811D01*
X38118482Y34764189D01*
X37977705Y34708673D01*
X37977701Y34708670D01*
X37857124Y34617234D01*
X37765688Y34496657D01*
X37765685Y34496653D01*
X37710169Y34355876D01*
X37699547Y34267417D01*
X37699547Y33681206D01*
X37710169Y33592747D01*
X37765685Y33451970D01*
X37765688Y33451966D01*
X37857124Y33331389D01*
X37977701Y33239953D01*
X37977705Y33239950D01*
X38118482Y33184434D01*
X38200816Y33174547D01*
X38266066Y33146566D01*
X38305831Y33087750D01*
X38311794Y33049446D01*
X38311794Y32606064D01*
X38291792Y32537943D01*
X38238136Y32491450D01*
X38185794Y32480064D01*
X37907129Y32480064D01*
X37839008Y32500066D01*
X37830996Y32505666D01*
X37777553Y32546193D01*
X37723179Y32587426D01*
X37723177Y32587427D01*
X37590393Y32639791D01*
X37590394Y32639791D01*
X37506952Y32649811D01*
X37506949Y32649811D01*
X36988145Y32649811D01*
X36988141Y32649811D01*
X36904700Y32639791D01*
X36771916Y32587427D01*
X36658180Y32501178D01*
X36571931Y32387442D01*
X36524015Y32265935D01*
X36480417Y32209901D01*
X36413446Y32186334D01*
X36344365Y32202716D01*
X36295107Y32253845D01*
X36280800Y32312159D01*
X36280800Y33164788D01*
X36300802Y33232909D01*
X36330662Y33265183D01*
X36417969Y33331389D01*
X36509408Y33451969D01*
X36564924Y33592747D01*
X36575547Y33681209D01*
X36575547Y34267413D01*
X36564924Y34355875D01*
X36537799Y34424658D01*
X36509408Y34496653D01*
X36509405Y34496657D01*
X36417969Y34617234D01*
X36297392Y34708670D01*
X36297388Y34708673D01*
X36156611Y34764189D01*
X36156612Y34764189D01*
X36068152Y34774811D01*
X36068149Y34774811D01*
X35031945Y34774811D01*
X35031941Y34774811D01*
X34943482Y34764189D01*
X34829974Y34719426D01*
X34809492Y34711349D01*
X34763270Y34702564D01*
X34286919Y34702564D01*
X34218798Y34722566D01*
X34172305Y34776222D01*
X34168274Y34787690D01*
X34113162Y34927442D01*
X34113162Y34927443D01*
X34026914Y35041178D01*
X33913179Y35127426D01*
X33913176Y35127427D01*
X33913177Y35127427D01*
X33780393Y35179791D01*
X33780394Y35179791D01*
X33696952Y35189811D01*
X33696949Y35189811D01*
X33178145Y35189811D01*
X33178141Y35189811D01*
X33094700Y35179791D01*
X32961916Y35127427D01*
X32848180Y35041178D01*
X32761931Y34927442D01*
X32709567Y34794658D01*
X32699547Y34711217D01*
X32699547Y34706191D01*
X32681820Y34645820D01*
X32683441Y34644946D01*
X32679957Y34638487D01*
X32616888Y34479731D01*
X32596260Y34338901D01*
X32592130Y34310709D01*
X32607019Y34140534D01*
X32660751Y33978379D01*
X32680787Y33945896D01*
X32699547Y33879749D01*
X32699547Y33867406D01*
X32709567Y33783965D01*
X32759091Y33658383D01*
X32761932Y33651179D01*
X32848180Y33537444D01*
X32961915Y33451196D01*
X33006177Y33433742D01*
X33094699Y33398832D01*
X33169901Y33389801D01*
X33235150Y33361819D01*
X33235865Y33361224D01*
X33240755Y33357121D01*
X33246890Y33353086D01*
X33246830Y33352996D01*
X33252509Y33349378D01*
X33252567Y33349470D01*
X33258809Y33345619D01*
X33287928Y33332042D01*
X33324967Y33314770D01*
X33328223Y33313193D01*
X33393413Y33280453D01*
X33393415Y33280453D01*
X33400311Y33277942D01*
X33400273Y33277838D01*
X33406623Y33275631D01*
X33406658Y33275735D01*
X33413621Y33273428D01*
X33413624Y33273428D01*
X33413627Y33273426D01*
X33485158Y33258657D01*
X33488615Y33257891D01*
X33559634Y33241058D01*
X33566923Y33240206D01*
X33566910Y33240099D01*
X33573604Y33239415D01*
X33573614Y33239523D01*
X33580916Y33238885D01*
X33580925Y33238883D01*
X33653845Y33241005D01*
X33657509Y33241058D01*
X34693294Y33241058D01*
X34761415Y33221056D01*
X34807908Y33167400D01*
X34819294Y33115058D01*
X34819294Y32741160D01*
X34799292Y32673039D01*
X34745636Y32626546D01*
X34739519Y32623946D01*
X34646920Y32587429D01*
X34646913Y32587425D01*
X34539098Y32505666D01*
X34472733Y32480443D01*
X34462965Y32480064D01*
X34134571Y32480064D01*
X34066450Y32500066D01*
X34034174Y32529930D01*
X33967969Y32617234D01*
X33847392Y32708670D01*
X33847388Y32708673D01*
X33706611Y32764189D01*
X33706612Y32764189D01*
X33618152Y32774811D01*
X33618149Y32774811D01*
X33031945Y32774811D01*
X33031941Y32774811D01*
X32943482Y32764189D01*
X32802705Y32708673D01*
X32802701Y32708670D01*
X32682124Y32617234D01*
X32590688Y32496657D01*
X32590685Y32496653D01*
X32535169Y32355876D01*
X32524547Y32267417D01*
X32524547Y31231206D01*
X32225547Y31231206D01*
X32225547Y31231209D01*
X32225547Y32267413D01*
X32214924Y32355875D01*
X32179570Y32445525D01*
X32159408Y32496653D01*
X32159405Y32496657D01*
X32067969Y32617234D01*
X31947392Y32708670D01*
X31947388Y32708673D01*
X31806611Y32764189D01*
X31806612Y32764189D01*
X31718152Y32774811D01*
X31718149Y32774811D01*
X31302776Y32774811D01*
X31277288Y32777416D01*
X31264991Y32779956D01*
X31261424Y32780747D01*
X31190462Y32797564D01*
X31183170Y32798416D01*
X31183182Y32798524D01*
X31176490Y32799208D01*
X31176481Y32799099D01*
X31169170Y32799739D01*
X31169169Y32799739D01*
X31096250Y32797617D01*
X31092586Y32797564D01*
X29157481Y32797564D01*
X29030376Y32782708D01*
X29030374Y32782707D01*
X28869857Y32724284D01*
X28869849Y32724280D01*
X28866795Y32722271D01*
X28858253Y32716652D01*
X28856562Y32715540D01*
X28788657Y32694818D01*
X28787323Y32694811D01*
X28778141Y32694811D01*
X28694700Y32684791D01*
X28561916Y32632427D01*
X28448180Y32546178D01*
X28361931Y32432442D01*
X28309567Y32299658D01*
X28299547Y32216217D01*
X28299547Y31697406D01*
X24809967Y31697406D01*
X24806806Y31704566D01*
X24727367Y31784005D01*
X24727365Y31784006D01*
X24624589Y31829386D01*
X24624590Y31829386D01*
X24599468Y31832300D01*
X22709740Y31832300D01*
X22709733Y31832299D01*
X22684609Y31829386D01*
X22684605Y31829384D01*
X22581834Y31784007D01*
X22502395Y31704568D01*
X22502394Y31704566D01*
X22457014Y31601791D01*
X22454100Y31576671D01*
X22454100Y30286941D01*
X17747337Y30286941D01*
X17666345Y30348359D01*
X17666341Y30348362D01*
X17525564Y30403878D01*
X17525565Y30403878D01*
X17437105Y30414500D01*
X17437102Y30414500D01*
X16825898Y30414500D01*
X16825894Y30414500D01*
X16737435Y30403878D01*
X16596658Y30348362D01*
X16596654Y30348359D01*
X16476077Y30256923D01*
X16384641Y30136346D01*
X16384638Y30136342D01*
X16336215Y30013549D01*
X16292617Y29957516D01*
X16225646Y29933948D01*
X16156565Y29950330D01*
X16107307Y30001458D01*
X16101785Y30013549D01*
X16053361Y30136342D01*
X16053358Y30136346D01*
X15961922Y30256923D01*
X15841345Y30348359D01*
X15841341Y30348362D01*
X15700564Y30403878D01*
X15700565Y30403878D01*
X15612105Y30414500D01*
X15612102Y30414500D01*
X15000898Y30414500D01*
X15000894Y30414500D01*
X14912435Y30403878D01*
X14771658Y30348362D01*
X14771654Y30348359D01*
X14651077Y30256923D01*
X14559641Y30136346D01*
X14559638Y30136342D01*
X14504122Y29995565D01*
X14493500Y29907106D01*
X14493500Y28920895D01*
X14106500Y28920895D01*
X14106499Y30220864D01*
X14103585Y30245991D01*
X14065962Y30331199D01*
X14058206Y30348766D01*
X13978767Y30428205D01*
X13978765Y30428206D01*
X13875989Y30473586D01*
X13875990Y30473586D01*
X13850870Y30476500D01*
X12695382Y30476500D01*
X12627261Y30496502D01*
X12580768Y30550158D01*
X12570664Y30620432D01*
X12594515Y30678010D01*
X12642443Y30742034D01*
X12642444Y30742036D01*
X12693494Y30878907D01*
X12699999Y30939403D01*
X12700000Y30939415D01*
X12700000Y31460895D01*
X13936189Y31460895D01*
X13946811Y31372436D01*
X14002327Y31231659D01*
X14002330Y31231655D01*
X14093766Y31111078D01*
X14214343Y31019642D01*
X14214347Y31019639D01*
X14355124Y30964123D01*
X14355123Y30964123D01*
X14383083Y30960766D01*
X14443587Y30953500D01*
X14443590Y30953500D01*
X15054788Y30953500D01*
X15054791Y30953500D01*
X15143253Y30964123D01*
X15284031Y31019639D01*
X15404611Y31111078D01*
X15496050Y31231658D01*
X15544474Y31354452D01*
X15588072Y31410485D01*
X15655043Y31434053D01*
X15724124Y31417672D01*
X15773382Y31366543D01*
X15778904Y31354452D01*
X15827327Y31231659D01*
X15827330Y31231655D01*
X15918766Y31111078D01*
X16039343Y31019642D01*
X16039347Y31019639D01*
X16180124Y30964123D01*
X16180123Y30964123D01*
X16208083Y30960766D01*
X16268587Y30953500D01*
X16268590Y30953500D01*
X16879788Y30953500D01*
X16879791Y30953500D01*
X16968253Y30964123D01*
X17109031Y31019639D01*
X17229611Y31111078D01*
X17321050Y31231658D01*
X17376566Y31372436D01*
X17387189Y31460898D01*
X17387189Y32447102D01*
X17376566Y32535564D01*
X17372380Y32546178D01*
X17321050Y32676342D01*
X17321047Y32676346D01*
X17313013Y32686941D01*
X18454100Y32686941D01*
X18454101Y32686934D01*
X18457014Y32661810D01*
X18457016Y32661806D01*
X18502393Y32559035D01*
X18581832Y32479596D01*
X18581834Y32479595D01*
X18581835Y32479594D01*
X18684609Y32434215D01*
X18709735Y32431300D01*
X20599464Y32431301D01*
X20624591Y32434215D01*
X20727365Y32479594D01*
X20761666Y32513895D01*
X24997500Y32513895D01*
X25008122Y32425436D01*
X25063638Y32284659D01*
X25063641Y32284655D01*
X25155077Y32164078D01*
X25275654Y32072642D01*
X25275658Y32072639D01*
X25416435Y32017123D01*
X25416434Y32017123D01*
X25444394Y32013766D01*
X25504898Y32006500D01*
X25504901Y32006500D01*
X26491099Y32006500D01*
X26491102Y32006500D01*
X26579564Y32017123D01*
X26720342Y32072639D01*
X26840922Y32164078D01*
X26932361Y32284658D01*
X26987877Y32425436D01*
X26998500Y32513898D01*
X26998500Y33125102D01*
X26987877Y33213564D01*
X26981993Y33228484D01*
X26932361Y33354342D01*
X26932358Y33354346D01*
X26911638Y33381669D01*
X27928521Y33381669D01*
X27945489Y33255942D01*
X28000477Y33141615D01*
X28000480Y33141610D01*
X28088108Y33049870D01*
X28088110Y33049869D01*
X28127197Y33028811D01*
X28199795Y32989699D01*
X28230999Y32984021D01*
X28324609Y32966986D01*
X28324610Y32966987D01*
X28324612Y32966986D01*
X28450337Y32983954D01*
X28535908Y33025111D01*
X28869847Y33256226D01*
X28937243Y33278544D01*
X28988069Y33269717D01*
X29009627Y33261152D01*
X29178649Y33236394D01*
X29348824Y33251283D01*
X29510979Y33305015D01*
X29525562Y33314010D01*
X29543465Y33325052D01*
X29609611Y33343811D01*
X29621948Y33343811D01*
X29621949Y33343811D01*
X29705393Y33353832D01*
X29838179Y33406196D01*
X29951914Y33492444D01*
X29964236Y33508694D01*
X30021335Y33550885D01*
X30064633Y33558558D01*
X30384634Y33558558D01*
X30652965Y33558558D01*
X30721086Y33538556D01*
X30729098Y33532956D01*
X30764623Y33506017D01*
X30836915Y33451196D01*
X30903308Y33425014D01*
X30969700Y33398832D01*
X30969699Y33398832D01*
X30996075Y33395665D01*
X31053145Y33388811D01*
X31053146Y33388811D01*
X31571948Y33388811D01*
X31571949Y33388811D01*
X31655393Y33398832D01*
X31788179Y33451196D01*
X31901914Y33537444D01*
X31988162Y33651179D01*
X32040526Y33783965D01*
X32049060Y33855028D01*
X32077040Y33920275D01*
X32077499Y33920828D01*
X32100739Y33948522D01*
X32100743Y33948531D01*
X32104774Y33954657D01*
X32104865Y33954597D01*
X32108479Y33960270D01*
X32108386Y33960327D01*
X32112241Y33966577D01*
X32143069Y34032689D01*
X32144667Y34035991D01*
X32177406Y34101179D01*
X32179915Y34108073D01*
X32180019Y34108036D01*
X32182228Y34114390D01*
X32182122Y34114425D01*
X32184426Y34121380D01*
X32184432Y34121392D01*
X32199191Y34192876D01*
X32199970Y34196391D01*
X32216800Y34267398D01*
X32216800Y34267402D01*
X32217652Y34274687D01*
X32217760Y34274675D01*
X32218443Y34281366D01*
X32218336Y34281375D01*
X32218974Y34288682D01*
X32218976Y34288689D01*
X32216853Y34361645D01*
X32216800Y34365309D01*
X32216800Y35641288D01*
X32236802Y35709409D01*
X32266662Y35741683D01*
X32353969Y35807889D01*
X32445408Y35928469D01*
X32500924Y36069247D01*
X32511547Y36157709D01*
X32511547Y36743913D01*
X32502917Y36815772D01*
X32500924Y36832376D01*
X32445408Y36973153D01*
X32445405Y36973157D01*
X32353969Y37093734D01*
X32233392Y37185170D01*
X32233388Y37185173D01*
X32092611Y37240689D01*
X32092612Y37240689D01*
X32004152Y37251311D01*
X32004149Y37251311D01*
X30967945Y37251311D01*
X30967941Y37251311D01*
X30879482Y37240689D01*
X30738705Y37185173D01*
X30738701Y37185170D01*
X30618124Y37093734D01*
X30526688Y36973157D01*
X30526685Y36973153D01*
X30471169Y36832376D01*
X30460547Y36743917D01*
X30460547Y36157706D01*
X30471169Y36069247D01*
X30526685Y35928470D01*
X30526688Y35928466D01*
X30618122Y35807892D01*
X30618123Y35807891D01*
X30618125Y35807889D01*
X30705429Y35741684D01*
X30747621Y35684587D01*
X30755294Y35641288D01*
X30755294Y35146064D01*
X30735292Y35077943D01*
X30681636Y35031450D01*
X30629294Y35020064D01*
X29579967Y35020064D01*
X29561707Y35021394D01*
X29558020Y35021934D01*
X29538946Y35024728D01*
X29491110Y35020543D01*
X29480130Y35020064D01*
X29474981Y35020064D01*
X29445102Y35016572D01*
X29441458Y35016200D01*
X29368777Y35009842D01*
X29361583Y35008356D01*
X29361561Y35008461D01*
X29354990Y35007004D01*
X29355015Y35006899D01*
X29347868Y35005205D01*
X29279338Y34980264D01*
X29275883Y34979063D01*
X29206623Y34956111D01*
X29199972Y34953009D01*
X29199926Y34953106D01*
X29193858Y34950168D01*
X29193906Y34950074D01*
X29187355Y34946785D01*
X29126384Y34906684D01*
X29123297Y34904717D01*
X29061218Y34866426D01*
X29055466Y34861877D01*
X29055399Y34861961D01*
X29050174Y34857704D01*
X29050244Y34857621D01*
X29040310Y34849286D01*
X28975268Y34820824D01*
X28959322Y34819811D01*
X28778141Y34819811D01*
X28694700Y34809791D01*
X28561916Y34757427D01*
X28448180Y34671178D01*
X28361931Y34557442D01*
X28309567Y34424658D01*
X28299547Y34341217D01*
X28299547Y33901684D01*
X28279545Y33833563D01*
X28245252Y33798077D01*
X28080071Y33683759D01*
X28080070Y33683757D01*
X28011407Y33618172D01*
X27951234Y33506482D01*
X27928521Y33381670D01*
X27928521Y33381669D01*
X26911638Y33381669D01*
X26840922Y33474923D01*
X26720345Y33566359D01*
X26720341Y33566362D01*
X26597548Y33614785D01*
X26541515Y33658383D01*
X26517947Y33725354D01*
X26534328Y33794435D01*
X26585457Y33843693D01*
X26597548Y33849215D01*
X26674976Y33879749D01*
X26720342Y33897639D01*
X26840922Y33989078D01*
X26932361Y34109658D01*
X26987877Y34250436D01*
X26998500Y34338898D01*
X26998500Y34950102D01*
X26987877Y35038564D01*
X26986846Y35041178D01*
X26932361Y35179342D01*
X26932358Y35179346D01*
X26840922Y35299923D01*
X26720345Y35391359D01*
X26720341Y35391362D01*
X26579564Y35446878D01*
X26579565Y35446878D01*
X26491105Y35457500D01*
X26491102Y35457500D01*
X25504898Y35457500D01*
X25504894Y35457500D01*
X25416435Y35446878D01*
X25275658Y35391362D01*
X25275654Y35391359D01*
X25155077Y35299923D01*
X25063641Y35179346D01*
X25063638Y35179342D01*
X25008122Y35038565D01*
X24997500Y34950106D01*
X24997500Y34338895D01*
X25008122Y34250436D01*
X25063638Y34109659D01*
X25063641Y34109655D01*
X25155077Y33989078D01*
X25275654Y33897642D01*
X25275658Y33897639D01*
X25398451Y33849215D01*
X25454484Y33805617D01*
X25478052Y33738646D01*
X25461670Y33669565D01*
X25410542Y33620307D01*
X25398451Y33614785D01*
X25275658Y33566362D01*
X25275654Y33566359D01*
X25155077Y33474923D01*
X25063641Y33354346D01*
X25063638Y33354342D01*
X25008122Y33213565D01*
X24997500Y33125106D01*
X24997500Y32513895D01*
X20761666Y32513895D01*
X20806806Y32559035D01*
X20852185Y32661809D01*
X20855100Y32686935D01*
X20855099Y33976664D01*
X20852185Y34001791D01*
X20806806Y34104565D01*
X20806806Y34104566D01*
X20727367Y34184005D01*
X20727365Y34184006D01*
X20624589Y34229386D01*
X20624590Y34229386D01*
X20599468Y34232300D01*
X18709740Y34232300D01*
X18709733Y34232299D01*
X18684609Y34229386D01*
X18684605Y34229384D01*
X18581834Y34184007D01*
X18502395Y34104568D01*
X18502394Y34104566D01*
X18457014Y34001791D01*
X18454100Y33976671D01*
X18454100Y32686941D01*
X17313013Y32686941D01*
X17229611Y32796923D01*
X17109034Y32888359D01*
X17109030Y32888362D01*
X16968253Y32943878D01*
X16968254Y32943878D01*
X16879794Y32954500D01*
X16879791Y32954500D01*
X16268587Y32954500D01*
X16268583Y32954500D01*
X16180124Y32943878D01*
X16039347Y32888362D01*
X16039343Y32888359D01*
X15918766Y32796923D01*
X15827330Y32676346D01*
X15827327Y32676342D01*
X15778904Y32553549D01*
X15735306Y32497516D01*
X15668335Y32473948D01*
X15599254Y32490330D01*
X15549996Y32541458D01*
X15544474Y32553549D01*
X15496050Y32676342D01*
X15496047Y32676346D01*
X15404611Y32796923D01*
X15284034Y32888359D01*
X15284030Y32888362D01*
X15143253Y32943878D01*
X15143254Y32943878D01*
X15054794Y32954500D01*
X15054791Y32954500D01*
X14443587Y32954500D01*
X14443583Y32954500D01*
X14355124Y32943878D01*
X14214347Y32888362D01*
X14214343Y32888359D01*
X14093766Y32796923D01*
X14002330Y32676346D01*
X14002327Y32676342D01*
X13946811Y32535565D01*
X13936189Y32447106D01*
X13936189Y31460895D01*
X12700000Y31460895D01*
X12700000Y31496000D01*
X11796618Y31496000D01*
X11848447Y31585772D01*
X11878264Y31716407D01*
X11868251Y31850028D01*
X11819297Y31974760D01*
X11795979Y32004000D01*
X12700000Y32004000D01*
X12700000Y32560586D01*
X12699999Y32560598D01*
X12693494Y32621094D01*
X12642444Y32757965D01*
X12642444Y32757966D01*
X12554904Y32874905D01*
X12437965Y32962445D01*
X12301093Y33013495D01*
X12240597Y33020000D01*
X11684000Y33020000D01*
X11684000Y32114806D01*
X11625040Y32155004D01*
X11496998Y32194500D01*
X11396688Y32194500D01*
X11297501Y32179550D01*
X11176776Y32121412D01*
X11176000Y32120692D01*
X11176000Y33020000D01*
X10619402Y33020000D01*
X10558906Y33013495D01*
X10422035Y32962445D01*
X10422034Y32962445D01*
X10305097Y32874906D01*
X10260868Y32815823D01*
X10204031Y32773277D01*
X10133216Y32768213D01*
X10070904Y32802238D01*
X10059132Y32815823D01*
X10014902Y32874906D01*
X9897965Y32962445D01*
X9761093Y33013495D01*
X9700597Y33020000D01*
X9144000Y33020000D01*
X9144000Y32114806D01*
X9085040Y32155004D01*
X8956998Y32194500D01*
X8856688Y32194500D01*
X8757501Y32179550D01*
X8636776Y32121412D01*
X8636000Y32120692D01*
X8636000Y33020000D01*
X8079402Y33020000D01*
X8018906Y33013495D01*
X7882035Y32962445D01*
X7882034Y32962445D01*
X7765095Y32874905D01*
X7677555Y32757966D01*
X7677555Y32757965D01*
X7626505Y32621094D01*
X7620000Y32560598D01*
X7620000Y32004000D01*
X8523382Y32004000D01*
X8471553Y31914228D01*
X8441736Y31783593D01*
X8451749Y31649972D01*
X8500703Y31525240D01*
X8524021Y31496000D01*
X7620000Y31496000D01*
X7620000Y30939403D01*
X5994807Y30939403D01*
X5991400Y30944013D01*
X5986775Y31014858D01*
X6021187Y31076958D01*
X6033593Y31087708D01*
X6096469Y31135389D01*
X6149860Y31205796D01*
X6187908Y31255969D01*
X6243424Y31396747D01*
X6254047Y31485209D01*
X6254047Y32521413D01*
X6243424Y32609875D01*
X6240522Y32617233D01*
X6187908Y32750653D01*
X6187905Y32750657D01*
X6096469Y32871234D01*
X5975892Y32962670D01*
X5975888Y32962673D01*
X5835111Y33018189D01*
X5835112Y33018189D01*
X5746652Y33028811D01*
X5746649Y33028811D01*
X5470500Y33028811D01*
X5402379Y33048813D01*
X5355886Y33102469D01*
X5344500Y33154811D01*
X5344500Y33941141D01*
X7827500Y33941141D01*
X7827501Y33941134D01*
X7830414Y33916010D01*
X7830416Y33916006D01*
X7875793Y33813235D01*
X7955232Y33733796D01*
X7955234Y33733795D01*
X7955235Y33733794D01*
X8058009Y33688415D01*
X8083135Y33685500D01*
X9696864Y33685501D01*
X9721991Y33688415D01*
X9824765Y33733794D01*
X9904206Y33813235D01*
X9949585Y33916009D01*
X9952500Y33941135D01*
X9952500Y33941141D01*
X10367500Y33941141D01*
X10367501Y33941134D01*
X10370414Y33916010D01*
X10370416Y33916006D01*
X10415793Y33813235D01*
X10495232Y33733796D01*
X10495234Y33733795D01*
X10495235Y33733794D01*
X10598009Y33688415D01*
X10623135Y33685500D01*
X12236864Y33685501D01*
X12261991Y33688415D01*
X12364765Y33733794D01*
X12444206Y33813235D01*
X12489585Y33916009D01*
X12492500Y33941135D01*
X12492499Y35554864D01*
X12489585Y35579991D01*
X12444206Y35682765D01*
X12444206Y35682766D01*
X12364767Y35762205D01*
X12364765Y35762206D01*
X12261989Y35807586D01*
X12261990Y35807586D01*
X12236868Y35810500D01*
X10623140Y35810500D01*
X10623133Y35810499D01*
X10598009Y35807586D01*
X10598005Y35807584D01*
X10495234Y35762207D01*
X10415795Y35682768D01*
X10415794Y35682766D01*
X10370414Y35579991D01*
X10367500Y35554871D01*
X10367500Y33941141D01*
X9952500Y33941141D01*
X9952499Y35554864D01*
X9949585Y35579991D01*
X9904206Y35682765D01*
X9904206Y35682766D01*
X9824767Y35762205D01*
X9824765Y35762206D01*
X9721989Y35807586D01*
X9721990Y35807586D01*
X9696868Y35810500D01*
X8083140Y35810500D01*
X8083133Y35810499D01*
X8058009Y35807586D01*
X8058005Y35807584D01*
X7955234Y35762207D01*
X7875795Y35682768D01*
X7875794Y35682766D01*
X7830414Y35579991D01*
X7827500Y35554871D01*
X7827500Y33941141D01*
X5344500Y33941141D01*
X5344500Y36246206D01*
X16107500Y36246206D01*
X16118122Y36157747D01*
X16173638Y36016970D01*
X16173641Y36016966D01*
X16265077Y35896389D01*
X16385654Y35804953D01*
X16385658Y35804950D01*
X16526435Y35749434D01*
X16526434Y35749434D01*
X16554394Y35746077D01*
X16614898Y35738811D01*
X16614901Y35738811D01*
X17601099Y35738811D01*
X17601102Y35738811D01*
X17689564Y35749434D01*
X17830342Y35804950D01*
X17950922Y35896389D01*
X18042361Y36016969D01*
X18097877Y36157747D01*
X18108500Y36246206D01*
X18647500Y36246206D01*
X18658122Y36157747D01*
X18713638Y36016970D01*
X18713641Y36016966D01*
X18805077Y35896389D01*
X18925654Y35804953D01*
X18925658Y35804950D01*
X19066435Y35749434D01*
X19066434Y35749434D01*
X19094394Y35746077D01*
X19154898Y35738811D01*
X19154901Y35738811D01*
X20141099Y35738811D01*
X20141102Y35738811D01*
X20229564Y35749434D01*
X20370342Y35804950D01*
X20490922Y35896389D01*
X20582361Y36016969D01*
X20637877Y36157747D01*
X20648500Y36246209D01*
X20648500Y36857413D01*
X20637877Y36945875D01*
X20627118Y36973157D01*
X20597251Y37048895D01*
X24272500Y37048895D01*
X24283122Y36960436D01*
X24338638Y36819659D01*
X24338641Y36819655D01*
X24430077Y36699078D01*
X24550654Y36607642D01*
X24550658Y36607639D01*
X24691435Y36552123D01*
X24691434Y36552123D01*
X24719394Y36548766D01*
X24779898Y36541500D01*
X24779901Y36541500D01*
X25391099Y36541500D01*
X25391102Y36541500D01*
X25479564Y36552123D01*
X25620342Y36607639D01*
X25740922Y36699078D01*
X25832361Y36819658D01*
X25887877Y36960436D01*
X25898500Y37048898D01*
X25898500Y38035102D01*
X25887877Y38123564D01*
X25832361Y38264342D01*
X25804466Y38301127D01*
X25740922Y38384923D01*
X25620345Y38476359D01*
X25620341Y38476362D01*
X25479564Y38531878D01*
X25479565Y38531878D01*
X25391105Y38542500D01*
X25391102Y38542500D01*
X24779898Y38542500D01*
X24779894Y38542500D01*
X24691435Y38531878D01*
X24550658Y38476362D01*
X24550654Y38476359D01*
X24430077Y38384923D01*
X24338641Y38264346D01*
X24338638Y38264342D01*
X24283122Y38123565D01*
X24272500Y38035106D01*
X24272500Y37048895D01*
X20597251Y37048895D01*
X20582361Y37086653D01*
X20582358Y37086657D01*
X20490922Y37207234D01*
X20370345Y37298670D01*
X20370341Y37298673D01*
X20247548Y37347096D01*
X20191515Y37390694D01*
X20167947Y37457665D01*
X20184328Y37526746D01*
X20235457Y37576004D01*
X20247548Y37581526D01*
X20252163Y37583346D01*
X20370342Y37629950D01*
X20490922Y37721389D01*
X20582361Y37841969D01*
X20637877Y37982747D01*
X20648500Y38071209D01*
X20648500Y38682413D01*
X20637877Y38770875D01*
X20637794Y38771085D01*
X20582361Y38911653D01*
X20582358Y38911657D01*
X20490922Y39032234D01*
X20370345Y39123670D01*
X20370341Y39123673D01*
X20229564Y39179189D01*
X20229565Y39179189D01*
X20141105Y39189811D01*
X20141102Y39189811D01*
X19154898Y39189811D01*
X19154894Y39189811D01*
X19066435Y39179189D01*
X18925658Y39123673D01*
X18925654Y39123670D01*
X18805077Y39032234D01*
X18713641Y38911657D01*
X18713638Y38911653D01*
X18658122Y38770876D01*
X18647500Y38682417D01*
X18647500Y38071206D01*
X18658122Y37982747D01*
X18713638Y37841970D01*
X18713641Y37841966D01*
X18805077Y37721389D01*
X18925654Y37629953D01*
X18925658Y37629950D01*
X19048451Y37581526D01*
X19104484Y37537928D01*
X19128052Y37470957D01*
X19111670Y37401876D01*
X19060542Y37352618D01*
X19048451Y37347096D01*
X18925658Y37298673D01*
X18925654Y37298670D01*
X18805077Y37207234D01*
X18713641Y37086657D01*
X18713638Y37086653D01*
X18658122Y36945876D01*
X18647500Y36857417D01*
X18647500Y36246206D01*
X18108500Y36246206D01*
X18108500Y36246209D01*
X18108500Y36857413D01*
X18097877Y36945875D01*
X18087118Y36973157D01*
X18042361Y37086653D01*
X18042358Y37086657D01*
X17950922Y37207234D01*
X17830345Y37298670D01*
X17830341Y37298673D01*
X17707548Y37347096D01*
X17651515Y37390694D01*
X17627947Y37457665D01*
X17644328Y37526746D01*
X17695457Y37576004D01*
X17707548Y37581526D01*
X17712163Y37583346D01*
X17830342Y37629950D01*
X17950922Y37721389D01*
X18042361Y37841969D01*
X18097877Y37982747D01*
X18108500Y38071209D01*
X18108500Y38682413D01*
X18097877Y38770875D01*
X18097794Y38771085D01*
X18042361Y38911653D01*
X18042358Y38911657D01*
X17950922Y39032234D01*
X17830345Y39123670D01*
X17830341Y39123673D01*
X17689564Y39179189D01*
X17689565Y39179189D01*
X17601105Y39189811D01*
X17601102Y39189811D01*
X16614898Y39189811D01*
X16614894Y39189811D01*
X16526435Y39179189D01*
X16385658Y39123673D01*
X16385654Y39123670D01*
X16265077Y39032234D01*
X16173641Y38911657D01*
X16173638Y38911653D01*
X16118122Y38770876D01*
X16107500Y38682417D01*
X16107500Y38071206D01*
X16118122Y37982747D01*
X16173638Y37841970D01*
X16173641Y37841966D01*
X16265077Y37721389D01*
X16385654Y37629953D01*
X16385658Y37629950D01*
X16508451Y37581526D01*
X16564484Y37537928D01*
X16588052Y37470957D01*
X16571670Y37401876D01*
X16520542Y37352618D01*
X16508451Y37347096D01*
X16385658Y37298673D01*
X16385654Y37298670D01*
X16265077Y37207234D01*
X16173641Y37086657D01*
X16173638Y37086653D01*
X16118122Y36945876D01*
X16107500Y36857417D01*
X16107500Y36246206D01*
X5344500Y36246206D01*
X5344500Y39275141D01*
X21125500Y39275141D01*
X21125501Y39275134D01*
X21128414Y39250010D01*
X21128416Y39250006D01*
X21173793Y39147235D01*
X21253232Y39067796D01*
X21253234Y39067795D01*
X21253235Y39067794D01*
X21356009Y39022415D01*
X21381135Y39019500D01*
X22994864Y39019501D01*
X23019991Y39022415D01*
X23122765Y39067794D01*
X23202206Y39147235D01*
X23247585Y39250009D01*
X23250500Y39275135D01*
X23250500Y39275141D01*
X23665500Y39275141D01*
X23665501Y39275134D01*
X23668414Y39250010D01*
X23668416Y39250006D01*
X23713793Y39147235D01*
X23793232Y39067796D01*
X23793234Y39067795D01*
X23793235Y39067794D01*
X23896009Y39022415D01*
X23921135Y39019500D01*
X25534864Y39019501D01*
X25559991Y39022415D01*
X25662765Y39067794D01*
X25742206Y39147235D01*
X25787585Y39250009D01*
X25790500Y39275135D01*
X25790500Y39361734D01*
X34097000Y39361734D01*
X34099854Y39331300D01*
X34099855Y39331296D01*
X34144706Y39203119D01*
X34144708Y39203115D01*
X34225349Y39093850D01*
X34334614Y39013209D01*
X34334618Y39013207D01*
X34462801Y38968354D01*
X34493234Y38965500D01*
X34493236Y38965500D01*
X34901764Y38965500D01*
X34901766Y38965500D01*
X34901768Y38965501D01*
X34901782Y38965501D01*
X34918928Y38967109D01*
X34988619Y38953556D01*
X35039920Y38904477D01*
X35056542Y38835453D01*
X35051227Y38808247D01*
X35051490Y38808189D01*
X35049854Y38800701D01*
X35047000Y38770267D01*
X35047000Y37486734D01*
X35049854Y37456300D01*
X35049855Y37456296D01*
X35094706Y37328119D01*
X35094708Y37328115D01*
X35175349Y37218850D01*
X35284614Y37138209D01*
X35284618Y37138207D01*
X35412801Y37093354D01*
X35443234Y37090500D01*
X35443236Y37090500D01*
X35851764Y37090500D01*
X35851766Y37090500D01*
X35882199Y37093354D01*
X36010382Y37138207D01*
X36119650Y37218850D01*
X36200293Y37328118D01*
X36245146Y37456301D01*
X36248000Y37486734D01*
X36248000Y38770266D01*
X36245146Y38800699D01*
X36200293Y38928882D01*
X36200291Y38928886D01*
X36119650Y39038151D01*
X36010385Y39118792D01*
X36010381Y39118794D01*
X35882204Y39163645D01*
X35882200Y39163646D01*
X35851766Y39166500D01*
X35443234Y39166500D01*
X35443221Y39166500D01*
X35426064Y39164891D01*
X35356374Y39178448D01*
X35305076Y39227530D01*
X35288457Y39296554D01*
X35293773Y39323754D01*
X35293510Y39323811D01*
X35295143Y39331296D01*
X35295146Y39331301D01*
X35295483Y39334895D01*
X36718500Y39334895D01*
X36729122Y39246436D01*
X36784638Y39105659D01*
X36784641Y39105655D01*
X36876077Y38985078D01*
X36996654Y38893642D01*
X36996658Y38893639D01*
X37137435Y38838123D01*
X37137434Y38838123D01*
X37158804Y38835557D01*
X37225898Y38827500D01*
X37225901Y38827500D01*
X37837099Y38827500D01*
X37837102Y38827500D01*
X37925564Y38838123D01*
X38066342Y38893639D01*
X38186922Y38985078D01*
X38278361Y39105658D01*
X38326785Y39228452D01*
X38370383Y39284485D01*
X38437354Y39308053D01*
X38506435Y39291672D01*
X38555693Y39240543D01*
X38561215Y39228452D01*
X38609638Y39105659D01*
X38609641Y39105655D01*
X38701077Y38985078D01*
X38821654Y38893642D01*
X38821658Y38893639D01*
X38962435Y38838123D01*
X38962434Y38838123D01*
X38983804Y38835557D01*
X39050898Y38827500D01*
X39050901Y38827500D01*
X39662099Y38827500D01*
X39662102Y38827500D01*
X39750564Y38838123D01*
X39891342Y38893639D01*
X40011922Y38985078D01*
X40082387Y39078000D01*
X40477796Y39078000D01*
X40478122Y39070949D01*
X40479100Y39049790D01*
X40509844Y38941738D01*
X40509845Y38941736D01*
X40577549Y38852081D01*
X40673068Y38792939D01*
X40783501Y38772295D01*
X41803321Y38772295D01*
X41808456Y38772191D01*
X41852900Y38770377D01*
X41855251Y38770309D01*
X41859951Y38770171D01*
X41859951Y38770172D01*
X41859955Y38770171D01*
X41970736Y38788859D01*
X41999178Y38799304D01*
X42070017Y38804009D01*
X42132156Y38769669D01*
X42138422Y38762857D01*
X42198279Y38692774D01*
X42374227Y38542500D01*
X42389842Y38529164D01*
X42604642Y38397534D01*
X42837390Y38301127D01*
X43082353Y38242317D01*
X43270619Y38227500D01*
X43270621Y38227500D01*
X43396381Y38227500D01*
X43396383Y38227500D01*
X43584649Y38242317D01*
X43829612Y38301127D01*
X44062360Y38397534D01*
X44277160Y38529164D01*
X44456588Y38682410D01*
X44468717Y38692769D01*
X44468719Y38692771D01*
X44468718Y38692771D01*
X44468725Y38692776D01*
X44529111Y38763481D01*
X44588560Y38802288D01*
X44659554Y38802796D01*
X44668297Y38799947D01*
X44696740Y38789518D01*
X44696763Y38789510D01*
X44703417Y38787157D01*
X44814607Y38771085D01*
X44841332Y38772188D01*
X44846527Y38772295D01*
X45883489Y38772295D01*
X45883501Y38772295D01*
X45911708Y38773599D01*
X46019765Y38804344D01*
X46109420Y38872048D01*
X46168562Y38967567D01*
X46189206Y39078000D01*
X46189206Y40578000D01*
X46187902Y40606207D01*
X46157157Y40714264D01*
X46089453Y40803919D01*
X45993934Y40863061D01*
X45993933Y40863062D01*
X45993932Y40863062D01*
X45883511Y40883704D01*
X45883503Y40883705D01*
X45883501Y40883705D01*
X45883497Y40883705D01*
X44863681Y40883705D01*
X44858545Y40883810D01*
X44814099Y40885624D01*
X44807050Y40885830D01*
X44696265Y40867141D01*
X44667820Y40856696D01*
X44596980Y40851993D01*
X44534842Y40886335D01*
X44528579Y40893144D01*
X44522296Y40900500D01*
X44468725Y40963224D01*
X44468723Y40963226D01*
X44468722Y40963227D01*
X44277163Y41126834D01*
X44277161Y41126835D01*
X44277160Y41126836D01*
X44062360Y41258466D01*
X43829612Y41354873D01*
X43829610Y41354874D01*
X43654706Y41396864D01*
X43584649Y41413683D01*
X43396383Y41428500D01*
X43270619Y41428500D01*
X43082353Y41413683D01*
X42837391Y41354874D01*
X42604643Y41258467D01*
X42389840Y41126835D01*
X42389838Y41126834D01*
X42198275Y40963224D01*
X42137889Y40892521D01*
X42078438Y40853712D01*
X42007444Y40853206D01*
X41998704Y40856053D01*
X41996950Y40856696D01*
X41993161Y40858086D01*
X41970213Y40866500D01*
X41963587Y40868843D01*
X41907990Y40876879D01*
X41852395Y40884915D01*
X41852393Y40884915D01*
X41825670Y40883812D01*
X41820475Y40883705D01*
X40783501Y40883705D01*
X40755290Y40882401D01*
X40647238Y40851657D01*
X40557582Y40783952D01*
X40498439Y40688432D01*
X40498439Y40688431D01*
X40477797Y40578011D01*
X40477796Y40578003D01*
X40477796Y40578000D01*
X40477796Y39078000D01*
X40082387Y39078000D01*
X40103361Y39105658D01*
X40158877Y39246436D01*
X40169500Y39334898D01*
X40169500Y40321102D01*
X40158877Y40409564D01*
X40103361Y40550342D01*
X40082379Y40578011D01*
X40011922Y40670923D01*
X39891345Y40762359D01*
X39891341Y40762362D01*
X39750564Y40817878D01*
X39750565Y40817878D01*
X39662105Y40828500D01*
X39662102Y40828500D01*
X39050898Y40828500D01*
X39050894Y40828500D01*
X38962435Y40817878D01*
X38821658Y40762362D01*
X38821654Y40762359D01*
X38701077Y40670923D01*
X38609641Y40550346D01*
X38609638Y40550342D01*
X38561215Y40427549D01*
X38517617Y40371516D01*
X38450646Y40347948D01*
X38381565Y40364330D01*
X38332307Y40415458D01*
X38326785Y40427549D01*
X38278361Y40550342D01*
X38278358Y40550346D01*
X38186922Y40670923D01*
X38066345Y40762359D01*
X38066341Y40762362D01*
X37925564Y40817878D01*
X37925565Y40817878D01*
X37837105Y40828500D01*
X37837102Y40828500D01*
X37225898Y40828500D01*
X37225894Y40828500D01*
X37137435Y40817878D01*
X36996658Y40762362D01*
X36996654Y40762359D01*
X36876077Y40670923D01*
X36784641Y40550346D01*
X36784638Y40550342D01*
X36729122Y40409565D01*
X36718500Y40321106D01*
X36718500Y39334895D01*
X35295483Y39334895D01*
X35298000Y39361734D01*
X35298000Y40645266D01*
X35295146Y40675699D01*
X35281652Y40714264D01*
X35273630Y40737190D01*
X35270010Y40808094D01*
X35305299Y40869699D01*
X35368293Y40902446D01*
X35404977Y40902043D01*
X35405168Y40904070D01*
X35412799Y40903355D01*
X35412801Y40903354D01*
X35443234Y40900500D01*
X35443236Y40900500D01*
X35851764Y40900500D01*
X35851766Y40900500D01*
X35882199Y40903354D01*
X36010382Y40948207D01*
X36030730Y40963224D01*
X36119650Y41028850D01*
X36200291Y41138115D01*
X36200293Y41138119D01*
X36201506Y41141584D01*
X36245146Y41266301D01*
X36248000Y41296734D01*
X36248000Y42580266D01*
X36245146Y42610699D01*
X36200293Y42738882D01*
X36200291Y42738886D01*
X36119650Y42848151D01*
X36061734Y42890895D01*
X36782000Y42890895D01*
X36792622Y42802436D01*
X36848138Y42661659D01*
X36848141Y42661655D01*
X36939577Y42541078D01*
X37060154Y42449642D01*
X37060158Y42449639D01*
X37200935Y42394123D01*
X37200934Y42394123D01*
X37222304Y42391557D01*
X37289398Y42383500D01*
X37289401Y42383500D01*
X37900599Y42383500D01*
X37900602Y42383500D01*
X37989064Y42394123D01*
X38129842Y42449639D01*
X38250422Y42541078D01*
X38341861Y42661658D01*
X38390285Y42784452D01*
X38433883Y42840485D01*
X38500854Y42864053D01*
X38569935Y42847672D01*
X38619193Y42796543D01*
X38624715Y42784452D01*
X38673138Y42661659D01*
X38673141Y42661655D01*
X38764577Y42541078D01*
X38885154Y42449642D01*
X38885158Y42449639D01*
X39025935Y42394123D01*
X39025934Y42394123D01*
X39047304Y42391557D01*
X39114398Y42383500D01*
X39114401Y42383500D01*
X39725599Y42383500D01*
X39725602Y42383500D01*
X39814064Y42394123D01*
X39954842Y42449639D01*
X40075422Y42541078D01*
X40166861Y42661658D01*
X40222377Y42802436D01*
X40226694Y42838384D01*
X40254675Y42903634D01*
X40313491Y42943399D01*
X40384468Y42945052D01*
X40445072Y42908070D01*
X40476061Y42844193D01*
X40477795Y42823362D01*
X40477795Y42634000D01*
X40478121Y42626949D01*
X40479099Y42605790D01*
X40509843Y42497738D01*
X40509844Y42497736D01*
X40577548Y42408081D01*
X40673067Y42348939D01*
X40757928Y42333076D01*
X40783248Y42328342D01*
X40783500Y42328295D01*
X41803320Y42328295D01*
X41808455Y42328191D01*
X41852899Y42326377D01*
X41855250Y42326309D01*
X41859950Y42326171D01*
X41859950Y42326172D01*
X41859954Y42326171D01*
X41970735Y42344859D01*
X41999177Y42355304D01*
X42070016Y42360009D01*
X42132155Y42325669D01*
X42138421Y42318857D01*
X42198278Y42248774D01*
X42373521Y42099102D01*
X42389841Y42085164D01*
X42604641Y41953534D01*
X42837389Y41857127D01*
X43082352Y41798317D01*
X43270618Y41783500D01*
X43270620Y41783500D01*
X43396380Y41783500D01*
X43396382Y41783500D01*
X43584648Y41798317D01*
X43829611Y41857127D01*
X44062359Y41953534D01*
X44277159Y42085164D01*
X44468724Y42248776D01*
X44529110Y42319481D01*
X44588559Y42358288D01*
X44659553Y42358796D01*
X44668296Y42355947D01*
X44696739Y42345518D01*
X44696762Y42345510D01*
X44703416Y42343157D01*
X44814606Y42327085D01*
X44841331Y42328188D01*
X44846526Y42328295D01*
X45883488Y42328295D01*
X45883500Y42328295D01*
X45911707Y42329599D01*
X46019764Y42360344D01*
X46109419Y42428048D01*
X46168561Y42523567D01*
X46189205Y42634000D01*
X46189205Y44134000D01*
X46187901Y44162207D01*
X46178992Y44193517D01*
X46165252Y44241810D01*
X46157156Y44270264D01*
X46089452Y44359919D01*
X45993933Y44419061D01*
X45993932Y44419062D01*
X45993931Y44419062D01*
X45883510Y44439704D01*
X45883502Y44439705D01*
X45883500Y44439705D01*
X45883496Y44439705D01*
X44863680Y44439705D01*
X44858544Y44439810D01*
X44814098Y44441624D01*
X44807049Y44441830D01*
X44696264Y44423141D01*
X44667819Y44412696D01*
X44596979Y44407993D01*
X44534841Y44442335D01*
X44528578Y44449144D01*
X44468721Y44519227D01*
X44277162Y44682834D01*
X44277160Y44682835D01*
X44277159Y44682836D01*
X44062359Y44814466D01*
X43979844Y44848645D01*
X43829609Y44910874D01*
X43662036Y44951104D01*
X43584648Y44969683D01*
X43396382Y44984500D01*
X43270618Y44984500D01*
X43082352Y44969683D01*
X42837390Y44910874D01*
X42604642Y44814467D01*
X42389839Y44682835D01*
X42389837Y44682834D01*
X42198274Y44519224D01*
X42137888Y44448521D01*
X42078437Y44409712D01*
X42007443Y44409206D01*
X41998703Y44412053D01*
X41996949Y44412696D01*
X41993160Y44414086D01*
X41970212Y44422500D01*
X41963586Y44424843D01*
X41907989Y44432879D01*
X41852394Y44440915D01*
X41852392Y44440915D01*
X41825669Y44439812D01*
X41820474Y44439705D01*
X40783500Y44439705D01*
X40755289Y44438401D01*
X40647237Y44407657D01*
X40557581Y44339952D01*
X40498438Y44244432D01*
X40498438Y44244431D01*
X40477796Y44134011D01*
X40477795Y44133996D01*
X40477795Y43944639D01*
X40457793Y43876518D01*
X40404137Y43830025D01*
X40333863Y43819921D01*
X40269283Y43849415D01*
X40230899Y43909141D01*
X40226694Y43929616D01*
X40222377Y43965565D01*
X40166861Y44106342D01*
X40166858Y44106346D01*
X40075422Y44226923D01*
X39954845Y44318359D01*
X39954841Y44318362D01*
X39814064Y44373878D01*
X39814065Y44373878D01*
X39725605Y44384500D01*
X39725602Y44384500D01*
X39114398Y44384500D01*
X39114394Y44384500D01*
X39025935Y44373878D01*
X38885158Y44318362D01*
X38885154Y44318359D01*
X38764577Y44226923D01*
X38673141Y44106346D01*
X38673138Y44106342D01*
X38624715Y43983549D01*
X38581117Y43927516D01*
X38514146Y43903948D01*
X38445065Y43920330D01*
X38395807Y43971458D01*
X38390285Y43983549D01*
X38341861Y44106342D01*
X38341858Y44106346D01*
X38250422Y44226923D01*
X38129845Y44318359D01*
X38129841Y44318362D01*
X37989064Y44373878D01*
X37989065Y44373878D01*
X37900605Y44384500D01*
X37900602Y44384500D01*
X37289398Y44384500D01*
X37289394Y44384500D01*
X37200935Y44373878D01*
X37060158Y44318362D01*
X37060154Y44318359D01*
X36939577Y44226923D01*
X36848141Y44106346D01*
X36848138Y44106342D01*
X36792622Y43965565D01*
X36782000Y43877106D01*
X36782000Y42890895D01*
X36061734Y42890895D01*
X36010385Y42928792D01*
X36010381Y42928794D01*
X35882204Y42973645D01*
X35882200Y42973646D01*
X35851766Y42976500D01*
X35443234Y42976500D01*
X35443221Y42976500D01*
X35426064Y42974891D01*
X35356374Y42988448D01*
X35305076Y43037530D01*
X35288457Y43106554D01*
X35293773Y43133754D01*
X35293510Y43133811D01*
X35295143Y43141296D01*
X35295146Y43141301D01*
X35298000Y43171734D01*
X35298000Y44455266D01*
X35295146Y44485699D01*
X35264822Y44572359D01*
X35250293Y44613882D01*
X35250291Y44613886D01*
X35169650Y44723151D01*
X35060385Y44803792D01*
X35060381Y44803794D01*
X34932204Y44848645D01*
X34932200Y44848646D01*
X34901766Y44851500D01*
X34493234Y44851500D01*
X34493233Y44851500D01*
X34462799Y44848646D01*
X34462795Y44848645D01*
X34334618Y44803794D01*
X34334614Y44803792D01*
X34225349Y44723151D01*
X34144708Y44613886D01*
X34144706Y44613882D01*
X34099855Y44485705D01*
X34099854Y44485701D01*
X34097000Y44455267D01*
X34097000Y43171734D01*
X34099854Y43141300D01*
X34099855Y43141296D01*
X34144706Y43013119D01*
X34144708Y43013115D01*
X34225349Y42903850D01*
X34334614Y42823209D01*
X34334618Y42823207D01*
X34410819Y42796543D01*
X34462801Y42778354D01*
X34493234Y42775500D01*
X34493236Y42775500D01*
X34901764Y42775500D01*
X34901766Y42775500D01*
X34901768Y42775501D01*
X34901782Y42775501D01*
X34918928Y42777109D01*
X34988619Y42763556D01*
X35039920Y42714477D01*
X35056542Y42645453D01*
X35051227Y42618247D01*
X35051490Y42618189D01*
X35049854Y42610701D01*
X35047000Y42580267D01*
X35047000Y41296734D01*
X35049854Y41266301D01*
X35071370Y41204810D01*
X35074988Y41133906D01*
X35039699Y41072301D01*
X34976705Y41039555D01*
X34940020Y41039942D01*
X34939832Y41037930D01*
X34932199Y41038646D01*
X34901766Y41041500D01*
X34493234Y41041500D01*
X34493233Y41041500D01*
X34462799Y41038646D01*
X34462795Y41038645D01*
X34334618Y40993794D01*
X34334614Y40993792D01*
X34225349Y40913151D01*
X34144708Y40803886D01*
X34144706Y40803882D01*
X34099855Y40675705D01*
X34099854Y40675701D01*
X34097000Y40645267D01*
X34097000Y39361734D01*
X25790500Y39361734D01*
X25790499Y40888864D01*
X25787585Y40913991D01*
X25742206Y41016765D01*
X25742206Y41016766D01*
X25662767Y41096205D01*
X25662765Y41096206D01*
X25624968Y41112895D01*
X29098500Y41112895D01*
X29109122Y41024436D01*
X29164638Y40883659D01*
X29164641Y40883655D01*
X29256077Y40763078D01*
X29376654Y40671642D01*
X29376658Y40671639D01*
X29517435Y40616123D01*
X29517434Y40616123D01*
X29545394Y40612766D01*
X29605898Y40605500D01*
X29605901Y40605500D01*
X30217099Y40605500D01*
X30217102Y40605500D01*
X30305564Y40616123D01*
X30446342Y40671639D01*
X30566922Y40763078D01*
X30658361Y40883658D01*
X30706785Y41006452D01*
X30750383Y41062485D01*
X30817354Y41086053D01*
X30886435Y41069672D01*
X30935693Y41018543D01*
X30941215Y41006452D01*
X30989638Y40883659D01*
X30989641Y40883655D01*
X31081077Y40763078D01*
X31201654Y40671642D01*
X31201658Y40671639D01*
X31342435Y40616123D01*
X31342434Y40616123D01*
X31370394Y40612766D01*
X31430898Y40605500D01*
X31430901Y40605500D01*
X32042099Y40605500D01*
X32042102Y40605500D01*
X32130564Y40616123D01*
X32271342Y40671639D01*
X32391922Y40763078D01*
X32483361Y40883658D01*
X32538877Y41024436D01*
X32549500Y41112898D01*
X32549500Y42099102D01*
X32538877Y42187564D01*
X32495322Y42298010D01*
X32483361Y42328342D01*
X32483358Y42328346D01*
X32391924Y42448920D01*
X32391922Y42448921D01*
X32391922Y42448922D01*
X32296076Y42521605D01*
X32253885Y42578701D01*
X32249260Y42649547D01*
X32283671Y42711647D01*
X32296068Y42722390D01*
X32391922Y42795078D01*
X32483361Y42915658D01*
X32538877Y43056436D01*
X32549500Y43144898D01*
X32549500Y44131102D01*
X32538877Y44219564D01*
X32535975Y44226922D01*
X32483361Y44360342D01*
X32483358Y44360346D01*
X32391922Y44480923D01*
X32271345Y44572359D01*
X32271341Y44572362D01*
X32130564Y44627878D01*
X32130565Y44627878D01*
X32042105Y44638500D01*
X32042102Y44638500D01*
X31430898Y44638500D01*
X31430894Y44638500D01*
X31342435Y44627878D01*
X31201658Y44572362D01*
X31201654Y44572359D01*
X31081077Y44480923D01*
X30989641Y44360346D01*
X30989638Y44360342D01*
X30941215Y44237549D01*
X30897617Y44181516D01*
X30830646Y44157948D01*
X30761565Y44174330D01*
X30712307Y44225458D01*
X30706785Y44237549D01*
X30658361Y44360342D01*
X30658358Y44360346D01*
X30566922Y44480923D01*
X30446345Y44572359D01*
X30446341Y44572362D01*
X30305564Y44627878D01*
X30305565Y44627878D01*
X30217105Y44638500D01*
X30217102Y44638500D01*
X29605898Y44638500D01*
X29605894Y44638500D01*
X29517435Y44627878D01*
X29376658Y44572362D01*
X29376654Y44572359D01*
X29256077Y44480923D01*
X29164641Y44360346D01*
X29164638Y44360342D01*
X29109122Y44219565D01*
X29098500Y44131106D01*
X29098500Y43144895D01*
X29109122Y43056436D01*
X29164638Y42915659D01*
X29164641Y42915655D01*
X29256077Y42795078D01*
X29351921Y42722397D01*
X29394114Y42665298D01*
X29398739Y42594452D01*
X29364327Y42532353D01*
X29351921Y42521603D01*
X29256077Y42448923D01*
X29164641Y42328346D01*
X29164638Y42328342D01*
X29109122Y42187565D01*
X29098500Y42099106D01*
X29098500Y41112895D01*
X25624968Y41112895D01*
X25559989Y41141586D01*
X25559990Y41141586D01*
X25534868Y41144500D01*
X23921140Y41144500D01*
X23921133Y41144499D01*
X23896009Y41141586D01*
X23896005Y41141584D01*
X23793234Y41096207D01*
X23713795Y41016768D01*
X23713794Y41016766D01*
X23668414Y40913991D01*
X23665500Y40888871D01*
X23665500Y39275141D01*
X23250500Y39275141D01*
X23250499Y40888864D01*
X23247585Y40913991D01*
X23202206Y41016765D01*
X23202206Y41016766D01*
X23122767Y41096205D01*
X23122765Y41096206D01*
X23019989Y41141586D01*
X23019990Y41141586D01*
X22994868Y41144500D01*
X21381140Y41144500D01*
X21381133Y41144499D01*
X21356009Y41141586D01*
X21356005Y41141584D01*
X21253234Y41096207D01*
X21173795Y41016768D01*
X21173794Y41016766D01*
X21128414Y40913991D01*
X21125500Y40888871D01*
X21125500Y39275141D01*
X5344500Y39275141D01*
X5344500Y39783141D01*
X13505500Y39783141D01*
X13505501Y39783134D01*
X13508414Y39758010D01*
X13508416Y39758006D01*
X13553793Y39655235D01*
X13633232Y39575796D01*
X13633234Y39575795D01*
X13633235Y39575794D01*
X13736009Y39530415D01*
X13761135Y39527500D01*
X15374864Y39527501D01*
X15399991Y39530415D01*
X15502765Y39575794D01*
X15582206Y39655235D01*
X15627585Y39758009D01*
X15630500Y39783135D01*
X15630500Y39832452D01*
X16045500Y39832452D01*
X16045501Y39832445D01*
X16048414Y39807321D01*
X16048416Y39807317D01*
X16093793Y39704546D01*
X16173232Y39625107D01*
X16173234Y39625106D01*
X16173235Y39625105D01*
X16276009Y39579726D01*
X16301135Y39576811D01*
X17914864Y39576812D01*
X17939991Y39579726D01*
X18042765Y39625105D01*
X18122206Y39704546D01*
X18167585Y39807320D01*
X18170500Y39832446D01*
X18170500Y39832452D01*
X18585500Y39832452D01*
X18585501Y39832445D01*
X18588414Y39807321D01*
X18588416Y39807317D01*
X18633793Y39704546D01*
X18713232Y39625107D01*
X18713234Y39625106D01*
X18713235Y39625105D01*
X18816009Y39579726D01*
X18841135Y39576811D01*
X20454864Y39576812D01*
X20479991Y39579726D01*
X20582765Y39625105D01*
X20662206Y39704546D01*
X20707585Y39807320D01*
X20710500Y39832446D01*
X20710499Y41446175D01*
X20707585Y41471302D01*
X20683979Y41524765D01*
X20662206Y41574077D01*
X20582767Y41653516D01*
X20582765Y41653517D01*
X20479989Y41698897D01*
X20479990Y41698897D01*
X20454868Y41701811D01*
X18841140Y41701811D01*
X18841133Y41701810D01*
X18816009Y41698897D01*
X18816005Y41698895D01*
X18713234Y41653518D01*
X18633795Y41574079D01*
X18633794Y41574077D01*
X18588414Y41471302D01*
X18585500Y41446182D01*
X18585500Y39832452D01*
X18170500Y39832452D01*
X18170499Y41446175D01*
X18167585Y41471302D01*
X18143979Y41524765D01*
X18122206Y41574077D01*
X18042767Y41653516D01*
X18042765Y41653517D01*
X17939989Y41698897D01*
X17939990Y41698897D01*
X17914868Y41701811D01*
X16301140Y41701811D01*
X16301133Y41701810D01*
X16276009Y41698897D01*
X16276005Y41698895D01*
X16173234Y41653518D01*
X16093795Y41574079D01*
X16093794Y41574077D01*
X16048414Y41471302D01*
X16045500Y41446182D01*
X16045500Y39832452D01*
X15630500Y39832452D01*
X15630499Y41396864D01*
X15627585Y41421991D01*
X15582206Y41524765D01*
X15582206Y41524766D01*
X15502767Y41604205D01*
X15502765Y41604206D01*
X15399989Y41649586D01*
X15399990Y41649586D01*
X15374868Y41652500D01*
X13761140Y41652500D01*
X13761133Y41652499D01*
X13736009Y41649586D01*
X13736005Y41649584D01*
X13633234Y41604207D01*
X13553795Y41524768D01*
X13553794Y41524766D01*
X13508414Y41421991D01*
X13505500Y41396871D01*
X13505500Y39783141D01*
X5344500Y39783141D01*
X5344500Y41815141D01*
X21125500Y41815141D01*
X21125501Y41815134D01*
X21128414Y41790010D01*
X21128416Y41790006D01*
X21173793Y41687235D01*
X21253232Y41607796D01*
X21253234Y41607795D01*
X21253235Y41607794D01*
X21356009Y41562415D01*
X21381135Y41559500D01*
X22994864Y41559501D01*
X23019991Y41562415D01*
X23122765Y41607794D01*
X23202206Y41687235D01*
X23247585Y41790009D01*
X23250500Y41815135D01*
X23250500Y41815141D01*
X23665500Y41815141D01*
X23665501Y41815134D01*
X23668414Y41790010D01*
X23668416Y41790006D01*
X23713793Y41687235D01*
X23793232Y41607796D01*
X23793234Y41607795D01*
X23793235Y41607794D01*
X23896009Y41562415D01*
X23921135Y41559500D01*
X25534864Y41559501D01*
X25559991Y41562415D01*
X25662765Y41607794D01*
X25742206Y41687235D01*
X25787585Y41790009D01*
X25790500Y41815135D01*
X25790499Y43428864D01*
X25787585Y43453991D01*
X25742206Y43556765D01*
X25742206Y43556766D01*
X25662767Y43636205D01*
X25662765Y43636206D01*
X25559989Y43681586D01*
X25559990Y43681586D01*
X25534868Y43684500D01*
X23921140Y43684500D01*
X23921133Y43684499D01*
X23896009Y43681586D01*
X23896005Y43681584D01*
X23793234Y43636207D01*
X23713795Y43556768D01*
X23713794Y43556766D01*
X23668414Y43453991D01*
X23665500Y43428871D01*
X23665500Y41815141D01*
X23250500Y41815141D01*
X23250499Y43428864D01*
X23247585Y43453991D01*
X23202206Y43556765D01*
X23202206Y43556766D01*
X23122767Y43636205D01*
X23122765Y43636206D01*
X23019989Y43681586D01*
X23019990Y43681586D01*
X22994868Y43684500D01*
X21381140Y43684500D01*
X21381133Y43684499D01*
X21356009Y43681586D01*
X21356005Y43681584D01*
X21253234Y43636207D01*
X21173795Y43556768D01*
X21173794Y43556766D01*
X21128414Y43453991D01*
X21125500Y43428871D01*
X21125500Y41815141D01*
X5344500Y41815141D01*
X5344500Y42323141D01*
X13505500Y42323141D01*
X13505501Y42323134D01*
X13508414Y42298010D01*
X13508416Y42298006D01*
X13553793Y42195235D01*
X13633232Y42115796D01*
X13633234Y42115795D01*
X13633235Y42115794D01*
X13736009Y42070415D01*
X13761135Y42067500D01*
X15374864Y42067501D01*
X15399991Y42070415D01*
X15502765Y42115794D01*
X15582206Y42195235D01*
X15627585Y42298009D01*
X15630500Y42323135D01*
X15630500Y42372452D01*
X16045500Y42372452D01*
X16045501Y42372445D01*
X16048414Y42347321D01*
X16048416Y42347317D01*
X16093793Y42244546D01*
X16173232Y42165107D01*
X16173234Y42165106D01*
X16173235Y42165105D01*
X16276009Y42119726D01*
X16301135Y42116811D01*
X17914864Y42116812D01*
X17939991Y42119726D01*
X18042765Y42165105D01*
X18122206Y42244546D01*
X18167585Y42347320D01*
X18170500Y42372446D01*
X18170500Y42372452D01*
X18585500Y42372452D01*
X18585501Y42372445D01*
X18588414Y42347321D01*
X18588416Y42347317D01*
X18633793Y42244546D01*
X18713232Y42165107D01*
X18713234Y42165106D01*
X18713235Y42165105D01*
X18816009Y42119726D01*
X18841135Y42116811D01*
X20454864Y42116812D01*
X20479991Y42119726D01*
X20582765Y42165105D01*
X20662206Y42244546D01*
X20707585Y42347320D01*
X20710500Y42372446D01*
X20710499Y43986175D01*
X20707585Y44011302D01*
X20683979Y44064765D01*
X20662206Y44114077D01*
X20582767Y44193516D01*
X20582765Y44193517D01*
X20479989Y44238897D01*
X20479990Y44238897D01*
X20454868Y44241811D01*
X18841140Y44241811D01*
X18841133Y44241810D01*
X18816009Y44238897D01*
X18816005Y44238895D01*
X18713234Y44193518D01*
X18633795Y44114079D01*
X18633794Y44114077D01*
X18588414Y44011302D01*
X18585500Y43986182D01*
X18585500Y42372452D01*
X18170500Y42372452D01*
X18170499Y43986175D01*
X18167585Y44011302D01*
X18143979Y44064765D01*
X18122206Y44114077D01*
X18042767Y44193516D01*
X18042765Y44193517D01*
X17939989Y44238897D01*
X17939990Y44238897D01*
X17914868Y44241811D01*
X16301140Y44241811D01*
X16301133Y44241810D01*
X16276009Y44238897D01*
X16276005Y44238895D01*
X16173234Y44193518D01*
X16093795Y44114079D01*
X16093794Y44114077D01*
X16048414Y44011302D01*
X16045500Y43986182D01*
X16045500Y42372452D01*
X15630500Y42372452D01*
X15630499Y43936864D01*
X15627585Y43961991D01*
X15582206Y44064765D01*
X15582206Y44064766D01*
X15502767Y44144205D01*
X15502765Y44144206D01*
X15399989Y44189586D01*
X15399990Y44189586D01*
X15374868Y44192500D01*
X13761140Y44192500D01*
X13761133Y44192499D01*
X13736009Y44189586D01*
X13736005Y44189584D01*
X13633234Y44144207D01*
X13553795Y44064768D01*
X13553794Y44064766D01*
X13508414Y43961991D01*
X13505500Y43936871D01*
X13505500Y42323141D01*
X5344500Y42323141D01*
X5344500Y45329500D01*
X5364502Y45397621D01*
X5418158Y45444114D01*
X5470500Y45455500D01*
X55489500Y45455500D01*
X55557621Y45435498D01*
G37*
%TD.AperFunction*%
%TD*%
M02*
