%TF.GenerationSoftware,KiCad,Pcbnew,8.0.3+1*%
%TF.CreationDate,2024-07-26T09:11:27+00:00*%
%TF.ProjectId,ISM03,49534d30-332e-46b6-9963-61645f706362,rev?*%
%TF.SameCoordinates,Original*%
%TF.FileFunction,Soldermask,Top*%
%TF.FilePolarity,Negative*%
%FSLAX46Y46*%
G04 Gerber Fmt 4.6, Leading zero omitted, Abs format (unit mm)*
G04 Created by KiCad (PCBNEW 8.0.3+1) date 2024-07-26 09:11:27*
%MOMM*%
%LPD*%
G01*
G04 APERTURE LIST*
%ADD10R,1.524000X1.524000*%
%ADD11C,6.000000*%
%ADD12C,2.500000*%
%ADD13C,2.700000*%
G04 APERTURE END LIST*
D10*
%TO.C,J17*%
X11430000Y16510000D03*
X8890000Y16510000D03*
%TD*%
%TO.C,J1*%
X20574000Y14986000D03*
X23114000Y14986000D03*
X20574000Y12446000D03*
X23114000Y12446000D03*
X20574000Y9906000D03*
X23114000Y9906000D03*
%TD*%
%TO.C,J4*%
X39420800Y14376400D03*
X41960800Y14376400D03*
X39420800Y11836400D03*
X41960800Y11836400D03*
X39420800Y9296400D03*
X41960800Y9296400D03*
%TD*%
%TO.C,J13*%
X11430000Y26670000D03*
X8890000Y26670000D03*
%TD*%
%TO.C,J14*%
X11430000Y31750000D03*
X8890000Y31750000D03*
%TD*%
%TO.C,J19*%
X11430000Y24130000D03*
X8890000Y24130000D03*
%TD*%
%TO.C,J20*%
X11430000Y19050000D03*
X8890000Y19050000D03*
%TD*%
%TO.C,J21*%
X11430000Y21590000D03*
X8890000Y21590000D03*
%TD*%
D11*
%TO.C,M1*%
X10160000Y40640000D03*
%TD*%
%TO.C,M2*%
X50800000Y40640000D03*
%TD*%
%TO.C,M3*%
X10160000Y10160000D03*
%TD*%
%TO.C,M4*%
X50800000Y10160000D03*
%TD*%
D12*
%TO.C,J3*%
X50800000Y30760087D03*
D13*
X48260000Y33300087D03*
X48260000Y28220087D03*
X53340000Y33300087D03*
X53340000Y28220087D03*
%TD*%
D10*
%TO.C,J22*%
X19050000Y39497000D03*
X19050000Y42037000D03*
%TD*%
%TO.C,J16*%
X11430000Y34290000D03*
X8890000Y34290000D03*
%TD*%
%TO.C,J15*%
X11430000Y29210000D03*
X8890000Y29210000D03*
%TD*%
%TO.C,J23*%
X21590000Y39497000D03*
X21590000Y42037000D03*
%TD*%
D12*
%TO.C,J2*%
X50800000Y20039914D03*
D13*
X48260000Y22579914D03*
X48260000Y17499914D03*
X53340000Y22579914D03*
X53340000Y17499914D03*
%TD*%
D10*
%TO.C,J6*%
X16510000Y39497000D03*
X16510000Y42037000D03*
%TD*%
%TO.C,J7*%
X24130000Y39497000D03*
X24130000Y42037000D03*
%TD*%
%TO.C,J5*%
X26670000Y39497689D03*
X26670000Y42037689D03*
%TD*%
D13*
%TO.C,D3*%
X43357800Y39293800D03*
%TD*%
%TO.C,D2*%
X43333500Y43384000D03*
%TD*%
M02*
