%TF.GenerationSoftware,KiCad,Pcbnew,8.0.3+1*%
%TF.CreationDate,2024-07-24T16:14:15+00:00*%
%TF.ProjectId,ISM03,49534d30-332e-46b6-9963-61645f706362,rev?*%
%TF.SameCoordinates,Original*%
%TF.FileFunction,Copper,L1,Top*%
%TF.FilePolarity,Positive*%
%FSLAX46Y46*%
G04 Gerber Fmt 4.6, Leading zero omitted, Abs format (unit mm)*
G04 Created by KiCad (PCBNEW 8.0.3+1) date 2024-07-24 16:14:15*
%MOMM*%
%LPD*%
G01*
G04 APERTURE LIST*
%TA.AperFunction,ComponentPad*%
%ADD10R,1.524000X1.524000*%
%TD*%
%TA.AperFunction,ComponentPad*%
%ADD11C,6.000000*%
%TD*%
%TA.AperFunction,ComponentPad*%
%ADD12C,2.500000*%
%TD*%
%TA.AperFunction,ComponentPad*%
%ADD13C,2.700000*%
%TD*%
%TA.AperFunction,HeatsinkPad*%
%ADD14C,0.500000*%
%TD*%
%TA.AperFunction,HeatsinkPad*%
%ADD15R,2.600000X2.600000*%
%TD*%
%TA.AperFunction,ViaPad*%
%ADD16C,0.800000*%
%TD*%
%TA.AperFunction,Conductor*%
%ADD17C,0.500000*%
%TD*%
G04 APERTURE END LIST*
D10*
%TO.P,J17,1*%
%TO.N,/TXRAMP*%
X11430000Y16510000D03*
%TO.P,J17,2*%
X8890000Y16510000D03*
%TD*%
%TO.P,J1,1,2*%
%TO.N,GND*%
X20574000Y14986000D03*
%TO.P,J1,2,2*%
X23114000Y14986000D03*
%TO.P,J1,3,4*%
%TO.N,VCC*%
X20574000Y12446000D03*
%TO.P,J1,4,4*%
X23114000Y12446000D03*
%TO.P,J1,5,6*%
%TO.N,GND*%
X20574000Y9906000D03*
%TO.P,J1,6,6*%
X23114000Y9906000D03*
%TD*%
%TO.P,J4,1,2*%
%TO.N,GND*%
X39420800Y14376400D03*
%TO.P,J4,2,2*%
X41960800Y14376400D03*
%TO.P,J4,3,4*%
%TO.N,+3.3V*%
X39420800Y11836400D03*
%TO.P,J4,4,4*%
X41960800Y11836400D03*
%TO.P,J4,5,6*%
%TO.N,GND*%
X39420800Y9296400D03*
%TO.P,J4,6,6*%
X41960800Y9296400D03*
%TD*%
%TO.P,J13,1*%
%TO.N,/SCLK*%
X11430000Y26670000D03*
%TO.P,J13,2*%
X8890000Y26670000D03*
%TD*%
%TO.P,J14,1*%
%TO.N,/SDI*%
X11430000Y31750000D03*
%TO.P,J14,2*%
X8890000Y31750000D03*
%TD*%
%TO.P,J19,1*%
%TO.N,/nIRQ*%
X11430000Y24130000D03*
%TO.P,J19,2*%
X8890000Y24130000D03*
%TD*%
%TO.P,J20,1*%
%TO.N,/GPIO0*%
X11430000Y19050000D03*
%TO.P,J20,2*%
X8890000Y19050000D03*
%TD*%
%TO.P,J21,1*%
%TO.N,/GPIO1*%
X11430000Y21590000D03*
%TO.P,J21,2*%
X8890000Y21590000D03*
%TD*%
D11*
%TO.P,M1,1*%
%TO.N,GND*%
X10160000Y40640000D03*
%TD*%
%TO.P,M2,1*%
%TO.N,GND*%
X50800000Y40640000D03*
%TD*%
%TO.P,M3,1*%
%TO.N,GND*%
X10160000Y10160000D03*
%TD*%
%TO.P,M4,1*%
%TO.N,GND*%
X50800000Y10160000D03*
%TD*%
D12*
%TO.P,J3,1*%
%TO.N,Net-(C6-Pad2)*%
X50800000Y30760087D03*
D13*
%TO.P,J3,2*%
%TO.N,GND*%
X48260000Y33300087D03*
X48260000Y28220087D03*
X53340000Y33300087D03*
X53340000Y28220087D03*
%TD*%
D10*
%TO.P,J22,1*%
%TO.N,/GPIO2*%
X19050000Y39497000D03*
%TO.P,J22,2*%
X19050000Y42037000D03*
%TD*%
%TO.P,J16,1*%
%TO.N,/nSEL*%
X11430000Y34290000D03*
%TO.P,J16,2*%
X8890000Y34290000D03*
%TD*%
%TO.P,J15,1*%
%TO.N,/SDO*%
X11430000Y29210000D03*
%TO.P,J15,2*%
X8890000Y29210000D03*
%TD*%
%TO.P,J23,1*%
%TO.N,/GPIO3*%
X21590000Y39497000D03*
%TO.P,J23,2*%
X21590000Y42037000D03*
%TD*%
D12*
%TO.P,J2,1*%
%TO.N,Net-(J2-Pad1)*%
X50800000Y20039914D03*
D13*
%TO.P,J2,2*%
%TO.N,GND*%
X48260000Y22579914D03*
X48260000Y17499914D03*
X53340000Y22579914D03*
X53340000Y17499914D03*
%TD*%
D10*
%TO.P,J6,1*%
%TO.N,Net-(J6-Pad1)*%
X16510000Y39497000D03*
%TO.P,J6,2*%
X16510000Y42037000D03*
%TD*%
%TO.P,J7,1*%
%TO.N,Net-(J7-Pad1)*%
X24130000Y39497000D03*
%TO.P,J7,2*%
X24130000Y42037000D03*
%TD*%
%TO.P,J5,1*%
%TO.N,/SDN*%
X26670000Y39497689D03*
%TO.P,J5,2*%
X26670000Y42037689D03*
%TD*%
D14*
%TO.P,U2,21,GND*%
%TO.N,GND*%
X23265047Y25062000D03*
X23265047Y27162000D03*
D15*
X22215047Y26112000D03*
D14*
X21165047Y25062000D03*
X21165047Y27162000D03*
%TD*%
D16*
%TO.N,GND*%
X33147000Y14655800D03*
X33121600Y13360400D03*
X6502400Y28025725D03*
X46980047Y37083311D03*
X39649400Y22987000D03*
X30378400Y9677400D03*
X44602400Y22402800D03*
X39624000Y29413200D03*
X26314400Y17449800D03*
X45491400Y24612600D03*
X27457400Y17576800D03*
X22512445Y29405154D03*
X38074600Y35864800D03*
X43002200Y35763200D03*
X31902400Y14605000D03*
X31089600Y31267400D03*
X41148000Y32054800D03*
X21336000Y32156400D03*
X31394400Y9753600D03*
X6502400Y20720050D03*
X30581600Y35458400D03*
X6502400Y18284825D03*
X32004000Y20116800D03*
X34787276Y16749324D03*
X38735000Y27051000D03*
X33401000Y23037800D03*
X38100000Y29387800D03*
X44704000Y27432000D03*
X42164000Y18186400D03*
X28575000Y35331400D03*
X44297600Y32054800D03*
X6502400Y23155275D03*
X18846800Y18821400D03*
X41478200Y20777200D03*
X28143200Y33680400D03*
X43281600Y17221200D03*
X30505400Y23774400D03*
X33477200Y28575000D03*
X41122600Y19177000D03*
X30988000Y38684200D03*
X18948400Y29133800D03*
X30480000Y10718800D03*
X46278800Y26390600D03*
X40513000Y17043400D03*
X6502400Y35331400D03*
X44196000Y29286200D03*
X42697400Y24561800D03*
X28778200Y26949400D03*
X33909000Y26822400D03*
X38245308Y17185098D03*
X26035000Y30886400D03*
X30657800Y14655800D03*
X27482800Y16357600D03*
X18008600Y17678400D03*
X40259000Y26670000D03*
X20193000Y28143200D03*
X44526200Y18338800D03*
X36830000Y26949400D03*
X42849800Y29337000D03*
X35560000Y32461200D03*
X31953200Y13436600D03*
X39649400Y32105600D03*
X26187400Y32943800D03*
X32258000Y31750000D03*
X17602200Y15087600D03*
X35077400Y28625800D03*
X32054800Y37160200D03*
X37058600Y9601200D03*
X6502400Y30460950D03*
X35433001Y26822400D03*
X30632400Y13411200D03*
X35483800Y40411400D03*
X42799000Y32054800D03*
X14935200Y15113000D03*
X40665400Y21844000D03*
X33121600Y10795000D03*
X37007800Y14147800D03*
X29794200Y32232600D03*
X42926000Y27000200D03*
X31826200Y23825200D03*
X30784800Y18745200D03*
X38404800Y32054800D03*
X46075600Y18491200D03*
X24282400Y23952200D03*
X43688000Y23444200D03*
X50571400Y25476200D03*
X17399000Y20929600D03*
X6502400Y15849600D03*
X46101000Y32054800D03*
X6502400Y25590500D03*
X33731200Y32461200D03*
X36982400Y32054800D03*
X44551600Y14935200D03*
X41173400Y29337000D03*
X20193000Y29514800D03*
X38354000Y23876000D03*
X45745400Y29387800D03*
X28295600Y39141400D03*
X36576000Y23723600D03*
X20345400Y18821400D03*
X31699200Y10744200D03*
X20447000Y33528000D03*
X33858200Y34518600D03*
X36804600Y28829000D03*
X46278800Y14884400D03*
X17272000Y19075400D03*
X6502400Y32896175D03*
X32207200Y17170400D03*
%TO.N,+3.3V*%
X45288200Y41529000D03*
X28371800Y11951299D03*
%TD*%
D17*
%TO.N,GND*%
X31598371Y30112987D02*
X31613047Y30098311D01*
X34407047Y30098311D02*
X34534047Y29971311D01*
%TO.N,+3.3V*%
X14503400Y26212800D02*
X14503400Y34315400D01*
X32176312Y41529000D02*
X45288200Y41529000D01*
X28371800Y12344400D02*
X14503400Y26212800D01*
X28371800Y11951299D02*
X28371800Y12344400D01*
X14503400Y34315400D02*
X16510000Y36322000D01*
X16510000Y36322000D02*
X26969312Y36322000D01*
X26969312Y36322000D02*
X32176312Y41529000D01*
%TD*%
%TA.AperFunction,Conductor*%
%TO.N,GND*%
G36*
X41546592Y9467971D02*
G01*
X41516300Y9354920D01*
X41516300Y9237880D01*
X41546592Y9124829D01*
X41594182Y9042400D01*
X39787418Y9042400D01*
X39835008Y9124829D01*
X39865300Y9237880D01*
X39865300Y9354920D01*
X39835008Y9467971D01*
X39787418Y9550400D01*
X41594182Y9550400D01*
X41546592Y9467971D01*
G37*
%TD.AperFunction*%
%TA.AperFunction,Conductor*%
G36*
X41546592Y14547971D02*
G01*
X41516300Y14434920D01*
X41516300Y14317880D01*
X41546592Y14204829D01*
X41594182Y14122400D01*
X39787418Y14122400D01*
X39835008Y14204829D01*
X39865300Y14317880D01*
X39865300Y14434920D01*
X39835008Y14547971D01*
X39787418Y14630400D01*
X41594182Y14630400D01*
X41546592Y14547971D01*
G37*
%TD.AperFunction*%
%TA.AperFunction,Conductor*%
G36*
X22699792Y10077571D02*
G01*
X22669500Y9964520D01*
X22669500Y9847480D01*
X22699792Y9734429D01*
X22747382Y9652000D01*
X20940618Y9652000D01*
X20988208Y9734429D01*
X21018500Y9847480D01*
X21018500Y9964520D01*
X20988208Y10077571D01*
X20940618Y10160000D01*
X22747382Y10160000D01*
X22699792Y10077571D01*
G37*
%TD.AperFunction*%
%TA.AperFunction,Conductor*%
G36*
X22699792Y15157571D02*
G01*
X22669500Y15044520D01*
X22669500Y14927480D01*
X22699792Y14814429D01*
X22747382Y14732000D01*
X20940618Y14732000D01*
X20988208Y14814429D01*
X21018500Y14927480D01*
X21018500Y15044520D01*
X20988208Y15157571D01*
X20940618Y15240000D01*
X22747382Y15240000D01*
X22699792Y15157571D01*
G37*
%TD.AperFunction*%
%TA.AperFunction,Conductor*%
G36*
X55557621Y45435498D02*
G01*
X55604114Y45381842D01*
X55615500Y45329500D01*
X55615500Y5470500D01*
X55595498Y5402379D01*
X55541842Y5355886D01*
X55489500Y5344500D01*
X5470500Y5344500D01*
X5402379Y5364502D01*
X5355886Y5418158D01*
X5344500Y5470500D01*
X5344500Y17316871D01*
X7827500Y17316871D01*
X7827500Y15703141D01*
X7827501Y15703134D01*
X7830414Y15678010D01*
X7830416Y15678006D01*
X7875793Y15575235D01*
X7955232Y15495796D01*
X7955234Y15495795D01*
X7955235Y15495794D01*
X8058009Y15450415D01*
X8083135Y15447500D01*
X9696864Y15447501D01*
X9721991Y15450415D01*
X9824765Y15495794D01*
X9904206Y15575235D01*
X9949585Y15678009D01*
X9952500Y15703135D01*
X9952499Y17316864D01*
X9952498Y17316871D01*
X10367500Y17316871D01*
X10367500Y15703141D01*
X10367501Y15703134D01*
X10370414Y15678010D01*
X10370416Y15678006D01*
X10415793Y15575235D01*
X10495232Y15495796D01*
X10495234Y15495795D01*
X10495235Y15495794D01*
X10598009Y15450415D01*
X10623135Y15447500D01*
X12236864Y15447501D01*
X12261991Y15450415D01*
X12364765Y15495794D01*
X12444206Y15575235D01*
X12489585Y15678009D01*
X12492500Y15703135D01*
X12492499Y17316864D01*
X12489585Y17341991D01*
X12473872Y17377578D01*
X12444206Y17444766D01*
X12364767Y17524205D01*
X12364765Y17524206D01*
X12261989Y17569586D01*
X12261990Y17569586D01*
X12236868Y17572500D01*
X10623140Y17572500D01*
X10623133Y17572499D01*
X10598009Y17569586D01*
X10598005Y17569584D01*
X10495234Y17524207D01*
X10415795Y17444768D01*
X10415794Y17444766D01*
X10370414Y17341991D01*
X10367500Y17316871D01*
X9952498Y17316871D01*
X9949585Y17341991D01*
X9933872Y17377578D01*
X9904206Y17444766D01*
X9824767Y17524205D01*
X9824765Y17524206D01*
X9721989Y17569586D01*
X9721990Y17569586D01*
X9696868Y17572500D01*
X8083140Y17572500D01*
X8083133Y17572499D01*
X8058009Y17569586D01*
X8058005Y17569584D01*
X7955234Y17524207D01*
X7875795Y17444768D01*
X7875794Y17444766D01*
X7830414Y17341991D01*
X7827500Y17316871D01*
X5344500Y17316871D01*
X5344500Y19856871D01*
X7827500Y19856871D01*
X7827500Y18243141D01*
X7827501Y18243134D01*
X7830414Y18218010D01*
X7830416Y18218006D01*
X7875793Y18115235D01*
X7955232Y18035796D01*
X7955234Y18035795D01*
X7955235Y18035794D01*
X8058009Y17990415D01*
X8083135Y17987500D01*
X9696864Y17987501D01*
X9721991Y17990415D01*
X9824765Y18035794D01*
X9904206Y18115235D01*
X9949585Y18218009D01*
X9952500Y18243135D01*
X9952499Y19856864D01*
X9952498Y19856871D01*
X10367500Y19856871D01*
X10367500Y18243141D01*
X10367501Y18243134D01*
X10370414Y18218010D01*
X10370416Y18218006D01*
X10415793Y18115235D01*
X10495232Y18035796D01*
X10495234Y18035795D01*
X10495235Y18035794D01*
X10598009Y17990415D01*
X10623135Y17987500D01*
X12236864Y17987501D01*
X12261991Y17990415D01*
X12364765Y18035794D01*
X12444206Y18115235D01*
X12489585Y18218009D01*
X12492500Y18243135D01*
X12492499Y19856864D01*
X12489585Y19881991D01*
X12444206Y19984765D01*
X12444206Y19984766D01*
X12364767Y20064205D01*
X12364765Y20064206D01*
X12261989Y20109586D01*
X12261990Y20109586D01*
X12236868Y20112500D01*
X10623140Y20112500D01*
X10623133Y20112499D01*
X10598009Y20109586D01*
X10598005Y20109584D01*
X10495234Y20064207D01*
X10415795Y19984768D01*
X10415794Y19984766D01*
X10370414Y19881991D01*
X10367500Y19856871D01*
X9952498Y19856871D01*
X9949585Y19881991D01*
X9904206Y19984765D01*
X9904206Y19984766D01*
X9824767Y20064205D01*
X9824765Y20064206D01*
X9721989Y20109586D01*
X9721990Y20109586D01*
X9696868Y20112500D01*
X8083140Y20112500D01*
X8083133Y20112499D01*
X8058009Y20109586D01*
X8058005Y20109584D01*
X7955234Y20064207D01*
X7875795Y19984768D01*
X7875794Y19984766D01*
X7830414Y19881991D01*
X7827500Y19856871D01*
X5344500Y19856871D01*
X5344500Y22396871D01*
X7827500Y22396871D01*
X7827500Y20783141D01*
X7827501Y20783134D01*
X7830414Y20758010D01*
X7830416Y20758006D01*
X7875793Y20655235D01*
X7955232Y20575796D01*
X7955234Y20575795D01*
X7955235Y20575794D01*
X8058009Y20530415D01*
X8083135Y20527500D01*
X9696864Y20527501D01*
X9721991Y20530415D01*
X9824765Y20575794D01*
X9904206Y20655235D01*
X9949585Y20758009D01*
X9952500Y20783135D01*
X9952499Y22396864D01*
X9952498Y22396871D01*
X10367500Y22396871D01*
X10367500Y20783141D01*
X10367501Y20783134D01*
X10370414Y20758010D01*
X10370416Y20758006D01*
X10415793Y20655235D01*
X10495232Y20575796D01*
X10495234Y20575795D01*
X10495235Y20575794D01*
X10598009Y20530415D01*
X10623135Y20527500D01*
X12236864Y20527501D01*
X12261991Y20530415D01*
X12364765Y20575794D01*
X12444206Y20655235D01*
X12489585Y20758009D01*
X12492500Y20783135D01*
X12492499Y22396864D01*
X12489585Y22421991D01*
X12473872Y22457578D01*
X12444206Y22524766D01*
X12364767Y22604205D01*
X12364765Y22604206D01*
X12261989Y22649586D01*
X12261990Y22649586D01*
X12236868Y22652500D01*
X10623140Y22652500D01*
X10623133Y22652499D01*
X10598009Y22649586D01*
X10598005Y22649584D01*
X10495234Y22604207D01*
X10415795Y22524768D01*
X10415794Y22524766D01*
X10370414Y22421991D01*
X10367500Y22396871D01*
X9952498Y22396871D01*
X9949585Y22421991D01*
X9933872Y22457578D01*
X9904206Y22524766D01*
X9824767Y22604205D01*
X9824765Y22604206D01*
X9721989Y22649586D01*
X9721990Y22649586D01*
X9696868Y22652500D01*
X8083140Y22652500D01*
X8083133Y22652499D01*
X8058009Y22649586D01*
X8058005Y22649584D01*
X7955234Y22604207D01*
X7875795Y22524768D01*
X7875794Y22524766D01*
X7830414Y22421991D01*
X7827500Y22396871D01*
X5344500Y22396871D01*
X5344500Y24936871D01*
X7827500Y24936871D01*
X7827500Y23323141D01*
X7827501Y23323134D01*
X7830414Y23298010D01*
X7830416Y23298006D01*
X7875793Y23195235D01*
X7955232Y23115796D01*
X7955234Y23115795D01*
X7955235Y23115794D01*
X8058009Y23070415D01*
X8083135Y23067500D01*
X9696864Y23067501D01*
X9721991Y23070415D01*
X9824765Y23115794D01*
X9904206Y23195235D01*
X9949585Y23298009D01*
X9952500Y23323135D01*
X9952499Y24936864D01*
X9952498Y24936871D01*
X10367500Y24936871D01*
X10367500Y23323141D01*
X10367501Y23323134D01*
X10370414Y23298010D01*
X10370416Y23298006D01*
X10415793Y23195235D01*
X10495232Y23115796D01*
X10495234Y23115795D01*
X10495235Y23115794D01*
X10598009Y23070415D01*
X10623135Y23067500D01*
X12236864Y23067501D01*
X12261991Y23070415D01*
X12364765Y23115794D01*
X12444206Y23195235D01*
X12489585Y23298009D01*
X12492500Y23323135D01*
X12492499Y24936864D01*
X12489585Y24961991D01*
X12444206Y25064765D01*
X12444206Y25064766D01*
X12364767Y25144205D01*
X12364765Y25144206D01*
X12261989Y25189586D01*
X12261990Y25189586D01*
X12236868Y25192500D01*
X10623140Y25192500D01*
X10623133Y25192499D01*
X10598009Y25189586D01*
X10598005Y25189584D01*
X10495234Y25144207D01*
X10415795Y25064768D01*
X10415794Y25064766D01*
X10370414Y24961991D01*
X10367500Y24936871D01*
X9952498Y24936871D01*
X9949585Y24961991D01*
X9904206Y25064765D01*
X9904206Y25064766D01*
X9824767Y25144205D01*
X9824765Y25144206D01*
X9721989Y25189586D01*
X9721990Y25189586D01*
X9696868Y25192500D01*
X8083140Y25192500D01*
X8083133Y25192499D01*
X8058009Y25189586D01*
X8058005Y25189584D01*
X7955234Y25144207D01*
X7875795Y25064768D01*
X7875794Y25064766D01*
X7830414Y24961991D01*
X7827500Y24936871D01*
X5344500Y24936871D01*
X5344500Y27476871D01*
X7827500Y27476871D01*
X7827500Y25863141D01*
X7827501Y25863134D01*
X7830414Y25838010D01*
X7830416Y25838006D01*
X7875793Y25735235D01*
X7955232Y25655796D01*
X7955234Y25655795D01*
X7955235Y25655794D01*
X8058009Y25610415D01*
X8083135Y25607500D01*
X9696864Y25607501D01*
X9721991Y25610415D01*
X9824765Y25655794D01*
X9904206Y25735235D01*
X9949585Y25838009D01*
X9952500Y25863135D01*
X9952499Y27476864D01*
X9952498Y27476871D01*
X10367500Y27476871D01*
X10367500Y25863141D01*
X10367501Y25863134D01*
X10370414Y25838010D01*
X10370416Y25838006D01*
X10415793Y25735235D01*
X10495232Y25655796D01*
X10495234Y25655795D01*
X10495235Y25655794D01*
X10598009Y25610415D01*
X10623135Y25607500D01*
X12236864Y25607501D01*
X12261991Y25610415D01*
X12364765Y25655794D01*
X12444206Y25735235D01*
X12489585Y25838009D01*
X12492500Y25863135D01*
X12492500Y26140328D01*
X13952899Y26140328D01*
X13990417Y26000311D01*
X14062887Y25874789D01*
X14062895Y25874779D01*
X23466580Y16471095D01*
X23500606Y16408783D01*
X23495541Y16337968D01*
X23452994Y16281132D01*
X23386474Y16256321D01*
X23377485Y16256000D01*
X23368000Y16256000D01*
X23368000Y15352619D01*
X23285571Y15400208D01*
X23172520Y15430500D01*
X23055480Y15430500D01*
X22942429Y15400208D01*
X22860000Y15352619D01*
X22860000Y16256000D01*
X22303402Y16256000D01*
X22242906Y16249495D01*
X22106035Y16198445D01*
X22106034Y16198445D01*
X21989097Y16110906D01*
X21944868Y16051823D01*
X21888031Y16009277D01*
X21817216Y16004213D01*
X21754904Y16038238D01*
X21743132Y16051823D01*
X21698902Y16110906D01*
X21581965Y16198445D01*
X21445093Y16249495D01*
X21384597Y16256000D01*
X20828000Y16256000D01*
X20828000Y15352619D01*
X20745571Y15400208D01*
X20632520Y15430500D01*
X20515480Y15430500D01*
X20402429Y15400208D01*
X20320000Y15352619D01*
X20320000Y16256000D01*
X19763402Y16256000D01*
X19702906Y16249495D01*
X19566035Y16198445D01*
X19566034Y16198445D01*
X19449095Y16110905D01*
X19361555Y15993966D01*
X19361555Y15993965D01*
X19310505Y15857094D01*
X19304000Y15796598D01*
X19304000Y15240000D01*
X20207382Y15240000D01*
X20159792Y15157571D01*
X20129500Y15044520D01*
X20129500Y14927480D01*
X20159792Y14814429D01*
X20207382Y14732000D01*
X19304000Y14732000D01*
X19304000Y14175403D01*
X19310505Y14114907D01*
X19361555Y13978036D01*
X19361555Y13978035D01*
X19449095Y13861096D01*
X19566034Y13773556D01*
X19700249Y13723497D01*
X19757085Y13680950D01*
X19781896Y13614430D01*
X19766805Y13545056D01*
X19716603Y13494854D01*
X19707112Y13490177D01*
X19639233Y13460206D01*
X19559795Y13380768D01*
X19559794Y13380766D01*
X19514414Y13277991D01*
X19511500Y13252871D01*
X19511500Y11639141D01*
X19511501Y11639134D01*
X19514414Y11614010D01*
X19514416Y11614006D01*
X19559793Y11511235D01*
X19639232Y11431796D01*
X19639234Y11431795D01*
X19639235Y11431794D01*
X19707111Y11401824D01*
X19761348Y11356011D01*
X19782207Y11288148D01*
X19763065Y11219781D01*
X19710000Y11172615D01*
X19700250Y11168504D01*
X19566033Y11118444D01*
X19449095Y11030905D01*
X19361555Y10913966D01*
X19361555Y10913965D01*
X19310505Y10777094D01*
X19304000Y10716598D01*
X19304000Y10160000D01*
X20207382Y10160000D01*
X20159792Y10077571D01*
X20129500Y9964520D01*
X20129500Y9847480D01*
X20159792Y9734429D01*
X20207382Y9652000D01*
X19304000Y9652000D01*
X19304000Y9095403D01*
X19310505Y9034907D01*
X19361555Y8898036D01*
X19361555Y8898035D01*
X19449095Y8781096D01*
X19566034Y8693556D01*
X19702906Y8642506D01*
X19763402Y8636001D01*
X19763415Y8636000D01*
X20320000Y8636000D01*
X20320000Y9539382D01*
X20402429Y9491792D01*
X20515480Y9461500D01*
X20632520Y9461500D01*
X20745571Y9491792D01*
X20828000Y9539382D01*
X20828000Y8636000D01*
X21384585Y8636000D01*
X21384597Y8636001D01*
X21445093Y8642506D01*
X21581964Y8693556D01*
X21581965Y8693556D01*
X21698904Y8781096D01*
X21743132Y8840177D01*
X21799968Y8882724D01*
X21870783Y8887788D01*
X21933096Y8853763D01*
X21944868Y8840177D01*
X21989095Y8781096D01*
X22106034Y8693556D01*
X22242906Y8642506D01*
X22303402Y8636001D01*
X22303415Y8636000D01*
X22860000Y8636000D01*
X22860000Y9539382D01*
X22942429Y9491792D01*
X23055480Y9461500D01*
X23172520Y9461500D01*
X23285571Y9491792D01*
X23368000Y9539382D01*
X23368000Y8636000D01*
X23924585Y8636000D01*
X23924597Y8636001D01*
X23985093Y8642506D01*
X24121964Y8693556D01*
X24121965Y8693556D01*
X24238904Y8781096D01*
X24326444Y8898035D01*
X24326444Y8898036D01*
X24377494Y9034907D01*
X24383999Y9095403D01*
X24384000Y9095415D01*
X24384000Y9652000D01*
X23480618Y9652000D01*
X23528208Y9734429D01*
X23558500Y9847480D01*
X23558500Y9964520D01*
X23528208Y10077571D01*
X23480618Y10160000D01*
X24384000Y10160000D01*
X24384000Y10716586D01*
X24383999Y10716598D01*
X24377494Y10777094D01*
X24326444Y10913965D01*
X24326444Y10913966D01*
X24238904Y11030905D01*
X24121966Y11118444D01*
X23987749Y11168504D01*
X23930914Y11211051D01*
X23906103Y11277571D01*
X23921194Y11346945D01*
X23971397Y11397148D01*
X23980889Y11401824D01*
X24048763Y11431793D01*
X24048763Y11431794D01*
X24048765Y11431794D01*
X24128206Y11511235D01*
X24173585Y11614009D01*
X24176500Y11639135D01*
X24176499Y13252864D01*
X24173585Y13277991D01*
X24138175Y13358188D01*
X24128206Y13380766D01*
X24048765Y13460207D01*
X23980888Y13490177D01*
X23926651Y13535990D01*
X23905792Y13603854D01*
X23924934Y13672221D01*
X23978000Y13719386D01*
X23987750Y13723497D01*
X24121965Y13773556D01*
X24238904Y13861096D01*
X24326444Y13978035D01*
X24326444Y13978036D01*
X24377494Y14114907D01*
X24383999Y14175403D01*
X24384000Y14175415D01*
X24384000Y14732000D01*
X23480618Y14732000D01*
X23528208Y14814429D01*
X23558500Y14927480D01*
X23558500Y15044520D01*
X23528208Y15157571D01*
X23480618Y15240000D01*
X24384000Y15240000D01*
X24384000Y15249485D01*
X24404002Y15317606D01*
X24457658Y15364099D01*
X24527932Y15374203D01*
X24592512Y15344709D01*
X24599095Y15338580D01*
X27665032Y12272643D01*
X27699058Y12210331D01*
X27693993Y12139516D01*
X27693752Y12138875D01*
X27686659Y12120170D01*
X27666155Y11951302D01*
X27666155Y11951297D01*
X27686659Y11782428D01*
X27746979Y11623374D01*
X27746981Y11623370D01*
X27843616Y11483371D01*
X27843618Y11483369D01*
X27935663Y11401824D01*
X27970948Y11370565D01*
X28121575Y11291509D01*
X28121576Y11291509D01*
X28121578Y11291508D01*
X28178124Y11277571D01*
X28286744Y11250799D01*
X28286747Y11250799D01*
X28456853Y11250799D01*
X28456856Y11250799D01*
X28622025Y11291509D01*
X28772652Y11370565D01*
X28899983Y11483370D01*
X28996618Y11623369D01*
X29002600Y11639141D01*
X29056940Y11782428D01*
X29077445Y11951297D01*
X29077445Y11951302D01*
X29056940Y12120171D01*
X29020962Y12215038D01*
X28996618Y12279229D01*
X28944436Y12354827D01*
X28923209Y12409963D01*
X28922300Y12416870D01*
X28922300Y12416875D01*
X28884784Y12556885D01*
X28884781Y12556891D01*
X28870630Y12581401D01*
X28851190Y12615072D01*
X28812310Y12682415D01*
X28812305Y12682420D01*
X28812303Y12682423D01*
X26307728Y15186998D01*
X38150800Y15186998D01*
X38150800Y14630400D01*
X39054182Y14630400D01*
X39006592Y14547971D01*
X38976300Y14434920D01*
X38976300Y14317880D01*
X39006592Y14204829D01*
X39054182Y14122400D01*
X38150800Y14122400D01*
X38150800Y13565803D01*
X38157305Y13505307D01*
X38208355Y13368436D01*
X38208355Y13368435D01*
X38295895Y13251496D01*
X38412834Y13163956D01*
X38547049Y13113897D01*
X38603885Y13071350D01*
X38628696Y13004830D01*
X38613605Y12935456D01*
X38563403Y12885254D01*
X38553912Y12880577D01*
X38486033Y12850606D01*
X38406595Y12771168D01*
X38406594Y12771166D01*
X38361214Y12668391D01*
X38358300Y12643271D01*
X38358300Y11029541D01*
X38358301Y11029534D01*
X38361214Y11004410D01*
X38361216Y11004406D01*
X38406593Y10901635D01*
X38486032Y10822196D01*
X38486034Y10822195D01*
X38486035Y10822194D01*
X38553911Y10792224D01*
X38608148Y10746411D01*
X38629007Y10678548D01*
X38609865Y10610181D01*
X38556800Y10563015D01*
X38547050Y10558904D01*
X38412833Y10508844D01*
X38295895Y10421305D01*
X38208355Y10304366D01*
X38208355Y10304365D01*
X38157305Y10167494D01*
X38150800Y10106998D01*
X38150800Y9550400D01*
X39054182Y9550400D01*
X39006592Y9467971D01*
X38976300Y9354920D01*
X38976300Y9237880D01*
X39006592Y9124829D01*
X39054182Y9042400D01*
X38150800Y9042400D01*
X38150800Y8485803D01*
X38157305Y8425307D01*
X38208355Y8288436D01*
X38208355Y8288435D01*
X38295895Y8171496D01*
X38412834Y8083956D01*
X38549706Y8032906D01*
X38610202Y8026401D01*
X38610215Y8026400D01*
X39166800Y8026400D01*
X39166800Y8929782D01*
X39249229Y8882192D01*
X39362280Y8851900D01*
X39479320Y8851900D01*
X39592371Y8882192D01*
X39674800Y8929782D01*
X39674800Y8026400D01*
X40231385Y8026400D01*
X40231397Y8026401D01*
X40291893Y8032906D01*
X40428764Y8083956D01*
X40428765Y8083956D01*
X40545704Y8171496D01*
X40589932Y8230577D01*
X40646768Y8273124D01*
X40717583Y8278188D01*
X40779896Y8244163D01*
X40791668Y8230577D01*
X40835895Y8171496D01*
X40952834Y8083956D01*
X41089706Y8032906D01*
X41150202Y8026401D01*
X41150215Y8026400D01*
X41706800Y8026400D01*
X41706800Y8929782D01*
X41789229Y8882192D01*
X41902280Y8851900D01*
X42019320Y8851900D01*
X42132371Y8882192D01*
X42214800Y8929782D01*
X42214800Y8026400D01*
X42771385Y8026400D01*
X42771397Y8026401D01*
X42831893Y8032906D01*
X42968764Y8083956D01*
X42968765Y8083956D01*
X43085704Y8171496D01*
X43173244Y8288435D01*
X43173244Y8288436D01*
X43224294Y8425307D01*
X43230799Y8485803D01*
X43230800Y8485815D01*
X43230800Y9042400D01*
X42327418Y9042400D01*
X42375008Y9124829D01*
X42405300Y9237880D01*
X42405300Y9354920D01*
X42375008Y9467971D01*
X42327418Y9550400D01*
X43230800Y9550400D01*
X43230800Y10106986D01*
X43230799Y10106998D01*
X43224294Y10167494D01*
X43173244Y10304365D01*
X43173244Y10304366D01*
X43085704Y10421305D01*
X42968766Y10508844D01*
X42834549Y10558904D01*
X42777714Y10601451D01*
X42752903Y10667971D01*
X42767994Y10737345D01*
X42818197Y10787548D01*
X42827689Y10792224D01*
X42895563Y10822193D01*
X42895563Y10822194D01*
X42895565Y10822194D01*
X42975006Y10901635D01*
X43020385Y11004409D01*
X43023300Y11029535D01*
X43023299Y12643264D01*
X43020385Y12668391D01*
X42975006Y12771165D01*
X42975006Y12771166D01*
X42895565Y12850607D01*
X42827688Y12880577D01*
X42773451Y12926390D01*
X42752592Y12994254D01*
X42771734Y13062621D01*
X42824800Y13109786D01*
X42834550Y13113897D01*
X42968765Y13163956D01*
X43085704Y13251496D01*
X43173244Y13368435D01*
X43173244Y13368436D01*
X43224294Y13505307D01*
X43230799Y13565803D01*
X43230800Y13565815D01*
X43230800Y14122400D01*
X42327418Y14122400D01*
X42375008Y14204829D01*
X42405300Y14317880D01*
X42405300Y14434920D01*
X42375008Y14547971D01*
X42327418Y14630400D01*
X43230800Y14630400D01*
X43230800Y15186986D01*
X43230799Y15186998D01*
X43224294Y15247494D01*
X43173244Y15384365D01*
X43173244Y15384366D01*
X43085704Y15501305D01*
X42968765Y15588845D01*
X42831893Y15639895D01*
X42771397Y15646400D01*
X42214800Y15646400D01*
X42214800Y14743019D01*
X42132371Y14790608D01*
X42019320Y14820900D01*
X41902280Y14820900D01*
X41789229Y14790608D01*
X41706800Y14743019D01*
X41706800Y15646400D01*
X41150202Y15646400D01*
X41089706Y15639895D01*
X40952835Y15588845D01*
X40952834Y15588845D01*
X40835897Y15501306D01*
X40791668Y15442223D01*
X40734831Y15399677D01*
X40664016Y15394613D01*
X40601704Y15428638D01*
X40589932Y15442223D01*
X40545702Y15501306D01*
X40428765Y15588845D01*
X40291893Y15639895D01*
X40231397Y15646400D01*
X39674800Y15646400D01*
X39674800Y14743019D01*
X39592371Y14790608D01*
X39479320Y14820900D01*
X39362280Y14820900D01*
X39249229Y14790608D01*
X39166800Y14743019D01*
X39166800Y15646400D01*
X38610202Y15646400D01*
X38549706Y15639895D01*
X38412835Y15588845D01*
X38412834Y15588845D01*
X38295895Y15501305D01*
X38208355Y15384366D01*
X38208355Y15384365D01*
X38157305Y15247494D01*
X38150800Y15186998D01*
X26307728Y15186998D01*
X18914812Y22579914D01*
X46397254Y22579914D01*
X46416213Y22314822D01*
X46472707Y22055121D01*
X46565587Y21806100D01*
X46692958Y21572838D01*
X46778903Y21458029D01*
X46778903Y21458028D01*
X47504228Y22183353D01*
X47506740Y22177288D01*
X47599762Y22038070D01*
X47718156Y21919676D01*
X47857374Y21826654D01*
X47863438Y21824143D01*
X47138113Y21098818D01*
X47252919Y21012875D01*
X47486185Y20885502D01*
X47735206Y20792622D01*
X47994907Y20736128D01*
X48259999Y20717169D01*
X48480808Y20732961D01*
X48550182Y20717870D01*
X48600384Y20667668D01*
X48615476Y20598294D01*
X48613376Y20582701D01*
X48563968Y20334308D01*
X48563965Y20334290D01*
X48544671Y20039918D01*
X48544671Y20039911D01*
X48563965Y19745539D01*
X48563968Y19745521D01*
X48613376Y19497128D01*
X48607048Y19426414D01*
X48563493Y19370347D01*
X48496541Y19346728D01*
X48480809Y19346868D01*
X48260000Y19362660D01*
X47994907Y19343701D01*
X47735206Y19287207D01*
X47486185Y19194327D01*
X47252924Y19066957D01*
X47138113Y18981012D01*
X47138112Y18981011D01*
X47863437Y18255686D01*
X47857374Y18253174D01*
X47718156Y18160152D01*
X47599762Y18041758D01*
X47506740Y17902540D01*
X47504228Y17896477D01*
X46778903Y18621802D01*
X46778902Y18621801D01*
X46692957Y18506990D01*
X46565587Y18273729D01*
X46472707Y18024708D01*
X46416213Y17765007D01*
X46397254Y17499914D01*
X46416213Y17234822D01*
X46472707Y16975121D01*
X46565587Y16726100D01*
X46692958Y16492838D01*
X46778903Y16378029D01*
X46778903Y16378028D01*
X47504228Y17103353D01*
X47506740Y17097288D01*
X47599762Y16958070D01*
X47718156Y16839676D01*
X47857374Y16746654D01*
X47863436Y16744143D01*
X47138112Y16018819D01*
X47138113Y16018818D01*
X47252919Y15932875D01*
X47486185Y15805502D01*
X47735206Y15712622D01*
X47994907Y15656128D01*
X48260000Y15637169D01*
X48525092Y15656128D01*
X48784793Y15712622D01*
X49033814Y15805502D01*
X49267076Y15932872D01*
X49381885Y16018819D01*
X49381886Y16018819D01*
X48656562Y16744143D01*
X48662626Y16746654D01*
X48801844Y16839676D01*
X48920238Y16958070D01*
X49013260Y17097288D01*
X49015771Y17103352D01*
X49741095Y16378028D01*
X49741095Y16378029D01*
X49827042Y16492838D01*
X49954412Y16726100D01*
X50047292Y16975121D01*
X50103786Y17234822D01*
X50122745Y17499914D01*
X50106953Y17720723D01*
X50122044Y17790097D01*
X50172246Y17840299D01*
X50241621Y17855391D01*
X50257207Y17853292D01*
X50505620Y17803880D01*
X50673837Y17792855D01*
X50799997Y17784585D01*
X50800000Y17784585D01*
X50800003Y17784585D01*
X50910392Y17791821D01*
X51094380Y17803880D01*
X51342787Y17853291D01*
X51413499Y17846963D01*
X51469567Y17803409D01*
X51493186Y17736456D01*
X51493046Y17720724D01*
X51477254Y17499915D01*
X51496213Y17234822D01*
X51552707Y16975121D01*
X51645587Y16726100D01*
X51772958Y16492838D01*
X51858903Y16378029D01*
X51858903Y16378028D01*
X52584227Y17103353D01*
X52586740Y17097288D01*
X52679762Y16958070D01*
X52798156Y16839676D01*
X52937374Y16746654D01*
X52943436Y16744143D01*
X52218112Y16018819D01*
X52218113Y16018818D01*
X52332919Y15932875D01*
X52566185Y15805502D01*
X52815206Y15712622D01*
X53074907Y15656128D01*
X53340000Y15637169D01*
X53605092Y15656128D01*
X53864793Y15712622D01*
X54113814Y15805502D01*
X54347076Y15932872D01*
X54461885Y16018819D01*
X54461886Y16018819D01*
X53736562Y16744143D01*
X53742626Y16746654D01*
X53881844Y16839676D01*
X54000238Y16958070D01*
X54093260Y17097288D01*
X54095771Y17103352D01*
X54821095Y16378028D01*
X54821095Y16378029D01*
X54907042Y16492838D01*
X55034412Y16726100D01*
X55127292Y16975121D01*
X55183786Y17234822D01*
X55202745Y17499914D01*
X55183786Y17765007D01*
X55127292Y18024708D01*
X55034412Y18273729D01*
X54907039Y18506995D01*
X54821096Y18621801D01*
X54821095Y18621802D01*
X54095771Y17896478D01*
X54093260Y17902540D01*
X54000238Y18041758D01*
X53881844Y18160152D01*
X53742626Y18253174D01*
X53736561Y18255687D01*
X54461886Y18981011D01*
X54347076Y19066956D01*
X54113814Y19194327D01*
X53864793Y19287207D01*
X53605092Y19343701D01*
X53339999Y19362660D01*
X53119190Y19346868D01*
X53049816Y19361960D01*
X52999614Y19412162D01*
X52984523Y19481536D01*
X52986621Y19497117D01*
X53036034Y19745534D01*
X53051714Y19984766D01*
X53055329Y20039911D01*
X53055329Y20039918D01*
X53036034Y20334290D01*
X53036034Y20334294D01*
X52986623Y20582703D01*
X52992951Y20653415D01*
X53036505Y20709482D01*
X53103458Y20733101D01*
X53119191Y20732961D01*
X53340000Y20717169D01*
X53605092Y20736128D01*
X53864793Y20792622D01*
X54113814Y20885502D01*
X54347076Y21012872D01*
X54461885Y21098819D01*
X54461886Y21098819D01*
X53736562Y21824143D01*
X53742626Y21826654D01*
X53881844Y21919676D01*
X54000238Y22038070D01*
X54093260Y22177288D01*
X54095771Y22183352D01*
X54821095Y21458028D01*
X54821095Y21458029D01*
X54907042Y21572838D01*
X55034412Y21806100D01*
X55127292Y22055121D01*
X55183786Y22314822D01*
X55202745Y22579914D01*
X55183786Y22845007D01*
X55127292Y23104708D01*
X55034412Y23353729D01*
X54907039Y23586995D01*
X54821096Y23701801D01*
X54821095Y23701802D01*
X54095771Y22976478D01*
X54093260Y22982540D01*
X54000238Y23121758D01*
X53881844Y23240152D01*
X53742626Y23333174D01*
X53736562Y23335686D01*
X54461886Y24061011D01*
X54347076Y24146956D01*
X54113814Y24274327D01*
X53864793Y24367207D01*
X53605092Y24423701D01*
X53340000Y24442660D01*
X53074907Y24423701D01*
X52815206Y24367207D01*
X52566185Y24274327D01*
X52332924Y24146957D01*
X52218113Y24061012D01*
X52218112Y24061011D01*
X52943437Y23335686D01*
X52937374Y23333174D01*
X52798156Y23240152D01*
X52679762Y23121758D01*
X52586740Y22982540D01*
X52584228Y22976477D01*
X51858903Y23701802D01*
X51858902Y23701801D01*
X51772957Y23586990D01*
X51645587Y23353729D01*
X51552707Y23104708D01*
X51496213Y22845007D01*
X51477254Y22579914D01*
X51493046Y22359105D01*
X51477954Y22289731D01*
X51427752Y22239529D01*
X51358378Y22224438D01*
X51342786Y22226538D01*
X51094393Y22275946D01*
X51094375Y22275949D01*
X50800003Y22295243D01*
X50799997Y22295243D01*
X50505624Y22275949D01*
X50505606Y22275946D01*
X50257213Y22226538D01*
X50186499Y22232866D01*
X50130432Y22276421D01*
X50106813Y22343373D01*
X50106953Y22359106D01*
X50122745Y22579915D01*
X50103786Y22845007D01*
X50047292Y23104708D01*
X49954412Y23353729D01*
X49827039Y23586995D01*
X49741096Y23701801D01*
X49015771Y22976476D01*
X49013260Y22982540D01*
X48920238Y23121758D01*
X48801844Y23240152D01*
X48662626Y23333174D01*
X48656562Y23335686D01*
X49381886Y24061011D01*
X49267076Y24146956D01*
X49033814Y24274327D01*
X48784793Y24367207D01*
X48525092Y24423701D01*
X48260000Y24442660D01*
X47994907Y24423701D01*
X47735206Y24367207D01*
X47486185Y24274327D01*
X47252924Y24146957D01*
X47138113Y24061012D01*
X47138112Y24061011D01*
X47863437Y23335686D01*
X47857374Y23333174D01*
X47718156Y23240152D01*
X47599762Y23121758D01*
X47506740Y22982540D01*
X47504228Y22976477D01*
X46778903Y23701802D01*
X46778902Y23701801D01*
X46692957Y23586990D01*
X46565587Y23353729D01*
X46472707Y23104708D01*
X46416213Y22845007D01*
X46397254Y22579914D01*
X18914812Y22579914D01*
X15090805Y26403921D01*
X15056779Y26466233D01*
X15053900Y26493016D01*
X15053900Y33300087D01*
X46397254Y33300087D01*
X46416213Y33034995D01*
X46472707Y32775294D01*
X46565587Y32526273D01*
X46692958Y32293011D01*
X46778903Y32178202D01*
X46778903Y32178201D01*
X47504228Y32903526D01*
X47506740Y32897461D01*
X47599762Y32758243D01*
X47718156Y32639849D01*
X47857374Y32546827D01*
X47863438Y32544316D01*
X47138113Y31818991D01*
X47252919Y31733048D01*
X47486185Y31605675D01*
X47735206Y31512795D01*
X47994907Y31456301D01*
X48259999Y31437342D01*
X48480808Y31453134D01*
X48550182Y31438043D01*
X48600384Y31387841D01*
X48615476Y31318467D01*
X48613376Y31302874D01*
X48563968Y31054481D01*
X48563965Y31054463D01*
X48544671Y30760091D01*
X48544671Y30760084D01*
X48563965Y30465712D01*
X48563968Y30465694D01*
X48613376Y30217301D01*
X48607048Y30146587D01*
X48563493Y30090520D01*
X48496541Y30066901D01*
X48480809Y30067041D01*
X48260000Y30082833D01*
X47994907Y30063874D01*
X47735206Y30007380D01*
X47486185Y29914500D01*
X47252924Y29787130D01*
X47138113Y29701185D01*
X47138112Y29701184D01*
X47863437Y28975859D01*
X47857374Y28973347D01*
X47718156Y28880325D01*
X47599762Y28761931D01*
X47506740Y28622713D01*
X47504228Y28616650D01*
X46778903Y29341975D01*
X46778902Y29341974D01*
X46692957Y29227163D01*
X46565587Y28993902D01*
X46472707Y28744881D01*
X46416213Y28485180D01*
X46397254Y28220087D01*
X46416213Y27954995D01*
X46472707Y27695294D01*
X46565587Y27446273D01*
X46692958Y27213011D01*
X46778903Y27098202D01*
X46778903Y27098201D01*
X47504228Y27823526D01*
X47506740Y27817461D01*
X47599762Y27678243D01*
X47718156Y27559849D01*
X47857374Y27466827D01*
X47863436Y27464316D01*
X47138112Y26738992D01*
X47138113Y26738991D01*
X47252919Y26653048D01*
X47486185Y26525675D01*
X47735206Y26432795D01*
X47994907Y26376301D01*
X48260000Y26357342D01*
X48525092Y26376301D01*
X48784793Y26432795D01*
X49033814Y26525675D01*
X49267076Y26653045D01*
X49381885Y26738992D01*
X49381886Y26738992D01*
X48656562Y27464316D01*
X48662626Y27466827D01*
X48801844Y27559849D01*
X48920238Y27678243D01*
X49013260Y27817461D01*
X49015771Y27823525D01*
X49741095Y27098201D01*
X49741095Y27098202D01*
X49827042Y27213011D01*
X49954412Y27446273D01*
X50047292Y27695294D01*
X50103786Y27954995D01*
X50122745Y28220087D01*
X50106953Y28440896D01*
X50122044Y28510270D01*
X50172246Y28560472D01*
X50241621Y28575564D01*
X50257207Y28573465D01*
X50505620Y28524053D01*
X50673837Y28513028D01*
X50799997Y28504758D01*
X50800000Y28504758D01*
X50800003Y28504758D01*
X50910392Y28511994D01*
X51094380Y28524053D01*
X51342787Y28573464D01*
X51413499Y28567136D01*
X51469567Y28523582D01*
X51493186Y28456629D01*
X51493046Y28440897D01*
X51477254Y28220088D01*
X51496213Y27954995D01*
X51552707Y27695294D01*
X51645587Y27446273D01*
X51772958Y27213011D01*
X51858903Y27098202D01*
X51858903Y27098201D01*
X52584227Y27823526D01*
X52586740Y27817461D01*
X52679762Y27678243D01*
X52798156Y27559849D01*
X52937374Y27466827D01*
X52943436Y27464316D01*
X52218112Y26738992D01*
X52218113Y26738991D01*
X52332919Y26653048D01*
X52566185Y26525675D01*
X52815206Y26432795D01*
X53074907Y26376301D01*
X53340000Y26357342D01*
X53605092Y26376301D01*
X53864793Y26432795D01*
X54113814Y26525675D01*
X54347076Y26653045D01*
X54461885Y26738992D01*
X54461886Y26738992D01*
X53736562Y27464316D01*
X53742626Y27466827D01*
X53881844Y27559849D01*
X54000238Y27678243D01*
X54093260Y27817461D01*
X54095771Y27823525D01*
X54821095Y27098201D01*
X54821095Y27098202D01*
X54907042Y27213011D01*
X55034412Y27446273D01*
X55127292Y27695294D01*
X55183786Y27954995D01*
X55202745Y28220087D01*
X55183786Y28485180D01*
X55127292Y28744881D01*
X55034412Y28993902D01*
X54907039Y29227168D01*
X54821096Y29341974D01*
X54821095Y29341975D01*
X54095771Y28616651D01*
X54093260Y28622713D01*
X54000238Y28761931D01*
X53881844Y28880325D01*
X53742626Y28973347D01*
X53736561Y28975860D01*
X54461886Y29701184D01*
X54347076Y29787129D01*
X54113814Y29914500D01*
X53864793Y30007380D01*
X53605092Y30063874D01*
X53339999Y30082833D01*
X53119190Y30067041D01*
X53049816Y30082133D01*
X52999614Y30132335D01*
X52984523Y30201709D01*
X52986621Y30217290D01*
X53036034Y30465707D01*
X53050571Y30687501D01*
X53055329Y30760084D01*
X53055329Y30760091D01*
X53044978Y30918010D01*
X53036034Y31054467D01*
X52986623Y31302876D01*
X52992951Y31373588D01*
X53036505Y31429655D01*
X53103458Y31453274D01*
X53119191Y31453134D01*
X53340000Y31437342D01*
X53605092Y31456301D01*
X53864793Y31512795D01*
X54113814Y31605675D01*
X54347076Y31733045D01*
X54461885Y31818992D01*
X54461886Y31818992D01*
X53736562Y32544316D01*
X53742626Y32546827D01*
X53881844Y32639849D01*
X54000238Y32758243D01*
X54093260Y32897461D01*
X54095771Y32903525D01*
X54821095Y32178201D01*
X54821095Y32178202D01*
X54907042Y32293011D01*
X55034412Y32526273D01*
X55127292Y32775294D01*
X55183786Y33034995D01*
X55202745Y33300087D01*
X55183786Y33565180D01*
X55127292Y33824881D01*
X55034412Y34073902D01*
X54907039Y34307168D01*
X54821096Y34421974D01*
X54821095Y34421975D01*
X54095771Y33696651D01*
X54093260Y33702713D01*
X54000238Y33841931D01*
X53881844Y33960325D01*
X53742626Y34053347D01*
X53736562Y34055859D01*
X54461886Y34781184D01*
X54347076Y34867129D01*
X54113814Y34994500D01*
X53864793Y35087380D01*
X53605092Y35143874D01*
X53340000Y35162833D01*
X53074907Y35143874D01*
X52815206Y35087380D01*
X52566185Y34994500D01*
X52332924Y34867130D01*
X52218113Y34781185D01*
X52218112Y34781184D01*
X52943437Y34055859D01*
X52937374Y34053347D01*
X52798156Y33960325D01*
X52679762Y33841931D01*
X52586740Y33702713D01*
X52584228Y33696650D01*
X51858903Y34421975D01*
X51858902Y34421974D01*
X51772957Y34307163D01*
X51645587Y34073902D01*
X51552707Y33824881D01*
X51496213Y33565180D01*
X51477254Y33300087D01*
X51493046Y33079278D01*
X51477954Y33009904D01*
X51427752Y32959702D01*
X51358378Y32944611D01*
X51342786Y32946711D01*
X51094393Y32996119D01*
X51094375Y32996122D01*
X50800003Y33015416D01*
X50799997Y33015416D01*
X50505624Y32996122D01*
X50505606Y32996119D01*
X50257213Y32946711D01*
X50186499Y32953039D01*
X50130432Y32996594D01*
X50106813Y33063546D01*
X50106953Y33079279D01*
X50122745Y33300088D01*
X50103786Y33565180D01*
X50047292Y33824881D01*
X49954412Y34073902D01*
X49827039Y34307168D01*
X49741096Y34421974D01*
X49015771Y33696649D01*
X49013260Y33702713D01*
X48920238Y33841931D01*
X48801844Y33960325D01*
X48662626Y34053347D01*
X48656562Y34055859D01*
X49381886Y34781184D01*
X49267076Y34867129D01*
X49033814Y34994500D01*
X48784793Y35087380D01*
X48525092Y35143874D01*
X48260000Y35162833D01*
X47994907Y35143874D01*
X47735206Y35087380D01*
X47486185Y34994500D01*
X47252924Y34867130D01*
X47138113Y34781185D01*
X47138112Y34781184D01*
X47863437Y34055859D01*
X47857374Y34053347D01*
X47718156Y33960325D01*
X47599762Y33841931D01*
X47506740Y33702713D01*
X47504228Y33696650D01*
X46778903Y34421975D01*
X46778902Y34421974D01*
X46692957Y34307163D01*
X46565587Y34073902D01*
X46472707Y33824881D01*
X46416213Y33565180D01*
X46397254Y33300087D01*
X15053900Y33300087D01*
X15053900Y34035185D01*
X15073902Y34103306D01*
X15090805Y34124280D01*
X16701120Y35734595D01*
X16763432Y35768621D01*
X16790215Y35771500D01*
X27041784Y35771500D01*
X27041786Y35771500D01*
X27041787Y35771500D01*
X27181797Y35809016D01*
X27307327Y35881490D01*
X32367432Y40941595D01*
X32429744Y40975621D01*
X32456527Y40978500D01*
X42613979Y40978500D01*
X42682100Y40958498D01*
X42728593Y40904842D01*
X42738697Y40834568D01*
X42709203Y40769988D01*
X42671183Y40740235D01*
X42531185Y40668902D01*
X42518951Y40662668D01*
X42315141Y40514591D01*
X42315138Y40514589D01*
X42137011Y40336462D01*
X42137009Y40336459D01*
X41988932Y40132649D01*
X41874560Y39908181D01*
X41874557Y39908175D01*
X41796711Y39668591D01*
X41796710Y39668586D01*
X41796710Y39668585D01*
X41757300Y39419762D01*
X41757300Y39167838D01*
X41796710Y38919015D01*
X41796711Y38919010D01*
X41871078Y38690134D01*
X41874559Y38679421D01*
X41988930Y38454955D01*
X41988932Y38454952D01*
X42003289Y38435191D01*
X42137007Y38251144D01*
X42137009Y38251142D01*
X42137011Y38251139D01*
X42315138Y38073012D01*
X42315141Y38073010D01*
X42315144Y38073007D01*
X42518955Y37924930D01*
X42743421Y37810559D01*
X42983015Y37732710D01*
X43231838Y37693300D01*
X43231841Y37693300D01*
X43483759Y37693300D01*
X43483762Y37693300D01*
X43732585Y37732710D01*
X43972179Y37810559D01*
X44196645Y37924930D01*
X44400456Y38073007D01*
X44578593Y38251144D01*
X44726670Y38454955D01*
X44841041Y38679421D01*
X44918890Y38919015D01*
X44958300Y39167838D01*
X44958300Y39419762D01*
X44918890Y39668585D01*
X44841041Y39908179D01*
X44726670Y40132645D01*
X44578593Y40336456D01*
X44578590Y40336459D01*
X44578588Y40336462D01*
X44400461Y40514589D01*
X44400458Y40514591D01*
X44400456Y40514593D01*
X44196645Y40662670D01*
X44044416Y40740234D01*
X43992803Y40788981D01*
X43975737Y40857896D01*
X43998638Y40925098D01*
X44054235Y40969250D01*
X44101621Y40978500D01*
X44805435Y40978500D01*
X44873556Y40958498D01*
X44884188Y40950447D01*
X44887348Y40948266D01*
X45037975Y40869210D01*
X45037976Y40869210D01*
X45037978Y40869209D01*
X45083878Y40857896D01*
X45203144Y40828500D01*
X45203147Y40828500D01*
X45373253Y40828500D01*
X45373256Y40828500D01*
X45538425Y40869210D01*
X45689052Y40948266D01*
X45816383Y41061071D01*
X45913018Y41201070D01*
X45973340Y41360128D01*
X45993845Y41529000D01*
X45973340Y41697872D01*
X45913018Y41856930D01*
X45816383Y41996929D01*
X45816381Y41996931D01*
X45689057Y42109730D01*
X45689051Y42109735D01*
X45538425Y42188790D01*
X45538421Y42188792D01*
X45373259Y42229500D01*
X45373256Y42229500D01*
X45203144Y42229500D01*
X45203140Y42229500D01*
X45037978Y42188792D01*
X45037974Y42188790D01*
X44887348Y42109735D01*
X44881074Y42105403D01*
X44879998Y42106961D01*
X44824729Y42080986D01*
X44805435Y42079500D01*
X44596640Y42079500D01*
X44528519Y42099502D01*
X44482026Y42153158D01*
X44471922Y42223432D01*
X44501416Y42288012D01*
X44507545Y42294595D01*
X44554288Y42341339D01*
X44554293Y42341344D01*
X44702370Y42545155D01*
X44816741Y42769621D01*
X44894590Y43009215D01*
X44934000Y43258038D01*
X44934000Y43509962D01*
X44894590Y43758785D01*
X44816741Y43998379D01*
X44702370Y44222845D01*
X44554293Y44426656D01*
X44554290Y44426659D01*
X44554288Y44426662D01*
X44376161Y44604789D01*
X44376158Y44604791D01*
X44376156Y44604793D01*
X44172345Y44752870D01*
X43947879Y44867241D01*
X43947876Y44867242D01*
X43947874Y44867243D01*
X43708290Y44945089D01*
X43708286Y44945090D01*
X43708285Y44945090D01*
X43459462Y44984500D01*
X43207538Y44984500D01*
X42958715Y44945090D01*
X42958709Y44945089D01*
X42719125Y44867243D01*
X42719119Y44867240D01*
X42494651Y44752868D01*
X42290841Y44604791D01*
X42290838Y44604789D01*
X42112711Y44426662D01*
X42112709Y44426659D01*
X41964632Y44222849D01*
X41850260Y43998381D01*
X41850257Y43998375D01*
X41772411Y43758791D01*
X41772410Y43758786D01*
X41772410Y43758785D01*
X41733000Y43509962D01*
X41733000Y43258038D01*
X41772410Y43009215D01*
X41772411Y43009210D01*
X41826137Y42843860D01*
X41850259Y42769621D01*
X41964630Y42545155D01*
X42112707Y42341344D01*
X42112709Y42341342D01*
X42112711Y42341339D01*
X42159455Y42294595D01*
X42193481Y42232283D01*
X42188416Y42161468D01*
X42145869Y42104632D01*
X42079349Y42079821D01*
X42070360Y42079500D01*
X32103837Y42079500D01*
X31963827Y42041984D01*
X31963825Y42041984D01*
X31963821Y42041982D01*
X31838300Y41969513D01*
X31838290Y41969505D01*
X26778192Y36909405D01*
X26715880Y36875379D01*
X26689097Y36872500D01*
X16437525Y36872500D01*
X16297515Y36834984D01*
X16297513Y36834984D01*
X16297509Y36834982D01*
X16171988Y36762513D01*
X16171978Y36762505D01*
X14062895Y34653422D01*
X14062887Y34653412D01*
X13990418Y34527891D01*
X13990416Y34527887D01*
X13990416Y34527885D01*
X13952900Y34387875D01*
X13952900Y34387873D01*
X13952900Y26140328D01*
X13952899Y26140328D01*
X12492500Y26140328D01*
X12492499Y27476864D01*
X12489585Y27501991D01*
X12444206Y27604765D01*
X12444206Y27604766D01*
X12364767Y27684205D01*
X12364765Y27684206D01*
X12261989Y27729586D01*
X12261990Y27729586D01*
X12236868Y27732500D01*
X10623140Y27732500D01*
X10623133Y27732499D01*
X10598009Y27729586D01*
X10598005Y27729584D01*
X10495234Y27684207D01*
X10415795Y27604768D01*
X10415794Y27604766D01*
X10370414Y27501991D01*
X10367500Y27476871D01*
X9952498Y27476871D01*
X9949585Y27501991D01*
X9904206Y27604765D01*
X9904206Y27604766D01*
X9824767Y27684205D01*
X9824765Y27684206D01*
X9721989Y27729586D01*
X9721990Y27729586D01*
X9696868Y27732500D01*
X8083140Y27732500D01*
X8083133Y27732499D01*
X8058009Y27729586D01*
X8058005Y27729584D01*
X7955234Y27684207D01*
X7875795Y27604768D01*
X7875794Y27604766D01*
X7830414Y27501991D01*
X7827500Y27476871D01*
X5344500Y27476871D01*
X5344500Y30016871D01*
X7827500Y30016871D01*
X7827500Y28403141D01*
X7827501Y28403134D01*
X7830414Y28378010D01*
X7830416Y28378006D01*
X7875793Y28275235D01*
X7955232Y28195796D01*
X7955234Y28195795D01*
X7955235Y28195794D01*
X8058009Y28150415D01*
X8083135Y28147500D01*
X9696864Y28147501D01*
X9721991Y28150415D01*
X9824765Y28195794D01*
X9904206Y28275235D01*
X9949585Y28378009D01*
X9952500Y28403135D01*
X9952499Y30016864D01*
X9952498Y30016871D01*
X10367500Y30016871D01*
X10367500Y28403141D01*
X10367501Y28403134D01*
X10370414Y28378010D01*
X10370416Y28378006D01*
X10415793Y28275235D01*
X10495232Y28195796D01*
X10495234Y28195795D01*
X10495235Y28195794D01*
X10598009Y28150415D01*
X10623135Y28147500D01*
X12236864Y28147501D01*
X12261991Y28150415D01*
X12364765Y28195794D01*
X12444206Y28275235D01*
X12489585Y28378009D01*
X12492500Y28403135D01*
X12492499Y30016864D01*
X12489585Y30041991D01*
X12471552Y30082833D01*
X12444206Y30144766D01*
X12364767Y30224205D01*
X12364765Y30224206D01*
X12261989Y30269586D01*
X12261990Y30269586D01*
X12236868Y30272500D01*
X10623140Y30272500D01*
X10623133Y30272499D01*
X10598009Y30269586D01*
X10598005Y30269584D01*
X10495234Y30224207D01*
X10415795Y30144768D01*
X10415794Y30144766D01*
X10370414Y30041991D01*
X10367500Y30016871D01*
X9952498Y30016871D01*
X9949585Y30041991D01*
X9931552Y30082833D01*
X9904206Y30144766D01*
X9824767Y30224205D01*
X9824765Y30224206D01*
X9721989Y30269586D01*
X9721990Y30269586D01*
X9696868Y30272500D01*
X8083140Y30272500D01*
X8083133Y30272499D01*
X8058009Y30269586D01*
X8058005Y30269584D01*
X7955234Y30224207D01*
X7875795Y30144768D01*
X7875794Y30144766D01*
X7830414Y30041991D01*
X7827500Y30016871D01*
X5344500Y30016871D01*
X5344500Y32556871D01*
X7827500Y32556871D01*
X7827500Y30943141D01*
X7827501Y30943134D01*
X7830414Y30918010D01*
X7830416Y30918006D01*
X7875793Y30815235D01*
X7955232Y30735796D01*
X7955234Y30735795D01*
X7955235Y30735794D01*
X8058009Y30690415D01*
X8083135Y30687500D01*
X9696864Y30687501D01*
X9721991Y30690415D01*
X9824765Y30735794D01*
X9904206Y30815235D01*
X9949585Y30918009D01*
X9952500Y30943135D01*
X9952499Y32556864D01*
X9952498Y32556871D01*
X10367500Y32556871D01*
X10367500Y30943141D01*
X10367501Y30943134D01*
X10370414Y30918010D01*
X10370416Y30918006D01*
X10415793Y30815235D01*
X10495232Y30735796D01*
X10495234Y30735795D01*
X10495235Y30735794D01*
X10598009Y30690415D01*
X10623135Y30687500D01*
X12236864Y30687501D01*
X12261991Y30690415D01*
X12364765Y30735794D01*
X12444206Y30815235D01*
X12489585Y30918009D01*
X12492500Y30943135D01*
X12492499Y32556864D01*
X12489585Y32581991D01*
X12444206Y32684765D01*
X12444206Y32684766D01*
X12364767Y32764205D01*
X12364765Y32764206D01*
X12261989Y32809586D01*
X12261990Y32809586D01*
X12236868Y32812500D01*
X10623140Y32812500D01*
X10623133Y32812499D01*
X10598009Y32809586D01*
X10598005Y32809584D01*
X10495234Y32764207D01*
X10415795Y32684768D01*
X10415794Y32684766D01*
X10370414Y32581991D01*
X10367500Y32556871D01*
X9952498Y32556871D01*
X9949585Y32581991D01*
X9904206Y32684765D01*
X9904206Y32684766D01*
X9824767Y32764205D01*
X9824765Y32764206D01*
X9721989Y32809586D01*
X9721990Y32809586D01*
X9696868Y32812500D01*
X8083140Y32812500D01*
X8083133Y32812499D01*
X8058009Y32809586D01*
X8058005Y32809584D01*
X7955234Y32764207D01*
X7875795Y32684768D01*
X7875794Y32684766D01*
X7830414Y32581991D01*
X7827500Y32556871D01*
X5344500Y32556871D01*
X5344500Y35096871D01*
X7827500Y35096871D01*
X7827500Y33483141D01*
X7827501Y33483134D01*
X7830414Y33458010D01*
X7830416Y33458006D01*
X7875793Y33355235D01*
X7955232Y33275796D01*
X7955234Y33275795D01*
X7955235Y33275794D01*
X8058009Y33230415D01*
X8083135Y33227500D01*
X9696864Y33227501D01*
X9721991Y33230415D01*
X9824765Y33275794D01*
X9904206Y33355235D01*
X9949585Y33458009D01*
X9952500Y33483135D01*
X9952499Y35096864D01*
X9952498Y35096871D01*
X10367500Y35096871D01*
X10367500Y33483141D01*
X10367501Y33483134D01*
X10370414Y33458010D01*
X10370416Y33458006D01*
X10415793Y33355235D01*
X10495232Y33275796D01*
X10495234Y33275795D01*
X10495235Y33275794D01*
X10598009Y33230415D01*
X10623135Y33227500D01*
X12236864Y33227501D01*
X12261991Y33230415D01*
X12364765Y33275794D01*
X12444206Y33355235D01*
X12489585Y33458009D01*
X12492500Y33483135D01*
X12492499Y35096864D01*
X12489585Y35121991D01*
X12444206Y35224765D01*
X12444206Y35224766D01*
X12364767Y35304205D01*
X12364765Y35304206D01*
X12261989Y35349586D01*
X12261990Y35349586D01*
X12236868Y35352500D01*
X10623140Y35352500D01*
X10623133Y35352499D01*
X10598009Y35349586D01*
X10598005Y35349584D01*
X10495234Y35304207D01*
X10415795Y35224768D01*
X10415794Y35224766D01*
X10370414Y35121991D01*
X10367500Y35096871D01*
X9952498Y35096871D01*
X9949585Y35121991D01*
X9904206Y35224765D01*
X9904206Y35224766D01*
X9824767Y35304205D01*
X9824765Y35304206D01*
X9721989Y35349586D01*
X9721990Y35349586D01*
X9696868Y35352500D01*
X8083140Y35352500D01*
X8083133Y35352499D01*
X8058009Y35349586D01*
X8058005Y35349584D01*
X7955234Y35304207D01*
X7875795Y35224768D01*
X7875794Y35224766D01*
X7830414Y35121991D01*
X7827500Y35096871D01*
X5344500Y35096871D01*
X5344500Y40303871D01*
X15447500Y40303871D01*
X15447500Y38690141D01*
X15447501Y38690134D01*
X15450414Y38665010D01*
X15450416Y38665006D01*
X15495793Y38562235D01*
X15575232Y38482796D01*
X15575234Y38482795D01*
X15575235Y38482794D01*
X15678009Y38437415D01*
X15703135Y38434500D01*
X17316864Y38434501D01*
X17341991Y38437415D01*
X17444765Y38482794D01*
X17524206Y38562235D01*
X17569585Y38665009D01*
X17572500Y38690135D01*
X17572499Y40303864D01*
X17572498Y40303871D01*
X17987500Y40303871D01*
X17987500Y38690141D01*
X17987501Y38690134D01*
X17990414Y38665010D01*
X17990416Y38665006D01*
X18035793Y38562235D01*
X18115232Y38482796D01*
X18115234Y38482795D01*
X18115235Y38482794D01*
X18218009Y38437415D01*
X18243135Y38434500D01*
X19856864Y38434501D01*
X19881991Y38437415D01*
X19984765Y38482794D01*
X20064206Y38562235D01*
X20109585Y38665009D01*
X20112500Y38690135D01*
X20112499Y40303864D01*
X20112498Y40303871D01*
X20527500Y40303871D01*
X20527500Y38690141D01*
X20527501Y38690134D01*
X20530414Y38665010D01*
X20530416Y38665006D01*
X20575793Y38562235D01*
X20655232Y38482796D01*
X20655234Y38482795D01*
X20655235Y38482794D01*
X20758009Y38437415D01*
X20783135Y38434500D01*
X22396864Y38434501D01*
X22421991Y38437415D01*
X22524765Y38482794D01*
X22604206Y38562235D01*
X22649585Y38665009D01*
X22652500Y38690135D01*
X22652499Y40303864D01*
X22652498Y40303871D01*
X23067500Y40303871D01*
X23067500Y38690141D01*
X23067501Y38690134D01*
X23070414Y38665010D01*
X23070416Y38665006D01*
X23115793Y38562235D01*
X23195232Y38482796D01*
X23195234Y38482795D01*
X23195235Y38482794D01*
X23298009Y38437415D01*
X23323135Y38434500D01*
X24936864Y38434501D01*
X24961991Y38437415D01*
X25064765Y38482794D01*
X25144206Y38562235D01*
X25189585Y38665009D01*
X25192500Y38690135D01*
X25192499Y40303864D01*
X25192418Y40304560D01*
X25607500Y40304560D01*
X25607500Y38690830D01*
X25607501Y38690823D01*
X25610414Y38665699D01*
X25610416Y38665695D01*
X25655793Y38562924D01*
X25735232Y38483485D01*
X25735234Y38483484D01*
X25735235Y38483483D01*
X25838009Y38438104D01*
X25863135Y38435189D01*
X27476864Y38435190D01*
X27501991Y38438104D01*
X27604765Y38483483D01*
X27684206Y38562924D01*
X27729585Y38665698D01*
X27732500Y38690824D01*
X27732499Y40304553D01*
X27729585Y40329680D01*
X27713872Y40365267D01*
X27684206Y40432455D01*
X27604767Y40511894D01*
X27604765Y40511895D01*
X27501989Y40557275D01*
X27501990Y40557275D01*
X27476868Y40560189D01*
X25863140Y40560189D01*
X25863133Y40560188D01*
X25838009Y40557275D01*
X25838005Y40557273D01*
X25735234Y40511896D01*
X25655795Y40432457D01*
X25655794Y40432455D01*
X25610414Y40329680D01*
X25607500Y40304560D01*
X25192418Y40304560D01*
X25189585Y40328991D01*
X25144206Y40431765D01*
X25144206Y40431766D01*
X25064767Y40511205D01*
X25064765Y40511206D01*
X24961989Y40556586D01*
X24961990Y40556586D01*
X24936868Y40559500D01*
X23323140Y40559500D01*
X23323133Y40559499D01*
X23298009Y40556586D01*
X23298005Y40556584D01*
X23195234Y40511207D01*
X23115795Y40431768D01*
X23115794Y40431766D01*
X23070414Y40328991D01*
X23067500Y40303871D01*
X22652498Y40303871D01*
X22649585Y40328991D01*
X22604206Y40431765D01*
X22604206Y40431766D01*
X22524767Y40511205D01*
X22524765Y40511206D01*
X22421989Y40556586D01*
X22421990Y40556586D01*
X22396868Y40559500D01*
X20783140Y40559500D01*
X20783133Y40559499D01*
X20758009Y40556586D01*
X20758005Y40556584D01*
X20655234Y40511207D01*
X20575795Y40431768D01*
X20575794Y40431766D01*
X20530414Y40328991D01*
X20527500Y40303871D01*
X20112498Y40303871D01*
X20109585Y40328991D01*
X20064206Y40431765D01*
X20064206Y40431766D01*
X19984767Y40511205D01*
X19984765Y40511206D01*
X19881989Y40556586D01*
X19881990Y40556586D01*
X19856868Y40559500D01*
X18243140Y40559500D01*
X18243133Y40559499D01*
X18218009Y40556586D01*
X18218005Y40556584D01*
X18115234Y40511207D01*
X18035795Y40431768D01*
X18035794Y40431766D01*
X17990414Y40328991D01*
X17987500Y40303871D01*
X17572498Y40303871D01*
X17569585Y40328991D01*
X17524206Y40431765D01*
X17524206Y40431766D01*
X17444767Y40511205D01*
X17444765Y40511206D01*
X17341989Y40556586D01*
X17341990Y40556586D01*
X17316868Y40559500D01*
X15703140Y40559500D01*
X15703133Y40559499D01*
X15678009Y40556586D01*
X15678005Y40556584D01*
X15575234Y40511207D01*
X15495795Y40431768D01*
X15495794Y40431766D01*
X15450414Y40328991D01*
X15447500Y40303871D01*
X5344500Y40303871D01*
X5344500Y42843871D01*
X15447500Y42843871D01*
X15447500Y41230141D01*
X15447501Y41230134D01*
X15450414Y41205010D01*
X15450416Y41205006D01*
X15495793Y41102235D01*
X15575232Y41022796D01*
X15575234Y41022795D01*
X15575235Y41022794D01*
X15678009Y40977415D01*
X15703135Y40974500D01*
X17316864Y40974501D01*
X17341991Y40977415D01*
X17444765Y41022794D01*
X17524206Y41102235D01*
X17569585Y41205009D01*
X17572500Y41230135D01*
X17572499Y42843864D01*
X17572498Y42843871D01*
X17987500Y42843871D01*
X17987500Y41230141D01*
X17987501Y41230134D01*
X17990414Y41205010D01*
X17990416Y41205006D01*
X18035793Y41102235D01*
X18115232Y41022796D01*
X18115234Y41022795D01*
X18115235Y41022794D01*
X18218009Y40977415D01*
X18243135Y40974500D01*
X19856864Y40974501D01*
X19881991Y40977415D01*
X19984765Y41022794D01*
X20064206Y41102235D01*
X20109585Y41205009D01*
X20112500Y41230135D01*
X20112499Y42843864D01*
X20112498Y42843871D01*
X20527500Y42843871D01*
X20527500Y41230141D01*
X20527501Y41230134D01*
X20530414Y41205010D01*
X20530416Y41205006D01*
X20575793Y41102235D01*
X20655232Y41022796D01*
X20655234Y41022795D01*
X20655235Y41022794D01*
X20758009Y40977415D01*
X20783135Y40974500D01*
X22396864Y40974501D01*
X22421991Y40977415D01*
X22524765Y41022794D01*
X22604206Y41102235D01*
X22649585Y41205009D01*
X22652500Y41230135D01*
X22652499Y42843864D01*
X22652498Y42843871D01*
X23067500Y42843871D01*
X23067500Y41230141D01*
X23067501Y41230134D01*
X23070414Y41205010D01*
X23070416Y41205006D01*
X23115793Y41102235D01*
X23195232Y41022796D01*
X23195234Y41022795D01*
X23195235Y41022794D01*
X23298009Y40977415D01*
X23323135Y40974500D01*
X24936864Y40974501D01*
X24961991Y40977415D01*
X25064765Y41022794D01*
X25144206Y41102235D01*
X25189585Y41205009D01*
X25192500Y41230135D01*
X25192499Y42843864D01*
X25192418Y42844560D01*
X25607500Y42844560D01*
X25607500Y41230830D01*
X25607501Y41230823D01*
X25610414Y41205699D01*
X25610416Y41205695D01*
X25655793Y41102924D01*
X25735232Y41023485D01*
X25735234Y41023484D01*
X25735235Y41023483D01*
X25838009Y40978104D01*
X25863135Y40975189D01*
X27476864Y40975190D01*
X27501991Y40978104D01*
X27604765Y41023483D01*
X27684206Y41102924D01*
X27729585Y41205698D01*
X27732500Y41230824D01*
X27732499Y42844553D01*
X27729585Y42869680D01*
X27713872Y42905267D01*
X27684206Y42972455D01*
X27604767Y43051894D01*
X27604765Y43051895D01*
X27501989Y43097275D01*
X27501990Y43097275D01*
X27476868Y43100189D01*
X25863140Y43100189D01*
X25863133Y43100188D01*
X25838009Y43097275D01*
X25838005Y43097273D01*
X25735234Y43051896D01*
X25655795Y42972457D01*
X25655794Y42972455D01*
X25610414Y42869680D01*
X25607500Y42844560D01*
X25192418Y42844560D01*
X25189585Y42868991D01*
X25144206Y42971765D01*
X25144206Y42971766D01*
X25064767Y43051205D01*
X25064765Y43051206D01*
X24961989Y43096586D01*
X24961990Y43096586D01*
X24936868Y43099500D01*
X23323140Y43099500D01*
X23323133Y43099499D01*
X23298009Y43096586D01*
X23298005Y43096584D01*
X23195234Y43051207D01*
X23115795Y42971768D01*
X23115794Y42971766D01*
X23070414Y42868991D01*
X23067500Y42843871D01*
X22652498Y42843871D01*
X22649585Y42868991D01*
X22604206Y42971765D01*
X22604206Y42971766D01*
X22524767Y43051205D01*
X22524765Y43051206D01*
X22421989Y43096586D01*
X22421990Y43096586D01*
X22396868Y43099500D01*
X20783140Y43099500D01*
X20783133Y43099499D01*
X20758009Y43096586D01*
X20758005Y43096584D01*
X20655234Y43051207D01*
X20575795Y42971768D01*
X20575794Y42971766D01*
X20530414Y42868991D01*
X20527500Y42843871D01*
X20112498Y42843871D01*
X20109585Y42868991D01*
X20064206Y42971765D01*
X20064206Y42971766D01*
X19984767Y43051205D01*
X19984765Y43051206D01*
X19881989Y43096586D01*
X19881990Y43096586D01*
X19856868Y43099500D01*
X18243140Y43099500D01*
X18243133Y43099499D01*
X18218009Y43096586D01*
X18218005Y43096584D01*
X18115234Y43051207D01*
X18035795Y42971768D01*
X18035794Y42971766D01*
X17990414Y42868991D01*
X17987500Y42843871D01*
X17572498Y42843871D01*
X17569585Y42868991D01*
X17524206Y42971765D01*
X17524206Y42971766D01*
X17444767Y43051205D01*
X17444765Y43051206D01*
X17341989Y43096586D01*
X17341990Y43096586D01*
X17316868Y43099500D01*
X15703140Y43099500D01*
X15703133Y43099499D01*
X15678009Y43096586D01*
X15678005Y43096584D01*
X15575234Y43051207D01*
X15495795Y42971768D01*
X15495794Y42971766D01*
X15450414Y42868991D01*
X15447500Y42843871D01*
X5344500Y42843871D01*
X5344500Y45329500D01*
X5364502Y45397621D01*
X5418158Y45444114D01*
X5470500Y45455500D01*
X55489500Y45455500D01*
X55557621Y45435498D01*
G37*
%TD.AperFunction*%
%TD*%
M02*
