%TF.GenerationSoftware,KiCad,Pcbnew,7.0.11+1*%
%TF.CreationDate,2024-07-13T22:37:04+00:00*%
%TF.ProjectId,ISM03,49534d30-332e-46b6-9963-61645f706362,rev?*%
%TF.SameCoordinates,Original*%
%TF.FileFunction,Legend,Bot*%
%TF.FilePolarity,Positive*%
%FSLAX46Y46*%
G04 Gerber Fmt 4.6, Leading zero omitted, Abs format (unit mm)*
G04 Created by KiCad (PCBNEW 7.0.11+1) date 2024-07-13 22:37:04*
%MOMM*%
%LPD*%
G01*
G04 APERTURE LIST*
%ADD10C,0.150000*%
%ADD11C,0.120000*%
G04 APERTURE END LIST*
D10*
X17496857Y18215181D02*
X17830190Y18691372D01*
X18068285Y18215181D02*
X18068285Y19215181D01*
X18068285Y19215181D02*
X17687333Y19215181D01*
X17687333Y19215181D02*
X17592095Y19167562D01*
X17592095Y19167562D02*
X17544476Y19119943D01*
X17544476Y19119943D02*
X17496857Y19024705D01*
X17496857Y19024705D02*
X17496857Y18881848D01*
X17496857Y18881848D02*
X17544476Y18786610D01*
X17544476Y18786610D02*
X17592095Y18738991D01*
X17592095Y18738991D02*
X17687333Y18691372D01*
X17687333Y18691372D02*
X18068285Y18691372D01*
X16544476Y18215181D02*
X17115904Y18215181D01*
X16830190Y18215181D02*
X16830190Y19215181D01*
X16830190Y19215181D02*
X16925428Y19072324D01*
X16925428Y19072324D02*
X17020666Y18977086D01*
X17020666Y18977086D02*
X17115904Y18929467D01*
X15639714Y19215181D02*
X16115904Y19215181D01*
X16115904Y19215181D02*
X16163523Y18738991D01*
X16163523Y18738991D02*
X16115904Y18786610D01*
X16115904Y18786610D02*
X16020666Y18834229D01*
X16020666Y18834229D02*
X15782571Y18834229D01*
X15782571Y18834229D02*
X15687333Y18786610D01*
X15687333Y18786610D02*
X15639714Y18738991D01*
X15639714Y18738991D02*
X15592095Y18643753D01*
X15592095Y18643753D02*
X15592095Y18405658D01*
X15592095Y18405658D02*
X15639714Y18310420D01*
X15639714Y18310420D02*
X15687333Y18262800D01*
X15687333Y18262800D02*
X15782571Y18215181D01*
X15782571Y18215181D02*
X16020666Y18215181D01*
X16020666Y18215181D02*
X16115904Y18262800D01*
X16115904Y18262800D02*
X16163523Y18310420D01*
X21625819Y16531358D02*
X21149628Y16864691D01*
X21625819Y17102786D02*
X20625819Y17102786D01*
X20625819Y17102786D02*
X20625819Y16721834D01*
X20625819Y16721834D02*
X20673438Y16626596D01*
X20673438Y16626596D02*
X20721057Y16578977D01*
X20721057Y16578977D02*
X20816295Y16531358D01*
X20816295Y16531358D02*
X20959152Y16531358D01*
X20959152Y16531358D02*
X21054390Y16578977D01*
X21054390Y16578977D02*
X21102009Y16626596D01*
X21102009Y16626596D02*
X21149628Y16721834D01*
X21149628Y16721834D02*
X21149628Y17102786D01*
X21625819Y15578977D02*
X21625819Y16150405D01*
X21625819Y15864691D02*
X20625819Y15864691D01*
X20625819Y15864691D02*
X20768676Y15959929D01*
X20768676Y15959929D02*
X20863914Y16055167D01*
X20863914Y16055167D02*
X20911533Y16150405D01*
X20625819Y15245643D02*
X20625819Y14578977D01*
X20625819Y14578977D02*
X21625819Y15007548D01*
X34451726Y11776120D02*
X35479821Y11776120D01*
X35479821Y11776120D02*
X35600773Y11715643D01*
X35600773Y11715643D02*
X35661250Y11655167D01*
X35661250Y11655167D02*
X35721726Y11534215D01*
X35721726Y11534215D02*
X35721726Y11292310D01*
X35721726Y11292310D02*
X35661250Y11171358D01*
X35661250Y11171358D02*
X35600773Y11110881D01*
X35600773Y11110881D02*
X35479821Y11050405D01*
X35479821Y11050405D02*
X34451726Y11050405D01*
X35721726Y9780405D02*
X35721726Y10506120D01*
X35721726Y10143263D02*
X34451726Y10143263D01*
X34451726Y10143263D02*
X34633154Y10264215D01*
X34633154Y10264215D02*
X34754107Y10385167D01*
X34754107Y10385167D02*
X34814583Y10506120D01*
X37647557Y42971239D02*
X37599938Y43066477D01*
X37599938Y43066477D02*
X37504700Y43161715D01*
X37504700Y43161715D02*
X37361842Y43304572D01*
X37361842Y43304572D02*
X37314223Y43399810D01*
X37314223Y43399810D02*
X37314223Y43495048D01*
X37552319Y43447429D02*
X37504700Y43542667D01*
X37504700Y43542667D02*
X37409461Y43637905D01*
X37409461Y43637905D02*
X37218985Y43685524D01*
X37218985Y43685524D02*
X36885652Y43685524D01*
X36885652Y43685524D02*
X36695176Y43637905D01*
X36695176Y43637905D02*
X36599938Y43542667D01*
X36599938Y43542667D02*
X36552319Y43447429D01*
X36552319Y43447429D02*
X36552319Y43256953D01*
X36552319Y43256953D02*
X36599938Y43161715D01*
X36599938Y43161715D02*
X36695176Y43066477D01*
X36695176Y43066477D02*
X36885652Y43018858D01*
X36885652Y43018858D02*
X37218985Y43018858D01*
X37218985Y43018858D02*
X37409461Y43066477D01*
X37409461Y43066477D02*
X37504700Y43161715D01*
X37504700Y43161715D02*
X37552319Y43256953D01*
X37552319Y43256953D02*
X37552319Y43447429D01*
X37552319Y42066477D02*
X37552319Y42637905D01*
X37552319Y42352191D02*
X36552319Y42352191D01*
X36552319Y42352191D02*
X36695176Y42447429D01*
X36695176Y42447429D02*
X36790414Y42542667D01*
X36790414Y42542667D02*
X36838033Y42637905D01*
X18452819Y38107169D02*
X17976628Y38440502D01*
X18452819Y38678597D02*
X17452819Y38678597D01*
X17452819Y38678597D02*
X17452819Y38297645D01*
X17452819Y38297645D02*
X17500438Y38202407D01*
X17500438Y38202407D02*
X17548057Y38154788D01*
X17548057Y38154788D02*
X17643295Y38107169D01*
X17643295Y38107169D02*
X17786152Y38107169D01*
X17786152Y38107169D02*
X17881390Y38154788D01*
X17881390Y38154788D02*
X17929009Y38202407D01*
X17929009Y38202407D02*
X17976628Y38297645D01*
X17976628Y38297645D02*
X17976628Y38678597D01*
X18452819Y37154788D02*
X18452819Y37726216D01*
X18452819Y37440502D02*
X17452819Y37440502D01*
X17452819Y37440502D02*
X17595676Y37535740D01*
X17595676Y37535740D02*
X17690914Y37630978D01*
X17690914Y37630978D02*
X17738533Y37726216D01*
X18452819Y36678597D02*
X18452819Y36488121D01*
X18452819Y36488121D02*
X18405200Y36392883D01*
X18405200Y36392883D02*
X18357580Y36345264D01*
X18357580Y36345264D02*
X18214723Y36250026D01*
X18214723Y36250026D02*
X18024247Y36202407D01*
X18024247Y36202407D02*
X17643295Y36202407D01*
X17643295Y36202407D02*
X17548057Y36250026D01*
X17548057Y36250026D02*
X17500438Y36297645D01*
X17500438Y36297645D02*
X17452819Y36392883D01*
X17452819Y36392883D02*
X17452819Y36583359D01*
X17452819Y36583359D02*
X17500438Y36678597D01*
X17500438Y36678597D02*
X17548057Y36726216D01*
X17548057Y36726216D02*
X17643295Y36773835D01*
X17643295Y36773835D02*
X17881390Y36773835D01*
X17881390Y36773835D02*
X17976628Y36726216D01*
X17976628Y36726216D02*
X18024247Y36678597D01*
X18024247Y36678597D02*
X18071866Y36583359D01*
X18071866Y36583359D02*
X18071866Y36392883D01*
X18071866Y36392883D02*
X18024247Y36297645D01*
X18024247Y36297645D02*
X17976628Y36250026D01*
X17976628Y36250026D02*
X17881390Y36202407D01*
X37647557Y39161239D02*
X37599938Y39256477D01*
X37599938Y39256477D02*
X37504700Y39351715D01*
X37504700Y39351715D02*
X37361842Y39494572D01*
X37361842Y39494572D02*
X37314223Y39589810D01*
X37314223Y39589810D02*
X37314223Y39685048D01*
X37552319Y39637429D02*
X37504700Y39732667D01*
X37504700Y39732667D02*
X37409461Y39827905D01*
X37409461Y39827905D02*
X37218985Y39875524D01*
X37218985Y39875524D02*
X36885652Y39875524D01*
X36885652Y39875524D02*
X36695176Y39827905D01*
X36695176Y39827905D02*
X36599938Y39732667D01*
X36599938Y39732667D02*
X36552319Y39637429D01*
X36552319Y39637429D02*
X36552319Y39446953D01*
X36552319Y39446953D02*
X36599938Y39351715D01*
X36599938Y39351715D02*
X36695176Y39256477D01*
X36695176Y39256477D02*
X36885652Y39208858D01*
X36885652Y39208858D02*
X37218985Y39208858D01*
X37218985Y39208858D02*
X37409461Y39256477D01*
X37409461Y39256477D02*
X37504700Y39351715D01*
X37504700Y39351715D02*
X37552319Y39446953D01*
X37552319Y39446953D02*
X37552319Y39637429D01*
X36647557Y38827905D02*
X36599938Y38780286D01*
X36599938Y38780286D02*
X36552319Y38685048D01*
X36552319Y38685048D02*
X36552319Y38446953D01*
X36552319Y38446953D02*
X36599938Y38351715D01*
X36599938Y38351715D02*
X36647557Y38304096D01*
X36647557Y38304096D02*
X36742795Y38256477D01*
X36742795Y38256477D02*
X36838033Y38256477D01*
X36838033Y38256477D02*
X36980890Y38304096D01*
X36980890Y38304096D02*
X37552319Y38875524D01*
X37552319Y38875524D02*
X37552319Y38256477D01*
X6570213Y27931731D02*
X6617832Y27884111D01*
X6617832Y27884111D02*
X6760689Y27836492D01*
X6760689Y27836492D02*
X6855927Y27836492D01*
X6855927Y27836492D02*
X6998784Y27884111D01*
X6998784Y27884111D02*
X7094022Y27979350D01*
X7094022Y27979350D02*
X7141641Y28074588D01*
X7141641Y28074588D02*
X7189260Y28265064D01*
X7189260Y28265064D02*
X7189260Y28407921D01*
X7189260Y28407921D02*
X7141641Y28598397D01*
X7141641Y28598397D02*
X7094022Y28693635D01*
X7094022Y28693635D02*
X6998784Y28788873D01*
X6998784Y28788873D02*
X6855927Y28836492D01*
X6855927Y28836492D02*
X6760689Y28836492D01*
X6760689Y28836492D02*
X6617832Y28788873D01*
X6617832Y28788873D02*
X6570213Y28741254D01*
X5617832Y27836492D02*
X6189260Y27836492D01*
X5903546Y27836492D02*
X5903546Y28836492D01*
X5903546Y28836492D02*
X5998784Y28693635D01*
X5998784Y28693635D02*
X6094022Y28598397D01*
X6094022Y28598397D02*
X6189260Y28550778D01*
X39663580Y10784667D02*
X39711200Y10832286D01*
X39711200Y10832286D02*
X39758819Y10975143D01*
X39758819Y10975143D02*
X39758819Y11070381D01*
X39758819Y11070381D02*
X39711200Y11213238D01*
X39711200Y11213238D02*
X39615961Y11308476D01*
X39615961Y11308476D02*
X39520723Y11356095D01*
X39520723Y11356095D02*
X39330247Y11403714D01*
X39330247Y11403714D02*
X39187390Y11403714D01*
X39187390Y11403714D02*
X38996914Y11356095D01*
X38996914Y11356095D02*
X38901676Y11308476D01*
X38901676Y11308476D02*
X38806438Y11213238D01*
X38806438Y11213238D02*
X38758819Y11070381D01*
X38758819Y11070381D02*
X38758819Y10975143D01*
X38758819Y10975143D02*
X38806438Y10832286D01*
X38806438Y10832286D02*
X38854057Y10784667D01*
X38758819Y10451333D02*
X38758819Y9832286D01*
X38758819Y9832286D02*
X39139771Y10165619D01*
X39139771Y10165619D02*
X39139771Y10022762D01*
X39139771Y10022762D02*
X39187390Y9927524D01*
X39187390Y9927524D02*
X39235009Y9879905D01*
X39235009Y9879905D02*
X39330247Y9832286D01*
X39330247Y9832286D02*
X39568342Y9832286D01*
X39568342Y9832286D02*
X39663580Y9879905D01*
X39663580Y9879905D02*
X39711200Y9927524D01*
X39711200Y9927524D02*
X39758819Y10022762D01*
X39758819Y10022762D02*
X39758819Y10308476D01*
X39758819Y10308476D02*
X39711200Y10403714D01*
X39711200Y10403714D02*
X39663580Y10451333D01*
X41949580Y10530667D02*
X41997200Y10578286D01*
X41997200Y10578286D02*
X42044819Y10721143D01*
X42044819Y10721143D02*
X42044819Y10816381D01*
X42044819Y10816381D02*
X41997200Y10959238D01*
X41997200Y10959238D02*
X41901961Y11054476D01*
X41901961Y11054476D02*
X41806723Y11102095D01*
X41806723Y11102095D02*
X41616247Y11149714D01*
X41616247Y11149714D02*
X41473390Y11149714D01*
X41473390Y11149714D02*
X41282914Y11102095D01*
X41282914Y11102095D02*
X41187676Y11054476D01*
X41187676Y11054476D02*
X41092438Y10959238D01*
X41092438Y10959238D02*
X41044819Y10816381D01*
X41044819Y10816381D02*
X41044819Y10721143D01*
X41044819Y10721143D02*
X41092438Y10578286D01*
X41092438Y10578286D02*
X41140057Y10530667D01*
X41044819Y9625905D02*
X41044819Y10102095D01*
X41044819Y10102095D02*
X41521009Y10149714D01*
X41521009Y10149714D02*
X41473390Y10102095D01*
X41473390Y10102095D02*
X41425771Y10006857D01*
X41425771Y10006857D02*
X41425771Y9768762D01*
X41425771Y9768762D02*
X41473390Y9673524D01*
X41473390Y9673524D02*
X41521009Y9625905D01*
X41521009Y9625905D02*
X41616247Y9578286D01*
X41616247Y9578286D02*
X41854342Y9578286D01*
X41854342Y9578286D02*
X41949580Y9625905D01*
X41949580Y9625905D02*
X41997200Y9673524D01*
X41997200Y9673524D02*
X42044819Y9768762D01*
X42044819Y9768762D02*
X42044819Y10006857D01*
X42044819Y10006857D02*
X41997200Y10102095D01*
X41997200Y10102095D02*
X41949580Y10149714D01*
X20867580Y21674858D02*
X20915200Y21722477D01*
X20915200Y21722477D02*
X20962819Y21865334D01*
X20962819Y21865334D02*
X20962819Y21960572D01*
X20962819Y21960572D02*
X20915200Y22103429D01*
X20915200Y22103429D02*
X20819961Y22198667D01*
X20819961Y22198667D02*
X20724723Y22246286D01*
X20724723Y22246286D02*
X20534247Y22293905D01*
X20534247Y22293905D02*
X20391390Y22293905D01*
X20391390Y22293905D02*
X20200914Y22246286D01*
X20200914Y22246286D02*
X20105676Y22198667D01*
X20105676Y22198667D02*
X20010438Y22103429D01*
X20010438Y22103429D02*
X19962819Y21960572D01*
X19962819Y21960572D02*
X19962819Y21865334D01*
X19962819Y21865334D02*
X20010438Y21722477D01*
X20010438Y21722477D02*
X20058057Y21674858D01*
X20962819Y20722477D02*
X20962819Y21293905D01*
X20962819Y21008191D02*
X19962819Y21008191D01*
X19962819Y21008191D02*
X20105676Y21103429D01*
X20105676Y21103429D02*
X20200914Y21198667D01*
X20200914Y21198667D02*
X20248533Y21293905D01*
X19962819Y19817715D02*
X19962819Y20293905D01*
X19962819Y20293905D02*
X20439009Y20341524D01*
X20439009Y20341524D02*
X20391390Y20293905D01*
X20391390Y20293905D02*
X20343771Y20198667D01*
X20343771Y20198667D02*
X20343771Y19960572D01*
X20343771Y19960572D02*
X20391390Y19865334D01*
X20391390Y19865334D02*
X20439009Y19817715D01*
X20439009Y19817715D02*
X20534247Y19770096D01*
X20534247Y19770096D02*
X20772342Y19770096D01*
X20772342Y19770096D02*
X20867580Y19817715D01*
X20867580Y19817715D02*
X20915200Y19865334D01*
X20915200Y19865334D02*
X20962819Y19960572D01*
X20962819Y19960572D02*
X20962819Y20198667D01*
X20962819Y20198667D02*
X20915200Y20293905D01*
X20915200Y20293905D02*
X20867580Y20341524D01*
X6119866Y33122406D02*
X5119866Y33122406D01*
X5119866Y33122406D02*
X5119866Y32884311D01*
X5119866Y32884311D02*
X5167485Y32741454D01*
X5167485Y32741454D02*
X5262723Y32646216D01*
X5262723Y32646216D02*
X5357961Y32598597D01*
X5357961Y32598597D02*
X5548437Y32550978D01*
X5548437Y32550978D02*
X5691294Y32550978D01*
X5691294Y32550978D02*
X5881770Y32598597D01*
X5881770Y32598597D02*
X5977008Y32646216D01*
X5977008Y32646216D02*
X6072247Y32741454D01*
X6072247Y32741454D02*
X6119866Y32884311D01*
X6119866Y32884311D02*
X6119866Y33122406D01*
X6119866Y31598597D02*
X6119866Y32170025D01*
X6119866Y31884311D02*
X5119866Y31884311D01*
X5119866Y31884311D02*
X5262723Y31979549D01*
X5262723Y31979549D02*
X5357961Y32074787D01*
X5357961Y32074787D02*
X5405580Y32170025D01*
X34379866Y25565978D02*
X34379866Y26042168D01*
X34379866Y26042168D02*
X33379866Y26042168D01*
X33808437Y25089787D02*
X33760818Y25185025D01*
X33760818Y25185025D02*
X33713199Y25232644D01*
X33713199Y25232644D02*
X33617961Y25280263D01*
X33617961Y25280263D02*
X33570342Y25280263D01*
X33570342Y25280263D02*
X33475104Y25232644D01*
X33475104Y25232644D02*
X33427485Y25185025D01*
X33427485Y25185025D02*
X33379866Y25089787D01*
X33379866Y25089787D02*
X33379866Y24899311D01*
X33379866Y24899311D02*
X33427485Y24804073D01*
X33427485Y24804073D02*
X33475104Y24756454D01*
X33475104Y24756454D02*
X33570342Y24708835D01*
X33570342Y24708835D02*
X33617961Y24708835D01*
X33617961Y24708835D02*
X33713199Y24756454D01*
X33713199Y24756454D02*
X33760818Y24804073D01*
X33760818Y24804073D02*
X33808437Y24899311D01*
X33808437Y24899311D02*
X33808437Y25089787D01*
X33808437Y25089787D02*
X33856056Y25185025D01*
X33856056Y25185025D02*
X33903675Y25232644D01*
X33903675Y25232644D02*
X33998913Y25280263D01*
X33998913Y25280263D02*
X34189389Y25280263D01*
X34189389Y25280263D02*
X34284627Y25232644D01*
X34284627Y25232644D02*
X34332247Y25185025D01*
X34332247Y25185025D02*
X34379866Y25089787D01*
X34379866Y25089787D02*
X34379866Y24899311D01*
X34379866Y24899311D02*
X34332247Y24804073D01*
X34332247Y24804073D02*
X34284627Y24756454D01*
X34284627Y24756454D02*
X34189389Y24708835D01*
X34189389Y24708835D02*
X33998913Y24708835D01*
X33998913Y24708835D02*
X33903675Y24756454D01*
X33903675Y24756454D02*
X33856056Y24804073D01*
X33856056Y24804073D02*
X33808437Y24899311D01*
X34510213Y22607181D02*
X34843546Y23083372D01*
X35081641Y22607181D02*
X35081641Y23607181D01*
X35081641Y23607181D02*
X34700689Y23607181D01*
X34700689Y23607181D02*
X34605451Y23559562D01*
X34605451Y23559562D02*
X34557832Y23511943D01*
X34557832Y23511943D02*
X34510213Y23416705D01*
X34510213Y23416705D02*
X34510213Y23273848D01*
X34510213Y23273848D02*
X34557832Y23178610D01*
X34557832Y23178610D02*
X34605451Y23130991D01*
X34605451Y23130991D02*
X34700689Y23083372D01*
X34700689Y23083372D02*
X35081641Y23083372D01*
X33557832Y22607181D02*
X34129260Y22607181D01*
X33843546Y22607181D02*
X33843546Y23607181D01*
X33843546Y23607181D02*
X33938784Y23464324D01*
X33938784Y23464324D02*
X34034022Y23369086D01*
X34034022Y23369086D02*
X34129260Y23321467D01*
X17020666Y20755181D02*
X17353999Y21231372D01*
X17592094Y20755181D02*
X17592094Y21755181D01*
X17592094Y21755181D02*
X17211142Y21755181D01*
X17211142Y21755181D02*
X17115904Y21707562D01*
X17115904Y21707562D02*
X17068285Y21659943D01*
X17068285Y21659943D02*
X17020666Y21564705D01*
X17020666Y21564705D02*
X17020666Y21421848D01*
X17020666Y21421848D02*
X17068285Y21326610D01*
X17068285Y21326610D02*
X17115904Y21278991D01*
X17115904Y21278991D02*
X17211142Y21231372D01*
X17211142Y21231372D02*
X17592094Y21231372D01*
X16544475Y20755181D02*
X16353999Y20755181D01*
X16353999Y20755181D02*
X16258761Y20802800D01*
X16258761Y20802800D02*
X16211142Y20850420D01*
X16211142Y20850420D02*
X16115904Y20993277D01*
X16115904Y20993277D02*
X16068285Y21183753D01*
X16068285Y21183753D02*
X16068285Y21564705D01*
X16068285Y21564705D02*
X16115904Y21659943D01*
X16115904Y21659943D02*
X16163523Y21707562D01*
X16163523Y21707562D02*
X16258761Y21755181D01*
X16258761Y21755181D02*
X16449237Y21755181D01*
X16449237Y21755181D02*
X16544475Y21707562D01*
X16544475Y21707562D02*
X16592094Y21659943D01*
X16592094Y21659943D02*
X16639713Y21564705D01*
X16639713Y21564705D02*
X16639713Y21326610D01*
X16639713Y21326610D02*
X16592094Y21231372D01*
X16592094Y21231372D02*
X16544475Y21183753D01*
X16544475Y21183753D02*
X16449237Y21136134D01*
X16449237Y21136134D02*
X16258761Y21136134D01*
X16258761Y21136134D02*
X16163523Y21183753D01*
X16163523Y21183753D02*
X16115904Y21231372D01*
X16115904Y21231372D02*
X16068285Y21326610D01*
X16861857Y27309181D02*
X17195190Y27785372D01*
X17433285Y27309181D02*
X17433285Y28309181D01*
X17433285Y28309181D02*
X17052333Y28309181D01*
X17052333Y28309181D02*
X16957095Y28261562D01*
X16957095Y28261562D02*
X16909476Y28213943D01*
X16909476Y28213943D02*
X16861857Y28118705D01*
X16861857Y28118705D02*
X16861857Y27975848D01*
X16861857Y27975848D02*
X16909476Y27880610D01*
X16909476Y27880610D02*
X16957095Y27832991D01*
X16957095Y27832991D02*
X17052333Y27785372D01*
X17052333Y27785372D02*
X17433285Y27785372D01*
X15909476Y27309181D02*
X16480904Y27309181D01*
X16195190Y27309181D02*
X16195190Y28309181D01*
X16195190Y28309181D02*
X16290428Y28166324D01*
X16290428Y28166324D02*
X16385666Y28071086D01*
X16385666Y28071086D02*
X16480904Y28023467D01*
X15290428Y28309181D02*
X15195190Y28309181D01*
X15195190Y28309181D02*
X15099952Y28261562D01*
X15099952Y28261562D02*
X15052333Y28213943D01*
X15052333Y28213943D02*
X15004714Y28118705D01*
X15004714Y28118705D02*
X14957095Y27928229D01*
X14957095Y27928229D02*
X14957095Y27690134D01*
X14957095Y27690134D02*
X15004714Y27499658D01*
X15004714Y27499658D02*
X15052333Y27404420D01*
X15052333Y27404420D02*
X15099952Y27356800D01*
X15099952Y27356800D02*
X15195190Y27309181D01*
X15195190Y27309181D02*
X15290428Y27309181D01*
X15290428Y27309181D02*
X15385666Y27356800D01*
X15385666Y27356800D02*
X15433285Y27404420D01*
X15433285Y27404420D02*
X15480904Y27499658D01*
X15480904Y27499658D02*
X15528523Y27690134D01*
X15528523Y27690134D02*
X15528523Y27928229D01*
X15528523Y27928229D02*
X15480904Y28118705D01*
X15480904Y28118705D02*
X15433285Y28213943D01*
X15433285Y28213943D02*
X15385666Y28261562D01*
X15385666Y28261562D02*
X15290428Y28309181D01*
X26705819Y16531358D02*
X26229628Y16864691D01*
X26705819Y17102786D02*
X25705819Y17102786D01*
X25705819Y17102786D02*
X25705819Y16721834D01*
X25705819Y16721834D02*
X25753438Y16626596D01*
X25753438Y16626596D02*
X25801057Y16578977D01*
X25801057Y16578977D02*
X25896295Y16531358D01*
X25896295Y16531358D02*
X26039152Y16531358D01*
X26039152Y16531358D02*
X26134390Y16578977D01*
X26134390Y16578977D02*
X26182009Y16626596D01*
X26182009Y16626596D02*
X26229628Y16721834D01*
X26229628Y16721834D02*
X26229628Y17102786D01*
X26705819Y15578977D02*
X26705819Y16150405D01*
X26705819Y15864691D02*
X25705819Y15864691D01*
X25705819Y15864691D02*
X25848676Y15959929D01*
X25848676Y15959929D02*
X25943914Y16055167D01*
X25943914Y16055167D02*
X25991533Y16150405D01*
X25705819Y15245643D02*
X25705819Y14626596D01*
X25705819Y14626596D02*
X26086771Y14959929D01*
X26086771Y14959929D02*
X26086771Y14817072D01*
X26086771Y14817072D02*
X26134390Y14721834D01*
X26134390Y14721834D02*
X26182009Y14674215D01*
X26182009Y14674215D02*
X26277247Y14626596D01*
X26277247Y14626596D02*
X26515342Y14626596D01*
X26515342Y14626596D02*
X26610580Y14674215D01*
X26610580Y14674215D02*
X26658200Y14721834D01*
X26658200Y14721834D02*
X26705819Y14817072D01*
X26705819Y14817072D02*
X26705819Y15102786D01*
X26705819Y15102786D02*
X26658200Y15198024D01*
X26658200Y15198024D02*
X26610580Y15245643D01*
X24165819Y16531358D02*
X23689628Y16864691D01*
X24165819Y17102786D02*
X23165819Y17102786D01*
X23165819Y17102786D02*
X23165819Y16721834D01*
X23165819Y16721834D02*
X23213438Y16626596D01*
X23213438Y16626596D02*
X23261057Y16578977D01*
X23261057Y16578977D02*
X23356295Y16531358D01*
X23356295Y16531358D02*
X23499152Y16531358D01*
X23499152Y16531358D02*
X23594390Y16578977D01*
X23594390Y16578977D02*
X23642009Y16626596D01*
X23642009Y16626596D02*
X23689628Y16721834D01*
X23689628Y16721834D02*
X23689628Y17102786D01*
X24165819Y15578977D02*
X24165819Y16150405D01*
X24165819Y15864691D02*
X23165819Y15864691D01*
X23165819Y15864691D02*
X23308676Y15959929D01*
X23308676Y15959929D02*
X23403914Y16055167D01*
X23403914Y16055167D02*
X23451533Y16150405D01*
X23165819Y14721834D02*
X23165819Y14912310D01*
X23165819Y14912310D02*
X23213438Y15007548D01*
X23213438Y15007548D02*
X23261057Y15055167D01*
X23261057Y15055167D02*
X23403914Y15150405D01*
X23403914Y15150405D02*
X23594390Y15198024D01*
X23594390Y15198024D02*
X23975342Y15198024D01*
X23975342Y15198024D02*
X24070580Y15150405D01*
X24070580Y15150405D02*
X24118200Y15102786D01*
X24118200Y15102786D02*
X24165819Y15007548D01*
X24165819Y15007548D02*
X24165819Y14817072D01*
X24165819Y14817072D02*
X24118200Y14721834D01*
X24118200Y14721834D02*
X24070580Y14674215D01*
X24070580Y14674215D02*
X23975342Y14626596D01*
X23975342Y14626596D02*
X23737247Y14626596D01*
X23737247Y14626596D02*
X23642009Y14674215D01*
X23642009Y14674215D02*
X23594390Y14721834D01*
X23594390Y14721834D02*
X23546771Y14817072D01*
X23546771Y14817072D02*
X23546771Y15007548D01*
X23546771Y15007548D02*
X23594390Y15102786D01*
X23594390Y15102786D02*
X23642009Y15150405D01*
X23642009Y15150405D02*
X23737247Y15198024D01*
X39150357Y44579181D02*
X39483690Y45055372D01*
X39721785Y44579181D02*
X39721785Y45579181D01*
X39721785Y45579181D02*
X39340833Y45579181D01*
X39340833Y45579181D02*
X39245595Y45531562D01*
X39245595Y45531562D02*
X39197976Y45483943D01*
X39197976Y45483943D02*
X39150357Y45388705D01*
X39150357Y45388705D02*
X39150357Y45245848D01*
X39150357Y45245848D02*
X39197976Y45150610D01*
X39197976Y45150610D02*
X39245595Y45102991D01*
X39245595Y45102991D02*
X39340833Y45055372D01*
X39340833Y45055372D02*
X39721785Y45055372D01*
X38769404Y45483943D02*
X38721785Y45531562D01*
X38721785Y45531562D02*
X38626547Y45579181D01*
X38626547Y45579181D02*
X38388452Y45579181D01*
X38388452Y45579181D02*
X38293214Y45531562D01*
X38293214Y45531562D02*
X38245595Y45483943D01*
X38245595Y45483943D02*
X38197976Y45388705D01*
X38197976Y45388705D02*
X38197976Y45293467D01*
X38197976Y45293467D02*
X38245595Y45150610D01*
X38245595Y45150610D02*
X38817023Y44579181D01*
X38817023Y44579181D02*
X38197976Y44579181D01*
X37817023Y45483943D02*
X37769404Y45531562D01*
X37769404Y45531562D02*
X37674166Y45579181D01*
X37674166Y45579181D02*
X37436071Y45579181D01*
X37436071Y45579181D02*
X37340833Y45531562D01*
X37340833Y45531562D02*
X37293214Y45483943D01*
X37293214Y45483943D02*
X37245595Y45388705D01*
X37245595Y45388705D02*
X37245595Y45293467D01*
X37245595Y45293467D02*
X37293214Y45150610D01*
X37293214Y45150610D02*
X37864642Y44579181D01*
X37864642Y44579181D02*
X37245595Y44579181D01*
X39086857Y41023181D02*
X39420190Y41499372D01*
X39658285Y41023181D02*
X39658285Y42023181D01*
X39658285Y42023181D02*
X39277333Y42023181D01*
X39277333Y42023181D02*
X39182095Y41975562D01*
X39182095Y41975562D02*
X39134476Y41927943D01*
X39134476Y41927943D02*
X39086857Y41832705D01*
X39086857Y41832705D02*
X39086857Y41689848D01*
X39086857Y41689848D02*
X39134476Y41594610D01*
X39134476Y41594610D02*
X39182095Y41546991D01*
X39182095Y41546991D02*
X39277333Y41499372D01*
X39277333Y41499372D02*
X39658285Y41499372D01*
X38705904Y41927943D02*
X38658285Y41975562D01*
X38658285Y41975562D02*
X38563047Y42023181D01*
X38563047Y42023181D02*
X38324952Y42023181D01*
X38324952Y42023181D02*
X38229714Y41975562D01*
X38229714Y41975562D02*
X38182095Y41927943D01*
X38182095Y41927943D02*
X38134476Y41832705D01*
X38134476Y41832705D02*
X38134476Y41737467D01*
X38134476Y41737467D02*
X38182095Y41594610D01*
X38182095Y41594610D02*
X38753523Y41023181D01*
X38753523Y41023181D02*
X38134476Y41023181D01*
X37801142Y42023181D02*
X37182095Y42023181D01*
X37182095Y42023181D02*
X37515428Y41642229D01*
X37515428Y41642229D02*
X37372571Y41642229D01*
X37372571Y41642229D02*
X37277333Y41594610D01*
X37277333Y41594610D02*
X37229714Y41546991D01*
X37229714Y41546991D02*
X37182095Y41451753D01*
X37182095Y41451753D02*
X37182095Y41213658D01*
X37182095Y41213658D02*
X37229714Y41118420D01*
X37229714Y41118420D02*
X37277333Y41070800D01*
X37277333Y41070800D02*
X37372571Y41023181D01*
X37372571Y41023181D02*
X37658285Y41023181D01*
X37658285Y41023181D02*
X37753523Y41070800D01*
X37753523Y41070800D02*
X37801142Y41118420D01*
X27471580Y21674858D02*
X27519200Y21722477D01*
X27519200Y21722477D02*
X27566819Y21865334D01*
X27566819Y21865334D02*
X27566819Y21960572D01*
X27566819Y21960572D02*
X27519200Y22103429D01*
X27519200Y22103429D02*
X27423961Y22198667D01*
X27423961Y22198667D02*
X27328723Y22246286D01*
X27328723Y22246286D02*
X27138247Y22293905D01*
X27138247Y22293905D02*
X26995390Y22293905D01*
X26995390Y22293905D02*
X26804914Y22246286D01*
X26804914Y22246286D02*
X26709676Y22198667D01*
X26709676Y22198667D02*
X26614438Y22103429D01*
X26614438Y22103429D02*
X26566819Y21960572D01*
X26566819Y21960572D02*
X26566819Y21865334D01*
X26566819Y21865334D02*
X26614438Y21722477D01*
X26614438Y21722477D02*
X26662057Y21674858D01*
X26662057Y21293905D02*
X26614438Y21246286D01*
X26614438Y21246286D02*
X26566819Y21151048D01*
X26566819Y21151048D02*
X26566819Y20912953D01*
X26566819Y20912953D02*
X26614438Y20817715D01*
X26614438Y20817715D02*
X26662057Y20770096D01*
X26662057Y20770096D02*
X26757295Y20722477D01*
X26757295Y20722477D02*
X26852533Y20722477D01*
X26852533Y20722477D02*
X26995390Y20770096D01*
X26995390Y20770096D02*
X27566819Y21341524D01*
X27566819Y21341524D02*
X27566819Y20722477D01*
X26566819Y20103429D02*
X26566819Y20008191D01*
X26566819Y20008191D02*
X26614438Y19912953D01*
X26614438Y19912953D02*
X26662057Y19865334D01*
X26662057Y19865334D02*
X26757295Y19817715D01*
X26757295Y19817715D02*
X26947771Y19770096D01*
X26947771Y19770096D02*
X27185866Y19770096D01*
X27185866Y19770096D02*
X27376342Y19817715D01*
X27376342Y19817715D02*
X27471580Y19865334D01*
X27471580Y19865334D02*
X27519200Y19912953D01*
X27519200Y19912953D02*
X27566819Y20008191D01*
X27566819Y20008191D02*
X27566819Y20103429D01*
X27566819Y20103429D02*
X27519200Y20198667D01*
X27519200Y20198667D02*
X27471580Y20246286D01*
X27471580Y20246286D02*
X27376342Y20293905D01*
X27376342Y20293905D02*
X27185866Y20341524D01*
X27185866Y20341524D02*
X26947771Y20341524D01*
X26947771Y20341524D02*
X26757295Y20293905D01*
X26757295Y20293905D02*
X26662057Y20246286D01*
X26662057Y20246286D02*
X26614438Y20198667D01*
X26614438Y20198667D02*
X26566819Y20103429D01*
X23407580Y21674858D02*
X23455200Y21722477D01*
X23455200Y21722477D02*
X23502819Y21865334D01*
X23502819Y21865334D02*
X23502819Y21960572D01*
X23502819Y21960572D02*
X23455200Y22103429D01*
X23455200Y22103429D02*
X23359961Y22198667D01*
X23359961Y22198667D02*
X23264723Y22246286D01*
X23264723Y22246286D02*
X23074247Y22293905D01*
X23074247Y22293905D02*
X22931390Y22293905D01*
X22931390Y22293905D02*
X22740914Y22246286D01*
X22740914Y22246286D02*
X22645676Y22198667D01*
X22645676Y22198667D02*
X22550438Y22103429D01*
X22550438Y22103429D02*
X22502819Y21960572D01*
X22502819Y21960572D02*
X22502819Y21865334D01*
X22502819Y21865334D02*
X22550438Y21722477D01*
X22550438Y21722477D02*
X22598057Y21674858D01*
X23502819Y20722477D02*
X23502819Y21293905D01*
X23502819Y21008191D02*
X22502819Y21008191D01*
X22502819Y21008191D02*
X22645676Y21103429D01*
X22645676Y21103429D02*
X22740914Y21198667D01*
X22740914Y21198667D02*
X22788533Y21293905D01*
X22502819Y20389143D02*
X22502819Y19722477D01*
X22502819Y19722477D02*
X23502819Y20151048D01*
X6570213Y29963731D02*
X6617832Y29916111D01*
X6617832Y29916111D02*
X6760689Y29868492D01*
X6760689Y29868492D02*
X6855927Y29868492D01*
X6855927Y29868492D02*
X6998784Y29916111D01*
X6998784Y29916111D02*
X7094022Y30011350D01*
X7094022Y30011350D02*
X7141641Y30106588D01*
X7141641Y30106588D02*
X7189260Y30297064D01*
X7189260Y30297064D02*
X7189260Y30439921D01*
X7189260Y30439921D02*
X7141641Y30630397D01*
X7141641Y30630397D02*
X7094022Y30725635D01*
X7094022Y30725635D02*
X6998784Y30820873D01*
X6998784Y30820873D02*
X6855927Y30868492D01*
X6855927Y30868492D02*
X6760689Y30868492D01*
X6760689Y30868492D02*
X6617832Y30820873D01*
X6617832Y30820873D02*
X6570213Y30773254D01*
X6189260Y30773254D02*
X6141641Y30820873D01*
X6141641Y30820873D02*
X6046403Y30868492D01*
X6046403Y30868492D02*
X5808308Y30868492D01*
X5808308Y30868492D02*
X5713070Y30820873D01*
X5713070Y30820873D02*
X5665451Y30773254D01*
X5665451Y30773254D02*
X5617832Y30678016D01*
X5617832Y30678016D02*
X5617832Y30582778D01*
X5617832Y30582778D02*
X5665451Y30439921D01*
X5665451Y30439921D02*
X6236879Y29868492D01*
X6236879Y29868492D02*
X5617832Y29868492D01*
X15912819Y38107169D02*
X15436628Y38440502D01*
X15912819Y38678597D02*
X14912819Y38678597D01*
X14912819Y38678597D02*
X14912819Y38297645D01*
X14912819Y38297645D02*
X14960438Y38202407D01*
X14960438Y38202407D02*
X15008057Y38154788D01*
X15008057Y38154788D02*
X15103295Y38107169D01*
X15103295Y38107169D02*
X15246152Y38107169D01*
X15246152Y38107169D02*
X15341390Y38154788D01*
X15341390Y38154788D02*
X15389009Y38202407D01*
X15389009Y38202407D02*
X15436628Y38297645D01*
X15436628Y38297645D02*
X15436628Y38678597D01*
X15912819Y37154788D02*
X15912819Y37726216D01*
X15912819Y37440502D02*
X14912819Y37440502D01*
X14912819Y37440502D02*
X15055676Y37535740D01*
X15055676Y37535740D02*
X15150914Y37630978D01*
X15150914Y37630978D02*
X15198533Y37726216D01*
X15341390Y36583359D02*
X15293771Y36678597D01*
X15293771Y36678597D02*
X15246152Y36726216D01*
X15246152Y36726216D02*
X15150914Y36773835D01*
X15150914Y36773835D02*
X15103295Y36773835D01*
X15103295Y36773835D02*
X15008057Y36726216D01*
X15008057Y36726216D02*
X14960438Y36678597D01*
X14960438Y36678597D02*
X14912819Y36583359D01*
X14912819Y36583359D02*
X14912819Y36392883D01*
X14912819Y36392883D02*
X14960438Y36297645D01*
X14960438Y36297645D02*
X15008057Y36250026D01*
X15008057Y36250026D02*
X15103295Y36202407D01*
X15103295Y36202407D02*
X15150914Y36202407D01*
X15150914Y36202407D02*
X15246152Y36250026D01*
X15246152Y36250026D02*
X15293771Y36297645D01*
X15293771Y36297645D02*
X15341390Y36392883D01*
X15341390Y36392883D02*
X15341390Y36583359D01*
X15341390Y36583359D02*
X15389009Y36678597D01*
X15389009Y36678597D02*
X15436628Y36726216D01*
X15436628Y36726216D02*
X15531866Y36773835D01*
X15531866Y36773835D02*
X15722342Y36773835D01*
X15722342Y36773835D02*
X15817580Y36726216D01*
X15817580Y36726216D02*
X15865200Y36678597D01*
X15865200Y36678597D02*
X15912819Y36583359D01*
X15912819Y36583359D02*
X15912819Y36392883D01*
X15912819Y36392883D02*
X15865200Y36297645D01*
X15865200Y36297645D02*
X15817580Y36250026D01*
X15817580Y36250026D02*
X15722342Y36202407D01*
X15722342Y36202407D02*
X15531866Y36202407D01*
X15531866Y36202407D02*
X15436628Y36250026D01*
X15436628Y36250026D02*
X15389009Y36297645D01*
X15389009Y36297645D02*
X15341390Y36392883D01*
X17152857Y23295181D02*
X17486190Y23771372D01*
X17724285Y23295181D02*
X17724285Y24295181D01*
X17724285Y24295181D02*
X17343333Y24295181D01*
X17343333Y24295181D02*
X17248095Y24247562D01*
X17248095Y24247562D02*
X17200476Y24199943D01*
X17200476Y24199943D02*
X17152857Y24104705D01*
X17152857Y24104705D02*
X17152857Y23961848D01*
X17152857Y23961848D02*
X17200476Y23866610D01*
X17200476Y23866610D02*
X17248095Y23818991D01*
X17248095Y23818991D02*
X17343333Y23771372D01*
X17343333Y23771372D02*
X17724285Y23771372D01*
X16200476Y23295181D02*
X16771904Y23295181D01*
X16486190Y23295181D02*
X16486190Y24295181D01*
X16486190Y24295181D02*
X16581428Y24152324D01*
X16581428Y24152324D02*
X16676666Y24057086D01*
X16676666Y24057086D02*
X16771904Y24009467D01*
X15248095Y23295181D02*
X15819523Y23295181D01*
X15533809Y23295181D02*
X15533809Y24295181D01*
X15533809Y24295181D02*
X15629047Y24152324D01*
X15629047Y24152324D02*
X15724285Y24057086D01*
X15724285Y24057086D02*
X15819523Y24009467D01*
X16304546Y29849181D02*
X16637879Y30325372D01*
X16875974Y29849181D02*
X16875974Y30849181D01*
X16875974Y30849181D02*
X16495022Y30849181D01*
X16495022Y30849181D02*
X16399784Y30801562D01*
X16399784Y30801562D02*
X16352165Y30753943D01*
X16352165Y30753943D02*
X16304546Y30658705D01*
X16304546Y30658705D02*
X16304546Y30515848D01*
X16304546Y30515848D02*
X16352165Y30420610D01*
X16352165Y30420610D02*
X16399784Y30372991D01*
X16399784Y30372991D02*
X16495022Y30325372D01*
X16495022Y30325372D02*
X16875974Y30325372D01*
X15352165Y29849181D02*
X15923593Y29849181D01*
X15637879Y29849181D02*
X15637879Y30849181D01*
X15637879Y30849181D02*
X15733117Y30706324D01*
X15733117Y30706324D02*
X15828355Y30611086D01*
X15828355Y30611086D02*
X15923593Y30563467D01*
X14971212Y30753943D02*
X14923593Y30801562D01*
X14923593Y30801562D02*
X14828355Y30849181D01*
X14828355Y30849181D02*
X14590260Y30849181D01*
X14590260Y30849181D02*
X14495022Y30801562D01*
X14495022Y30801562D02*
X14447403Y30753943D01*
X14447403Y30753943D02*
X14399784Y30658705D01*
X14399784Y30658705D02*
X14399784Y30563467D01*
X14399784Y30563467D02*
X14447403Y30420610D01*
X14447403Y30420610D02*
X15018831Y29849181D01*
X15018831Y29849181D02*
X14399784Y29849181D01*
X22130790Y34953172D02*
X22130790Y34476981D01*
X22464123Y35476981D02*
X22130790Y34953172D01*
X22130790Y34953172D02*
X21797457Y35476981D01*
X21511742Y35381743D02*
X21464123Y35429362D01*
X21464123Y35429362D02*
X21368885Y35476981D01*
X21368885Y35476981D02*
X21130790Y35476981D01*
X21130790Y35476981D02*
X21035552Y35429362D01*
X21035552Y35429362D02*
X20987933Y35381743D01*
X20987933Y35381743D02*
X20940314Y35286505D01*
X20940314Y35286505D02*
X20940314Y35191267D01*
X20940314Y35191267D02*
X20987933Y35048410D01*
X20987933Y35048410D02*
X21559361Y34476981D01*
X21559361Y34476981D02*
X20940314Y34476981D01*
X22976951Y29957181D02*
X22976951Y29147658D01*
X22976951Y29147658D02*
X22929332Y29052420D01*
X22929332Y29052420D02*
X22881713Y29004800D01*
X22881713Y29004800D02*
X22786475Y28957181D01*
X22786475Y28957181D02*
X22595999Y28957181D01*
X22595999Y28957181D02*
X22500761Y29004800D01*
X22500761Y29004800D02*
X22453142Y29052420D01*
X22453142Y29052420D02*
X22405523Y29147658D01*
X22405523Y29147658D02*
X22405523Y29957181D01*
X21976951Y29861943D02*
X21929332Y29909562D01*
X21929332Y29909562D02*
X21834094Y29957181D01*
X21834094Y29957181D02*
X21595999Y29957181D01*
X21595999Y29957181D02*
X21500761Y29909562D01*
X21500761Y29909562D02*
X21453142Y29861943D01*
X21453142Y29861943D02*
X21405523Y29766705D01*
X21405523Y29766705D02*
X21405523Y29671467D01*
X21405523Y29671467D02*
X21453142Y29528610D01*
X21453142Y29528610D02*
X22024570Y28957181D01*
X22024570Y28957181D02*
X21405523Y28957181D01*
X33303713Y29263092D02*
X33779903Y29263092D01*
X33779903Y29263092D02*
X33779903Y30263092D01*
X33065617Y30263092D02*
X32398951Y30263092D01*
X32398951Y30263092D02*
X32827522Y29263092D01*
X36351713Y32844492D02*
X36827903Y32844492D01*
X36827903Y32844492D02*
X36827903Y33844492D01*
X35589808Y33844492D02*
X35780284Y33844492D01*
X35780284Y33844492D02*
X35875522Y33796873D01*
X35875522Y33796873D02*
X35923141Y33749254D01*
X35923141Y33749254D02*
X36018379Y33606397D01*
X36018379Y33606397D02*
X36065998Y33415921D01*
X36065998Y33415921D02*
X36065998Y33034969D01*
X36065998Y33034969D02*
X36018379Y32939731D01*
X36018379Y32939731D02*
X35970760Y32892111D01*
X35970760Y32892111D02*
X35875522Y32844492D01*
X35875522Y32844492D02*
X35685046Y32844492D01*
X35685046Y32844492D02*
X35589808Y32892111D01*
X35589808Y32892111D02*
X35542189Y32939731D01*
X35542189Y32939731D02*
X35494570Y33034969D01*
X35494570Y33034969D02*
X35494570Y33273064D01*
X35494570Y33273064D02*
X35542189Y33368302D01*
X35542189Y33368302D02*
X35589808Y33415921D01*
X35589808Y33415921D02*
X35685046Y33463540D01*
X35685046Y33463540D02*
X35875522Y33463540D01*
X35875522Y33463540D02*
X35970760Y33415921D01*
X35970760Y33415921D02*
X36018379Y33368302D01*
X36018379Y33368302D02*
X36065998Y33273064D01*
X32541713Y35384492D02*
X33017903Y35384492D01*
X33017903Y35384492D02*
X33017903Y36384492D01*
X32160760Y35384492D02*
X31970284Y35384492D01*
X31970284Y35384492D02*
X31875046Y35432111D01*
X31875046Y35432111D02*
X31827427Y35479731D01*
X31827427Y35479731D02*
X31732189Y35622588D01*
X31732189Y35622588D02*
X31684570Y35813064D01*
X31684570Y35813064D02*
X31684570Y36194016D01*
X31684570Y36194016D02*
X31732189Y36289254D01*
X31732189Y36289254D02*
X31779808Y36336873D01*
X31779808Y36336873D02*
X31875046Y36384492D01*
X31875046Y36384492D02*
X32065522Y36384492D01*
X32065522Y36384492D02*
X32160760Y36336873D01*
X32160760Y36336873D02*
X32208379Y36289254D01*
X32208379Y36289254D02*
X32255998Y36194016D01*
X32255998Y36194016D02*
X32255998Y35955921D01*
X32255998Y35955921D02*
X32208379Y35860683D01*
X32208379Y35860683D02*
X32160760Y35813064D01*
X32160760Y35813064D02*
X32065522Y35765445D01*
X32065522Y35765445D02*
X31875046Y35765445D01*
X31875046Y35765445D02*
X31779808Y35813064D01*
X31779808Y35813064D02*
X31732189Y35860683D01*
X31732189Y35860683D02*
X31684570Y35955921D01*
X37113713Y29263092D02*
X37589903Y29263092D01*
X37589903Y29263092D02*
X37589903Y30263092D01*
X36304189Y30263092D02*
X36780379Y30263092D01*
X36780379Y30263092D02*
X36827998Y29786902D01*
X36827998Y29786902D02*
X36780379Y29834521D01*
X36780379Y29834521D02*
X36685141Y29882140D01*
X36685141Y29882140D02*
X36447046Y29882140D01*
X36447046Y29882140D02*
X36351808Y29834521D01*
X36351808Y29834521D02*
X36304189Y29786902D01*
X36304189Y29786902D02*
X36256570Y29691664D01*
X36256570Y29691664D02*
X36256570Y29453569D01*
X36256570Y29453569D02*
X36304189Y29358331D01*
X36304189Y29358331D02*
X36351808Y29310711D01*
X36351808Y29310711D02*
X36447046Y29263092D01*
X36447046Y29263092D02*
X36685141Y29263092D01*
X36685141Y29263092D02*
X36780379Y29310711D01*
X36780379Y29310711D02*
X36827998Y29358331D01*
X28104866Y33662169D02*
X28104866Y34138359D01*
X28104866Y34138359D02*
X27104866Y34138359D01*
X28104866Y32805026D02*
X28104866Y33376454D01*
X28104866Y33090740D02*
X27104866Y33090740D01*
X27104866Y33090740D02*
X27247723Y33185978D01*
X27247723Y33185978D02*
X27342961Y33281216D01*
X27342961Y33281216D02*
X27390580Y33376454D01*
X27104866Y32185978D02*
X27104866Y32090740D01*
X27104866Y32090740D02*
X27152485Y31995502D01*
X27152485Y31995502D02*
X27200104Y31947883D01*
X27200104Y31947883D02*
X27295342Y31900264D01*
X27295342Y31900264D02*
X27485818Y31852645D01*
X27485818Y31852645D02*
X27723913Y31852645D01*
X27723913Y31852645D02*
X27914389Y31900264D01*
X27914389Y31900264D02*
X28009627Y31947883D01*
X28009627Y31947883D02*
X28057247Y31995502D01*
X28057247Y31995502D02*
X28104866Y32090740D01*
X28104866Y32090740D02*
X28104866Y32185978D01*
X28104866Y32185978D02*
X28057247Y32281216D01*
X28057247Y32281216D02*
X28009627Y32328835D01*
X28009627Y32328835D02*
X27914389Y32376454D01*
X27914389Y32376454D02*
X27723913Y32424073D01*
X27723913Y32424073D02*
X27485818Y32424073D01*
X27485818Y32424073D02*
X27295342Y32376454D01*
X27295342Y32376454D02*
X27200104Y32328835D01*
X27200104Y32328835D02*
X27152485Y32281216D01*
X27152485Y32281216D02*
X27104866Y32185978D01*
X38166627Y25159578D02*
X38214247Y25207197D01*
X38214247Y25207197D02*
X38261866Y25350054D01*
X38261866Y25350054D02*
X38261866Y25445292D01*
X38261866Y25445292D02*
X38214247Y25588149D01*
X38214247Y25588149D02*
X38119008Y25683387D01*
X38119008Y25683387D02*
X38023770Y25731006D01*
X38023770Y25731006D02*
X37833294Y25778625D01*
X37833294Y25778625D02*
X37690437Y25778625D01*
X37690437Y25778625D02*
X37499961Y25731006D01*
X37499961Y25731006D02*
X37404723Y25683387D01*
X37404723Y25683387D02*
X37309485Y25588149D01*
X37309485Y25588149D02*
X37261866Y25445292D01*
X37261866Y25445292D02*
X37261866Y25350054D01*
X37261866Y25350054D02*
X37309485Y25207197D01*
X37309485Y25207197D02*
X37357104Y25159578D01*
X37261866Y24826244D02*
X37261866Y24159578D01*
X37261866Y24159578D02*
X38261866Y24588149D01*
X33086627Y25159578D02*
X33134247Y25207197D01*
X33134247Y25207197D02*
X33181866Y25350054D01*
X33181866Y25350054D02*
X33181866Y25445292D01*
X33181866Y25445292D02*
X33134247Y25588149D01*
X33134247Y25588149D02*
X33039008Y25683387D01*
X33039008Y25683387D02*
X32943770Y25731006D01*
X32943770Y25731006D02*
X32753294Y25778625D01*
X32753294Y25778625D02*
X32610437Y25778625D01*
X32610437Y25778625D02*
X32419961Y25731006D01*
X32419961Y25731006D02*
X32324723Y25683387D01*
X32324723Y25683387D02*
X32229485Y25588149D01*
X32229485Y25588149D02*
X32181866Y25445292D01*
X32181866Y25445292D02*
X32181866Y25350054D01*
X32181866Y25350054D02*
X32229485Y25207197D01*
X32229485Y25207197D02*
X32277104Y25159578D01*
X33181866Y24683387D02*
X33181866Y24492911D01*
X33181866Y24492911D02*
X33134247Y24397673D01*
X33134247Y24397673D02*
X33086627Y24350054D01*
X33086627Y24350054D02*
X32943770Y24254816D01*
X32943770Y24254816D02*
X32753294Y24207197D01*
X32753294Y24207197D02*
X32372342Y24207197D01*
X32372342Y24207197D02*
X32277104Y24254816D01*
X32277104Y24254816D02*
X32229485Y24302435D01*
X32229485Y24302435D02*
X32181866Y24397673D01*
X32181866Y24397673D02*
X32181866Y24588149D01*
X32181866Y24588149D02*
X32229485Y24683387D01*
X32229485Y24683387D02*
X32277104Y24731006D01*
X32277104Y24731006D02*
X32372342Y24778625D01*
X32372342Y24778625D02*
X32610437Y24778625D01*
X32610437Y24778625D02*
X32705675Y24731006D01*
X32705675Y24731006D02*
X32753294Y24683387D01*
X32753294Y24683387D02*
X32800913Y24588149D01*
X32800913Y24588149D02*
X32800913Y24397673D01*
X32800913Y24397673D02*
X32753294Y24302435D01*
X32753294Y24302435D02*
X32705675Y24254816D01*
X32705675Y24254816D02*
X32610437Y24207197D01*
X33525627Y38043669D02*
X33573247Y38091288D01*
X33573247Y38091288D02*
X33620866Y38234145D01*
X33620866Y38234145D02*
X33620866Y38329383D01*
X33620866Y38329383D02*
X33573247Y38472240D01*
X33573247Y38472240D02*
X33478008Y38567478D01*
X33478008Y38567478D02*
X33382770Y38615097D01*
X33382770Y38615097D02*
X33192294Y38662716D01*
X33192294Y38662716D02*
X33049437Y38662716D01*
X33049437Y38662716D02*
X32858961Y38615097D01*
X32858961Y38615097D02*
X32763723Y38567478D01*
X32763723Y38567478D02*
X32668485Y38472240D01*
X32668485Y38472240D02*
X32620866Y38329383D01*
X32620866Y38329383D02*
X32620866Y38234145D01*
X32620866Y38234145D02*
X32668485Y38091288D01*
X32668485Y38091288D02*
X32716104Y38043669D01*
X33620866Y37091288D02*
X33620866Y37662716D01*
X33620866Y37377002D02*
X32620866Y37377002D01*
X32620866Y37377002D02*
X32763723Y37472240D01*
X32763723Y37472240D02*
X32858961Y37567478D01*
X32858961Y37567478D02*
X32906580Y37662716D01*
X32620866Y36757954D02*
X32620866Y36138907D01*
X32620866Y36138907D02*
X33001818Y36472240D01*
X33001818Y36472240D02*
X33001818Y36329383D01*
X33001818Y36329383D02*
X33049437Y36234145D01*
X33049437Y36234145D02*
X33097056Y36186526D01*
X33097056Y36186526D02*
X33192294Y36138907D01*
X33192294Y36138907D02*
X33430389Y36138907D01*
X33430389Y36138907D02*
X33525627Y36186526D01*
X33525627Y36186526D02*
X33573247Y36234145D01*
X33573247Y36234145D02*
X33620866Y36329383D01*
X33620866Y36329383D02*
X33620866Y36615097D01*
X33620866Y36615097D02*
X33573247Y36710335D01*
X33573247Y36710335D02*
X33525627Y36757954D01*
X37589627Y35567169D02*
X37637247Y35614788D01*
X37637247Y35614788D02*
X37684866Y35757645D01*
X37684866Y35757645D02*
X37684866Y35852883D01*
X37684866Y35852883D02*
X37637247Y35995740D01*
X37637247Y35995740D02*
X37542008Y36090978D01*
X37542008Y36090978D02*
X37446770Y36138597D01*
X37446770Y36138597D02*
X37256294Y36186216D01*
X37256294Y36186216D02*
X37113437Y36186216D01*
X37113437Y36186216D02*
X36922961Y36138597D01*
X36922961Y36138597D02*
X36827723Y36090978D01*
X36827723Y36090978D02*
X36732485Y35995740D01*
X36732485Y35995740D02*
X36684866Y35852883D01*
X36684866Y35852883D02*
X36684866Y35757645D01*
X36684866Y35757645D02*
X36732485Y35614788D01*
X36732485Y35614788D02*
X36780104Y35567169D01*
X37684866Y34614788D02*
X37684866Y35186216D01*
X37684866Y34900502D02*
X36684866Y34900502D01*
X36684866Y34900502D02*
X36827723Y34995740D01*
X36827723Y34995740D02*
X36922961Y35090978D01*
X36922961Y35090978D02*
X36970580Y35186216D01*
X36684866Y33995740D02*
X36684866Y33900502D01*
X36684866Y33900502D02*
X36732485Y33805264D01*
X36732485Y33805264D02*
X36780104Y33757645D01*
X36780104Y33757645D02*
X36875342Y33710026D01*
X36875342Y33710026D02*
X37065818Y33662407D01*
X37065818Y33662407D02*
X37303913Y33662407D01*
X37303913Y33662407D02*
X37494389Y33710026D01*
X37494389Y33710026D02*
X37589627Y33757645D01*
X37589627Y33757645D02*
X37637247Y33805264D01*
X37637247Y33805264D02*
X37684866Y33900502D01*
X37684866Y33900502D02*
X37684866Y33995740D01*
X37684866Y33995740D02*
X37637247Y34090978D01*
X37637247Y34090978D02*
X37589627Y34138597D01*
X37589627Y34138597D02*
X37494389Y34186216D01*
X37494389Y34186216D02*
X37303913Y34233835D01*
X37303913Y34233835D02*
X37065818Y34233835D01*
X37065818Y34233835D02*
X36875342Y34186216D01*
X36875342Y34186216D02*
X36780104Y34138597D01*
X36780104Y34138597D02*
X36732485Y34090978D01*
X36732485Y34090978D02*
X36684866Y33995740D01*
X31874627Y27947169D02*
X31922247Y27994788D01*
X31922247Y27994788D02*
X31969866Y28137645D01*
X31969866Y28137645D02*
X31969866Y28232883D01*
X31969866Y28232883D02*
X31922247Y28375740D01*
X31922247Y28375740D02*
X31827008Y28470978D01*
X31827008Y28470978D02*
X31731770Y28518597D01*
X31731770Y28518597D02*
X31541294Y28566216D01*
X31541294Y28566216D02*
X31398437Y28566216D01*
X31398437Y28566216D02*
X31207961Y28518597D01*
X31207961Y28518597D02*
X31112723Y28470978D01*
X31112723Y28470978D02*
X31017485Y28375740D01*
X31017485Y28375740D02*
X30969866Y28232883D01*
X30969866Y28232883D02*
X30969866Y28137645D01*
X30969866Y28137645D02*
X31017485Y27994788D01*
X31017485Y27994788D02*
X31065104Y27947169D01*
X31969866Y26994788D02*
X31969866Y27566216D01*
X31969866Y27280502D02*
X30969866Y27280502D01*
X30969866Y27280502D02*
X31112723Y27375740D01*
X31112723Y27375740D02*
X31207961Y27470978D01*
X31207961Y27470978D02*
X31255580Y27566216D01*
X31969866Y26042407D02*
X31969866Y26613835D01*
X31969866Y26328121D02*
X30969866Y26328121D01*
X30969866Y26328121D02*
X31112723Y26423359D01*
X31112723Y26423359D02*
X31207961Y26518597D01*
X31207961Y26518597D02*
X31255580Y26613835D01*
X41976627Y25159578D02*
X42024247Y25207197D01*
X42024247Y25207197D02*
X42071866Y25350054D01*
X42071866Y25350054D02*
X42071866Y25445292D01*
X42071866Y25445292D02*
X42024247Y25588149D01*
X42024247Y25588149D02*
X41929008Y25683387D01*
X41929008Y25683387D02*
X41833770Y25731006D01*
X41833770Y25731006D02*
X41643294Y25778625D01*
X41643294Y25778625D02*
X41500437Y25778625D01*
X41500437Y25778625D02*
X41309961Y25731006D01*
X41309961Y25731006D02*
X41214723Y25683387D01*
X41214723Y25683387D02*
X41119485Y25588149D01*
X41119485Y25588149D02*
X41071866Y25445292D01*
X41071866Y25445292D02*
X41071866Y25350054D01*
X41071866Y25350054D02*
X41119485Y25207197D01*
X41119485Y25207197D02*
X41167104Y25159578D01*
X41405199Y24302435D02*
X42071866Y24302435D01*
X41024247Y24540530D02*
X41738532Y24778625D01*
X41738532Y24778625D02*
X41738532Y24159578D01*
X33017904Y29709731D02*
X33065523Y29662111D01*
X33065523Y29662111D02*
X33208380Y29614492D01*
X33208380Y29614492D02*
X33303618Y29614492D01*
X33303618Y29614492D02*
X33446475Y29662111D01*
X33446475Y29662111D02*
X33541713Y29757350D01*
X33541713Y29757350D02*
X33589332Y29852588D01*
X33589332Y29852588D02*
X33636951Y30043064D01*
X33636951Y30043064D02*
X33636951Y30185921D01*
X33636951Y30185921D02*
X33589332Y30376397D01*
X33589332Y30376397D02*
X33541713Y30471635D01*
X33541713Y30471635D02*
X33446475Y30566873D01*
X33446475Y30566873D02*
X33303618Y30614492D01*
X33303618Y30614492D02*
X33208380Y30614492D01*
X33208380Y30614492D02*
X33065523Y30566873D01*
X33065523Y30566873D02*
X33017904Y30519254D01*
X32065523Y29614492D02*
X32636951Y29614492D01*
X32351237Y29614492D02*
X32351237Y30614492D01*
X32351237Y30614492D02*
X32446475Y30471635D01*
X32446475Y30471635D02*
X32541713Y30376397D01*
X32541713Y30376397D02*
X32636951Y30328778D01*
X31684570Y30519254D02*
X31636951Y30566873D01*
X31636951Y30566873D02*
X31541713Y30614492D01*
X31541713Y30614492D02*
X31303618Y30614492D01*
X31303618Y30614492D02*
X31208380Y30566873D01*
X31208380Y30566873D02*
X31160761Y30519254D01*
X31160761Y30519254D02*
X31113142Y30424016D01*
X31113142Y30424016D02*
X31113142Y30328778D01*
X31113142Y30328778D02*
X31160761Y30185921D01*
X31160761Y30185921D02*
X31732189Y29614492D01*
X31732189Y29614492D02*
X31113142Y29614492D01*
X43939627Y35090978D02*
X43987247Y35138597D01*
X43987247Y35138597D02*
X44034866Y35281454D01*
X44034866Y35281454D02*
X44034866Y35376692D01*
X44034866Y35376692D02*
X43987247Y35519549D01*
X43987247Y35519549D02*
X43892008Y35614787D01*
X43892008Y35614787D02*
X43796770Y35662406D01*
X43796770Y35662406D02*
X43606294Y35710025D01*
X43606294Y35710025D02*
X43463437Y35710025D01*
X43463437Y35710025D02*
X43272961Y35662406D01*
X43272961Y35662406D02*
X43177723Y35614787D01*
X43177723Y35614787D02*
X43082485Y35519549D01*
X43082485Y35519549D02*
X43034866Y35376692D01*
X43034866Y35376692D02*
X43034866Y35281454D01*
X43034866Y35281454D02*
X43082485Y35138597D01*
X43082485Y35138597D02*
X43130104Y35090978D01*
X43034866Y34233835D02*
X43034866Y34424311D01*
X43034866Y34424311D02*
X43082485Y34519549D01*
X43082485Y34519549D02*
X43130104Y34567168D01*
X43130104Y34567168D02*
X43272961Y34662406D01*
X43272961Y34662406D02*
X43463437Y34710025D01*
X43463437Y34710025D02*
X43844389Y34710025D01*
X43844389Y34710025D02*
X43939627Y34662406D01*
X43939627Y34662406D02*
X43987247Y34614787D01*
X43987247Y34614787D02*
X44034866Y34519549D01*
X44034866Y34519549D02*
X44034866Y34329073D01*
X44034866Y34329073D02*
X43987247Y34233835D01*
X43987247Y34233835D02*
X43939627Y34186216D01*
X43939627Y34186216D02*
X43844389Y34138597D01*
X43844389Y34138597D02*
X43606294Y34138597D01*
X43606294Y34138597D02*
X43511056Y34186216D01*
X43511056Y34186216D02*
X43463437Y34233835D01*
X43463437Y34233835D02*
X43415818Y34329073D01*
X43415818Y34329073D02*
X43415818Y34519549D01*
X43415818Y34519549D02*
X43463437Y34614787D01*
X43463437Y34614787D02*
X43511056Y34662406D01*
X43511056Y34662406D02*
X43606294Y34710025D01*
X40764627Y35090978D02*
X40812247Y35138597D01*
X40812247Y35138597D02*
X40859866Y35281454D01*
X40859866Y35281454D02*
X40859866Y35376692D01*
X40859866Y35376692D02*
X40812247Y35519549D01*
X40812247Y35519549D02*
X40717008Y35614787D01*
X40717008Y35614787D02*
X40621770Y35662406D01*
X40621770Y35662406D02*
X40431294Y35710025D01*
X40431294Y35710025D02*
X40288437Y35710025D01*
X40288437Y35710025D02*
X40097961Y35662406D01*
X40097961Y35662406D02*
X40002723Y35614787D01*
X40002723Y35614787D02*
X39907485Y35519549D01*
X39907485Y35519549D02*
X39859866Y35376692D01*
X39859866Y35376692D02*
X39859866Y35281454D01*
X39859866Y35281454D02*
X39907485Y35138597D01*
X39907485Y35138597D02*
X39955104Y35090978D01*
X40288437Y34519549D02*
X40240818Y34614787D01*
X40240818Y34614787D02*
X40193199Y34662406D01*
X40193199Y34662406D02*
X40097961Y34710025D01*
X40097961Y34710025D02*
X40050342Y34710025D01*
X40050342Y34710025D02*
X39955104Y34662406D01*
X39955104Y34662406D02*
X39907485Y34614787D01*
X39907485Y34614787D02*
X39859866Y34519549D01*
X39859866Y34519549D02*
X39859866Y34329073D01*
X39859866Y34329073D02*
X39907485Y34233835D01*
X39907485Y34233835D02*
X39955104Y34186216D01*
X39955104Y34186216D02*
X40050342Y34138597D01*
X40050342Y34138597D02*
X40097961Y34138597D01*
X40097961Y34138597D02*
X40193199Y34186216D01*
X40193199Y34186216D02*
X40240818Y34233835D01*
X40240818Y34233835D02*
X40288437Y34329073D01*
X40288437Y34329073D02*
X40288437Y34519549D01*
X40288437Y34519549D02*
X40336056Y34614787D01*
X40336056Y34614787D02*
X40383675Y34662406D01*
X40383675Y34662406D02*
X40478913Y34710025D01*
X40478913Y34710025D02*
X40669389Y34710025D01*
X40669389Y34710025D02*
X40764627Y34662406D01*
X40764627Y34662406D02*
X40812247Y34614787D01*
X40812247Y34614787D02*
X40859866Y34519549D01*
X40859866Y34519549D02*
X40859866Y34329073D01*
X40859866Y34329073D02*
X40812247Y34233835D01*
X40812247Y34233835D02*
X40764627Y34186216D01*
X40764627Y34186216D02*
X40669389Y34138597D01*
X40669389Y34138597D02*
X40478913Y34138597D01*
X40478913Y34138597D02*
X40383675Y34186216D01*
X40383675Y34186216D02*
X40336056Y34233835D01*
X40336056Y34233835D02*
X40288437Y34329073D01*
X40923713Y29263092D02*
X41399903Y29263092D01*
X41399903Y29263092D02*
X41399903Y30263092D01*
X40685617Y30263092D02*
X40066570Y30263092D01*
X40066570Y30263092D02*
X40399903Y29882140D01*
X40399903Y29882140D02*
X40257046Y29882140D01*
X40257046Y29882140D02*
X40161808Y29834521D01*
X40161808Y29834521D02*
X40114189Y29786902D01*
X40114189Y29786902D02*
X40066570Y29691664D01*
X40066570Y29691664D02*
X40066570Y29453569D01*
X40066570Y29453569D02*
X40114189Y29358331D01*
X40114189Y29358331D02*
X40161808Y29310711D01*
X40161808Y29310711D02*
X40257046Y29263092D01*
X40257046Y29263092D02*
X40542760Y29263092D01*
X40542760Y29263092D02*
X40637998Y29310711D01*
X40637998Y29310711D02*
X40685617Y29358331D01*
X40161713Y32844492D02*
X40637903Y32844492D01*
X40637903Y32844492D02*
X40637903Y33844492D01*
X39399808Y33511159D02*
X39399808Y32844492D01*
X39637903Y33892111D02*
X39875998Y33177826D01*
X39875998Y33177826D02*
X39256951Y33177826D01*
X44606713Y29388492D02*
X45082903Y29388492D01*
X45082903Y29388492D02*
X45082903Y30388492D01*
X43749570Y29388492D02*
X44320998Y29388492D01*
X44035284Y29388492D02*
X44035284Y30388492D01*
X44035284Y30388492D02*
X44130522Y30245635D01*
X44130522Y30245635D02*
X44225760Y30150397D01*
X44225760Y30150397D02*
X44320998Y30102778D01*
X43971713Y32944492D02*
X44447903Y32944492D01*
X44447903Y32944492D02*
X44447903Y33944492D01*
X43685998Y33849254D02*
X43638379Y33896873D01*
X43638379Y33896873D02*
X43543141Y33944492D01*
X43543141Y33944492D02*
X43305046Y33944492D01*
X43305046Y33944492D02*
X43209808Y33896873D01*
X43209808Y33896873D02*
X43162189Y33849254D01*
X43162189Y33849254D02*
X43114570Y33754016D01*
X43114570Y33754016D02*
X43114570Y33658778D01*
X43114570Y33658778D02*
X43162189Y33515921D01*
X43162189Y33515921D02*
X43733617Y32944492D01*
X43733617Y32944492D02*
X43114570Y32944492D01*
X25439580Y21674858D02*
X25487200Y21722477D01*
X25487200Y21722477D02*
X25534819Y21865334D01*
X25534819Y21865334D02*
X25534819Y21960572D01*
X25534819Y21960572D02*
X25487200Y22103429D01*
X25487200Y22103429D02*
X25391961Y22198667D01*
X25391961Y22198667D02*
X25296723Y22246286D01*
X25296723Y22246286D02*
X25106247Y22293905D01*
X25106247Y22293905D02*
X24963390Y22293905D01*
X24963390Y22293905D02*
X24772914Y22246286D01*
X24772914Y22246286D02*
X24677676Y22198667D01*
X24677676Y22198667D02*
X24582438Y22103429D01*
X24582438Y22103429D02*
X24534819Y21960572D01*
X24534819Y21960572D02*
X24534819Y21865334D01*
X24534819Y21865334D02*
X24582438Y21722477D01*
X24582438Y21722477D02*
X24630057Y21674858D01*
X25534819Y20722477D02*
X25534819Y21293905D01*
X25534819Y21008191D02*
X24534819Y21008191D01*
X24534819Y21008191D02*
X24677676Y21103429D01*
X24677676Y21103429D02*
X24772914Y21198667D01*
X24772914Y21198667D02*
X24820533Y21293905D01*
X25534819Y20246286D02*
X25534819Y20055810D01*
X25534819Y20055810D02*
X25487200Y19960572D01*
X25487200Y19960572D02*
X25439580Y19912953D01*
X25439580Y19912953D02*
X25296723Y19817715D01*
X25296723Y19817715D02*
X25106247Y19770096D01*
X25106247Y19770096D02*
X24725295Y19770096D01*
X24725295Y19770096D02*
X24630057Y19817715D01*
X24630057Y19817715D02*
X24582438Y19865334D01*
X24582438Y19865334D02*
X24534819Y19960572D01*
X24534819Y19960572D02*
X24534819Y20151048D01*
X24534819Y20151048D02*
X24582438Y20246286D01*
X24582438Y20246286D02*
X24630057Y20293905D01*
X24630057Y20293905D02*
X24725295Y20341524D01*
X24725295Y20341524D02*
X24963390Y20341524D01*
X24963390Y20341524D02*
X25058628Y20293905D01*
X25058628Y20293905D02*
X25106247Y20246286D01*
X25106247Y20246286D02*
X25153866Y20151048D01*
X25153866Y20151048D02*
X25153866Y19960572D01*
X25153866Y19960572D02*
X25106247Y19865334D01*
X25106247Y19865334D02*
X25058628Y19817715D01*
X25058628Y19817715D02*
X24963390Y19770096D01*
X24802819Y33898667D02*
X24326628Y34232000D01*
X24802819Y34470095D02*
X23802819Y34470095D01*
X23802819Y34470095D02*
X23802819Y34089143D01*
X23802819Y34089143D02*
X23850438Y33993905D01*
X23850438Y33993905D02*
X23898057Y33946286D01*
X23898057Y33946286D02*
X23993295Y33898667D01*
X23993295Y33898667D02*
X24136152Y33898667D01*
X24136152Y33898667D02*
X24231390Y33946286D01*
X24231390Y33946286D02*
X24279009Y33993905D01*
X24279009Y33993905D02*
X24326628Y34089143D01*
X24326628Y34089143D02*
X24326628Y34470095D01*
X24136152Y33041524D02*
X24802819Y33041524D01*
X23755200Y33279619D02*
X24469485Y33517714D01*
X24469485Y33517714D02*
X24469485Y32898667D01*
X30990666Y41533181D02*
X31323999Y42009372D01*
X31562094Y41533181D02*
X31562094Y42533181D01*
X31562094Y42533181D02*
X31181142Y42533181D01*
X31181142Y42533181D02*
X31085904Y42485562D01*
X31085904Y42485562D02*
X31038285Y42437943D01*
X31038285Y42437943D02*
X30990666Y42342705D01*
X30990666Y42342705D02*
X30990666Y42199848D01*
X30990666Y42199848D02*
X31038285Y42104610D01*
X31038285Y42104610D02*
X31085904Y42056991D01*
X31085904Y42056991D02*
X31181142Y42009372D01*
X31181142Y42009372D02*
X31562094Y42009372D01*
X30609713Y42437943D02*
X30562094Y42485562D01*
X30562094Y42485562D02*
X30466856Y42533181D01*
X30466856Y42533181D02*
X30228761Y42533181D01*
X30228761Y42533181D02*
X30133523Y42485562D01*
X30133523Y42485562D02*
X30085904Y42437943D01*
X30085904Y42437943D02*
X30038285Y42342705D01*
X30038285Y42342705D02*
X30038285Y42247467D01*
X30038285Y42247467D02*
X30085904Y42104610D01*
X30085904Y42104610D02*
X30657332Y41533181D01*
X30657332Y41533181D02*
X30038285Y41533181D01*
X26164666Y38737181D02*
X26497999Y39213372D01*
X26736094Y38737181D02*
X26736094Y39737181D01*
X26736094Y39737181D02*
X26355142Y39737181D01*
X26355142Y39737181D02*
X26259904Y39689562D01*
X26259904Y39689562D02*
X26212285Y39641943D01*
X26212285Y39641943D02*
X26164666Y39546705D01*
X26164666Y39546705D02*
X26164666Y39403848D01*
X26164666Y39403848D02*
X26212285Y39308610D01*
X26212285Y39308610D02*
X26259904Y39260991D01*
X26259904Y39260991D02*
X26355142Y39213372D01*
X26355142Y39213372D02*
X26736094Y39213372D01*
X25259904Y39737181D02*
X25736094Y39737181D01*
X25736094Y39737181D02*
X25783713Y39260991D01*
X25783713Y39260991D02*
X25736094Y39308610D01*
X25736094Y39308610D02*
X25640856Y39356229D01*
X25640856Y39356229D02*
X25402761Y39356229D01*
X25402761Y39356229D02*
X25307523Y39308610D01*
X25307523Y39308610D02*
X25259904Y39260991D01*
X25259904Y39260991D02*
X25212285Y39165753D01*
X25212285Y39165753D02*
X25212285Y38927658D01*
X25212285Y38927658D02*
X25259904Y38832420D01*
X25259904Y38832420D02*
X25307523Y38784800D01*
X25307523Y38784800D02*
X25402761Y38737181D01*
X25402761Y38737181D02*
X25640856Y38737181D01*
X25640856Y38737181D02*
X25736094Y38784800D01*
X25736094Y38784800D02*
X25783713Y38832420D01*
X30990666Y39501181D02*
X31323999Y39977372D01*
X31562094Y39501181D02*
X31562094Y40501181D01*
X31562094Y40501181D02*
X31181142Y40501181D01*
X31181142Y40501181D02*
X31085904Y40453562D01*
X31085904Y40453562D02*
X31038285Y40405943D01*
X31038285Y40405943D02*
X30990666Y40310705D01*
X30990666Y40310705D02*
X30990666Y40167848D01*
X30990666Y40167848D02*
X31038285Y40072610D01*
X31038285Y40072610D02*
X31085904Y40024991D01*
X31085904Y40024991D02*
X31181142Y39977372D01*
X31181142Y39977372D02*
X31562094Y39977372D01*
X30657332Y40501181D02*
X30038285Y40501181D01*
X30038285Y40501181D02*
X30371618Y40120229D01*
X30371618Y40120229D02*
X30228761Y40120229D01*
X30228761Y40120229D02*
X30133523Y40072610D01*
X30133523Y40072610D02*
X30085904Y40024991D01*
X30085904Y40024991D02*
X30038285Y39929753D01*
X30038285Y39929753D02*
X30038285Y39691658D01*
X30038285Y39691658D02*
X30085904Y39596420D01*
X30085904Y39596420D02*
X30133523Y39548800D01*
X30133523Y39548800D02*
X30228761Y39501181D01*
X30228761Y39501181D02*
X30514475Y39501181D01*
X30514475Y39501181D02*
X30609713Y39548800D01*
X30609713Y39548800D02*
X30657332Y39596420D01*
X37522190Y17528948D02*
X37858907Y17865665D01*
X37858907Y17865665D02*
X37151801Y18572772D01*
X36916098Y16922856D02*
X37320159Y17326917D01*
X37118129Y17124886D02*
X36411022Y17831993D01*
X36411022Y17831993D02*
X36579381Y17798321D01*
X36579381Y17798321D02*
X36714068Y17798321D01*
X36714068Y17798321D02*
X36815083Y17831993D01*
X36242663Y16249421D02*
X36646724Y16653482D01*
X36444694Y16451451D02*
X35737587Y17158558D01*
X35737587Y17158558D02*
X35905946Y17124886D01*
X35905946Y17124886D02*
X36040633Y17124886D01*
X36040633Y17124886D02*
X36141648Y17158558D01*
D11*
%TO.C,R15*%
X16626936Y21055000D02*
X17081064Y21055000D01*
X16626936Y19585000D02*
X17081064Y19585000D01*
%TO.C,R17*%
X18786000Y15661436D02*
X18786000Y16115564D01*
X20256000Y15661436D02*
X20256000Y16115564D01*
D10*
%TO.C,U1*%
X30697000Y7125500D02*
X30697000Y14237500D01*
X33745000Y7125500D02*
X30697000Y7125500D01*
X36793000Y7125500D02*
X37555000Y7125500D01*
X37555000Y7125500D02*
X39841000Y8649500D01*
X39815600Y8674900D02*
X39815600Y12738900D01*
X39841000Y12713500D02*
X37555000Y14237500D01*
X30697000Y14237500D02*
X33745000Y14237500D01*
X37555000Y14237500D02*
X36793000Y14237500D01*
D11*
%TO.C,Q1*%
X33137500Y42876000D02*
X33137500Y42226000D01*
X33137500Y42876000D02*
X33137500Y43526000D01*
X36257500Y42876000D02*
X36257500Y42226000D01*
X36257500Y42876000D02*
X36257500Y43526000D01*
X36537500Y41473500D02*
X36207500Y41713500D01*
X36537500Y41953500D01*
X36537500Y41473500D01*
G36*
X36537500Y41473500D02*
G01*
X36207500Y41713500D01*
X36537500Y41953500D01*
X36537500Y41473500D01*
G37*
%TO.C,R19*%
X20383000Y37691375D02*
X20383000Y37237247D01*
X18913000Y37691375D02*
X18913000Y37237247D01*
%TO.C,Q2*%
X33137500Y39066000D02*
X33137500Y38416000D01*
X33137500Y39066000D02*
X33137500Y39716000D01*
X36257500Y39066000D02*
X36257500Y38416000D01*
X36257500Y39066000D02*
X36257500Y39716000D01*
X36537500Y37663500D02*
X36207500Y37903500D01*
X36537500Y38143500D01*
X36537500Y37663500D01*
G36*
X36537500Y37663500D02*
G01*
X36207500Y37903500D01*
X36537500Y38143500D01*
X36537500Y37663500D01*
G37*
%TO.C,C1*%
X6142295Y30706311D02*
X6664799Y30706311D01*
X6142295Y29236311D02*
X6664799Y29236311D01*
%TO.C,C3*%
X41719000Y10879252D02*
X41719000Y10356748D01*
X40249000Y10879252D02*
X40249000Y10356748D01*
%TO.C,C5*%
X44005000Y10625252D02*
X44005000Y10102748D01*
X42535000Y10625252D02*
X42535000Y10102748D01*
%TO.C,C15*%
X22923000Y21293252D02*
X22923000Y20770748D01*
X21453000Y21293252D02*
X21453000Y20770748D01*
%TO.C,D1*%
X1515047Y28874311D02*
X1515047Y34384311D01*
X4815047Y28874311D02*
X1515047Y28874311D01*
X4815047Y28874311D02*
X4815047Y34384311D01*
%TO.C,L8*%
X31815047Y24999689D02*
X31815047Y25798933D01*
X32935047Y24999689D02*
X32935047Y25798933D01*
%TO.C,R1*%
X34570611Y20677000D02*
X34116483Y20677000D01*
X34570611Y22147000D02*
X34116483Y22147000D01*
%TO.C,R9*%
X16626936Y23595000D02*
X17081064Y23595000D01*
X16626936Y22125000D02*
X17081064Y22125000D01*
%TO.C,R10*%
X15991936Y30149000D02*
X16446064Y30149000D01*
X15991936Y28679000D02*
X16446064Y28679000D01*
%TO.C,R13*%
X23866000Y15661436D02*
X23866000Y16115564D01*
X25336000Y15661436D02*
X25336000Y16115564D01*
%TO.C,R16*%
X21326000Y15661436D02*
X21326000Y16115564D01*
X22796000Y15661436D02*
X22796000Y16115564D01*
%TO.C,R22*%
X38734564Y42649000D02*
X38280436Y42649000D01*
X38734564Y44119000D02*
X38280436Y44119000D01*
%TO.C,R23*%
X38671064Y39093000D02*
X38216936Y39093000D01*
X38671064Y40563000D02*
X38216936Y40563000D01*
%TO.C,C20*%
X29527000Y21293252D02*
X29527000Y20770748D01*
X28057000Y21293252D02*
X28057000Y20770748D01*
%TO.C,C17*%
X25463000Y21293252D02*
X25463000Y20770748D01*
X23993000Y21293252D02*
X23993000Y20770748D01*
%TO.C,C2*%
X6142295Y32738311D02*
X6664799Y32738311D01*
X6142295Y31268311D02*
X6664799Y31268311D01*
%TO.C,R18*%
X17843000Y37691375D02*
X17843000Y37237247D01*
X16373000Y37691375D02*
X16373000Y37237247D01*
%TO.C,R11*%
X16282936Y26135000D02*
X16737064Y26135000D01*
X16282936Y24665000D02*
X16737064Y24665000D01*
%TO.C,R12*%
X15434625Y32689000D02*
X15888753Y32689000D01*
X15434625Y31219000D02*
X15888753Y31219000D01*
%TO.C,Y2*%
X24754600Y31731800D02*
X24354600Y31731800D01*
X24354600Y31731800D02*
X24354600Y32531800D01*
X22554600Y30331800D02*
X22554600Y30091800D01*
X22554600Y33931800D02*
X20754600Y33931800D01*
X20754600Y30331800D02*
X22554600Y30331800D01*
X18954600Y32531800D02*
X18954600Y31731800D01*
%TO.C,U2*%
X24325047Y24002000D02*
X24325047Y24727000D01*
X24325047Y27497000D02*
X24325047Y27982000D01*
X23600047Y24002000D02*
X24325047Y24002000D01*
X23600047Y28222000D02*
X24025047Y28222000D01*
X20830047Y24002000D02*
X20105047Y24002000D01*
X20830047Y28222000D02*
X20105047Y28222000D01*
X20105047Y24002000D02*
X20105047Y24727000D01*
X20105047Y28222000D02*
X20105047Y27497000D01*
X24325047Y28222000D02*
X24085047Y28552000D01*
X24565047Y28552000D01*
X24325047Y28222000D01*
G36*
X24325047Y28222000D02*
G01*
X24085047Y28552000D01*
X24565047Y28552000D01*
X24325047Y28222000D01*
G37*
%TO.C,L7*%
X33536669Y27607911D02*
X32737425Y27607911D01*
X33536669Y28727911D02*
X32737425Y28727911D01*
%TO.C,L6*%
X36584669Y31189311D02*
X35785425Y31189311D01*
X36584669Y32309311D02*
X35785425Y32309311D01*
%TO.C,L9*%
X32774669Y33729311D02*
X31975425Y33729311D01*
X32774669Y34849311D02*
X31975425Y34849311D01*
%TO.C,L5*%
X37346669Y27607911D02*
X36547425Y27607911D01*
X37346669Y28727911D02*
X36547425Y28727911D01*
%TO.C,L10*%
X29760047Y33418933D02*
X29760047Y32619689D01*
X28640047Y33418933D02*
X28640047Y32619689D01*
%TO.C,C7*%
X40222047Y25254163D02*
X40222047Y24731659D01*
X38752047Y25254163D02*
X38752047Y24731659D01*
%TO.C,C9*%
X35142047Y25254163D02*
X35142047Y24731659D01*
X33672047Y25254163D02*
X33672047Y24731659D01*
%TO.C,C13*%
X30751047Y37139559D02*
X30751047Y37662063D01*
X32221047Y37139559D02*
X32221047Y37662063D01*
%TO.C,C10*%
X34815047Y34663059D02*
X34815047Y35185563D01*
X36285047Y34663059D02*
X36285047Y35185563D01*
%TO.C,C11*%
X29100047Y27043059D02*
X29100047Y27565563D01*
X30570047Y27043059D02*
X30570047Y27565563D01*
%TO.C,C4*%
X44032047Y25254163D02*
X44032047Y24731659D01*
X42562047Y25254163D02*
X42562047Y24731659D01*
%TO.C,C12*%
X32113795Y32484311D02*
X32636299Y32484311D01*
X32113795Y31014311D02*
X32636299Y31014311D01*
%TO.C,C6*%
X41165047Y34663059D02*
X41165047Y35185563D01*
X42635047Y34663059D02*
X42635047Y35185563D01*
%TO.C,C8*%
X37990047Y34663059D02*
X37990047Y35185563D01*
X39460047Y34663059D02*
X39460047Y35185563D01*
%TO.C,L3*%
X41156669Y27607911D02*
X40357425Y27607911D01*
X41156669Y28727911D02*
X40357425Y28727911D01*
%TO.C,L4*%
X40394669Y31189311D02*
X39595425Y31189311D01*
X40394669Y32309311D02*
X39595425Y32309311D01*
%TO.C,L1*%
X44667111Y27458311D02*
X44212983Y27458311D01*
X44667111Y28928311D02*
X44212983Y28928311D01*
%TO.C,L2*%
X44032111Y31014311D02*
X43577983Y31014311D01*
X44032111Y32484311D02*
X43577983Y32484311D01*
%TO.C,C19*%
X27495000Y21293252D02*
X27495000Y20770748D01*
X26025000Y21293252D02*
X26025000Y20770748D01*
%TO.C,R4*%
X26733000Y33959064D02*
X26733000Y33504936D01*
X25263000Y33959064D02*
X25263000Y33504936D01*
%TO.C,R2*%
X30596936Y44373000D02*
X31051064Y44373000D01*
X30596936Y42903000D02*
X31051064Y42903000D01*
%TO.C,R5*%
X26225064Y36807000D02*
X25770936Y36807000D01*
X26225064Y38277000D02*
X25770936Y38277000D01*
%TO.C,R3*%
X30596936Y42341000D02*
X31051064Y42341000D01*
X30596936Y40871000D02*
X31051064Y40871000D01*
%TO.C,L11*%
X34971445Y18605404D02*
X35536596Y19170555D01*
X35763404Y17813445D02*
X36328555Y18378596D01*
%TD*%
M02*
