%TF.GenerationSoftware,KiCad,Pcbnew,8.0.3+1*%
%TF.CreationDate,2024-07-15T18:43:40+00:00*%
%TF.ProjectId,ISM03,49534d30-332e-46b6-9963-61645f706362,rev?*%
%TF.SameCoordinates,Original*%
%TF.FileFunction,Legend,Bot*%
%TF.FilePolarity,Positive*%
%FSLAX46Y46*%
G04 Gerber Fmt 4.6, Leading zero omitted, Abs format (unit mm)*
G04 Created by KiCad (PCBNEW 8.0.3+1) date 2024-07-15 18:43:40*
%MOMM*%
%LPD*%
G01*
G04 APERTURE LIST*
%ADD10C,0.150000*%
%ADD11C,0.120000*%
G04 APERTURE END LIST*
D10*
X15374857Y22025181D02*
X15708190Y22501372D01*
X15946285Y22025181D02*
X15946285Y23025181D01*
X15946285Y23025181D02*
X15565333Y23025181D01*
X15565333Y23025181D02*
X15470095Y22977562D01*
X15470095Y22977562D02*
X15422476Y22929943D01*
X15422476Y22929943D02*
X15374857Y22834705D01*
X15374857Y22834705D02*
X15374857Y22691848D01*
X15374857Y22691848D02*
X15422476Y22596610D01*
X15422476Y22596610D02*
X15470095Y22548991D01*
X15470095Y22548991D02*
X15565333Y22501372D01*
X15565333Y22501372D02*
X15946285Y22501372D01*
X14422476Y22025181D02*
X14993904Y22025181D01*
X14708190Y22025181D02*
X14708190Y23025181D01*
X14708190Y23025181D02*
X14803428Y22882324D01*
X14803428Y22882324D02*
X14898666Y22787086D01*
X14898666Y22787086D02*
X14993904Y22739467D01*
X13517714Y23025181D02*
X13993904Y23025181D01*
X13993904Y23025181D02*
X14041523Y22548991D01*
X14041523Y22548991D02*
X13993904Y22596610D01*
X13993904Y22596610D02*
X13898666Y22644229D01*
X13898666Y22644229D02*
X13660571Y22644229D01*
X13660571Y22644229D02*
X13565333Y22596610D01*
X13565333Y22596610D02*
X13517714Y22548991D01*
X13517714Y22548991D02*
X13470095Y22453753D01*
X13470095Y22453753D02*
X13470095Y22215658D01*
X13470095Y22215658D02*
X13517714Y22120420D01*
X13517714Y22120420D02*
X13565333Y22072800D01*
X13565333Y22072800D02*
X13660571Y22025181D01*
X13660571Y22025181D02*
X13898666Y22025181D01*
X13898666Y22025181D02*
X13993904Y22072800D01*
X13993904Y22072800D02*
X14041523Y22120420D01*
X15374857Y19485181D02*
X15708190Y19961372D01*
X15946285Y19485181D02*
X15946285Y20485181D01*
X15946285Y20485181D02*
X15565333Y20485181D01*
X15565333Y20485181D02*
X15470095Y20437562D01*
X15470095Y20437562D02*
X15422476Y20389943D01*
X15422476Y20389943D02*
X15374857Y20294705D01*
X15374857Y20294705D02*
X15374857Y20151848D01*
X15374857Y20151848D02*
X15422476Y20056610D01*
X15422476Y20056610D02*
X15470095Y20008991D01*
X15470095Y20008991D02*
X15565333Y19961372D01*
X15565333Y19961372D02*
X15946285Y19961372D01*
X14422476Y19485181D02*
X14993904Y19485181D01*
X14708190Y19485181D02*
X14708190Y20485181D01*
X14708190Y20485181D02*
X14803428Y20342324D01*
X14803428Y20342324D02*
X14898666Y20247086D01*
X14898666Y20247086D02*
X14993904Y20199467D01*
X14089142Y20485181D02*
X13422476Y20485181D01*
X13422476Y20485181D02*
X13851047Y19485181D01*
X32511904Y16996481D02*
X32511904Y16186958D01*
X32511904Y16186958D02*
X32464285Y16091720D01*
X32464285Y16091720D02*
X32416666Y16044100D01*
X32416666Y16044100D02*
X32321428Y15996481D01*
X32321428Y15996481D02*
X32130952Y15996481D01*
X32130952Y15996481D02*
X32035714Y16044100D01*
X32035714Y16044100D02*
X31988095Y16091720D01*
X31988095Y16091720D02*
X31940476Y16186958D01*
X31940476Y16186958D02*
X31940476Y16996481D01*
X30940476Y15996481D02*
X31511904Y15996481D01*
X31226190Y15996481D02*
X31226190Y16996481D01*
X31226190Y16996481D02*
X31321428Y16853624D01*
X31321428Y16853624D02*
X31416666Y16758386D01*
X31416666Y16758386D02*
X31511904Y16710767D01*
X34792738Y39975943D02*
X34887976Y40023562D01*
X34887976Y40023562D02*
X34983214Y40118800D01*
X34983214Y40118800D02*
X35126071Y40261658D01*
X35126071Y40261658D02*
X35221309Y40309277D01*
X35221309Y40309277D02*
X35316547Y40309277D01*
X35268928Y40071181D02*
X35364166Y40118800D01*
X35364166Y40118800D02*
X35459404Y40214039D01*
X35459404Y40214039D02*
X35507023Y40404515D01*
X35507023Y40404515D02*
X35507023Y40737848D01*
X35507023Y40737848D02*
X35459404Y40928324D01*
X35459404Y40928324D02*
X35364166Y41023562D01*
X35364166Y41023562D02*
X35268928Y41071181D01*
X35268928Y41071181D02*
X35078452Y41071181D01*
X35078452Y41071181D02*
X34983214Y41023562D01*
X34983214Y41023562D02*
X34887976Y40928324D01*
X34887976Y40928324D02*
X34840357Y40737848D01*
X34840357Y40737848D02*
X34840357Y40404515D01*
X34840357Y40404515D02*
X34887976Y40214039D01*
X34887976Y40214039D02*
X34983214Y40118800D01*
X34983214Y40118800D02*
X35078452Y40071181D01*
X35078452Y40071181D02*
X35268928Y40071181D01*
X33887976Y40071181D02*
X34459404Y40071181D01*
X34173690Y40071181D02*
X34173690Y41071181D01*
X34173690Y41071181D02*
X34268928Y40928324D01*
X34268928Y40928324D02*
X34364166Y40833086D01*
X34364166Y40833086D02*
X34459404Y40785467D01*
X20394819Y36964858D02*
X19918628Y37298191D01*
X20394819Y37536286D02*
X19394819Y37536286D01*
X19394819Y37536286D02*
X19394819Y37155334D01*
X19394819Y37155334D02*
X19442438Y37060096D01*
X19442438Y37060096D02*
X19490057Y37012477D01*
X19490057Y37012477D02*
X19585295Y36964858D01*
X19585295Y36964858D02*
X19728152Y36964858D01*
X19728152Y36964858D02*
X19823390Y37012477D01*
X19823390Y37012477D02*
X19871009Y37060096D01*
X19871009Y37060096D02*
X19918628Y37155334D01*
X19918628Y37155334D02*
X19918628Y37536286D01*
X20394819Y36012477D02*
X20394819Y36583905D01*
X20394819Y36298191D02*
X19394819Y36298191D01*
X19394819Y36298191D02*
X19537676Y36393429D01*
X19537676Y36393429D02*
X19632914Y36488667D01*
X19632914Y36488667D02*
X19680533Y36583905D01*
X20394819Y35536286D02*
X20394819Y35345810D01*
X20394819Y35345810D02*
X20347200Y35250572D01*
X20347200Y35250572D02*
X20299580Y35202953D01*
X20299580Y35202953D02*
X20156723Y35107715D01*
X20156723Y35107715D02*
X19966247Y35060096D01*
X19966247Y35060096D02*
X19585295Y35060096D01*
X19585295Y35060096D02*
X19490057Y35107715D01*
X19490057Y35107715D02*
X19442438Y35155334D01*
X19442438Y35155334D02*
X19394819Y35250572D01*
X19394819Y35250572D02*
X19394819Y35441048D01*
X19394819Y35441048D02*
X19442438Y35536286D01*
X19442438Y35536286D02*
X19490057Y35583905D01*
X19490057Y35583905D02*
X19585295Y35631524D01*
X19585295Y35631524D02*
X19823390Y35631524D01*
X19823390Y35631524D02*
X19918628Y35583905D01*
X19918628Y35583905D02*
X19966247Y35536286D01*
X19966247Y35536286D02*
X20013866Y35441048D01*
X20013866Y35441048D02*
X20013866Y35250572D01*
X20013866Y35250572D02*
X19966247Y35155334D01*
X19966247Y35155334D02*
X19918628Y35107715D01*
X19918628Y35107715D02*
X19823390Y35060096D01*
X34792738Y36419943D02*
X34887976Y36467562D01*
X34887976Y36467562D02*
X34983214Y36562800D01*
X34983214Y36562800D02*
X35126071Y36705658D01*
X35126071Y36705658D02*
X35221309Y36753277D01*
X35221309Y36753277D02*
X35316547Y36753277D01*
X35268928Y36515181D02*
X35364166Y36562800D01*
X35364166Y36562800D02*
X35459404Y36658039D01*
X35459404Y36658039D02*
X35507023Y36848515D01*
X35507023Y36848515D02*
X35507023Y37181848D01*
X35507023Y37181848D02*
X35459404Y37372324D01*
X35459404Y37372324D02*
X35364166Y37467562D01*
X35364166Y37467562D02*
X35268928Y37515181D01*
X35268928Y37515181D02*
X35078452Y37515181D01*
X35078452Y37515181D02*
X34983214Y37467562D01*
X34983214Y37467562D02*
X34887976Y37372324D01*
X34887976Y37372324D02*
X34840357Y37181848D01*
X34840357Y37181848D02*
X34840357Y36848515D01*
X34840357Y36848515D02*
X34887976Y36658039D01*
X34887976Y36658039D02*
X34983214Y36562800D01*
X34983214Y36562800D02*
X35078452Y36515181D01*
X35078452Y36515181D02*
X35268928Y36515181D01*
X34459404Y37419943D02*
X34411785Y37467562D01*
X34411785Y37467562D02*
X34316547Y37515181D01*
X34316547Y37515181D02*
X34078452Y37515181D01*
X34078452Y37515181D02*
X33983214Y37467562D01*
X33983214Y37467562D02*
X33935595Y37419943D01*
X33935595Y37419943D02*
X33887976Y37324705D01*
X33887976Y37324705D02*
X33887976Y37229467D01*
X33887976Y37229467D02*
X33935595Y37086610D01*
X33935595Y37086610D02*
X34507023Y36515181D01*
X34507023Y36515181D02*
X33887976Y36515181D01*
X24612981Y9564667D02*
X24660601Y9612286D01*
X24660601Y9612286D02*
X24708220Y9755143D01*
X24708220Y9755143D02*
X24708220Y9850381D01*
X24708220Y9850381D02*
X24660601Y9993238D01*
X24660601Y9993238D02*
X24565362Y10088476D01*
X24565362Y10088476D02*
X24470124Y10136095D01*
X24470124Y10136095D02*
X24279648Y10183714D01*
X24279648Y10183714D02*
X24136791Y10183714D01*
X24136791Y10183714D02*
X23946315Y10136095D01*
X23946315Y10136095D02*
X23851077Y10088476D01*
X23851077Y10088476D02*
X23755839Y9993238D01*
X23755839Y9993238D02*
X23708220Y9850381D01*
X23708220Y9850381D02*
X23708220Y9755143D01*
X23708220Y9755143D02*
X23755839Y9612286D01*
X23755839Y9612286D02*
X23803458Y9564667D01*
X24708220Y8612286D02*
X24708220Y9183714D01*
X24708220Y8898000D02*
X23708220Y8898000D01*
X23708220Y8898000D02*
X23851077Y8993238D01*
X23851077Y8993238D02*
X23946315Y9088476D01*
X23946315Y9088476D02*
X23993934Y9183714D01*
X27998379Y14924067D02*
X28045999Y14971686D01*
X28045999Y14971686D02*
X28093618Y15114543D01*
X28093618Y15114543D02*
X28093618Y15209781D01*
X28093618Y15209781D02*
X28045999Y15352638D01*
X28045999Y15352638D02*
X27950760Y15447876D01*
X27950760Y15447876D02*
X27855522Y15495495D01*
X27855522Y15495495D02*
X27665046Y15543114D01*
X27665046Y15543114D02*
X27522189Y15543114D01*
X27522189Y15543114D02*
X27331713Y15495495D01*
X27331713Y15495495D02*
X27236475Y15447876D01*
X27236475Y15447876D02*
X27141237Y15352638D01*
X27141237Y15352638D02*
X27093618Y15209781D01*
X27093618Y15209781D02*
X27093618Y15114543D01*
X27093618Y15114543D02*
X27141237Y14971686D01*
X27141237Y14971686D02*
X27188856Y14924067D01*
X27093618Y14590733D02*
X27093618Y13971686D01*
X27093618Y13971686D02*
X27474570Y14305019D01*
X27474570Y14305019D02*
X27474570Y14162162D01*
X27474570Y14162162D02*
X27522189Y14066924D01*
X27522189Y14066924D02*
X27569808Y14019305D01*
X27569808Y14019305D02*
X27665046Y13971686D01*
X27665046Y13971686D02*
X27903141Y13971686D01*
X27903141Y13971686D02*
X27998379Y14019305D01*
X27998379Y14019305D02*
X28045999Y14066924D01*
X28045999Y14066924D02*
X28093618Y14162162D01*
X28093618Y14162162D02*
X28093618Y14447876D01*
X28093618Y14447876D02*
X28045999Y14543114D01*
X28045999Y14543114D02*
X27998379Y14590733D01*
X30037066Y15003821D02*
X30084685Y14956201D01*
X30084685Y14956201D02*
X30227542Y14908582D01*
X30227542Y14908582D02*
X30322780Y14908582D01*
X30322780Y14908582D02*
X30465637Y14956201D01*
X30465637Y14956201D02*
X30560875Y15051440D01*
X30560875Y15051440D02*
X30608494Y15146678D01*
X30608494Y15146678D02*
X30656113Y15337154D01*
X30656113Y15337154D02*
X30656113Y15480011D01*
X30656113Y15480011D02*
X30608494Y15670487D01*
X30608494Y15670487D02*
X30560875Y15765725D01*
X30560875Y15765725D02*
X30465637Y15860963D01*
X30465637Y15860963D02*
X30322780Y15908582D01*
X30322780Y15908582D02*
X30227542Y15908582D01*
X30227542Y15908582D02*
X30084685Y15860963D01*
X30084685Y15860963D02*
X30037066Y15813344D01*
X29132304Y15908582D02*
X29608494Y15908582D01*
X29608494Y15908582D02*
X29656113Y15432392D01*
X29656113Y15432392D02*
X29608494Y15480011D01*
X29608494Y15480011D02*
X29513256Y15527630D01*
X29513256Y15527630D02*
X29275161Y15527630D01*
X29275161Y15527630D02*
X29179923Y15480011D01*
X29179923Y15480011D02*
X29132304Y15432392D01*
X29132304Y15432392D02*
X29084685Y15337154D01*
X29084685Y15337154D02*
X29084685Y15099059D01*
X29084685Y15099059D02*
X29132304Y15003821D01*
X29132304Y15003821D02*
X29179923Y14956201D01*
X29179923Y14956201D02*
X29275161Y14908582D01*
X29275161Y14908582D02*
X29513256Y14908582D01*
X29513256Y14908582D02*
X29608494Y14956201D01*
X29608494Y14956201D02*
X29656113Y15003821D01*
X19405980Y21648658D02*
X19453600Y21696277D01*
X19453600Y21696277D02*
X19501219Y21839134D01*
X19501219Y21839134D02*
X19501219Y21934372D01*
X19501219Y21934372D02*
X19453600Y22077229D01*
X19453600Y22077229D02*
X19358361Y22172467D01*
X19358361Y22172467D02*
X19263123Y22220086D01*
X19263123Y22220086D02*
X19072647Y22267705D01*
X19072647Y22267705D02*
X18929790Y22267705D01*
X18929790Y22267705D02*
X18739314Y22220086D01*
X18739314Y22220086D02*
X18644076Y22172467D01*
X18644076Y22172467D02*
X18548838Y22077229D01*
X18548838Y22077229D02*
X18501219Y21934372D01*
X18501219Y21934372D02*
X18501219Y21839134D01*
X18501219Y21839134D02*
X18548838Y21696277D01*
X18548838Y21696277D02*
X18596457Y21648658D01*
X19501219Y20696277D02*
X19501219Y21267705D01*
X19501219Y20981991D02*
X18501219Y20981991D01*
X18501219Y20981991D02*
X18644076Y21077229D01*
X18644076Y21077229D02*
X18739314Y21172467D01*
X18739314Y21172467D02*
X18786933Y21267705D01*
X18501219Y19791515D02*
X18501219Y20267705D01*
X18501219Y20267705D02*
X18977409Y20315324D01*
X18977409Y20315324D02*
X18929790Y20267705D01*
X18929790Y20267705D02*
X18882171Y20172467D01*
X18882171Y20172467D02*
X18882171Y19934372D01*
X18882171Y19934372D02*
X18929790Y19839134D01*
X18929790Y19839134D02*
X18977409Y19791515D01*
X18977409Y19791515D02*
X19072647Y19743896D01*
X19072647Y19743896D02*
X19310742Y19743896D01*
X19310742Y19743896D02*
X19405980Y19791515D01*
X19405980Y19791515D02*
X19453600Y19839134D01*
X19453600Y19839134D02*
X19501219Y19934372D01*
X19501219Y19934372D02*
X19501219Y20172467D01*
X19501219Y20172467D02*
X19453600Y20267705D01*
X19453600Y20267705D02*
X19405980Y20315324D01*
X14972819Y11152095D02*
X13972819Y11152095D01*
X13972819Y11152095D02*
X13972819Y10914000D01*
X13972819Y10914000D02*
X14020438Y10771143D01*
X14020438Y10771143D02*
X14115676Y10675905D01*
X14115676Y10675905D02*
X14210914Y10628286D01*
X14210914Y10628286D02*
X14401390Y10580667D01*
X14401390Y10580667D02*
X14544247Y10580667D01*
X14544247Y10580667D02*
X14734723Y10628286D01*
X14734723Y10628286D02*
X14829961Y10675905D01*
X14829961Y10675905D02*
X14925200Y10771143D01*
X14925200Y10771143D02*
X14972819Y10914000D01*
X14972819Y10914000D02*
X14972819Y11152095D01*
X14972819Y9628286D02*
X14972819Y10199714D01*
X14972819Y9914000D02*
X13972819Y9914000D01*
X13972819Y9914000D02*
X14115676Y10009238D01*
X14115676Y10009238D02*
X14210914Y10104476D01*
X14210914Y10104476D02*
X14258533Y10199714D01*
X28192219Y24677667D02*
X28192219Y25153857D01*
X28192219Y25153857D02*
X27192219Y25153857D01*
X27620790Y24201476D02*
X27573171Y24296714D01*
X27573171Y24296714D02*
X27525552Y24344333D01*
X27525552Y24344333D02*
X27430314Y24391952D01*
X27430314Y24391952D02*
X27382695Y24391952D01*
X27382695Y24391952D02*
X27287457Y24344333D01*
X27287457Y24344333D02*
X27239838Y24296714D01*
X27239838Y24296714D02*
X27192219Y24201476D01*
X27192219Y24201476D02*
X27192219Y24011000D01*
X27192219Y24011000D02*
X27239838Y23915762D01*
X27239838Y23915762D02*
X27287457Y23868143D01*
X27287457Y23868143D02*
X27382695Y23820524D01*
X27382695Y23820524D02*
X27430314Y23820524D01*
X27430314Y23820524D02*
X27525552Y23868143D01*
X27525552Y23868143D02*
X27573171Y23915762D01*
X27573171Y23915762D02*
X27620790Y24011000D01*
X27620790Y24011000D02*
X27620790Y24201476D01*
X27620790Y24201476D02*
X27668409Y24296714D01*
X27668409Y24296714D02*
X27716028Y24344333D01*
X27716028Y24344333D02*
X27811266Y24391952D01*
X27811266Y24391952D02*
X28001742Y24391952D01*
X28001742Y24391952D02*
X28096980Y24344333D01*
X28096980Y24344333D02*
X28144600Y24296714D01*
X28144600Y24296714D02*
X28192219Y24201476D01*
X28192219Y24201476D02*
X28192219Y24011000D01*
X28192219Y24011000D02*
X28144600Y23915762D01*
X28144600Y23915762D02*
X28096980Y23868143D01*
X28096980Y23868143D02*
X28001742Y23820524D01*
X28001742Y23820524D02*
X27811266Y23820524D01*
X27811266Y23820524D02*
X27716028Y23868143D01*
X27716028Y23868143D02*
X27668409Y23915762D01*
X27668409Y23915762D02*
X27620790Y24011000D01*
X30629019Y22188467D02*
X30152828Y22521800D01*
X30629019Y22759895D02*
X29629019Y22759895D01*
X29629019Y22759895D02*
X29629019Y22378943D01*
X29629019Y22378943D02*
X29676638Y22283705D01*
X29676638Y22283705D02*
X29724257Y22236086D01*
X29724257Y22236086D02*
X29819495Y22188467D01*
X29819495Y22188467D02*
X29962352Y22188467D01*
X29962352Y22188467D02*
X30057590Y22236086D01*
X30057590Y22236086D02*
X30105209Y22283705D01*
X30105209Y22283705D02*
X30152828Y22378943D01*
X30152828Y22378943D02*
X30152828Y22759895D01*
X30629019Y21236086D02*
X30629019Y21807514D01*
X30629019Y21521800D02*
X29629019Y21521800D01*
X29629019Y21521800D02*
X29771876Y21617038D01*
X29771876Y21617038D02*
X29867114Y21712276D01*
X29867114Y21712276D02*
X29914733Y21807514D01*
X14898666Y24565181D02*
X15231999Y25041372D01*
X15470094Y24565181D02*
X15470094Y25565181D01*
X15470094Y25565181D02*
X15089142Y25565181D01*
X15089142Y25565181D02*
X14993904Y25517562D01*
X14993904Y25517562D02*
X14946285Y25469943D01*
X14946285Y25469943D02*
X14898666Y25374705D01*
X14898666Y25374705D02*
X14898666Y25231848D01*
X14898666Y25231848D02*
X14946285Y25136610D01*
X14946285Y25136610D02*
X14993904Y25088991D01*
X14993904Y25088991D02*
X15089142Y25041372D01*
X15089142Y25041372D02*
X15470094Y25041372D01*
X14422475Y24565181D02*
X14231999Y24565181D01*
X14231999Y24565181D02*
X14136761Y24612800D01*
X14136761Y24612800D02*
X14089142Y24660420D01*
X14089142Y24660420D02*
X13993904Y24803277D01*
X13993904Y24803277D02*
X13946285Y24993753D01*
X13946285Y24993753D02*
X13946285Y25374705D01*
X13946285Y25374705D02*
X13993904Y25469943D01*
X13993904Y25469943D02*
X14041523Y25517562D01*
X14041523Y25517562D02*
X14136761Y25565181D01*
X14136761Y25565181D02*
X14327237Y25565181D01*
X14327237Y25565181D02*
X14422475Y25517562D01*
X14422475Y25517562D02*
X14470094Y25469943D01*
X14470094Y25469943D02*
X14517713Y25374705D01*
X14517713Y25374705D02*
X14517713Y25136610D01*
X14517713Y25136610D02*
X14470094Y25041372D01*
X14470094Y25041372D02*
X14422475Y24993753D01*
X14422475Y24993753D02*
X14327237Y24946134D01*
X14327237Y24946134D02*
X14136761Y24946134D01*
X14136761Y24946134D02*
X14041523Y24993753D01*
X14041523Y24993753D02*
X13993904Y25041372D01*
X13993904Y25041372D02*
X13946285Y25136610D01*
X15374857Y29645181D02*
X15708190Y30121372D01*
X15946285Y29645181D02*
X15946285Y30645181D01*
X15946285Y30645181D02*
X15565333Y30645181D01*
X15565333Y30645181D02*
X15470095Y30597562D01*
X15470095Y30597562D02*
X15422476Y30549943D01*
X15422476Y30549943D02*
X15374857Y30454705D01*
X15374857Y30454705D02*
X15374857Y30311848D01*
X15374857Y30311848D02*
X15422476Y30216610D01*
X15422476Y30216610D02*
X15470095Y30168991D01*
X15470095Y30168991D02*
X15565333Y30121372D01*
X15565333Y30121372D02*
X15946285Y30121372D01*
X14422476Y29645181D02*
X14993904Y29645181D01*
X14708190Y29645181D02*
X14708190Y30645181D01*
X14708190Y30645181D02*
X14803428Y30502324D01*
X14803428Y30502324D02*
X14898666Y30407086D01*
X14898666Y30407086D02*
X14993904Y30359467D01*
X13803428Y30645181D02*
X13708190Y30645181D01*
X13708190Y30645181D02*
X13612952Y30597562D01*
X13612952Y30597562D02*
X13565333Y30549943D01*
X13565333Y30549943D02*
X13517714Y30454705D01*
X13517714Y30454705D02*
X13470095Y30264229D01*
X13470095Y30264229D02*
X13470095Y30026134D01*
X13470095Y30026134D02*
X13517714Y29835658D01*
X13517714Y29835658D02*
X13565333Y29740420D01*
X13565333Y29740420D02*
X13612952Y29692800D01*
X13612952Y29692800D02*
X13708190Y29645181D01*
X13708190Y29645181D02*
X13803428Y29645181D01*
X13803428Y29645181D02*
X13898666Y29692800D01*
X13898666Y29692800D02*
X13946285Y29740420D01*
X13946285Y29740420D02*
X13993904Y29835658D01*
X13993904Y29835658D02*
X14041523Y30026134D01*
X14041523Y30026134D02*
X14041523Y30264229D01*
X14041523Y30264229D02*
X13993904Y30454705D01*
X13993904Y30454705D02*
X13946285Y30549943D01*
X13946285Y30549943D02*
X13898666Y30597562D01*
X13898666Y30597562D02*
X13803428Y30645181D01*
X24837819Y21648658D02*
X24361628Y21981991D01*
X24837819Y22220086D02*
X23837819Y22220086D01*
X23837819Y22220086D02*
X23837819Y21839134D01*
X23837819Y21839134D02*
X23885438Y21743896D01*
X23885438Y21743896D02*
X23933057Y21696277D01*
X23933057Y21696277D02*
X24028295Y21648658D01*
X24028295Y21648658D02*
X24171152Y21648658D01*
X24171152Y21648658D02*
X24266390Y21696277D01*
X24266390Y21696277D02*
X24314009Y21743896D01*
X24314009Y21743896D02*
X24361628Y21839134D01*
X24361628Y21839134D02*
X24361628Y22220086D01*
X24837819Y20696277D02*
X24837819Y21267705D01*
X24837819Y20981991D02*
X23837819Y20981991D01*
X23837819Y20981991D02*
X23980676Y21077229D01*
X23980676Y21077229D02*
X24075914Y21172467D01*
X24075914Y21172467D02*
X24123533Y21267705D01*
X23837819Y20362943D02*
X23837819Y19743896D01*
X23837819Y19743896D02*
X24218771Y20077229D01*
X24218771Y20077229D02*
X24218771Y19934372D01*
X24218771Y19934372D02*
X24266390Y19839134D01*
X24266390Y19839134D02*
X24314009Y19791515D01*
X24314009Y19791515D02*
X24409247Y19743896D01*
X24409247Y19743896D02*
X24647342Y19743896D01*
X24647342Y19743896D02*
X24742580Y19791515D01*
X24742580Y19791515D02*
X24790200Y19839134D01*
X24790200Y19839134D02*
X24837819Y19934372D01*
X24837819Y19934372D02*
X24837819Y20220086D01*
X24837819Y20220086D02*
X24790200Y20315324D01*
X24790200Y20315324D02*
X24742580Y20362943D01*
X15374857Y16945181D02*
X15708190Y17421372D01*
X15946285Y16945181D02*
X15946285Y17945181D01*
X15946285Y17945181D02*
X15565333Y17945181D01*
X15565333Y17945181D02*
X15470095Y17897562D01*
X15470095Y17897562D02*
X15422476Y17849943D01*
X15422476Y17849943D02*
X15374857Y17754705D01*
X15374857Y17754705D02*
X15374857Y17611848D01*
X15374857Y17611848D02*
X15422476Y17516610D01*
X15422476Y17516610D02*
X15470095Y17468991D01*
X15470095Y17468991D02*
X15565333Y17421372D01*
X15565333Y17421372D02*
X15946285Y17421372D01*
X14422476Y16945181D02*
X14993904Y16945181D01*
X14708190Y16945181D02*
X14708190Y17945181D01*
X14708190Y17945181D02*
X14803428Y17802324D01*
X14803428Y17802324D02*
X14898666Y17707086D01*
X14898666Y17707086D02*
X14993904Y17659467D01*
X13565333Y17945181D02*
X13755809Y17945181D01*
X13755809Y17945181D02*
X13851047Y17897562D01*
X13851047Y17897562D02*
X13898666Y17849943D01*
X13898666Y17849943D02*
X13993904Y17707086D01*
X13993904Y17707086D02*
X14041523Y17516610D01*
X14041523Y17516610D02*
X14041523Y17135658D01*
X14041523Y17135658D02*
X13993904Y17040420D01*
X13993904Y17040420D02*
X13946285Y16992800D01*
X13946285Y16992800D02*
X13851047Y16945181D01*
X13851047Y16945181D02*
X13660571Y16945181D01*
X13660571Y16945181D02*
X13565333Y16992800D01*
X13565333Y16992800D02*
X13517714Y17040420D01*
X13517714Y17040420D02*
X13470095Y17135658D01*
X13470095Y17135658D02*
X13470095Y17373753D01*
X13470095Y17373753D02*
X13517714Y17468991D01*
X13517714Y17468991D02*
X13565333Y17516610D01*
X13565333Y17516610D02*
X13660571Y17564229D01*
X13660571Y17564229D02*
X13851047Y17564229D01*
X13851047Y17564229D02*
X13946285Y17516610D01*
X13946285Y17516610D02*
X13993904Y17468991D01*
X13993904Y17468991D02*
X14041523Y17373753D01*
X39150357Y44579181D02*
X39483690Y45055372D01*
X39721785Y44579181D02*
X39721785Y45579181D01*
X39721785Y45579181D02*
X39340833Y45579181D01*
X39340833Y45579181D02*
X39245595Y45531562D01*
X39245595Y45531562D02*
X39197976Y45483943D01*
X39197976Y45483943D02*
X39150357Y45388705D01*
X39150357Y45388705D02*
X39150357Y45245848D01*
X39150357Y45245848D02*
X39197976Y45150610D01*
X39197976Y45150610D02*
X39245595Y45102991D01*
X39245595Y45102991D02*
X39340833Y45055372D01*
X39340833Y45055372D02*
X39721785Y45055372D01*
X38769404Y45483943D02*
X38721785Y45531562D01*
X38721785Y45531562D02*
X38626547Y45579181D01*
X38626547Y45579181D02*
X38388452Y45579181D01*
X38388452Y45579181D02*
X38293214Y45531562D01*
X38293214Y45531562D02*
X38245595Y45483943D01*
X38245595Y45483943D02*
X38197976Y45388705D01*
X38197976Y45388705D02*
X38197976Y45293467D01*
X38197976Y45293467D02*
X38245595Y45150610D01*
X38245595Y45150610D02*
X38817023Y44579181D01*
X38817023Y44579181D02*
X38197976Y44579181D01*
X37817023Y45483943D02*
X37769404Y45531562D01*
X37769404Y45531562D02*
X37674166Y45579181D01*
X37674166Y45579181D02*
X37436071Y45579181D01*
X37436071Y45579181D02*
X37340833Y45531562D01*
X37340833Y45531562D02*
X37293214Y45483943D01*
X37293214Y45483943D02*
X37245595Y45388705D01*
X37245595Y45388705D02*
X37245595Y45293467D01*
X37245595Y45293467D02*
X37293214Y45150610D01*
X37293214Y45150610D02*
X37864642Y44579181D01*
X37864642Y44579181D02*
X37245595Y44579181D01*
X39276257Y40514381D02*
X39609590Y40990572D01*
X39847685Y40514381D02*
X39847685Y41514381D01*
X39847685Y41514381D02*
X39466733Y41514381D01*
X39466733Y41514381D02*
X39371495Y41466762D01*
X39371495Y41466762D02*
X39323876Y41419143D01*
X39323876Y41419143D02*
X39276257Y41323905D01*
X39276257Y41323905D02*
X39276257Y41181048D01*
X39276257Y41181048D02*
X39323876Y41085810D01*
X39323876Y41085810D02*
X39371495Y41038191D01*
X39371495Y41038191D02*
X39466733Y40990572D01*
X39466733Y40990572D02*
X39847685Y40990572D01*
X38895304Y41419143D02*
X38847685Y41466762D01*
X38847685Y41466762D02*
X38752447Y41514381D01*
X38752447Y41514381D02*
X38514352Y41514381D01*
X38514352Y41514381D02*
X38419114Y41466762D01*
X38419114Y41466762D02*
X38371495Y41419143D01*
X38371495Y41419143D02*
X38323876Y41323905D01*
X38323876Y41323905D02*
X38323876Y41228667D01*
X38323876Y41228667D02*
X38371495Y41085810D01*
X38371495Y41085810D02*
X38942923Y40514381D01*
X38942923Y40514381D02*
X38323876Y40514381D01*
X37990542Y41514381D02*
X37371495Y41514381D01*
X37371495Y41514381D02*
X37704828Y41133429D01*
X37704828Y41133429D02*
X37561971Y41133429D01*
X37561971Y41133429D02*
X37466733Y41085810D01*
X37466733Y41085810D02*
X37419114Y41038191D01*
X37419114Y41038191D02*
X37371495Y40942953D01*
X37371495Y40942953D02*
X37371495Y40704858D01*
X37371495Y40704858D02*
X37419114Y40609620D01*
X37419114Y40609620D02*
X37466733Y40562000D01*
X37466733Y40562000D02*
X37561971Y40514381D01*
X37561971Y40514381D02*
X37847685Y40514381D01*
X37847685Y40514381D02*
X37942923Y40562000D01*
X37942923Y40562000D02*
X37990542Y40609620D01*
X23444580Y19083258D02*
X23492200Y19130877D01*
X23492200Y19130877D02*
X23539819Y19273734D01*
X23539819Y19273734D02*
X23539819Y19368972D01*
X23539819Y19368972D02*
X23492200Y19511829D01*
X23492200Y19511829D02*
X23396961Y19607067D01*
X23396961Y19607067D02*
X23301723Y19654686D01*
X23301723Y19654686D02*
X23111247Y19702305D01*
X23111247Y19702305D02*
X22968390Y19702305D01*
X22968390Y19702305D02*
X22777914Y19654686D01*
X22777914Y19654686D02*
X22682676Y19607067D01*
X22682676Y19607067D02*
X22587438Y19511829D01*
X22587438Y19511829D02*
X22539819Y19368972D01*
X22539819Y19368972D02*
X22539819Y19273734D01*
X22539819Y19273734D02*
X22587438Y19130877D01*
X22587438Y19130877D02*
X22635057Y19083258D01*
X22635057Y18702305D02*
X22587438Y18654686D01*
X22587438Y18654686D02*
X22539819Y18559448D01*
X22539819Y18559448D02*
X22539819Y18321353D01*
X22539819Y18321353D02*
X22587438Y18226115D01*
X22587438Y18226115D02*
X22635057Y18178496D01*
X22635057Y18178496D02*
X22730295Y18130877D01*
X22730295Y18130877D02*
X22825533Y18130877D01*
X22825533Y18130877D02*
X22968390Y18178496D01*
X22968390Y18178496D02*
X23539819Y18749924D01*
X23539819Y18749924D02*
X23539819Y18130877D01*
X22539819Y17511829D02*
X22539819Y17416591D01*
X22539819Y17416591D02*
X22587438Y17321353D01*
X22587438Y17321353D02*
X22635057Y17273734D01*
X22635057Y17273734D02*
X22730295Y17226115D01*
X22730295Y17226115D02*
X22920771Y17178496D01*
X22920771Y17178496D02*
X23158866Y17178496D01*
X23158866Y17178496D02*
X23349342Y17226115D01*
X23349342Y17226115D02*
X23444580Y17273734D01*
X23444580Y17273734D02*
X23492200Y17321353D01*
X23492200Y17321353D02*
X23539819Y17416591D01*
X23539819Y17416591D02*
X23539819Y17511829D01*
X23539819Y17511829D02*
X23492200Y17607067D01*
X23492200Y17607067D02*
X23444580Y17654686D01*
X23444580Y17654686D02*
X23349342Y17702305D01*
X23349342Y17702305D02*
X23158866Y17749924D01*
X23158866Y17749924D02*
X22920771Y17749924D01*
X22920771Y17749924D02*
X22730295Y17702305D01*
X22730295Y17702305D02*
X22635057Y17654686D01*
X22635057Y17654686D02*
X22587438Y17607067D01*
X22587438Y17607067D02*
X22539819Y17511829D01*
X26119057Y19296421D02*
X26166676Y19248801D01*
X26166676Y19248801D02*
X26309533Y19201182D01*
X26309533Y19201182D02*
X26404771Y19201182D01*
X26404771Y19201182D02*
X26547628Y19248801D01*
X26547628Y19248801D02*
X26642866Y19344040D01*
X26642866Y19344040D02*
X26690485Y19439278D01*
X26690485Y19439278D02*
X26738104Y19629754D01*
X26738104Y19629754D02*
X26738104Y19772611D01*
X26738104Y19772611D02*
X26690485Y19963087D01*
X26690485Y19963087D02*
X26642866Y20058325D01*
X26642866Y20058325D02*
X26547628Y20153563D01*
X26547628Y20153563D02*
X26404771Y20201182D01*
X26404771Y20201182D02*
X26309533Y20201182D01*
X26309533Y20201182D02*
X26166676Y20153563D01*
X26166676Y20153563D02*
X26119057Y20105944D01*
X25166676Y19201182D02*
X25738104Y19201182D01*
X25452390Y19201182D02*
X25452390Y20201182D01*
X25452390Y20201182D02*
X25547628Y20058325D01*
X25547628Y20058325D02*
X25642866Y19963087D01*
X25642866Y19963087D02*
X25738104Y19915468D01*
X24833342Y20201182D02*
X24166676Y20201182D01*
X24166676Y20201182D02*
X24595247Y19201182D01*
X36031466Y4843821D02*
X36079085Y4796201D01*
X36079085Y4796201D02*
X36221942Y4748582D01*
X36221942Y4748582D02*
X36317180Y4748582D01*
X36317180Y4748582D02*
X36460037Y4796201D01*
X36460037Y4796201D02*
X36555275Y4891440D01*
X36555275Y4891440D02*
X36602894Y4986678D01*
X36602894Y4986678D02*
X36650513Y5177154D01*
X36650513Y5177154D02*
X36650513Y5320011D01*
X36650513Y5320011D02*
X36602894Y5510487D01*
X36602894Y5510487D02*
X36555275Y5605725D01*
X36555275Y5605725D02*
X36460037Y5700963D01*
X36460037Y5700963D02*
X36317180Y5748582D01*
X36317180Y5748582D02*
X36221942Y5748582D01*
X36221942Y5748582D02*
X36079085Y5700963D01*
X36079085Y5700963D02*
X36031466Y5653344D01*
X35650513Y5653344D02*
X35602894Y5700963D01*
X35602894Y5700963D02*
X35507656Y5748582D01*
X35507656Y5748582D02*
X35269561Y5748582D01*
X35269561Y5748582D02*
X35174323Y5700963D01*
X35174323Y5700963D02*
X35126704Y5653344D01*
X35126704Y5653344D02*
X35079085Y5558106D01*
X35079085Y5558106D02*
X35079085Y5462868D01*
X35079085Y5462868D02*
X35126704Y5320011D01*
X35126704Y5320011D02*
X35698132Y4748582D01*
X35698132Y4748582D02*
X35079085Y4748582D01*
X17854819Y36964858D02*
X17378628Y37298191D01*
X17854819Y37536286D02*
X16854819Y37536286D01*
X16854819Y37536286D02*
X16854819Y37155334D01*
X16854819Y37155334D02*
X16902438Y37060096D01*
X16902438Y37060096D02*
X16950057Y37012477D01*
X16950057Y37012477D02*
X17045295Y36964858D01*
X17045295Y36964858D02*
X17188152Y36964858D01*
X17188152Y36964858D02*
X17283390Y37012477D01*
X17283390Y37012477D02*
X17331009Y37060096D01*
X17331009Y37060096D02*
X17378628Y37155334D01*
X17378628Y37155334D02*
X17378628Y37536286D01*
X17854819Y36012477D02*
X17854819Y36583905D01*
X17854819Y36298191D02*
X16854819Y36298191D01*
X16854819Y36298191D02*
X16997676Y36393429D01*
X16997676Y36393429D02*
X17092914Y36488667D01*
X17092914Y36488667D02*
X17140533Y36583905D01*
X17283390Y35441048D02*
X17235771Y35536286D01*
X17235771Y35536286D02*
X17188152Y35583905D01*
X17188152Y35583905D02*
X17092914Y35631524D01*
X17092914Y35631524D02*
X17045295Y35631524D01*
X17045295Y35631524D02*
X16950057Y35583905D01*
X16950057Y35583905D02*
X16902438Y35536286D01*
X16902438Y35536286D02*
X16854819Y35441048D01*
X16854819Y35441048D02*
X16854819Y35250572D01*
X16854819Y35250572D02*
X16902438Y35155334D01*
X16902438Y35155334D02*
X16950057Y35107715D01*
X16950057Y35107715D02*
X17045295Y35060096D01*
X17045295Y35060096D02*
X17092914Y35060096D01*
X17092914Y35060096D02*
X17188152Y35107715D01*
X17188152Y35107715D02*
X17235771Y35155334D01*
X17235771Y35155334D02*
X17283390Y35250572D01*
X17283390Y35250572D02*
X17283390Y35441048D01*
X17283390Y35441048D02*
X17331009Y35536286D01*
X17331009Y35536286D02*
X17378628Y35583905D01*
X17378628Y35583905D02*
X17473866Y35631524D01*
X17473866Y35631524D02*
X17664342Y35631524D01*
X17664342Y35631524D02*
X17759580Y35583905D01*
X17759580Y35583905D02*
X17807200Y35536286D01*
X17807200Y35536286D02*
X17854819Y35441048D01*
X17854819Y35441048D02*
X17854819Y35250572D01*
X17854819Y35250572D02*
X17807200Y35155334D01*
X17807200Y35155334D02*
X17759580Y35107715D01*
X17759580Y35107715D02*
X17664342Y35060096D01*
X17664342Y35060096D02*
X17473866Y35060096D01*
X17473866Y35060096D02*
X17378628Y35107715D01*
X17378628Y35107715D02*
X17331009Y35155334D01*
X17331009Y35155334D02*
X17283390Y35250572D01*
X15374857Y27105181D02*
X15708190Y27581372D01*
X15946285Y27105181D02*
X15946285Y28105181D01*
X15946285Y28105181D02*
X15565333Y28105181D01*
X15565333Y28105181D02*
X15470095Y28057562D01*
X15470095Y28057562D02*
X15422476Y28009943D01*
X15422476Y28009943D02*
X15374857Y27914705D01*
X15374857Y27914705D02*
X15374857Y27771848D01*
X15374857Y27771848D02*
X15422476Y27676610D01*
X15422476Y27676610D02*
X15470095Y27628991D01*
X15470095Y27628991D02*
X15565333Y27581372D01*
X15565333Y27581372D02*
X15946285Y27581372D01*
X14422476Y27105181D02*
X14993904Y27105181D01*
X14708190Y27105181D02*
X14708190Y28105181D01*
X14708190Y28105181D02*
X14803428Y27962324D01*
X14803428Y27962324D02*
X14898666Y27867086D01*
X14898666Y27867086D02*
X14993904Y27819467D01*
X13470095Y27105181D02*
X14041523Y27105181D01*
X13755809Y27105181D02*
X13755809Y28105181D01*
X13755809Y28105181D02*
X13851047Y27962324D01*
X13851047Y27962324D02*
X13946285Y27867086D01*
X13946285Y27867086D02*
X14041523Y27819467D01*
X15374857Y32185181D02*
X15708190Y32661372D01*
X15946285Y32185181D02*
X15946285Y33185181D01*
X15946285Y33185181D02*
X15565333Y33185181D01*
X15565333Y33185181D02*
X15470095Y33137562D01*
X15470095Y33137562D02*
X15422476Y33089943D01*
X15422476Y33089943D02*
X15374857Y32994705D01*
X15374857Y32994705D02*
X15374857Y32851848D01*
X15374857Y32851848D02*
X15422476Y32756610D01*
X15422476Y32756610D02*
X15470095Y32708991D01*
X15470095Y32708991D02*
X15565333Y32661372D01*
X15565333Y32661372D02*
X15946285Y32661372D01*
X14422476Y32185181D02*
X14993904Y32185181D01*
X14708190Y32185181D02*
X14708190Y33185181D01*
X14708190Y33185181D02*
X14803428Y33042324D01*
X14803428Y33042324D02*
X14898666Y32947086D01*
X14898666Y32947086D02*
X14993904Y32899467D01*
X14041523Y33089943D02*
X13993904Y33137562D01*
X13993904Y33137562D02*
X13898666Y33185181D01*
X13898666Y33185181D02*
X13660571Y33185181D01*
X13660571Y33185181D02*
X13565333Y33137562D01*
X13565333Y33137562D02*
X13517714Y33089943D01*
X13517714Y33089943D02*
X13470095Y32994705D01*
X13470095Y32994705D02*
X13470095Y32899467D01*
X13470095Y32899467D02*
X13517714Y32756610D01*
X13517714Y32756610D02*
X14089142Y32185181D01*
X14089142Y32185181D02*
X13470095Y32185181D01*
X21151790Y34952372D02*
X21151790Y34476181D01*
X21485123Y35476181D02*
X21151790Y34952372D01*
X21151790Y34952372D02*
X20818457Y35476181D01*
X20532742Y35380943D02*
X20485123Y35428562D01*
X20485123Y35428562D02*
X20389885Y35476181D01*
X20389885Y35476181D02*
X20151790Y35476181D01*
X20151790Y35476181D02*
X20056552Y35428562D01*
X20056552Y35428562D02*
X20008933Y35380943D01*
X20008933Y35380943D02*
X19961314Y35285705D01*
X19961314Y35285705D02*
X19961314Y35190467D01*
X19961314Y35190467D02*
X20008933Y35047610D01*
X20008933Y35047610D02*
X20580361Y34476181D01*
X20580361Y34476181D02*
X19961314Y34476181D01*
X22976951Y29957181D02*
X22976951Y29147658D01*
X22976951Y29147658D02*
X22929332Y29052420D01*
X22929332Y29052420D02*
X22881713Y29004800D01*
X22881713Y29004800D02*
X22786475Y28957181D01*
X22786475Y28957181D02*
X22595999Y28957181D01*
X22595999Y28957181D02*
X22500761Y29004800D01*
X22500761Y29004800D02*
X22453142Y29052420D01*
X22453142Y29052420D02*
X22405523Y29147658D01*
X22405523Y29147658D02*
X22405523Y29957181D01*
X21976951Y29861943D02*
X21929332Y29909562D01*
X21929332Y29909562D02*
X21834094Y29957181D01*
X21834094Y29957181D02*
X21595999Y29957181D01*
X21595999Y29957181D02*
X21500761Y29909562D01*
X21500761Y29909562D02*
X21453142Y29861943D01*
X21453142Y29861943D02*
X21405523Y29766705D01*
X21405523Y29766705D02*
X21405523Y29671467D01*
X21405523Y29671467D02*
X21453142Y29528610D01*
X21453142Y29528610D02*
X22024570Y28957181D01*
X22024570Y28957181D02*
X21405523Y28957181D01*
X32373866Y26596781D02*
X32850056Y26596781D01*
X32850056Y26596781D02*
X32850056Y27596781D01*
X32135770Y27596781D02*
X31469104Y27596781D01*
X31469104Y27596781D02*
X31897675Y26596781D01*
X31205466Y31422781D02*
X31681656Y31422781D01*
X31681656Y31422781D02*
X31681656Y32422781D01*
X30824513Y31422781D02*
X30634037Y31422781D01*
X30634037Y31422781D02*
X30538799Y31470400D01*
X30538799Y31470400D02*
X30491180Y31518020D01*
X30491180Y31518020D02*
X30395942Y31660877D01*
X30395942Y31660877D02*
X30348323Y31851353D01*
X30348323Y31851353D02*
X30348323Y32232305D01*
X30348323Y32232305D02*
X30395942Y32327543D01*
X30395942Y32327543D02*
X30443561Y32375162D01*
X30443561Y32375162D02*
X30538799Y32422781D01*
X30538799Y32422781D02*
X30729275Y32422781D01*
X30729275Y32422781D02*
X30824513Y32375162D01*
X30824513Y32375162D02*
X30872132Y32327543D01*
X30872132Y32327543D02*
X30919751Y32232305D01*
X30919751Y32232305D02*
X30919751Y31994210D01*
X30919751Y31994210D02*
X30872132Y31898972D01*
X30872132Y31898972D02*
X30824513Y31851353D01*
X30824513Y31851353D02*
X30729275Y31803734D01*
X30729275Y31803734D02*
X30538799Y31803734D01*
X30538799Y31803734D02*
X30443561Y31851353D01*
X30443561Y31851353D02*
X30395942Y31898972D01*
X30395942Y31898972D02*
X30348323Y31994210D01*
X37911066Y26545981D02*
X38387256Y26545981D01*
X38387256Y26545981D02*
X38387256Y27545981D01*
X37101542Y27545981D02*
X37577732Y27545981D01*
X37577732Y27545981D02*
X37625351Y27069791D01*
X37625351Y27069791D02*
X37577732Y27117410D01*
X37577732Y27117410D02*
X37482494Y27165029D01*
X37482494Y27165029D02*
X37244399Y27165029D01*
X37244399Y27165029D02*
X37149161Y27117410D01*
X37149161Y27117410D02*
X37101542Y27069791D01*
X37101542Y27069791D02*
X37053923Y26974553D01*
X37053923Y26974553D02*
X37053923Y26736458D01*
X37053923Y26736458D02*
X37101542Y26641220D01*
X37101542Y26641220D02*
X37149161Y26593600D01*
X37149161Y26593600D02*
X37244399Y26545981D01*
X37244399Y26545981D02*
X37482494Y26545981D01*
X37482494Y26545981D02*
X37577732Y26593600D01*
X37577732Y26593600D02*
X37625351Y26641220D01*
X26011747Y26575810D02*
X26348464Y26239093D01*
X26348464Y26239093D02*
X27055571Y26946199D01*
X25405655Y27181902D02*
X25809716Y26777841D01*
X25607685Y26979871D02*
X26314792Y27686978D01*
X26314792Y27686978D02*
X26281120Y27518619D01*
X26281120Y27518619D02*
X26281120Y27383932D01*
X26281120Y27383932D02*
X26314792Y27282917D01*
X25675029Y28326741D02*
X25607685Y28394085D01*
X25607685Y28394085D02*
X25506670Y28427757D01*
X25506670Y28427757D02*
X25439327Y28427757D01*
X25439327Y28427757D02*
X25338311Y28394085D01*
X25338311Y28394085D02*
X25169953Y28293070D01*
X25169953Y28293070D02*
X25001594Y28124711D01*
X25001594Y28124711D02*
X24900579Y27956352D01*
X24900579Y27956352D02*
X24866907Y27855337D01*
X24866907Y27855337D02*
X24866907Y27787993D01*
X24866907Y27787993D02*
X24900579Y27686978D01*
X24900579Y27686978D02*
X24967922Y27619635D01*
X24967922Y27619635D02*
X25068937Y27585963D01*
X25068937Y27585963D02*
X25136281Y27585963D01*
X25136281Y27585963D02*
X25237296Y27619635D01*
X25237296Y27619635D02*
X25405655Y27720650D01*
X25405655Y27720650D02*
X25574014Y27889009D01*
X25574014Y27889009D02*
X25675029Y28057367D01*
X25675029Y28057367D02*
X25708701Y28158383D01*
X25708701Y28158383D02*
X25708701Y28225726D01*
X25708701Y28225726D02*
X25675029Y28326741D01*
X42606451Y23770850D02*
X42673795Y23770850D01*
X42673795Y23770850D02*
X42808482Y23838194D01*
X42808482Y23838194D02*
X42875825Y23905537D01*
X42875825Y23905537D02*
X42943169Y24040224D01*
X42943169Y24040224D02*
X42943169Y24174911D01*
X42943169Y24174911D02*
X42909497Y24275926D01*
X42909497Y24275926D02*
X42808482Y24444285D01*
X42808482Y24444285D02*
X42707467Y24545300D01*
X42707467Y24545300D02*
X42539108Y24646316D01*
X42539108Y24646316D02*
X42438093Y24679987D01*
X42438093Y24679987D02*
X42303406Y24679987D01*
X42303406Y24679987D02*
X42168719Y24612644D01*
X42168719Y24612644D02*
X42101375Y24545300D01*
X42101375Y24545300D02*
X42034032Y24410613D01*
X42034032Y24410613D02*
X42034032Y24343270D01*
X41730986Y24174911D02*
X41259581Y23703507D01*
X41259581Y23703507D02*
X42269734Y23299446D01*
X33655380Y24652267D02*
X33703000Y24699886D01*
X33703000Y24699886D02*
X33750619Y24842743D01*
X33750619Y24842743D02*
X33750619Y24937981D01*
X33750619Y24937981D02*
X33703000Y25080838D01*
X33703000Y25080838D02*
X33607761Y25176076D01*
X33607761Y25176076D02*
X33512523Y25223695D01*
X33512523Y25223695D02*
X33322047Y25271314D01*
X33322047Y25271314D02*
X33179190Y25271314D01*
X33179190Y25271314D02*
X32988714Y25223695D01*
X32988714Y25223695D02*
X32893476Y25176076D01*
X32893476Y25176076D02*
X32798238Y25080838D01*
X32798238Y25080838D02*
X32750619Y24937981D01*
X32750619Y24937981D02*
X32750619Y24842743D01*
X32750619Y24842743D02*
X32798238Y24699886D01*
X32798238Y24699886D02*
X32845857Y24652267D01*
X33750619Y24176076D02*
X33750619Y23985600D01*
X33750619Y23985600D02*
X33703000Y23890362D01*
X33703000Y23890362D02*
X33655380Y23842743D01*
X33655380Y23842743D02*
X33512523Y23747505D01*
X33512523Y23747505D02*
X33322047Y23699886D01*
X33322047Y23699886D02*
X32941095Y23699886D01*
X32941095Y23699886D02*
X32845857Y23747505D01*
X32845857Y23747505D02*
X32798238Y23795124D01*
X32798238Y23795124D02*
X32750619Y23890362D01*
X32750619Y23890362D02*
X32750619Y24080838D01*
X32750619Y24080838D02*
X32798238Y24176076D01*
X32798238Y24176076D02*
X32845857Y24223695D01*
X32845857Y24223695D02*
X32941095Y24271314D01*
X32941095Y24271314D02*
X33179190Y24271314D01*
X33179190Y24271314D02*
X33274428Y24223695D01*
X33274428Y24223695D02*
X33322047Y24176076D01*
X33322047Y24176076D02*
X33369666Y24080838D01*
X33369666Y24080838D02*
X33369666Y23890362D01*
X33369666Y23890362D02*
X33322047Y23795124D01*
X33322047Y23795124D02*
X33274428Y23747505D01*
X33274428Y23747505D02*
X33179190Y23699886D01*
X30233579Y31859458D02*
X30281199Y31907077D01*
X30281199Y31907077D02*
X30328818Y32049934D01*
X30328818Y32049934D02*
X30328818Y32145172D01*
X30328818Y32145172D02*
X30281199Y32288029D01*
X30281199Y32288029D02*
X30185960Y32383267D01*
X30185960Y32383267D02*
X30090722Y32430886D01*
X30090722Y32430886D02*
X29900246Y32478505D01*
X29900246Y32478505D02*
X29757389Y32478505D01*
X29757389Y32478505D02*
X29566913Y32430886D01*
X29566913Y32430886D02*
X29471675Y32383267D01*
X29471675Y32383267D02*
X29376437Y32288029D01*
X29376437Y32288029D02*
X29328818Y32145172D01*
X29328818Y32145172D02*
X29328818Y32049934D01*
X29328818Y32049934D02*
X29376437Y31907077D01*
X29376437Y31907077D02*
X29424056Y31859458D01*
X30328818Y30907077D02*
X30328818Y31478505D01*
X30328818Y31192791D02*
X29328818Y31192791D01*
X29328818Y31192791D02*
X29471675Y31288029D01*
X29471675Y31288029D02*
X29566913Y31383267D01*
X29566913Y31383267D02*
X29614532Y31478505D01*
X29328818Y30573743D02*
X29328818Y29954696D01*
X29328818Y29954696D02*
X29709770Y30288029D01*
X29709770Y30288029D02*
X29709770Y30145172D01*
X29709770Y30145172D02*
X29757389Y30049934D01*
X29757389Y30049934D02*
X29805008Y30002315D01*
X29805008Y30002315D02*
X29900246Y29954696D01*
X29900246Y29954696D02*
X30138341Y29954696D01*
X30138341Y29954696D02*
X30233579Y30002315D01*
X30233579Y30002315D02*
X30281199Y30049934D01*
X30281199Y30049934D02*
X30328818Y30145172D01*
X30328818Y30145172D02*
X30328818Y30430886D01*
X30328818Y30430886D02*
X30281199Y30526124D01*
X30281199Y30526124D02*
X30233579Y30573743D01*
X29370257Y23462021D02*
X29417876Y23414401D01*
X29417876Y23414401D02*
X29560733Y23366782D01*
X29560733Y23366782D02*
X29655971Y23366782D01*
X29655971Y23366782D02*
X29798828Y23414401D01*
X29798828Y23414401D02*
X29894066Y23509640D01*
X29894066Y23509640D02*
X29941685Y23604878D01*
X29941685Y23604878D02*
X29989304Y23795354D01*
X29989304Y23795354D02*
X29989304Y23938211D01*
X29989304Y23938211D02*
X29941685Y24128687D01*
X29941685Y24128687D02*
X29894066Y24223925D01*
X29894066Y24223925D02*
X29798828Y24319163D01*
X29798828Y24319163D02*
X29655971Y24366782D01*
X29655971Y24366782D02*
X29560733Y24366782D01*
X29560733Y24366782D02*
X29417876Y24319163D01*
X29417876Y24319163D02*
X29370257Y24271544D01*
X28417876Y23366782D02*
X28989304Y23366782D01*
X28703590Y23366782D02*
X28703590Y24366782D01*
X28703590Y24366782D02*
X28798828Y24223925D01*
X28798828Y24223925D02*
X28894066Y24128687D01*
X28894066Y24128687D02*
X28989304Y24081068D01*
X27465495Y23366782D02*
X28036923Y23366782D01*
X27751209Y23366782D02*
X27751209Y24366782D01*
X27751209Y24366782D02*
X27846447Y24223925D01*
X27846447Y24223925D02*
X27941685Y24128687D01*
X27941685Y24128687D02*
X28036923Y24081068D01*
X42897573Y20990528D02*
X42964917Y20990528D01*
X42964917Y20990528D02*
X43099604Y21057872D01*
X43099604Y21057872D02*
X43166947Y21125215D01*
X43166947Y21125215D02*
X43234291Y21259902D01*
X43234291Y21259902D02*
X43234291Y21394589D01*
X43234291Y21394589D02*
X43200619Y21495604D01*
X43200619Y21495604D02*
X43099604Y21663963D01*
X43099604Y21663963D02*
X42998589Y21764978D01*
X42998589Y21764978D02*
X42830230Y21865994D01*
X42830230Y21865994D02*
X42729215Y21899665D01*
X42729215Y21899665D02*
X42594528Y21899665D01*
X42594528Y21899665D02*
X42459841Y21832322D01*
X42459841Y21832322D02*
X42392497Y21764978D01*
X42392497Y21764978D02*
X42325154Y21630291D01*
X42325154Y21630291D02*
X42325154Y21562948D01*
X41887421Y20788498D02*
X42358825Y20317093D01*
X41786406Y21226230D02*
X42459841Y20889513D01*
X42459841Y20889513D02*
X42022108Y20451780D01*
X31757857Y26357620D02*
X31805476Y26310000D01*
X31805476Y26310000D02*
X31948333Y26262381D01*
X31948333Y26262381D02*
X32043571Y26262381D01*
X32043571Y26262381D02*
X32186428Y26310000D01*
X32186428Y26310000D02*
X32281666Y26405239D01*
X32281666Y26405239D02*
X32329285Y26500477D01*
X32329285Y26500477D02*
X32376904Y26690953D01*
X32376904Y26690953D02*
X32376904Y26833810D01*
X32376904Y26833810D02*
X32329285Y27024286D01*
X32329285Y27024286D02*
X32281666Y27119524D01*
X32281666Y27119524D02*
X32186428Y27214762D01*
X32186428Y27214762D02*
X32043571Y27262381D01*
X32043571Y27262381D02*
X31948333Y27262381D01*
X31948333Y27262381D02*
X31805476Y27214762D01*
X31805476Y27214762D02*
X31757857Y27167143D01*
X30805476Y26262381D02*
X31376904Y26262381D01*
X31091190Y26262381D02*
X31091190Y27262381D01*
X31091190Y27262381D02*
X31186428Y27119524D01*
X31186428Y27119524D02*
X31281666Y27024286D01*
X31281666Y27024286D02*
X31376904Y26976667D01*
X30424523Y27167143D02*
X30376904Y27214762D01*
X30376904Y27214762D02*
X30281666Y27262381D01*
X30281666Y27262381D02*
X30043571Y27262381D01*
X30043571Y27262381D02*
X29948333Y27214762D01*
X29948333Y27214762D02*
X29900714Y27167143D01*
X29900714Y27167143D02*
X29853095Y27071905D01*
X29853095Y27071905D02*
X29853095Y26976667D01*
X29853095Y26976667D02*
X29900714Y26833810D01*
X29900714Y26833810D02*
X30472142Y26262381D01*
X30472142Y26262381D02*
X29853095Y26262381D01*
X35015466Y28211821D02*
X35063085Y28164201D01*
X35063085Y28164201D02*
X35205942Y28116582D01*
X35205942Y28116582D02*
X35301180Y28116582D01*
X35301180Y28116582D02*
X35444037Y28164201D01*
X35444037Y28164201D02*
X35539275Y28259440D01*
X35539275Y28259440D02*
X35586894Y28354678D01*
X35586894Y28354678D02*
X35634513Y28545154D01*
X35634513Y28545154D02*
X35634513Y28688011D01*
X35634513Y28688011D02*
X35586894Y28878487D01*
X35586894Y28878487D02*
X35539275Y28973725D01*
X35539275Y28973725D02*
X35444037Y29068963D01*
X35444037Y29068963D02*
X35301180Y29116582D01*
X35301180Y29116582D02*
X35205942Y29116582D01*
X35205942Y29116582D02*
X35063085Y29068963D01*
X35063085Y29068963D02*
X35015466Y29021344D01*
X34158323Y29116582D02*
X34348799Y29116582D01*
X34348799Y29116582D02*
X34444037Y29068963D01*
X34444037Y29068963D02*
X34491656Y29021344D01*
X34491656Y29021344D02*
X34586894Y28878487D01*
X34586894Y28878487D02*
X34634513Y28688011D01*
X34634513Y28688011D02*
X34634513Y28307059D01*
X34634513Y28307059D02*
X34586894Y28211821D01*
X34586894Y28211821D02*
X34539275Y28164201D01*
X34539275Y28164201D02*
X34444037Y28116582D01*
X34444037Y28116582D02*
X34253561Y28116582D01*
X34253561Y28116582D02*
X34158323Y28164201D01*
X34158323Y28164201D02*
X34110704Y28211821D01*
X34110704Y28211821D02*
X34063085Y28307059D01*
X34063085Y28307059D02*
X34063085Y28545154D01*
X34063085Y28545154D02*
X34110704Y28640392D01*
X34110704Y28640392D02*
X34158323Y28688011D01*
X34158323Y28688011D02*
X34253561Y28735630D01*
X34253561Y28735630D02*
X34444037Y28735630D01*
X34444037Y28735630D02*
X34539275Y28688011D01*
X34539275Y28688011D02*
X34586894Y28640392D01*
X34586894Y28640392D02*
X34634513Y28545154D01*
X43259461Y23186360D02*
X43596178Y22849642D01*
X43596178Y22849642D02*
X44303285Y23556749D01*
X43798209Y24061826D02*
X43360476Y24499558D01*
X43360476Y24499558D02*
X43326804Y23994482D01*
X43326804Y23994482D02*
X43225789Y24095497D01*
X43225789Y24095497D02*
X43124774Y24129169D01*
X43124774Y24129169D02*
X43057430Y24129169D01*
X43057430Y24129169D02*
X42956415Y24095497D01*
X42956415Y24095497D02*
X42788056Y23927139D01*
X42788056Y23927139D02*
X42754384Y23826123D01*
X42754384Y23826123D02*
X42754384Y23758780D01*
X42754384Y23758780D02*
X42788056Y23657765D01*
X42788056Y23657765D02*
X42990087Y23455734D01*
X42990087Y23455734D02*
X43091102Y23422062D01*
X43091102Y23422062D02*
X43158445Y23422062D01*
X47232866Y22150181D02*
X47709056Y22150181D01*
X47709056Y22150181D02*
X47709056Y23150181D01*
X46375723Y22150181D02*
X46947151Y22150181D01*
X46661437Y22150181D02*
X46661437Y23150181D01*
X46661437Y23150181D02*
X46756675Y23007324D01*
X46756675Y23007324D02*
X46851913Y22912086D01*
X46851913Y22912086D02*
X46947151Y22864467D01*
X17373980Y21648658D02*
X17421600Y21696277D01*
X17421600Y21696277D02*
X17469219Y21839134D01*
X17469219Y21839134D02*
X17469219Y21934372D01*
X17469219Y21934372D02*
X17421600Y22077229D01*
X17421600Y22077229D02*
X17326361Y22172467D01*
X17326361Y22172467D02*
X17231123Y22220086D01*
X17231123Y22220086D02*
X17040647Y22267705D01*
X17040647Y22267705D02*
X16897790Y22267705D01*
X16897790Y22267705D02*
X16707314Y22220086D01*
X16707314Y22220086D02*
X16612076Y22172467D01*
X16612076Y22172467D02*
X16516838Y22077229D01*
X16516838Y22077229D02*
X16469219Y21934372D01*
X16469219Y21934372D02*
X16469219Y21839134D01*
X16469219Y21839134D02*
X16516838Y21696277D01*
X16516838Y21696277D02*
X16564457Y21648658D01*
X17469219Y20696277D02*
X17469219Y21267705D01*
X17469219Y20981991D02*
X16469219Y20981991D01*
X16469219Y20981991D02*
X16612076Y21077229D01*
X16612076Y21077229D02*
X16707314Y21172467D01*
X16707314Y21172467D02*
X16754933Y21267705D01*
X17469219Y20220086D02*
X17469219Y20029610D01*
X17469219Y20029610D02*
X17421600Y19934372D01*
X17421600Y19934372D02*
X17373980Y19886753D01*
X17373980Y19886753D02*
X17231123Y19791515D01*
X17231123Y19791515D02*
X17040647Y19743896D01*
X17040647Y19743896D02*
X16659695Y19743896D01*
X16659695Y19743896D02*
X16564457Y19791515D01*
X16564457Y19791515D02*
X16516838Y19839134D01*
X16516838Y19839134D02*
X16469219Y19934372D01*
X16469219Y19934372D02*
X16469219Y20124848D01*
X16469219Y20124848D02*
X16516838Y20220086D01*
X16516838Y20220086D02*
X16564457Y20267705D01*
X16564457Y20267705D02*
X16659695Y20315324D01*
X16659695Y20315324D02*
X16897790Y20315324D01*
X16897790Y20315324D02*
X16993028Y20267705D01*
X16993028Y20267705D02*
X17040647Y20220086D01*
X17040647Y20220086D02*
X17088266Y20124848D01*
X17088266Y20124848D02*
X17088266Y19934372D01*
X17088266Y19934372D02*
X17040647Y19839134D01*
X17040647Y19839134D02*
X16993028Y19791515D01*
X16993028Y19791515D02*
X16897790Y19743896D01*
X25474819Y36539467D02*
X24998628Y36872800D01*
X25474819Y37110895D02*
X24474819Y37110895D01*
X24474819Y37110895D02*
X24474819Y36729943D01*
X24474819Y36729943D02*
X24522438Y36634705D01*
X24522438Y36634705D02*
X24570057Y36587086D01*
X24570057Y36587086D02*
X24665295Y36539467D01*
X24665295Y36539467D02*
X24808152Y36539467D01*
X24808152Y36539467D02*
X24903390Y36587086D01*
X24903390Y36587086D02*
X24951009Y36634705D01*
X24951009Y36634705D02*
X24998628Y36729943D01*
X24998628Y36729943D02*
X24998628Y37110895D01*
X24808152Y35682324D02*
X25474819Y35682324D01*
X24427200Y35920419D02*
X25141485Y36158514D01*
X25141485Y36158514D02*
X25141485Y35539467D01*
X30392666Y41075181D02*
X30725999Y41551372D01*
X30964094Y41075181D02*
X30964094Y42075181D01*
X30964094Y42075181D02*
X30583142Y42075181D01*
X30583142Y42075181D02*
X30487904Y42027562D01*
X30487904Y42027562D02*
X30440285Y41979943D01*
X30440285Y41979943D02*
X30392666Y41884705D01*
X30392666Y41884705D02*
X30392666Y41741848D01*
X30392666Y41741848D02*
X30440285Y41646610D01*
X30440285Y41646610D02*
X30487904Y41598991D01*
X30487904Y41598991D02*
X30583142Y41551372D01*
X30583142Y41551372D02*
X30964094Y41551372D01*
X30011713Y41979943D02*
X29964094Y42027562D01*
X29964094Y42027562D02*
X29868856Y42075181D01*
X29868856Y42075181D02*
X29630761Y42075181D01*
X29630761Y42075181D02*
X29535523Y42027562D01*
X29535523Y42027562D02*
X29487904Y41979943D01*
X29487904Y41979943D02*
X29440285Y41884705D01*
X29440285Y41884705D02*
X29440285Y41789467D01*
X29440285Y41789467D02*
X29487904Y41646610D01*
X29487904Y41646610D02*
X30059332Y41075181D01*
X30059332Y41075181D02*
X29440285Y41075181D01*
X29757666Y38355381D02*
X30090999Y38831572D01*
X30329094Y38355381D02*
X30329094Y39355381D01*
X30329094Y39355381D02*
X29948142Y39355381D01*
X29948142Y39355381D02*
X29852904Y39307762D01*
X29852904Y39307762D02*
X29805285Y39260143D01*
X29805285Y39260143D02*
X29757666Y39164905D01*
X29757666Y39164905D02*
X29757666Y39022048D01*
X29757666Y39022048D02*
X29805285Y38926810D01*
X29805285Y38926810D02*
X29852904Y38879191D01*
X29852904Y38879191D02*
X29948142Y38831572D01*
X29948142Y38831572D02*
X30329094Y38831572D01*
X28852904Y39355381D02*
X29329094Y39355381D01*
X29329094Y39355381D02*
X29376713Y38879191D01*
X29376713Y38879191D02*
X29329094Y38926810D01*
X29329094Y38926810D02*
X29233856Y38974429D01*
X29233856Y38974429D02*
X28995761Y38974429D01*
X28995761Y38974429D02*
X28900523Y38926810D01*
X28900523Y38926810D02*
X28852904Y38879191D01*
X28852904Y38879191D02*
X28805285Y38783953D01*
X28805285Y38783953D02*
X28805285Y38545858D01*
X28805285Y38545858D02*
X28852904Y38450620D01*
X28852904Y38450620D02*
X28900523Y38403000D01*
X28900523Y38403000D02*
X28995761Y38355381D01*
X28995761Y38355381D02*
X29233856Y38355381D01*
X29233856Y38355381D02*
X29329094Y38403000D01*
X29329094Y38403000D02*
X29376713Y38450620D01*
X30392666Y38281181D02*
X30725999Y38757372D01*
X30964094Y38281181D02*
X30964094Y39281181D01*
X30964094Y39281181D02*
X30583142Y39281181D01*
X30583142Y39281181D02*
X30487904Y39233562D01*
X30487904Y39233562D02*
X30440285Y39185943D01*
X30440285Y39185943D02*
X30392666Y39090705D01*
X30392666Y39090705D02*
X30392666Y38947848D01*
X30392666Y38947848D02*
X30440285Y38852610D01*
X30440285Y38852610D02*
X30487904Y38804991D01*
X30487904Y38804991D02*
X30583142Y38757372D01*
X30583142Y38757372D02*
X30964094Y38757372D01*
X30059332Y39281181D02*
X29440285Y39281181D01*
X29440285Y39281181D02*
X29773618Y38900229D01*
X29773618Y38900229D02*
X29630761Y38900229D01*
X29630761Y38900229D02*
X29535523Y38852610D01*
X29535523Y38852610D02*
X29487904Y38804991D01*
X29487904Y38804991D02*
X29440285Y38709753D01*
X29440285Y38709753D02*
X29440285Y38471658D01*
X29440285Y38471658D02*
X29487904Y38376420D01*
X29487904Y38376420D02*
X29535523Y38328800D01*
X29535523Y38328800D02*
X29630761Y38281181D01*
X29630761Y38281181D02*
X29916475Y38281181D01*
X29916475Y38281181D02*
X30011713Y38328800D01*
X30011713Y38328800D02*
X30059332Y38376420D01*
X28430457Y17299180D02*
X28906647Y17299180D01*
X28906647Y17299180D02*
X28906647Y18299180D01*
X27573314Y17299180D02*
X28144742Y17299180D01*
X27859028Y17299180D02*
X27859028Y18299180D01*
X27859028Y18299180D02*
X27954266Y18156323D01*
X27954266Y18156323D02*
X28049504Y18061085D01*
X28049504Y18061085D02*
X28144742Y18013466D01*
X26620933Y17299180D02*
X27192361Y17299180D01*
X26906647Y17299180D02*
X26906647Y18299180D01*
X26906647Y18299180D02*
X27001885Y18156323D01*
X27001885Y18156323D02*
X27097123Y18061085D01*
X27097123Y18061085D02*
X27192361Y18013466D01*
D11*
%TO.C,R15*%
X14504936Y24865000D02*
X14959064Y24865000D01*
X14504936Y23395000D02*
X14959064Y23395000D01*
%TO.C,R17*%
X14504936Y22325000D02*
X14959064Y22325000D01*
X14504936Y20855000D02*
X14959064Y20855000D01*
%TO.C,U1*%
X29840000Y15361299D02*
X33600000Y15361300D01*
X29840000Y14101300D02*
X29840000Y15361299D01*
X29840000Y9801298D02*
X29840000Y8541299D01*
X29840000Y8541299D02*
X33600000Y8541298D01*
X34880000Y15261299D02*
X34640000Y15591299D01*
X35120000Y15591299D01*
X34880000Y15261299D01*
G36*
X34880000Y15261299D02*
G01*
X34640000Y15591299D01*
X35120000Y15591299D01*
X34880000Y15261299D01*
G37*
%TO.C,Q1*%
X34697500Y44486001D02*
X34047500Y44486000D01*
X34697500Y44486001D02*
X35347500Y44486000D01*
X34697500Y41365999D02*
X34047500Y41366000D01*
X34697500Y41365999D02*
X35347500Y41366000D01*
X33775000Y41086001D02*
X33295000Y41086000D01*
X33535000Y41416000D01*
X33775000Y41086001D01*
G36*
X33775000Y41086001D02*
G01*
X33295000Y41086000D01*
X33535000Y41416000D01*
X33775000Y41086001D01*
G37*
%TO.C,R19*%
X20855000Y36549064D02*
X20855000Y36094936D01*
X22325000Y36549064D02*
X22325000Y36094936D01*
%TO.C,Q2*%
X34697500Y40930001D02*
X34047500Y40930000D01*
X34697500Y40930001D02*
X35347500Y40930000D01*
X34697500Y37809999D02*
X34047500Y37810000D01*
X34697500Y37809999D02*
X35347500Y37810000D01*
X33775000Y37530001D02*
X33295000Y37530000D01*
X33535000Y37860000D01*
X33775000Y37530001D01*
G36*
X33775000Y37530001D02*
G01*
X33295000Y37530000D01*
X33535000Y37860000D01*
X33775000Y37530001D01*
G37*
%TO.C,C1*%
X25198400Y9659253D02*
X25198400Y9136747D01*
X26668400Y9659253D02*
X26668400Y9136747D01*
%TO.C,C3*%
X25223800Y14496147D02*
X25223800Y15018653D01*
X26693800Y14496147D02*
X26693800Y15018653D01*
%TO.C,C5*%
X29609147Y17778400D02*
X30131653Y17778400D01*
X29609147Y16308400D02*
X30131653Y16308400D01*
%TO.C,C15*%
X19991400Y21267052D02*
X19991400Y20744548D01*
X21461400Y21267052D02*
X21461400Y20744548D01*
%TO.C,D1*%
X15368000Y13924000D02*
X15368000Y8414000D01*
X15368000Y13924000D02*
X18668000Y13924000D01*
X18668000Y13924000D02*
X18668000Y8414000D01*
%TO.C,L8*%
X25627400Y24111378D02*
X25627400Y24910622D01*
X26747400Y24111378D02*
X26747400Y24910622D01*
%TO.C,R1*%
X27789200Y21794736D02*
X27789200Y22248864D01*
X29259200Y21794736D02*
X29259200Y22248864D01*
%TO.C,R9*%
X14504936Y27405000D02*
X14959064Y27405000D01*
X14504936Y25935000D02*
X14959064Y25935000D01*
%TO.C,R10*%
X14504936Y32485000D02*
X14959064Y32485000D01*
X14504936Y31015000D02*
X14959064Y31015000D01*
%TO.C,R13*%
X21998000Y20778736D02*
X21998000Y21232864D01*
X23468000Y20778736D02*
X23468000Y21232864D01*
%TO.C,R16*%
X14504936Y19785000D02*
X14959064Y19785000D01*
X14504936Y18315000D02*
X14959064Y18315000D01*
%TO.C,R22*%
X38734564Y44119000D02*
X38280436Y44119000D01*
X38734564Y42649000D02*
X38280436Y42649000D01*
%TO.C,R23*%
X38860464Y40054200D02*
X38406336Y40054200D01*
X38860464Y38584200D02*
X38406336Y38584200D01*
%TO.C,C20*%
X24030000Y18701652D02*
X24030000Y18179148D01*
X25500000Y18701652D02*
X25500000Y18179148D01*
%TO.C,C17*%
X25214947Y22071000D02*
X25737453Y22071000D01*
X25214947Y20601000D02*
X25737453Y20601000D01*
%TO.C,C2*%
X35603547Y7618400D02*
X36126053Y7618400D01*
X35603547Y6148400D02*
X36126053Y6148400D01*
%TO.C,R18*%
X18315000Y36549064D02*
X18315000Y36094936D01*
X19785000Y36549064D02*
X19785000Y36094936D01*
%TO.C,R11*%
X14504936Y29945000D02*
X14959064Y29945000D01*
X14504936Y28475000D02*
X14959064Y28475000D01*
%TO.C,R12*%
X14504936Y35025000D02*
X14959064Y35025000D01*
X14504936Y33555000D02*
X14959064Y33555000D01*
%TO.C,Y2*%
X17975600Y32531000D02*
X17975600Y31731000D01*
X19775600Y30331000D02*
X21575600Y30331000D01*
X21575600Y33931000D02*
X19775600Y33931000D01*
X21575600Y30331000D02*
X21575600Y30091000D01*
X23375600Y31731000D02*
X23375600Y32531000D01*
X23775600Y31731000D02*
X23375600Y31731000D01*
%TO.C,U2*%
X20105047Y28222000D02*
X20105047Y27497000D01*
X20105047Y24002000D02*
X20105047Y24727000D01*
X20830047Y28222000D02*
X20105047Y28222000D01*
X20830047Y24002000D02*
X20105047Y24002000D01*
X23600047Y28222000D02*
X24025047Y28222000D01*
X23600047Y24002000D02*
X24325047Y24002000D01*
X24325047Y27497000D02*
X24325047Y27982000D01*
X24325047Y24002000D02*
X24325047Y24727000D01*
X24325047Y28222000D02*
X24085047Y28552000D01*
X24565047Y28552000D01*
X24325047Y28222000D01*
G36*
X24325047Y28222000D02*
G01*
X24085047Y28552000D01*
X24565047Y28552000D01*
X24325047Y28222000D01*
G37*
%TO.C,L7*%
X32606822Y26061600D02*
X31807578Y26061600D01*
X32606822Y24941600D02*
X31807578Y24941600D01*
%TO.C,L9*%
X31438422Y30887600D02*
X30639178Y30887600D01*
X31438422Y29767600D02*
X30639178Y29767600D01*
%TO.C,L5*%
X38144022Y26010800D02*
X37344778Y26010800D01*
X38144022Y24890800D02*
X37344778Y24890800D01*
%TO.C,L10*%
X26296245Y28334596D02*
X26861396Y27769445D01*
X27088204Y29126555D02*
X27653355Y28561404D01*
%TO.C,C7*%
X40341943Y25430190D02*
X40711410Y25799657D01*
X41381390Y24390743D02*
X41750857Y24760210D01*
%TO.C,C9*%
X34240800Y24746852D02*
X34240800Y24224348D01*
X35710800Y24746852D02*
X35710800Y24224348D01*
%TO.C,C13*%
X27459000Y30955347D02*
X27459000Y31477853D01*
X28929000Y30955347D02*
X28929000Y31477853D01*
%TO.C,C11*%
X28466147Y26236600D02*
X28988653Y26236600D01*
X28466147Y24766600D02*
X28988653Y24766600D01*
%TO.C,C4*%
X43378410Y20643457D02*
X43008943Y20273990D01*
X44417857Y19604010D02*
X44048390Y19234543D01*
%TO.C,C12*%
X30853748Y29132200D02*
X31376252Y29132200D01*
X30853748Y27662200D02*
X31376252Y27662200D01*
%TO.C,C6*%
X34587547Y30986400D02*
X35110053Y30986400D01*
X34587547Y29516400D02*
X35110053Y29516400D01*
%TO.C,L3*%
X42253796Y21851245D02*
X41688645Y22416396D01*
X43045755Y22643204D02*
X42480604Y23208355D01*
%TO.C,L1*%
X47293264Y21690000D02*
X46839136Y21690000D01*
X47293264Y20220000D02*
X46839136Y20220000D01*
%TO.C,C19*%
X17959400Y21267052D02*
X17959400Y20744548D01*
X19429400Y21267052D02*
X19429400Y20744548D01*
%TO.C,R4*%
X25935000Y36599864D02*
X25935000Y36145736D01*
X27405000Y36599864D02*
X27405000Y36145736D01*
%TO.C,R2*%
X29998936Y43915000D02*
X30453064Y43915000D01*
X29998936Y42445000D02*
X30453064Y42445000D01*
%TO.C,R5*%
X29818064Y37895200D02*
X29363936Y37895200D01*
X29818064Y36425200D02*
X29363936Y36425200D01*
%TO.C,R3*%
X29998936Y41121000D02*
X30453064Y41121000D01*
X29998936Y39651000D02*
X30453064Y39651000D01*
%TO.C,L11*%
X27387978Y19864000D02*
X28187222Y19864000D01*
X27387978Y18744000D02*
X28187222Y18744000D01*
%TD*%
M02*
