%TF.GenerationSoftware,KiCad,Pcbnew,7.0.11+1*%
%TF.CreationDate,2024-07-12T23:58:32+00:00*%
%TF.ProjectId,ISM03,49534d30-332e-46b6-9963-61645f706362,rev?*%
%TF.SameCoordinates,Original*%
%TF.FileFunction,Legend,Bot*%
%TF.FilePolarity,Positive*%
%FSLAX46Y46*%
G04 Gerber Fmt 4.6, Leading zero omitted, Abs format (unit mm)*
G04 Created by KiCad (PCBNEW 7.0.11+1) date 2024-07-12 23:58:32*
%MOMM*%
%LPD*%
G01*
G04 APERTURE LIST*
%ADD10C,0.150000*%
%ADD11C,0.120000*%
G04 APERTURE END LIST*
D10*
X151991866Y-109924831D02*
X151515675Y-109591498D01*
X151991866Y-109353403D02*
X150991866Y-109353403D01*
X150991866Y-109353403D02*
X150991866Y-109734355D01*
X150991866Y-109734355D02*
X151039485Y-109829593D01*
X151039485Y-109829593D02*
X151087104Y-109877212D01*
X151087104Y-109877212D02*
X151182342Y-109924831D01*
X151182342Y-109924831D02*
X151325199Y-109924831D01*
X151325199Y-109924831D02*
X151420437Y-109877212D01*
X151420437Y-109877212D02*
X151468056Y-109829593D01*
X151468056Y-109829593D02*
X151515675Y-109734355D01*
X151515675Y-109734355D02*
X151515675Y-109353403D01*
X151991866Y-110877212D02*
X151991866Y-110305784D01*
X151991866Y-110591498D02*
X150991866Y-110591498D01*
X150991866Y-110591498D02*
X151134723Y-110496260D01*
X151134723Y-110496260D02*
X151229961Y-110401022D01*
X151229961Y-110401022D02*
X151277580Y-110305784D01*
X150991866Y-111781974D02*
X150991866Y-111305784D01*
X150991866Y-111305784D02*
X151468056Y-111258165D01*
X151468056Y-111258165D02*
X151420437Y-111305784D01*
X151420437Y-111305784D02*
X151372818Y-111401022D01*
X151372818Y-111401022D02*
X151372818Y-111639117D01*
X151372818Y-111639117D02*
X151420437Y-111734355D01*
X151420437Y-111734355D02*
X151468056Y-111781974D01*
X151468056Y-111781974D02*
X151563294Y-111829593D01*
X151563294Y-111829593D02*
X151801389Y-111829593D01*
X151801389Y-111829593D02*
X151896627Y-111781974D01*
X151896627Y-111781974D02*
X151944247Y-111734355D01*
X151944247Y-111734355D02*
X151991866Y-111639117D01*
X151991866Y-111639117D02*
X151991866Y-111401022D01*
X151991866Y-111401022D02*
X151944247Y-111305784D01*
X151944247Y-111305784D02*
X151896627Y-111258165D01*
X154531866Y-109924831D02*
X154055675Y-109591498D01*
X154531866Y-109353403D02*
X153531866Y-109353403D01*
X153531866Y-109353403D02*
X153531866Y-109734355D01*
X153531866Y-109734355D02*
X153579485Y-109829593D01*
X153579485Y-109829593D02*
X153627104Y-109877212D01*
X153627104Y-109877212D02*
X153722342Y-109924831D01*
X153722342Y-109924831D02*
X153865199Y-109924831D01*
X153865199Y-109924831D02*
X153960437Y-109877212D01*
X153960437Y-109877212D02*
X154008056Y-109829593D01*
X154008056Y-109829593D02*
X154055675Y-109734355D01*
X154055675Y-109734355D02*
X154055675Y-109353403D01*
X154531866Y-110877212D02*
X154531866Y-110305784D01*
X154531866Y-110591498D02*
X153531866Y-110591498D01*
X153531866Y-110591498D02*
X153674723Y-110496260D01*
X153674723Y-110496260D02*
X153769961Y-110401022D01*
X153769961Y-110401022D02*
X153817580Y-110305784D01*
X153531866Y-111210546D02*
X153531866Y-111877212D01*
X153531866Y-111877212D02*
X154531866Y-111448641D01*
X133829773Y-101853069D02*
X134857868Y-101853069D01*
X134857868Y-101853069D02*
X134978820Y-101913546D01*
X134978820Y-101913546D02*
X135039297Y-101974022D01*
X135039297Y-101974022D02*
X135099773Y-102094974D01*
X135099773Y-102094974D02*
X135099773Y-102336879D01*
X135099773Y-102336879D02*
X135039297Y-102457831D01*
X135039297Y-102457831D02*
X134978820Y-102518308D01*
X134978820Y-102518308D02*
X134857868Y-102578784D01*
X134857868Y-102578784D02*
X133829773Y-102578784D01*
X135099773Y-103848784D02*
X135099773Y-103123069D01*
X135099773Y-103485926D02*
X133829773Y-103485926D01*
X133829773Y-103485926D02*
X134011201Y-103364974D01*
X134011201Y-103364974D02*
X134132154Y-103244022D01*
X134132154Y-103244022D02*
X134192630Y-103123069D01*
X170429285Y-107434746D02*
X170524523Y-107387127D01*
X170524523Y-107387127D02*
X170619761Y-107291889D01*
X170619761Y-107291889D02*
X170762618Y-107149031D01*
X170762618Y-107149031D02*
X170857856Y-107101412D01*
X170857856Y-107101412D02*
X170953094Y-107101412D01*
X170905475Y-107339508D02*
X171000713Y-107291889D01*
X171000713Y-107291889D02*
X171095951Y-107196650D01*
X171095951Y-107196650D02*
X171143570Y-107006174D01*
X171143570Y-107006174D02*
X171143570Y-106672841D01*
X171143570Y-106672841D02*
X171095951Y-106482365D01*
X171095951Y-106482365D02*
X171000713Y-106387127D01*
X171000713Y-106387127D02*
X170905475Y-106339508D01*
X170905475Y-106339508D02*
X170714999Y-106339508D01*
X170714999Y-106339508D02*
X170619761Y-106387127D01*
X170619761Y-106387127D02*
X170524523Y-106482365D01*
X170524523Y-106482365D02*
X170476904Y-106672841D01*
X170476904Y-106672841D02*
X170476904Y-107006174D01*
X170476904Y-107006174D02*
X170524523Y-107196650D01*
X170524523Y-107196650D02*
X170619761Y-107291889D01*
X170619761Y-107291889D02*
X170714999Y-107339508D01*
X170714999Y-107339508D02*
X170905475Y-107339508D01*
X169524523Y-107339508D02*
X170095951Y-107339508D01*
X169810237Y-107339508D02*
X169810237Y-106339508D01*
X169810237Y-106339508D02*
X169905475Y-106482365D01*
X169905475Y-106482365D02*
X170000713Y-106577603D01*
X170000713Y-106577603D02*
X170095951Y-106625222D01*
X153898866Y-89541331D02*
X153422675Y-89207998D01*
X153898866Y-88969903D02*
X152898866Y-88969903D01*
X152898866Y-88969903D02*
X152898866Y-89350855D01*
X152898866Y-89350855D02*
X152946485Y-89446093D01*
X152946485Y-89446093D02*
X152994104Y-89493712D01*
X152994104Y-89493712D02*
X153089342Y-89541331D01*
X153089342Y-89541331D02*
X153232199Y-89541331D01*
X153232199Y-89541331D02*
X153327437Y-89493712D01*
X153327437Y-89493712D02*
X153375056Y-89446093D01*
X153375056Y-89446093D02*
X153422675Y-89350855D01*
X153422675Y-89350855D02*
X153422675Y-88969903D01*
X153898866Y-90493712D02*
X153898866Y-89922284D01*
X153898866Y-90207998D02*
X152898866Y-90207998D01*
X152898866Y-90207998D02*
X153041723Y-90112760D01*
X153041723Y-90112760D02*
X153136961Y-90017522D01*
X153136961Y-90017522D02*
X153184580Y-89922284D01*
X153898866Y-90969903D02*
X153898866Y-91160379D01*
X153898866Y-91160379D02*
X153851247Y-91255617D01*
X153851247Y-91255617D02*
X153803627Y-91303236D01*
X153803627Y-91303236D02*
X153660770Y-91398474D01*
X153660770Y-91398474D02*
X153470294Y-91446093D01*
X153470294Y-91446093D02*
X153089342Y-91446093D01*
X153089342Y-91446093D02*
X152994104Y-91398474D01*
X152994104Y-91398474D02*
X152946485Y-91350855D01*
X152946485Y-91350855D02*
X152898866Y-91255617D01*
X152898866Y-91255617D02*
X152898866Y-91065141D01*
X152898866Y-91065141D02*
X152946485Y-90969903D01*
X152946485Y-90969903D02*
X152994104Y-90922284D01*
X152994104Y-90922284D02*
X153089342Y-90874665D01*
X153089342Y-90874665D02*
X153327437Y-90874665D01*
X153327437Y-90874665D02*
X153422675Y-90922284D01*
X153422675Y-90922284D02*
X153470294Y-90969903D01*
X153470294Y-90969903D02*
X153517913Y-91065141D01*
X153517913Y-91065141D02*
X153517913Y-91255617D01*
X153517913Y-91255617D02*
X153470294Y-91350855D01*
X153470294Y-91350855D02*
X153422675Y-91398474D01*
X153422675Y-91398474D02*
X153327437Y-91446093D01*
X166619285Y-107434746D02*
X166714523Y-107387127D01*
X166714523Y-107387127D02*
X166809761Y-107291889D01*
X166809761Y-107291889D02*
X166952618Y-107149031D01*
X166952618Y-107149031D02*
X167047856Y-107101412D01*
X167047856Y-107101412D02*
X167143094Y-107101412D01*
X167095475Y-107339508D02*
X167190713Y-107291889D01*
X167190713Y-107291889D02*
X167285951Y-107196650D01*
X167285951Y-107196650D02*
X167333570Y-107006174D01*
X167333570Y-107006174D02*
X167333570Y-106672841D01*
X167333570Y-106672841D02*
X167285951Y-106482365D01*
X167285951Y-106482365D02*
X167190713Y-106387127D01*
X167190713Y-106387127D02*
X167095475Y-106339508D01*
X167095475Y-106339508D02*
X166904999Y-106339508D01*
X166904999Y-106339508D02*
X166809761Y-106387127D01*
X166809761Y-106387127D02*
X166714523Y-106482365D01*
X166714523Y-106482365D02*
X166666904Y-106672841D01*
X166666904Y-106672841D02*
X166666904Y-107006174D01*
X166666904Y-107006174D02*
X166714523Y-107196650D01*
X166714523Y-107196650D02*
X166809761Y-107291889D01*
X166809761Y-107291889D02*
X166904999Y-107339508D01*
X166904999Y-107339508D02*
X167095475Y-107339508D01*
X166285951Y-106434746D02*
X166238332Y-106387127D01*
X166238332Y-106387127D02*
X166143094Y-106339508D01*
X166143094Y-106339508D02*
X165904999Y-106339508D01*
X165904999Y-106339508D02*
X165809761Y-106387127D01*
X165809761Y-106387127D02*
X165762142Y-106434746D01*
X165762142Y-106434746D02*
X165714523Y-106529984D01*
X165714523Y-106529984D02*
X165714523Y-106625222D01*
X165714523Y-106625222D02*
X165762142Y-106768079D01*
X165762142Y-106768079D02*
X166333570Y-107339508D01*
X166333570Y-107339508D02*
X165714523Y-107339508D01*
X131418866Y-94589594D02*
X130418866Y-94589594D01*
X130418866Y-94589594D02*
X130418866Y-94827689D01*
X130418866Y-94827689D02*
X130466485Y-94970546D01*
X130466485Y-94970546D02*
X130561723Y-95065784D01*
X130561723Y-95065784D02*
X130656961Y-95113403D01*
X130656961Y-95113403D02*
X130847437Y-95161022D01*
X130847437Y-95161022D02*
X130990294Y-95161022D01*
X130990294Y-95161022D02*
X131180770Y-95113403D01*
X131180770Y-95113403D02*
X131276008Y-95065784D01*
X131276008Y-95065784D02*
X131371247Y-94970546D01*
X131371247Y-94970546D02*
X131418866Y-94827689D01*
X131418866Y-94827689D02*
X131418866Y-94589594D01*
X131418866Y-96113403D02*
X131418866Y-95541975D01*
X131418866Y-95827689D02*
X130418866Y-95827689D01*
X130418866Y-95827689D02*
X130561723Y-95732451D01*
X130561723Y-95732451D02*
X130656961Y-95637213D01*
X130656961Y-95637213D02*
X130704580Y-95541975D01*
X162051866Y-102146022D02*
X162051866Y-101669832D01*
X162051866Y-101669832D02*
X161051866Y-101669832D01*
X161480437Y-102622213D02*
X161432818Y-102526975D01*
X161432818Y-102526975D02*
X161385199Y-102479356D01*
X161385199Y-102479356D02*
X161289961Y-102431737D01*
X161289961Y-102431737D02*
X161242342Y-102431737D01*
X161242342Y-102431737D02*
X161147104Y-102479356D01*
X161147104Y-102479356D02*
X161099485Y-102526975D01*
X161099485Y-102526975D02*
X161051866Y-102622213D01*
X161051866Y-102622213D02*
X161051866Y-102812689D01*
X161051866Y-102812689D02*
X161099485Y-102907927D01*
X161099485Y-102907927D02*
X161147104Y-102955546D01*
X161147104Y-102955546D02*
X161242342Y-103003165D01*
X161242342Y-103003165D02*
X161289961Y-103003165D01*
X161289961Y-103003165D02*
X161385199Y-102955546D01*
X161385199Y-102955546D02*
X161432818Y-102907927D01*
X161432818Y-102907927D02*
X161480437Y-102812689D01*
X161480437Y-102812689D02*
X161480437Y-102622213D01*
X161480437Y-102622213D02*
X161528056Y-102526975D01*
X161528056Y-102526975D02*
X161575675Y-102479356D01*
X161575675Y-102479356D02*
X161670913Y-102431737D01*
X161670913Y-102431737D02*
X161861389Y-102431737D01*
X161861389Y-102431737D02*
X161956627Y-102479356D01*
X161956627Y-102479356D02*
X162004247Y-102526975D01*
X162004247Y-102526975D02*
X162051866Y-102622213D01*
X162051866Y-102622213D02*
X162051866Y-102812689D01*
X162051866Y-102812689D02*
X162004247Y-102907927D01*
X162004247Y-102907927D02*
X161956627Y-102955546D01*
X161956627Y-102955546D02*
X161861389Y-103003165D01*
X161861389Y-103003165D02*
X161670913Y-103003165D01*
X161670913Y-103003165D02*
X161575675Y-102955546D01*
X161575675Y-102955546D02*
X161528056Y-102907927D01*
X161528056Y-102907927D02*
X161480437Y-102812689D01*
X162182213Y-105104819D02*
X162515546Y-104628628D01*
X162753641Y-105104819D02*
X162753641Y-104104819D01*
X162753641Y-104104819D02*
X162372689Y-104104819D01*
X162372689Y-104104819D02*
X162277451Y-104152438D01*
X162277451Y-104152438D02*
X162229832Y-104200057D01*
X162229832Y-104200057D02*
X162182213Y-104295295D01*
X162182213Y-104295295D02*
X162182213Y-104438152D01*
X162182213Y-104438152D02*
X162229832Y-104533390D01*
X162229832Y-104533390D02*
X162277451Y-104581009D01*
X162277451Y-104581009D02*
X162372689Y-104628628D01*
X162372689Y-104628628D02*
X162753641Y-104628628D01*
X161229832Y-105104819D02*
X161801260Y-105104819D01*
X161515546Y-105104819D02*
X161515546Y-104104819D01*
X161515546Y-104104819D02*
X161610784Y-104247676D01*
X161610784Y-104247676D02*
X161706022Y-104342914D01*
X161706022Y-104342914D02*
X161801260Y-104390533D01*
X139291866Y-110401022D02*
X138815675Y-110067689D01*
X139291866Y-109829594D02*
X138291866Y-109829594D01*
X138291866Y-109829594D02*
X138291866Y-110210546D01*
X138291866Y-110210546D02*
X138339485Y-110305784D01*
X138339485Y-110305784D02*
X138387104Y-110353403D01*
X138387104Y-110353403D02*
X138482342Y-110401022D01*
X138482342Y-110401022D02*
X138625199Y-110401022D01*
X138625199Y-110401022D02*
X138720437Y-110353403D01*
X138720437Y-110353403D02*
X138768056Y-110305784D01*
X138768056Y-110305784D02*
X138815675Y-110210546D01*
X138815675Y-110210546D02*
X138815675Y-109829594D01*
X139291866Y-110877213D02*
X139291866Y-111067689D01*
X139291866Y-111067689D02*
X139244247Y-111162927D01*
X139244247Y-111162927D02*
X139196627Y-111210546D01*
X139196627Y-111210546D02*
X139053770Y-111305784D01*
X139053770Y-111305784D02*
X138863294Y-111353403D01*
X138863294Y-111353403D02*
X138482342Y-111353403D01*
X138482342Y-111353403D02*
X138387104Y-111305784D01*
X138387104Y-111305784D02*
X138339485Y-111258165D01*
X138339485Y-111258165D02*
X138291866Y-111162927D01*
X138291866Y-111162927D02*
X138291866Y-110972451D01*
X138291866Y-110972451D02*
X138339485Y-110877213D01*
X138339485Y-110877213D02*
X138387104Y-110829594D01*
X138387104Y-110829594D02*
X138482342Y-110781975D01*
X138482342Y-110781975D02*
X138720437Y-110781975D01*
X138720437Y-110781975D02*
X138815675Y-110829594D01*
X138815675Y-110829594D02*
X138863294Y-110877213D01*
X138863294Y-110877213D02*
X138910913Y-110972451D01*
X138910913Y-110972451D02*
X138910913Y-111162927D01*
X138910913Y-111162927D02*
X138863294Y-111258165D01*
X138863294Y-111258165D02*
X138815675Y-111305784D01*
X138815675Y-111305784D02*
X138720437Y-111353403D01*
X136751866Y-109924831D02*
X136275675Y-109591498D01*
X136751866Y-109353403D02*
X135751866Y-109353403D01*
X135751866Y-109353403D02*
X135751866Y-109734355D01*
X135751866Y-109734355D02*
X135799485Y-109829593D01*
X135799485Y-109829593D02*
X135847104Y-109877212D01*
X135847104Y-109877212D02*
X135942342Y-109924831D01*
X135942342Y-109924831D02*
X136085199Y-109924831D01*
X136085199Y-109924831D02*
X136180437Y-109877212D01*
X136180437Y-109877212D02*
X136228056Y-109829593D01*
X136228056Y-109829593D02*
X136275675Y-109734355D01*
X136275675Y-109734355D02*
X136275675Y-109353403D01*
X136751866Y-110877212D02*
X136751866Y-110305784D01*
X136751866Y-110591498D02*
X135751866Y-110591498D01*
X135751866Y-110591498D02*
X135894723Y-110496260D01*
X135894723Y-110496260D02*
X135989961Y-110401022D01*
X135989961Y-110401022D02*
X136037580Y-110305784D01*
X135751866Y-111496260D02*
X135751866Y-111591498D01*
X135751866Y-111591498D02*
X135799485Y-111686736D01*
X135799485Y-111686736D02*
X135847104Y-111734355D01*
X135847104Y-111734355D02*
X135942342Y-111781974D01*
X135942342Y-111781974D02*
X136132818Y-111829593D01*
X136132818Y-111829593D02*
X136370913Y-111829593D01*
X136370913Y-111829593D02*
X136561389Y-111781974D01*
X136561389Y-111781974D02*
X136656627Y-111734355D01*
X136656627Y-111734355D02*
X136704247Y-111686736D01*
X136704247Y-111686736D02*
X136751866Y-111591498D01*
X136751866Y-111591498D02*
X136751866Y-111496260D01*
X136751866Y-111496260D02*
X136704247Y-111401022D01*
X136704247Y-111401022D02*
X136656627Y-111353403D01*
X136656627Y-111353403D02*
X136561389Y-111305784D01*
X136561389Y-111305784D02*
X136370913Y-111258165D01*
X136370913Y-111258165D02*
X136132818Y-111258165D01*
X136132818Y-111258165D02*
X135942342Y-111305784D01*
X135942342Y-111305784D02*
X135847104Y-111353403D01*
X135847104Y-111353403D02*
X135799485Y-111401022D01*
X135799485Y-111401022D02*
X135751866Y-111496260D01*
X159611866Y-109924831D02*
X159135675Y-109591498D01*
X159611866Y-109353403D02*
X158611866Y-109353403D01*
X158611866Y-109353403D02*
X158611866Y-109734355D01*
X158611866Y-109734355D02*
X158659485Y-109829593D01*
X158659485Y-109829593D02*
X158707104Y-109877212D01*
X158707104Y-109877212D02*
X158802342Y-109924831D01*
X158802342Y-109924831D02*
X158945199Y-109924831D01*
X158945199Y-109924831D02*
X159040437Y-109877212D01*
X159040437Y-109877212D02*
X159088056Y-109829593D01*
X159088056Y-109829593D02*
X159135675Y-109734355D01*
X159135675Y-109734355D02*
X159135675Y-109353403D01*
X159611866Y-110877212D02*
X159611866Y-110305784D01*
X159611866Y-110591498D02*
X158611866Y-110591498D01*
X158611866Y-110591498D02*
X158754723Y-110496260D01*
X158754723Y-110496260D02*
X158849961Y-110401022D01*
X158849961Y-110401022D02*
X158897580Y-110305784D01*
X158611866Y-111210546D02*
X158611866Y-111829593D01*
X158611866Y-111829593D02*
X158992818Y-111496260D01*
X158992818Y-111496260D02*
X158992818Y-111639117D01*
X158992818Y-111639117D02*
X159040437Y-111734355D01*
X159040437Y-111734355D02*
X159088056Y-111781974D01*
X159088056Y-111781974D02*
X159183294Y-111829593D01*
X159183294Y-111829593D02*
X159421389Y-111829593D01*
X159421389Y-111829593D02*
X159516627Y-111781974D01*
X159516627Y-111781974D02*
X159564247Y-111734355D01*
X159564247Y-111734355D02*
X159611866Y-111639117D01*
X159611866Y-111639117D02*
X159611866Y-111353403D01*
X159611866Y-111353403D02*
X159564247Y-111258165D01*
X159564247Y-111258165D02*
X159516627Y-111210546D01*
X157071866Y-109924831D02*
X156595675Y-109591498D01*
X157071866Y-109353403D02*
X156071866Y-109353403D01*
X156071866Y-109353403D02*
X156071866Y-109734355D01*
X156071866Y-109734355D02*
X156119485Y-109829593D01*
X156119485Y-109829593D02*
X156167104Y-109877212D01*
X156167104Y-109877212D02*
X156262342Y-109924831D01*
X156262342Y-109924831D02*
X156405199Y-109924831D01*
X156405199Y-109924831D02*
X156500437Y-109877212D01*
X156500437Y-109877212D02*
X156548056Y-109829593D01*
X156548056Y-109829593D02*
X156595675Y-109734355D01*
X156595675Y-109734355D02*
X156595675Y-109353403D01*
X157071866Y-110877212D02*
X157071866Y-110305784D01*
X157071866Y-110591498D02*
X156071866Y-110591498D01*
X156071866Y-110591498D02*
X156214723Y-110496260D01*
X156214723Y-110496260D02*
X156309961Y-110401022D01*
X156309961Y-110401022D02*
X156357580Y-110305784D01*
X156071866Y-111734355D02*
X156071866Y-111543879D01*
X156071866Y-111543879D02*
X156119485Y-111448641D01*
X156119485Y-111448641D02*
X156167104Y-111401022D01*
X156167104Y-111401022D02*
X156309961Y-111305784D01*
X156309961Y-111305784D02*
X156500437Y-111258165D01*
X156500437Y-111258165D02*
X156881389Y-111258165D01*
X156881389Y-111258165D02*
X156976627Y-111305784D01*
X156976627Y-111305784D02*
X157024247Y-111353403D01*
X157024247Y-111353403D02*
X157071866Y-111448641D01*
X157071866Y-111448641D02*
X157071866Y-111639117D01*
X157071866Y-111639117D02*
X157024247Y-111734355D01*
X157024247Y-111734355D02*
X156976627Y-111781974D01*
X156976627Y-111781974D02*
X156881389Y-111829593D01*
X156881389Y-111829593D02*
X156643294Y-111829593D01*
X156643294Y-111829593D02*
X156548056Y-111781974D01*
X156548056Y-111781974D02*
X156500437Y-111734355D01*
X156500437Y-111734355D02*
X156452818Y-111639117D01*
X156452818Y-111639117D02*
X156452818Y-111448641D01*
X156452818Y-111448641D02*
X156500437Y-111353403D01*
X156500437Y-111353403D02*
X156548056Y-111305784D01*
X156548056Y-111305784D02*
X156643294Y-111258165D01*
X173200866Y-112845831D02*
X172724675Y-112512498D01*
X173200866Y-112274403D02*
X172200866Y-112274403D01*
X172200866Y-112274403D02*
X172200866Y-112655355D01*
X172200866Y-112655355D02*
X172248485Y-112750593D01*
X172248485Y-112750593D02*
X172296104Y-112798212D01*
X172296104Y-112798212D02*
X172391342Y-112845831D01*
X172391342Y-112845831D02*
X172534199Y-112845831D01*
X172534199Y-112845831D02*
X172629437Y-112798212D01*
X172629437Y-112798212D02*
X172677056Y-112750593D01*
X172677056Y-112750593D02*
X172724675Y-112655355D01*
X172724675Y-112655355D02*
X172724675Y-112274403D01*
X172296104Y-113226784D02*
X172248485Y-113274403D01*
X172248485Y-113274403D02*
X172200866Y-113369641D01*
X172200866Y-113369641D02*
X172200866Y-113607736D01*
X172200866Y-113607736D02*
X172248485Y-113702974D01*
X172248485Y-113702974D02*
X172296104Y-113750593D01*
X172296104Y-113750593D02*
X172391342Y-113798212D01*
X172391342Y-113798212D02*
X172486580Y-113798212D01*
X172486580Y-113798212D02*
X172629437Y-113750593D01*
X172629437Y-113750593D02*
X173200866Y-113179165D01*
X173200866Y-113179165D02*
X173200866Y-113798212D01*
X172296104Y-114179165D02*
X172248485Y-114226784D01*
X172248485Y-114226784D02*
X172200866Y-114322022D01*
X172200866Y-114322022D02*
X172200866Y-114560117D01*
X172200866Y-114560117D02*
X172248485Y-114655355D01*
X172248485Y-114655355D02*
X172296104Y-114702974D01*
X172296104Y-114702974D02*
X172391342Y-114750593D01*
X172391342Y-114750593D02*
X172486580Y-114750593D01*
X172486580Y-114750593D02*
X172629437Y-114702974D01*
X172629437Y-114702974D02*
X173200866Y-114131546D01*
X173200866Y-114131546D02*
X173200866Y-114750593D01*
X169644866Y-112782331D02*
X169168675Y-112448998D01*
X169644866Y-112210903D02*
X168644866Y-112210903D01*
X168644866Y-112210903D02*
X168644866Y-112591855D01*
X168644866Y-112591855D02*
X168692485Y-112687093D01*
X168692485Y-112687093D02*
X168740104Y-112734712D01*
X168740104Y-112734712D02*
X168835342Y-112782331D01*
X168835342Y-112782331D02*
X168978199Y-112782331D01*
X168978199Y-112782331D02*
X169073437Y-112734712D01*
X169073437Y-112734712D02*
X169121056Y-112687093D01*
X169121056Y-112687093D02*
X169168675Y-112591855D01*
X169168675Y-112591855D02*
X169168675Y-112210903D01*
X168740104Y-113163284D02*
X168692485Y-113210903D01*
X168692485Y-113210903D02*
X168644866Y-113306141D01*
X168644866Y-113306141D02*
X168644866Y-113544236D01*
X168644866Y-113544236D02*
X168692485Y-113639474D01*
X168692485Y-113639474D02*
X168740104Y-113687093D01*
X168740104Y-113687093D02*
X168835342Y-113734712D01*
X168835342Y-113734712D02*
X168930580Y-113734712D01*
X168930580Y-113734712D02*
X169073437Y-113687093D01*
X169073437Y-113687093D02*
X169644866Y-113115665D01*
X169644866Y-113115665D02*
X169644866Y-113734712D01*
X168644866Y-114068046D02*
X168644866Y-114687093D01*
X168644866Y-114687093D02*
X169025818Y-114353760D01*
X169025818Y-114353760D02*
X169025818Y-114496617D01*
X169025818Y-114496617D02*
X169073437Y-114591855D01*
X169073437Y-114591855D02*
X169121056Y-114639474D01*
X169121056Y-114639474D02*
X169216294Y-114687093D01*
X169216294Y-114687093D02*
X169454389Y-114687093D01*
X169454389Y-114687093D02*
X169549627Y-114639474D01*
X169549627Y-114639474D02*
X169597247Y-114591855D01*
X169597247Y-114591855D02*
X169644866Y-114496617D01*
X169644866Y-114496617D02*
X169644866Y-114210903D01*
X169644866Y-114210903D02*
X169597247Y-114115665D01*
X169597247Y-114115665D02*
X169549627Y-114068046D01*
X149961866Y-89604831D02*
X149485675Y-89271498D01*
X149961866Y-89033403D02*
X148961866Y-89033403D01*
X148961866Y-89033403D02*
X148961866Y-89414355D01*
X148961866Y-89414355D02*
X149009485Y-89509593D01*
X149009485Y-89509593D02*
X149057104Y-89557212D01*
X149057104Y-89557212D02*
X149152342Y-89604831D01*
X149152342Y-89604831D02*
X149295199Y-89604831D01*
X149295199Y-89604831D02*
X149390437Y-89557212D01*
X149390437Y-89557212D02*
X149438056Y-89509593D01*
X149438056Y-89509593D02*
X149485675Y-89414355D01*
X149485675Y-89414355D02*
X149485675Y-89033403D01*
X149961866Y-90557212D02*
X149961866Y-89985784D01*
X149961866Y-90271498D02*
X148961866Y-90271498D01*
X148961866Y-90271498D02*
X149104723Y-90176260D01*
X149104723Y-90176260D02*
X149199961Y-90081022D01*
X149199961Y-90081022D02*
X149247580Y-89985784D01*
X149390437Y-91128641D02*
X149342818Y-91033403D01*
X149342818Y-91033403D02*
X149295199Y-90985784D01*
X149295199Y-90985784D02*
X149199961Y-90938165D01*
X149199961Y-90938165D02*
X149152342Y-90938165D01*
X149152342Y-90938165D02*
X149057104Y-90985784D01*
X149057104Y-90985784D02*
X149009485Y-91033403D01*
X149009485Y-91033403D02*
X148961866Y-91128641D01*
X148961866Y-91128641D02*
X148961866Y-91319117D01*
X148961866Y-91319117D02*
X149009485Y-91414355D01*
X149009485Y-91414355D02*
X149057104Y-91461974D01*
X149057104Y-91461974D02*
X149152342Y-91509593D01*
X149152342Y-91509593D02*
X149199961Y-91509593D01*
X149199961Y-91509593D02*
X149295199Y-91461974D01*
X149295199Y-91461974D02*
X149342818Y-91414355D01*
X149342818Y-91414355D02*
X149390437Y-91319117D01*
X149390437Y-91319117D02*
X149390437Y-91128641D01*
X149390437Y-91128641D02*
X149438056Y-91033403D01*
X149438056Y-91033403D02*
X149485675Y-90985784D01*
X149485675Y-90985784D02*
X149580913Y-90938165D01*
X149580913Y-90938165D02*
X149771389Y-90938165D01*
X149771389Y-90938165D02*
X149866627Y-90985784D01*
X149866627Y-90985784D02*
X149914247Y-91033403D01*
X149914247Y-91033403D02*
X149961866Y-91128641D01*
X149961866Y-91128641D02*
X149961866Y-91319117D01*
X149961866Y-91319117D02*
X149914247Y-91414355D01*
X149914247Y-91414355D02*
X149866627Y-91461974D01*
X149866627Y-91461974D02*
X149771389Y-91509593D01*
X149771389Y-91509593D02*
X149580913Y-91509593D01*
X149580913Y-91509593D02*
X149485675Y-91461974D01*
X149485675Y-91461974D02*
X149438056Y-91414355D01*
X149438056Y-91414355D02*
X149390437Y-91319117D01*
X132816866Y-89604831D02*
X132340675Y-89271498D01*
X132816866Y-89033403D02*
X131816866Y-89033403D01*
X131816866Y-89033403D02*
X131816866Y-89414355D01*
X131816866Y-89414355D02*
X131864485Y-89509593D01*
X131864485Y-89509593D02*
X131912104Y-89557212D01*
X131912104Y-89557212D02*
X132007342Y-89604831D01*
X132007342Y-89604831D02*
X132150199Y-89604831D01*
X132150199Y-89604831D02*
X132245437Y-89557212D01*
X132245437Y-89557212D02*
X132293056Y-89509593D01*
X132293056Y-89509593D02*
X132340675Y-89414355D01*
X132340675Y-89414355D02*
X132340675Y-89033403D01*
X132816866Y-90557212D02*
X132816866Y-89985784D01*
X132816866Y-90271498D02*
X131816866Y-90271498D01*
X131816866Y-90271498D02*
X131959723Y-90176260D01*
X131959723Y-90176260D02*
X132054961Y-90081022D01*
X132054961Y-90081022D02*
X132102580Y-89985784D01*
X132816866Y-91509593D02*
X132816866Y-90938165D01*
X132816866Y-91223879D02*
X131816866Y-91223879D01*
X131816866Y-91223879D02*
X131959723Y-91128641D01*
X131959723Y-91128641D02*
X132054961Y-91033403D01*
X132054961Y-91033403D02*
X132102580Y-90938165D01*
X135356866Y-89604831D02*
X134880675Y-89271498D01*
X135356866Y-89033403D02*
X134356866Y-89033403D01*
X134356866Y-89033403D02*
X134356866Y-89414355D01*
X134356866Y-89414355D02*
X134404485Y-89509593D01*
X134404485Y-89509593D02*
X134452104Y-89557212D01*
X134452104Y-89557212D02*
X134547342Y-89604831D01*
X134547342Y-89604831D02*
X134690199Y-89604831D01*
X134690199Y-89604831D02*
X134785437Y-89557212D01*
X134785437Y-89557212D02*
X134833056Y-89509593D01*
X134833056Y-89509593D02*
X134880675Y-89414355D01*
X134880675Y-89414355D02*
X134880675Y-89033403D01*
X135356866Y-90557212D02*
X135356866Y-89985784D01*
X135356866Y-90271498D02*
X134356866Y-90271498D01*
X134356866Y-90271498D02*
X134499723Y-90176260D01*
X134499723Y-90176260D02*
X134594961Y-90081022D01*
X134594961Y-90081022D02*
X134642580Y-89985784D01*
X134452104Y-90938165D02*
X134404485Y-90985784D01*
X134404485Y-90985784D02*
X134356866Y-91081022D01*
X134356866Y-91081022D02*
X134356866Y-91319117D01*
X134356866Y-91319117D02*
X134404485Y-91414355D01*
X134404485Y-91414355D02*
X134452104Y-91461974D01*
X134452104Y-91461974D02*
X134547342Y-91509593D01*
X134547342Y-91509593D02*
X134642580Y-91509593D01*
X134642580Y-91509593D02*
X134785437Y-91461974D01*
X134785437Y-91461974D02*
X135356866Y-90890546D01*
X135356866Y-90890546D02*
X135356866Y-91509593D01*
X151633237Y-94417317D02*
X151633237Y-94893508D01*
X151966570Y-93893508D02*
X151633237Y-94417317D01*
X151633237Y-94417317D02*
X151299904Y-93893508D01*
X151014189Y-93988746D02*
X150966570Y-93941127D01*
X150966570Y-93941127D02*
X150871332Y-93893508D01*
X150871332Y-93893508D02*
X150633237Y-93893508D01*
X150633237Y-93893508D02*
X150537999Y-93941127D01*
X150537999Y-93941127D02*
X150490380Y-93988746D01*
X150490380Y-93988746D02*
X150442761Y-94083984D01*
X150442761Y-94083984D02*
X150442761Y-94179222D01*
X150442761Y-94179222D02*
X150490380Y-94322079D01*
X150490380Y-94322079D02*
X151061808Y-94893508D01*
X151061808Y-94893508D02*
X150442761Y-94893508D01*
X146041866Y-100915784D02*
X146851389Y-100915784D01*
X146851389Y-100915784D02*
X146946627Y-100963403D01*
X146946627Y-100963403D02*
X146994247Y-101011022D01*
X146994247Y-101011022D02*
X147041866Y-101106260D01*
X147041866Y-101106260D02*
X147041866Y-101296736D01*
X147041866Y-101296736D02*
X146994247Y-101391974D01*
X146994247Y-101391974D02*
X146946627Y-101439593D01*
X146946627Y-101439593D02*
X146851389Y-101487212D01*
X146851389Y-101487212D02*
X146041866Y-101487212D01*
X146137104Y-101915784D02*
X146089485Y-101963403D01*
X146089485Y-101963403D02*
X146041866Y-102058641D01*
X146041866Y-102058641D02*
X146041866Y-102296736D01*
X146041866Y-102296736D02*
X146089485Y-102391974D01*
X146089485Y-102391974D02*
X146137104Y-102439593D01*
X146137104Y-102439593D02*
X146232342Y-102487212D01*
X146232342Y-102487212D02*
X146327580Y-102487212D01*
X146327580Y-102487212D02*
X146470437Y-102439593D01*
X146470437Y-102439593D02*
X147041866Y-101868165D01*
X147041866Y-101868165D02*
X147041866Y-102487212D01*
X160975713Y-98448908D02*
X161451903Y-98448908D01*
X161451903Y-98448908D02*
X161451903Y-97448908D01*
X160737617Y-97448908D02*
X160070951Y-97448908D01*
X160070951Y-97448908D02*
X160499522Y-98448908D01*
X164023713Y-94867508D02*
X164499903Y-94867508D01*
X164499903Y-94867508D02*
X164499903Y-93867508D01*
X163261808Y-93867508D02*
X163452284Y-93867508D01*
X163452284Y-93867508D02*
X163547522Y-93915127D01*
X163547522Y-93915127D02*
X163595141Y-93962746D01*
X163595141Y-93962746D02*
X163690379Y-94105603D01*
X163690379Y-94105603D02*
X163737998Y-94296079D01*
X163737998Y-94296079D02*
X163737998Y-94677031D01*
X163737998Y-94677031D02*
X163690379Y-94772269D01*
X163690379Y-94772269D02*
X163642760Y-94819889D01*
X163642760Y-94819889D02*
X163547522Y-94867508D01*
X163547522Y-94867508D02*
X163357046Y-94867508D01*
X163357046Y-94867508D02*
X163261808Y-94819889D01*
X163261808Y-94819889D02*
X163214189Y-94772269D01*
X163214189Y-94772269D02*
X163166570Y-94677031D01*
X163166570Y-94677031D02*
X163166570Y-94438936D01*
X163166570Y-94438936D02*
X163214189Y-94343698D01*
X163214189Y-94343698D02*
X163261808Y-94296079D01*
X163261808Y-94296079D02*
X163357046Y-94248460D01*
X163357046Y-94248460D02*
X163547522Y-94248460D01*
X163547522Y-94248460D02*
X163642760Y-94296079D01*
X163642760Y-94296079D02*
X163690379Y-94343698D01*
X163690379Y-94343698D02*
X163737998Y-94438936D01*
X160213713Y-92327508D02*
X160689903Y-92327508D01*
X160689903Y-92327508D02*
X160689903Y-91327508D01*
X159832760Y-92327508D02*
X159642284Y-92327508D01*
X159642284Y-92327508D02*
X159547046Y-92279889D01*
X159547046Y-92279889D02*
X159499427Y-92232269D01*
X159499427Y-92232269D02*
X159404189Y-92089412D01*
X159404189Y-92089412D02*
X159356570Y-91898936D01*
X159356570Y-91898936D02*
X159356570Y-91517984D01*
X159356570Y-91517984D02*
X159404189Y-91422746D01*
X159404189Y-91422746D02*
X159451808Y-91375127D01*
X159451808Y-91375127D02*
X159547046Y-91327508D01*
X159547046Y-91327508D02*
X159737522Y-91327508D01*
X159737522Y-91327508D02*
X159832760Y-91375127D01*
X159832760Y-91375127D02*
X159880379Y-91422746D01*
X159880379Y-91422746D02*
X159927998Y-91517984D01*
X159927998Y-91517984D02*
X159927998Y-91756079D01*
X159927998Y-91756079D02*
X159880379Y-91851317D01*
X159880379Y-91851317D02*
X159832760Y-91898936D01*
X159832760Y-91898936D02*
X159737522Y-91946555D01*
X159737522Y-91946555D02*
X159547046Y-91946555D01*
X159547046Y-91946555D02*
X159451808Y-91898936D01*
X159451808Y-91898936D02*
X159404189Y-91851317D01*
X159404189Y-91851317D02*
X159356570Y-91756079D01*
X164785713Y-98448908D02*
X165261903Y-98448908D01*
X165261903Y-98448908D02*
X165261903Y-97448908D01*
X163976189Y-97448908D02*
X164452379Y-97448908D01*
X164452379Y-97448908D02*
X164499998Y-97925098D01*
X164499998Y-97925098D02*
X164452379Y-97877479D01*
X164452379Y-97877479D02*
X164357141Y-97829860D01*
X164357141Y-97829860D02*
X164119046Y-97829860D01*
X164119046Y-97829860D02*
X164023808Y-97877479D01*
X164023808Y-97877479D02*
X163976189Y-97925098D01*
X163976189Y-97925098D02*
X163928570Y-98020336D01*
X163928570Y-98020336D02*
X163928570Y-98258431D01*
X163928570Y-98258431D02*
X163976189Y-98353669D01*
X163976189Y-98353669D02*
X164023808Y-98401289D01*
X164023808Y-98401289D02*
X164119046Y-98448908D01*
X164119046Y-98448908D02*
X164357141Y-98448908D01*
X164357141Y-98448908D02*
X164452379Y-98401289D01*
X164452379Y-98401289D02*
X164499998Y-98353669D01*
X155776866Y-94049831D02*
X155776866Y-93573641D01*
X155776866Y-93573641D02*
X154776866Y-93573641D01*
X155776866Y-94906974D02*
X155776866Y-94335546D01*
X155776866Y-94621260D02*
X154776866Y-94621260D01*
X154776866Y-94621260D02*
X154919723Y-94526022D01*
X154919723Y-94526022D02*
X155014961Y-94430784D01*
X155014961Y-94430784D02*
X155062580Y-94335546D01*
X154776866Y-95526022D02*
X154776866Y-95621260D01*
X154776866Y-95621260D02*
X154824485Y-95716498D01*
X154824485Y-95716498D02*
X154872104Y-95764117D01*
X154872104Y-95764117D02*
X154967342Y-95811736D01*
X154967342Y-95811736D02*
X155157818Y-95859355D01*
X155157818Y-95859355D02*
X155395913Y-95859355D01*
X155395913Y-95859355D02*
X155586389Y-95811736D01*
X155586389Y-95811736D02*
X155681627Y-95764117D01*
X155681627Y-95764117D02*
X155729247Y-95716498D01*
X155729247Y-95716498D02*
X155776866Y-95621260D01*
X155776866Y-95621260D02*
X155776866Y-95526022D01*
X155776866Y-95526022D02*
X155729247Y-95430784D01*
X155729247Y-95430784D02*
X155681627Y-95383165D01*
X155681627Y-95383165D02*
X155586389Y-95335546D01*
X155586389Y-95335546D02*
X155395913Y-95287927D01*
X155395913Y-95287927D02*
X155157818Y-95287927D01*
X155157818Y-95287927D02*
X154967342Y-95335546D01*
X154967342Y-95335546D02*
X154872104Y-95383165D01*
X154872104Y-95383165D02*
X154824485Y-95430784D01*
X154824485Y-95430784D02*
X154776866Y-95526022D01*
X159546627Y-99764831D02*
X159594247Y-99717212D01*
X159594247Y-99717212D02*
X159641866Y-99574355D01*
X159641866Y-99574355D02*
X159641866Y-99479117D01*
X159641866Y-99479117D02*
X159594247Y-99336260D01*
X159594247Y-99336260D02*
X159499008Y-99241022D01*
X159499008Y-99241022D02*
X159403770Y-99193403D01*
X159403770Y-99193403D02*
X159213294Y-99145784D01*
X159213294Y-99145784D02*
X159070437Y-99145784D01*
X159070437Y-99145784D02*
X158879961Y-99193403D01*
X158879961Y-99193403D02*
X158784723Y-99241022D01*
X158784723Y-99241022D02*
X158689485Y-99336260D01*
X158689485Y-99336260D02*
X158641866Y-99479117D01*
X158641866Y-99479117D02*
X158641866Y-99574355D01*
X158641866Y-99574355D02*
X158689485Y-99717212D01*
X158689485Y-99717212D02*
X158737104Y-99764831D01*
X159641866Y-100717212D02*
X159641866Y-100145784D01*
X159641866Y-100431498D02*
X158641866Y-100431498D01*
X158641866Y-100431498D02*
X158784723Y-100336260D01*
X158784723Y-100336260D02*
X158879961Y-100241022D01*
X158879961Y-100241022D02*
X158927580Y-100145784D01*
X159641866Y-101669593D02*
X159641866Y-101098165D01*
X159641866Y-101383879D02*
X158641866Y-101383879D01*
X158641866Y-101383879D02*
X158784723Y-101288641D01*
X158784723Y-101288641D02*
X158879961Y-101193403D01*
X158879961Y-101193403D02*
X158927580Y-101098165D01*
X168595713Y-98448908D02*
X169071903Y-98448908D01*
X169071903Y-98448908D02*
X169071903Y-97448908D01*
X168357617Y-97448908D02*
X167738570Y-97448908D01*
X167738570Y-97448908D02*
X168071903Y-97829860D01*
X168071903Y-97829860D02*
X167929046Y-97829860D01*
X167929046Y-97829860D02*
X167833808Y-97877479D01*
X167833808Y-97877479D02*
X167786189Y-97925098D01*
X167786189Y-97925098D02*
X167738570Y-98020336D01*
X167738570Y-98020336D02*
X167738570Y-98258431D01*
X167738570Y-98258431D02*
X167786189Y-98353669D01*
X167786189Y-98353669D02*
X167833808Y-98401289D01*
X167833808Y-98401289D02*
X167929046Y-98448908D01*
X167929046Y-98448908D02*
X168214760Y-98448908D01*
X168214760Y-98448908D02*
X168309998Y-98401289D01*
X168309998Y-98401289D02*
X168357617Y-98353669D01*
X167833713Y-94867508D02*
X168309903Y-94867508D01*
X168309903Y-94867508D02*
X168309903Y-93867508D01*
X167071808Y-94200841D02*
X167071808Y-94867508D01*
X167309903Y-93819889D02*
X167547998Y-94534174D01*
X167547998Y-94534174D02*
X166928951Y-94534174D01*
X172278713Y-98323508D02*
X172754903Y-98323508D01*
X172754903Y-98323508D02*
X172754903Y-97323508D01*
X171421570Y-98323508D02*
X171992998Y-98323508D01*
X171707284Y-98323508D02*
X171707284Y-97323508D01*
X171707284Y-97323508D02*
X171802522Y-97466365D01*
X171802522Y-97466365D02*
X171897760Y-97561603D01*
X171897760Y-97561603D02*
X171992998Y-97609222D01*
X171643713Y-94767508D02*
X172119903Y-94767508D01*
X172119903Y-94767508D02*
X172119903Y-93767508D01*
X171357998Y-93862746D02*
X171310379Y-93815127D01*
X171310379Y-93815127D02*
X171215141Y-93767508D01*
X171215141Y-93767508D02*
X170977046Y-93767508D01*
X170977046Y-93767508D02*
X170881808Y-93815127D01*
X170881808Y-93815127D02*
X170834189Y-93862746D01*
X170834189Y-93862746D02*
X170786570Y-93957984D01*
X170786570Y-93957984D02*
X170786570Y-94053222D01*
X170786570Y-94053222D02*
X170834189Y-94196079D01*
X170834189Y-94196079D02*
X171405617Y-94767508D01*
X171405617Y-94767508D02*
X170786570Y-94767508D01*
D11*
%TO.C,R15*%
X149152047Y-110794753D02*
X149152047Y-110340625D01*
X150622047Y-110794753D02*
X150622047Y-110340625D01*
%TO.C,R17*%
X151692047Y-110794753D02*
X151692047Y-110340625D01*
X153162047Y-110794753D02*
X153162047Y-110340625D01*
D10*
%TO.C,U1*%
X130075047Y-106503689D02*
X130075047Y-99391689D01*
X133123047Y-106503689D02*
X130075047Y-106503689D01*
X136171047Y-106503689D02*
X136933047Y-106503689D01*
X136933047Y-106503689D02*
X139219047Y-104979689D01*
X139193647Y-104954289D02*
X139193647Y-100890289D01*
X139219047Y-100915689D02*
X136933047Y-99391689D01*
X130075047Y-99391689D02*
X133123047Y-99391689D01*
X136933047Y-99391689D02*
X136171047Y-99391689D01*
D11*
%TO.C,Q1*%
X171348047Y-108098689D02*
X169888047Y-108098689D01*
X171348047Y-108098689D02*
X171348047Y-109028689D01*
X171348047Y-111258689D02*
X169188047Y-111258689D01*
X171348047Y-111258689D02*
X171348047Y-110328689D01*
%TO.C,R19*%
X155829047Y-89957125D02*
X155829047Y-90411253D01*
X154359047Y-89957125D02*
X154359047Y-90411253D01*
%TO.C,Q2*%
X167538047Y-108098689D02*
X166078047Y-108098689D01*
X167538047Y-108098689D02*
X167538047Y-109028689D01*
X167538047Y-111258689D02*
X165378047Y-111258689D01*
X167538047Y-111258689D02*
X167538047Y-110328689D01*
D10*
%TO.C,C1*%
X132551547Y-96978689D02*
X132551547Y-98502689D01*
D11*
X133694547Y-96978689D02*
X134456547Y-96978689D01*
X133694547Y-98502689D02*
X134456547Y-98502689D01*
D10*
X135599547Y-98502689D02*
X135599547Y-96978689D01*
%TO.C,C3*%
X141124047Y-101487189D02*
X139600047Y-101487189D01*
D11*
X141124047Y-102630189D02*
X141124047Y-103392189D01*
X139600047Y-102630189D02*
X139600047Y-103392189D01*
D10*
X139600047Y-104535189D02*
X141124047Y-104535189D01*
%TO.C,C5*%
X129059047Y-101423689D02*
X127535047Y-101423689D01*
D11*
X129059047Y-102566689D02*
X129059047Y-103328689D01*
X127535047Y-102566689D02*
X127535047Y-103328689D01*
D10*
X127535047Y-104471689D02*
X129059047Y-104471689D01*
%TO.C,C15*%
X156618047Y-105233689D02*
X155094047Y-105233689D01*
D11*
X156618047Y-106376689D02*
X156618047Y-107138689D01*
X155094047Y-106376689D02*
X155094047Y-107138689D01*
D10*
X155094047Y-108281689D02*
X156618047Y-108281689D01*
D11*
%TO.C,D1*%
X129837047Y-97877689D02*
X129837047Y-93577689D01*
X131837047Y-97877689D02*
X129837047Y-97877689D01*
X131837047Y-93577689D02*
X131837047Y-97877689D01*
%TO.C,L8*%
X159487047Y-102712311D02*
X159487047Y-101913067D01*
X160607047Y-102712311D02*
X160607047Y-101913067D01*
%TO.C,R1*%
X162242611Y-107035000D02*
X161788483Y-107035000D01*
X162242611Y-105565000D02*
X161788483Y-105565000D01*
%TO.C,R9*%
X136452047Y-110794753D02*
X136452047Y-110340625D01*
X137922047Y-110794753D02*
X137922047Y-110340625D01*
%TO.C,R10*%
X133912047Y-110794753D02*
X133912047Y-110340625D01*
X135382047Y-110794753D02*
X135382047Y-110340625D01*
%TO.C,R13*%
X156772047Y-110794753D02*
X156772047Y-110340625D01*
X158242047Y-110794753D02*
X158242047Y-110340625D01*
%TO.C,R16*%
X154232047Y-110794753D02*
X154232047Y-110340625D01*
X155702047Y-110794753D02*
X155702047Y-110340625D01*
%TO.C,R22*%
X170361047Y-113715753D02*
X170361047Y-113261625D01*
X171831047Y-113715753D02*
X171831047Y-113261625D01*
%TO.C,R23*%
X166805047Y-113652253D02*
X166805047Y-113198125D01*
X168275047Y-113652253D02*
X168275047Y-113198125D01*
D10*
%TO.C,C20*%
X154586047Y-105170189D02*
X153062047Y-105170189D01*
D11*
X154586047Y-106313189D02*
X154586047Y-107075189D01*
X153062047Y-106313189D02*
X153062047Y-107075189D01*
D10*
X153062047Y-108218189D02*
X154586047Y-108218189D01*
%TO.C,C17*%
X158650047Y-105233689D02*
X157126047Y-105233689D01*
D11*
X158650047Y-106376689D02*
X158650047Y-107138689D01*
X157126047Y-106376689D02*
X157126047Y-107138689D01*
D10*
X157126047Y-108281689D02*
X158650047Y-108281689D01*
%TO.C,C2*%
X132551547Y-94946689D02*
X132551547Y-96470689D01*
D11*
X133694547Y-94946689D02*
X134456547Y-94946689D01*
X133694547Y-96470689D02*
X134456547Y-96470689D01*
D10*
X135599547Y-96470689D02*
X135599547Y-94946689D01*
D11*
%TO.C,R18*%
X151892047Y-90020625D02*
X151892047Y-90474753D01*
X150422047Y-90020625D02*
X150422047Y-90474753D01*
%TO.C,R11*%
X134747047Y-90020625D02*
X134747047Y-90474753D01*
X133277047Y-90020625D02*
X133277047Y-90474753D01*
%TO.C,R12*%
X137287047Y-90020625D02*
X137287047Y-90474753D01*
X135817047Y-90020625D02*
X135817047Y-90474753D01*
%TO.C,Y2*%
X154257047Y-95022689D02*
X153857047Y-95022689D01*
X153857047Y-95022689D02*
X153857047Y-94222689D01*
X152057047Y-96422689D02*
X152057047Y-96662689D01*
X152057047Y-92822689D02*
X150257047Y-92822689D01*
X150257047Y-96422689D02*
X152057047Y-96422689D01*
X148457047Y-94222689D02*
X148457047Y-95022689D01*
%TO.C,U2*%
X151997047Y-99567689D02*
X151272047Y-99567689D01*
X148502047Y-99567689D02*
X148017047Y-99567689D01*
X151997047Y-100292689D02*
X151997047Y-99567689D01*
X147777047Y-100292689D02*
X147777047Y-99867689D01*
X151997047Y-103062689D02*
X151997047Y-103787689D01*
X147777047Y-103062689D02*
X147777047Y-103787689D01*
X151997047Y-103787689D02*
X151272047Y-103787689D01*
X147777047Y-103787689D02*
X148502047Y-103787689D01*
X147777047Y-99567689D02*
X147447047Y-99807689D01*
X147447047Y-99327689D01*
X147777047Y-99567689D01*
G36*
X147777047Y-99567689D02*
G01*
X147447047Y-99807689D01*
X147447047Y-99327689D01*
X147777047Y-99567689D01*
G37*
%TO.C,L7*%
X161208669Y-100104089D02*
X160409425Y-100104089D01*
X161208669Y-98984089D02*
X160409425Y-98984089D01*
%TO.C,L6*%
X164256669Y-96522689D02*
X163457425Y-96522689D01*
X164256669Y-95402689D02*
X163457425Y-95402689D01*
%TO.C,L9*%
X160446669Y-93982689D02*
X159647425Y-93982689D01*
X160446669Y-92862689D02*
X159647425Y-92862689D01*
%TO.C,L5*%
X165018669Y-100104089D02*
X164219425Y-100104089D01*
X165018669Y-98984089D02*
X164219425Y-98984089D01*
%TO.C,L10*%
X157432047Y-94293067D02*
X157432047Y-95092311D01*
X156312047Y-94293067D02*
X156312047Y-95092311D01*
D10*
%TO.C,C7*%
X167921047Y-101195089D02*
X166397047Y-101195089D01*
D11*
X167921047Y-102338089D02*
X167921047Y-103100089D01*
X166397047Y-102338089D02*
X166397047Y-103100089D01*
D10*
X166397047Y-104243089D02*
X167921047Y-104243089D01*
%TO.C,C9*%
X162841047Y-101195089D02*
X161317047Y-101195089D01*
D11*
X162841047Y-102338089D02*
X162841047Y-103100089D01*
X161317047Y-102338089D02*
X161317047Y-103100089D01*
D10*
X161317047Y-104243089D02*
X162841047Y-104243089D01*
%TO.C,C13*%
X158396047Y-91835189D02*
X159920047Y-91835189D01*
D11*
X158396047Y-90692189D02*
X158396047Y-89930189D01*
X159920047Y-90692189D02*
X159920047Y-89930189D01*
D10*
X159920047Y-88787189D02*
X158396047Y-88787189D01*
%TO.C,C10*%
X162460047Y-94311689D02*
X163984047Y-94311689D01*
D11*
X162460047Y-93168689D02*
X162460047Y-92406689D01*
X163984047Y-93168689D02*
X163984047Y-92406689D01*
D10*
X163984047Y-91263689D02*
X162460047Y-91263689D01*
D11*
%TO.C,C11*%
X156772047Y-100668941D02*
X156772047Y-100146437D01*
X158242047Y-100668941D02*
X158242047Y-100146437D01*
D10*
%TO.C,C4*%
X171731047Y-101195089D02*
X170207047Y-101195089D01*
D11*
X171731047Y-102338089D02*
X171731047Y-103100089D01*
X170207047Y-102338089D02*
X170207047Y-103100089D01*
D10*
X170207047Y-104243089D02*
X171731047Y-104243089D01*
%TO.C,C12*%
X158523047Y-95200689D02*
X158523047Y-96724689D01*
D11*
X159666047Y-95200689D02*
X160428047Y-95200689D01*
X159666047Y-96724689D02*
X160428047Y-96724689D01*
D10*
X161571047Y-96724689D02*
X161571047Y-95200689D01*
%TO.C,C6*%
X168810047Y-94311689D02*
X170334047Y-94311689D01*
D11*
X168810047Y-93168689D02*
X168810047Y-92406689D01*
X170334047Y-93168689D02*
X170334047Y-92406689D01*
D10*
X170334047Y-91263689D02*
X168810047Y-91263689D01*
%TO.C,C8*%
X165635047Y-94311689D02*
X167159047Y-94311689D01*
D11*
X165635047Y-93168689D02*
X165635047Y-92406689D01*
X167159047Y-93168689D02*
X167159047Y-92406689D01*
D10*
X167159047Y-91263689D02*
X165635047Y-91263689D01*
D11*
%TO.C,L3*%
X168828669Y-100104089D02*
X168029425Y-100104089D01*
X168828669Y-98984089D02*
X168029425Y-98984089D01*
%TO.C,L4*%
X168066669Y-96522689D02*
X167267425Y-96522689D01*
X168066669Y-95402689D02*
X167267425Y-95402689D01*
%TO.C,L1*%
X172339111Y-100253689D02*
X171884983Y-100253689D01*
X172339111Y-98783689D02*
X171884983Y-98783689D01*
%TO.C,L2*%
X171704111Y-96697689D02*
X171249983Y-96697689D01*
X171704111Y-95227689D02*
X171249983Y-95227689D01*
D10*
%TO.C,C19*%
X160809047Y-108408689D02*
X159285047Y-108408689D01*
D11*
X160809047Y-109551689D02*
X160809047Y-110313689D01*
X159285047Y-109551689D02*
X159285047Y-110313689D01*
D10*
X159285047Y-111456689D02*
X160809047Y-111456689D01*
%TD*%
M02*
