%TF.GenerationSoftware,KiCad,Pcbnew,7.0.11+1*%
%TF.CreationDate,2024-07-13T22:37:04+00:00*%
%TF.ProjectId,ISM03,49534d30-332e-46b6-9963-61645f706362,rev?*%
%TF.SameCoordinates,Original*%
%TF.FileFunction,Copper,L1,Top*%
%TF.FilePolarity,Positive*%
%FSLAX46Y46*%
G04 Gerber Fmt 4.6, Leading zero omitted, Abs format (unit mm)*
G04 Created by KiCad (PCBNEW 7.0.11+1) date 2024-07-13 22:37:04*
%MOMM*%
%LPD*%
G01*
G04 APERTURE LIST*
%TA.AperFunction,ComponentPad*%
%ADD10R,1.524000X1.524000*%
%TD*%
%TA.AperFunction,ComponentPad*%
%ADD11C,6.000000*%
%TD*%
%TA.AperFunction,ComponentPad*%
%ADD12C,2.500000*%
%TD*%
%TA.AperFunction,ComponentPad*%
%ADD13C,2.700000*%
%TD*%
%TA.AperFunction,HeatsinkPad*%
%ADD14C,0.500000*%
%TD*%
%TA.AperFunction,HeatsinkPad*%
%ADD15R,2.600000X2.600000*%
%TD*%
%TA.AperFunction,ViaPad*%
%ADD16C,0.800000*%
%TD*%
%TA.AperFunction,Conductor*%
%ADD17C,0.500000*%
%TD*%
G04 APERTURE END LIST*
D10*
%TO.P,J17,1*%
%TO.N,/TXRAMP*%
X24601000Y10173500D03*
%TO.P,J17,2*%
X24601000Y12713500D03*
%TD*%
%TO.P,J24,1*%
%TO.N,Net-(J24-Pad1)*%
X14568000Y40590000D03*
%TO.P,J24,2*%
%TO.N,/GPIO2*%
X14568000Y43130000D03*
%TD*%
%TO.P,J25,1*%
%TO.N,Net-(J25-Pad1)*%
X22188000Y40082000D03*
%TO.P,J25,2*%
%TO.N,/GPIO3*%
X22188000Y42622000D03*
%TD*%
%TO.P,J1,1,2*%
%TO.N,GND*%
X-2549953Y34289311D03*
%TO.P,J1,2,2*%
X-9953Y34289311D03*
%TO.P,J1,3,4*%
%TO.N,VCC*%
X-2549953Y31749311D03*
%TO.P,J1,4,4*%
X-9953Y31749311D03*
%TO.P,J1,5,6*%
%TO.N,GND*%
X-2549953Y29209311D03*
%TO.P,J1,6,6*%
X-9953Y29209311D03*
%TD*%
%TO.P,J4,1,2*%
%TO.N,GND*%
X-2549953Y21208311D03*
%TO.P,J4,2,2*%
X-9953Y21208311D03*
%TO.P,J4,3,4*%
%TO.N,+3.3V*%
X-2549953Y18668311D03*
%TO.P,J4,4,4*%
X-9953Y18668311D03*
%TO.P,J4,5,6*%
%TO.N,GND*%
X-2549953Y16128311D03*
%TO.P,J4,6,6*%
X-9953Y16128311D03*
%TD*%
%TO.P,J13,1*%
%TO.N,/SCLK*%
X13335000Y22860000D03*
%TO.P,J13,2*%
X10795000Y22860000D03*
%TD*%
%TO.P,J14,1*%
%TO.N,/SDI*%
X13044000Y29414000D03*
%TO.P,J14,2*%
X10504000Y29414000D03*
%TD*%
%TO.P,J19,1*%
%TO.N,/nIRQ*%
X10795000Y20320000D03*
%TO.P,J19,2*%
X13335000Y20320000D03*
%TD*%
%TO.P,J20,1*%
%TO.N,/GPIO0*%
X22061000Y10173500D03*
%TO.P,J20,2*%
X22061000Y12713500D03*
%TD*%
%TO.P,J21,1*%
%TO.N,/GPIO1*%
X19521000Y10173500D03*
%TO.P,J21,2*%
X19521000Y12713500D03*
%TD*%
D11*
%TO.P,M1,1*%
%TO.N,GND*%
X10160000Y40640000D03*
%TD*%
%TO.P,M2,1*%
%TO.N,GND*%
X50800000Y40640000D03*
%TD*%
%TO.P,M3,1*%
%TO.N,GND*%
X10160000Y10160000D03*
%TD*%
%TO.P,M4,1*%
%TO.N,GND*%
X50800000Y10160000D03*
%TD*%
D12*
%TO.P,J3,1*%
%TO.N,Net-(J3-Pad1)*%
X50790047Y31749311D03*
D13*
%TO.P,J3,2*%
%TO.N,GND*%
X48250047Y34289311D03*
X48250047Y29209311D03*
X53330047Y34289311D03*
X53330047Y29209311D03*
%TD*%
D10*
%TO.P,J26,1*%
%TO.N,GND*%
X11430000Y31750000D03*
%TO.P,J26,2*%
X8890000Y31750000D03*
%TD*%
%TO.P,J22,1*%
%TO.N,/GPIO2*%
X17108000Y40639311D03*
%TO.P,J22,2*%
X17108000Y43179311D03*
%TD*%
%TO.P,J16,1*%
%TO.N,/nSEL*%
X11430000Y34748000D03*
%TO.P,J16,2*%
X8890000Y34748000D03*
%TD*%
%TO.P,J15,1*%
%TO.N,/SDO*%
X12486689Y26874000D03*
%TO.P,J15,2*%
X9946689Y26874000D03*
%TD*%
%TO.P,J23,1*%
%TO.N,/GPIO3*%
X19648000Y40639311D03*
%TO.P,J23,2*%
X19648000Y43179311D03*
%TD*%
D12*
%TO.P,J2,1*%
%TO.N,Net-(J2-Pad1)*%
X50790047Y20954311D03*
D13*
%TO.P,J2,2*%
%TO.N,GND*%
X48250047Y23494311D03*
X48250047Y18414311D03*
X53330047Y23494311D03*
X53330047Y18414311D03*
%TD*%
D10*
%TO.P,J5,1*%
%TO.N,/SDN*%
X24728000Y40082000D03*
%TO.P,J5,2*%
X24728000Y42622000D03*
%TD*%
D14*
%TO.P,U2,21,GND*%
%TO.N,GND*%
X23265047Y25062000D03*
X23265047Y27162000D03*
D15*
X22215047Y26112000D03*
D14*
X21165047Y25062000D03*
X21165047Y27162000D03*
%TD*%
D16*
%TO.N,GND*%
X4562047Y15493311D03*
X46980047Y37083311D03*
X45456047Y24891311D03*
X54092047Y15493311D03*
X25744000Y18047500D03*
X50028047Y15493311D03*
X31486047Y40385311D03*
X33518047Y37591311D03*
X40122047Y37591311D03*
X5324047Y9651311D03*
X15738047Y7111311D03*
X29200047Y36575311D03*
X28184047Y26415311D03*
X44440047Y29971311D03*
X26914047Y24584311D03*
X36058047Y29971311D03*
X46218047Y13969311D03*
X45964047Y33527311D03*
X4816047Y11683311D03*
X45456047Y21843311D03*
X42154047Y21589311D03*
X41392047Y29971311D03*
X45710047Y35559311D03*
X15484047Y33781311D03*
X47742047Y15493311D03*
X36731147Y24040411D03*
X26506000Y8141500D03*
X34534047Y29971311D03*
X3038047Y36321311D03*
X8372047Y23875311D03*
X37836047Y29971311D03*
X52314047Y15493311D03*
X26914047Y23621311D03*
X43932047Y36067311D03*
X40630047Y21589311D03*
X28438047Y24129311D03*
X27153371Y27191987D03*
X29200047Y37591311D03*
X17770047Y33781311D03*
X43932047Y33527311D03*
X41900047Y37591311D03*
X20818047Y8635311D03*
X38344047Y37591311D03*
X-2549953Y24383311D03*
X31613047Y30098311D03*
X4562047Y17271311D03*
X43932047Y34543311D03*
X33264047Y40385311D03*
X39106047Y21589311D03*
X43932047Y37591311D03*
X26506000Y10427500D03*
X-2549953Y26415311D03*
X45456047Y23621311D03*
X45456047Y20319311D03*
X42916047Y29971311D03*
X26660047Y29463311D03*
X30470047Y23621311D03*
X45710047Y16001311D03*
X36566047Y37591311D03*
X52314047Y26415311D03*
X2784047Y17271311D03*
X54346047Y26415311D03*
X4562047Y13715311D03*
X17008047Y8635311D03*
X18786047Y8635311D03*
X22596047Y8635311D03*
X33518047Y38861311D03*
X43678047Y21589311D03*
X30470047Y24637311D03*
X36820047Y25653311D03*
X34407047Y11746811D03*
X39614047Y29971311D03*
X29454047Y38861311D03*
X26506000Y12205500D03*
X45456047Y29971311D03*
X30074371Y30112987D03*
X33010047Y30098311D03*
X24474000Y7887500D03*
X6086047Y33781311D03*
%TO.N,/SDO*%
X12690047Y27177311D03*
%TD*%
D17*
%TO.N,GND*%
X31598371Y30112987D02*
X31613047Y30098311D01*
X36820047Y24129311D02*
X36731147Y24040411D01*
X34407047Y30098311D02*
X34534047Y29971311D01*
%TD*%
%TA.AperFunction,Conductor*%
%TO.N,GND*%
G36*
X26660047Y21843311D02*
G01*
X17770047Y21843311D01*
X18278047Y29717311D01*
X26660047Y29971311D01*
X26660047Y21843311D01*
G37*
%TD.AperFunction*%
%TD*%
%TA.AperFunction,Conductor*%
%TO.N,GND*%
G36*
X11011553Y31914228D02*
G01*
X10981736Y31783593D01*
X10991749Y31649972D01*
X11040703Y31525240D01*
X11064021Y31496000D01*
X9256618Y31496000D01*
X9308447Y31585772D01*
X9338264Y31716407D01*
X9328251Y31850028D01*
X9279297Y31974760D01*
X9255979Y32004000D01*
X11063382Y32004000D01*
X11011553Y31914228D01*
G37*
%TD.AperFunction*%
%TA.AperFunction,Conductor*%
G36*
X55557621Y45435498D02*
G01*
X55604114Y45381842D01*
X55615500Y45329500D01*
X55615500Y5470500D01*
X55595498Y5402379D01*
X55541842Y5355886D01*
X55489500Y5344500D01*
X5470500Y5344500D01*
X5402379Y5364502D01*
X5355886Y5418158D01*
X5344500Y5470500D01*
X5344500Y9366641D01*
X18458500Y9366641D01*
X18458501Y9366634D01*
X18461414Y9341510D01*
X18461416Y9341506D01*
X18506793Y9238735D01*
X18586232Y9159296D01*
X18586234Y9159295D01*
X18586235Y9159294D01*
X18689009Y9113915D01*
X18714135Y9111000D01*
X20327864Y9111001D01*
X20352991Y9113915D01*
X20455765Y9159294D01*
X20535206Y9238735D01*
X20580585Y9341509D01*
X20583500Y9366635D01*
X20583500Y9366641D01*
X20998500Y9366641D01*
X20998501Y9366634D01*
X21001414Y9341510D01*
X21001416Y9341506D01*
X21046793Y9238735D01*
X21126232Y9159296D01*
X21126234Y9159295D01*
X21126235Y9159294D01*
X21229009Y9113915D01*
X21254135Y9111000D01*
X22867864Y9111001D01*
X22892991Y9113915D01*
X22995765Y9159294D01*
X23075206Y9238735D01*
X23120585Y9341509D01*
X23123500Y9366635D01*
X23123500Y9366641D01*
X23538500Y9366641D01*
X23538501Y9366634D01*
X23541414Y9341510D01*
X23541416Y9341506D01*
X23586793Y9238735D01*
X23666232Y9159296D01*
X23666234Y9159295D01*
X23666235Y9159294D01*
X23769009Y9113915D01*
X23794135Y9111000D01*
X25407864Y9111001D01*
X25432991Y9113915D01*
X25535765Y9159294D01*
X25615206Y9238735D01*
X25660585Y9341509D01*
X25663500Y9366635D01*
X25663499Y10980364D01*
X25660585Y11005491D01*
X25615206Y11108265D01*
X25615206Y11108266D01*
X25535767Y11187705D01*
X25535765Y11187706D01*
X25432989Y11233086D01*
X25432990Y11233086D01*
X25407868Y11236000D01*
X23794140Y11236000D01*
X23794133Y11235999D01*
X23769009Y11233086D01*
X23769005Y11233084D01*
X23666234Y11187707D01*
X23586795Y11108268D01*
X23586794Y11108266D01*
X23541414Y11005491D01*
X23538500Y10980371D01*
X23538500Y9366641D01*
X23123500Y9366641D01*
X23123499Y10980364D01*
X23120585Y11005491D01*
X23075206Y11108265D01*
X23075206Y11108266D01*
X22995767Y11187705D01*
X22995765Y11187706D01*
X22892989Y11233086D01*
X22892990Y11233086D01*
X22867868Y11236000D01*
X21254140Y11236000D01*
X21254133Y11235999D01*
X21229009Y11233086D01*
X21229005Y11233084D01*
X21126234Y11187707D01*
X21046795Y11108268D01*
X21046794Y11108266D01*
X21001414Y11005491D01*
X20998500Y10980371D01*
X20998500Y9366641D01*
X20583500Y9366641D01*
X20583499Y10980364D01*
X20580585Y11005491D01*
X20535206Y11108265D01*
X20535206Y11108266D01*
X20455767Y11187705D01*
X20455765Y11187706D01*
X20352989Y11233086D01*
X20352990Y11233086D01*
X20327868Y11236000D01*
X18714140Y11236000D01*
X18714133Y11235999D01*
X18689009Y11233086D01*
X18689005Y11233084D01*
X18586234Y11187707D01*
X18506795Y11108268D01*
X18506794Y11108266D01*
X18461414Y11005491D01*
X18458500Y10980371D01*
X18458500Y9366641D01*
X5344500Y9366641D01*
X5344500Y11906641D01*
X18458500Y11906641D01*
X18458501Y11906634D01*
X18461414Y11881510D01*
X18461416Y11881506D01*
X18506793Y11778735D01*
X18586232Y11699296D01*
X18586234Y11699295D01*
X18586235Y11699294D01*
X18689009Y11653915D01*
X18714135Y11651000D01*
X20327864Y11651001D01*
X20352991Y11653915D01*
X20455765Y11699294D01*
X20535206Y11778735D01*
X20580585Y11881509D01*
X20583500Y11906635D01*
X20583500Y11906641D01*
X20998500Y11906641D01*
X20998501Y11906634D01*
X21001414Y11881510D01*
X21001416Y11881506D01*
X21046793Y11778735D01*
X21126232Y11699296D01*
X21126234Y11699295D01*
X21126235Y11699294D01*
X21229009Y11653915D01*
X21254135Y11651000D01*
X22867864Y11651001D01*
X22892991Y11653915D01*
X22995765Y11699294D01*
X23075206Y11778735D01*
X23120585Y11881509D01*
X23123500Y11906635D01*
X23123500Y11906641D01*
X23538500Y11906641D01*
X23538501Y11906634D01*
X23541414Y11881510D01*
X23541416Y11881506D01*
X23586793Y11778735D01*
X23666232Y11699296D01*
X23666234Y11699295D01*
X23666235Y11699294D01*
X23769009Y11653915D01*
X23794135Y11651000D01*
X25407864Y11651001D01*
X25432991Y11653915D01*
X25535765Y11699294D01*
X25615206Y11778735D01*
X25660585Y11881509D01*
X25663500Y11906635D01*
X25663499Y13520364D01*
X25660585Y13545491D01*
X25615206Y13648265D01*
X25615206Y13648266D01*
X25535767Y13727705D01*
X25535765Y13727706D01*
X25432989Y13773086D01*
X25432990Y13773086D01*
X25407868Y13776000D01*
X23794140Y13776000D01*
X23794133Y13775999D01*
X23769009Y13773086D01*
X23769005Y13773084D01*
X23666234Y13727707D01*
X23586795Y13648268D01*
X23586794Y13648266D01*
X23541414Y13545491D01*
X23538500Y13520371D01*
X23538500Y11906641D01*
X23123500Y11906641D01*
X23123499Y13520364D01*
X23120585Y13545491D01*
X23075206Y13648265D01*
X23075206Y13648266D01*
X22995767Y13727705D01*
X22995765Y13727706D01*
X22892989Y13773086D01*
X22892990Y13773086D01*
X22867868Y13776000D01*
X21254140Y13776000D01*
X21254133Y13775999D01*
X21229009Y13773086D01*
X21229005Y13773084D01*
X21126234Y13727707D01*
X21046795Y13648268D01*
X21046794Y13648266D01*
X21001414Y13545491D01*
X20998500Y13520371D01*
X20998500Y11906641D01*
X20583500Y11906641D01*
X20583499Y13520364D01*
X20580585Y13545491D01*
X20535206Y13648265D01*
X20535206Y13648266D01*
X20455767Y13727705D01*
X20455765Y13727706D01*
X20352989Y13773086D01*
X20352990Y13773086D01*
X20327868Y13776000D01*
X18714140Y13776000D01*
X18714133Y13775999D01*
X18689009Y13773086D01*
X18689005Y13773084D01*
X18586234Y13727707D01*
X18506795Y13648268D01*
X18506794Y13648266D01*
X18461414Y13545491D01*
X18458500Y13520371D01*
X18458500Y11906641D01*
X5344500Y11906641D01*
X5344500Y18414311D01*
X46387301Y18414311D01*
X46406260Y18149219D01*
X46462754Y17889518D01*
X46555634Y17640497D01*
X46683005Y17407235D01*
X46768950Y17292426D01*
X46768950Y17292425D01*
X47496853Y18020329D01*
X47542363Y17934489D01*
X47662056Y17793576D01*
X47809242Y17681688D01*
X47855316Y17660372D01*
X47128159Y16933216D01*
X47128160Y16933215D01*
X47242966Y16847272D01*
X47476232Y16719899D01*
X47725253Y16627019D01*
X47984954Y16570525D01*
X48250047Y16551566D01*
X48515139Y16570525D01*
X48774840Y16627019D01*
X49023861Y16719899D01*
X49257123Y16847269D01*
X49371932Y16933216D01*
X49371933Y16933216D01*
X48645124Y17660025D01*
X48767478Y17733642D01*
X48901705Y17860788D01*
X49005460Y18013816D01*
X49006682Y18016885D01*
X49731142Y17292425D01*
X49731142Y17292426D01*
X49817089Y17407235D01*
X49944459Y17640497D01*
X50037339Y17889518D01*
X50093833Y18149219D01*
X50112792Y18414311D01*
X50093833Y18679404D01*
X50037339Y18939105D01*
X49944459Y19188126D01*
X49817086Y19421392D01*
X49781702Y19468660D01*
X49756891Y19535180D01*
X49771982Y19604554D01*
X49822184Y19654756D01*
X49891558Y19669848D01*
X49948402Y19651603D01*
X50083958Y19568534D01*
X50309435Y19475139D01*
X50546745Y19418165D01*
X50790047Y19399017D01*
X51033349Y19418165D01*
X51270659Y19475139D01*
X51496136Y19568534D01*
X51631689Y19651602D01*
X51700221Y19670140D01*
X51767898Y19648684D01*
X51813231Y19594045D01*
X51821828Y19523571D01*
X51798392Y19468661D01*
X51763006Y19421391D01*
X51635634Y19188126D01*
X51542754Y18939105D01*
X51486260Y18679404D01*
X51467301Y18414311D01*
X51486260Y18149219D01*
X51542754Y17889518D01*
X51635634Y17640497D01*
X51763005Y17407235D01*
X51848950Y17292426D01*
X51848950Y17292425D01*
X52576853Y18020329D01*
X52622363Y17934489D01*
X52742056Y17793576D01*
X52889242Y17681688D01*
X52935316Y17660372D01*
X52208159Y16933216D01*
X52208160Y16933215D01*
X52322966Y16847272D01*
X52556232Y16719899D01*
X52805253Y16627019D01*
X53064954Y16570525D01*
X53330047Y16551566D01*
X53595139Y16570525D01*
X53854840Y16627019D01*
X54103861Y16719899D01*
X54337123Y16847269D01*
X54451932Y16933216D01*
X54451933Y16933216D01*
X53725124Y17660025D01*
X53847478Y17733642D01*
X53981705Y17860788D01*
X54085460Y18013816D01*
X54086682Y18016885D01*
X54811142Y17292425D01*
X54811142Y17292426D01*
X54897089Y17407235D01*
X55024459Y17640497D01*
X55117339Y17889518D01*
X55173833Y18149219D01*
X55192792Y18414311D01*
X55173833Y18679404D01*
X55117339Y18939105D01*
X55024459Y19188126D01*
X54897086Y19421392D01*
X54811143Y19536198D01*
X54811142Y19536199D01*
X54083239Y18808296D01*
X54037731Y18894133D01*
X53918038Y19035046D01*
X53770852Y19146934D01*
X53724776Y19168252D01*
X54451933Y19895408D01*
X54337123Y19981353D01*
X54103861Y20108724D01*
X53854840Y20201604D01*
X53595139Y20258098D01*
X53330047Y20277057D01*
X53064954Y20258098D01*
X52805253Y20201604D01*
X52556232Y20108724D01*
X52322967Y19981352D01*
X52275697Y19945966D01*
X52209176Y19921156D01*
X52139803Y19936248D01*
X52089601Y19986451D01*
X52074510Y20055825D01*
X52092757Y20112670D01*
X52175822Y20248219D01*
X52175821Y20248219D01*
X52175824Y20248222D01*
X52269219Y20473699D01*
X52326193Y20711009D01*
X52345341Y20954311D01*
X52326193Y21197613D01*
X52269219Y21434923D01*
X52175824Y21660400D01*
X52092755Y21795956D01*
X52074218Y21864486D01*
X52095674Y21932163D01*
X52150313Y21977496D01*
X52220788Y21986093D01*
X52275698Y21962656D01*
X52322966Y21927272D01*
X52556232Y21799899D01*
X52805253Y21707019D01*
X53064954Y21650525D01*
X53330047Y21631566D01*
X53595139Y21650525D01*
X53854840Y21707019D01*
X54103861Y21799899D01*
X54337123Y21927269D01*
X54451932Y22013216D01*
X54451933Y22013216D01*
X53725124Y22740025D01*
X53847478Y22813642D01*
X53981705Y22940788D01*
X54085460Y23093816D01*
X54086682Y23096885D01*
X54811142Y22372425D01*
X54811142Y22372426D01*
X54897089Y22487235D01*
X55024459Y22720497D01*
X55117339Y22969518D01*
X55173833Y23229219D01*
X55192792Y23494311D01*
X55173833Y23759404D01*
X55117339Y24019105D01*
X55024459Y24268126D01*
X54897086Y24501392D01*
X54811143Y24616198D01*
X54811142Y24616199D01*
X54083239Y23888296D01*
X54037731Y23974133D01*
X53918038Y24115046D01*
X53770852Y24226934D01*
X53724776Y24248251D01*
X54451933Y24975408D01*
X54337123Y25061353D01*
X54103861Y25188724D01*
X53854840Y25281604D01*
X53595139Y25338098D01*
X53330047Y25357057D01*
X53064954Y25338098D01*
X52805253Y25281604D01*
X52556232Y25188724D01*
X52322971Y25061354D01*
X52208160Y24975409D01*
X52208159Y24975408D01*
X52934969Y24248598D01*
X52812616Y24174980D01*
X52678389Y24047834D01*
X52574634Y23894806D01*
X52573411Y23891738D01*
X51848950Y24616199D01*
X51848949Y24616198D01*
X51763004Y24501387D01*
X51635634Y24268126D01*
X51542754Y24019105D01*
X51486260Y23759404D01*
X51467301Y23494311D01*
X51486260Y23229219D01*
X51542754Y22969518D01*
X51635634Y22720497D01*
X51763007Y22487231D01*
X51798391Y22439963D01*
X51823202Y22373443D01*
X51808111Y22304069D01*
X51757908Y22253866D01*
X51688534Y22238775D01*
X51631689Y22257021D01*
X51496136Y22340088D01*
X51270659Y22433483D01*
X51270657Y22433484D01*
X51270656Y22433484D01*
X51142947Y22464145D01*
X51033349Y22490457D01*
X51033350Y22490457D01*
X50790047Y22509605D01*
X50546744Y22490457D01*
X50309437Y22433484D01*
X50083955Y22340087D01*
X49948404Y22257021D01*
X49879871Y22238483D01*
X49812194Y22259940D01*
X49766861Y22314579D01*
X49758265Y22385053D01*
X49781703Y22439964D01*
X49817086Y22487230D01*
X49944459Y22720497D01*
X50037339Y22969518D01*
X50093833Y23229219D01*
X50112792Y23494311D01*
X50093833Y23759404D01*
X50037339Y24019105D01*
X49944459Y24268126D01*
X49817086Y24501392D01*
X49731143Y24616198D01*
X49003239Y23888294D01*
X48957731Y23974133D01*
X48838038Y24115046D01*
X48690852Y24226934D01*
X48644776Y24248251D01*
X49371933Y24975408D01*
X49257123Y25061353D01*
X49023861Y25188724D01*
X48774840Y25281604D01*
X48515139Y25338098D01*
X48250047Y25357057D01*
X47984954Y25338098D01*
X47725253Y25281604D01*
X47476232Y25188724D01*
X47242971Y25061354D01*
X47128160Y24975409D01*
X47128159Y24975408D01*
X47854969Y24248598D01*
X47732616Y24174980D01*
X47598389Y24047834D01*
X47494634Y23894806D01*
X47493411Y23891738D01*
X46768950Y24616199D01*
X46768949Y24616198D01*
X46683004Y24501387D01*
X46555634Y24268126D01*
X46462754Y24019105D01*
X46406260Y23759404D01*
X46387301Y23494311D01*
X46406260Y23229219D01*
X46462754Y22969518D01*
X46555634Y22720497D01*
X46683005Y22487235D01*
X46768950Y22372426D01*
X46768950Y22372425D01*
X47496853Y23100329D01*
X47542363Y23014489D01*
X47662056Y22873576D01*
X47809242Y22761688D01*
X47855317Y22740372D01*
X47128160Y22013215D01*
X47242966Y21927272D01*
X47476232Y21799899D01*
X47725253Y21707019D01*
X47984954Y21650525D01*
X48250047Y21631566D01*
X48515139Y21650525D01*
X48774840Y21707019D01*
X49023861Y21799899D01*
X49257128Y21927272D01*
X49304394Y21962655D01*
X49370914Y21987467D01*
X49440288Y21972376D01*
X49490491Y21922175D01*
X49505583Y21852801D01*
X49487337Y21795954D01*
X49404271Y21660403D01*
X49310874Y21434921D01*
X49253901Y21197614D01*
X49234753Y20954311D01*
X49253901Y20711009D01*
X49310874Y20473702D01*
X49404269Y20248224D01*
X49487337Y20112670D01*
X49505875Y20044136D01*
X49484419Y19976460D01*
X49429779Y19931127D01*
X49359305Y19922530D01*
X49304395Y19945967D01*
X49257127Y19981351D01*
X49023861Y20108724D01*
X48774840Y20201604D01*
X48515139Y20258098D01*
X48250047Y20277057D01*
X47984954Y20258098D01*
X47725253Y20201604D01*
X47476232Y20108724D01*
X47242971Y19981354D01*
X47128160Y19895409D01*
X47128159Y19895408D01*
X47854969Y19168598D01*
X47732616Y19094980D01*
X47598389Y18967834D01*
X47494634Y18814806D01*
X47493411Y18811738D01*
X46768950Y19536199D01*
X46768949Y19536198D01*
X46683004Y19421387D01*
X46555634Y19188126D01*
X46462754Y18939105D01*
X46406260Y18679404D01*
X46387301Y18414311D01*
X5344500Y18414311D01*
X5344500Y19513141D01*
X9732500Y19513141D01*
X9732501Y19513134D01*
X9735414Y19488010D01*
X9735416Y19488006D01*
X9780793Y19385235D01*
X9860232Y19305796D01*
X9860234Y19305795D01*
X9860235Y19305794D01*
X9963009Y19260415D01*
X9988135Y19257500D01*
X11601864Y19257501D01*
X11626991Y19260415D01*
X11729765Y19305794D01*
X11809206Y19385235D01*
X11854585Y19488009D01*
X11857500Y19513135D01*
X11857500Y19513141D01*
X12272500Y19513141D01*
X12272501Y19513134D01*
X12275414Y19488010D01*
X12275416Y19488006D01*
X12320793Y19385235D01*
X12400232Y19305796D01*
X12400234Y19305795D01*
X12400235Y19305794D01*
X12503009Y19260415D01*
X12528135Y19257500D01*
X14141864Y19257501D01*
X14166991Y19260415D01*
X14269765Y19305794D01*
X14349206Y19385235D01*
X14394585Y19488009D01*
X14397500Y19513135D01*
X14397499Y21126864D01*
X14394585Y21151991D01*
X14349206Y21254765D01*
X14349206Y21254766D01*
X14269767Y21334205D01*
X14269765Y21334206D01*
X14166989Y21379586D01*
X14166990Y21379586D01*
X14141868Y21382500D01*
X12528140Y21382500D01*
X12528133Y21382499D01*
X12503009Y21379586D01*
X12503005Y21379584D01*
X12400234Y21334207D01*
X12320795Y21254768D01*
X12320794Y21254766D01*
X12275414Y21151991D01*
X12272500Y21126871D01*
X12272500Y19513141D01*
X11857500Y19513141D01*
X11857499Y21126864D01*
X11854585Y21151991D01*
X11809206Y21254765D01*
X11809206Y21254766D01*
X11729767Y21334205D01*
X11729765Y21334206D01*
X11626989Y21379586D01*
X11626990Y21379586D01*
X11601868Y21382500D01*
X9988140Y21382500D01*
X9988133Y21382499D01*
X9963009Y21379586D01*
X9963005Y21379584D01*
X9860234Y21334207D01*
X9780795Y21254768D01*
X9780794Y21254766D01*
X9735414Y21151991D01*
X9732500Y21126871D01*
X9732500Y19513141D01*
X5344500Y19513141D01*
X5344500Y22053141D01*
X9732500Y22053141D01*
X9732501Y22053134D01*
X9735414Y22028010D01*
X9735416Y22028006D01*
X9780793Y21925235D01*
X9860232Y21845796D01*
X9860234Y21845795D01*
X9860235Y21845794D01*
X9963009Y21800415D01*
X9988135Y21797500D01*
X11601864Y21797501D01*
X11626991Y21800415D01*
X11729765Y21845794D01*
X11809206Y21925235D01*
X11854585Y22028009D01*
X11857500Y22053135D01*
X11857500Y22053141D01*
X12272500Y22053141D01*
X12272501Y22053134D01*
X12275414Y22028010D01*
X12275416Y22028006D01*
X12320793Y21925235D01*
X12400232Y21845796D01*
X12400234Y21845795D01*
X12400235Y21845794D01*
X12503009Y21800415D01*
X12528135Y21797500D01*
X14141864Y21797501D01*
X14166991Y21800415D01*
X14264142Y21843311D01*
X17770047Y21843311D01*
X26660047Y21843311D01*
X26660047Y29209311D01*
X46387301Y29209311D01*
X46406260Y28944219D01*
X46462754Y28684518D01*
X46555634Y28435497D01*
X46683005Y28202235D01*
X46768950Y28087426D01*
X46768950Y28087425D01*
X47496853Y28815329D01*
X47542363Y28729489D01*
X47662056Y28588576D01*
X47809242Y28476688D01*
X47855316Y28455372D01*
X47128159Y27728216D01*
X47128160Y27728215D01*
X47242966Y27642272D01*
X47476232Y27514899D01*
X47725253Y27422019D01*
X47984954Y27365525D01*
X48250047Y27346566D01*
X48515139Y27365525D01*
X48774840Y27422019D01*
X49023861Y27514899D01*
X49257123Y27642269D01*
X49371932Y27728216D01*
X49371933Y27728216D01*
X48645124Y28455025D01*
X48767478Y28528642D01*
X48901705Y28655788D01*
X49005460Y28808816D01*
X49006682Y28811885D01*
X49731142Y28087425D01*
X49731142Y28087426D01*
X49817089Y28202235D01*
X49944459Y28435497D01*
X50037339Y28684518D01*
X50093833Y28944219D01*
X50112792Y29209311D01*
X50093833Y29474404D01*
X50037339Y29734105D01*
X49944459Y29983126D01*
X49817086Y30216392D01*
X49781702Y30263660D01*
X49756891Y30330180D01*
X49771982Y30399554D01*
X49822184Y30449756D01*
X49891558Y30464848D01*
X49948402Y30446603D01*
X50083958Y30363534D01*
X50309435Y30270139D01*
X50546745Y30213165D01*
X50790047Y30194017D01*
X51033349Y30213165D01*
X51270659Y30270139D01*
X51496136Y30363534D01*
X51631689Y30446602D01*
X51700221Y30465140D01*
X51767898Y30443684D01*
X51813231Y30389045D01*
X51821828Y30318571D01*
X51798392Y30263661D01*
X51763006Y30216391D01*
X51635634Y29983126D01*
X51542754Y29734105D01*
X51486260Y29474404D01*
X51467301Y29209311D01*
X51486260Y28944219D01*
X51542754Y28684518D01*
X51635634Y28435497D01*
X51763005Y28202235D01*
X51848950Y28087426D01*
X51848950Y28087425D01*
X52576853Y28815329D01*
X52622363Y28729489D01*
X52742056Y28588576D01*
X52889242Y28476688D01*
X52935316Y28455372D01*
X52208159Y27728216D01*
X52208160Y27728215D01*
X52322966Y27642272D01*
X52556232Y27514899D01*
X52805253Y27422019D01*
X53064954Y27365525D01*
X53330047Y27346566D01*
X53595139Y27365525D01*
X53854840Y27422019D01*
X54103861Y27514899D01*
X54337123Y27642269D01*
X54451932Y27728216D01*
X54451933Y27728216D01*
X53725124Y28455025D01*
X53847478Y28528642D01*
X53981705Y28655788D01*
X54085460Y28808816D01*
X54086682Y28811885D01*
X54811142Y28087425D01*
X54811142Y28087426D01*
X54897089Y28202235D01*
X55024459Y28435497D01*
X55117339Y28684518D01*
X55173833Y28944219D01*
X55192792Y29209311D01*
X55173833Y29474404D01*
X55117339Y29734105D01*
X55024459Y29983126D01*
X54897086Y30216392D01*
X54811143Y30331198D01*
X54811142Y30331199D01*
X54083239Y29603296D01*
X54037731Y29689133D01*
X53918038Y29830046D01*
X53770852Y29941934D01*
X53724776Y29963252D01*
X54451933Y30690408D01*
X54337123Y30776353D01*
X54103861Y30903724D01*
X53854840Y30996604D01*
X53595139Y31053098D01*
X53330047Y31072057D01*
X53064954Y31053098D01*
X52805253Y30996604D01*
X52556232Y30903724D01*
X52322967Y30776352D01*
X52275697Y30740966D01*
X52209176Y30716156D01*
X52139803Y30731248D01*
X52089601Y30781451D01*
X52074510Y30850825D01*
X52092757Y30907670D01*
X52112211Y30939415D01*
X52175824Y31043222D01*
X52269219Y31268699D01*
X52326193Y31506009D01*
X52345341Y31749311D01*
X52326193Y31992613D01*
X52269219Y32229923D01*
X52175824Y32455400D01*
X52092755Y32590956D01*
X52074218Y32659486D01*
X52095674Y32727163D01*
X52150313Y32772496D01*
X52220788Y32781093D01*
X52275698Y32757656D01*
X52322966Y32722272D01*
X52556232Y32594899D01*
X52805253Y32502019D01*
X53064954Y32445525D01*
X53330047Y32426566D01*
X53595139Y32445525D01*
X53854840Y32502019D01*
X54103861Y32594899D01*
X54337123Y32722269D01*
X54451932Y32808216D01*
X54451933Y32808216D01*
X53725124Y33535025D01*
X53847478Y33608642D01*
X53981705Y33735788D01*
X54085460Y33888816D01*
X54086682Y33891885D01*
X54811142Y33167425D01*
X54811142Y33167426D01*
X54897089Y33282235D01*
X55024459Y33515497D01*
X55117339Y33764518D01*
X55173833Y34024219D01*
X55192792Y34289311D01*
X55173833Y34554404D01*
X55117339Y34814105D01*
X55024459Y35063126D01*
X54897086Y35296392D01*
X54811143Y35411198D01*
X54811142Y35411199D01*
X54083239Y34683296D01*
X54037731Y34769133D01*
X53918038Y34910046D01*
X53770852Y35021934D01*
X53724776Y35043251D01*
X54451933Y35770408D01*
X54337123Y35856353D01*
X54103861Y35983724D01*
X53854840Y36076604D01*
X53595139Y36133098D01*
X53330047Y36152057D01*
X53064954Y36133098D01*
X52805253Y36076604D01*
X52556232Y35983724D01*
X52322971Y35856354D01*
X52208160Y35770409D01*
X52208159Y35770408D01*
X52934969Y35043598D01*
X52812616Y34969980D01*
X52678389Y34842834D01*
X52574634Y34689806D01*
X52573411Y34686738D01*
X51848950Y35411199D01*
X51848949Y35411198D01*
X51763004Y35296387D01*
X51635634Y35063126D01*
X51542754Y34814105D01*
X51486260Y34554404D01*
X51467301Y34289311D01*
X51486260Y34024219D01*
X51542754Y33764518D01*
X51635634Y33515497D01*
X51763007Y33282231D01*
X51798391Y33234963D01*
X51823202Y33168443D01*
X51808111Y33099069D01*
X51757908Y33048866D01*
X51688534Y33033775D01*
X51631689Y33052021D01*
X51496136Y33135088D01*
X51270659Y33228483D01*
X51270657Y33228484D01*
X51270656Y33228484D01*
X51142947Y33259145D01*
X51033349Y33285457D01*
X51033350Y33285457D01*
X50790047Y33304605D01*
X50546744Y33285457D01*
X50309437Y33228484D01*
X50083955Y33135087D01*
X49948404Y33052021D01*
X49879871Y33033483D01*
X49812194Y33054940D01*
X49766861Y33109579D01*
X49758265Y33180053D01*
X49781703Y33234964D01*
X49817086Y33282230D01*
X49944459Y33515497D01*
X50037339Y33764518D01*
X50093833Y34024219D01*
X50112792Y34289311D01*
X50093833Y34554404D01*
X50037339Y34814105D01*
X49944459Y35063126D01*
X49817086Y35296392D01*
X49731143Y35411198D01*
X49003239Y34683294D01*
X48957731Y34769133D01*
X48838038Y34910046D01*
X48690852Y35021934D01*
X48644776Y35043251D01*
X49371933Y35770408D01*
X49257123Y35856353D01*
X49023861Y35983724D01*
X48774840Y36076604D01*
X48515139Y36133098D01*
X48250047Y36152057D01*
X47984954Y36133098D01*
X47725253Y36076604D01*
X47476232Y35983724D01*
X47242971Y35856354D01*
X47128160Y35770409D01*
X47128159Y35770408D01*
X47854969Y35043598D01*
X47732616Y34969980D01*
X47598389Y34842834D01*
X47494634Y34689806D01*
X47493411Y34686738D01*
X46768950Y35411199D01*
X46768949Y35411198D01*
X46683004Y35296387D01*
X46555634Y35063126D01*
X46462754Y34814105D01*
X46406260Y34554404D01*
X46387301Y34289311D01*
X46406260Y34024219D01*
X46462754Y33764518D01*
X46555634Y33515497D01*
X46683005Y33282235D01*
X46768950Y33167426D01*
X46768950Y33167425D01*
X47496853Y33895329D01*
X47542363Y33809489D01*
X47662056Y33668576D01*
X47809242Y33556688D01*
X47855317Y33535372D01*
X47128160Y32808215D01*
X47242966Y32722272D01*
X47476232Y32594899D01*
X47725253Y32502019D01*
X47984954Y32445525D01*
X48250047Y32426566D01*
X48515139Y32445525D01*
X48774840Y32502019D01*
X49023861Y32594899D01*
X49257128Y32722272D01*
X49304394Y32757655D01*
X49370914Y32782467D01*
X49440288Y32767376D01*
X49490491Y32717175D01*
X49505583Y32647801D01*
X49487337Y32590954D01*
X49404271Y32455403D01*
X49310874Y32229921D01*
X49253901Y31992614D01*
X49234753Y31749311D01*
X49253901Y31506009D01*
X49302039Y31305500D01*
X49310875Y31268699D01*
X49404270Y31043222D01*
X49467883Y30939415D01*
X49487337Y30907670D01*
X49505875Y30839136D01*
X49484419Y30771460D01*
X49429779Y30726127D01*
X49359305Y30717530D01*
X49304395Y30740967D01*
X49257127Y30776351D01*
X49023861Y30903724D01*
X48774840Y30996604D01*
X48515139Y31053098D01*
X48250047Y31072057D01*
X47984954Y31053098D01*
X47725253Y30996604D01*
X47476232Y30903724D01*
X47242971Y30776354D01*
X47128160Y30690409D01*
X47128159Y30690408D01*
X47854969Y29963598D01*
X47732616Y29889980D01*
X47598389Y29762834D01*
X47494634Y29609806D01*
X47493411Y29606738D01*
X46768950Y30331199D01*
X46768949Y30331198D01*
X46683004Y30216387D01*
X46555634Y29983126D01*
X46462754Y29734105D01*
X46406260Y29474404D01*
X46387301Y29209311D01*
X26660047Y29209311D01*
X26660047Y29971311D01*
X18278047Y29717311D01*
X17770047Y21843311D01*
X14264142Y21843311D01*
X14269765Y21845794D01*
X14349206Y21925235D01*
X14394585Y22028009D01*
X14397500Y22053135D01*
X14397499Y23666864D01*
X14394585Y23691991D01*
X14378872Y23727578D01*
X14349206Y23794766D01*
X14269767Y23874205D01*
X14269765Y23874206D01*
X14166989Y23919586D01*
X14166990Y23919586D01*
X14141868Y23922500D01*
X12528140Y23922500D01*
X12528133Y23922499D01*
X12503009Y23919586D01*
X12503005Y23919584D01*
X12400234Y23874207D01*
X12320795Y23794768D01*
X12320794Y23794766D01*
X12275414Y23691991D01*
X12272500Y23666871D01*
X12272500Y22053141D01*
X11857500Y22053141D01*
X11857499Y23666864D01*
X11854585Y23691991D01*
X11838872Y23727578D01*
X11809206Y23794766D01*
X11729767Y23874205D01*
X11729765Y23874206D01*
X11626989Y23919586D01*
X11626990Y23919586D01*
X11601868Y23922500D01*
X9988140Y23922500D01*
X9988133Y23922499D01*
X9963009Y23919586D01*
X9963005Y23919584D01*
X9860234Y23874207D01*
X9780795Y23794768D01*
X9780794Y23794766D01*
X9735414Y23691991D01*
X9732500Y23666871D01*
X9732500Y22053141D01*
X5344500Y22053141D01*
X5344500Y26067141D01*
X8884189Y26067141D01*
X8884190Y26067134D01*
X8887103Y26042010D01*
X8887105Y26042006D01*
X8932482Y25939235D01*
X9011921Y25859796D01*
X9011923Y25859795D01*
X9011924Y25859794D01*
X9114698Y25814415D01*
X9139824Y25811500D01*
X10753553Y25811501D01*
X10778680Y25814415D01*
X10881454Y25859794D01*
X10960895Y25939235D01*
X11006274Y26042009D01*
X11009189Y26067135D01*
X11009189Y26067141D01*
X11424189Y26067141D01*
X11424190Y26067134D01*
X11427103Y26042010D01*
X11427105Y26042006D01*
X11472482Y25939235D01*
X11551921Y25859796D01*
X11551923Y25859795D01*
X11551924Y25859794D01*
X11654698Y25814415D01*
X11679824Y25811500D01*
X13293553Y25811501D01*
X13318680Y25814415D01*
X13421454Y25859794D01*
X13500895Y25939235D01*
X13546274Y26042009D01*
X13549189Y26067135D01*
X13549188Y27680864D01*
X13546274Y27705991D01*
X13500895Y27808765D01*
X13500895Y27808766D01*
X13421456Y27888205D01*
X13421454Y27888206D01*
X13318678Y27933586D01*
X13318679Y27933586D01*
X13293557Y27936500D01*
X11679829Y27936500D01*
X11679822Y27936499D01*
X11654698Y27933586D01*
X11654694Y27933584D01*
X11551923Y27888207D01*
X11472484Y27808768D01*
X11472483Y27808766D01*
X11427103Y27705991D01*
X11424189Y27680871D01*
X11424189Y26067141D01*
X11009189Y26067141D01*
X11009188Y27680864D01*
X11006274Y27705991D01*
X10960895Y27808765D01*
X10960895Y27808766D01*
X10881456Y27888205D01*
X10881454Y27888206D01*
X10778678Y27933586D01*
X10778679Y27933586D01*
X10753557Y27936500D01*
X9139829Y27936500D01*
X9139822Y27936499D01*
X9114698Y27933586D01*
X9114694Y27933584D01*
X9011923Y27888207D01*
X8932484Y27808768D01*
X8932483Y27808766D01*
X8887103Y27705991D01*
X8884189Y27680871D01*
X8884189Y26067141D01*
X5344500Y26067141D01*
X5344500Y30939403D01*
X7620000Y30939403D01*
X7626505Y30878907D01*
X7677555Y30742036D01*
X7677555Y30742035D01*
X7765095Y30625096D01*
X7882034Y30537556D01*
X8018906Y30486506D01*
X8079402Y30480001D01*
X8079415Y30480000D01*
X8636000Y30480000D01*
X8636000Y31385195D01*
X8694960Y31344996D01*
X8823002Y31305500D01*
X8923312Y31305500D01*
X9022499Y31320450D01*
X9143224Y31378588D01*
X9144000Y31379309D01*
X9144000Y30480000D01*
X9354370Y30480000D01*
X9422491Y30459998D01*
X9468984Y30406342D01*
X9479088Y30336068D01*
X9469634Y30303106D01*
X9444414Y30245990D01*
X9441500Y30220871D01*
X9441500Y28607141D01*
X9441501Y28607134D01*
X9444414Y28582010D01*
X9444416Y28582006D01*
X9489793Y28479235D01*
X9569232Y28399796D01*
X9569234Y28399795D01*
X9569235Y28399794D01*
X9672009Y28354415D01*
X9697135Y28351500D01*
X11310864Y28351501D01*
X11335991Y28354415D01*
X11438765Y28399794D01*
X11518206Y28479235D01*
X11563585Y28582009D01*
X11566500Y28607135D01*
X11566499Y30220864D01*
X11563585Y30245991D01*
X11552923Y30270139D01*
X11538367Y30303106D01*
X11529149Y30373502D01*
X11559454Y30437706D01*
X11619659Y30475334D01*
X11653631Y30480000D01*
X11894370Y30480000D01*
X11962491Y30459998D01*
X12008984Y30406342D01*
X12019088Y30336068D01*
X12009634Y30303106D01*
X11984414Y30245990D01*
X11981500Y30220871D01*
X11981500Y28607141D01*
X11981501Y28607134D01*
X11984414Y28582010D01*
X11984416Y28582006D01*
X12029793Y28479235D01*
X12109232Y28399796D01*
X12109234Y28399795D01*
X12109235Y28399794D01*
X12212009Y28354415D01*
X12237135Y28351500D01*
X13850864Y28351501D01*
X13875991Y28354415D01*
X13978765Y28399794D01*
X14058206Y28479235D01*
X14103585Y28582009D01*
X14106500Y28607135D01*
X14106499Y30220864D01*
X14103585Y30245991D01*
X14065962Y30331199D01*
X14058206Y30348766D01*
X13978767Y30428205D01*
X13978765Y30428206D01*
X13875989Y30473586D01*
X13875990Y30473586D01*
X13850870Y30476500D01*
X12695382Y30476500D01*
X12627261Y30496502D01*
X12580768Y30550158D01*
X12570664Y30620432D01*
X12594515Y30678010D01*
X12642443Y30742034D01*
X12642444Y30742036D01*
X12693494Y30878907D01*
X12699999Y30939403D01*
X12700000Y30939415D01*
X12700000Y31496000D01*
X11796618Y31496000D01*
X11848447Y31585772D01*
X11878264Y31716407D01*
X11868251Y31850028D01*
X11819297Y31974760D01*
X11795979Y32004000D01*
X12700000Y32004000D01*
X12700000Y32560586D01*
X12699999Y32560598D01*
X12693494Y32621094D01*
X12642444Y32757965D01*
X12642444Y32757966D01*
X12554904Y32874905D01*
X12437965Y32962445D01*
X12301093Y33013495D01*
X12240597Y33020000D01*
X11684000Y33020000D01*
X11684000Y32114806D01*
X11625040Y32155004D01*
X11496998Y32194500D01*
X11396688Y32194500D01*
X11297501Y32179550D01*
X11176776Y32121412D01*
X11176000Y32120692D01*
X11176000Y33020000D01*
X10619402Y33020000D01*
X10558906Y33013495D01*
X10422035Y32962445D01*
X10422034Y32962445D01*
X10305097Y32874906D01*
X10260868Y32815823D01*
X10204031Y32773277D01*
X10133216Y32768213D01*
X10070904Y32802238D01*
X10059132Y32815823D01*
X10014902Y32874906D01*
X9897965Y32962445D01*
X9761093Y33013495D01*
X9700597Y33020000D01*
X9144000Y33020000D01*
X9144000Y32114806D01*
X9085040Y32155004D01*
X8956998Y32194500D01*
X8856688Y32194500D01*
X8757501Y32179550D01*
X8636776Y32121412D01*
X8636000Y32120692D01*
X8636000Y33020000D01*
X8079402Y33020000D01*
X8018906Y33013495D01*
X7882035Y32962445D01*
X7882034Y32962445D01*
X7765095Y32874905D01*
X7677555Y32757966D01*
X7677555Y32757965D01*
X7626505Y32621094D01*
X7620000Y32560598D01*
X7620000Y32004000D01*
X8523382Y32004000D01*
X8471553Y31914228D01*
X8441736Y31783593D01*
X8451749Y31649972D01*
X8500703Y31525240D01*
X8524021Y31496000D01*
X7620000Y31496000D01*
X7620000Y30939403D01*
X5344500Y30939403D01*
X5344500Y33941141D01*
X7827500Y33941141D01*
X7827501Y33941134D01*
X7830414Y33916010D01*
X7830416Y33916006D01*
X7875793Y33813235D01*
X7955232Y33733796D01*
X7955234Y33733795D01*
X7955235Y33733794D01*
X8058009Y33688415D01*
X8083135Y33685500D01*
X9696864Y33685501D01*
X9721991Y33688415D01*
X9824765Y33733794D01*
X9904206Y33813235D01*
X9949585Y33916009D01*
X9952500Y33941135D01*
X9952500Y33941141D01*
X10367500Y33941141D01*
X10367501Y33941134D01*
X10370414Y33916010D01*
X10370416Y33916006D01*
X10415793Y33813235D01*
X10495232Y33733796D01*
X10495234Y33733795D01*
X10495235Y33733794D01*
X10598009Y33688415D01*
X10623135Y33685500D01*
X12236864Y33685501D01*
X12261991Y33688415D01*
X12364765Y33733794D01*
X12444206Y33813235D01*
X12489585Y33916009D01*
X12492500Y33941135D01*
X12492499Y35554864D01*
X12489585Y35579991D01*
X12444206Y35682765D01*
X12444206Y35682766D01*
X12364767Y35762205D01*
X12364765Y35762206D01*
X12261989Y35807586D01*
X12261990Y35807586D01*
X12236868Y35810500D01*
X10623140Y35810500D01*
X10623133Y35810499D01*
X10598009Y35807586D01*
X10598005Y35807584D01*
X10495234Y35762207D01*
X10415795Y35682768D01*
X10415794Y35682766D01*
X10370414Y35579991D01*
X10367500Y35554871D01*
X10367500Y33941141D01*
X9952500Y33941141D01*
X9952499Y35554864D01*
X9949585Y35579991D01*
X9904206Y35682765D01*
X9904206Y35682766D01*
X9824767Y35762205D01*
X9824765Y35762206D01*
X9721989Y35807586D01*
X9721990Y35807586D01*
X9696868Y35810500D01*
X8083140Y35810500D01*
X8083133Y35810499D01*
X8058009Y35807586D01*
X8058005Y35807584D01*
X7955234Y35762207D01*
X7875795Y35682768D01*
X7875794Y35682766D01*
X7830414Y35579991D01*
X7827500Y35554871D01*
X7827500Y33941141D01*
X5344500Y33941141D01*
X5344500Y39275141D01*
X21125500Y39275141D01*
X21125501Y39275134D01*
X21128414Y39250010D01*
X21128416Y39250006D01*
X21173793Y39147235D01*
X21253232Y39067796D01*
X21253234Y39067795D01*
X21253235Y39067794D01*
X21356009Y39022415D01*
X21381135Y39019500D01*
X22994864Y39019501D01*
X23019991Y39022415D01*
X23122765Y39067794D01*
X23202206Y39147235D01*
X23247585Y39250009D01*
X23250500Y39275135D01*
X23250500Y39275141D01*
X23665500Y39275141D01*
X23665501Y39275134D01*
X23668414Y39250010D01*
X23668416Y39250006D01*
X23713793Y39147235D01*
X23793232Y39067796D01*
X23793234Y39067795D01*
X23793235Y39067794D01*
X23896009Y39022415D01*
X23921135Y39019500D01*
X25534864Y39019501D01*
X25559991Y39022415D01*
X25662765Y39067794D01*
X25742206Y39147235D01*
X25787585Y39250009D01*
X25790500Y39275135D01*
X25790500Y39828000D01*
X41728052Y39828000D01*
X41747818Y39576852D01*
X41759666Y39527502D01*
X41806627Y39331891D01*
X41830137Y39275134D01*
X41903035Y39099141D01*
X41922243Y39067796D01*
X42034666Y38884340D01*
X42034667Y38884338D01*
X42198276Y38692776D01*
X42389838Y38529167D01*
X42389842Y38529164D01*
X42604642Y38397534D01*
X42837390Y38301127D01*
X43082353Y38242317D01*
X43270619Y38227500D01*
X43270621Y38227500D01*
X43396381Y38227500D01*
X43396383Y38227500D01*
X43584649Y38242317D01*
X43829612Y38301127D01*
X44062360Y38397534D01*
X44277160Y38529164D01*
X44468725Y38692776D01*
X44632337Y38884341D01*
X44763967Y39099141D01*
X44860374Y39331889D01*
X44919184Y39576852D01*
X44938950Y39828000D01*
X44919184Y40079148D01*
X44860374Y40324111D01*
X44763967Y40556859D01*
X44632337Y40771659D01*
X44632334Y40771663D01*
X44468725Y40963225D01*
X44277163Y41126834D01*
X44277161Y41126835D01*
X44277160Y41126836D01*
X44062360Y41258466D01*
X43829612Y41354873D01*
X43829610Y41354874D01*
X43654706Y41396864D01*
X43584649Y41413683D01*
X43396383Y41428500D01*
X43270619Y41428500D01*
X43082353Y41413683D01*
X42837391Y41354874D01*
X42604643Y41258467D01*
X42389840Y41126835D01*
X42389838Y41126834D01*
X42198276Y40963225D01*
X42034667Y40771663D01*
X42034666Y40771661D01*
X41903034Y40556858D01*
X41806627Y40324110D01*
X41747818Y40079148D01*
X41728052Y39828000D01*
X25790500Y39828000D01*
X25790499Y40888864D01*
X25787585Y40913991D01*
X25742206Y41016765D01*
X25742206Y41016766D01*
X25662767Y41096205D01*
X25662765Y41096206D01*
X25559989Y41141586D01*
X25559990Y41141586D01*
X25534868Y41144500D01*
X23921140Y41144500D01*
X23921133Y41144499D01*
X23896009Y41141586D01*
X23896005Y41141584D01*
X23793234Y41096207D01*
X23713795Y41016768D01*
X23713794Y41016766D01*
X23668414Y40913991D01*
X23665500Y40888871D01*
X23665500Y39275141D01*
X23250500Y39275141D01*
X23250499Y40888864D01*
X23247585Y40913991D01*
X23202206Y41016765D01*
X23202206Y41016766D01*
X23122767Y41096205D01*
X23122765Y41096206D01*
X23019989Y41141586D01*
X23019990Y41141586D01*
X22994868Y41144500D01*
X21381140Y41144500D01*
X21381133Y41144499D01*
X21356009Y41141586D01*
X21356005Y41141584D01*
X21253234Y41096207D01*
X21173795Y41016768D01*
X21173794Y41016766D01*
X21128414Y40913991D01*
X21125500Y40888871D01*
X21125500Y39275141D01*
X5344500Y39275141D01*
X5344500Y39783141D01*
X13505500Y39783141D01*
X13505501Y39783134D01*
X13508414Y39758010D01*
X13508416Y39758006D01*
X13553793Y39655235D01*
X13633232Y39575796D01*
X13633234Y39575795D01*
X13633235Y39575794D01*
X13736009Y39530415D01*
X13761135Y39527500D01*
X15374864Y39527501D01*
X15399991Y39530415D01*
X15502765Y39575794D01*
X15582206Y39655235D01*
X15627585Y39758009D01*
X15630500Y39783135D01*
X15630500Y39832452D01*
X16045500Y39832452D01*
X16045501Y39832445D01*
X16048414Y39807321D01*
X16048416Y39807317D01*
X16093793Y39704546D01*
X16173232Y39625107D01*
X16173234Y39625106D01*
X16173235Y39625105D01*
X16276009Y39579726D01*
X16301135Y39576811D01*
X17914864Y39576812D01*
X17939991Y39579726D01*
X18042765Y39625105D01*
X18122206Y39704546D01*
X18167585Y39807320D01*
X18170500Y39832446D01*
X18170500Y39832452D01*
X18585500Y39832452D01*
X18585501Y39832445D01*
X18588414Y39807321D01*
X18588416Y39807317D01*
X18633793Y39704546D01*
X18713232Y39625107D01*
X18713234Y39625106D01*
X18713235Y39625105D01*
X18816009Y39579726D01*
X18841135Y39576811D01*
X20454864Y39576812D01*
X20479991Y39579726D01*
X20582765Y39625105D01*
X20662206Y39704546D01*
X20707585Y39807320D01*
X20710500Y39832446D01*
X20710499Y41446175D01*
X20707585Y41471302D01*
X20683979Y41524765D01*
X20662206Y41574077D01*
X20582767Y41653516D01*
X20582765Y41653517D01*
X20479989Y41698897D01*
X20479990Y41698897D01*
X20454868Y41701811D01*
X18841140Y41701811D01*
X18841133Y41701810D01*
X18816009Y41698897D01*
X18816005Y41698895D01*
X18713234Y41653518D01*
X18633795Y41574079D01*
X18633794Y41574077D01*
X18588414Y41471302D01*
X18585500Y41446182D01*
X18585500Y39832452D01*
X18170500Y39832452D01*
X18170499Y41446175D01*
X18167585Y41471302D01*
X18143979Y41524765D01*
X18122206Y41574077D01*
X18042767Y41653516D01*
X18042765Y41653517D01*
X17939989Y41698897D01*
X17939990Y41698897D01*
X17914868Y41701811D01*
X16301140Y41701811D01*
X16301133Y41701810D01*
X16276009Y41698897D01*
X16276005Y41698895D01*
X16173234Y41653518D01*
X16093795Y41574079D01*
X16093794Y41574077D01*
X16048414Y41471302D01*
X16045500Y41446182D01*
X16045500Y39832452D01*
X15630500Y39832452D01*
X15630499Y41396864D01*
X15627585Y41421991D01*
X15582206Y41524765D01*
X15582206Y41524766D01*
X15502767Y41604205D01*
X15502765Y41604206D01*
X15399989Y41649586D01*
X15399990Y41649586D01*
X15374868Y41652500D01*
X13761140Y41652500D01*
X13761133Y41652499D01*
X13736009Y41649586D01*
X13736005Y41649584D01*
X13633234Y41604207D01*
X13553795Y41524768D01*
X13553794Y41524766D01*
X13508414Y41421991D01*
X13505500Y41396871D01*
X13505500Y39783141D01*
X5344500Y39783141D01*
X5344500Y41815141D01*
X21125500Y41815141D01*
X21125501Y41815134D01*
X21128414Y41790010D01*
X21128416Y41790006D01*
X21173793Y41687235D01*
X21253232Y41607796D01*
X21253234Y41607795D01*
X21253235Y41607794D01*
X21356009Y41562415D01*
X21381135Y41559500D01*
X22994864Y41559501D01*
X23019991Y41562415D01*
X23122765Y41607794D01*
X23202206Y41687235D01*
X23247585Y41790009D01*
X23250500Y41815135D01*
X23250500Y41815141D01*
X23665500Y41815141D01*
X23665501Y41815134D01*
X23668414Y41790010D01*
X23668416Y41790006D01*
X23713793Y41687235D01*
X23793232Y41607796D01*
X23793234Y41607795D01*
X23793235Y41607794D01*
X23896009Y41562415D01*
X23921135Y41559500D01*
X25534864Y41559501D01*
X25559991Y41562415D01*
X25662765Y41607794D01*
X25742206Y41687235D01*
X25787585Y41790009D01*
X25790500Y41815135D01*
X25790499Y43384000D01*
X41728051Y43384000D01*
X41747817Y43132853D01*
X41806626Y42887891D01*
X41903033Y42655143D01*
X42034665Y42440340D01*
X42034666Y42440338D01*
X42198275Y42248776D01*
X42389837Y42085167D01*
X42389841Y42085164D01*
X42604641Y41953534D01*
X42837389Y41857127D01*
X43082352Y41798317D01*
X43270618Y41783500D01*
X43270620Y41783500D01*
X43396380Y41783500D01*
X43396382Y41783500D01*
X43584648Y41798317D01*
X43829611Y41857127D01*
X44062359Y41953534D01*
X44277159Y42085164D01*
X44468724Y42248776D01*
X44632336Y42440341D01*
X44763966Y42655141D01*
X44860373Y42887889D01*
X44919183Y43132852D01*
X44938949Y43384000D01*
X44919183Y43635148D01*
X44860373Y43880111D01*
X44763966Y44112859D01*
X44632336Y44327659D01*
X44632333Y44327663D01*
X44468724Y44519225D01*
X44277162Y44682834D01*
X44277160Y44682835D01*
X44277159Y44682836D01*
X44062359Y44814466D01*
X43829611Y44910873D01*
X43829609Y44910874D01*
X43662036Y44951104D01*
X43584648Y44969683D01*
X43396382Y44984500D01*
X43270618Y44984500D01*
X43082352Y44969683D01*
X42837390Y44910874D01*
X42604642Y44814467D01*
X42389839Y44682835D01*
X42389837Y44682834D01*
X42198275Y44519225D01*
X42034666Y44327663D01*
X42034665Y44327661D01*
X41903033Y44112858D01*
X41806626Y43880110D01*
X41747817Y43635148D01*
X41728051Y43384000D01*
X25790499Y43384000D01*
X25790499Y43428864D01*
X25787585Y43453991D01*
X25742206Y43556765D01*
X25742206Y43556766D01*
X25662767Y43636205D01*
X25662765Y43636206D01*
X25559989Y43681586D01*
X25559990Y43681586D01*
X25534868Y43684500D01*
X23921140Y43684500D01*
X23921133Y43684499D01*
X23896009Y43681586D01*
X23896005Y43681584D01*
X23793234Y43636207D01*
X23713795Y43556768D01*
X23713794Y43556766D01*
X23668414Y43453991D01*
X23665500Y43428871D01*
X23665500Y41815141D01*
X23250500Y41815141D01*
X23250499Y43428864D01*
X23247585Y43453991D01*
X23202206Y43556765D01*
X23202206Y43556766D01*
X23122767Y43636205D01*
X23122765Y43636206D01*
X23019989Y43681586D01*
X23019990Y43681586D01*
X22994868Y43684500D01*
X21381140Y43684500D01*
X21381133Y43684499D01*
X21356009Y43681586D01*
X21356005Y43681584D01*
X21253234Y43636207D01*
X21173795Y43556768D01*
X21173794Y43556766D01*
X21128414Y43453991D01*
X21125500Y43428871D01*
X21125500Y41815141D01*
X5344500Y41815141D01*
X5344500Y42323141D01*
X13505500Y42323141D01*
X13505501Y42323134D01*
X13508414Y42298010D01*
X13508416Y42298006D01*
X13553793Y42195235D01*
X13633232Y42115796D01*
X13633234Y42115795D01*
X13633235Y42115794D01*
X13736009Y42070415D01*
X13761135Y42067500D01*
X15374864Y42067501D01*
X15399991Y42070415D01*
X15502765Y42115794D01*
X15582206Y42195235D01*
X15627585Y42298009D01*
X15630500Y42323135D01*
X15630500Y42372452D01*
X16045500Y42372452D01*
X16045501Y42372445D01*
X16048414Y42347321D01*
X16048416Y42347317D01*
X16093793Y42244546D01*
X16173232Y42165107D01*
X16173234Y42165106D01*
X16173235Y42165105D01*
X16276009Y42119726D01*
X16301135Y42116811D01*
X17914864Y42116812D01*
X17939991Y42119726D01*
X18042765Y42165105D01*
X18122206Y42244546D01*
X18167585Y42347320D01*
X18170500Y42372446D01*
X18170500Y42372452D01*
X18585500Y42372452D01*
X18585501Y42372445D01*
X18588414Y42347321D01*
X18588416Y42347317D01*
X18633793Y42244546D01*
X18713232Y42165107D01*
X18713234Y42165106D01*
X18713235Y42165105D01*
X18816009Y42119726D01*
X18841135Y42116811D01*
X20454864Y42116812D01*
X20479991Y42119726D01*
X20582765Y42165105D01*
X20662206Y42244546D01*
X20707585Y42347320D01*
X20710500Y42372446D01*
X20710499Y43986175D01*
X20707585Y44011302D01*
X20683979Y44064765D01*
X20662206Y44114077D01*
X20582767Y44193516D01*
X20582765Y44193517D01*
X20479989Y44238897D01*
X20479990Y44238897D01*
X20454868Y44241811D01*
X18841140Y44241811D01*
X18841133Y44241810D01*
X18816009Y44238897D01*
X18816005Y44238895D01*
X18713234Y44193518D01*
X18633795Y44114079D01*
X18633794Y44114077D01*
X18588414Y44011302D01*
X18585500Y43986182D01*
X18585500Y42372452D01*
X18170500Y42372452D01*
X18170499Y43986175D01*
X18167585Y44011302D01*
X18143979Y44064765D01*
X18122206Y44114077D01*
X18042767Y44193516D01*
X18042765Y44193517D01*
X17939989Y44238897D01*
X17939990Y44238897D01*
X17914868Y44241811D01*
X16301140Y44241811D01*
X16301133Y44241810D01*
X16276009Y44238897D01*
X16276005Y44238895D01*
X16173234Y44193518D01*
X16093795Y44114079D01*
X16093794Y44114077D01*
X16048414Y44011302D01*
X16045500Y43986182D01*
X16045500Y42372452D01*
X15630500Y42372452D01*
X15630499Y43936864D01*
X15627585Y43961991D01*
X15582206Y44064765D01*
X15582206Y44064766D01*
X15502767Y44144205D01*
X15502765Y44144206D01*
X15399989Y44189586D01*
X15399990Y44189586D01*
X15374868Y44192500D01*
X13761140Y44192500D01*
X13761133Y44192499D01*
X13736009Y44189586D01*
X13736005Y44189584D01*
X13633234Y44144207D01*
X13553795Y44064768D01*
X13553794Y44064766D01*
X13508414Y43961991D01*
X13505500Y43936871D01*
X13505500Y42323141D01*
X5344500Y42323141D01*
X5344500Y45329500D01*
X5364502Y45397621D01*
X5418158Y45444114D01*
X5470500Y45455500D01*
X55489500Y45455500D01*
X55557621Y45435498D01*
G37*
%TD.AperFunction*%
%TD*%
M02*
