%TF.GenerationSoftware,KiCad,Pcbnew,7.0.11+1*%
%TF.CreationDate,2024-07-12T23:58:32+00:00*%
%TF.ProjectId,ISM03,49534d30-332e-46b6-9963-61645f706362,rev?*%
%TF.SameCoordinates,Original*%
%TF.FileFunction,Paste,Bot*%
%TF.FilePolarity,Positive*%
%FSLAX46Y46*%
G04 Gerber Fmt 4.6, Leading zero omitted, Abs format (unit mm)*
G04 Created by KiCad (PCBNEW 7.0.11+1) date 2024-07-12 23:58:32*
%MOMM*%
%LPD*%
G01*
G04 APERTURE LIST*
G04 Aperture macros list*
%AMRoundRect*
0 Rectangle with rounded corners*
0 $1 Rounding radius*
0 $2 $3 $4 $5 $6 $7 $8 $9 X,Y pos of 4 corners*
0 Add a 4 corners polygon primitive as box body*
4,1,4,$2,$3,$4,$5,$6,$7,$8,$9,$2,$3,0*
0 Add four circle primitives for the rounded corners*
1,1,$1+$1,$2,$3*
1,1,$1+$1,$4,$5*
1,1,$1+$1,$6,$7*
1,1,$1+$1,$8,$9*
0 Add four rect primitives between the rounded corners*
20,1,$1+$1,$2,$3,$4,$5,0*
20,1,$1+$1,$4,$5,$6,$7,0*
20,1,$1+$1,$6,$7,$8,$9,0*
20,1,$1+$1,$8,$9,$2,$3,0*%
G04 Aperture macros list end*
%ADD10RoundRect,0.250000X0.450000X-0.262500X0.450000X0.262500X-0.450000X0.262500X-0.450000X-0.262500X0*%
%ADD11R,2.032000X1.016000*%
%ADD12R,2.032000X3.657600*%
%ADD13R,0.900000X0.800000*%
%ADD14R,1.500000X0.950000*%
%ADD15RoundRect,0.250000X-0.450000X0.262500X-0.450000X-0.262500X0.450000X-0.262500X0.450000X0.262500X0*%
%ADD16R,0.889000X1.397000*%
%ADD17R,1.397000X0.889000*%
%ADD18R,1.700000X1.300000*%
%ADD19RoundRect,0.218750X0.381250X-0.218750X0.381250X0.218750X-0.381250X0.218750X-0.381250X-0.218750X0*%
%ADD20RoundRect,0.250000X0.262500X0.450000X-0.262500X0.450000X-0.262500X-0.450000X0.262500X-0.450000X0*%
%ADD21R,1.800000X1.200000*%
%ADD22RoundRect,0.250000X-0.315000X0.315000X-0.315000X-0.315000X0.315000X-0.315000X0.315000X0.315000X0*%
%ADD23RoundRect,0.062500X-0.062500X0.362500X-0.062500X-0.362500X0.062500X-0.362500X0.062500X0.362500X0*%
%ADD24RoundRect,0.062500X-0.362500X0.062500X-0.362500X-0.062500X0.362500X-0.062500X0.362500X0.062500X0*%
%ADD25RoundRect,0.218750X0.218750X0.381250X-0.218750X0.381250X-0.218750X-0.381250X0.218750X-0.381250X0*%
%ADD26RoundRect,0.218750X-0.381250X0.218750X-0.381250X-0.218750X0.381250X-0.218750X0.381250X0.218750X0*%
%ADD27RoundRect,0.250000X0.475000X-0.250000X0.475000X0.250000X-0.475000X0.250000X-0.475000X-0.250000X0*%
G04 APERTURE END LIST*
D10*
%TO.C,R15*%
X149887047Y-111480189D03*
X149887047Y-109655189D03*
%TD*%
%TO.C,R17*%
X152427047Y-111480189D03*
X152427047Y-109655189D03*
%TD*%
D11*
%TO.C,U1*%
X131345047Y-105233689D03*
X131345047Y-102947689D03*
X131345047Y-100661689D03*
D12*
X137949047Y-102947689D03*
%TD*%
D13*
%TO.C,Q1*%
X169588047Y-110628689D03*
X169588047Y-108728689D03*
X171588047Y-109678689D03*
%TD*%
D14*
%TO.C,D3*%
X167540047Y-116239689D03*
X167540047Y-120389689D03*
%TD*%
%TO.C,D2*%
X171096047Y-116239689D03*
X171096047Y-120389689D03*
%TD*%
D15*
%TO.C,R19*%
X155094047Y-89271689D03*
X155094047Y-91096689D03*
%TD*%
D13*
%TO.C,Q2*%
X165778047Y-110628689D03*
X165778047Y-108728689D03*
X167778047Y-109678689D03*
%TD*%
D16*
%TO.C,C1*%
X133123047Y-97740689D03*
X135028047Y-97740689D03*
%TD*%
D17*
%TO.C,C3*%
X140362047Y-102058689D03*
X140362047Y-103963689D03*
%TD*%
%TO.C,C5*%
X128297047Y-101995189D03*
X128297047Y-103900189D03*
%TD*%
%TO.C,C15*%
X155856047Y-105805189D03*
X155856047Y-107710189D03*
%TD*%
D18*
%TO.C,D1*%
X130837047Y-97077689D03*
X130837047Y-93577689D03*
%TD*%
D19*
%TO.C,L8*%
X160047047Y-103375189D03*
X160047047Y-101250189D03*
%TD*%
D20*
%TO.C,R1*%
X162928047Y-106300000D03*
X161103047Y-106300000D03*
%TD*%
D10*
%TO.C,R9*%
X137187047Y-111480189D03*
X137187047Y-109655189D03*
%TD*%
%TO.C,R10*%
X134647047Y-111480189D03*
X134647047Y-109655189D03*
%TD*%
%TO.C,R13*%
X157507047Y-111480189D03*
X157507047Y-109655189D03*
%TD*%
%TO.C,R16*%
X154967047Y-111480189D03*
X154967047Y-109655189D03*
%TD*%
%TO.C,R22*%
X171096047Y-114401189D03*
X171096047Y-112576189D03*
%TD*%
%TO.C,R23*%
X167540047Y-114337689D03*
X167540047Y-112512689D03*
%TD*%
D17*
%TO.C,C20*%
X153824047Y-105741689D03*
X153824047Y-107646689D03*
%TD*%
%TO.C,C17*%
X157888047Y-105805189D03*
X157888047Y-107710189D03*
%TD*%
D16*
%TO.C,C2*%
X133123047Y-95708689D03*
X135028047Y-95708689D03*
%TD*%
D15*
%TO.C,R18*%
X151157047Y-89335189D03*
X151157047Y-91160189D03*
%TD*%
%TO.C,R11*%
X134012047Y-89335189D03*
X134012047Y-91160189D03*
%TD*%
%TO.C,R12*%
X136552047Y-89335189D03*
X136552047Y-91160189D03*
%TD*%
D21*
%TO.C,Y2*%
X153157047Y-95822689D03*
X149157047Y-95822689D03*
X149157047Y-93422689D03*
X153157047Y-93422689D03*
%TD*%
D22*
%TO.C,U2*%
X150537047Y-101027689D03*
X149237047Y-101027689D03*
X150537047Y-102327689D03*
X149237047Y-102327689D03*
D23*
X148887047Y-99752689D03*
X149387047Y-99752689D03*
X149887047Y-99752689D03*
X150387047Y-99752689D03*
X150887047Y-99752689D03*
D24*
X151812047Y-100677689D03*
X151812047Y-101177689D03*
X151812047Y-101677689D03*
X151812047Y-102177689D03*
X151812047Y-102677689D03*
D23*
X150887047Y-103602689D03*
X150387047Y-103602689D03*
X149887047Y-103602689D03*
X149387047Y-103602689D03*
X148887047Y-103602689D03*
D24*
X147962047Y-102677689D03*
X147962047Y-102177689D03*
X147962047Y-101677689D03*
X147962047Y-101177689D03*
X147962047Y-100677689D03*
%TD*%
D25*
%TO.C,L7*%
X161871547Y-99544089D03*
X159746547Y-99544089D03*
%TD*%
%TO.C,L6*%
X164919547Y-95962689D03*
X162794547Y-95962689D03*
%TD*%
%TO.C,L9*%
X161109547Y-93422689D03*
X158984547Y-93422689D03*
%TD*%
%TO.C,L5*%
X165681547Y-99544089D03*
X163556547Y-99544089D03*
%TD*%
D26*
%TO.C,L10*%
X156872047Y-93630189D03*
X156872047Y-95755189D03*
%TD*%
D17*
%TO.C,C7*%
X167159047Y-101766589D03*
X167159047Y-103671589D03*
%TD*%
%TO.C,C9*%
X162079047Y-101766589D03*
X162079047Y-103671589D03*
%TD*%
%TO.C,C13*%
X159158047Y-91263689D03*
X159158047Y-89358689D03*
%TD*%
%TO.C,C10*%
X163222047Y-93740189D03*
X163222047Y-91835189D03*
%TD*%
D27*
%TO.C,C11*%
X157507047Y-101357689D03*
X157507047Y-99457689D03*
%TD*%
D17*
%TO.C,C4*%
X170969047Y-101766589D03*
X170969047Y-103671589D03*
%TD*%
D16*
%TO.C,C12*%
X159094547Y-95962689D03*
X160999547Y-95962689D03*
%TD*%
D17*
%TO.C,C6*%
X169572047Y-93740189D03*
X169572047Y-91835189D03*
%TD*%
%TO.C,C8*%
X166397047Y-93740189D03*
X166397047Y-91835189D03*
%TD*%
D25*
%TO.C,L3*%
X169491547Y-99544089D03*
X167366547Y-99544089D03*
%TD*%
%TO.C,L4*%
X168729547Y-95962689D03*
X166604547Y-95962689D03*
%TD*%
D20*
%TO.C,L1*%
X173024547Y-99518689D03*
X171199547Y-99518689D03*
%TD*%
%TO.C,L2*%
X172389547Y-95962689D03*
X170564547Y-95962689D03*
%TD*%
D17*
%TO.C,C19*%
X160047047Y-108980189D03*
X160047047Y-110885189D03*
%TD*%
M02*
