M48
; DRILL file {KiCad 8.0.3+1} date 2024-07-23T21:20:40+0000
; FORMAT={3:3/ absolute / metric / suppress leading zeros}
; #@! TF.CreationDate,2024-07-23T21:20:40+00:00
; #@! TF.GenerationSoftware,Kicad,Pcbnew,8.0.3+1
; #@! TF.FileFunction,Plated,1,2,PTH
FMAT,2
METRIC,TZ
; #@! TA.AperFunction,Plated,PTH,ComponentDrill
T1C0.200
; #@! TA.AperFunction,Plated,PTH,ViaDrill
T2C0.400
; #@! TA.AperFunction,Plated,PTH,ComponentDrill
T3C0.889
; #@! TA.AperFunction,Plated,PTH,ComponentDrill
T4C1.500
; #@! TA.AperFunction,Plated,PTH,ComponentDrill
T5C1.700
; #@! TA.AperFunction,Plated,PTH,ComponentDrill
T6C3.000
%
G90
G05
T1
X21165Y27162
X21165Y25062
X23265Y27162
X23265Y25062
T2
X6502Y35331
X6502Y32896
X6502Y30461
X6502Y28026
X6502Y25590
X6502Y23155
X6502Y20720
X6502Y18285
X6502Y15850
X14935Y15113
X17272Y19075
X17399Y20930
X17602Y15088
X18009Y17678
X18847Y18821
X18948Y29134
X20193Y29515
X20193Y28143
X20345Y18821
X20447Y33528
X21336Y32156
X22512Y29405
X24282Y23952
X26035Y30886
X26187Y32944
X26314Y17450
X27457Y17577
X27483Y16358
X28143Y33680
X28296Y39141
X28372Y11951
X28575Y35331
X28778Y26949
X29794Y32233
X30378Y9677
X30480Y10719
X30505Y23774
X30582Y35458
X30632Y13411
X30658Y14656
X30785Y18745
X30988Y38684
X31090Y31267
X31394Y9754
X31699Y10744
X31826Y23825
X31902Y14605
X31953Y13437
X32004Y20117
X32055Y37160
X32207Y17170
X32258Y31750
X33122Y13360
X33122Y10795
X33147Y14656
X33401Y23038
X33477Y28575
X33731Y32461
X33858Y34519
X33909Y26822
X34787Y16749
X35077Y28626
X35433Y26822
X35484Y40411
X35560Y32461
X36576Y23724
X36805Y28829
X36830Y26949
X36982Y32055
X37008Y14148
X37059Y9601
X38075Y35865
X38100Y29388
X38245Y17185
X38354Y23876
X38405Y32055
X38735Y27051
X39624Y29413
X39649Y32106
X39649Y22987
X40259Y26670
X40513Y17043
X40665Y21844
X41123Y19177
X41148Y32055
X41173Y29337
X41478Y20777
X42164Y18186
X42697Y24562
X42799Y32055
X42850Y29337
X42926Y27000
X43002Y35763
X43282Y17221
X43688Y23444
X44196Y29286
X44298Y32055
X44526Y18339
X44552Y14935
X44602Y22403
X44704Y27432
X45288Y41529
X45491Y24613
X45745Y29388
X46076Y18491
X46101Y32055
X46279Y26391
X46279Y14884
X46980Y37083
X50571Y25476
T3
X8890Y34290
X8890Y31750
X8890Y29210
X8890Y26670
X8890Y24130
X8890Y21590
X8890Y19050
X8890Y16510
X11430Y34290
X11430Y31750
X11430Y29210
X11430Y26670
X11430Y24130
X11430Y21590
X11430Y19050
X11430Y16510
X16510Y42037
X16510Y39497
X19050Y42037
X19050Y39497
X20574Y14986
X20574Y12446
X20574Y9906
X21590Y42037
X21590Y39497
X23114Y14986
X23114Y12446
X23114Y9906
X24130Y42037
X24130Y39497
X26670Y42038
X26670Y39498
X39421Y14376
X39421Y11836
X39421Y9296
X41961Y14376
X41961Y11836
X41961Y9296
T4
X50800Y30760
X50800Y20040
T5
X48260Y33300
X48260Y28220
X48260Y22580
X48260Y17500
X53340Y33300
X53340Y28220
X53340Y22580
X53340Y17500
T6
X10160Y40640
X10160Y10160
X50800Y40640
X50800Y10160
M30
