%TF.GenerationSoftware,KiCad,Pcbnew,8.0.3+1*%
%TF.CreationDate,2024-07-15T18:43:40+00:00*%
%TF.ProjectId,ISM03,49534d30-332e-46b6-9963-61645f706362,rev?*%
%TF.SameCoordinates,Original*%
%TF.FileFunction,Soldermask,Bot*%
%TF.FilePolarity,Negative*%
%FSLAX46Y46*%
G04 Gerber Fmt 4.6, Leading zero omitted, Abs format (unit mm)*
G04 Created by KiCad (PCBNEW 8.0.3+1) date 2024-07-15 18:43:40*
%MOMM*%
%LPD*%
G01*
G04 APERTURE LIST*
G04 Aperture macros list*
%AMRoundRect*
0 Rectangle with rounded corners*
0 $1 Rounding radius*
0 $2 $3 $4 $5 $6 $7 $8 $9 X,Y pos of 4 corners*
0 Add a 4 corners polygon primitive as box body*
4,1,4,$2,$3,$4,$5,$6,$7,$8,$9,$2,$3,0*
0 Add four circle primitives for the rounded corners*
1,1,$1+$1,$2,$3*
1,1,$1+$1,$4,$5*
1,1,$1+$1,$6,$7*
1,1,$1+$1,$8,$9*
0 Add four rect primitives between the rounded corners*
20,1,$1+$1,$2,$3,$4,$5,0*
20,1,$1+$1,$4,$5,$6,$7,0*
20,1,$1+$1,$6,$7,$8,$9,0*
20,1,$1+$1,$8,$9,$2,$3,0*%
%AMFreePoly0*
4,1,27,0.405000,0.748540,0.473851,0.737775,0.540468,0.697134,0.586462,0.634092,0.604830,0.558249,0.592775,0.481149,0.592776,0.481149,0.558927,0.388685,0.517726,0.196112,0.503933,-0.000335,0.517820,-0.196775,0.559113,-0.389328,0.593006,-0.481776,0.593005,-0.481776,0.605097,-0.558870,0.586765,-0.634722,0.540802,-0.697786,0.474204,-0.738459,0.405000,-0.749313,0.405000,-0.750000,
0.400623,-0.750000,0.397110,-0.750551,0.394830,-0.750000,-0.645000,-0.750000,-0.645000,0.750000,0.405000,0.750000,0.405000,0.748540,0.405000,0.748540,$1*%
G04 Aperture macros list end*
%ADD10R,1.524000X1.524000*%
%ADD11C,6.000000*%
%ADD12C,2.500000*%
%ADD13C,2.700000*%
%ADD14RoundRect,0.250000X-0.262500X-0.450000X0.262500X-0.450000X0.262500X0.450000X-0.262500X0.450000X0*%
%ADD15RoundRect,0.375000X0.625000X0.375000X-0.625000X0.375000X-0.625000X-0.375000X0.625000X-0.375000X0*%
%ADD16RoundRect,0.500000X0.500000X1.400000X-0.500000X1.400000X-0.500000X-1.400000X0.500000X-1.400000X0*%
%ADD17RoundRect,0.150000X-0.587500X-0.150000X0.587500X-0.150000X0.587500X0.150000X-0.587500X0.150000X0*%
%ADD18FreePoly0,0.000000*%
%ADD19FreePoly0,180.000000*%
%ADD20RoundRect,0.250000X-0.450000X0.262500X-0.450000X-0.262500X0.450000X-0.262500X0.450000X0.262500X0*%
%ADD21RoundRect,0.250000X-0.475000X0.250000X-0.475000X-0.250000X0.475000X-0.250000X0.475000X0.250000X0*%
%ADD22RoundRect,0.250000X0.475000X-0.250000X0.475000X0.250000X-0.475000X0.250000X-0.475000X-0.250000X0*%
%ADD23RoundRect,0.250000X-0.250000X-0.475000X0.250000X-0.475000X0.250000X0.475000X-0.250000X0.475000X0*%
%ADD24RoundRect,0.250000X-0.650000X1.000000X-0.650000X-1.000000X0.650000X-1.000000X0.650000X1.000000X0*%
%ADD25RoundRect,0.218750X0.381250X-0.218750X0.381250X0.218750X-0.381250X0.218750X-0.381250X-0.218750X0*%
%ADD26RoundRect,0.250000X0.450000X-0.262500X0.450000X0.262500X-0.450000X0.262500X-0.450000X-0.262500X0*%
%ADD27RoundRect,0.250000X0.262500X0.450000X-0.262500X0.450000X-0.262500X-0.450000X0.262500X-0.450000X0*%
%ADD28R,1.800000X1.200000*%
%ADD29RoundRect,0.062500X0.362500X0.062500X-0.362500X0.062500X-0.362500X-0.062500X0.362500X-0.062500X0*%
%ADD30RoundRect,0.062500X0.062500X0.362500X-0.062500X0.362500X-0.062500X-0.362500X0.062500X-0.362500X0*%
%ADD31R,2.600000X2.600000*%
%ADD32RoundRect,0.218750X0.218750X0.381250X-0.218750X0.381250X-0.218750X-0.381250X0.218750X-0.381250X0*%
%ADD33RoundRect,0.218750X-0.424264X-0.114905X-0.114905X-0.424264X0.424264X0.114905X0.114905X0.424264X0*%
%ADD34RoundRect,0.250000X0.159099X-0.512652X0.512652X-0.159099X-0.159099X0.512652X-0.512652X0.159099X0*%
%ADD35RoundRect,0.250000X-0.159099X0.512652X-0.512652X0.159099X0.159099X-0.512652X0.512652X-0.159099X0*%
%ADD36RoundRect,0.218750X0.424264X0.114905X0.114905X0.424264X-0.424264X-0.114905X-0.114905X-0.424264X0*%
%ADD37RoundRect,0.218750X-0.218750X-0.381250X0.218750X-0.381250X0.218750X0.381250X-0.218750X0.381250X0*%
G04 APERTURE END LIST*
D10*
%TO.C,J17*%
X11430001Y16510000D03*
X8889999Y16510000D03*
%TD*%
%TO.C,J1*%
X20574000Y14986000D03*
X23114000Y14986000D03*
X20574000Y12446000D03*
X23114000Y12446000D03*
X20574000Y9906000D03*
X23114000Y9906000D03*
%TD*%
%TO.C,J4*%
X39420800Y14376400D03*
X41960800Y14376400D03*
X39420800Y11836400D03*
X41960800Y11836400D03*
X39420800Y9296400D03*
X41960800Y9296400D03*
%TD*%
%TO.C,J13*%
X11430000Y26670000D03*
X8890000Y26670000D03*
%TD*%
%TO.C,J14*%
X11430000Y31750000D03*
X8890000Y31750000D03*
%TD*%
%TO.C,J19*%
X11430001Y24130000D03*
X8889999Y24130000D03*
%TD*%
%TO.C,J20*%
X11430001Y19050000D03*
X8889999Y19050000D03*
%TD*%
%TO.C,J21*%
X11430001Y21590000D03*
X8889999Y21590000D03*
%TD*%
D11*
%TO.C,M1*%
X10160000Y40640000D03*
%TD*%
%TO.C,M2*%
X50800000Y40640000D03*
%TD*%
%TO.C,M3*%
X10160000Y10160000D03*
%TD*%
%TO.C,M4*%
X50800000Y10160000D03*
%TD*%
D12*
%TO.C,J3*%
X50790047Y31749311D03*
D13*
X48250047Y34289311D03*
X48250047Y29209311D03*
X53330047Y34289311D03*
X53330047Y29209311D03*
%TD*%
D10*
%TO.C,J22*%
X19050000Y39497000D03*
X19050000Y42037000D03*
%TD*%
%TO.C,J16*%
X11430000Y34290000D03*
X8890000Y34290000D03*
%TD*%
%TO.C,J15*%
X11430000Y29210000D03*
X8890000Y29210000D03*
%TD*%
%TO.C,J23*%
X21590000Y39497000D03*
X21590000Y42037000D03*
%TD*%
D12*
%TO.C,J2*%
X50790047Y20954311D03*
D13*
X48250047Y23494311D03*
X48250047Y18414311D03*
X53330047Y23494311D03*
X53330047Y18414311D03*
%TD*%
D10*
%TO.C,J6*%
X16510000Y39496999D03*
X16510000Y42037001D03*
%TD*%
%TO.C,J7*%
X24130000Y39496999D03*
X24130000Y42037001D03*
%TD*%
%TO.C,J5*%
X26670000Y39497689D03*
X26670000Y42037689D03*
%TD*%
D14*
%TO.C,R15*%
X13819500Y24130000D03*
X15644500Y24130000D03*
%TD*%
%TO.C,R17*%
X13819500Y21590000D03*
X15644500Y21590000D03*
%TD*%
D15*
%TO.C,U1*%
X34900000Y14251299D03*
X34899999Y11951299D03*
D16*
X28600001Y11951299D03*
D15*
X34900000Y9651299D03*
%TD*%
D17*
%TO.C,Q1*%
X33760000Y41976000D03*
X33760000Y43876000D03*
X35635001Y42926000D03*
%TD*%
D13*
%TO.C,D3*%
X43357800Y39293800D03*
D18*
X41452800Y39293800D03*
D19*
X45262800Y39293800D03*
%TD*%
D13*
%TO.C,D2*%
X43333500Y43384000D03*
D18*
X41428500Y43384000D03*
D19*
X45238500Y43384000D03*
%TD*%
D20*
%TO.C,R19*%
X21590000Y37234500D03*
X21590000Y35409500D03*
%TD*%
D17*
%TO.C,Q2*%
X33760000Y38420000D03*
X33760000Y40320000D03*
X35635001Y39370000D03*
%TD*%
D21*
%TO.C,C1*%
X25933400Y10347999D03*
X25933400Y8448001D03*
%TD*%
D22*
%TO.C,C3*%
X25958800Y13807401D03*
X25958800Y15707399D03*
%TD*%
D23*
%TO.C,C5*%
X28920401Y17043400D03*
X30820399Y17043400D03*
%TD*%
D21*
%TO.C,C15*%
X20726400Y21955800D03*
X20726400Y20055800D03*
%TD*%
D24*
%TO.C,D1*%
X17018000Y12414001D03*
X17018000Y8413999D03*
%TD*%
D25*
%TO.C,L8*%
X26187400Y23448500D03*
X26187400Y25573500D03*
%TD*%
D26*
%TO.C,R1*%
X28524200Y21109300D03*
X28524200Y22934300D03*
%TD*%
D14*
%TO.C,R9*%
X13819500Y26670000D03*
X15644500Y26670000D03*
%TD*%
%TO.C,R10*%
X13819500Y31750000D03*
X15644500Y31750000D03*
%TD*%
D26*
%TO.C,R13*%
X22733000Y20093300D03*
X22733000Y21918300D03*
%TD*%
D14*
%TO.C,R16*%
X13819500Y19050000D03*
X15644500Y19050000D03*
%TD*%
D27*
%TO.C,R22*%
X39420000Y43384000D03*
X37595000Y43384000D03*
%TD*%
%TO.C,R23*%
X39545900Y39319200D03*
X37720900Y39319200D03*
%TD*%
D21*
%TO.C,C20*%
X24765000Y19390400D03*
X24765000Y17490400D03*
%TD*%
D23*
%TO.C,C17*%
X24526201Y21336000D03*
X26426199Y21336000D03*
%TD*%
%TO.C,C2*%
X34914801Y6883400D03*
X36814799Y6883400D03*
%TD*%
D20*
%TO.C,R18*%
X19050000Y37234500D03*
X19050000Y35409500D03*
%TD*%
D14*
%TO.C,R11*%
X13819500Y29210000D03*
X15644500Y29210000D03*
%TD*%
%TO.C,R12*%
X13819500Y34290000D03*
X15644500Y34290000D03*
%TD*%
D28*
%TO.C,Y2*%
X22675600Y30931000D03*
X18675600Y30931000D03*
X18675600Y33331000D03*
X22675600Y33331000D03*
%TD*%
D29*
%TO.C,U2*%
X24140047Y27112000D03*
X24140047Y26612000D03*
X24140047Y26112000D03*
X24140047Y25612000D03*
X24140047Y25112000D03*
D30*
X23215047Y24187000D03*
X22715047Y24187000D03*
X22215047Y24187000D03*
X21715047Y24187000D03*
X21215047Y24187000D03*
D29*
X20290047Y25112000D03*
X20290047Y25612000D03*
X20290047Y26112000D03*
X20290047Y26612000D03*
X20290047Y27112000D03*
D30*
X21215047Y28037000D03*
X21715047Y28037000D03*
X22215047Y28037000D03*
X22715047Y28037000D03*
X23215047Y28037000D03*
D31*
X22215047Y26112000D03*
%TD*%
D32*
%TO.C,L7*%
X33269700Y25501600D03*
X31144700Y25501600D03*
%TD*%
%TO.C,L9*%
X32101300Y30327600D03*
X29976300Y30327600D03*
%TD*%
%TO.C,L5*%
X38806900Y25450800D03*
X36681900Y25450800D03*
%TD*%
D33*
%TO.C,L10*%
X26223499Y29199301D03*
X27726101Y27696699D03*
%TD*%
D34*
%TO.C,C7*%
X40374649Y24423449D03*
X41718151Y25766951D03*
%TD*%
D21*
%TO.C,C9*%
X34975800Y25435600D03*
X34975800Y23535600D03*
%TD*%
D22*
%TO.C,C13*%
X28194000Y30266601D03*
X28194000Y32166599D03*
%TD*%
D23*
%TO.C,C11*%
X27777401Y25501600D03*
X29677399Y25501600D03*
%TD*%
D35*
%TO.C,C4*%
X44385151Y20610751D03*
X43041649Y19267249D03*
%TD*%
D23*
%TO.C,C12*%
X30165000Y28397200D03*
X32065000Y28397200D03*
%TD*%
%TO.C,C6*%
X33898801Y30251400D03*
X35798799Y30251400D03*
%TD*%
D36*
%TO.C,L3*%
X43118501Y21778499D03*
X41615899Y23281101D03*
%TD*%
D27*
%TO.C,L1*%
X47978700Y20955000D03*
X46153700Y20955000D03*
%TD*%
D21*
%TO.C,C19*%
X18694400Y21955800D03*
X18694400Y20055800D03*
%TD*%
D20*
%TO.C,R4*%
X26670000Y37285300D03*
X26670000Y35460300D03*
%TD*%
D14*
%TO.C,R2*%
X29313500Y43180000D03*
X31138500Y43180000D03*
%TD*%
D27*
%TO.C,R5*%
X30503500Y37160200D03*
X28678500Y37160200D03*
%TD*%
D14*
%TO.C,R3*%
X29313500Y40386000D03*
X31138500Y40386000D03*
%TD*%
D37*
%TO.C,L11*%
X26725100Y19304000D03*
X28850100Y19304000D03*
%TD*%
M02*
