%TF.GenerationSoftware,KiCad,Pcbnew,7.0.11+1*%
%TF.CreationDate,2024-07-12T23:58:32+00:00*%
%TF.ProjectId,ISM03,49534d30-332e-46b6-9963-61645f706362,rev?*%
%TF.SameCoordinates,Original*%
%TF.FileFunction,Soldermask,Top*%
%TF.FilePolarity,Negative*%
%FSLAX46Y46*%
G04 Gerber Fmt 4.6, Leading zero omitted, Abs format (unit mm)*
G04 Created by KiCad (PCBNEW 7.0.11+1) date 2024-07-12 23:58:32*
%MOMM*%
%LPD*%
G01*
G04 APERTURE LIST*
G04 Aperture macros list*
%AMRoundRect*
0 Rectangle with rounded corners*
0 $1 Rounding radius*
0 $2 $3 $4 $5 $6 $7 $8 $9 X,Y pos of 4 corners*
0 Add a 4 corners polygon primitive as box body*
4,1,4,$2,$3,$4,$5,$6,$7,$8,$9,$2,$3,0*
0 Add four circle primitives for the rounded corners*
1,1,$1+$1,$2,$3*
1,1,$1+$1,$4,$5*
1,1,$1+$1,$6,$7*
1,1,$1+$1,$8,$9*
0 Add four rect primitives between the rounded corners*
20,1,$1+$1,$2,$3,$4,$5,0*
20,1,$1+$1,$4,$5,$6,$7,0*
20,1,$1+$1,$6,$7,$8,$9,0*
20,1,$1+$1,$8,$9,$2,$3,0*%
G04 Aperture macros list end*
%ADD10R,1.524000X1.524000*%
%ADD11C,6.000000*%
%ADD12C,2.500000*%
%ADD13C,2.700000*%
%ADD14RoundRect,0.218750X-0.218750X-0.381250X0.218750X-0.381250X0.218750X0.381250X-0.218750X0.381250X0*%
G04 APERTURE END LIST*
D10*
%TO.C,J17*%
X157507047Y-116282689D03*
X157507047Y-113742689D03*
%TD*%
%TO.C,J24*%
X163730047Y-118568689D03*
X163730047Y-116028689D03*
%TD*%
%TO.C,J25*%
X161190047Y-118568689D03*
X161190047Y-116028689D03*
%TD*%
%TO.C,J1*%
X125122047Y-93422689D03*
X127662047Y-93422689D03*
X125122047Y-95962689D03*
X127662047Y-95962689D03*
X125122047Y-98502689D03*
X127662047Y-98502689D03*
%TD*%
%TO.C,J4*%
X125122047Y-106503689D03*
X127662047Y-106503689D03*
X125122047Y-109043689D03*
X127662047Y-109043689D03*
X125122047Y-111583689D03*
X127662047Y-111583689D03*
%TD*%
%TO.C,J13*%
X137187047Y-113742689D03*
X137187047Y-116282689D03*
%TD*%
%TO.C,J14*%
X134647047Y-113742689D03*
X134647047Y-116282689D03*
%TD*%
%TO.C,J19*%
X149887047Y-116282689D03*
X149887047Y-113742689D03*
%TD*%
%TO.C,J20*%
X154967047Y-116282689D03*
X154967047Y-113742689D03*
%TD*%
%TO.C,J21*%
X152427047Y-116282689D03*
X152427047Y-113742689D03*
%TD*%
D11*
%TO.C,M1*%
X127662047Y-87072689D03*
%TD*%
%TO.C,M2*%
X178462047Y-117552689D03*
%TD*%
%TO.C,M3*%
X127662047Y-117552689D03*
%TD*%
%TO.C,M4*%
X178462047Y-87072689D03*
%TD*%
D12*
%TO.C,J3*%
X178462047Y-95962689D03*
D13*
X175922047Y-93422689D03*
X175922047Y-98502689D03*
X181002047Y-93422689D03*
X181002047Y-98502689D03*
%TD*%
D10*
%TO.C,J26*%
X144807047Y-116282689D03*
X144807047Y-113742689D03*
%TD*%
%TO.C,J22*%
X151792047Y-87072689D03*
X151792047Y-84532689D03*
%TD*%
%TO.C,J16*%
X136552047Y-87072689D03*
X136552047Y-84532689D03*
%TD*%
%TO.C,J15*%
X134012047Y-87072689D03*
X134012047Y-84532689D03*
%TD*%
%TO.C,J23*%
X154332047Y-87072689D03*
X154332047Y-84532689D03*
%TD*%
D12*
%TO.C,J2*%
X178462047Y-106757689D03*
D13*
X175922047Y-104217689D03*
X175922047Y-109297689D03*
X181002047Y-104217689D03*
X181002047Y-109297689D03*
%TD*%
D14*
%TO.C,L11*%
X159698400Y-127635000D03*
X161823400Y-127635000D03*
%TD*%
D13*
%TO.C,D3*%
X167540047Y-118314689D03*
%TD*%
%TO.C,D2*%
X171096047Y-118314689D03*
%TD*%
M02*
