%TF.GenerationSoftware,KiCad,Pcbnew,8.0.3+1*%
%TF.CreationDate,2024-07-24T16:14:15+00:00*%
%TF.ProjectId,ISM03,49534d30-332e-46b6-9963-61645f706362,rev?*%
%TF.SameCoordinates,Original*%
%TF.FileFunction,Paste,Bot*%
%TF.FilePolarity,Positive*%
%FSLAX46Y46*%
G04 Gerber Fmt 4.6, Leading zero omitted, Abs format (unit mm)*
G04 Created by KiCad (PCBNEW 8.0.3+1) date 2024-07-24 16:14:15*
%MOMM*%
%LPD*%
G01*
G04 APERTURE LIST*
G04 Aperture macros list*
%AMRoundRect*
0 Rectangle with rounded corners*
0 $1 Rounding radius*
0 $2 $3 $4 $5 $6 $7 $8 $9 X,Y pos of 4 corners*
0 Add a 4 corners polygon primitive as box body*
4,1,4,$2,$3,$4,$5,$6,$7,$8,$9,$2,$3,0*
0 Add four circle primitives for the rounded corners*
1,1,$1+$1,$2,$3*
1,1,$1+$1,$4,$5*
1,1,$1+$1,$6,$7*
1,1,$1+$1,$8,$9*
0 Add four rect primitives between the rounded corners*
20,1,$1+$1,$2,$3,$4,$5,0*
20,1,$1+$1,$4,$5,$6,$7,0*
20,1,$1+$1,$6,$7,$8,$9,0*
20,1,$1+$1,$8,$9,$2,$3,0*%
%AMFreePoly0*
4,1,27,0.405000,0.748540,0.473851,0.737775,0.540468,0.697134,0.586462,0.634092,0.604830,0.558249,0.592775,0.481149,0.592776,0.481149,0.558927,0.388685,0.517726,0.196112,0.503933,-0.000335,0.517820,-0.196775,0.559113,-0.389328,0.593006,-0.481776,0.593005,-0.481776,0.605097,-0.558870,0.586765,-0.634722,0.540802,-0.697786,0.474204,-0.738459,0.405000,-0.749313,0.405000,-0.750000,
0.400623,-0.750000,0.397110,-0.750551,0.394830,-0.750000,-0.645000,-0.750000,-0.645000,0.750000,0.405000,0.750000,0.405000,0.748540,0.405000,0.748540,$1*%
G04 Aperture macros list end*
%ADD10RoundRect,0.250000X-0.262500X-0.450000X0.262500X-0.450000X0.262500X0.450000X-0.262500X0.450000X0*%
%ADD11RoundRect,0.375000X0.625000X0.375000X-0.625000X0.375000X-0.625000X-0.375000X0.625000X-0.375000X0*%
%ADD12RoundRect,0.500000X0.500000X1.400000X-0.500000X1.400000X-0.500000X-1.400000X0.500000X-1.400000X0*%
%ADD13RoundRect,0.150000X-0.587500X-0.150000X0.587500X-0.150000X0.587500X0.150000X-0.587500X0.150000X0*%
%ADD14FreePoly0,0.000000*%
%ADD15FreePoly0,180.000000*%
%ADD16RoundRect,0.250000X-0.450000X0.262500X-0.450000X-0.262500X0.450000X-0.262500X0.450000X0.262500X0*%
%ADD17RoundRect,0.250000X-0.475000X0.250000X-0.475000X-0.250000X0.475000X-0.250000X0.475000X0.250000X0*%
%ADD18RoundRect,0.250000X0.475000X-0.250000X0.475000X0.250000X-0.475000X0.250000X-0.475000X-0.250000X0*%
%ADD19RoundRect,0.250000X-0.250000X-0.475000X0.250000X-0.475000X0.250000X0.475000X-0.250000X0.475000X0*%
%ADD20RoundRect,0.250000X-0.650000X1.000000X-0.650000X-1.000000X0.650000X-1.000000X0.650000X1.000000X0*%
%ADD21RoundRect,0.218750X0.381250X-0.218750X0.381250X0.218750X-0.381250X0.218750X-0.381250X-0.218750X0*%
%ADD22RoundRect,0.250000X0.450000X-0.262500X0.450000X0.262500X-0.450000X0.262500X-0.450000X-0.262500X0*%
%ADD23RoundRect,0.250000X0.262500X0.450000X-0.262500X0.450000X-0.262500X-0.450000X0.262500X-0.450000X0*%
%ADD24R,1.800000X1.200000*%
%ADD25RoundRect,0.250000X0.315000X0.315000X-0.315000X0.315000X-0.315000X-0.315000X0.315000X-0.315000X0*%
%ADD26RoundRect,0.062500X0.362500X0.062500X-0.362500X0.062500X-0.362500X-0.062500X0.362500X-0.062500X0*%
%ADD27RoundRect,0.062500X0.062500X0.362500X-0.062500X0.362500X-0.062500X-0.362500X0.062500X-0.362500X0*%
%ADD28RoundRect,0.218750X0.218750X0.381250X-0.218750X0.381250X-0.218750X-0.381250X0.218750X-0.381250X0*%
%ADD29RoundRect,0.218750X-0.424264X-0.114905X-0.114905X-0.424264X0.424264X0.114905X0.114905X0.424264X0*%
%ADD30RoundRect,0.250000X0.159099X-0.512652X0.512652X-0.159099X-0.159099X0.512652X-0.512652X0.159099X0*%
%ADD31RoundRect,0.250000X-0.159099X0.512652X-0.512652X0.159099X0.159099X-0.512652X0.512652X-0.159099X0*%
%ADD32RoundRect,0.218750X0.424264X0.114905X0.114905X0.424264X-0.424264X-0.114905X-0.114905X-0.424264X0*%
%ADD33RoundRect,0.218750X-0.218750X-0.381250X0.218750X-0.381250X0.218750X0.381250X-0.218750X0.381250X0*%
G04 APERTURE END LIST*
D10*
%TO.C,R15*%
X13819500Y24130000D03*
X15644500Y24130000D03*
%TD*%
%TO.C,R17*%
X13819500Y21590000D03*
X15644500Y21590000D03*
%TD*%
D11*
%TO.C,U1*%
X34900000Y14251299D03*
X34900000Y11951299D03*
D12*
X28600000Y11951299D03*
D11*
X34900000Y9651299D03*
%TD*%
D13*
%TO.C,Q1*%
X33760000Y41976000D03*
X33760000Y43876000D03*
X35635000Y42926000D03*
%TD*%
D14*
%TO.C,D3*%
X41452800Y39293800D03*
D15*
X45262800Y39293800D03*
%TD*%
D14*
%TO.C,D2*%
X41428500Y43384000D03*
D15*
X45238500Y43384000D03*
%TD*%
D16*
%TO.C,R19*%
X21590000Y37234500D03*
X21590000Y35409500D03*
%TD*%
D13*
%TO.C,Q2*%
X33760000Y38420000D03*
X33760000Y40320000D03*
X35635000Y39370000D03*
%TD*%
D17*
%TO.C,C1*%
X25958800Y9332000D03*
X25958800Y7432000D03*
%TD*%
D18*
%TO.C,C3*%
X26187400Y12192000D03*
X26187400Y14092000D03*
%TD*%
D19*
%TO.C,C5*%
X28844200Y16814800D03*
X30744200Y16814800D03*
%TD*%
D17*
%TO.C,C15*%
X20726400Y21955800D03*
X20726400Y20055800D03*
%TD*%
D20*
%TO.C,D1*%
X17018000Y12414000D03*
X17018000Y8414000D03*
%TD*%
D21*
%TO.C,L8*%
X26187400Y23448500D03*
X26187400Y25573500D03*
%TD*%
D22*
%TO.C,R1*%
X28524200Y21109300D03*
X28524200Y22934300D03*
%TD*%
D10*
%TO.C,R9*%
X13819500Y26670000D03*
X15644500Y26670000D03*
%TD*%
%TO.C,R10*%
X13819500Y31750000D03*
X15644500Y31750000D03*
%TD*%
D22*
%TO.C,R13*%
X22733000Y20093300D03*
X22733000Y21918300D03*
%TD*%
D10*
%TO.C,R16*%
X13819500Y19050000D03*
X15644500Y19050000D03*
%TD*%
D23*
%TO.C,R22*%
X39420000Y43384000D03*
X37595000Y43384000D03*
%TD*%
%TO.C,R23*%
X39545900Y39319200D03*
X37720900Y39319200D03*
%TD*%
D17*
%TO.C,C20*%
X24765000Y19390400D03*
X24765000Y17490400D03*
%TD*%
D19*
%TO.C,C17*%
X24526200Y21336000D03*
X26426200Y21336000D03*
%TD*%
%TO.C,C2*%
X34864000Y7213600D03*
X36764000Y7213600D03*
%TD*%
D16*
%TO.C,R18*%
X19050000Y37234500D03*
X19050000Y35409500D03*
%TD*%
D10*
%TO.C,R11*%
X13819500Y29210000D03*
X15644500Y29210000D03*
%TD*%
%TO.C,R12*%
X13819500Y34290000D03*
X15644500Y34290000D03*
%TD*%
D24*
%TO.C,Y2*%
X22675600Y30931000D03*
X18675600Y30931000D03*
X18675600Y33331000D03*
X22675600Y33331000D03*
%TD*%
D25*
%TO.C,U2*%
X22865047Y25462000D03*
X22865047Y26762000D03*
X21565047Y25462000D03*
X21565047Y26762000D03*
D26*
X24140047Y27112000D03*
X24140047Y26612000D03*
X24140047Y26112000D03*
X24140047Y25612000D03*
X24140047Y25112000D03*
D27*
X23215047Y24187000D03*
X22715047Y24187000D03*
X22215047Y24187000D03*
X21715047Y24187000D03*
X21215047Y24187000D03*
D26*
X20290047Y25112000D03*
X20290047Y25612000D03*
X20290047Y26112000D03*
X20290047Y26612000D03*
X20290047Y27112000D03*
D27*
X21215047Y28037000D03*
X21715047Y28037000D03*
X22215047Y28037000D03*
X22715047Y28037000D03*
X23215047Y28037000D03*
%TD*%
D28*
%TO.C,L7*%
X33269700Y25501600D03*
X31144700Y25501600D03*
%TD*%
%TO.C,L9*%
X32101300Y30327600D03*
X29976300Y30327600D03*
%TD*%
%TO.C,L5*%
X38806900Y25450800D03*
X36681900Y25450800D03*
%TD*%
D29*
%TO.C,L10*%
X26223499Y29199301D03*
X27726101Y27696699D03*
%TD*%
D30*
%TO.C,C7*%
X40374649Y24423449D03*
X41718151Y25766951D03*
%TD*%
D17*
%TO.C,C9*%
X34975800Y25435600D03*
X34975800Y23535600D03*
%TD*%
D18*
%TO.C,C13*%
X28194000Y30266600D03*
X28194000Y32166600D03*
%TD*%
D19*
%TO.C,C11*%
X27777400Y25501600D03*
X29677400Y25501600D03*
%TD*%
D31*
%TO.C,C4*%
X44385151Y20610751D03*
X43041649Y19267249D03*
%TD*%
D19*
%TO.C,C12*%
X30165000Y28397200D03*
X32065000Y28397200D03*
%TD*%
%TO.C,C6*%
X33822600Y30530800D03*
X35722600Y30530800D03*
%TD*%
D32*
%TO.C,L3*%
X43118501Y21778499D03*
X41615899Y23281101D03*
%TD*%
D23*
%TO.C,L1*%
X48029500Y20040600D03*
X46204500Y20040600D03*
%TD*%
D17*
%TO.C,C19*%
X18694400Y21955800D03*
X18694400Y20055800D03*
%TD*%
D16*
%TO.C,R4*%
X26670000Y37285300D03*
X26670000Y35460300D03*
%TD*%
D10*
%TO.C,R2*%
X29313500Y43180000D03*
X31138500Y43180000D03*
%TD*%
D23*
%TO.C,R5*%
X30503500Y37160200D03*
X28678500Y37160200D03*
%TD*%
D10*
%TO.C,R3*%
X29313500Y40386000D03*
X31138500Y40386000D03*
%TD*%
D33*
%TO.C,L11*%
X26725100Y19304000D03*
X28850100Y19304000D03*
%TD*%
M02*
