%TF.GenerationSoftware,KiCad,Pcbnew,7.0.11+1*%
%TF.CreationDate,2024-07-13T22:37:04+00:00*%
%TF.ProjectId,ISM03,49534d30-332e-46b6-9963-61645f706362,rev?*%
%TF.SameCoordinates,Original*%
%TF.FileFunction,Soldermask,Bot*%
%TF.FilePolarity,Negative*%
%FSLAX46Y46*%
G04 Gerber Fmt 4.6, Leading zero omitted, Abs format (unit mm)*
G04 Created by KiCad (PCBNEW 7.0.11+1) date 2024-07-13 22:37:04*
%MOMM*%
%LPD*%
G01*
G04 APERTURE LIST*
G04 Aperture macros list*
%AMRoundRect*
0 Rectangle with rounded corners*
0 $1 Rounding radius*
0 $2 $3 $4 $5 $6 $7 $8 $9 X,Y pos of 4 corners*
0 Add a 4 corners polygon primitive as box body*
4,1,4,$2,$3,$4,$5,$6,$7,$8,$9,$2,$3,0*
0 Add four circle primitives for the rounded corners*
1,1,$1+$1,$2,$3*
1,1,$1+$1,$4,$5*
1,1,$1+$1,$6,$7*
1,1,$1+$1,$8,$9*
0 Add four rect primitives between the rounded corners*
20,1,$1+$1,$2,$3,$4,$5,0*
20,1,$1+$1,$4,$5,$6,$7,0*
20,1,$1+$1,$6,$7,$8,$9,0*
20,1,$1+$1,$8,$9,$2,$3,0*%
%AMFreePoly0*
4,1,25,0.405000,0.748540,0.473851,0.737775,0.540468,0.697134,0.586462,0.634092,0.604830,0.558249,0.592776,0.481149,0.558927,0.388685,0.517726,0.196112,0.503933,-0.000335,0.517820,-0.196775,0.559113,-0.389328,0.593005,-0.481776,0.605097,-0.558870,0.586765,-0.634722,0.540802,-0.697786,0.474204,-0.738459,0.405000,-0.749313,0.405000,-0.750000,0.400623,-0.750000,0.397110,-0.750551,
0.394830,-0.750000,-0.645000,-0.750000,-0.645000,0.750000,0.405000,0.750000,0.405000,0.748540,0.405000,0.748540,$1*%
G04 Aperture macros list end*
%ADD10R,1.524000X1.524000*%
%ADD11C,6.000000*%
%ADD12C,2.500000*%
%ADD13C,2.700000*%
%ADD14RoundRect,0.250000X-0.262500X-0.450000X0.262500X-0.450000X0.262500X0.450000X-0.262500X0.450000X0*%
%ADD15RoundRect,0.250000X0.450000X-0.262500X0.450000X0.262500X-0.450000X0.262500X-0.450000X-0.262500X0*%
%ADD16R,2.032000X1.016000*%
%ADD17R,2.032000X3.657600*%
%ADD18RoundRect,0.150000X0.150000X-0.587500X0.150000X0.587500X-0.150000X0.587500X-0.150000X-0.587500X0*%
%ADD19FreePoly0,0.000000*%
%ADD20FreePoly0,180.000000*%
%ADD21RoundRect,0.250000X-0.450000X0.262500X-0.450000X-0.262500X0.450000X-0.262500X0.450000X0.262500X0*%
%ADD22RoundRect,0.250000X-0.250000X-0.475000X0.250000X-0.475000X0.250000X0.475000X-0.250000X0.475000X0*%
%ADD23RoundRect,0.250000X-0.475000X0.250000X-0.475000X-0.250000X0.475000X-0.250000X0.475000X0.250000X0*%
%ADD24RoundRect,0.250000X0.650000X-1.000000X0.650000X1.000000X-0.650000X1.000000X-0.650000X-1.000000X0*%
%ADD25RoundRect,0.218750X0.381250X-0.218750X0.381250X0.218750X-0.381250X0.218750X-0.381250X-0.218750X0*%
%ADD26RoundRect,0.250000X0.262500X0.450000X-0.262500X0.450000X-0.262500X-0.450000X0.262500X-0.450000X0*%
%ADD27R,1.800000X1.200000*%
%ADD28RoundRect,0.062500X0.362500X0.062500X-0.362500X0.062500X-0.362500X-0.062500X0.362500X-0.062500X0*%
%ADD29RoundRect,0.062500X0.062500X0.362500X-0.062500X0.362500X-0.062500X-0.362500X0.062500X-0.362500X0*%
%ADD30R,2.600000X2.600000*%
%ADD31RoundRect,0.218750X0.218750X0.381250X-0.218750X0.381250X-0.218750X-0.381250X0.218750X-0.381250X0*%
%ADD32RoundRect,0.218750X-0.381250X0.218750X-0.381250X-0.218750X0.381250X-0.218750X0.381250X0.218750X0*%
%ADD33RoundRect,0.250000X0.475000X-0.250000X0.475000X0.250000X-0.475000X0.250000X-0.475000X-0.250000X0*%
%ADD34RoundRect,0.218750X0.114905X-0.424264X0.424264X-0.114905X-0.114905X0.424264X-0.424264X0.114905X0*%
G04 APERTURE END LIST*
D10*
%TO.C,J17*%
X24601000Y10173500D03*
X24601000Y12713500D03*
%TD*%
%TO.C,J24*%
X14568000Y40590000D03*
X14568000Y43130000D03*
%TD*%
%TO.C,J25*%
X22188000Y40082000D03*
X22188000Y42622000D03*
%TD*%
%TO.C,J1*%
X-2549953Y34289311D03*
X-9953Y34289311D03*
X-2549953Y31749311D03*
X-9953Y31749311D03*
X-2549953Y29209311D03*
X-9953Y29209311D03*
%TD*%
%TO.C,J4*%
X-2549953Y21208311D03*
X-9953Y21208311D03*
X-2549953Y18668311D03*
X-9953Y18668311D03*
X-2549953Y16128311D03*
X-9953Y16128311D03*
%TD*%
%TO.C,J13*%
X13335000Y22860000D03*
X10795000Y22860000D03*
%TD*%
%TO.C,J14*%
X13044000Y29414000D03*
X10504000Y29414000D03*
%TD*%
%TO.C,J19*%
X10795000Y20320000D03*
X13335000Y20320000D03*
%TD*%
%TO.C,J20*%
X22061000Y10173500D03*
X22061000Y12713500D03*
%TD*%
%TO.C,J21*%
X19521000Y10173500D03*
X19521000Y12713500D03*
%TD*%
D11*
%TO.C,M1*%
X10160000Y40640000D03*
%TD*%
%TO.C,M2*%
X50800000Y40640000D03*
%TD*%
%TO.C,M3*%
X10160000Y10160000D03*
%TD*%
%TO.C,M4*%
X50800000Y10160000D03*
%TD*%
D12*
%TO.C,J3*%
X50790047Y31749311D03*
D13*
X48250047Y34289311D03*
X48250047Y29209311D03*
X53330047Y34289311D03*
X53330047Y29209311D03*
%TD*%
D10*
%TO.C,J26*%
X11430000Y31750000D03*
X8890000Y31750000D03*
%TD*%
%TO.C,J22*%
X17108000Y40639311D03*
X17108000Y43179311D03*
%TD*%
%TO.C,J16*%
X11430000Y34748000D03*
X8890000Y34748000D03*
%TD*%
%TO.C,J15*%
X12486689Y26874000D03*
X9946689Y26874000D03*
%TD*%
%TO.C,J23*%
X19648000Y40639311D03*
X19648000Y43179311D03*
%TD*%
D12*
%TO.C,J2*%
X50790047Y20954311D03*
D13*
X48250047Y23494311D03*
X48250047Y18414311D03*
X53330047Y23494311D03*
X53330047Y18414311D03*
%TD*%
D10*
%TO.C,J5*%
X24728000Y40082000D03*
X24728000Y42622000D03*
%TD*%
D14*
%TO.C,R15*%
X15941500Y20320000D03*
X17766500Y20320000D03*
%TD*%
D15*
%TO.C,R17*%
X19521000Y14976000D03*
X19521000Y16801000D03*
%TD*%
D16*
%TO.C,U1*%
X31967000Y8395500D03*
X31967000Y10681500D03*
X31967000Y12967500D03*
D17*
X38571000Y10681500D03*
%TD*%
D18*
%TO.C,Q1*%
X35647500Y41938500D03*
X33747500Y41938500D03*
X34697500Y43813500D03*
%TD*%
D13*
%TO.C,D3*%
X43333501Y39828000D03*
D19*
X41428501Y39828000D03*
D20*
X45238501Y39828000D03*
%TD*%
D13*
%TO.C,D2*%
X43333500Y43384000D03*
D19*
X41428500Y43384000D03*
D20*
X45238500Y43384000D03*
%TD*%
D21*
%TO.C,R19*%
X19648000Y38376811D03*
X19648000Y36551811D03*
%TD*%
D18*
%TO.C,Q2*%
X35647500Y38128500D03*
X33747500Y38128500D03*
X34697500Y40003500D03*
%TD*%
D22*
%TO.C,C1*%
X5453547Y29971311D03*
X7353547Y29971311D03*
%TD*%
D23*
%TO.C,C3*%
X40984000Y11568000D03*
X40984000Y9668000D03*
%TD*%
%TO.C,C5*%
X43270000Y11314000D03*
X43270000Y9414000D03*
%TD*%
%TO.C,C15*%
X22188000Y21982000D03*
X22188000Y20082000D03*
%TD*%
D24*
%TO.C,D1*%
X3165047Y30384311D03*
X3165047Y34384311D03*
%TD*%
D25*
%TO.C,L8*%
X32375047Y24336811D03*
X32375047Y26461811D03*
%TD*%
D26*
%TO.C,R1*%
X35256047Y21412000D03*
X33431047Y21412000D03*
%TD*%
D14*
%TO.C,R9*%
X15941500Y22860000D03*
X17766500Y22860000D03*
%TD*%
%TO.C,R10*%
X15306500Y29414000D03*
X17131500Y29414000D03*
%TD*%
D15*
%TO.C,R13*%
X24601000Y14976000D03*
X24601000Y16801000D03*
%TD*%
%TO.C,R16*%
X22061000Y14976000D03*
X22061000Y16801000D03*
%TD*%
D26*
%TO.C,R22*%
X39420000Y43384000D03*
X37595000Y43384000D03*
%TD*%
%TO.C,R23*%
X39356500Y39828000D03*
X37531500Y39828000D03*
%TD*%
D23*
%TO.C,C20*%
X28792000Y21982000D03*
X28792000Y20082000D03*
%TD*%
%TO.C,C17*%
X24728000Y21982000D03*
X24728000Y20082000D03*
%TD*%
D22*
%TO.C,C2*%
X5453547Y32003311D03*
X7353547Y32003311D03*
%TD*%
D21*
%TO.C,R18*%
X17108000Y38376811D03*
X17108000Y36551811D03*
%TD*%
D14*
%TO.C,R11*%
X15597500Y25400000D03*
X17422500Y25400000D03*
%TD*%
%TO.C,R12*%
X14749189Y31954000D03*
X16574189Y31954000D03*
%TD*%
D27*
%TO.C,Y2*%
X23654600Y30931800D03*
X19654600Y30931800D03*
X19654600Y33331800D03*
X23654600Y33331800D03*
%TD*%
D28*
%TO.C,U2*%
X24140047Y27112000D03*
X24140047Y26612000D03*
X24140047Y26112000D03*
X24140047Y25612000D03*
X24140047Y25112000D03*
D29*
X23215047Y24187000D03*
X22715047Y24187000D03*
X22215047Y24187000D03*
X21715047Y24187000D03*
X21215047Y24187000D03*
D28*
X20290047Y25112000D03*
X20290047Y25612000D03*
X20290047Y26112000D03*
X20290047Y26612000D03*
X20290047Y27112000D03*
D29*
X21215047Y28037000D03*
X21715047Y28037000D03*
X22215047Y28037000D03*
X22715047Y28037000D03*
X23215047Y28037000D03*
D30*
X22215047Y26112000D03*
%TD*%
D31*
%TO.C,L7*%
X34199547Y28167911D03*
X32074547Y28167911D03*
%TD*%
%TO.C,L6*%
X37247547Y31749311D03*
X35122547Y31749311D03*
%TD*%
%TO.C,L9*%
X33437547Y34289311D03*
X31312547Y34289311D03*
%TD*%
%TO.C,L5*%
X38009547Y28167911D03*
X35884547Y28167911D03*
%TD*%
D32*
%TO.C,L10*%
X29200047Y34081811D03*
X29200047Y31956811D03*
%TD*%
D23*
%TO.C,C7*%
X39487047Y25942911D03*
X39487047Y24042911D03*
%TD*%
%TO.C,C9*%
X34407047Y25942911D03*
X34407047Y24042911D03*
%TD*%
D33*
%TO.C,C13*%
X31486047Y36450811D03*
X31486047Y38350811D03*
%TD*%
%TO.C,C10*%
X35550047Y33974311D03*
X35550047Y35874311D03*
%TD*%
%TO.C,C11*%
X29835047Y26354311D03*
X29835047Y28254311D03*
%TD*%
D23*
%TO.C,C4*%
X43297047Y25942911D03*
X43297047Y24042911D03*
%TD*%
D22*
%TO.C,C12*%
X31425047Y31749311D03*
X33325047Y31749311D03*
%TD*%
D33*
%TO.C,C6*%
X41900047Y33974311D03*
X41900047Y35874311D03*
%TD*%
%TO.C,C8*%
X38725047Y33974311D03*
X38725047Y35874311D03*
%TD*%
D31*
%TO.C,L3*%
X41819547Y28167911D03*
X39694547Y28167911D03*
%TD*%
%TO.C,L4*%
X41057547Y31749311D03*
X38932547Y31749311D03*
%TD*%
D26*
%TO.C,L1*%
X45352547Y28193311D03*
X43527547Y28193311D03*
%TD*%
%TO.C,L2*%
X44717547Y31749311D03*
X42892547Y31749311D03*
%TD*%
D23*
%TO.C,C19*%
X26760000Y21982000D03*
X26760000Y20082000D03*
%TD*%
D21*
%TO.C,R4*%
X25998000Y34644500D03*
X25998000Y32819500D03*
%TD*%
D14*
%TO.C,R2*%
X29911500Y43638000D03*
X31736500Y43638000D03*
%TD*%
D26*
%TO.C,R5*%
X26910500Y37542000D03*
X25085500Y37542000D03*
%TD*%
D14*
%TO.C,R3*%
X29911500Y41606000D03*
X31736500Y41606000D03*
%TD*%
D34*
%TO.C,L11*%
X34898699Y17740699D03*
X36401301Y19243301D03*
%TD*%
M02*
